# Generated by GTAClone/tools/split_car_wheels.py from delivery.obj
# Kenney Car Kit (CC0 1.0); the split is a derivative work, also CC0.
mtllib colormap.mtl
v -0.550000 0.625000 -1.573782
v 0.550000 0.500000 -1.500000
v -0.550000 0.500000 -1.500000
v 0.550000 0.625000 -1.573782
v -0.550000 0.750000 -1.500000
v -0.100000 0.625000 -1.573782
v -0.100000 0.668059 -1.548367
v -0.100000 0.711117 -1.522951
v 0.550000 0.750000 -1.500000
v 0.100000 0.711117 -1.522951
v 0.100000 0.668059 -1.548367
v 0.100000 0.625000 -1.573782
v -0.550000 0.875000 -1.573782
v 0.550000 0.875000 -1.573782
v -0.550000 1.125000 -1.573782
v 0.550000 1.000000 -1.500000
v -0.550000 1.000000 -1.500000
v 0.550000 1.125000 -1.573782
v -0.550000 1.250000 -1.500000
v 0.550000 1.250000 -1.500000
v -0.550000 1.375000 -1.573782
v 0.550000 1.375000 -1.573782
v -0.550000 1.500000 -1.500000
v 0.550000 1.500000 -1.500000
v 0.100000 0.723825 -1.544480
v 0.100000 0.693474 -1.591425
v -0.100000 0.693474 -1.591425
v -0.100000 0.723825 -1.544480
v -0.100000 0.625000 -1.573782
v 0.100000 0.625000 -1.573782
v -0.469612 1.201942 0.831806
v -0.450000 1.300000 0.446922
v -0.469612 1.201942 0.446922
v -0.450000 1.300000 0.900000
v -0.550000 0.800000 0.992583
v -0.550000 0.800000 1.100000
v 0.450000 1.300000 0.900000
v 0.469612 1.201942 0.446922
v 0.450000 1.300000 0.446922
v 0.469612 1.201942 0.831806
v 0.550000 0.800000 0.992583
v 0.550000 0.800000 1.100000
v -0.700000 0.700000 0.872902
v -0.550000 0.700000 0.772902
v -0.550000 0.700000 0.872902
v -0.700000 0.700000 0.772902
v -0.275000 0.600000 1.500000
v 0.275000 0.700000 1.500000
v -0.275000 0.700000 1.500000
v 0.275000 0.600000 1.500000
v -0.550000 0.600000 1.500000
v 0.550000 0.600000 1.500000
v -0.550000 0.500000 1.500000
v 0.550000 0.500000 1.500000
v -0.550000 0.600000 1.400000
v -0.550000 0.500000 1.343913
v -0.550000 0.725000 1.400000
v -0.550000 0.575772 1.285772
v -0.550000 0.637750 1.205000
v -0.550000 0.676711 1.110939
v -0.550000 0.690000 1.010000
v -0.550000 0.676711 0.909061
v -0.550000 0.800000 0.872902
v -0.550000 0.637750 0.815000
v -0.550000 0.575772 0.734228
v -0.550000 0.800000 0.772902
v -0.550000 0.500000 0.676087
v -0.550000 0.500000 0.446922
v -0.550000 0.800000 0.446922
v 0.448290 0.800000 1.100000
v 0.366860 1.207152 0.937139
v -0.366860 1.207152 0.937139
v -0.448290 0.800000 1.100000
v 0.750000 0.900000 0.872902
v 0.750000 0.750000 0.772902
v 0.750000 0.900000 0.772902
v 0.750000 0.750000 0.872902
v -0.750000 0.900000 0.772902
v -0.530000 0.900000 0.872902
v -0.530000 0.900000 0.772902
v -0.750000 0.900000 0.872902
v 0.550000 0.725000 1.400000
v 0.550000 0.700000 1.500000
v -0.550000 0.700000 1.500000
v 0.550000 0.700000 0.872902
v 0.550000 0.800000 0.872902
v 0.550000 0.676711 0.909061
v 0.550000 0.690000 1.010000
v 0.550000 0.637750 0.815000
v 0.550000 0.700000 0.772902
v 0.550000 0.676711 1.110939
v 0.550000 0.575772 0.734228
v 0.550000 0.800000 0.772902
v 0.550000 0.500000 0.676087
v 0.550000 0.500000 0.446922
v 0.550000 0.800000 0.446922
v 0.550000 0.637750 1.205000
v 0.550000 0.575772 1.285772
v 0.550000 0.500000 1.343913
v 0.550000 0.600000 1.400000
v 0.530000 0.900000 0.772902
v 0.530000 0.900000 0.872902
v 0.700000 0.700000 0.872902
v -0.750000 0.750000 0.872902
v -0.750000 0.750000 0.772902
v 0.700000 0.700000 0.772902
v -0.350000 1.400000 0.446922
v 0.350000 1.400000 0.750000
v 0.350000 1.400000 0.446922
v -0.350000 1.400000 0.750000
v -0.350000 1.300000 0.800000
v -0.350000 1.300000 0.446922
v -0.350000 1.350000 0.800000
v 0.350000 1.300000 0.446922
v 0.350000 1.300000 0.800000
v 0.350000 1.350000 0.800000
v -0.550000 0.400000 -1.600000
v 0.550000 0.300000 -1.600000
v -0.550000 0.300000 -1.600000
v 0.550000 0.400000 -1.600000
v 0.450000 0.400000 -1.600000
v -0.450000 0.400000 -1.600000
v -0.650000 0.300000 0.446922
v -0.483333 0.300000 0.620000
v -0.483333 0.300000 0.446922
v -0.650000 0.300000 0.620000
v 0.483333 0.300000 0.446922
v 0.650000 0.300000 0.620000
v 0.650000 0.300000 0.446922
v 0.483333 0.300000 0.620000
v -0.650000 0.637750 1.205000
v -0.650000 0.575772 1.285772
v 0.548333 0.495000 1.347750
v 0.516980 0.400939 1.386711
v 0.516667 0.400000 1.386835
v 0.516667 0.400000 1.466667
v 0.650000 0.637750 0.815000
v 0.650000 0.575772 0.734228
v 0.548333 0.495000 0.672250
v 0.516980 0.400939 0.633289
v -0.650000 0.575772 0.734228
v -0.650000 0.637750 0.815000
v 0.650000 0.676711 1.110939
v 0.650000 0.690000 1.010000
v -0.650000 0.495000 0.672250
v -0.516980 0.400939 0.633289
v -0.650000 0.400939 0.633289
v -0.548333 0.495000 0.672250
v 0.650000 0.676711 0.909061
v 0.650000 0.495000 1.347750
v 0.650000 0.400939 1.386711
v -0.516980 0.400939 1.386711
v -0.650000 0.495000 1.347750
v -0.650000 0.400939 1.386711
v -0.548333 0.495000 1.347750
v 0.650000 0.575772 1.285772
v 0.650000 0.637750 1.205000
v 0.650000 0.495000 0.672250
v 0.650000 0.400939 0.633289
v -0.650000 0.676711 0.909061
v -0.650000 0.690000 1.010000
v -0.650000 0.676711 1.110939
v -0.650000 0.400000 1.386835
v -0.516667 0.400000 1.386835
v 0.650000 0.400000 1.386835
v -0.516667 0.400000 1.466667
v -0.550000 1.500000 0.200000
v -0.275000 0.700000 0.200000
v -0.550000 0.700000 0.200000
v 0.550000 1.500000 0.200000
v 0.550000 0.700000 0.200000
v 0.275000 0.700000 0.200000
v -0.275000 0.500000 0.200000
v 0.275000 0.500000 0.200000
v 0.550000 1.500000 -1.600000
v -0.550000 1.500000 -1.600000
v 0.275000 0.700000 -0.900000
v 0.275000 0.500000 -0.900000
v -0.275000 0.500000 -0.900000
v -0.275000 0.700000 -0.900000
v -0.550000 0.700000 -0.900000
v -0.550000 0.700000 -0.610000
v 0.550000 0.700000 -0.610000
v 0.550000 0.700000 -0.900000
v 0.550000 0.500000 -0.900000
v 0.550000 0.500000 -1.600000
v -0.550000 0.500000 -0.900000
v 0.450000 0.500000 -1.600000
v -0.450000 0.500000 -1.600000
v -0.550000 0.500000 -1.600000
v -0.350000 0.300000 -0.910000
v 0.350000 0.200000 -0.910000
v -0.350000 0.200000 -0.910000
v 0.350000 0.300000 -0.910000
v 0.650000 0.300000 -1.500000
v 0.650000 0.300000 -0.910000
v 0.620711 0.300000 -1.570711
v -0.650000 0.300000 -0.910000
v -0.620711 0.300000 -1.570711
v -0.650000 0.300000 -1.500000
v -0.620711 0.400000 -1.570711
v -0.650000 0.400000 -1.500000
v 0.650000 0.400000 -1.500000
v 0.620711 0.400000 -1.570711
v 0.620711 0.400000 1.520711
v 0.650000 0.200000 1.450000
v 0.650000 0.400000 1.450000
v 0.620711 0.200000 1.520711
v 0.550000 0.400000 1.550000
v -0.550000 0.200000 1.550000
v 0.550000 0.200000 1.550000
v -0.550000 0.400000 1.550000
v -0.620711 0.200000 1.520711
v -0.620711 0.400000 1.520711
v -0.650000 0.400000 1.450000
v -0.650000 0.200000 1.450000
v 0.650000 0.200000 0.710000
v 0.350000 0.200000 -0.310000
v 0.650000 0.200000 -0.310000
v 0.350000 0.200000 0.710000
v -0.350000 0.200000 1.310000
v 0.350000 0.200000 1.310000
v -0.350000 0.200000 -0.310000
v -0.350000 0.200000 0.710000
v -0.650000 0.200000 -0.310000
v -0.650000 0.200000 0.710000
v -0.650000 0.200000 1.310000
v 0.650000 0.200000 1.310000
v 0.650000 0.300000 1.310000
v 0.650000 0.377646 1.299778
v 0.650000 0.450000 1.269808
v 0.650000 0.512132 1.222132
v 0.650000 0.559808 1.160000
v 0.650000 0.589778 1.087646
v 0.650000 0.600000 1.010000
v 0.650000 0.589778 0.932354
v 0.650000 0.559808 0.860000
v 0.650000 0.512132 0.797868
v 0.650000 0.450000 0.750192
v 0.650000 0.377646 0.720222
v 0.650000 0.300000 0.710000
v 0.650000 0.300000 -0.220000
v 0.650000 0.495000 -0.272250
v 0.650000 0.400939 -0.233289
v 0.650000 0.300000 -0.310000
v 0.650000 0.377646 -0.320222
v 0.650000 0.575772 -0.334228
v 0.650000 0.450000 -0.350192
v 0.650000 0.512132 -0.397868
v 0.650000 0.637750 -0.415000
v 0.650000 0.559808 -0.460000
v 0.650000 0.676711 -0.509061
v 0.650000 0.589778 -0.532354
v 0.650000 0.600000 -0.610000
v 0.650000 0.690000 -0.610000
v 0.650000 0.589778 -0.687646
v 0.650000 0.676711 -0.710939
v 0.650000 0.559808 -0.760000
v 0.650000 0.637750 -0.805000
v 0.650000 0.512132 -0.822132
v 0.650000 0.450000 -0.869808
v 0.650000 0.575772 -0.885772
v 0.650000 0.377646 -0.899778
v 0.650000 0.495000 -0.947750
v 0.650000 0.400939 -0.986711
v 0.650000 0.400000 -0.986835
v -0.650000 0.400000 -0.986835
v -0.650000 0.400939 -0.986711
v -0.650000 0.495000 -0.947750
v -0.650000 0.575772 -0.885772
v -0.650000 0.377646 -0.899778
v -0.650000 0.450000 -0.869808
v -0.650000 0.637750 -0.805000
v -0.650000 0.512132 -0.822132
v -0.650000 0.559808 -0.760000
v -0.650000 0.676711 -0.710939
v -0.650000 0.589778 -0.687646
v -0.650000 0.690000 -0.610000
v -0.650000 0.600000 -0.610000
v -0.650000 0.589778 -0.532354
v -0.650000 0.676711 -0.509061
v -0.650000 0.559808 -0.460000
v -0.650000 0.637750 -0.415000
v -0.650000 0.512132 -0.397868
v -0.650000 0.575772 -0.334228
v -0.650000 0.450000 -0.350192
v -0.650000 0.377646 -0.320222
v -0.650000 0.495000 -0.272250
v -0.650000 0.300000 -0.310000
v -0.650000 0.300000 -0.220000
v -0.650000 0.400939 -0.233289
v -0.650000 0.300000 0.710000
v -0.650000 0.377646 0.720222
v -0.650000 0.450000 0.750192
v -0.650000 0.512132 0.797868
v -0.650000 0.559808 0.860000
v -0.650000 0.589778 0.932354
v -0.650000 0.600000 1.010000
v -0.650000 0.589778 1.087646
v -0.650000 0.559808 1.160000
v -0.650000 0.512132 1.222132
v -0.650000 0.450000 1.269808
v -0.650000 0.377646 1.299778
v -0.650000 0.300000 1.310000
v -0.125000 0.250000 -1.600000
v -0.175000 0.300000 -1.650000
v -0.125000 0.250000 -1.650000
v -0.175000 0.300000 -1.600000
v 0.125000 0.250000 -1.600000
v 0.125000 0.250000 -1.650000
v 0.175000 0.300000 -1.600000
v 0.175000 0.300000 -1.650000
v -0.175000 0.375000 -1.650000
v -0.125000 0.425000 -1.600000
v -0.125000 0.425000 -1.650000
v -0.175000 0.375000 -1.600000
v 0.175000 0.375000 -1.600000
v 0.125000 0.425000 -1.600000
v 0.125000 0.425000 -1.650000
v 0.175000 0.375000 -1.650000
v 0.125000 0.150000 1.550000
v 0.175000 0.200000 1.600000
v 0.125000 0.150000 1.600000
v 0.175000 0.200000 1.550000
v -0.125000 0.150000 1.550000
v -0.125000 0.150000 1.600000
v -0.175000 0.200000 1.550000
v -0.175000 0.200000 1.600000
v 0.175000 0.275000 1.600000
v 0.125000 0.325000 1.550000
v 0.125000 0.325000 1.600000
v 0.175000 0.275000 1.550000
v -0.175000 0.275000 1.550000
v -0.125000 0.325000 1.550000
v -0.125000 0.325000 1.600000
v -0.175000 0.275000 1.600000
v 0.350000 0.559808 1.160000
v 0.350000 0.589778 1.087646
v 0.350000 0.300000 0.710000
v 0.350000 0.377646 0.720222
v 0.350000 0.450000 0.750192
v 0.350000 0.300000 1.310000
v 0.350000 0.377646 1.299778
v 0.350000 0.512132 1.222132
v 0.350000 0.600000 1.010000
v 0.350000 0.450000 1.269808
v 0.350000 0.589778 0.932354
v 0.350000 0.559808 0.860000
v 0.350000 0.512132 0.797868
v -0.350000 0.300000 0.710000
v -0.350000 0.589778 0.932354
v -0.350000 0.600000 1.010000
v -0.350000 0.300000 1.310000
v -0.350000 0.377646 1.299778
v -0.350000 0.377646 0.720222
v -0.350000 0.450000 0.750192
v -0.350000 0.512132 0.797868
v -0.350000 0.559808 0.860000
v -0.350000 0.589778 1.087646
v -0.350000 0.559808 1.160000
v -0.350000 0.512132 1.222132
v -0.350000 0.450000 1.269808
v 0.350000 0.512132 -0.397868
v 0.350000 0.559808 -0.460000
v 0.550000 0.600000 -0.610000
v 0.350000 0.589778 -0.687646
v 0.350000 0.600000 -0.610000
v 0.350000 0.377646 -0.320222
v 0.350000 0.450000 -0.350192
v -0.350000 0.300000 -0.310000
v 0.350000 0.450000 -0.869808
v 0.350000 0.512132 -0.822132
v 0.350000 0.559808 -0.760000
v 0.350000 0.377646 -0.899778
v 0.350000 0.300000 -0.310000
v 0.350000 0.589778 -0.532354
v -0.350000 0.512132 -0.397868
v -0.350000 0.450000 -0.350192
v -0.350000 0.559808 -0.760000
v -0.350000 0.589778 -0.687646
v -0.350000 0.512132 -0.822132
v -0.350000 0.450000 -0.869808
v -0.350000 0.600000 -0.610000
v -0.350000 0.589778 -0.532354
v -0.550000 0.600000 -0.610000
v -0.350000 0.377646 -0.899778
v -0.350000 0.559808 -0.460000
v -0.350000 0.377646 -0.320222
v -0.650000 0.400000 -1.600000
v 0.650000 0.400000 -1.600000
v 0.650000 1.550000 0.446922
v -0.650000 1.550000 0.446922
v 0.600000 1.600000 0.446922
v -0.600000 1.600000 0.446922
v -0.650000 1.550000 -1.600000
v -0.650000 0.500000 -1.600000
v 0.650000 1.550000 -1.600000
v 0.600000 1.600000 -1.600000
v -0.600000 1.600000 -1.600000
v 0.650000 0.500000 -1.600000
v 0.600000 1.600000 0.446922
v -0.600000 1.600000 0.446922
v -0.650000 1.550000 0.446922
v -0.650000 0.400000 -1.500000
v -0.650000 0.637750 -0.805000
v -0.650000 0.676711 -0.710939
v -0.650000 0.690000 -0.610000
v -0.650000 0.575772 -0.885772
v -0.650000 0.495000 -0.947750
v -0.650000 0.400939 -0.986711
v -0.650000 0.400000 -0.986835
v -0.650000 0.676711 -0.509061
v -0.650000 0.637750 -0.415000
v -0.650000 0.575772 -0.334228
v -0.650000 0.495000 -0.272250
v -0.650000 0.400939 -0.233289
v -0.650000 0.300000 -0.220000
v -0.650000 0.300000 0.446922
v 0.650000 1.550000 0.446922
v 0.650000 0.400000 -1.500000
v 0.650000 0.637750 -0.805000
v 0.650000 0.676711 -0.710939
v 0.650000 0.690000 -0.610000
v 0.650000 0.575772 -0.885772
v 0.650000 0.495000 -0.947750
v 0.650000 0.400939 -0.986711
v 0.650000 0.400000 -0.986835
v 0.650000 0.676711 -0.509061
v 0.650000 0.637750 -0.415000
v 0.650000 0.575772 -0.334228
v 0.650000 0.495000 -0.272250
v 0.650000 0.400939 -0.233289
v 0.650000 0.300000 -0.220000
v 0.650000 0.300000 0.446922
v -0.180000 1.650000 -1.033078
v 0.180000 1.650000 -0.673079
v 0.180000 1.650000 -1.033078
v -0.180000 1.650000 -0.673079
v -0.200000 1.600000 -0.653079
v 0.200000 1.600000 -0.653079
v 0.200000 1.600000 -1.053079
v -0.200000 1.600000 -1.053079
v 0.450000 0.400000 -1.600000
v 0.650000 0.400000 -1.600000
v 0.550000 0.400000 -1.600000
v 0.450000 0.500000 -1.600000
v 0.650000 0.500000 -1.600000
v 0.550000 0.500000 -1.600000
v -0.650000 0.400000 -1.600000
v -0.450000 0.400000 -1.600000
v -0.550000 0.400000 -1.600000
v -0.650000 0.500000 -1.600000
v -0.450000 0.500000 -1.600000
v -0.550000 0.500000 -1.600000
v 0.469612 1.201942 0.831806
v 0.550000 0.800000 0.446921
v 0.469612 1.201942 0.446921
v 0.530000 0.900000 0.772902
v 0.550000 0.800000 0.772902
v 0.530000 0.900000 0.872902
v 0.550000 0.800000 0.992583
v 0.550000 0.800000 0.872902
v -0.550000 0.800000 0.992583
v -0.530000 0.900000 0.872902
v -0.550000 0.800000 0.872902
v -0.469612 1.201942 0.831806
v -0.530000 0.900000 0.772902
v -0.469612 1.201942 0.446921
v -0.550000 0.800000 0.772902
v -0.550000 0.800000 0.446921
v 0.366860 1.207152 0.937139
v -0.448290 0.800000 1.100000
v 0.448290 0.800000 1.100000
v -0.366860 1.207152 0.937139
v 0.550000 0.700000 1.500000
v 0.550000 0.600000 1.400000
v 0.550000 0.725000 1.400000
v 0.550000 0.600000 1.500000
v -0.275000 0.700000 1.500000
v -0.550000 0.600000 1.500000
v -0.275000 0.600000 1.500000
v -0.550000 0.700000 1.500000
v 0.275000 0.600000 1.500000
v 0.275000 0.700000 1.500000
v -0.550000 0.725000 1.400000
v -0.550000 0.600000 1.400000
vt 0.468750 0.275000
vt 0.843750 0.375000
vt 0.843750 0.275000
vt 0.843750 0.475000
vt 0.843750 0.420095
vt 0.843750 0.433621
vt 0.843750 0.364655
vt 0.843750 0.350862
vt 0.843750 0.337069
vt 0.843750 0.323276
vt 0.843750 0.354310
vt 0.843750 0.333727
vt 0.843750 0.342276
vt 0.843750 0.347650
vt 0.843750 0.349483
vt 0.843750 0.420814
vt 0.843750 0.378448
vt 0.843750 0.357759
vt 0.468750 0.309483
vt 0.468750 0.295690
vt 0.468750 0.559483
vt 0.468750 0.342276
vt 0.468750 0.333727
vt 0.468750 0.323276
vt 0.468750 0.322586
vt 0.468750 0.309612
vt 0.468750 0.349483
vt 0.468750 0.347650
vt 0.468750 0.461207
vt 0.468750 0.350862
vt 0.468750 0.281897
vt 0.468750 0.306399
vt 0.468750 0.316379
vt 0.468750 0.324949
vt 0.468750 0.331525
vt 0.468750 0.335659
vt 0.468750 0.337069
vt 0.468750 0.332143
vt 0.468750 0.417857
vt 0.468750 0.475000
vt 0.343750 0.331525
vt 0.343750 0.335659
vt 0.343750 0.295690
vt 0.343750 0.281897
vt 0.343750 0.316379
vt 0.343750 0.306399
vt 0.343750 0.324949
vt 0.343750 0.337069
vt 0.468750 0.573276
vt 0.468750 0.545690
vt 0.468750 0.718104
vt 0.468750 0.614655
vt 0.468750 0.670095
vt 0.468750 0.683621
vt 0.468750 0.725000
vt 0.468750 0.711207
vt 0.468750 0.717308
vt 0.468750 0.540385
vt 0.468750 0.555769
vt 0.468750 0.576962
vt 0.468750 0.582955
vt 0.468750 0.585000
vt 0.468750 0.567426
vt 0.468750 0.555000
vt 0.468750 0.540529
vt 0.468750 0.525000
vt 0.843750 0.332143
vt 0.843750 0.417857
vt 0.343750 0.025000
vt 0.343750 0.225000
vt 0.093750 0.222441
vt 0.093750 0.025000
vt 0.093750 0.074122
vt 0.093750 0.225000
vt 0.218750 0.185000
vt 0.218750 0.025000
vt 0.218750 0.225000
vn 0.000000 0.000000 -1.000000
vn 0.000000 -0.508314 -0.861172
vn 0.000000 0.508314 -0.861172
vn 1.000000 0.000000 0.000000
vn 0.000000 -0.861172 -0.508314
vn 0.000000 0.999793 -0.020347
vn -0.000000 0.861172 0.508314
vn 0.000000 0.839778 -0.542931
vn 0.000000 0.508314 -0.861172
vn -1.000000 0.000000 -0.000000
vn -0.980581 0.196116 0.000000
vn 0.980581 0.196116 0.000000
vn -0.382683 -0.923879 0.000000
vn 0.000000 -1.000000 0.000000
vn 0.000000 0.000000 1.000000
vn -1.000000 0.000000 0.000000
vn 0.000000 0.806546 0.591171
vn 0.000000 0.371391 0.928477
vn 1.000000 0.000000 0.000000
vn 0.923879 -0.382683 0.000000
vn -0.707107 0.707107 0.000000
vn 0.000000 1.000000 0.000000
vn 0.000000 0.970143 0.242536
vn -0.923879 -0.382683 0.000000
vn 0.382683 -0.923879 0.000000
vn 0.000000 0.923879 0.382683
vn 0.000000 0.382683 0.923879
vn -0.195090 0.000000 -0.980785
vn 0.195090 0.000000 -0.980785
vn 0.000000 0.866025 0.500000
vn 0.000000 0.707107 0.707107
vn 0.948683 -0.316228 0.000000
vn 0.000000 0.707107 -0.707107
vn 0.000000 0.866025 -0.500000
vn 0.000000 0.965926 0.258819
vn 0.000000 0.500000 -0.866025
vn 0.000000 0.233891 -0.972263
vn 0.000000 0.258819 -0.965926
vn 0.000000 0.479903 -0.877321
vn 0.000000 0.965926 -0.258819
vn 0.000000 0.500000 0.866025
vn 0.000000 0.233891 0.972263
vn 0.000000 0.258819 0.965926
vn 0.000000 0.479903 0.877321
vn 0.000000 0.130526 -0.991445
vn -0.948683 -0.316228 0.000000
vn 0.000000 0.751840 0.659346
vn 0.000000 0.813241 0.581927
vn 0.000000 0.608761 0.793353
vn 0.000000 0.608761 -0.793353
vn 0.000000 -0.316228 0.948683
vn -0.707107 0.000000 -0.707107
vn -0.923879 0.000000 -0.382683
vn 0.923879 0.000000 -0.382683
vn 0.707107 0.000000 -0.707107
vn 0.707107 0.000000 0.707107
vn 0.923879 0.000000 0.382683
vn 0.195090 0.000000 0.980785
vn -0.195090 0.000000 0.980785
vn -0.707107 0.000000 0.707107
vn -0.923879 0.000000 0.382683
vn -0.923879 0.382683 0.000000
vn -0.382683 0.923879 0.000000
vn 0.382683 0.923879 0.000000
vn 0.923879 0.382683 0.000000
vn 0.382683 -0.923879 -0.000000
vn 0.923879 -0.382683 -0.000000
vn -0.382683 -0.923879 0.000000
vn -0.923879 -0.382683 0.000000
vn 0.923879 0.382683 -0.000000
vn 0.382683 0.923879 -0.000000
vn -0.000000 0.000000 -1.000000
vn -0.382683 0.923879 0.000000
vn -0.923879 0.382683 0.000000
vn 0.000000 -0.866025 -0.500000
vn 0.000000 -0.965926 -0.258819
vn 0.000000 -0.065403 0.997859
vn 0.000000 -0.500000 0.866025
vn 0.000000 -0.258819 0.965926
vn 0.000000 -0.065403 -0.997859
vn 0.000000 -0.258819 -0.965926
vn 0.000000 -0.707107 -0.707107
vn 0.000000 -0.500000 -0.866025
vn 0.000000 -0.965926 0.258819
vn 0.000000 -0.866025 0.500000
vn 0.000000 -0.707107 0.707107
vn 0.000000 -0.130526 0.991445
vn 0.615457 0.492366 0.615457
vn -0.615457 0.492366 0.615457
vn 0.615457 0.492366 -0.615457
vn -0.615457 0.492366 -0.615457
vn 0.000000 0.000000 1.000000
vn 0.756282 0.000000 0.654246
vn -0.756282 0.000000 0.654246
usemtl colormap
f 1/1/1 2/1/2 3/1/2
f 2/1/2 1/1/1 4/1/1
f 5/1/3 6/1/3 1/1/1
f 6/1/3 5/1/3 7/1/3
f 7/1/3 5/1/3 8/1/3
f 9/1/3 8/1/3 5/1/3
f 9/1/3 10/1/3 8/1/3
f 9/1/3 11/1/3 10/1/3
f 4/1/1 11/1/3 9/1/3
f 11/1/3 4/1/1 12/1/3
f 13/1/1 9/1/2 5/1/2
f 9/1/2 13/1/1 14/1/1
f 15/1/1 16/1/2 17/1/2
f 16/1/2 15/1/1 18/1/1
f 19/1/3 18/1/1 15/1/1
f 18/1/1 19/1/3 20/1/3
f 21/1/1 20/1/2 19/1/2
f 20/1/2 21/1/1 22/1/1
f 17/1/3 14/1/1 13/1/1
f 14/1/1 17/1/3 16/1/3
f 23/1/3 22/1/1 21/1/1
f 22/1/1 23/1/3 24/1/3
f 25/2/4 11/3/4 26/4/4
f 11/3/4 25/2/4 10/3/4
f 7/3/5 26/4/5 11/3/5
f 26/4/5 7/3/5 27/4/5
f 25/2/6 8/3/7 10/3/7
f 8/3/7 25/2/6 28/2/6
f 27/4/8 25/2/6 26/4/8
f 25/2/6 27/4/8 28/2/6
f 29/3/9 11/3/9 30/3/9
f 11/3/9 29/3/9 7/3/9
f 8/3/10 27/4/10 7/3/10
f 27/4/10 8/3/10 28/2/10
f 31/5/11 32/6/11 33/5/11
f 32/6/11 31/5/11 34/6/11
f 34/6/11 31/5/11 35/7/11
f 34/6/11 35/7/11 36/7/11
f 37/6/12 38/5/12 39/6/12
f 38/5/12 37/6/12 40/5/12
f 40/5/12 37/6/12 41/7/12
f 41/7/12 37/6/12 42/7/12
f 43/8/13 44/8/14 45/8/14
f 44/8/14 43/8/13 46/8/13
f 47/9/15 48/8/15 49/8/15
f 48/8/15 47/9/15 50/9/15
f 51/9/15 50/9/15 47/9/15
f 51/9/15 52/9/15 50/9/15
f 53/10/15 52/9/15 51/9/15
f 52/9/15 53/10/15 54/10/15
f 55/9/16 53/10/16 51/9/16
f 53/10/16 55/9/16 56/10/16
f 57/11/16 56/10/16 55/9/16
f 57/11/16 58/12/16 56/10/16
f 57/11/16 59/13/16 58/12/16
f 57/11/16 60/14/16 59/13/16
f 36/7/16 60/14/16 57/11/16
f 36/7/16 61/15/16 60/14/16
f 35/7/16 61/15/16 36/7/16
f 35/7/16 62/14/16 61/15/16
f 63/7/16 62/14/16 35/7/16
f 45/8/16 62/14/16 63/7/16
f 45/8/16 64/13/16 62/14/16
f 44/8/16 64/13/16 45/8/16
f 64/13/16 44/8/16 65/12/16
f 66/7/16 65/12/16 44/8/16
f 66/7/16 67/10/16 65/12/16
f 66/7/16 68/10/16 67/10/16
f 68/10/16 66/7/16 69/7/16
f 37/6/17 70/7/18 42/7/18
f 70/7/18 37/6/17 71/16/18
f 71/16/18 37/6/17 72/16/18
f 34/6/17 72/16/18 37/6/17
f 36/7/18 72/16/18 34/6/17
f 72/16/18 36/7/18 73/7/18
f 74/17/19 75/18/20 76/17/19
f 75/18/20 74/17/19 77/18/20
f 78/17/21 79/17/22 80/17/22
f 79/17/22 78/17/21 81/17/21
f 32/6/22 37/6/17 39/6/22
f 37/6/17 32/6/22 34/6/17
f 70/7/23 82/11/23 42/7/23
f 82/11/23 70/7/23 83/8/23
f 83/8/23 70/7/23 48/8/23
f 48/8/23 70/7/23 73/7/23
f 48/8/23 73/7/23 49/8/23
f 49/8/23 73/7/23 84/8/23
f 84/8/23 73/7/23 36/7/23
f 84/8/23 36/7/23 57/11/23
f 41/7/19 85/8/19 86/7/19
f 85/8/19 41/7/19 87/14/19
f 87/14/19 41/7/19 88/15/19
f 89/13/19 85/8/19 87/14/19
f 88/15/19 41/7/19 42/7/19
f 89/13/19 90/8/19 85/8/19
f 88/15/19 42/7/19 91/14/19
f 92/12/19 90/8/19 89/13/19
f 91/14/19 42/7/19 82/11/19
f 92/12/19 93/7/19 90/8/19
f 94/10/19 93/7/19 92/12/19
f 95/10/19 93/7/19 94/10/19
f 93/7/19 95/10/19 96/7/19
f 91/14/19 82/11/19 97/13/19
f 97/13/19 82/11/19 98/12/19
f 98/12/19 82/11/19 99/10/19
f 99/10/19 82/11/19 100/9/19
f 99/10/19 100/9/19 54/10/19
f 54/10/19 100/9/19 52/9/19
f 101/17/22 74/17/22 76/17/22
f 74/17/22 101/17/22 102/17/22
f 77/18/15 85/8/15 103/8/15
f 85/8/15 77/18/15 86/7/15
f 86/7/15 77/18/15 74/17/15
f 86/7/15 74/17/15 102/17/15
f 104/18/24 78/17/21 105/18/24
f 78/17/21 104/18/24 81/17/21
f 85/8/14 106/8/25 103/8/25
f 106/8/25 85/8/14 90/8/14
f 104/18/24 46/8/13 43/8/13
f 46/8/13 104/18/24 105/18/24
f 103/8/25 75/18/20 77/18/20
f 75/18/20 103/8/25 106/8/25
f 63/7/15 43/8/15 45/8/15
f 43/8/15 63/7/15 104/18/15
f 104/18/15 63/7/15 81/17/15
f 81/17/15 63/7/15 79/17/15
f 107/4/22 108/4/26 109/4/22
f 108/4/26 107/4/22 110/4/26
f 111/3/16 107/4/16 112/3/16
f 107/4/16 111/3/16 110/4/16
f 110/4/16 111/3/16 113/2/16
f 108/4/19 114/3/19 109/4/19
f 114/3/19 108/4/19 115/3/19
f 115/3/19 108/4/19 116/2/19
f 116/2/27 111/3/15 115/3/15
f 111/3/15 116/2/27 113/2/27
f 110/4/26 116/2/27 108/4/26
f 116/2/27 110/4/26 113/2/27
f 117/19/28 118/20/29 119/20/28
f 118/20/29 117/19/28 120/19/29
f 120/19/29 117/19/28 121/21/1
f 121/21/1 117/19/28 122/21/1
f 123/20/22 124/20/22 125/20/22
f 124/20/22 123/20/22 126/20/22
f 127/20/22 128/20/22 129/20/22
f 128/20/22 127/20/22 130/20/22
f 131/22/30 58/23/31 59/22/30
f 58/23/31 131/22/30 132/23/31
f 54/24/32 133/25/32 99/24/32
f 133/25/32 54/24/32 134/26/32
f 134/26/32 54/24/32 135/19/32
f 135/19/32 54/24/32 136/19/32
f 92/23/33 137/22/34 138/23/33
f 137/22/34 92/23/33 89/22/34
f 94/24/32 127/20/32 95/24/32
f 127/20/32 94/24/32 139/25/32
f 127/20/32 139/25/32 140/26/32
f 127/20/32 140/26/32 130/20/32
f 141/23/33 64/22/34 65/23/33
f 64/22/34 141/23/33 142/22/34
f 88/27/22 143/28/35 144/27/22
f 143/28/35 88/27/22 91/28/35
f 145/25/36 146/26/37 147/26/38
f 146/26/37 145/25/36 148/25/39
f 87/28/40 144/27/22 149/28/40
f 144/27/22 87/28/40 88/27/22
f 150/25/41 134/26/42 151/26/43
f 134/26/42 150/25/41 133/25/44
f 152/26/42 153/25/41 154/26/43
f 153/25/41 152/26/42 155/25/44
f 147/26/38 124/20/45 126/20/45
f 124/20/45 147/26/38 146/26/37
f 97/22/30 156/23/31 157/22/30
f 156/23/31 97/22/30 98/23/31
f 89/22/34 149/28/40 137/22/34
f 149/28/40 89/22/34 87/28/40
f 140/26/37 158/25/36 159/26/38
f 158/25/36 140/26/37 139/25/39
f 124/20/46 68/24/46 125/20/46
f 68/24/46 124/20/46 146/26/46
f 68/24/46 146/26/46 148/25/46
f 68/24/46 148/25/46 67/24/46
f 160/28/40 61/27/22 62/28/40
f 61/27/22 160/28/40 161/27/22
f 162/28/35 59/22/30 60/28/35
f 59/22/30 162/28/35 131/22/30
f 161/27/22 60/28/35 61/27/22
f 60/28/35 161/27/22 162/28/35
f 152/26/42 163/19/47 164/19/48
f 163/19/47 152/26/42 154/26/43
f 142/22/34 62/28/40 64/22/34
f 62/28/40 142/22/34 160/28/40
f 151/26/43 135/19/48 165/19/47
f 135/19/48 151/26/43 134/26/42
f 155/25/46 53/24/46 56/24/46
f 53/24/46 155/25/46 152/26/46
f 53/24/46 152/26/46 164/19/46
f 53/24/46 164/19/46 166/19/46
f 150/25/41 99/24/49 133/25/44
f 99/24/49 150/25/41 156/23/31
f 99/24/49 156/23/31 98/23/31
f 145/25/36 67/24/50 148/25/39
f 67/24/50 145/25/36 141/23/33
f 67/24/50 141/23/33 65/23/33
f 91/28/35 157/22/30 143/28/35
f 157/22/30 91/28/35 97/22/30
f 56/24/49 153/25/41 155/25/44
f 153/25/41 56/24/49 132/23/31
f 132/23/31 56/24/49 58/23/31
f 54/24/51 166/19/51 136/19/51
f 166/19/51 54/24/51 53/24/51
f 94/24/50 158/25/36 139/25/39
f 158/25/36 94/24/50 138/23/33
f 138/23/33 94/24/50 92/23/33
f 140/26/37 128/20/45 130/20/45
f 128/20/45 140/26/37 159/26/38
f 167/29/1 168/30/1 169/30/1
f 168/30/1 167/29/1 170/29/1
f 171/30/1 168/30/1 170/29/1
f 172/30/1 168/30/1 171/30/1
f 172/30/1 173/24/1 168/30/1
f 173/24/1 172/30/1 174/24/1
f 167/29/14 175/29/14 170/29/14
f 175/29/14 167/29/14 176/29/14
f 174/24/16 177/30/16 178/24/16
f 177/30/16 174/24/16 172/30/16
f 168/30/19 179/24/19 180/30/19
f 179/24/19 168/30/19 173/24/19
f 181/30/22 168/30/22 180/30/22
f 168/30/22 181/30/22 169/30/22
f 169/30/22 181/30/22 182/30/22
f 177/30/22 183/30/22 184/30/22
f 183/30/22 177/30/22 171/30/22
f 171/30/22 177/30/22 172/30/22
f 177/30/1 185/24/1 178/24/1
f 185/24/1 177/30/1 184/30/1
f 185/24/16 175/29/16 186/24/16
f 175/29/16 185/24/16 184/30/16
f 175/29/16 184/30/16 170/29/16
f 170/29/16 184/30/16 183/30/16
f 170/29/16 183/30/16 171/30/16
f 187/24/1 180/30/1 179/24/1
f 180/30/1 187/24/1 181/30/1
f 188/24/22 185/24/22 186/24/22
f 185/24/22 188/24/22 178/24/22
f 178/24/22 188/24/22 189/24/22
f 178/24/22 189/24/22 174/24/22
f 174/24/22 189/24/22 179/24/22
f 173/24/22 174/24/22 179/24/22
f 179/24/22 189/24/22 187/24/22
f 187/24/22 189/24/22 190/24/22
f 167/29/19 190/24/19 176/29/19
f 190/24/19 167/29/19 181/30/19
f 187/24/19 190/24/19 181/30/19
f 181/30/19 167/29/19 182/30/19
f 182/30/19 167/29/19 169/30/19
f 191/20/1 192/31/1 193/31/1
f 192/31/1 191/20/1 194/20/1
f 194/20/14 195/20/14 196/20/14
f 195/20/14 194/20/14 197/20/14
f 197/20/14 194/20/14 118/20/14
f 118/20/14 194/20/14 119/20/14
f 119/20/14 194/20/14 191/20/14
f 119/20/14 191/20/14 198/20/14
f 119/20/14 198/20/14 199/20/14
f 199/20/14 198/20/14 200/20/14
f 201/19/52 119/20/28 199/20/52
f 119/20/28 201/19/52 117/19/28
f 200/20/53 201/19/52 199/20/52
f 201/19/52 200/20/53 202/19/53
f 203/19/54 197/20/55 204/19/55
f 197/20/55 203/19/54 195/20/54
f 120/19/29 197/20/55 118/20/29
f 197/20/55 120/19/29 204/19/55
f 205/19/56 206/31/57 207/19/57
f 206/31/57 205/19/56 208/31/56
f 209/19/58 210/31/59 211/31/58
f 210/31/59 209/19/58 212/19/59
f 205/19/56 211/31/58 208/31/56
f 211/31/58 205/19/56 209/19/58
f 212/19/59 213/31/60 210/31/59
f 213/31/60 212/19/59 214/19/60
f 213/31/60 215/19/61 216/31/61
f 215/19/61 213/31/60 214/19/60
f 217/31/14 218/31/14 219/31/14
f 218/31/14 217/31/14 220/31/14
f 220/31/14 221/31/14 218/31/14
f 218/31/14 221/31/14 192/31/14
f 220/31/14 210/31/14 221/31/14
f 222/31/14 210/31/14 220/31/14
f 192/31/14 221/31/14 223/31/14
f 193/31/14 192/31/14 223/31/14
f 224/31/14 223/31/14 221/31/14
f 223/31/14 224/31/14 225/31/14
f 225/31/14 224/31/14 226/31/14
f 221/31/14 210/31/14 227/31/14
f 227/31/14 210/31/14 213/31/14
f 227/31/14 213/31/14 216/31/14
f 222/31/14 211/31/14 210/31/14
f 222/31/14 208/31/14 211/31/14
f 222/31/14 206/31/14 208/31/14
f 206/31/14 222/31/14 228/31/14
f 163/19/47 166/19/22 164/19/48
f 166/19/22 163/19/47 212/19/22
f 212/19/22 136/19/22 166/19/22
f 212/19/22 163/19/47 214/19/22
f 214/19/22 163/19/47 215/19/22
f 209/19/22 136/19/22 212/19/22
f 209/19/22 135/19/48 136/19/22
f 205/19/22 135/19/48 209/19/22
f 207/19/22 135/19/48 205/19/22
f 135/19/48 207/19/22 165/19/47
f 165/19/19 150/25/19 151/26/19
f 206/31/19 150/25/19 165/19/19
f 206/31/19 165/19/19 207/19/19
f 228/31/19 150/25/19 206/31/19
f 229/20/19 150/25/19 228/31/19
f 230/32/19 150/25/19 229/20/19
f 230/32/19 156/23/19 150/25/19
f 231/33/19 156/23/19 230/32/19
f 232/34/19 156/23/19 231/33/19
f 232/34/19 157/22/19 156/23/19
f 233/35/19 157/22/19 232/34/19
f 233/35/19 143/28/19 157/22/19
f 234/36/19 143/28/19 233/35/19
f 235/37/19 143/28/19 234/36/19
f 235/37/19 144/27/19 143/28/19
f 236/36/19 144/27/19 235/37/19
f 236/36/19 149/28/19 144/27/19
f 237/35/19 149/28/19 236/36/19
f 237/35/19 137/22/19 149/28/19
f 238/34/19 137/22/19 237/35/19
f 239/33/19 137/22/19 238/34/19
f 239/33/19 138/23/19 137/22/19
f 240/32/19 138/23/19 239/33/19
f 241/20/19 138/23/19 240/32/19
f 138/23/19 241/20/19 158/25/19
f 217/31/19 158/25/19 241/20/19
f 217/31/19 159/26/19 158/25/19
f 217/31/19 128/20/19 159/26/19
f 217/31/19 129/20/19 128/20/19
f 217/31/19 242/20/19 129/20/19
f 219/31/19 242/20/19 217/31/19
f 219/31/19 243/25/19 242/20/19
f 242/20/19 243/25/19 244/26/19
f 245/20/19 243/25/19 219/31/19
f 246/32/19 243/25/19 245/20/19
f 246/32/19 247/23/19 243/25/19
f 248/33/19 247/23/19 246/32/19
f 249/34/19 247/23/19 248/33/19
f 249/34/19 250/22/19 247/23/19
f 251/35/19 250/22/19 249/34/19
f 251/35/19 252/28/19 250/22/19
f 253/36/19 252/28/19 251/35/19
f 254/37/19 252/28/19 253/36/19
f 254/37/19 255/27/19 252/28/19
f 256/36/19 255/27/19 254/37/19
f 256/36/19 257/28/19 255/27/19
f 258/35/19 257/28/19 256/36/19
f 258/35/19 259/22/19 257/28/19
f 260/34/19 259/22/19 258/35/19
f 261/33/19 259/22/19 260/34/19
f 261/33/19 262/23/19 259/22/19
f 263/32/19 262/23/19 261/33/19
f 196/20/19 262/23/19 263/32/19
f 196/20/19 264/25/19 262/23/19
f 196/20/19 265/26/19 264/25/19
f 196/20/19 266/19/19 265/26/19
f 195/20/19 266/19/19 196/20/19
f 266/19/19 195/20/19 203/19/19
f 198/20/16 202/19/16 200/20/16
f 202/19/16 198/20/16 267/19/16
f 267/19/16 198/20/16 268/26/16
f 268/26/16 198/20/16 269/25/16
f 269/25/16 198/20/16 270/23/16
f 270/23/16 198/20/16 271/32/16
f 270/23/16 271/32/16 272/33/16
f 270/23/16 272/33/16 273/22/16
f 273/22/16 272/33/16 274/34/16
f 273/22/16 274/34/16 275/35/16
f 273/22/16 275/35/16 276/28/16
f 276/28/16 275/35/16 277/36/16
f 276/28/16 277/36/16 278/27/16
f 278/27/16 277/36/16 279/37/16
f 278/27/16 279/37/16 280/36/16
f 278/27/16 280/36/16 281/28/16
f 281/28/16 280/36/16 282/35/16
f 281/28/16 282/35/16 283/22/16
f 283/22/16 282/35/16 284/34/16
f 283/22/16 284/34/16 285/23/16
f 285/23/16 284/34/16 286/33/16
f 285/23/16 286/33/16 287/32/16
f 285/23/16 287/32/16 288/25/16
f 288/25/16 287/32/16 289/20/16
f 288/25/16 289/20/16 225/31/16
f 288/25/16 225/31/16 290/20/16
f 288/25/16 290/20/16 291/26/16
f 290/20/16 225/31/16 226/31/16
f 290/20/16 226/31/16 123/20/16
f 123/20/16 226/31/16 126/20/16
f 126/20/16 226/31/16 147/26/16
f 147/26/16 226/31/16 145/25/16
f 145/25/16 226/31/16 292/20/16
f 145/25/16 292/20/16 141/23/16
f 141/23/16 292/20/16 293/32/16
f 141/23/16 293/32/16 294/33/16
f 141/23/16 294/33/16 142/22/16
f 142/22/16 294/33/16 295/34/16
f 142/22/16 295/34/16 296/35/16
f 142/22/16 296/35/16 160/28/16
f 160/28/16 296/35/16 297/36/16
f 160/28/16 297/36/16 161/27/16
f 161/27/16 297/36/16 298/37/16
f 161/27/16 298/37/16 299/36/16
f 161/27/16 299/36/16 162/28/16
f 162/28/16 299/36/16 300/35/16
f 162/28/16 300/35/16 131/22/16
f 131/22/16 300/35/16 301/34/16
f 131/22/16 301/34/16 132/23/16
f 132/23/16 301/34/16 302/33/16
f 132/23/16 302/33/16 303/32/16
f 132/23/16 303/32/16 153/25/16
f 153/25/16 303/32/16 304/20/16
f 153/25/16 304/20/16 227/31/16
f 153/25/16 227/31/16 216/31/16
f 153/25/16 216/31/16 163/19/16
f 153/25/16 163/19/16 154/26/16
f 163/19/16 216/31/16 215/19/16
f 305/1/13 306/38/24 307/1/13
f 306/38/24 305/1/13 308/38/24
f 309/1/25 307/1/13 310/1/25
f 307/1/13 309/1/25 305/1/13
f 311/38/20 310/1/25 312/38/20
f 310/1/25 311/38/20 309/1/25
f 313/39/62 314/40/63 315/40/63
f 314/40/63 313/39/62 316/39/62
f 308/38/24 313/39/62 306/38/24
f 313/39/62 308/38/24 316/39/62
f 311/38/15 305/1/15 309/1/15
f 305/1/15 311/38/15 308/38/15
f 308/38/15 311/38/15 317/39/15
f 308/38/15 317/39/15 316/39/15
f 316/39/15 317/39/15 318/40/15
f 316/39/15 318/40/15 314/40/15
f 315/40/63 318/40/64 319/40/64
f 318/40/64 315/40/63 314/40/63
f 317/39/65 312/38/20 320/39/65
f 312/38/20 317/39/65 311/38/20
f 319/40/64 317/39/65 320/39/65
f 317/39/65 319/40/64 318/40/64
f 321/1/66 322/38/67 323/1/66
f 322/38/67 321/1/66 324/38/67
f 325/1/68 323/1/66 326/1/68
f 323/1/66 325/1/68 321/1/66
f 327/38/69 326/1/68 328/38/69
f 326/1/68 327/38/69 325/1/68
f 329/39/70 330/40/71 331/40/71
f 330/40/71 329/39/70 332/39/70
f 324/38/67 329/39/70 322/38/67
f 329/39/70 324/38/67 332/39/70
f 327/38/72 321/1/72 325/1/72
f 321/1/72 327/38/72 324/38/72
f 324/38/72 327/38/72 333/39/72
f 324/38/72 333/39/72 332/39/72
f 332/39/72 333/39/72 334/40/72
f 332/39/72 334/40/72 330/40/72
f 331/40/71 334/40/73 335/40/73
f 334/40/73 331/40/71 330/40/71
f 333/39/74 328/38/69 336/39/74
f 328/38/69 333/39/74 327/38/69
f 335/40/73 333/39/74 336/39/74
f 333/39/74 335/40/73 334/40/73
f 337/41/75 234/42/76 233/41/75
f 234/42/76 337/41/75 338/42/76
f 241/43/77 220/44/15 217/44/15
f 220/44/15 241/43/77 339/43/77
f 239/45/78 340/46/79 240/46/79
f 340/46/79 239/45/78 341/45/78
f 342/43/80 230/46/81 229/43/80
f 230/46/81 342/43/80 343/46/81
f 344/47/82 233/41/75 232/47/82
f 233/41/75 344/47/82 337/41/75
f 338/42/76 235/48/14 234/42/76
f 235/48/14 338/42/76 345/48/14
f 346/45/83 232/47/82 231/45/83
f 232/47/82 346/45/83 344/47/82
f 347/42/84 237/41/85 236/42/84
f 237/41/85 347/42/84 348/41/85
f 348/41/85 238/47/86 237/41/85
f 238/47/86 348/41/85 349/47/86
f 240/46/79 339/43/77 241/43/77
f 339/43/77 240/46/79 340/46/79
f 350/43/77 226/44/15 224/44/15
f 226/44/15 350/43/77 292/43/77
f 298/48/14 351/42/84 352/48/14
f 351/42/84 298/48/14 297/42/84
f 304/43/80 221/44/1 227/44/1
f 221/44/1 304/43/80 353/43/80
f 345/48/14 236/42/84 235/48/14
f 236/42/84 345/48/14 347/42/84
f 303/46/81 353/43/80 304/43/80
f 353/43/80 303/46/81 354/46/81
f 238/47/86 341/45/78 239/45/78
f 341/45/78 238/47/86 349/47/86
f 343/46/81 231/45/83 230/46/81
f 231/45/83 343/46/81 346/45/83
f 221/44/16 350/43/16 224/44/16
f 350/43/16 221/44/16 355/46/16
f 355/46/16 221/44/16 356/45/16
f 356/45/16 221/44/16 357/47/16
f 357/47/16 221/44/16 358/41/16
f 358/41/16 221/44/16 351/42/16
f 351/42/16 221/44/16 352/48/16
f 352/48/16 221/44/16 359/42/16
f 359/42/16 221/44/16 360/41/16
f 360/41/16 221/44/16 361/47/16
f 361/47/16 221/44/16 362/45/16
f 362/45/16 221/44/16 354/46/16
f 354/46/16 221/44/16 353/43/16
f 297/42/84 358/41/85 351/42/84
f 358/41/85 297/42/84 296/41/85
f 356/45/78 293/46/79 355/46/79
f 293/46/79 356/45/78 294/45/78
f 342/43/80 228/44/1 222/44/1
f 228/44/1 342/43/80 229/43/80
f 301/47/82 362/45/83 302/45/83
f 362/45/83 301/47/82 361/47/82
f 355/46/79 292/43/77 350/43/77
f 292/43/77 355/46/79 293/46/79
f 296/41/85 357/47/86 358/41/85
f 357/47/86 296/41/85 295/47/86
f 299/42/76 352/48/14 359/42/76
f 352/48/14 299/42/76 298/48/14
f 340/46/19 220/44/19 339/43/19
f 220/44/19 340/46/19 222/44/19
f 222/44/19 340/46/19 341/45/19
f 222/44/19 341/45/19 349/47/19
f 222/44/19 349/47/19 348/41/19
f 222/44/19 348/41/19 347/42/19
f 222/44/19 347/42/19 345/48/19
f 222/44/19 345/48/19 338/42/19
f 222/44/19 338/42/19 337/41/19
f 222/44/19 337/41/19 344/47/19
f 222/44/19 344/47/19 346/45/19
f 222/44/19 346/45/19 343/46/19
f 222/44/19 343/46/19 342/43/19
f 357/47/86 294/45/78 356/45/78
f 294/45/78 357/47/86 295/47/86
f 302/45/83 354/46/81 303/46/81
f 354/46/81 302/45/83 362/45/83
f 301/47/82 360/41/75 361/47/82
f 360/41/75 301/47/82 300/41/75
f 300/41/75 359/42/76 360/41/75
f 359/42/76 300/41/75 299/42/76
f 363/47/82 251/41/75 249/47/82
f 251/41/75 363/47/82 364/41/75
f 365/48/14 256/42/84 254/48/14
f 256/42/84 365/48/14 366/42/84
f 366/42/84 365/48/14 367/48/14
f 368/46/81 248/45/83 246/46/81
f 248/45/83 368/46/81 369/45/83
f 369/45/83 249/47/82 248/45/83
f 249/47/82 369/45/83 363/47/82
f 289/43/80 223/44/1 225/44/1
f 223/44/1 289/43/80 370/43/80
f 260/47/86 371/45/78 261/45/78
f 371/45/78 260/47/86 372/47/86
f 366/42/84 258/41/85 256/42/84
f 258/41/85 366/42/84 373/41/85
f 263/46/79 194/43/87 196/43/87
f 194/43/87 263/46/79 374/46/79
f 373/41/85 260/47/86 258/41/85
f 260/47/86 373/41/85 372/47/86
f 375/43/80 246/46/81 245/43/80
f 246/46/81 375/43/80 368/46/81
f 364/41/75 253/42/76 251/41/75
f 253/42/76 364/41/75 376/42/76
f 261/45/78 374/46/79 263/46/79
f 374/46/79 261/45/78 371/45/78
f 376/42/76 254/48/14 253/42/76
f 254/48/14 376/42/76 365/48/14
f 365/48/14 376/42/76 367/48/14
f 286/45/83 377/47/82 378/45/83
f 377/47/82 286/45/83 284/47/82
f 277/42/84 379/41/85 380/42/84
f 379/41/85 277/42/84 275/41/85
f 381/47/86 272/45/78 382/45/78
f 272/45/78 381/47/86 274/47/86
f 280/42/76 383/48/14 384/42/76
f 383/48/14 280/42/76 385/48/14
f 385/48/14 280/42/76 279/48/14
f 382/45/78 271/46/79 386/46/79
f 271/46/79 382/45/78 272/45/78
f 374/46/19 192/44/19 194/43/19
f 192/44/19 374/46/19 218/44/19
f 218/44/19 374/46/19 371/45/19
f 218/44/19 371/45/19 372/47/19
f 218/44/19 372/47/19 373/41/19
f 218/44/19 373/41/19 366/42/19
f 218/44/19 366/42/19 367/48/19
f 218/44/19 367/48/19 376/42/19
f 218/44/19 376/42/19 364/41/19
f 218/44/19 364/41/19 363/47/19
f 218/44/19 363/47/19 369/45/19
f 218/44/19 369/45/19 368/46/19
f 218/44/19 368/46/19 375/43/19
f 223/44/16 191/43/16 193/44/16
f 191/43/16 223/44/16 386/46/16
f 386/46/16 223/44/16 382/45/16
f 382/45/16 223/44/16 381/47/16
f 381/47/16 223/44/16 379/41/16
f 379/41/16 223/44/16 380/42/16
f 380/42/16 223/44/16 383/48/16
f 383/48/16 223/44/16 384/42/16
f 384/42/16 223/44/16 387/41/16
f 387/41/16 223/44/16 377/47/16
f 377/47/16 223/44/16 378/45/16
f 378/45/16 223/44/16 388/46/16
f 388/46/16 223/44/16 370/43/16
f 282/41/75 384/42/76 387/41/75
f 384/42/76 282/41/75 280/42/76
f 284/47/82 387/41/75 377/47/82
f 387/41/75 284/47/82 282/41/75
f 275/41/85 381/47/86 379/41/85
f 381/47/86 275/41/85 274/47/86
f 386/46/79 198/43/87 191/43/87
f 198/43/87 386/46/79 271/46/79
f 287/46/81 370/43/80 289/43/80
f 370/43/80 287/46/81 388/46/81
f 385/48/14 380/42/84 383/48/14
f 380/42/84 385/48/14 277/42/84
f 277/42/84 385/48/14 279/48/14
f 375/43/80 219/44/1 218/44/1
f 219/44/1 375/43/80 245/43/80
f 286/45/83 388/46/81 287/46/81
f 388/46/81 286/45/83 378/45/83
f 189/49/1 121/21/1 122/21/1
f 121/21/1 189/49/1 188/49/1
f 201/21/14 389/21/14 117/21/14
f 389/21/14 201/21/14 202/21/14
f 390/21/14 204/21/14 120/21/14
f 204/21/14 390/21/14 203/21/14
f 129/50/15 95/49/15 127/50/15
f 95/49/15 129/50/15 391/51/15
f 95/49/15 391/51/15 96/52/15
f 96/52/15 391/51/15 38/53/15
f 38/53/15 391/51/15 39/54/15
f 392/51/15 39/54/15 391/51/15
f 392/51/15 391/51/15 393/55/15
f 392/51/15 393/55/15 394/55/15
f 392/51/15 32/54/15 39/54/15
f 392/51/15 33/53/15 32/54/15
f 392/51/15 69/52/15 33/53/15
f 392/51/15 68/49/15 69/52/15
f 123/50/15 68/49/15 392/51/15
f 68/49/15 123/50/15 125/50/15
f 395/51/1 190/49/1 396/49/1
f 190/49/1 395/51/1 176/56/1
f 176/56/1 395/51/1 397/51/1
f 397/51/1 175/56/1 176/56/1
f 397/51/1 395/51/1 398/55/1
f 398/55/1 395/51/1 399/55/1
f 400/49/1 175/56/1 397/51/1
f 175/56/1 400/49/1 186/49/1
f 399/55/63 401/55/64 398/55/64
f 401/55/64 399/55/63 402/55/63
f 395/57/62 402/55/63 399/55/63
f 402/55/63 395/57/62 403/57/62
f 404/58/16 396/59/16 389/58/16
f 396/59/16 404/58/16 395/57/62
f 395/57/62 404/58/16 403/57/62
f 403/57/62 404/58/16 405/60/16
f 403/57/62 405/60/16 406/61/16
f 403/57/62 406/61/16 407/62/16
f 405/60/16 404/58/16 408/63/16
f 408/63/16 404/58/16 409/64/16
f 409/64/16 404/58/16 410/65/16
f 410/65/16 404/58/16 411/58/16
f 403/57/62 407/62/16 412/61/16
f 403/57/62 412/61/16 413/60/16
f 403/57/62 413/60/16 414/63/16
f 403/57/62 414/63/16 415/64/16
f 403/57/62 415/64/16 416/65/16
f 403/57/62 416/65/16 417/66/16
f 403/57/62 417/66/16 418/66/16
f 398/55/64 419/57/65 397/57/65
f 419/57/65 398/55/64 401/55/64
f 419/57/65 400/59/19 397/57/65
f 400/59/19 419/57/65 390/58/19
f 390/58/19 419/57/65 420/58/19
f 420/58/19 419/57/65 421/60/19
f 421/60/19 419/57/65 422/61/19
f 422/61/19 419/57/65 423/62/19
f 420/58/19 421/60/19 424/63/19
f 420/58/19 424/63/19 425/64/19
f 420/58/19 425/64/19 426/65/19
f 420/58/19 426/65/19 427/58/19
f 423/62/19 419/57/65 428/61/19
f 428/61/19 419/57/65 429/60/19
f 429/60/19 419/57/65 430/63/19
f 430/63/19 419/57/65 431/64/19
f 431/64/19 419/57/65 432/65/19
f 432/65/19 419/57/65 433/66/19
f 433/66/19 419/57/65 434/66/19
f 435/55/22 436/55/22 437/55/22
f 436/55/22 435/55/22 438/55/22
f 436/55/88 439/66/89 440/66/88
f 439/66/89 436/55/88 438/55/89
f 437/55/90 440/66/88 441/66/90
f 440/66/88 437/55/90 436/55/88
f 435/55/91 441/66/90 442/66/91
f 441/66/90 435/55/91 437/55/90
f 439/66/89 435/55/91 442/66/91
f 435/55/91 439/66/89 438/55/89
f 93/7/1 106/8/1 90/8/1
f 106/8/1 93/7/1 75/18/1
f 75/18/1 93/7/1 76/17/1
f 76/17/1 93/7/1 101/17/1
f 105/18/1 44/8/1 46/8/1
f 44/8/1 105/18/1 66/7/1
f 66/7/1 105/18/1 78/17/1
f 66/7/1 78/17/1 80/17/1
f 306/67/1 310/3/1 307/3/1
f 310/3/1 306/67/1 312/67/1
f 312/67/1 306/67/1 313/68/1
f 312/67/1 313/68/1 320/68/1
f 320/68/1 313/68/1 315/4/1
f 320/68/1 315/4/1 319/4/1
f 322/67/92 326/3/92 323/3/92
f 326/3/92 322/67/92 328/67/92
f 328/67/92 322/67/92 329/68/92
f 328/67/92 329/68/92 336/68/92
f 336/68/92 329/68/92 331/4/92
f 336/68/92 331/4/92 335/4/92
f 443/69/1 444/69/1 445/69/1
f 444/69/1 443/69/1 446/70/1
f 444/69/1 446/70/1 447/70/1
f 447/70/1 446/70/1 448/70/1
f 449/69/1 450/69/1 451/69/1
f 450/69/1 449/69/1 452/70/1
f 450/69/1 452/70/1 453/70/1
f 453/70/1 452/70/1 454/70/1
f 455/71/12 456/72/12 457/71/12
f 456/72/12 455/71/12 458/73/12
f 459/72/12 456/72/12 458/73/12
f 458/73/12 455/71/12 460/73/12
f 460/73/12 455/71/12 461/72/12
f 460/73/12 461/72/12 462/72/12
f 463/72/11 464/73/11 465/72/11
f 466/71/11 464/73/11 463/72/11
f 466/71/11 467/73/11 464/73/11
f 468/71/11 467/73/11 466/71/11
f 468/71/11 469/72/11 467/73/11
f 469/72/11 468/71/11 470/72/11
f 471/74/18 472/72/18 473/72/18
f 472/72/18 471/74/18 474/74/18
f 475/75/93 476/76/19 477/77/19
f 476/76/19 475/75/93 478/76/56
f 479/75/15 480/76/60 481/76/15
f 480/76/60 479/75/15 482/75/94
f 475/75/93 483/76/15 478/76/56
f 483/76/15 475/75/93 484/75/15
f 480/76/60 485/77/16 486/76/16
f 485/77/16 480/76/60 482/75/94
