# Generated by GTAClone/tools/split_car_wheels.py from delivery-flat.obj group wheel-front-left
# Kenney Car Kit (CC0 1.0); the split is a derivative work, also CC0.
mtllib colormap.mtl
v 0.100000 0.042599 0.042599
v 0.100000 0.030122 0.052173
v 0.150000 0.032801 0.032801
v 0.150000 0.023194 0.040173
v 0.150000 0.040173 -0.023194
v 0.150000 0.032801 -0.032802
v 0.100000 0.052173 -0.030122
v 0.100000 0.042599 -0.042599
v 0.150000 -0.046388 0.000000
v 0.100000 -0.060244 0.000000
v 0.150000 -0.044808 -0.012006
v 0.100000 -0.058192 -0.015592
v 0.150000 -0.012006 -0.044808
v 0.150000 -0.023194 -0.040173
v 0.100000 -0.015592 -0.058192
v 0.100000 -0.030122 -0.052173
v 0.150000 0.040173 0.023194
v 0.150000 0.044808 0.012006
v 0.100000 0.052173 0.030122
v 0.100000 0.058192 0.015592
v 0.150000 -0.040173 -0.023194
v 0.100000 -0.052173 -0.030122
v 0.150000 -0.032801 -0.032802
v 0.100000 -0.042599 -0.042599
v 0.150000 -0.032801 0.032801
v 0.100000 -0.042599 0.042599
v 0.150000 -0.040173 0.023194
v 0.100000 -0.052173 0.030122
v 0.100000 0.030122 -0.052173
v 0.150000 0.023194 -0.040173
v 0.150000 -0.044808 0.012006
v 0.100000 -0.058192 0.015592
v 0.150000 0.044808 -0.012006
v 0.100000 0.058192 -0.015592
v 0.150000 0.046388 0.000000
v 0.100000 0.060245 0.000000
v 0.150000 -0.023194 0.040173
v 0.100000 -0.030122 0.052173
v 0.100000 0.015592 0.058192
v 0.100000 0.000000 0.060244
v 0.150000 0.012006 0.044808
v 0.150000 0.000000 0.046388
v 0.150000 -0.012006 0.044808
v 0.100000 -0.015592 0.058192
v 0.100000 0.015592 -0.058192
v 0.150000 0.012006 -0.044808
v 0.100000 0.000000 -0.060245
v 0.150000 0.000000 -0.046388
v -0.050000 0.150000 -0.259808
v -0.050000 0.077646 -0.289778
v -0.150000 0.127500 -0.220836
v -0.150000 0.065999 -0.246311
v -0.050000 -0.259808 -0.150000
v -0.150000 -0.220836 -0.127500
v -0.050000 -0.212132 -0.212132
v -0.150000 -0.180312 -0.180312
v -0.050000 -0.212132 0.212132
v -0.150000 -0.180312 0.180312
v -0.050000 -0.259808 0.150000
v -0.150000 -0.220836 0.127500
v 0.050000 -0.212132 0.212132
v 0.050000 -0.259808 0.150000
v 0.050000 -0.300000 0.000000
v -0.050000 -0.300000 0.000000
v 0.050000 -0.289778 -0.077646
v -0.050000 -0.289778 -0.077646
v 0.150000 0.180312 0.180312
v 0.150000 0.220837 0.127500
v 0.050000 0.212132 0.212132
v 0.050000 0.259808 0.150000
v -0.050000 -0.289778 0.077646
v -0.150000 -0.246311 0.065999
v -0.150000 -0.255000 0.000000
v -0.050000 0.212132 0.212132
v -0.150000 0.180312 0.180312
v -0.050000 0.150000 0.259808
v -0.150000 0.127500 0.220837
v -0.050000 0.259808 -0.150000
v -0.050000 0.212132 -0.212132
v -0.150000 0.220837 -0.127500
v -0.150000 0.180312 -0.180312
v -0.050000 0.077646 0.289778
v -0.150000 0.065999 0.246311
v -0.050000 0.000000 0.300000
v -0.150000 0.000000 0.255000
v 0.150000 0.246311 -0.065999
v 0.150000 0.220837 -0.127500
v 0.050000 0.289778 -0.077646
v 0.050000 0.259808 -0.150000
v 0.150000 -0.065999 -0.246311
v 0.150000 -0.127500 -0.220836
v 0.050000 -0.077646 -0.289778
v 0.050000 -0.150000 -0.259808
v 0.050000 0.300000 0.000000
v -0.050000 0.300000 0.000000
v -0.050000 0.289778 -0.077646
v -0.150000 0.246311 -0.065999
v 0.050000 0.077646 -0.289778
v -0.050000 0.000000 -0.300000
v 0.050000 0.000000 -0.300000
v 0.050000 0.289778 0.077646
v -0.050000 0.259808 0.150000
v -0.050000 0.289778 0.077646
v -0.050000 -0.150000 -0.259808
v 0.050000 -0.212132 -0.212132
v -0.150000 0.255000 0.000000
v 0.150000 0.255000 0.000000
v -0.150000 0.220837 0.127500
v -0.150000 0.246311 0.065999
v -0.150000 0.000000 -0.255000
v -0.150000 -0.065999 -0.246311
v -0.050000 -0.077646 -0.289778
v 0.050000 0.150000 0.259808
v 0.050000 0.077646 0.289778
v 0.150000 0.127500 0.220837
v 0.150000 0.065999 0.246311
v -0.150000 -0.246311 -0.065999
v 0.150000 -0.220836 -0.127500
v 0.050000 -0.259808 -0.150000
v 0.150000 -0.180312 -0.180312
v -0.150000 -0.065999 0.246311
v -0.050000 -0.077646 0.289778
v -0.150000 -0.127500 0.220837
v -0.050000 -0.150000 0.259808
v 0.050000 -0.289778 0.077646
v 0.050000 -0.077646 0.289778
v 0.050000 -0.150000 0.259808
v 0.050000 0.000000 0.300000
v 0.150000 -0.065999 0.246311
v 0.150000 -0.127500 0.220837
v -0.150000 -0.127500 -0.220836
v 0.050000 0.212132 -0.212132
v 0.150000 -0.255000 0.000000
v 0.150000 -0.246311 -0.065999
v 0.050000 0.150000 -0.259808
v 0.150000 -0.180312 0.180312
v 0.150000 -0.220836 0.127500
v 0.150000 0.180312 -0.180312
v 0.150000 0.127500 -0.220836
v 0.150000 -0.246311 0.065999
v 0.150000 0.246311 0.065999
v 0.150000 0.000000 0.255000
v 0.150000 0.000000 0.154328
v 0.150000 0.039943 0.149069
v 0.150000 -0.039943 0.149069
v 0.150000 0.077164 0.133652
v 0.150000 -0.077164 0.133652
v 0.150000 0.109126 0.109126
v 0.150000 0.133652 0.077164
v 0.150000 -0.109126 0.109126
v 0.150000 -0.133652 0.077164
v 0.150000 0.149069 0.039943
v 0.150000 0.154328 0.000000
v 0.150000 0.149069 -0.039943
v 0.150000 -0.149069 0.039943
v 0.150000 -0.154328 0.000000
v 0.150000 0.133652 -0.077164
v 0.150000 0.109126 -0.109126
v 0.150000 -0.149069 -0.039943
v 0.150000 -0.133652 -0.077164
v 0.150000 -0.109126 -0.109126
v 0.150000 0.077164 -0.133652
v 0.150000 0.039943 -0.149069
v 0.150000 0.000000 -0.154328
v 0.150000 -0.077164 -0.133652
v 0.150000 -0.039943 -0.149069
v 0.150000 0.065999 -0.246311
v 0.150000 0.000000 -0.255000
v 0.100000 0.000000 0.098573
v 0.100000 -0.025512 0.095214
v 0.100000 0.025513 0.095214
v 0.100000 0.049287 0.085367
v 0.100000 -0.049286 0.085367
v 0.100000 0.069702 0.069702
v 0.100000 -0.069701 0.069702
v 0.100000 0.085367 0.049286
v 0.100000 -0.085367 0.049286
v 0.100000 0.095214 0.025513
v 0.100000 -0.095214 0.025513
v 0.100000 0.098573 0.000000
v 0.100000 0.095214 -0.025513
v 0.100000 -0.098573 0.000000
v 0.100000 -0.095214 -0.025513
v 0.100000 0.085367 -0.049286
v 0.100000 -0.085367 -0.049286
v 0.100000 0.069702 -0.069702
v 0.100000 -0.069701 -0.069702
v 0.100000 0.049287 -0.085367
v 0.100000 -0.049286 -0.085367
v 0.100000 0.025513 -0.095214
v 0.100000 -0.025512 -0.095214
v 0.100000 0.000000 -0.098573
v 0.100000 0.098573 0.000000
v 0.150000 0.109126 0.000000
v 0.150000 0.105408 -0.028244
v 0.100000 0.085367 -0.049286
v 0.150000 0.094506 -0.054563
v 0.150000 0.077164 -0.077164
v 0.150000 0.054563 -0.094506
v 0.100000 0.049286 -0.085367
v 0.150000 0.028244 -0.105408
v 0.100000 0.025512 -0.095214
v 0.100000 0.085367 0.049286
v 0.150000 0.077164 0.077164
v 0.150000 0.094506 0.054563
v 0.150000 0.000000 -0.109126
v 0.150000 -0.028244 -0.105408
v 0.150000 -0.054563 -0.094506
v 0.150000 -0.077164 -0.077164
v 0.150000 -0.109126 0.000000
v 0.150000 -0.105408 0.028244
v 0.150000 0.105408 0.028244
v 0.150000 0.000000 0.109126
v 0.150000 0.028244 0.105408
v 0.150000 -0.028244 0.105408
v 0.150000 -0.133652 0.077164
v 0.150000 0.054563 0.094506
v 0.150000 -0.054563 0.094506
v 0.150000 -0.077164 0.077164
v 0.150000 -0.149069 0.039943
v 0.150000 -0.094506 0.054563
v 0.150000 -0.149069 -0.039943
v 0.150000 -0.105408 -0.028244
v 0.150000 -0.094506 -0.054563
v 0.150000 -0.133652 -0.077164
v 0.100000 0.049286 0.085367
v 0.100000 0.025512 0.095214
vt 0.468750 0.303399
vt 0.468750 0.295081
vt 0.468750 0.296868
vt 0.468750 0.290463
vt 0.468750 0.301782
vt 0.468750 0.309782
vt 0.468750 0.275000
vt 0.468750 0.304872
vt 0.468750 0.313794
vt 0.468750 0.305926
vt 0.468750 0.315163
vt 0.468750 0.285395
vt 0.468750 0.283004
vt 0.343750 0.375000
vt 0.343750 0.326764
vt 0.343750 0.360000
vt 0.343750 0.318999
vt 0.343750 0.275000
vt 0.343750 0.395208
vt 0.343750 0.422224
vt 0.343750 0.416421
vt 0.343750 0.448205
vt 0.343750 0.439207
vt 0.343750 0.468185
vt 0.343750 0.475000
vt 0.343750 0.445000
vt 0.343750 0.301629
vt 0.343750 0.326443
vt 0.343750 0.347751
vt 0.343750 0.364101
vt 0.343750 0.374379
vt 0.343750 0.377885
vt 0.718750 0.275000
vt 0.718750 0.292008
vt 0.718750 0.307858
vt 0.718750 0.321468
vt 0.718750 0.285395
vt 0.718750 0.295081
vt 0.718750 0.331911
vt 0.718750 0.303399
vt 0.718750 0.309782
vt 0.718750 0.338476
vt 0.718750 0.313794
vt 0.718750 0.340715
vt 0.718750 0.315163
vt 0.718750 0.438872
vt 0.718750 0.436696
vt 0.718750 0.445711
vt 0.718750 0.443301
vt 0.718750 0.430315
vt 0.718750 0.420165
vt 0.718750 0.436237
vt 0.718750 0.425000
vt 0.718750 0.410355
vt 0.718750 0.406936
vt 0.718750 0.393301
vt 0.718750 0.391531
vt 0.718750 0.375000
vt 0.718750 0.358469
vt 0.718750 0.356699
vt 0.718750 0.343064
vt 0.718750 0.329835
vt 0.718750 0.339645
vt 0.718750 0.325000
vt 0.718750 0.311128
vt 0.718750 0.313304
vt 0.718750 0.304289
vt 0.718750 0.306699
vt 0.718750 0.349118
vt 0.718750 0.400882
vt 0.718750 0.461603
vt 0.718750 0.288397
vt 0.718750 0.471593
vt 0.718750 0.278407
vt 0.718750 0.475000
vt 0.718750 0.313763
vt 0.718750 0.319685
vn 0.267059 0.681425 0.681425
vn 0.267059 0.481840 0.834571
vn 0.267059 0.834571 -0.481840
vn 0.267059 0.681425 -0.681425
vn 0.267059 -0.963680 0.000000
vn 0.267059 -0.930844 -0.249419
vn 0.267059 -0.249419 -0.930844
vn 0.267059 -0.481840 -0.834571
vn 0.267059 0.834571 0.481840
vn 0.267059 0.930844 0.249419
vn 0.267059 -0.834571 -0.481840
vn 0.267059 -0.681425 -0.681425
vn 0.267059 -0.681425 0.681425
vn 0.267059 -0.834571 0.481840
vn 0.267059 0.481840 -0.834571
vn 0.267059 -0.930844 0.249419
vn 0.267059 0.930844 -0.249419
vn 0.267059 0.963680 0.000000
vn 0.267059 -0.481840 0.834571
vn 0.267059 0.249419 0.930844
vn 0.267059 0.000000 0.963680
vn 0.267059 -0.249419 0.930844
vn 0.267059 0.249419 -0.930844
vn 0.267059 0.000000 -0.963680
vn 1.000000 0.000000 0.000000
vn -0.410365 0.455961 -0.789747
vn -0.410365 0.236023 -0.880849
vn -0.410365 -0.789747 -0.455961
vn -0.410365 -0.644826 -0.644826
vn -0.410365 -0.644826 0.644826
vn -0.410365 -0.789747 0.455961
vn 0.000000 -0.707107 0.707107
vn 0.000000 -0.866025 0.500000
vn 0.000000 -1.000000 0.000000
vn 0.000000 -0.965926 -0.258819
vn 0.410365 0.644826 0.644826
vn 0.410365 0.789747 0.455961
vn -0.410365 -0.880849 0.236023
vn -0.410365 -0.911922 0.000000
vn -0.410365 0.644826 0.644826
vn -0.410365 0.455961 0.789747
vn -0.410365 0.789747 -0.455961
vn -0.410365 0.644826 -0.644826
vn -0.410365 0.236023 0.880849
vn -0.410365 0.000000 0.911922
vn 0.410365 0.880849 -0.236023
vn 0.410365 0.789747 -0.455961
vn 0.410365 -0.236023 -0.880849
vn 0.410365 -0.455961 -0.789747
vn 0.000000 1.000000 0.000000
vn 0.000000 0.965926 -0.258819
vn -0.410365 0.880849 -0.236023
vn 0.000000 0.258819 -0.965926
vn 0.000000 0.000000 -1.000000
vn 0.000000 0.866025 0.500000
vn 0.000000 0.965926 0.258819
vn 0.000000 -0.500000 -0.866025
vn 0.000000 -0.707107 -0.707107
vn -0.410365 0.911922 0.000000
vn 0.410365 0.911922 0.000000
vn -0.410365 0.789747 0.455961
vn -0.410365 0.880849 0.236023
vn -0.410365 0.000000 -0.911922
vn -0.410365 -0.236023 -0.880849
vn 0.410365 0.455961 0.789747
vn 0.410365 0.236023 0.880849
vn -0.410365 -0.880849 -0.236023
vn 0.410365 -0.789747 -0.455961
vn 0.410365 -0.644826 -0.644826
vn -0.410365 -0.236023 0.880849
vn -0.410365 -0.455961 0.789747
vn 0.000000 -0.965926 0.258819
vn 0.000000 -0.258819 0.965926
vn 0.000000 -0.500000 0.866025
vn 0.000000 -0.866025 -0.500000
vn 0.000000 0.258819 0.965926
vn 0.000000 0.000000 1.000000
vn 0.000000 -0.258819 -0.965926
vn 0.410365 -0.236023 0.880849
vn 0.410365 -0.455961 0.789747
vn -0.410365 -0.455961 -0.789747
vn 0.000000 0.866025 -0.500000
vn 0.000000 0.707107 -0.707107
vn 0.410365 -0.911922 0.000000
vn 0.410365 -0.880849 -0.236023
vn 0.000000 0.500000 -0.866025
vn -1.000000 0.000000 0.000000
vn 0.410365 -0.644826 0.644826
vn 0.410365 -0.789747 0.455961
vn 0.410365 0.644826 -0.644826
vn 0.410365 0.455961 -0.789747
vn 0.410365 -0.880849 0.236023
vn 0.410365 0.880849 0.236023
vn 0.410365 0.000000 0.911922
vn 0.410365 0.000000 -0.911922
vn 0.410365 0.236023 -0.880849
vn 0.000000 0.707107 0.707107
vn 0.000000 0.500000 0.866025
vn 0.206518 -0.978443 -0.000000
vn 0.206518 -0.945103 0.253240
vn 0.206518 -0.847356 0.489221
vn 0.206518 -0.691864 0.691864
vn 0.206518 -0.489221 0.847356
vn 0.206518 -0.253240 0.945103
vn 0.206518 -0.691864 -0.691864
vn 0.206518 -0.847356 -0.489221
vn 0.206518 0.000000 0.978443
vn 0.206518 0.253240 0.945103
vn 0.206518 0.489221 0.847356
vn 0.206518 0.691864 0.691864
vn 0.206518 0.978443 -0.000000
vn 0.206518 0.945103 -0.253240
vn 0.206518 -0.945103 -0.253240
vn 1.000000 0.000000 -0.000000
vn 0.206518 0.847356 0.489221
vn 0.206518 0.945103 0.253240
vn 0.206518 -0.489221 -0.847356
vn 0.206518 -0.253240 -0.945103
vn 0.206518 0.253240 -0.945103
vn 0.206518 0.489221 -0.847356
vn 0.206518 0.000000 -0.978443
vn 0.206518 0.691864 -0.691864
vn 0.206518 0.847356 -0.489221
usemtl colormap
f 1/1/1 2/2/2 3/3/1
f 4/4/2 3/3/1 2/2/2
f 5/5/3 6/3/4 7/6/3
f 8/1/4 7/6/3 6/3/4
f 9/7/5 10/7/5 11/7/6
f 12/7/6 11/7/6 10/7/5
f 13/7/7 14/7/8 15/7/7
f 16/7/8 15/7/7 14/7/8
f 17/5/9 18/8/10 19/6/9
f 20/9/10 19/6/9 18/8/10
f 21/7/11 22/7/11 23/7/12
f 24/7/12 23/7/12 22/7/11
f 25/7/13 26/7/13 27/7/14
f 28/7/14 27/7/14 26/7/13
f 8/1/4 6/3/4 29/2/15
f 30/4/15 29/2/15 6/3/4
f 14/7/8 23/7/12 16/7/8
f 24/7/12 16/7/8 23/7/12
f 27/7/14 28/7/14 31/7/16
f 32/7/16 31/7/16 28/7/14
f 33/8/17 5/5/3 34/9/17
f 7/6/3 34/9/17 5/5/3
f 35/10/18 33/8/17 36/11/18
f 34/9/17 36/11/18 33/8/17
f 37/7/19 38/7/19 25/7/13
f 26/7/13 25/7/13 38/7/19
f 39/12/20 40/7/21 41/13/20
f 42/7/21 41/13/20 40/7/21
f 3/3/1 17/5/9 1/1/1
f 19/6/9 1/1/1 17/5/9
f 43/7/22 44/7/22 37/7/19
f 38/7/19 37/7/19 44/7/22
f 45/12/23 46/13/23 47/7/24
f 48/7/24 47/7/24 46/13/23
f 42/7/21 40/7/21 43/7/22
f 44/7/22 43/7/22 40/7/21
f 29/2/15 30/4/15 45/12/23
f 46/13/23 45/12/23 30/4/15
f 18/8/10 35/10/18 20/9/10
f 36/11/18 20/9/10 35/10/18
f 11/7/6 12/7/6 21/7/11
f 22/7/11 21/7/11 12/7/6
f 42/7/25 43/7/25 41/13/25
f 43/7/25 37/7/25 41/13/25
f 41/13/25 37/7/25 4/4/25
f 4/4/25 37/7/25 3/3/25
f 37/7/25 25/7/25 3/3/25
f 3/3/25 25/7/25 17/5/25
f 25/7/25 27/7/25 17/5/25
f 17/5/25 27/7/25 18/8/25
f 27/7/25 31/7/25 18/8/25
f 18/8/25 31/7/25 35/10/25
f 31/7/25 9/7/25 35/10/25
f 9/7/25 11/7/25 35/10/25
f 35/10/25 11/7/25 33/8/25
f 11/7/25 21/7/25 33/8/25
f 33/8/25 21/7/25 5/5/25
f 5/5/25 21/7/25 6/3/25
f 21/7/25 23/7/25 6/3/25
f 6/3/25 23/7/25 30/4/25
f 23/7/25 14/7/25 30/4/25
f 30/4/25 14/7/25 46/13/25
f 14/7/25 13/7/25 46/13/25
f 48/7/25 46/13/25 13/7/25
f 48/7/24 13/7/7 47/7/24
f 15/7/7 47/7/24 13/7/7
f 31/7/16 32/7/16 9/7/5
f 10/7/5 9/7/5 32/7/16
f 2/2/2 39/12/20 4/4/2
f 41/13/20 4/4/2 39/12/20
f 49/14/26 50/15/27 51/16/26
f 52/17/27 51/16/26 50/15/27
f 53/18/28 54/18/28 55/18/29
f 56/18/29 55/18/29 54/18/28
f 57/18/30 58/18/30 59/18/31
f 60/18/31 59/18/31 58/18/30
f 61/18/32 57/18/32 62/18/33
f 59/18/33 62/18/33 57/18/32
f 63/18/34 64/18/34 65/18/35
f 66/18/35 65/18/35 64/18/34
f 67/19/36 68/20/37 69/21/36
f 70/22/37 69/21/36 68/20/37
f 71/18/38 72/18/38 64/18/39
f 73/18/39 64/18/39 72/18/38
f 59/18/31 60/18/31 71/18/38
f 72/18/38 71/18/38 60/18/31
f 74/21/40 75/19/40 76/14/41
f 77/16/41 76/14/41 75/19/40
f 78/22/42 79/21/43 80/20/42
f 81/19/43 80/20/42 79/21/43
f 79/21/43 49/14/26 81/19/43
f 51/16/26 81/19/43 49/14/26
f 82/15/44 83/17/44 84/18/45
f 85/18/45 84/18/45 83/17/44
f 86/23/46 87/20/47 88/24/46
f 89/22/47 88/24/46 87/20/47
f 90/18/48 91/18/49 92/18/48
f 93/18/49 92/18/48 91/18/49
f 94/25/50 88/24/51 95/25/50
f 96/24/51 95/25/50 88/24/51
f 96/24/52 78/22/42 97/23/52
f 80/20/42 97/23/52 78/22/42
f 50/15/53 98/15/53 99/18/54
f 100/18/54 99/18/54 98/15/53
f 70/22/55 101/24/56 102/22/55
f 103/24/56 102/22/55 101/24/56
f 104/18/57 93/18/57 55/18/58
f 105/18/58 55/18/58 93/18/57
f 95/25/59 96/24/52 106/26/59
f 97/23/52 106/26/59 96/24/52
f 107/26/60 86/23/46 94/25/60
f 88/24/46 94/25/60 86/23/46
f 74/21/40 102/22/61 75/19/40
f 108/20/61 75/19/40 102/22/61
f 102/22/61 103/24/62 108/20/61
f 109/23/62 108/20/61 103/24/62
f 110/18/63 99/18/63 111/18/64
f 112/18/64 111/18/64 99/18/63
f 113/14/65 114/15/66 115/16/65
f 116/17/66 115/16/65 114/15/66
f 66/18/67 117/18/67 53/18/28
f 54/18/28 53/18/28 117/18/67
f 52/17/27 50/15/27 110/18/63
f 99/18/63 110/18/63 50/15/27
f 118/18/68 119/18/68 120/18/69
f 105/18/69 120/18/69 119/18/68
f 85/18/45 121/18/70 84/18/45
f 122/18/70 84/18/45 121/18/70
f 123/18/71 58/18/30 124/18/71
f 57/18/30 124/18/71 58/18/30
f 121/18/70 123/18/71 122/18/70
f 124/18/71 122/18/70 123/18/71
f 125/18/72 71/18/72 63/18/34
f 64/18/34 63/18/34 71/18/72
f 126/18/73 122/18/73 127/18/74
f 124/18/74 127/18/74 122/18/73
f 119/18/75 53/18/75 105/18/58
f 55/18/58 105/18/58 53/18/75
f 114/15/76 82/15/76 128/18/77
f 84/18/77 128/18/77 82/15/76
f 99/18/54 100/18/54 112/18/78
f 92/18/78 112/18/78 100/18/54
f 129/18/79 126/18/79 130/18/80
f 127/18/80 130/18/80 126/18/79
f 76/14/41 77/16/41 82/15/44
f 83/17/44 82/15/44 77/16/41
f 131/18/81 104/18/81 56/18/29
f 55/18/29 56/18/29 104/18/81
f 89/22/82 132/21/83 78/22/82
f 79/21/83 78/22/82 132/21/83
f 103/24/62 95/25/59 109/23/62
f 106/26/59 109/23/62 95/25/59
f 133/18/84 63/18/84 134/18/85
f 65/18/85 134/18/85 63/18/84
f 49/14/86 135/14/86 50/15/53
f 98/15/53 50/15/53 135/14/86
f 111/18/64 112/18/64 131/18/81
f 104/18/81 131/18/81 112/18/64
f 85/18/87 83/17/87 121/18/87
f 121/18/87 83/17/87 123/18/87
f 83/17/87 77/16/87 123/18/87
f 123/18/87 77/16/87 58/18/87
f 77/16/87 75/19/87 58/18/87
f 58/18/87 75/19/87 60/18/87
f 75/19/87 108/20/87 60/18/87
f 60/18/87 108/20/87 72/18/87
f 108/20/87 109/23/87 72/18/87
f 72/18/87 109/23/87 73/18/87
f 109/23/87 106/26/87 73/18/87
f 73/18/87 106/26/87 117/18/87
f 106/26/87 97/23/87 117/18/87
f 117/18/87 97/23/87 54/18/87
f 97/23/87 80/20/87 54/18/87
f 54/18/87 80/20/87 56/18/87
f 80/20/87 81/19/87 56/18/87
f 56/18/87 81/19/87 131/18/87
f 81/19/87 51/16/87 131/18/87
f 51/16/87 52/17/87 131/18/87
f 131/18/87 52/17/87 111/18/87
f 110/18/87 111/18/87 52/17/87
f 136/18/88 61/18/88 137/18/89
f 62/18/89 137/18/89 61/18/88
f 79/21/83 132/21/83 49/14/86
f 135/14/86 49/14/86 132/21/83
f 62/18/33 59/18/33 125/18/72
f 71/18/72 125/18/72 59/18/33
f 132/21/90 138/19/90 135/14/91
f 139/16/91 135/14/91 138/19/90
f 140/18/92 125/18/92 133/18/84
f 63/18/84 133/18/84 125/18/92
f 127/18/74 124/18/74 61/18/32
f 57/18/32 61/18/32 124/18/74
f 87/20/47 138/19/90 89/22/47
f 132/21/90 89/22/47 138/19/90
f 64/18/39 73/18/39 66/18/67
f 117/18/67 66/18/67 73/18/39
f 141/23/93 107/26/60 101/24/93
f 94/25/60 101/24/93 107/26/60
f 134/18/85 65/18/85 118/18/68
f 119/18/68 118/18/68 65/18/85
f 116/17/66 114/15/66 142/18/94
f 128/18/94 142/18/94 114/15/66
f 112/18/78 92/18/78 104/18/57
f 93/18/57 104/18/57 92/18/78
f 142/18/25 129/18/25 116/17/25
f 116/17/25 129/18/25 115/16/25
f 129/18/25 130/18/25 115/16/25
f 115/16/25 130/18/25 67/19/25
f 130/18/25 136/18/25 67/19/25
f 136/18/25 143/18/25 67/19/25
f 143/18/25 144/27/25 67/19/25
f 143/18/25 136/18/25 145/18/25
f 144/27/25 146/28/25 67/19/25
f 145/18/25 136/18/25 147/18/25
f 67/19/25 146/28/25 68/20/25
f 136/18/25 137/18/25 147/18/25
f 146/28/25 148/29/25 68/20/25
f 148/29/25 149/30/25 68/20/25
f 68/20/25 149/30/25 141/23/25
f 147/18/25 137/18/25 150/18/25
f 150/18/25 137/18/25 151/18/25
f 137/18/25 140/18/25 151/18/25
f 149/30/25 152/31/25 141/23/25
f 141/23/25 152/31/25 107/26/25
f 152/31/25 153/32/25 107/26/25
f 153/32/25 154/31/25 107/26/25
f 107/26/25 154/31/25 86/23/25
f 151/18/25 140/18/25 155/18/25
f 155/18/25 140/18/25 156/18/25
f 140/18/25 133/18/25 156/18/25
f 154/31/25 157/30/25 86/23/25
f 157/30/25 158/29/25 86/23/25
f 86/23/25 158/29/25 87/20/25
f 156/18/25 133/18/25 159/18/25
f 133/18/25 134/18/25 159/18/25
f 159/18/25 134/18/25 160/18/25
f 160/18/25 134/18/25 161/18/25
f 134/18/25 118/18/25 161/18/25
f 158/29/25 162/28/25 87/20/25
f 162/28/25 163/27/25 87/20/25
f 163/27/25 164/18/25 87/20/25
f 161/18/25 118/18/25 165/18/25
f 165/18/25 118/18/25 166/18/25
f 166/18/25 118/18/25 164/18/25
f 138/19/25 87/20/25 164/18/25
f 164/18/25 118/18/25 138/19/25
f 118/18/25 120/18/25 138/19/25
f 138/19/25 120/18/25 139/16/25
f 120/18/25 91/18/25 139/16/25
f 139/16/25 91/18/25 167/17/25
f 91/18/25 90/18/25 167/17/25
f 168/18/25 167/17/25 90/18/25
f 168/18/95 90/18/48 100/18/95
f 92/18/48 100/18/95 90/18/48
f 91/18/49 120/18/69 93/18/49
f 105/18/69 93/18/49 120/18/69
f 65/18/35 66/18/35 119/18/75
f 53/18/75 119/18/75 66/18/35
f 128/18/77 84/18/77 126/18/73
f 122/18/73 126/18/73 84/18/77
f 88/24/51 89/22/82 96/24/51
f 78/22/82 96/24/51 89/22/82
f 98/15/96 167/17/96 100/18/95
f 168/18/95 100/18/95 167/17/96
f 69/21/97 70/22/55 74/21/97
f 102/22/55 74/21/97 70/22/55
f 142/18/94 128/18/94 129/18/79
f 126/18/79 129/18/79 128/18/94
f 69/21/97 74/21/97 113/14/98
f 76/14/98 113/14/98 74/21/97
f 137/18/89 62/18/89 140/18/92
f 125/18/92 140/18/92 62/18/89
f 68/20/37 141/23/93 70/22/37
f 101/24/93 70/22/37 141/23/93
f 113/14/98 76/14/98 114/15/76
f 82/15/76 114/15/76 76/14/98
f 69/21/36 113/14/65 67/19/36
f 115/16/65 67/19/36 113/14/65
f 101/24/56 94/25/50 103/24/56
f 95/25/50 103/24/56 94/25/50
f 135/14/91 139/16/91 98/15/96
f 167/17/96 98/15/96 139/16/91
f 130/18/80 127/18/80 136/18/88
f 61/18/88 136/18/88 127/18/80
f 169/33/25 170/33/25 171/34/25
f 171/34/25 170/33/25 172/35/25
f 170/33/25 173/33/25 172/35/25
f 172/35/25 173/33/25 174/36/25
f 173/33/25 175/33/25 174/36/25
f 175/33/25 40/33/25 174/36/25
f 40/33/25 39/37/25 174/36/25
f 40/33/25 175/33/25 44/33/25
f 39/37/25 2/38/25 174/36/25
f 44/33/25 175/33/25 38/33/25
f 174/36/25 2/38/25 176/39/25
f 175/33/25 177/33/25 38/33/25
f 2/38/25 1/40/25 176/39/25
f 1/40/25 19/41/25 176/39/25
f 176/39/25 19/41/25 178/42/25
f 38/33/25 177/33/25 26/33/25
f 26/33/25 177/33/25 28/33/25
f 177/33/25 179/33/25 28/33/25
f 19/41/25 20/43/25 178/42/25
f 178/42/25 20/43/25 180/44/25
f 20/43/25 36/45/25 180/44/25
f 36/45/25 34/43/25 180/44/25
f 180/44/25 34/43/25 181/42/25
f 28/33/25 179/33/25 32/33/25
f 179/33/25 182/33/25 32/33/25
f 32/33/25 182/33/25 10/33/25
f 10/33/25 182/33/25 12/33/25
f 182/33/25 183/33/25 12/33/25
f 34/43/25 7/41/25 181/42/25
f 7/41/25 8/40/25 181/42/25
f 181/42/25 8/40/25 184/39/25
f 12/33/25 183/33/25 22/33/25
f 22/33/25 183/33/25 24/33/25
f 183/33/25 185/33/25 24/33/25
f 8/40/25 29/38/25 184/39/25
f 29/38/25 45/37/25 184/39/25
f 45/37/25 47/33/25 184/39/25
f 24/33/25 185/33/25 16/33/25
f 16/33/25 185/33/25 15/33/25
f 15/33/25 185/33/25 47/33/25
f 186/36/25 184/39/25 47/33/25
f 47/33/25 185/33/25 186/36/25
f 185/33/25 187/33/25 186/36/25
f 186/36/25 187/33/25 188/35/25
f 187/33/25 189/33/25 188/35/25
f 188/35/25 189/33/25 190/34/25
f 189/33/25 191/33/25 190/34/25
f 192/33/25 190/34/25 191/33/25
f 193/46/99 181/47/100 194/48/99
f 195/49/100 194/48/99 181/47/100
f 196/50/101 186/51/102 197/52/101
f 198/53/102 197/52/101 186/51/102
f 199/54/103 200/55/103 201/56/104
f 202/57/104 201/56/104 200/55/103
f 174/51/105 203/50/106 204/53/105
f 205/52/106 204/53/105 203/50/106
f 192/58/107 191/59/108 206/58/107
f 207/60/108 206/58/107 191/59/108
f 189/61/109 187/62/110 208/63/109
f 209/64/110 208/63/109 187/62/110
f 182/65/111 179/66/112 210/67/111
f 211/68/112 210/67/111 179/66/112
f 203/50/106 178/47/113 205/52/106
f 212/49/113 205/52/106 178/47/113
f 143/58/114 145/69/114 144/70/114
f 146/53/114 144/70/114 145/69/114
f 147/64/114 146/53/114 145/69/114
f 148/48/114 146/53/114 147/64/114
f 150/67/114 148/48/114 147/64/114
f 213/58/114 148/48/114 150/67/114
f 213/58/114 214/56/114 148/48/114
f 215/60/114 213/58/114 150/67/114
f 149/71/114 148/48/114 214/56/114
f 216/72/114 215/60/114 150/67/114
f 217/54/114 149/71/114 214/56/114
f 204/53/114 149/71/114 217/54/114
f 152/73/114 149/71/114 204/53/114
f 218/63/114 215/60/114 216/72/114
f 219/64/114 218/63/114 216/72/114
f 220/74/114 219/64/114 216/72/114
f 205/52/114 152/73/114 204/53/114
f 212/49/114 152/73/114 205/52/114
f 153/75/114 152/73/114 212/49/114
f 221/76/114 219/64/114 220/74/114
f 211/68/114 221/76/114 220/74/114
f 156/33/114 211/68/114 220/74/114
f 194/48/114 153/75/114 212/49/114
f 154/73/114 153/75/114 194/48/114
f 195/49/114 154/73/114 194/48/114
f 197/52/114 154/73/114 195/49/114
f 157/71/114 154/73/114 197/52/114
f 210/67/114 211/68/114 156/33/114
f 222/74/114 210/67/114 156/33/114
f 223/68/114 210/67/114 222/74/114
f 224/76/114 223/68/114 222/74/114
f 225/72/114 224/76/114 222/74/114
f 198/53/114 157/71/114 197/52/114
f 158/48/114 157/71/114 198/53/114
f 199/54/114 158/48/114 198/53/114
f 201/56/114 158/48/114 199/54/114
f 206/58/114 158/48/114 201/56/114
f 209/64/114 224/76/114 225/72/114
f 161/67/114 209/64/114 225/72/114
f 208/63/114 209/64/114 161/67/114
f 207/60/114 208/63/114 161/67/114
f 206/58/114 207/60/114 161/67/114
f 162/53/114 158/48/114 206/58/114
f 161/67/114 162/53/114 206/58/114
f 165/64/114 162/53/114 161/67/114
f 163/70/114 162/53/114 165/64/114
f 166/69/114 163/70/114 165/64/114
f 164/58/114 163/70/114 166/69/114
f 187/62/110 185/77/115 209/64/110
f 224/76/115 209/64/110 185/77/115
f 182/65/111 210/67/111 183/66/116
f 223/68/116 183/66/116 210/67/111
f 202/57/104 192/58/107 201/56/104
f 206/58/107 201/56/104 192/58/107
f 204/53/105 217/54/117 174/51/105
f 226/55/117 174/51/105 217/54/117
f 217/54/117 214/56/118 226/55/117
f 227/57/118 226/55/117 214/56/118
f 170/59/119 215/60/119 173/61/120
f 218/63/120 173/61/120 215/60/119
f 214/56/118 213/58/121 227/57/118
f 169/58/121 227/57/118 213/58/121
f 185/77/115 183/66/116 224/76/115
f 223/68/116 224/76/115 183/66/116
f 169/58/121 213/58/121 170/59/119
f 215/60/119 170/59/119 213/58/121
f 198/53/102 186/51/102 199/54/103
f 200/55/103 199/54/103 186/51/102
f 173/61/120 218/63/120 175/62/122
f 219/64/122 175/62/122 218/63/120
f 191/59/108 189/61/109 207/60/108
f 208/63/109 207/60/108 189/61/109
f 193/46/99 194/48/99 178/47/113
f 212/49/113 178/47/113 194/48/99
f 181/47/100 196/50/101 195/49/100
f 197/52/101 195/49/100 196/50/101
f 177/77/123 175/62/122 221/76/123
f 219/64/122 221/76/123 175/62/122
f 177/77/123 221/76/123 179/66/112
f 211/68/112 179/66/112 221/76/123
