# Generated by GTAClone/tools/split_car_wheels.py from delivery-flat.obj
# Kenney Car Kit (CC0 1.0); the split is a derivative work, also CC0.
mtllib colormap.mtl
v 0.350000 0.377646 1.299778
v 0.650000 0.450000 1.269808
v 0.650000 0.377646 1.299778
v 0.350000 0.450000 1.269808
v -0.350000 0.200000 1.310000
v -0.350000 0.300000 0.710000
v -0.350000 0.200000 0.710000
v -0.350000 0.377646 0.720222
v -0.350000 0.450000 0.750192
v -0.350000 0.512132 0.797868
v -0.350000 0.559808 0.860000
v -0.350000 0.589778 0.932354
v -0.350000 0.600000 1.010000
v -0.350000 0.589778 1.087646
v -0.350000 0.559808 1.160000
v -0.350000 0.512132 1.222132
v -0.350000 0.450000 1.269808
v -0.350000 0.377646 1.299778
v -0.350000 0.300000 1.310000
v -0.650000 0.589778 0.932354
v -0.650000 0.559808 0.860000
v 0.350000 0.500000 -0.388559
v 0.350000 0.559808 -0.460000
v 0.350000 0.512132 -0.397868
v 0.350000 0.589778 -0.532354
v 0.350000 0.600000 -0.610000
v 0.350000 0.589778 -0.687646
v 0.350000 0.559808 -0.760000
v 0.350000 0.512132 -0.822132
v 0.350000 0.500000 -0.831441
v 0.350000 0.200000 -0.310000
v 0.350000 0.450000 -0.350192
v 0.350000 0.450000 -0.869808
v 0.350000 0.377646 -0.320222
v 0.350000 0.300000 -0.310000
v 0.350000 0.377646 -0.899778
v 0.350000 0.200000 -0.910000
v 0.350000 0.300000 -0.910000
v -0.350000 0.500000 -0.831441
v -0.650000 0.450000 -0.869808
v -0.350000 0.450000 -0.869808
v -0.650000 0.500000 -0.831441
v -0.350000 0.512132 -0.822132
v -0.650000 0.512132 -0.822132
v -0.650000 0.512132 1.222132
v -0.650000 0.450000 1.269808
v -0.650000 0.600000 -0.610000
v -0.350000 0.589778 -0.687646
v -0.350000 0.600000 -0.610000
v -0.650000 0.589778 -0.687646
v -0.650000 0.589778 -0.532354
v -0.350000 0.589778 -0.532354
v -0.650000 0.512132 -0.397868
v -0.350000 0.559808 -0.460000
v -0.350000 0.512132 -0.397868
v -0.650000 0.559808 -0.460000
v -0.650000 0.559808 -0.760000
v -0.350000 0.559808 -0.760000
v -0.650000 0.377646 1.299778
v -0.650000 0.300000 1.310000
v -0.350000 0.500000 -0.388559
v -0.650000 0.500000 -0.388559
v -0.650000 0.450000 -0.350192
v -0.350000 0.450000 -0.350192
v 0.350000 0.600000 1.010000
v 0.650000 0.589778 0.932354
v 0.650000 0.600000 1.010000
v 0.350000 0.589778 0.932354
v 0.650000 0.500000 -0.831441
v 0.650000 0.450000 -0.869808
v 0.650000 0.512132 -0.822132
v -0.650000 0.200000 1.310000
v -0.350000 0.200000 -0.310000
v -0.350000 0.377646 -0.320222
v -0.350000 0.300000 -0.310000
v -0.350000 0.377646 -0.899778
v -0.350000 0.300000 -0.910000
v -0.350000 0.200000 -0.910000
v 0.650000 0.512132 0.797868
v 0.350000 0.450000 0.750192
v 0.650000 0.450000 0.750192
v 0.350000 0.512132 0.797868
v -0.650000 0.300000 0.710000
v -0.650000 0.377646 0.720222
v 0.350000 0.377646 0.720222
v 0.350000 0.200000 0.710000
v 0.350000 0.300000 0.710000
v 0.350000 0.200000 1.310000
v 0.350000 0.559808 0.860000
v 0.350000 0.589778 1.087646
v 0.350000 0.559808 1.160000
v 0.350000 0.512132 1.222132
v 0.350000 0.300000 1.310000
v 0.650000 0.200000 1.310000
v 0.650000 0.300000 1.310000
v -0.650000 0.589778 1.087646
v -0.650000 0.600000 1.010000
v -0.650000 0.559808 1.160000
v -0.650000 0.512132 0.797868
v 0.650000 0.500000 -0.388559
v 0.650000 0.450000 -0.350192
v 0.650000 0.512132 -0.397868
v -0.650000 0.450000 0.750192
v 0.650000 0.377646 -0.899778
v 0.650000 0.200000 -0.310000
v 0.650000 0.300000 -0.310000
v 0.650000 0.377646 -0.320222
v 0.650000 0.300000 -0.910000
v -0.650000 0.300000 -0.910000
v -0.650000 0.377646 -0.899778
v -0.650000 0.377646 -0.320222
v -0.650000 0.300000 -0.310000
v -0.650000 0.200000 -0.310000
v 0.650000 0.377646 0.720222
v 0.650000 0.589778 1.087646
v 0.650000 0.559808 1.160000
v 0.650000 0.512132 1.222132
v -0.650000 0.200000 0.710000
v 0.650000 0.559808 0.860000
v 0.650000 0.300000 0.710000
v 0.650000 0.200000 0.710000
v 0.650000 0.559808 -0.760000
v 0.650000 0.589778 -0.687646
v 0.650000 0.600000 -0.610000
v 0.650000 0.589778 -0.532354
v 0.650000 0.559808 -0.460000
v 0.516980 0.400939 0.633289
v 0.650000 0.300000 0.620000
v 0.483333 0.300000 0.620000
v 0.650000 0.400939 0.633289
v 0.400000 0.676711 -0.509061
v 0.650000 0.637750 -0.415000
v 0.650000 0.676711 -0.509061
v 0.400000 0.637750 -0.415000
v 0.400000 0.676711 -0.710939
v 0.650000 0.690000 -0.610000
v 0.650000 0.676711 -0.710939
v 0.400000 0.690000 -0.610000
v -0.500000 0.500000 -1.600000
v -0.350000 0.500000 -0.943913
v -0.350000 0.500000 -1.600000
v -0.400000 0.500000 -0.943913
v -0.350000 0.500000 -0.880890
v -0.650000 0.500000 -0.943913
v -0.650000 0.500000 -1.600000
v 0.400000 0.575772 -0.885772
v 0.650000 0.637750 -0.805000
v 0.650000 0.575772 -0.885772
v 0.400000 0.637750 -0.805000
v -0.350000 0.540111 -0.850111
v -0.350000 0.594075 -0.779784
v -0.350000 0.627998 -0.697887
v -0.350000 0.639569 -0.610000
v -0.350000 0.627998 -0.522113
v -0.350000 0.594075 -0.440216
v -0.350000 0.540111 -0.369889
v -0.350000 0.500000 -0.339110
v 0.550000 0.500000 1.500000
v -0.516667 0.400000 1.466667
v 0.516667 0.400000 1.466667
v -0.550000 0.500000 1.500000
v 0.400000 0.500000 -0.943913
v 0.650000 0.500000 -0.943913
v 0.650000 0.575772 -0.334228
v 0.400000 0.500000 -0.276087
v 0.650000 0.500000 -0.276087
v 0.400000 0.575772 -0.334228
v 0.550000 0.500000 0.676087
v 0.650000 0.495000 0.672250
v 0.548333 0.495000 0.672250
v 0.650000 0.575772 0.734228
v 0.550000 0.575772 0.734228
v -0.550000 0.500000 1.343913
v -0.650000 0.495000 1.347750
v -0.548333 0.495000 1.347750
v -0.650000 0.575772 1.285772
v -0.550000 0.575772 1.285772
v 0.550000 0.637750 1.205000
v 0.650000 0.575772 1.285772
v 0.650000 0.637750 1.205000
v 0.550000 0.575772 1.285772
v 0.650000 0.400000 -1.500000
v 0.649145 0.300000 -1.513053
v 0.649145 0.400000 -1.513053
v 0.650000 0.300000 -1.500000
v -0.563053 0.400000 -1.599144
v -0.650000 0.400000 -1.600000
v -0.550000 0.400000 -1.600000
v -0.575882 0.400000 -1.596593
v -0.588268 0.400000 -1.592388
v -0.600000 0.400000 -1.586602
v -0.610876 0.400000 -1.579335
v -0.620711 0.400000 -1.570711
v -0.629335 0.400000 -1.560876
v -0.636602 0.400000 -1.550000
v -0.642388 0.400000 -1.538268
v -0.646593 0.400000 -1.525882
v -0.649145 0.400000 -1.513053
v -0.650000 0.400000 -1.500000
v -0.563053 0.300000 -1.599144
v -0.575882 0.300000 -1.596593
v 0.600000 0.300000 0.446922
v 0.483333 0.300000 0.446922
v 0.650000 0.300000 0.446922
v 0.650000 0.300000 0.396921
v 0.650000 0.637750 0.815000
v 0.550000 0.637750 0.815000
v 0.550000 0.676711 0.909061
v 0.650000 0.690000 1.010000
v 0.650000 0.676711 0.909061
v 0.550000 0.690000 1.010000
v -0.588268 0.300000 -1.592388
v 0.646593 0.300000 -1.525882
v 0.642388 0.300000 -1.538268
v 0.636602 0.300000 -1.550000
v 0.629335 0.300000 -1.560876
v 0.620711 0.300000 -1.570711
v 0.610876 0.300000 -1.579335
v 0.600000 0.300000 -1.586602
v 0.588268 0.300000 -1.592388
v 0.575882 0.300000 -1.596593
v 0.563053 0.300000 -1.599144
v 0.550000 0.300000 -1.600000
v -0.550000 0.300000 -1.600000
v -0.600000 0.300000 -1.586602
v -0.610876 0.300000 -1.579335
v -0.620711 0.300000 -1.570711
v -0.629335 0.300000 -1.560876
v -0.636602 0.300000 -1.550000
v -0.642388 0.300000 -1.538268
v -0.646593 0.300000 -1.525882
v -0.649145 0.300000 -1.513053
v -0.650000 0.300000 -1.500000
v 0.550000 0.676711 1.110939
v 0.650000 0.676711 1.110939
v -0.550000 0.500000 0.446922
v -0.600000 0.300000 0.446922
v -0.483333 0.300000 0.446922
v -0.600000 0.500000 0.446922
v 0.550000 0.400000 -1.600000
v 0.500000 0.400000 -1.600000
v -0.500000 0.400000 -1.600000
v 0.500000 0.500000 -1.600000
v 0.350000 0.500000 -1.600000
v -0.483333 0.300000 0.620000
v -0.650000 0.300000 0.620000
v -0.650000 0.300000 0.446922
v -0.650000 0.300000 0.396921
v 0.650000 0.400000 -1.600000
v 0.646593 0.400000 -1.525882
v 0.642388 0.400000 -1.538268
v 0.636602 0.400000 -1.550000
v 0.629335 0.400000 -1.560876
v 0.620711 0.400000 -1.570711
v 0.610876 0.400000 -1.579335
v 0.600000 0.400000 -1.586602
v 0.588268 0.400000 -1.592388
v 0.575882 0.400000 -1.596593
v 0.563053 0.400000 -1.599144
v -0.650000 0.495000 0.672250
v -0.516980 0.400939 0.633289
v -0.650000 0.400939 0.633289
v -0.548333 0.495000 0.672250
v -0.516980 0.400939 1.386711
v -0.650000 0.400000 1.386835
v -0.516667 0.400000 1.386835
v -0.650000 0.400939 1.386711
v 0.650000 0.495000 1.347750
v 0.550000 0.500000 1.343913
v 0.548333 0.495000 1.347750
v -0.650000 0.676711 0.909061
v -0.550000 0.690000 1.010000
v -0.550000 0.676711 0.909061
v -0.650000 0.690000 1.010000
v -0.650000 0.637750 0.815000
v -0.550000 0.637750 0.815000
v -0.650000 0.575772 -0.885772
v -0.650000 0.637750 -0.805000
v -0.650000 0.676711 -0.710939
v -0.650000 0.690000 -0.610000
v -0.650000 0.676711 -0.509061
v -0.650000 0.637750 -0.415000
v -0.650000 0.575772 -0.334228
v -0.650000 0.500000 -0.276087
v -0.650000 0.500000 0.396921
v -0.650000 0.575772 0.734228
v -0.650000 0.676711 1.110939
v -0.650000 0.637750 1.205000
v -0.650000 0.200000 1.450000
v -0.650000 0.400000 1.450000
v 0.516980 0.400939 1.386711
v 0.650000 0.400939 1.386711
v -0.550000 0.637750 1.205000
v -0.275000 0.600000 1.500000
v 0.275000 0.700000 1.500000
v -0.275000 0.700000 1.500000
v 0.275000 0.600000 1.500000
v -0.550000 0.600000 1.500000
v 0.550000 0.600000 1.500000
v -0.550000 0.575772 0.734228
v -0.550000 0.500000 0.676087
v -0.400000 0.500000 -0.276087
v -0.350000 0.500000 0.446922
v -0.350000 0.500000 -0.276087
v -0.550000 0.676711 1.110939
v 0.516667 0.400000 1.386835
v 0.650000 0.400000 1.386835
v -0.550000 0.400000 1.550000
v -0.620711 0.400000 1.520711
v 0.550000 0.400000 1.550000
v 0.620711 0.400000 1.520711
v 0.650000 0.400000 1.450000
v -0.620711 0.200000 1.520711
v 0.650000 0.200000 1.450000
v 0.620711 0.200000 1.520711
v -0.550000 0.200000 1.550000
v 0.550000 0.200000 1.550000
v 0.350000 0.540111 -0.850111
v 0.350000 0.500000 -0.880890
v 0.350000 0.594075 -0.779784
v 0.350000 0.627998 -0.697887
v 0.350000 0.639569 -0.610000
v 0.350000 0.627998 -0.522113
v 0.350000 0.594075 -0.440216
v 0.350000 0.540111 -0.369889
v 0.350000 0.500000 -0.339110
v -0.400000 0.637750 -0.805000
v -0.400000 0.575772 -0.885772
v -0.400000 0.575772 -0.334228
v -0.400000 0.637750 -0.415000
v -0.400000 0.676711 -0.509061
v -0.400000 0.676711 -0.710939
v -0.400000 0.690000 -0.610000
v 0.600000 0.500000 0.446922
v 0.650000 0.500000 0.396921
v 0.550000 0.500000 0.446922
v 0.350000 0.500000 0.446922
v 0.350000 0.500000 -0.276087
v 0.650000 0.500000 -1.600000
v 0.350000 0.500000 -0.943913
v 0.550000 0.800000 1.092583
v 0.550000 0.800000 1.200000
v 0.550000 0.800000 1.100000
v 0.450000 1.300000 1.000000
v 0.469612 1.201942 0.931806
v 0.469612 1.201942 0.546921
v 0.450000 1.300000 0.496921
v 0.550000 0.800000 0.546921
v 0.550000 0.800000 0.446921
v 0.460000 1.250000 0.446921
v 0.448290 0.800000 1.200000
v 0.366860 1.207152 1.037139
v -0.366860 1.207152 1.037139
v -0.450000 1.300000 1.000000
v -0.550000 0.800000 1.200000
v -0.448290 0.800000 1.200000
v -0.550000 0.800000 0.546921
v -0.460000 1.250000 0.446921
v -0.550000 0.800000 0.446921
v -0.450000 1.300000 0.496921
v -0.469612 1.201942 0.546921
v -0.469612 1.201942 0.931806
v -0.550000 0.800000 1.092583
v -0.550000 0.800000 1.100000
v -0.428020 0.900000 0.446921
v -0.368020 1.200000 0.446921
v 0.368020 1.200000 0.446921
v 0.428020 0.900000 0.446921
v 0.125000 0.150000 1.550000
v 0.175000 0.200000 1.600000
v 0.125000 0.150000 1.600000
v 0.175000 0.200000 1.550000
v -0.125000 0.150000 1.550000
v -0.125000 0.150000 1.600000
v -0.175000 0.200000 1.550000
v -0.175000 0.200000 1.600000
v 0.175000 0.275000 1.600000
v 0.125000 0.325000 1.550000
v 0.125000 0.325000 1.600000
v 0.175000 0.275000 1.550000
v -0.175000 0.275000 1.550000
v -0.125000 0.325000 1.550000
v -0.125000 0.325000 1.600000
v -0.175000 0.275000 1.600000
v -0.125000 0.250000 -1.600000
v -0.175000 0.300000 -1.650000
v -0.125000 0.250000 -1.650000
v -0.175000 0.300000 -1.600000
v 0.125000 0.250000 -1.600000
v 0.125000 0.250000 -1.650000
v 0.175000 0.300000 -1.600000
v 0.175000 0.300000 -1.650000
v -0.175000 0.375000 -1.650000
v -0.125000 0.425000 -1.600000
v -0.125000 0.425000 -1.650000
v -0.175000 0.375000 -1.600000
v 0.175000 0.375000 -1.600000
v 0.125000 0.425000 -1.600000
v 0.125000 0.425000 -1.650000
v 0.175000 0.375000 -1.650000
v 0.350000 0.500000 0.446922
v -0.350000 0.500000 0.446922
v 0.448290 0.800000 1.200000
v 0.550000 0.733333 1.400000
v 0.550000 0.800000 1.200000
v 0.550000 0.700000 1.500000
v -0.448290 0.800000 1.200000
v -0.550000 0.700000 1.500000
v -0.550000 0.800000 1.200000
v -0.550000 0.733333 1.400000
v -0.550000 0.600000 1.400000
v -0.550000 0.700000 1.200000
v -0.550000 0.700000 1.100000
v -0.550000 0.800000 1.092583
v -0.550000 0.800000 1.100000
v -0.550000 0.800000 0.772902
v -0.550000 0.800000 0.446922
v -0.750000 0.700000 1.200000
v -0.750000 0.800000 1.100000
v -0.750000 0.700000 1.100000
v -0.750000 0.800000 1.200000
v 0.750000 0.800000 1.200000
v 0.750000 0.700000 1.100000
v 0.750000 0.800000 1.100000
v 0.750000 0.700000 1.200000
v 0.550000 0.800000 1.100000
v 0.550000 0.700000 1.200000
v 0.550000 0.700000 1.100000
v 0.550000 0.600000 1.400000
v 0.550000 0.800000 1.092583
v 0.550000 0.800000 0.772902
v 0.550000 0.800000 0.446922
v -0.450000 1.300000 0.496921
v 0.450000 1.300000 0.496921
v 0.180000 1.350000 0.828461
v -0.200000 1.300000 0.848461
v 0.200000 1.300000 0.848461
v -0.180000 1.350000 0.828461
v -0.180000 1.350000 0.668461
v 0.180000 1.350000 0.668461
v 0.200000 1.300000 0.648461
v -0.200000 1.300000 0.648461
v -0.469612 1.201942 0.931806
v 0.469612 1.201942 0.931806
v -0.368020 1.200000 0.446922
v 0.428020 0.900000 0.446922
v -0.428020 0.900000 0.446922
v 0.368020 1.200000 0.446922
v 0.550000 0.700000 1.500000
v 0.550000 0.600000 1.400000
v 0.550000 0.733333 1.400000
v 0.550000 0.600000 1.500000
v 0.275000 0.600000 1.500000
v 0.275000 0.700000 1.500000
v -0.275000 0.700000 1.500000
v -0.550000 0.600000 1.500000
v -0.275000 0.600000 1.500000
v -0.550000 0.700000 1.500000
v -0.550000 0.733333 1.400000
v -0.550000 0.600000 1.400000
v 0.500000 0.400000 -1.600000
v 0.650000 0.400000 -1.600000
v 0.550000 0.400000 -1.600000
v 0.500000 0.500000 -1.600000
v 0.650000 0.500000 -1.600000
v -0.650000 0.400000 -1.600000
v -0.500000 0.400000 -1.600000
v -0.550000 0.400000 -1.600000
v -0.650000 0.500000 -1.600000
v -0.500000 0.500000 -1.600000
vt 0.343750 0.314591
vt 0.343750 0.327174
vt 0.343750 0.283696
vt 0.343750 0.301087
vt 0.343750 0.337979
vt 0.343750 0.346271
vt 0.343750 0.351483
vt 0.343750 0.353261
vt 0.343750 0.335870
vt 0.468750 0.318642
vt 0.468750 0.301087
vt 0.468750 0.366602
vt 0.468750 0.359826
vt 0.468750 0.335870
vt 0.468750 0.337979
vt 0.468750 0.346271
vt 0.468750 0.351483
vt 0.468750 0.353261
vt 0.468750 0.368913
vt 0.468750 0.349047
vt 0.468750 0.342845
vt 0.468750 0.352230
vt 0.468750 0.358130
vt 0.468750 0.360142
vt 0.468750 0.318478
vt 0.468750 0.335000
vt 0.468750 0.283696
vt 0.468750 0.314591
vt 0.468750 0.327174
vt 0.468750 0.370652
vt 0.468750 0.275000
vt 0.468750 0.475000
vt 0.468750 0.435777
vt 0.468750 0.455000
vt 0.468750 0.437861
vt 0.468750 0.315000
vt 0.468750 0.435000
vt 0.468750 0.332143
vt 0.468750 0.417857
vt 0.468750 0.395000
vt 0.843750 0.585870
vt 0.843750 0.585000
vt 0.843750 0.568642
vt 0.843750 0.568478
vt 0.843750 0.638043
vt 0.843750 0.626449
vt 0.843750 0.620652
vt 0.843750 0.551087
vt 0.843750 0.603261
vt 0.843750 0.599047
vt 0.843750 0.609826
vt 0.843750 0.616602
vt 0.843750 0.618913
vt 0.843750 0.725000
vt 0.843750 0.525000
vt 0.093750 0.138044
vt 0.093750 0.207946
vt 0.093750 0.208853
vt 0.093750 0.207609
vt 0.093750 0.155435
vt 0.843750 0.388043
vt 0.843750 0.370652
vt 0.843750 0.332143
vt 0.843750 0.275000
vt 0.843750 0.417857
vt 0.843750 0.475000
vt 0.218750 0.175000
vt 0.218750 0.025000
vt 0.218750 0.225000
vt 0.343750 0.025000
vt 0.343750 0.225000
vn 0.000000 -0.258819 -0.965926
vn 0.000000 -0.500000 -0.866025
vn -1.000000 0.000000 0.000000
vn 0.000000 -0.965926 0.258819
vn 0.000000 -0.866025 0.500000
vn 1.000000 0.000000 0.000000
vn 0.000000 -0.608761 0.793353
vn 0.000000 -0.500000 0.866025
vn 0.000000 -0.707107 0.707107
vn 0.000000 -0.707107 -0.707107
vn 0.000000 -1.000000 0.000000
vn 0.000000 -0.965926 -0.258819
vn 0.000000 -0.866025 -0.500000
vn 0.000000 -0.065403 -0.997859
vn 0.000000 -0.608761 -0.793353
vn 0.000000 0.000000 -1.000000
vn 0.000000 -0.258819 0.965926
vn 0.000000 -0.065403 0.997859
vn 0.000000 -0.130526 0.991445
vn 0.000000 0.000000 1.000000
vn 0.000000 0.233891 -0.972263
vn 0.000000 0.130526 -0.991445
vn 0.000000 0.258819 -0.965926
vn -0.373758 0.895921 0.240061
vn 0.000000 0.866025 0.500000
vn 0.000000 0.965926 0.258819
vn -0.373758 0.803261 0.463763
vn -0.373758 0.895921 -0.240061
vn 0.000000 1.000000 0.000000
vn 0.000000 0.965926 -0.258819
vn -0.373758 0.927526 0.000000
vn -0.373758 0.655860 -0.655860
vn 0.000000 0.866025 -0.500000
vn 0.000000 0.707107 -0.707107
vn -0.373758 0.803261 -0.463763
vn 0.913356 0.287907 -0.287907
vn 0.851894 0.318817 -0.415491
vn 0.913356 0.352613 -0.203581
vn 0.913356 0.393289 -0.105382
vn 0.913356 0.407163 0.000000
vn 0.913356 0.393289 0.105382
vn 0.913356 0.352613 0.203581
vn 0.913356 0.287907 0.287907
vn 0.851894 0.318817 0.415491
vn 0.000000 -0.142857 0.989743
vn 0.000000 -0.316228 0.948683
vn -0.309805 0.578811 -0.754320
vn 0.000000 0.608761 -0.793353
vn 0.000000 0.707107 0.707107
vn -0.309805 0.578811 0.754320
vn 0.000000 0.608761 0.793353
vn -0.373758 0.655860 0.655860
vn 0.000000 0.500000 -0.866025
vn 0.000000 0.479903 -0.877321
vn 0.000000 0.500000 0.866025
vn 0.000000 0.479903 0.877321
vn 0.999866 0.000000 -0.016357
vn 0.991445 0.000000 -0.130526
vn 0.999465 0.000000 -0.032719
vn -0.258819 0.000000 -0.965926
vn -0.130526 0.000000 -0.991445
vn -0.382683 0.000000 -0.923879
vn -0.382683 0.000000 0.923879
vn -0.707107 0.000000 -0.707107
vn -0.608761 0.000000 -0.793353
vn -0.032719 0.000000 -0.999465
vn 0.032719 0.000000 -0.999465
vn -0.923879 0.000000 -0.382683
vn -0.866025 0.000000 -0.500000
vn -0.965926 0.000000 -0.258819
vn 0.000000 0.233891 0.972263
vn 0.000000 0.751840 0.659346
vn 0.000000 0.813241 0.581927
vn 0.000000 0.258819 0.965926
vn 0.382683 0.000000 -0.923879
vn 0.500000 0.000000 -0.866025
vn 0.130526 0.000000 -0.991445
vn -0.500000 0.000000 -0.866025
vn 0.258819 0.000000 -0.965926
vn 0.965926 0.000000 -0.258819
vn 0.608761 0.000000 -0.793353
vn -0.999866 0.000000 -0.016357
vn -0.999465 0.000000 -0.032719
vn -0.982290 0.000000 0.187365
vn -0.923879 0.000000 0.382683
vn -0.991445 0.000000 -0.130526
vn 0.793353 0.000000 -0.608761
vn 0.707107 0.000000 -0.707107
vn 0.866025 0.000000 -0.500000
vn 0.923879 0.000000 -0.382683
vn -0.793353 0.000000 -0.608761
vn -0.707107 0.000000 0.707107
vn 0.707107 0.000000 0.707107
vn 0.923879 0.000000 0.382683
vn -0.195090 0.000000 0.980785
vn 0.195090 0.000000 0.980785
vn -0.913356 0.287907 -0.287907
vn -0.851894 0.318817 -0.415491
vn -0.913356 0.352613 -0.203581
vn -0.913356 0.393289 -0.105382
vn -0.913356 0.407163 0.000000
vn -0.913356 0.393289 0.105382
vn -0.913356 0.352613 0.203581
vn -0.913356 0.287907 0.287907
vn -0.851894 0.318817 0.415491
vn 0.373758 0.803261 -0.463763
vn 0.373758 0.655860 -0.655860
vn 0.373758 0.655860 0.655860
vn 0.373758 0.803261 0.463763
vn 0.373758 0.895921 0.240061
vn 0.309805 0.578811 -0.754320
vn 0.373758 0.895921 -0.240061
vn 0.373758 0.927526 0.000000
vn 0.309805 0.578811 0.754320
vn 0.382683 0.000000 0.923879
vn 0.982290 0.000000 0.187365
vn 0.980581 0.196116 0.000000
vn 0.000000 0.371391 0.928477
vn -0.980581 0.196116 0.000000
vn 0.000000 0.341930 -0.939725
vn 0.382683 -0.923879 -0.000000
vn 0.923879 -0.382683 -0.000000
vn -0.382683 -0.923879 0.000000
vn -0.923879 -0.382683 0.000000
vn 0.923879 0.382683 -0.000000
vn 0.382683 0.923879 -0.000000
vn -0.000000 0.000000 -1.000000
vn -0.382683 0.923879 0.000000
vn -0.923879 0.382683 0.000000
vn -0.382683 -0.923879 0.000000
vn -0.923879 -0.382683 0.000000
vn 0.382683 -0.923879 0.000000
vn 0.923879 -0.382683 0.000000
vn -0.923879 0.382683 0.000000
vn -0.382683 0.923879 0.000000
vn 0.382683 0.923879 0.000000
vn 0.923879 0.382683 0.000000
vn 0.989743 -0.142857 0.000000
vn 0.948683 -0.316228 0.000000
vn 0.995473 -0.095044 0.000000
vn -0.948683 -0.316228 0.000000
vn -0.989743 -0.142857 0.000000
vn -0.995473 -0.095044 0.000000
vn 0.000000 0.948683 0.316228
vn 0.987088 -0.160182 0.000000
vn -0.987088 -0.160182 0.000000
vn -0.707107 0.707107 0.000000
vn 0.707107 0.707107 0.000000
vn 0.615457 0.492366 0.615457
vn -0.615457 0.492366 0.615457
vn 0.615457 0.492366 -0.615457
vn -0.615457 0.492366 -0.615457
vn 0.000000 0.000000 1.000000
vn 0.769485 0.000000 0.638665
vn -0.769485 0.000000 0.638665
usemtl colormap
f 1/1/1 2/2/2 3/1/1
f 2/2/2 1/1/1 4/2/2
f 5/3/3 6/4/3 7/3/3
f 6/4/3 5/3/3 8/1/3
f 8/1/3 5/3/3 9/2/3
f 9/2/3 5/3/3 10/5/3
f 10/5/3 5/3/3 11/6/3
f 11/6/3 5/3/3 12/7/3
f 12/7/3 5/3/3 13/8/3
f 13/8/3 5/3/3 14/7/3
f 14/7/3 5/3/3 15/6/3
f 15/6/3 5/3/3 16/5/3
f 16/5/3 5/3/3 17/2/3
f 17/2/3 5/3/3 18/1/3
f 18/1/3 5/3/3 19/4/3
f 20/7/4 11/6/5 12/7/4
f 11/6/5 20/7/4 21/6/5
f 22/9/6 23/6/6 24/5/6
f 22/9/6 25/7/6 23/6/6
f 22/9/6 26/8/6 25/7/6
f 22/9/6 27/7/6 26/8/6
f 22/9/6 28/6/6 27/7/6
f 22/9/6 29/5/6 28/6/6
f 29/5/6 22/9/6 30/9/6
f 31/3/6 30/9/6 22/9/6
f 31/3/6 22/9/6 32/2/6
f 31/3/6 33/2/6 30/9/6
f 31/3/6 32/2/6 34/1/6
f 31/3/6 34/1/6 35/4/6
f 31/3/6 36/1/6 33/2/6
f 37/3/6 36/1/6 31/3/6
f 36/1/6 37/3/6 38/4/6
f 39/9/7 40/2/8 41/2/8
f 40/2/8 39/9/7 42/9/7
f 43/5/9 42/9/7 39/9/7
f 42/9/7 43/5/9 44/5/9
f 45/5/10 17/2/2 46/2/2
f 17/2/2 45/5/10 16/5/10
f 47/8/11 48/7/4 49/8/11
f 48/7/4 47/8/11 50/7/4
f 51/7/12 49/8/11 52/7/12
f 49/8/11 51/7/12 47/8/11
f 53/5/10 54/6/13 55/5/10
f 54/6/13 53/5/10 56/6/13
f 56/6/13 52/7/12 54/6/13
f 52/7/12 56/6/13 51/7/12
f 57/6/5 43/5/9 58/6/5
f 43/5/9 57/6/5 44/5/9
f 59/1/1 19/4/14 60/4/14
f 19/4/14 59/1/1 18/1/1
f 61/9/15 53/5/10 55/5/10
f 53/5/10 61/9/15 62/9/15
f 61/9/15 63/2/2 62/9/15
f 63/2/2 61/9/15 64/2/2
f 65/8/11 66/7/4 67/8/11
f 66/7/4 65/8/11 68/7/4
f 50/7/4 58/6/5 48/7/4
f 58/6/5 50/7/4 57/6/5
f 69/9/7 33/2/8 70/2/8
f 33/2/8 69/9/7 30/9/7
f 71/5/9 30/9/7 69/9/7
f 30/9/7 71/5/9 29/5/9
f 60/4/14 5/3/16 72/3/16
f 5/3/16 60/4/14 19/4/14
f 54/6/3 61/9/3 55/5/3
f 52/7/3 61/9/3 54/6/3
f 49/8/3 61/9/3 52/7/3
f 48/7/3 61/9/3 49/8/3
f 58/6/3 61/9/3 48/7/3
f 43/5/3 61/9/3 58/6/3
f 61/9/3 43/5/3 39/9/3
f 39/9/3 73/3/3 61/9/3
f 61/9/3 73/3/3 64/2/3
f 41/2/3 73/3/3 39/9/3
f 64/2/3 73/3/3 74/1/3
f 74/1/3 73/3/3 75/4/3
f 76/1/3 73/3/3 41/2/3
f 77/4/3 73/3/3 76/1/3
f 73/3/3 77/4/3 78/3/3
f 79/5/9 80/2/8 81/2/8
f 80/2/8 79/5/9 82/5/9
f 8/1/17 83/4/18 6/4/18
f 83/4/18 8/1/17 84/1/17
f 85/1/6 86/3/6 87/4/6
f 86/3/6 85/1/6 88/3/6
f 88/3/6 85/1/6 80/2/6
f 88/3/6 80/2/6 82/5/6
f 88/3/6 82/5/6 89/6/6
f 88/3/6 89/6/6 68/7/6
f 88/3/6 68/7/6 65/8/6
f 88/3/6 65/8/6 90/7/6
f 88/3/6 90/7/6 91/6/6
f 88/3/6 91/6/6 92/5/6
f 88/3/6 92/5/6 4/2/6
f 88/3/6 4/2/6 1/1/6
f 88/3/6 1/1/6 93/4/6
f 93/4/14 94/3/16 88/3/16
f 94/3/16 93/4/14 95/4/14
f 96/7/12 13/8/11 14/7/12
f 13/8/11 96/7/12 97/8/11
f 98/6/13 14/7/12 15/6/13
f 14/7/12 98/6/13 96/7/12
f 21/6/5 10/5/9 11/6/5
f 10/5/9 21/6/5 99/5/9
f 46/2/2 18/1/1 59/1/1
f 18/1/1 46/2/2 17/2/2
f 32/2/2 100/9/15 101/2/2
f 100/9/15 32/2/2 22/9/15
f 24/5/10 100/9/15 22/9/15
f 100/9/15 24/5/10 102/5/10
f 10/5/9 103/2/8 9/2/8
f 103/2/8 10/5/9 99/5/9
f 70/2/8 36/1/17 104/1/17
f 36/1/17 70/2/8 33/2/8
f 35/4/14 105/3/16 31/3/16
f 105/3/16 35/4/14 106/4/14
f 35/4/14 107/1/1 106/4/14
f 107/1/1 35/4/14 34/1/1
f 104/1/17 38/4/19 108/4/19
f 38/4/19 104/1/17 36/1/17
f 76/1/17 109/4/19 77/4/19
f 109/4/19 76/1/17 110/1/17
f 45/5/10 15/6/13 16/5/10
f 15/6/13 45/5/10 98/6/13
f 9/2/8 84/1/17 8/1/17
f 84/1/17 9/2/8 103/2/8
f 34/1/1 101/2/2 107/1/1
f 101/2/2 34/1/1 32/2/2
f 63/2/2 74/1/1 111/1/1
f 74/1/1 63/2/2 64/2/2
f 111/1/1 75/4/14 112/4/14
f 75/4/14 111/1/1 74/1/1
f 112/4/14 73/3/16 113/3/16
f 73/3/16 112/4/14 75/4/14
f 41/2/8 110/1/17 76/1/17
f 110/1/17 41/2/8 40/2/8
f 81/2/8 85/1/17 114/1/17
f 85/1/17 81/2/8 80/2/8
f 91/6/13 115/7/12 116/6/13
f 115/7/12 91/6/13 90/7/12
f 92/5/10 116/6/13 117/5/10
f 116/6/13 92/5/10 91/6/13
f 90/7/12 67/8/11 115/7/12
f 67/8/11 90/7/12 65/8/11
f 6/4/18 118/3/20 7/3/20
f 118/3/20 6/4/18 83/4/18
f 89/6/5 79/5/9 119/6/5
f 79/5/9 89/6/5 82/5/9
f 114/1/17 87/4/18 120/4/18
f 87/4/18 114/1/17 85/1/17
f 97/8/11 12/7/4 13/8/11
f 12/7/4 97/8/11 20/7/4
f 120/4/18 86/3/20 121/3/20
f 86/3/20 120/4/18 87/4/18
f 68/7/4 119/6/5 66/7/4
f 119/6/5 68/7/4 89/6/5
f 93/4/14 3/1/1 95/4/14
f 3/1/1 93/4/14 1/1/1
f 4/2/2 117/5/10 2/2/2
f 117/5/10 4/2/2 92/5/10
f 27/7/4 122/6/5 123/7/4
f 122/6/5 27/7/4 28/6/5
f 25/7/12 124/8/11 125/7/12
f 124/8/11 25/7/12 26/8/11
f 23/6/13 125/7/12 126/6/13
f 125/7/12 23/6/13 25/7/12
f 24/5/10 126/6/13 102/5/10
f 126/6/13 24/5/10 23/6/13
f 28/6/5 71/5/9 122/6/5
f 71/5/9 28/6/5 29/5/9
f 26/8/11 123/7/4 124/8/11
f 123/7/4 26/8/11 27/7/4
f 127/10/21 128/11/22 129/11/22
f 128/11/22 127/10/21 130/10/23
f 131/12/24 132/13/25 133/12/26
f 132/13/25 131/12/24 134/13/27
f 30/14/3 22/14/3 29/15/3
f 28/16/3 29/15/3 22/14/3
f 27/17/3 28/16/3 22/14/3
f 26/18/3 27/17/3 22/14/3
f 25/17/3 26/18/3 22/14/3
f 23/16/3 25/17/3 22/14/3
f 24/15/3 23/16/3 22/14/3
f 135/12/28 136/19/29 137/12/30
f 136/19/29 135/12/28 138/19/31
f 139/14/29 140/14/29 141/14/29
f 140/14/29 139/14/29 142/14/29
f 142/14/29 143/14/29 140/14/29
f 142/14/29 139/14/29 144/14/29
f 144/14/29 139/14/29 145/14/29
f 138/19/31 133/12/26 136/19/29
f 133/12/26 138/19/31 131/12/24
f 146/20/32 147/13/33 148/20/34
f 147/13/33 146/20/32 149/13/35
f 150/21/36 39/14/6 143/14/37
f 39/14/6 150/21/36 151/22/38
f 39/14/6 151/22/38 43/15/6
f 43/15/6 151/22/38 58/16/6
f 58/16/6 151/22/38 152/23/39
f 58/16/6 152/23/39 48/17/6
f 48/17/6 152/23/39 153/24/40
f 48/17/6 153/24/40 49/18/6
f 49/18/6 153/24/40 154/23/41
f 49/18/6 154/23/41 52/17/6
f 52/17/6 154/23/41 54/16/6
f 54/16/6 154/23/41 155/22/42
f 54/16/6 155/22/42 55/15/6
f 55/15/6 155/22/42 156/21/43
f 55/15/6 156/21/43 61/14/6
f 61/14/6 156/21/43 157/14/44
f 158/14/45 159/25/46 160/25/46
f 159/25/46 158/14/45 161/14/45
f 162/14/47 148/20/34 163/14/48
f 148/20/34 162/14/47 146/20/32
f 164/20/49 165/14/50 166/14/51
f 165/14/50 164/20/49 167/20/52
f 168/14/48 169/26/53 170/26/54
f 169/26/53 168/14/48 171/20/34
f 171/20/34 168/14/48 172/20/34
f 134/13/27 164/20/49 132/13/25
f 164/20/49 134/13/27 167/20/52
f 173/14/51 174/26/55 175/26/56
f 174/26/55 173/14/51 176/20/49
f 176/20/49 173/14/51 177/20/49
f 149/13/35 137/12/30 147/13/33
f 137/12/30 149/13/35 135/12/28
f 39/14/6 43/15/6 61/14/6
f 58/16/6 61/14/6 43/15/6
f 48/17/6 61/14/6 58/16/6
f 49/18/6 61/14/6 48/17/6
f 52/17/6 61/14/6 49/18/6
f 54/16/6 61/14/6 52/17/6
f 55/15/6 61/14/6 54/16/6
f 178/13/25 179/20/49 180/13/25
f 179/20/49 178/13/25 181/20/49
f 182/25/57 183/11/58 184/25/58
f 183/11/58 182/25/57 185/11/59
f 186/25/11 187/25/11 188/25/11
f 187/25/11 186/25/11 189/25/11
f 187/25/11 189/25/11 190/25/11
f 187/25/11 190/25/11 191/25/11
f 187/25/11 191/25/11 192/25/11
f 187/25/11 192/25/11 193/25/11
f 187/25/11 193/25/11 194/25/11
f 187/25/11 194/25/11 195/25/11
f 187/25/11 195/25/11 196/25/11
f 187/25/11 196/25/11 197/25/11
f 187/25/11 197/25/11 198/25/11
f 187/25/11 198/25/11 199/25/11
f 189/25/60 200/11/61 201/11/60
f 200/11/61 189/25/60 186/25/61
f 129/11/29 202/11/29 203/11/29
f 128/11/29 202/11/29 129/11/29
f 202/11/29 128/11/29 204/11/29
f 202/11/29 204/11/29 205/11/29
f 172/20/34 206/13/33 171/20/34
f 206/13/33 172/20/34 207/13/33
f 208/12/30 209/19/29 210/12/30
f 209/19/29 208/12/30 211/19/29
f 190/25/62 201/11/60 212/11/62
f 201/11/60 190/25/62 189/25/60
f 38/11/11 185/11/11 108/11/11
f 185/11/11 38/11/11 183/11/11
f 183/11/11 38/11/11 213/11/11
f 213/11/11 38/11/11 214/11/11
f 214/11/11 38/11/11 215/11/11
f 215/11/11 38/11/11 216/11/11
f 216/11/11 38/11/11 217/11/11
f 217/11/11 38/11/11 218/11/11
f 218/11/11 38/11/11 219/11/11
f 219/11/11 38/11/11 220/11/11
f 220/11/11 38/11/11 221/11/11
f 221/11/11 38/11/11 222/11/11
f 222/11/11 38/11/11 223/11/11
f 223/11/11 38/11/11 224/11/11
f 224/11/11 38/11/11 77/11/11
f 224/11/11 77/11/11 109/11/11
f 224/11/11 109/11/11 200/11/11
f 200/11/11 109/11/11 201/11/11
f 201/11/11 109/11/11 212/11/11
f 212/11/11 109/11/11 225/11/11
f 225/11/11 109/11/11 226/11/11
f 226/11/11 109/11/11 227/11/11
f 227/11/11 109/11/11 228/11/11
f 228/11/11 109/11/11 229/11/11
f 229/11/11 109/11/11 230/11/11
f 230/11/11 109/11/11 231/11/11
f 231/11/11 109/11/11 232/11/11
f 232/11/11 109/11/11 233/11/11
f 77/11/16 37/27/16 78/27/16
f 37/27/16 77/11/16 38/11/16
f 234/12/26 180/13/25 235/12/26
f 180/13/25 234/12/26 178/13/25
f 236/14/20 237/11/63 238/11/20
f 237/11/63 236/14/20 239/14/63
f 207/13/33 210/12/30 206/13/33
f 210/12/30 207/13/33 208/12/30
f 211/19/29 235/12/26 209/19/29
f 235/12/26 211/19/29 234/12/26
f 193/25/64 226/11/65 227/11/64
f 226/11/65 193/25/64 192/25/65
f 188/25/66 223/11/67 224/11/66
f 223/11/67 188/25/66 240/25/67
f 240/25/67 188/25/66 241/25/16
f 241/25/16 188/25/66 242/25/16
f 139/14/16 241/25/16 242/25/16
f 241/25/16 139/14/16 141/14/16
f 141/14/16 243/14/16 241/25/16
f 243/14/16 141/14/16 244/14/16
f 237/11/29 245/11/29 238/11/29
f 245/11/29 237/11/29 246/11/29
f 246/11/29 237/11/29 247/11/29
f 247/11/29 237/11/29 248/11/29
f 184/25/11 249/25/11 182/25/11
f 249/25/11 184/25/11 250/25/11
f 249/25/11 250/25/11 251/25/11
f 249/25/11 251/25/11 252/25/11
f 249/25/11 252/25/11 253/25/11
f 249/25/11 253/25/11 254/25/11
f 249/25/11 254/25/11 255/25/11
f 249/25/11 255/25/11 256/25/11
f 249/25/11 256/25/11 257/25/11
f 249/25/11 257/25/11 258/25/11
f 249/25/11 258/25/11 259/25/11
f 249/25/11 259/25/11 240/25/11
f 260/26/53 261/10/21 262/10/23
f 261/10/21 260/26/53 263/26/54
f 230/11/68 195/25/69 229/11/69
f 195/25/69 230/11/68 196/25/68
f 231/11/70 196/25/68 230/11/68
f 196/25/68 231/11/70 197/25/70
f 264/10/71 265/25/72 266/25/73
f 265/25/72 264/10/71 267/10/74
f 268/26/55 269/14/51 270/26/56
f 269/14/51 268/26/55 179/20/49
f 269/14/51 179/20/49 181/20/49
f 257/25/75 219/11/76 220/11/75
f 219/11/76 257/25/75 256/25/76
f 240/25/67 222/11/77 223/11/67
f 222/11/77 240/25/67 259/25/77
f 192/25/65 225/11/78 226/11/65
f 225/11/78 192/25/65 191/25/78
f 191/25/78 212/11/62 225/11/78
f 212/11/62 191/25/78 190/25/62
f 271/12/30 272/19/29 273/12/30
f 272/19/29 271/12/30 274/19/29
f 127/10/21 169/26/53 130/10/23
f 169/26/53 127/10/21 170/26/54
f 275/13/33 273/12/30 276/13/33
f 273/12/30 275/13/33 271/12/30
f 258/25/79 220/11/75 221/11/79
f 220/11/75 258/25/79 257/25/75
f 184/25/58 213/11/80 250/25/80
f 213/11/80 184/25/58 183/11/58
f 256/25/76 218/11/81 219/11/76
f 218/11/81 256/25/76 255/25/81
f 109/11/3 199/25/82 233/11/83
f 199/25/82 109/11/3 144/14/3
f 145/14/3 199/25/82 144/14/3
f 199/25/82 145/14/3 187/25/3
f 144/14/3 109/11/3 277/20/3
f 277/20/3 109/11/3 110/28/3
f 277/20/3 110/28/3 40/29/3
f 277/20/3 40/29/3 278/13/3
f 278/13/3 40/29/3 42/14/3
f 278/13/3 42/14/3 44/15/3
f 278/13/3 44/15/3 57/16/3
f 278/13/3 57/16/3 279/12/3
f 279/12/3 57/16/3 50/17/3
f 279/12/3 50/17/3 280/19/3
f 280/19/3 50/17/3 47/18/3
f 280/19/3 47/18/3 51/17/3
f 280/19/3 51/17/3 281/12/3
f 281/12/3 51/17/3 56/16/3
f 281/12/3 56/16/3 282/13/3
f 282/13/3 56/16/3 53/15/3
f 282/13/3 53/15/3 283/20/3
f 283/20/3 53/15/3 62/14/3
f 283/20/3 62/14/3 63/29/3
f 283/20/3 63/29/3 111/28/3
f 283/20/3 111/28/3 284/14/3
f 284/14/3 111/28/3 112/11/3
f 284/14/3 112/11/3 113/27/3
f 284/14/3 113/27/3 118/27/3
f 284/14/3 118/27/3 248/11/84
f 284/14/3 248/11/84 285/14/85
f 248/11/84 118/27/3 247/11/3
f 247/11/3 118/27/3 246/11/3
f 246/11/3 118/27/3 262/10/3
f 262/10/3 118/27/3 260/26/3
f 260/26/3 118/27/3 83/11/3
f 260/26/3 83/11/3 286/20/3
f 286/20/3 83/11/3 84/28/3
f 286/20/3 84/28/3 103/29/3
f 286/20/3 103/29/3 275/13/3
f 275/13/3 103/29/3 99/15/3
f 275/13/3 99/15/3 21/16/3
f 275/13/3 21/16/3 271/12/3
f 271/12/3 21/16/3 20/17/3
f 271/12/3 20/17/3 274/19/3
f 274/19/3 20/17/3 97/18/3
f 274/19/3 97/18/3 96/17/3
f 274/19/3 96/17/3 287/12/3
f 287/12/3 96/17/3 98/16/3
f 287/12/3 98/16/3 288/13/3
f 288/13/3 98/16/3 45/15/3
f 288/13/3 45/15/3 176/20/3
f 176/20/3 45/15/3 46/29/3
f 176/20/3 46/29/3 59/28/3
f 176/20/3 59/28/3 174/26/3
f 174/26/3 59/28/3 60/11/3
f 174/26/3 60/11/3 72/27/3
f 174/26/3 72/27/3 289/27/3
f 174/26/3 289/27/3 265/25/3
f 174/26/3 265/25/3 267/10/3
f 265/25/3 289/27/3 290/25/3
f 232/11/86 197/25/70 231/11/70
f 197/25/70 232/11/86 198/25/86
f 268/26/55 291/10/71 292/10/74
f 291/10/71 268/26/55 270/26/56
f 253/25/87 217/11/88 254/25/88
f 217/11/88 253/25/87 216/11/87
f 288/13/25 177/20/49 293/13/25
f 177/20/49 288/13/25 176/20/49
f 264/10/71 174/26/55 267/10/74
f 174/26/55 264/10/71 175/26/56
f 259/25/77 221/11/79 222/11/77
f 221/11/79 259/25/77 258/25/79
f 252/25/89 214/11/90 215/11/89
f 214/11/90 252/25/89 251/25/90
f 252/25/89 216/11/87 253/25/87
f 216/11/87 252/25/89 215/11/89
f 294/18/20 295/30/20 296/30/20
f 295/30/20 294/18/20 297/18/20
f 298/18/20 297/18/20 294/18/20
f 298/18/20 299/18/20 297/18/20
f 161/14/45 299/18/20 298/18/20
f 299/18/20 161/14/45 158/14/45
f 186/25/61 224/11/66 200/11/61
f 224/11/66 186/25/61 188/25/66
f 286/20/34 276/13/33 300/20/34
f 276/13/33 286/20/34 275/13/33
f 250/25/80 214/11/90 251/25/90
f 214/11/90 250/25/80 213/11/80
f 229/11/69 194/25/91 228/11/91
f 194/25/91 229/11/69 195/25/69
f 233/11/83 198/25/86 232/11/86
f 198/25/86 233/11/83 199/25/82
f 262/10/23 245/11/22 246/11/22
f 245/11/22 262/10/23 261/10/21
f 228/11/91 193/25/64 227/11/64
f 193/25/64 228/11/91 194/25/91
f 255/25/81 217/11/88 218/11/81
f 217/11/88 255/25/81 254/25/88
f 260/26/53 301/14/48 263/26/54
f 301/14/48 260/26/53 286/20/34
f 301/14/48 286/20/34 300/20/34
f 239/14/29 284/14/29 285/14/29
f 236/14/29 284/14/29 239/14/29
f 236/14/29 302/14/29 284/14/29
f 303/14/29 302/14/29 236/14/29
f 302/14/29 303/14/29 304/14/29
f 302/14/29 304/14/29 157/14/29
f 274/19/29 305/12/26 272/19/29
f 305/12/26 274/19/29 287/12/26
f 287/12/26 293/13/25 305/12/26
f 293/13/25 287/12/26 288/13/25
f 292/10/74 306/25/73 307/25/72
f 306/25/73 292/10/74 291/10/71
f 265/25/72 159/25/29 266/25/73
f 159/25/29 265/25/72 308/25/29
f 308/25/29 160/25/29 159/25/29
f 308/25/29 265/25/72 309/25/29
f 309/25/29 265/25/72 290/25/29
f 310/25/29 160/25/29 308/25/29
f 310/25/29 306/25/73 160/25/29
f 311/25/29 306/25/73 310/25/29
f 312/25/29 306/25/73 311/25/29
f 306/25/73 312/25/29 307/25/72
f 313/27/92 290/25/85 289/27/85
f 290/25/85 313/27/92 309/25/92
f 311/25/93 314/27/94 312/25/94
f 314/27/94 311/25/93 315/27/93
f 308/25/95 313/27/92 316/27/95
f 313/27/92 308/25/95 309/25/92
f 311/25/93 317/27/96 315/27/93
f 317/27/96 311/25/93 310/25/96
f 310/25/96 316/27/95 317/27/96
f 316/27/95 310/25/96 308/25/95
f 121/27/11 31/27/11 105/27/11
f 31/27/11 121/27/11 86/27/11
f 86/27/11 5/27/11 31/27/11
f 31/27/11 5/27/11 37/27/11
f 86/27/11 316/27/11 5/27/11
f 88/27/11 316/27/11 86/27/11
f 37/27/11 5/27/11 73/27/11
f 78/27/11 37/27/11 73/27/11
f 7/27/11 73/27/11 5/27/11
f 73/27/11 7/27/11 113/27/11
f 113/27/11 7/27/11 118/27/11
f 5/27/11 316/27/11 72/27/11
f 72/27/11 316/27/11 313/27/11
f 72/27/11 313/27/11 289/27/11
f 88/27/11 317/27/11 316/27/11
f 88/27/11 315/27/11 317/27/11
f 88/27/11 314/27/11 315/27/11
f 314/27/11 88/27/11 94/27/11
f 30/14/3 318/21/97 319/14/98
f 318/21/97 30/14/3 320/22/99
f 320/22/99 30/14/3 29/15/3
f 320/22/99 29/15/3 28/16/3
f 320/22/99 28/16/3 321/23/100
f 321/23/100 28/16/3 27/17/3
f 321/23/100 27/17/3 322/24/101
f 322/24/101 27/17/3 26/18/3
f 322/24/101 26/18/3 25/17/3
f 322/24/101 25/17/3 323/23/102
f 323/23/102 25/17/3 23/16/3
f 323/23/102 23/16/3 324/22/103
f 324/22/103 23/16/3 24/15/3
f 324/22/103 24/15/3 325/21/104
f 325/21/104 24/15/3 22/14/3
f 325/21/104 22/14/3 326/14/105
f 323/23/102 138/19/31 322/24/101
f 138/19/31 323/23/102 131/12/24
f 325/21/104 134/13/27 324/22/103
f 134/13/27 325/21/104 167/20/52
f 319/14/98 146/20/32 162/14/47
f 146/20/32 319/14/98 318/21/97
f 318/21/97 149/13/35 146/20/32
f 149/13/35 318/21/97 320/22/99
f 326/14/105 167/20/52 325/21/104
f 167/20/52 326/14/105 165/14/50
f 321/23/100 138/19/31 135/12/28
f 138/19/31 321/23/100 322/24/101
f 324/22/103 131/12/24 323/23/102
f 131/12/24 324/22/103 134/13/27
f 320/22/99 135/12/28 149/13/35
f 135/12/28 320/22/99 321/23/100
f 277/20/34 327/13/106 328/20/107
f 327/13/106 277/20/34 278/13/33
f 282/13/25 329/20/108 330/13/109
f 329/20/108 282/13/25 283/20/49
f 281/12/26 330/13/109 331/12/110
f 330/13/109 281/12/26 282/13/25
f 144/14/48 328/20/107 142/14/111
f 328/20/107 144/14/48 277/20/34
f 278/13/33 332/12/112 327/13/106
f 332/12/112 278/13/33 279/12/30
f 279/12/30 333/19/113 332/12/112
f 333/19/113 279/12/30 280/19/29
f 329/20/108 284/14/51 302/14/114
f 284/14/51 329/20/108 283/20/49
f 280/19/29 331/12/110 333/19/113
f 331/12/110 280/19/29 281/12/26
f 328/20/107 143/14/37 142/14/111
f 143/14/37 328/20/107 150/21/36
f 327/13/106 150/21/36 328/20/107
f 150/21/36 327/13/106 151/22/38
f 330/13/109 156/21/43 155/22/42
f 156/21/43 330/13/109 329/20/108
f 331/12/110 155/22/42 154/23/41
f 155/22/42 331/12/110 330/13/109
f 333/19/113 152/23/39 332/12/112
f 152/23/39 333/19/113 153/24/40
f 332/12/112 151/22/38 327/13/106
f 151/22/38 332/12/112 152/23/39
f 331/12/110 153/24/40 333/19/113
f 153/24/40 331/12/110 154/23/41
f 329/20/108 157/14/44 156/21/43
f 157/14/44 329/20/108 302/14/114
f 166/14/29 334/14/29 335/14/29
f 334/14/29 166/14/29 165/14/29
f 334/14/29 165/14/29 336/14/29
f 336/14/29 165/14/29 337/14/29
f 337/14/29 165/14/29 326/14/29
f 337/14/29 326/14/29 338/14/29
f 243/14/29 163/14/29 339/14/29
f 163/14/29 243/14/29 162/14/29
f 162/14/29 243/14/29 244/14/29
f 162/14/29 244/14/29 319/14/29
f 319/14/29 244/14/29 340/14/29
f 202/11/115 336/14/20 203/11/20
f 336/14/20 202/11/115 334/14/115
f 307/25/6 268/26/6 292/10/6
f 314/27/6 268/26/6 307/25/6
f 314/27/6 307/25/6 312/25/6
f 94/27/6 268/26/6 314/27/6
f 95/11/6 268/26/6 94/27/6
f 3/28/6 268/26/6 95/11/6
f 3/28/6 179/20/6 268/26/6
f 2/29/6 179/20/6 3/28/6
f 117/15/6 179/20/6 2/29/6
f 117/15/6 180/13/6 179/20/6
f 116/16/6 180/13/6 117/15/6
f 116/16/6 235/12/6 180/13/6
f 115/17/6 235/12/6 116/16/6
f 67/18/6 235/12/6 115/17/6
f 67/18/6 209/19/6 235/12/6
f 66/17/6 209/19/6 67/18/6
f 66/17/6 210/12/6 209/19/6
f 119/16/6 210/12/6 66/17/6
f 119/16/6 206/13/6 210/12/6
f 79/15/6 206/13/6 119/16/6
f 81/29/6 206/13/6 79/15/6
f 81/29/6 171/20/6 206/13/6
f 114/28/6 171/20/6 81/29/6
f 120/11/6 171/20/6 114/28/6
f 171/20/6 120/11/6 169/26/6
f 121/27/6 169/26/6 120/11/6
f 121/27/6 130/10/6 169/26/6
f 121/27/6 128/11/6 130/10/6
f 121/27/6 204/11/6 128/11/6
f 121/27/6 205/11/116 204/11/6
f 121/27/6 166/14/6 205/11/116
f 205/11/116 166/14/6 335/14/94
f 105/27/6 166/14/6 121/27/6
f 106/11/6 166/14/6 105/27/6
f 107/28/6 166/14/6 106/11/6
f 107/28/6 164/20/6 166/14/6
f 101/29/6 164/20/6 107/28/6
f 100/14/6 164/20/6 101/29/6
f 102/15/6 164/20/6 100/14/6
f 102/15/6 132/13/6 164/20/6
f 126/16/6 132/13/6 102/15/6
f 126/16/6 133/12/6 132/13/6
f 125/17/6 133/12/6 126/16/6
f 124/18/6 133/12/6 125/17/6
f 124/18/6 136/19/6 133/12/6
f 123/17/6 136/19/6 124/18/6
f 123/17/6 137/12/6 136/19/6
f 122/16/6 137/12/6 123/17/6
f 122/16/6 147/13/6 137/12/6
f 71/15/6 147/13/6 122/16/6
f 69/14/6 147/13/6 71/15/6
f 70/29/6 147/13/6 69/14/6
f 70/29/6 148/20/6 147/13/6
f 104/28/6 148/20/6 70/29/6
f 108/11/6 148/20/6 104/28/6
f 108/11/6 163/14/6 148/20/6
f 185/11/59 163/14/6 108/11/6
f 182/25/57 163/14/6 185/11/59
f 249/25/6 163/14/6 182/25/57
f 163/14/6 249/25/6 339/14/6
f 334/14/115 205/11/116 335/14/94
f 205/11/116 334/14/115 202/11/115
f 248/11/84 239/14/63 285/14/85
f 239/14/63 248/11/84 237/11/63
f 341/31/117 342/31/117 343/31/117
f 341/31/117 344/32/117 342/31/117
f 345/33/117 344/32/117 341/31/117
f 346/33/117 344/32/117 345/33/117
f 344/32/117 346/33/117 347/32/117
f 348/31/117 347/32/117 346/33/117
f 349/31/117 347/32/117 348/31/117
f 347/32/117 349/31/117 350/34/117
f 344/32/118 351/31/118 342/31/118
f 351/31/118 344/32/118 352/35/118
f 352/35/118 344/32/118 353/35/118
f 354/32/118 353/35/118 344/32/118
f 355/31/118 353/35/118 354/32/118
f 353/35/118 355/31/118 356/31/118
f 357/31/119 358/34/119 359/31/119
f 358/34/119 357/31/119 360/32/119
f 360/32/119 357/31/119 361/33/119
f 360/32/119 361/33/119 354/32/119
f 354/32/119 361/33/119 362/33/119
f 354/32/119 362/33/119 363/31/119
f 354/32/119 363/31/119 355/31/119
f 355/31/119 363/31/119 364/31/119
f 358/34/120 347/32/34 350/34/120
f 347/32/34 358/34/120 360/32/34
f 365/36/16 358/34/120 366/37/16
f 366/37/16 358/34/120 367/37/16
f 365/36/16 359/31/16 358/34/120
f 350/34/120 367/37/16 358/34/120
f 359/31/16 365/36/16 349/31/16
f 350/34/120 368/36/16 367/37/16
f 349/31/16 368/36/16 350/34/120
f 368/36/16 349/31/16 365/36/16
f 369/31/121 370/38/122 371/31/121
f 370/38/122 369/31/121 372/38/122
f 373/31/123 371/31/121 374/31/123
f 371/31/121 373/31/123 369/31/121
f 375/38/124 374/31/123 376/38/124
f 374/31/123 375/38/124 373/31/123
f 377/39/125 378/32/126 379/32/126
f 378/32/126 377/39/125 380/39/125
f 372/38/122 377/39/125 370/38/122
f 377/39/125 372/38/122 380/39/125
f 375/38/127 369/31/127 373/31/127
f 369/31/127 375/38/127 372/38/127
f 372/38/127 375/38/127 381/39/127
f 372/38/127 381/39/127 380/39/127
f 380/39/127 381/39/127 382/32/127
f 380/39/127 382/32/127 378/32/127
f 379/32/126 382/32/128 383/32/128
f 382/32/128 379/32/126 378/32/126
f 381/39/129 376/38/124 384/39/129
f 376/38/124 381/39/129 375/38/124
f 383/32/128 381/39/129 384/39/129
f 381/39/129 383/32/128 382/32/128
f 385/31/130 386/38/131 387/31/130
f 386/38/131 385/31/130 388/38/131
f 389/31/132 387/31/130 390/31/132
f 387/31/130 389/31/132 385/31/130
f 391/38/133 390/31/132 392/38/133
f 390/31/132 391/38/133 389/31/132
f 393/39/134 394/32/135 395/32/135
f 394/32/135 393/39/134 396/39/134
f 388/38/131 393/39/134 386/38/131
f 393/39/134 388/38/131 396/39/134
f 391/38/20 385/31/20 389/31/20
f 385/31/20 391/38/20 388/38/20
f 388/38/20 391/38/20 397/39/20
f 388/38/20 397/39/20 396/39/20
f 396/39/20 397/39/20 398/32/20
f 396/39/20 398/32/20 394/32/20
f 395/32/135 398/32/136 399/32/136
f 398/32/136 395/32/135 394/32/135
f 397/39/137 392/38/133 400/39/137
f 392/38/133 397/39/137 391/38/133
f 399/32/136 397/39/137 400/39/137
f 397/39/137 399/32/136 398/32/136
f 141/40/29 401/32/29 244/32/29
f 401/32/29 141/40/29 402/32/29
f 158/41/138 270/42/139 269/41/140
f 270/42/139 158/41/138 291/43/139
f 291/43/139 158/41/138 306/44/139
f 306/44/139 158/41/138 160/44/139
f 175/42/141 161/41/142 173/41/143
f 161/41/142 175/42/141 264/43/141
f 161/41/142 264/43/141 266/44/141
f 161/41/142 266/44/141 159/44/141
f 403/45/144 404/46/144 405/45/144
f 404/46/144 403/45/144 406/47/144
f 406/47/144 403/45/144 295/47/144
f 295/47/144 403/45/144 407/45/144
f 295/47/144 407/45/144 296/47/144
f 296/47/144 407/45/144 408/47/144
f 408/47/144 407/45/144 409/45/144
f 408/47/144 409/45/144 410/46/144
f 168/41/140 203/48/139 336/41/145
f 203/48/139 168/41/140 170/42/139
f 203/48/139 170/42/139 127/43/139
f 203/48/139 127/43/139 129/48/139
f 245/48/141 236/41/146 238/48/141
f 236/41/146 245/48/141 261/43/141
f 236/41/146 261/43/141 263/42/141
f 236/41/146 263/42/141 301/41/143
f 411/49/3 161/41/142 298/49/3
f 161/41/142 411/49/3 173/41/143
f 410/46/3 173/41/143 411/49/3
f 410/46/3 177/50/3 173/41/143
f 410/46/3 293/51/3 177/50/3
f 409/45/3 293/51/3 410/46/3
f 412/47/3 293/51/3 409/45/3
f 412/47/3 305/52/3 293/51/3
f 413/47/3 305/52/3 412/47/3
f 413/47/3 272/53/3 305/52/3
f 414/45/3 272/53/3 413/47/3
f 415/45/3 414/45/3 413/47/3
f 414/45/3 273/52/3 272/53/3
f 414/45/3 276/51/3 273/52/3
f 416/45/3 276/51/3 414/45/3
f 416/45/3 300/50/3 276/51/3
f 416/45/3 301/41/143 300/50/3
f 357/45/3 301/41/143 416/45/3
f 357/45/3 236/41/146 301/41/143
f 236/41/146 357/45/3 417/45/3
f 418/47/3 419/45/147 420/47/3
f 419/45/147 418/47/3 421/45/147
f 419/45/147 409/45/29 415/45/29
f 409/45/29 419/45/147 421/45/147
f 418/47/11 413/47/11 412/47/11
f 413/47/11 418/47/11 420/47/11
f 409/45/20 418/47/20 412/47/20
f 418/47/20 409/45/20 421/45/20
f 422/45/148 423/47/6 424/45/148
f 423/47/6 422/45/148 425/47/6
f 426/45/29 422/45/148 424/45/148
f 422/45/148 426/45/29 405/45/29
f 422/45/20 427/47/20 425/47/20
f 427/47/20 422/45/20 405/45/20
f 427/47/11 423/47/11 425/47/11
f 423/47/11 427/47/11 428/47/11
f 404/46/6 427/47/6 405/45/6
f 427/47/6 404/46/6 178/51/6
f 178/51/6 404/46/6 181/50/6
f 234/52/6 427/47/6 178/51/6
f 181/50/6 404/46/6 269/41/140
f 269/41/140 404/46/6 429/49/6
f 269/41/140 429/49/6 158/41/138
f 158/41/138 429/49/6 299/49/6
f 234/52/6 428/47/6 427/47/6
f 211/53/6 428/47/6 234/52/6
f 211/53/6 430/45/6 428/47/6
f 428/47/6 430/45/6 426/45/6
f 208/52/6 430/45/6 211/53/6
f 207/51/6 430/45/6 208/52/6
f 207/51/6 431/45/6 430/45/6
f 172/50/6 431/45/6 207/51/6
f 168/41/140 431/45/6 172/50/6
f 168/41/140 348/45/6 431/45/6
f 336/41/145 348/45/6 168/41/140
f 348/45/6 336/41/145 432/45/6
f 433/54/29 344/54/29 434/54/29
f 344/54/29 433/54/29 354/54/29
f 236/41/16 337/41/16 303/41/16
f 337/41/16 236/41/16 417/45/16
f 432/45/16 337/41/16 417/45/16
f 337/41/16 432/45/16 336/41/16
f 435/54/149 436/55/150 437/55/149
f 436/55/150 435/54/149 438/54/150
f 439/54/29 435/54/29 440/54/29
f 435/54/29 439/54/29 438/54/29
f 440/54/151 437/55/149 441/55/151
f 437/55/149 440/54/151 435/54/149
f 436/55/150 439/54/152 442/55/152
f 439/54/152 436/55/150 438/54/150
f 439/54/152 441/55/151 442/55/152
f 441/55/151 439/54/152 440/54/151
f 416/56/119 361/57/119 357/56/119
f 361/57/119 416/56/119 443/57/119
f 443/57/119 416/56/119 414/56/119
f 352/58/118 407/56/118 403/56/118
f 407/56/118 352/58/118 353/58/118
f 444/57/117 348/56/117 346/57/117
f 348/56/117 444/57/117 431/56/117
f 431/56/117 444/57/117 430/56/117
f 445/59/16 446/60/16 447/60/16
f 446/60/16 445/59/16 448/59/16
f 419/61/16 413/62/16 420/62/16
f 413/62/16 419/61/16 415/61/16
f 426/61/16 423/62/16 428/62/16
f 423/62/16 426/61/16 424/61/16
f 370/63/153 374/64/153 371/64/153
f 374/64/153 370/63/153 376/63/153
f 376/63/153 370/63/153 377/65/153
f 376/63/153 377/65/153 384/65/153
f 384/65/153 377/65/153 379/66/153
f 384/65/153 379/66/153 383/66/153
f 386/63/16 390/64/16 387/64/16
f 390/64/16 386/63/16 392/63/16
f 392/63/16 386/63/16 393/65/16
f 392/63/16 393/65/16 400/65/16
f 400/65/16 393/65/16 395/66/16
f 400/65/16 395/66/16 399/66/16
f 449/67/154 450/68/6 451/69/6
f 450/68/6 449/67/154 452/68/93
f 449/67/154 453/68/20 452/68/93
f 453/68/20 449/67/154 454/67/20
f 455/67/20 456/68/92 457/68/20
f 456/68/92 455/67/20 458/67/155
f 456/68/92 459/69/3 460/68/3
f 459/69/3 456/68/92 458/67/155
f 461/70/16 462/70/16 463/70/16
f 462/70/16 461/70/16 464/71/16
f 462/70/16 464/71/16 465/71/16
f 466/70/16 467/70/16 468/70/16
f 467/70/16 466/70/16 469/71/16
f 467/70/16 469/71/16 470/71/16
