# Generated by GTAClone/tools/split_car_wheels.py from garbage-truck.obj
# Kenney Car Kit (CC0 1.0); the split is a derivative work, also CC0.
mtllib colormap.mtl
v -0.717480 1.208501 1.250671
v -0.800000 0.854948 1.604224
v -0.717480 0.854948 1.604224
v -0.800000 1.208501 1.250671
v 0.717480 1.208501 1.250671
v 0.800000 0.854948 1.604224
v 0.800000 1.208501 1.250671
v 0.717480 0.854948 1.604224
v 0.800000 1.353709 0.515562
v 0.800000 0.431607 0.353916
v 0.800000 0.452964 0.274208
v 0.800000 1.300940 0.586854
v 0.800000 1.389065 0.576800
v 0.800000 1.141124 1.183294
v 0.800000 0.787571 1.536847
v 0.717480 1.141124 1.183294
v 0.717480 1.300940 0.586854
v 0.650000 0.552850 0.254030
v 0.700000 0.568742 0.274741
v 0.700000 0.552850 0.254030
v 0.650000 0.568742 0.274741
v 0.700000 0.532672 0.295566
v 0.700000 0.452964 0.274208
v 0.717480 0.532672 0.295566
v 0.717480 1.353709 0.515562
v 0.700000 0.508021 0.228149
v 0.700000 0.456258 0.228149
v 0.700000 0.482139 0.224741
v 0.700000 0.532139 0.238139
v 0.700000 0.432140 0.238139
v 0.700000 0.411429 0.254030
v 0.700000 0.395537 0.274741
v 0.700000 0.578732 0.298859
v 0.700000 0.511315 0.375274
v 0.700000 0.431607 0.353916
v 0.700000 0.582140 0.324741
v 0.700000 0.385547 0.298859
v 0.700000 0.578732 0.350623
v 0.700000 0.382140 0.324741
v 0.700000 0.385547 0.350623
v 0.700000 0.395537 0.374741
v 0.700000 0.568742 0.374741
v 0.700000 0.552850 0.395452
v 0.700000 0.411429 0.395452
v 0.700000 0.532139 0.411344
v 0.700000 0.432140 0.411344
v 0.700000 0.508021 0.421334
v 0.700000 0.456258 0.421334
v 0.700000 0.482139 0.424741
v 0.650000 0.578732 0.298859
v 0.650000 0.582140 0.324741
v 0.650000 0.532139 0.238139
v 0.650000 0.578732 0.350623
v 0.650000 0.568742 0.374741
v 0.650000 0.552850 0.395452
v 0.650000 0.395537 0.274741
v 0.650000 0.411429 0.254030
v 0.650000 0.532139 0.411344
v 0.650000 0.508021 0.228149
v 0.650000 0.482139 0.224741
v 0.650000 0.456258 0.228149
v 0.650000 0.411429 0.395452
v 0.650000 0.395537 0.374741
v 0.650000 0.432140 0.238139
v 0.650000 0.385547 0.350623
v 0.650000 0.432140 0.411344
v 0.650000 0.456258 0.421334
v 0.650000 0.482139 0.424741
v 0.650000 0.382140 0.324741
v 0.650000 0.385547 0.298859
v 0.650000 0.508021 0.421334
v 0.717480 0.511315 0.375274
v -0.717480 0.956014 1.435781
v 0.717480 0.922325 1.402092
v -0.717480 0.922325 1.402092
v 0.717480 0.956014 1.435781
v 0.717480 0.888637 1.503158
v -0.717480 0.854948 1.469470
v 0.717480 0.854948 1.469470
v -0.717480 0.888637 1.503158
v 0.717480 0.787571 1.536847
v -0.800000 0.787571 1.536847
v -0.717480 0.787571 1.536847
v -0.717480 1.141124 1.183294
v -0.800000 1.141124 1.183294
v -0.700000 0.582140 0.324741
v -0.650000 0.578732 0.350623
v -0.650000 0.582140 0.324741
v -0.700000 0.578732 0.350623
v -0.700000 0.432140 0.238139
v -0.650000 0.411429 0.254030
v -0.700000 0.411429 0.254030
v -0.650000 0.432140 0.238139
v -0.700000 0.552850 0.254030
v -0.650000 0.568742 0.274741
v -0.650000 0.552850 0.254030
v -0.700000 0.568742 0.274741
v -0.700000 0.532139 0.238139
v -0.650000 0.508021 0.228149
v -0.700000 0.508021 0.228149
v -0.650000 0.532139 0.238139
v -0.650000 0.432140 0.411344
v -0.700000 0.411429 0.395452
v -0.650000 0.411429 0.395452
v -0.700000 0.432140 0.411344
v -0.650000 0.532139 0.411344
v -0.700000 0.508021 0.421334
v -0.650000 0.508021 0.421334
v -0.700000 0.532139 0.411344
v -0.700000 0.395537 0.274741
v -0.650000 0.395537 0.274741
v -0.717480 0.532672 0.295566
v -0.700000 0.511315 0.375274
v -0.700000 0.532672 0.295566
v -0.717480 0.511315 0.375274
v -0.650000 0.482139 0.424741
v -0.700000 0.456258 0.421334
v -0.650000 0.456258 0.421334
v -0.700000 0.482139 0.424741
v -0.650000 0.552850 0.395452
v -0.700000 0.552850 0.395452
v -0.700000 0.395537 0.374741
v -0.650000 0.385547 0.350623
v -0.650000 0.395537 0.374741
v -0.700000 0.385547 0.350623
v -0.800000 0.431607 0.353916
v -0.700000 0.452964 0.274208
v -0.700000 0.431607 0.353916
v -0.800000 0.452964 0.274208
v -0.700000 0.382140 0.324741
v -0.650000 0.385547 0.298859
v -0.650000 0.382140 0.324741
v -0.700000 0.385547 0.298859
v -0.700000 0.456258 0.228149
v -0.650000 0.456258 0.228149
v -0.800000 1.300940 0.586854
v -0.717480 1.300940 0.586854
v -0.650000 0.482139 0.224741
v -0.700000 0.482139 0.224741
v -0.700000 0.578732 0.298859
v -0.650000 0.578732 0.298859
v -0.700000 0.568742 0.374741
v -0.650000 0.568742 0.374741
v -0.800000 1.389065 0.576800
v -0.717480 1.389065 0.576800
v 0.717480 1.389065 0.576800
v -0.800000 1.353709 0.515562
v -0.717480 1.353709 0.515562
v -0.650000 0.800000 -1.500000
v -0.550000 0.500000 -1.500000
v -0.650000 0.500000 -1.500000
v -0.550000 0.800000 -1.500000
v -0.450000 1.400000 0.546921
v 0.450000 1.400000 0.773461
v 0.450000 1.400000 0.546921
v -0.450000 1.400000 0.773461
v -0.550000 1.250000 -1.150000
v -0.550000 0.829289 -1.287868
v -0.550000 0.970711 -1.429289
v -0.550000 1.400000 -0.717157
v -0.550000 1.550000 -0.850000
v -0.550000 1.600000 -0.729289
v -0.550000 1.600000 0.446922
v -0.550000 1.400000 0.446922
v 0.550000 1.400000 0.446922
v 0.550000 1.600000 0.446922
v 0.550000 0.829289 -1.287868
v 0.550000 0.970711 -1.429289
v -0.450000 1.300000 1.000000
v -0.450000 1.300000 0.546921
v 0.450000 1.300000 1.000000
v 0.450000 1.300000 0.546921
v 0.550000 1.250000 -1.150000
v 0.550000 1.400000 -0.717157
v 0.550000 1.550000 -0.850000
v 0.550000 1.600000 -0.729289
v 0.650000 1.550000 -0.850000
v 0.650000 1.250000 0.496922
v 0.650000 1.250000 -1.150000
v 0.650000 1.600000 -0.729289
v 0.650000 1.600000 0.496922
v 0.600000 1.250000 -1.150000
v 0.600000 0.900000 0.546921
v 0.600000 0.900000 -1.500000
v 0.600000 1.250000 0.546921
v -0.600000 0.900000 0.546921
v -0.600000 1.250000 -1.150000
v -0.600000 0.900000 -1.500000
v -0.600000 1.250000 0.546921
v 0.550000 0.800000 -1.500000
v 0.650000 0.500000 -1.500000
v 0.550000 0.500000 -1.500000
v 0.650000 0.800000 -1.500000
v -0.450000 0.900000 -1.500000
v -0.350000 0.600000 -1.500000
v -0.450000 0.600000 -1.500000
v 0.350000 0.600000 -1.500000
v 0.450000 0.600000 -1.500000
v 0.450000 0.900000 -1.500000
v 0.350000 0.400000 -1.500000
v -0.350000 0.400000 -1.500000
v 0.620711 0.400000 -1.214128
v 0.650000 0.400000 -1.400000
v 0.650000 0.400000 -1.143417
v 0.650000 0.400000 -1.500000
v 0.550000 0.400000 -1.500000
v 0.550000 0.400000 -1.243417
v -0.550000 0.400000 -1.243417
v 0.450000 0.400000 -1.500000
v -0.450000 0.400000 -1.500000
v -0.550000 0.400000 -1.500000
v -0.620711 0.400000 -1.214128
v -0.650000 0.400000 -1.500000
v -0.650000 0.400000 -1.143417
v -0.650000 0.400000 -1.400000
v -0.550000 0.900000 -1.500000
v 0.550000 0.900000 -1.500000
v -0.650000 1.550000 -0.850000
v -0.650000 1.250000 -1.150000
v 0.650000 0.300000 0.546921
v 0.550000 0.500000 0.546921
v 0.483333 0.300000 0.546921
v 0.650000 0.900000 0.546921
v 0.550000 0.600000 0.546921
v 0.550000 0.800000 0.546921
v 0.469612 1.201942 0.546921
v 0.600000 1.600000 0.546921
v -0.600000 1.600000 0.546921
v -0.469612 1.201942 0.546921
v -0.550000 0.800000 0.546921
v -0.650000 0.900000 0.546921
v -0.550000 0.600000 0.546921
v -0.550000 0.500000 0.546921
v -0.650000 0.300000 0.546921
v -0.483333 0.300000 0.546921
v -0.650000 1.250000 0.496922
v -0.650000 1.600000 -0.729289
v -0.650000 1.600000 0.496922
v 0.650000 0.900000 0.546921
v 0.650000 0.800000 -1.400000
v 0.650000 0.900000 -1.400000
v 0.650000 0.676711 -0.610939
v 0.650000 0.690000 -0.510000
v 0.650000 0.676711 -0.409060
v 0.650000 0.637750 -0.315000
v 0.650000 0.575772 -0.234228
v 0.650000 0.495000 -0.172250
v 0.650000 0.400939 -0.133289
v 0.650000 0.300000 -0.120000
v 0.650000 0.300000 0.546921
v 0.650000 0.500000 -1.400000
v 0.650000 0.800000 -1.500000
v 0.650000 0.400000 -1.400000
v 0.650000 0.637750 -0.705000
v 0.650000 0.575772 -0.785772
v 0.650000 0.495000 -0.847750
v 0.650000 0.400939 -0.886711
v 0.650000 0.400000 -0.886835
v -0.650000 0.900000 -1.500000
v -0.600000 0.900000 0.546921
v -0.600000 0.900000 -1.500000
v -0.650000 0.900000 0.546921
v -0.650000 0.900000 -1.400000
v -0.650000 0.500000 -1.400000
v -0.650000 0.400000 -1.400000
v -0.650000 0.800000 -1.400000
v -0.650000 0.800000 -1.500000
v -0.650000 0.637750 -0.705000
v -0.650000 0.676711 -0.610939
v -0.650000 0.690000 -0.510000
v -0.650000 0.575772 -0.785772
v -0.650000 0.495000 -0.847750
v -0.650000 0.400939 -0.886711
v -0.650000 0.400000 -0.886835
v -0.650000 0.676711 -0.409060
v -0.650000 0.637750 -0.315000
v -0.650000 0.575772 -0.234228
v -0.650000 0.495000 -0.172250
v -0.650000 0.400939 -0.133289
v -0.650000 0.300000 -0.120000
v -0.650000 0.300000 0.546921
v 0.600000 0.900000 -1.500000
v 0.650000 0.900000 -1.500000
v 0.600000 0.900000 0.546921
v -0.469612 1.201942 0.931806
v -0.550000 0.800000 1.092583
v -0.550000 0.800000 1.200000
v 0.469612 1.201942 0.931806
v 0.550000 0.800000 1.092583
v 0.550000 0.800000 1.200000
v -0.483333 0.300000 0.720000
v -0.650000 0.300000 0.720000
v 0.650000 0.300000 0.720000
v 0.483333 0.300000 0.720000
v -0.650000 0.200000 -0.810000
v -0.650000 0.200000 -1.143417
v -0.650000 0.400939 -0.886711
v -0.650000 0.495000 -0.847750
v -0.650000 0.300000 -0.810000
v -0.650000 0.575772 -0.785772
v -0.650000 0.377646 -0.799778
v -0.650000 0.450000 -0.769808
v -0.650000 0.637750 -0.705000
v -0.650000 0.512132 -0.722132
v -0.650000 0.559808 -0.660000
v -0.650000 0.676711 -0.610939
v -0.650000 0.589778 -0.587646
v -0.650000 0.600000 -0.510000
v -0.650000 0.589778 -0.432354
v -0.650000 0.676711 -0.409061
v -0.650000 0.559808 -0.360000
v -0.650000 0.637750 -0.315000
v -0.650000 0.512132 -0.297868
v -0.650000 0.575772 -0.234228
v -0.650000 0.450000 -0.250192
v -0.650000 0.377646 -0.220222
v -0.650000 0.495000 -0.172250
v -0.650000 0.300000 -0.210000
v -0.650000 0.200000 -0.210000
v -0.650000 0.300000 -0.120000
v -0.650000 0.200000 0.810000
v -0.650000 0.400939 0.733289
v -0.650000 0.495000 0.772250
v -0.650000 0.300000 0.810000
v -0.650000 0.575772 0.834228
v -0.650000 0.377646 0.820222
v -0.650000 0.450000 0.850192
v -0.650000 0.637750 0.915000
v -0.650000 0.512132 0.897868
v -0.650000 0.559808 0.960000
v -0.650000 0.676711 1.009061
v -0.650000 0.589778 1.032354
v -0.650000 0.690000 1.110000
v -0.650000 0.600000 1.110000
v -0.650000 0.589778 1.187646
v -0.650000 0.676711 1.210939
v -0.650000 0.559808 1.260000
v -0.650000 0.637750 1.305000
v -0.650000 0.512132 1.322132
v -0.650000 0.575772 1.385772
v -0.650000 0.450000 1.369808
v -0.650000 0.377646 1.399778
v -0.650000 0.495000 1.447750
v -0.650000 0.300000 1.410000
v -0.650000 0.200000 1.410000
v -0.650000 0.400000 1.486835
v -0.650000 0.400939 1.486711
v -0.650000 0.200000 1.600000
v -0.650000 0.400000 1.600000
v -0.550000 0.600000 1.354197
v -0.550000 0.637750 1.305000
v -0.550000 0.575772 1.385772
v 0.550000 0.500000 1.600000
v 0.548333 0.495000 1.447750
v 0.550000 0.500000 1.443913
v 0.516980 0.400939 1.486711
v 0.516667 0.400000 1.486835
v 0.516667 0.400000 1.566667
v 0.550000 0.575772 0.834228
v 0.650000 0.637750 0.915000
v 0.650000 0.575772 0.834228
v 0.550000 0.637750 0.915000
v 0.550000 0.600000 0.865803
v 0.550000 0.500000 0.776087
v 0.548333 0.495000 0.772250
v 0.516980 0.400939 0.733289
v -0.550000 0.600000 0.865803
v -0.550000 0.575772 0.834228
v -0.550000 0.637750 0.915000
v -0.750000 0.700000 0.972902
v -0.750000 0.900000 0.872902
v -0.750000 0.700000 0.872902
v -0.750000 0.900000 0.972902
v -0.550000 0.700000 0.872902
v -0.550000 0.700000 0.972902
v -0.275000 0.600000 1.600000
v 0.275000 0.700000 1.600000
v -0.275000 0.700000 1.600000
v 0.275000 0.600000 1.600000
v -0.550000 0.600000 1.600000
v 0.550000 0.600000 1.600000
v -0.550000 0.500000 1.600000
v 0.550000 0.690000 1.110000
v 0.650000 0.676711 1.210939
v 0.650000 0.690000 1.110000
v 0.550000 0.676711 1.210939
v -0.516980 0.400939 0.733289
v -0.548333 0.495000 0.772250
v 0.550000 0.676711 1.009061
v 0.650000 0.676711 1.009061
v 0.650000 0.495000 1.447750
v 0.650000 0.400939 1.486711
v -0.516980 0.400939 1.486711
v -0.548333 0.495000 1.447750
v -0.550000 0.800000 0.972902
v -0.530000 0.900000 0.972902
v -0.550000 0.600000 1.500000
v -0.550000 0.500000 1.443913
v 0.550000 0.637750 1.305000
v 0.650000 0.575772 1.385772
v 0.650000 0.637750 1.305000
v 0.550000 0.575772 1.385772
v 0.550000 0.600000 1.354197
v 0.448290 0.800000 1.200000
v 0.366860 1.207152 1.037139
v -0.366860 1.207152 1.037139
v -0.448290 0.800000 1.200000
v 0.650000 0.495000 0.772250
v 0.650000 0.400939 0.733289
v -0.550000 0.500000 0.776087
v -0.550000 0.690000 1.110000
v -0.550000 0.676711 1.009061
v -0.550000 0.676711 1.210939
v -0.516667 0.400000 1.486835
v -0.516667 0.400000 1.566667
v -0.550000 0.400000 1.700000
v -0.620711 0.400000 1.670711
v 0.550000 0.400000 1.700000
v 0.620711 0.400000 1.670711
v 0.650000 0.400000 1.600000
v 0.650000 0.400000 1.486835
v 0.750000 0.900000 0.972902
v 0.750000 0.700000 0.872902
v 0.750000 0.900000 0.872902
v 0.750000 0.700000 0.972902
v 0.550000 0.700000 0.972902
v 0.550000 0.800000 0.972902
v 0.530000 0.900000 0.972902
v 0.530000 0.900000 0.872902
v 0.550000 0.700000 0.872902
v -0.530000 0.900000 0.872902
v 0.550000 0.600000 1.500000
v 0.650000 0.200000 1.410000
v 0.650000 0.200000 1.600000
v 0.650000 0.300000 1.410000
v 0.650000 0.377646 1.399778
v 0.650000 0.450000 1.369808
v 0.650000 0.512132 1.322132
v 0.650000 0.559808 1.260000
v 0.650000 0.589778 1.187646
v 0.650000 0.600000 1.110000
v 0.650000 0.589778 1.032354
v 0.650000 0.559808 0.960000
v 0.650000 0.512132 0.897868
v 0.650000 0.450000 0.850192
v 0.650000 0.377646 0.820222
v 0.650000 0.300000 0.810000
v 0.650000 0.200000 0.810000
v 0.650000 0.300000 -0.120000
v 0.650000 0.200000 -0.210000
v 0.650000 0.495000 -0.172250
v 0.650000 0.300000 -0.210000
v 0.650000 0.377646 -0.220222
v 0.650000 0.575772 -0.234228
v 0.650000 0.450000 -0.250192
v 0.650000 0.512132 -0.297868
v 0.650000 0.513768 -0.300000
v 0.650000 0.637750 -0.315000
v 0.650000 0.559808 -0.360000
v 0.650000 0.676711 -0.409061
v 0.650000 0.589778 -0.432354
v 0.650000 0.600000 -0.510000
v 0.650000 0.589778 -0.587646
v 0.650000 0.584660 -0.600000
v 0.650000 0.676711 -0.610939
v 0.650000 0.559808 -0.660000
v 0.650000 0.637750 -0.705000
v 0.650000 0.512132 -0.722132
v 0.650000 0.450000 -0.769808
v 0.650000 0.575772 -0.785772
v 0.650000 0.377646 -0.799778
v 0.650000 0.300000 -0.810000
v 0.650000 0.495000 -0.847750
v 0.650000 0.200000 -0.810000
v 0.650000 0.400939 -0.886711
v 0.650000 0.200000 -1.143417
v 0.650000 0.800000 -1.400000
v 0.700000 0.800000 -1.550000
v 0.700000 0.800000 -1.450000
v 0.550000 0.800000 -1.550000
v 0.700000 0.900000 -1.450000
v 0.700000 0.900000 -1.550000
v 0.550000 0.900000 -1.550000
v 0.650000 0.900000 -1.500000
v 0.650000 0.900000 -1.400000
v 0.350000 0.300000 -1.700000
v 0.550000 0.250000 -1.700000
v 0.350000 0.250000 -1.700000
v 0.550000 0.300000 -1.700000
v 0.350000 0.250000 -1.500000
v 0.550000 0.250000 -1.500000
v 0.350000 0.300000 -1.500000
v 0.450000 1.000000 -1.600000
v 0.550000 1.000000 -1.500000
v 0.550000 1.000000 -1.600000
v 0.450000 1.000000 -1.500000
v 0.450000 0.300000 -1.500000
v 0.450000 0.300000 -1.600000
v 0.700000 0.400000 -1.550000
v 0.700000 0.400000 -1.450000
v 0.550000 0.400000 -1.550000
v 0.550000 0.300000 -1.600000
v 0.550000 0.500000 -1.550000
v 0.700000 0.500000 -1.550000
v 0.650000 0.500000 -1.400000
v 0.700000 0.500000 -1.450000
v -0.700000 0.900000 -1.550000
v -0.550000 0.800000 -1.550000
v -0.700000 0.800000 -1.550000
v -0.550000 0.900000 -1.550000
v -0.700000 0.800000 -1.450000
v -0.650000 0.800000 -1.400000
v -0.650000 0.900000 -1.500000
v -0.650000 0.900000 -1.400000
v -0.700000 0.900000 -1.450000
v -0.550000 1.000000 -1.600000
v -0.450000 1.000000 -1.500000
v -0.450000 1.000000 -1.600000
v -0.550000 1.000000 -1.500000
v -0.700000 0.400000 -1.450000
v -0.700000 0.400000 -1.550000
v -0.550000 0.400000 -1.550000
v -0.350000 0.300000 -1.500000
v -0.350000 0.250000 -1.700000
v -0.350000 0.300000 -1.700000
v -0.350000 0.250000 -1.500000
v -0.700000 0.500000 -1.550000
v -0.550000 0.500000 -1.550000
v -0.650000 0.500000 -1.400000
v -0.700000 0.500000 -1.450000
v -0.550000 0.250000 -1.500000
v -0.550000 0.300000 -1.700000
v -0.550000 0.250000 -1.700000
v -0.550000 0.300000 -1.600000
v -0.450000 0.300000 -1.600000
v -0.450000 0.300000 -1.500000
v -0.550000 0.200000 1.700000
v 0.550000 0.200000 1.700000
v -0.620711 0.200000 1.670711
v 0.620711 0.200000 1.670711
v 0.550000 0.200000 -1.243417
v -0.550000 0.200000 -1.243417
v -0.620711 0.200000 -1.214128
v 0.620711 0.200000 -1.214128
v 0.350000 0.200000 1.410000
v 0.350000 0.200000 0.810000
v -0.350000 0.200000 1.410000
v 0.350000 0.200000 -0.210000
v 0.350000 0.200000 -0.810000
v -0.350000 0.200000 -0.210000
v -0.350000 0.200000 0.810000
v -0.350000 0.200000 -0.810000
v 0.125000 0.150000 1.700000
v 0.175000 0.200000 1.750000
v 0.125000 0.150000 1.750000
v 0.175000 0.200000 1.700000
v -0.125000 0.150000 1.700000
v -0.125000 0.150000 1.750000
v -0.175000 0.200000 1.700000
v -0.175000 0.200000 1.750000
v 0.175000 0.275000 1.750000
v 0.125000 0.325000 1.700000
v 0.125000 0.325000 1.750000
v 0.175000 0.275000 1.700000
v -0.175000 0.275000 1.700000
v -0.125000 0.325000 1.700000
v -0.125000 0.325000 1.750000
v -0.175000 0.275000 1.750000
v -0.125000 0.125000 -1.243418
v -0.175000 0.175000 -1.293417
v -0.125000 0.125000 -1.293417
v -0.175000 0.175000 -1.243418
v 0.125000 0.125000 -1.243418
v 0.125000 0.125000 -1.293417
v 0.175000 0.175000 -1.243418
v 0.175000 0.175000 -1.293417
v -0.175000 0.250000 -1.293417
v -0.125000 0.300000 -1.243418
v -0.125000 0.300000 -1.293417
v -0.175000 0.250000 -1.243418
v 0.175000 0.250000 -1.243418
v 0.125000 0.300000 -1.243418
v 0.125000 0.300000 -1.293417
v 0.175000 0.250000 -1.293417
v 0.350000 0.559808 1.260000
v 0.350000 0.589778 1.187646
v 0.350000 0.450000 -0.250192
v 0.350000 0.512132 -0.297868
v 0.350000 0.559808 -0.360000
v 0.350000 0.589778 -0.432354
v 0.350000 0.377646 -0.799778
v 0.350000 0.450000 -0.769808
v 0.350000 0.300000 0.810000
v 0.350000 0.600000 -0.510000
v 0.350000 0.589778 -0.587646
v 0.350000 0.559808 -0.660000
v 0.350000 0.512132 -0.722132
v 0.350000 0.377646 0.820222
v 0.350000 0.450000 0.850192
v 0.350000 0.300000 1.410000
v 0.350000 0.377646 1.399778
v -0.350000 0.300000 -0.210000
v 0.350000 0.512132 1.322132
v 0.350000 0.600000 1.110000
v 0.350000 0.450000 1.369808
v 0.350000 0.589778 1.032354
v 0.350000 0.559808 0.960000
v 0.350000 0.377646 -0.220222
v 0.350000 0.300000 -0.210000
v 0.350000 0.300000 -0.810000
v 0.350000 0.512132 0.897868
v -0.350000 0.300000 0.810000
v -0.350000 0.589778 1.032354
v -0.350000 0.600000 1.110000
v -0.350000 0.300000 1.410000
v -0.350000 0.377646 1.399778
v -0.350000 0.377646 0.820222
v -0.350000 0.450000 0.850192
v -0.350000 0.512132 0.897868
v -0.350000 0.559808 0.960000
v -0.350000 0.589778 1.187646
v -0.350000 0.559808 1.260000
v -0.350000 0.512132 1.322132
v -0.350000 0.450000 1.369808
v -0.350000 0.512132 -0.297868
v -0.350000 0.450000 -0.250192
v -0.350000 0.559808 -0.660000
v -0.350000 0.589778 -0.587646
v -0.350000 0.512132 -0.722132
v -0.350000 0.450000 -0.769808
v -0.350000 0.600000 -0.510000
v -0.350000 0.589778 -0.432354
v -0.350000 0.377646 -0.799778
v -0.350000 0.300000 -0.810000
v -0.350000 0.559808 -0.360000
v -0.350000 0.377646 -0.220222
v -0.550000 0.800000 0.872902
v 0.550000 0.800000 0.872902
v 0.550000 0.725000 1.500000
v 0.550000 0.700000 1.600000
v -0.550000 0.700000 1.600000
v -0.550000 0.725000 1.500000
v -0.550000 0.725000 1.500000
v -0.550000 0.637750 1.305000
v -0.550000 0.676711 1.210939
v -0.550000 0.800000 1.200000
v -0.550000 0.690000 1.110000
v -0.550000 0.676711 1.009061
v -0.550000 0.800000 0.972902
v -0.550000 0.700000 0.972902
v -0.550000 0.637750 0.915000
v -0.550000 0.700000 0.872902
v -0.550000 0.600000 0.865803
v -0.550000 0.800000 0.872902
v -0.550000 0.600000 0.546921
v -0.550000 0.800000 0.546921
v 0.550000 0.700000 0.972902
v 0.550000 0.800000 0.972902
v 0.550000 0.676711 1.009061
v 0.550000 0.690000 1.110000
v 0.550000 0.637750 0.915000
v 0.550000 0.800000 1.200000
v 0.550000 0.700000 0.872902
v 0.550000 0.676711 1.210939
v 0.550000 0.600000 0.865803
v 0.550000 0.800000 0.872902
v 0.550000 0.600000 0.546921
v 0.550000 0.800000 0.546921
v 0.550000 0.725000 1.500000
v 0.550000 0.637750 1.305000
v -0.275000 0.700000 1.600000
v -0.550000 0.600000 1.600000
v -0.275000 0.600000 1.600000
v -0.550000 0.700000 1.600000
v 0.550000 0.700000 1.600000
v 0.275000 0.600000 1.600000
v 0.550000 0.600000 1.600000
v 0.275000 0.700000 1.600000
v 0.550000 0.600000 1.500000
v 0.550000 0.725000 1.500000
v -0.550000 0.725000 1.500000
v -0.550000 0.600000 1.500000
v 0.350000 0.600000 -1.500000
v 0.450000 0.400000 -1.500000
v 0.350000 0.400000 -1.500000
v 0.450000 0.600000 -1.500000
v -0.450000 0.600000 -1.500000
v -0.350000 0.400000 -1.500000
v -0.450000 0.400000 -1.500000
v -0.350000 0.600000 -1.500000
v -0.550000 0.800000 1.092583
v -0.530000 0.900000 0.972902
v -0.550000 0.800000 0.972902
v -0.469612 1.201942 0.931806
v -0.530000 0.900000 0.872902
v -0.469612 1.201942 0.546921
v -0.550000 0.800000 0.872902
v -0.550000 0.800000 0.546921
v 0.366860 1.207152 1.037139
v -0.366860 1.207152 1.037139
v 0.469612 1.201942 0.931806
v 0.550000 0.800000 0.546921
v 0.469612 1.201942 0.546921
v 0.530000 0.900000 0.872902
v 0.550000 0.800000 0.872902
v 0.530000 0.900000 0.972902
v 0.550000 0.800000 1.092583
v 0.550000 0.800000 0.972902
v -0.049097 1.468000 -0.398309
v 0.061270 1.468000 -0.207149
v 0.061270 1.468000 -0.334589
v -0.049097 1.468000 -0.143429
v -0.159463 1.468000 -0.334589
v -0.159463 1.468000 -0.207149
v -0.049097 1.434000 -0.015989
v 0.171636 1.434000 -0.143429
v -0.049097 1.434000 -0.525749
v 0.171636 1.434000 -0.398309
v -0.269829 1.434000 -0.143429
v -0.269829 1.434000 -0.398309
v -0.308904 1.400000 -0.420869
v -0.049097 1.400000 -0.570869
v -0.308904 1.400000 -0.120869
v -0.049097 1.400000 0.029131
v 0.210711 1.400000 -0.120869
v 0.210711 1.400000 -0.420869
v 0.255302 1.488200 -0.502827
v 0.303974 1.488200 -0.418526
v 0.303974 1.488200 -0.474727
v 0.255302 1.488200 -0.390425
v 0.206630 1.488200 -0.474727
v 0.206630 1.488200 -0.418526
v 0.255302 1.444100 -0.334224
v 0.352645 1.444100 -0.390425
v 0.255302 1.444100 -0.559028
v 0.352645 1.444100 -0.502827
v 0.157959 1.444100 -0.390425
v 0.157959 1.444100 -0.502827
v 0.140727 1.400000 -0.512776
v 0.255302 1.400000 -0.578926
v 0.140727 1.400000 -0.380476
v 0.255302 1.400000 -0.314326
v 0.369877 1.400000 -0.380476
v 0.369877 1.400000 -0.512776
v -0.155955 1.488200 -0.535737
v -0.107283 1.488200 -0.451436
v -0.107283 1.488200 -0.507637
v -0.155955 1.488200 -0.423335
v -0.204626 1.488200 -0.507637
v -0.204626 1.488200 -0.451436
v -0.155955 1.444100 -0.367134
v -0.058612 1.444100 -0.423335
v -0.155955 1.444100 -0.591938
v -0.058612 1.444100 -0.535737
v -0.253298 1.444100 -0.423335
v -0.253298 1.444100 -0.535737
v -0.270530 1.400000 -0.545686
v -0.155955 1.400000 -0.611836
v -0.270530 1.400000 -0.413386
v -0.155955 1.400000 -0.347236
v -0.041380 1.400000 -0.413386
v -0.041380 1.400000 -0.545686
v 0.072718 1.540000 -0.128499
v 0.149975 1.540000 0.005313
v 0.149975 1.540000 -0.083895
v 0.072718 1.540000 0.049917
v -0.004538 1.540000 -0.083895
v -0.004538 1.540000 0.005313
v 0.072718 1.470000 0.139125
v 0.227231 1.470000 0.049917
v 0.072718 1.470000 -0.217707
v 0.227231 1.470000 -0.128499
v -0.081795 1.470000 0.049917
v -0.081795 1.470000 -0.128499
v -0.109147 1.400000 -0.144291
v 0.072718 1.400000 -0.249291
v -0.109147 1.400000 0.065709
v 0.072718 1.400000 0.170709
v 0.254584 1.400000 0.065709
v 0.254584 1.400000 -0.144291
v 0.323675 1.488200 0.217799
v 0.372346 1.488200 0.302100
v 0.372346 1.488200 0.245899
v 0.323675 1.488200 0.330201
v 0.275003 1.488200 0.245899
v 0.275003 1.488200 0.302100
v 0.323675 1.444100 0.386402
v 0.421018 1.444100 0.330201
v 0.323675 1.444100 0.161598
v 0.421018 1.444100 0.217799
v 0.226332 1.444100 0.330201
v 0.226332 1.444100 0.217799
v 0.209099 1.400000 0.207850
v 0.323675 1.400000 0.141700
v 0.209099 1.400000 0.340150
v 0.323675 1.400000 0.406300
v 0.438250 1.400000 0.340150
v 0.438250 1.400000 0.207850
v 0.290193 1.468000 -0.082228
v 0.400559 1.468000 0.108932
v 0.400559 1.468000 -0.018508
v 0.290193 1.468000 0.172652
v 0.179826 1.468000 -0.018508
v 0.179826 1.468000 0.108932
v 0.290193 1.434000 0.300092
v 0.510925 1.434000 0.172652
v 0.290193 1.434000 -0.209668
v 0.510925 1.434000 -0.082228
v 0.069460 1.434000 0.172652
v 0.069460 1.434000 -0.082228
v 0.030385 1.400000 -0.104788
v 0.290193 1.400000 -0.254788
v 0.030385 1.400000 0.195212
v 0.290193 1.400000 0.345212
v 0.550000 1.400000 0.195212
v 0.550000 1.400000 -0.104788
v -0.335732 1.540000 -0.501746
v -0.258475 1.540000 -0.367934
v -0.258475 1.540000 -0.457142
v -0.335732 1.540000 -0.323330
v -0.412988 1.540000 -0.457142
v -0.412988 1.540000 -0.367934
v -0.335732 1.470000 -0.234122
v -0.181219 1.470000 -0.323330
v -0.335732 1.470000 -0.590954
v -0.181219 1.470000 -0.501746
v -0.490244 1.470000 -0.323330
v -0.490244 1.470000 -0.501746
v -0.517597 1.400000 -0.517538
v -0.335732 1.400000 -0.622538
v -0.517597 1.400000 -0.307538
v -0.335732 1.400000 -0.202538
v -0.153866 1.400000 -0.307538
v -0.153866 1.400000 -0.517538
v -0.194281 1.600000 -0.055411
v -0.083914 1.600000 0.135749
v -0.083914 1.600000 0.008309
v -0.194281 1.600000 0.199469
v -0.304647 1.600000 0.008309
v -0.304647 1.600000 0.135749
v -0.194281 1.500000 0.326909
v 0.026452 1.500000 0.199469
v -0.194281 1.500000 -0.182851
v 0.026452 1.500000 -0.055411
v -0.415013 1.500000 0.199469
v -0.415013 1.500000 -0.055411
v -0.454088 1.400000 -0.077971
v -0.194281 1.400000 -0.227971
v -0.454088 1.400000 0.222029
v -0.194281 1.400000 0.372029
v 0.065527 1.400000 0.222029
v 0.065527 1.400000 -0.077971
vt 0.468750 0.685181
vt 0.468750 0.607214
vt 0.468750 0.467203
vt 0.468750 0.275000
vt 0.468750 0.455566
vt 0.468750 0.475000
vt 0.468750 0.435181
vt 0.468750 0.420323
vt 0.468750 0.342355
vt 0.468750 0.357214
vt 0.468750 0.290594
vt 0.468750 0.294098
vt 0.468750 0.286144
vt 0.468750 0.280708
vt 0.468750 0.286026
vt 0.468750 0.296301
vt 0.468750 0.281434
vt 0.468750 0.297052
vt 0.468750 0.379501
vt 0.468750 0.372072
vt 0.468750 0.364643
vt 0.468750 0.616525
vt 0.468750 0.575847
vt 0.468750 0.697881
vt 0.468750 0.677542
vt 0.468750 0.620497
vt 0.468750 0.639673
vt 0.468750 0.718220
vt 0.468750 0.725000
vt 0.468750 0.684322
vt 0.468750 0.630085
vt 0.468750 0.589407
vt 0.468750 0.562288
vt 0.468750 0.312288
vt 0.468750 0.548729
vt 0.468750 0.671026
vt 0.468750 0.691667
vt 0.468750 0.650570
vt 0.468750 0.655000
vt 0.468750 0.637583
vt 0.468750 0.616924
vt 0.468750 0.590000
vt 0.468750 0.558647
vt 0.468750 0.525000
vt 0.468750 0.591667
vt 0.468750 0.558333
vt 0.468750 0.421026
vt 0.468750 0.434322
vt 0.468750 0.366525
vt 0.468750 0.298729
vt 0.468750 0.285170
vt 0.468750 0.312416
vt 0.468750 0.325170
vt 0.468750 0.336122
vt 0.468750 0.309257
vt 0.468750 0.319068
vt 0.468750 0.344525
vt 0.468750 0.327493
vt 0.468750 0.333957
vt 0.468750 0.349808
vt 0.468750 0.338021
vt 0.468750 0.351610
vt 0.468750 0.339407
vt 0.468750 0.325847
vt 0.468750 0.352966
vt 0.468750 0.380085
vt 0.468750 0.421733
vt 0.468750 0.370497
vt 0.468750 0.447881
vt 0.468750 0.327714
vt 0.468750 0.337327
vt 0.468750 0.291949
vt 0.468750 0.393644
vt 0.468750 0.332143
vt 0.468750 0.417857
vt 0.343750 0.333957
vt 0.343750 0.338021
vt 0.343750 0.319068
vt 0.343750 0.327493
vt 0.343750 0.309257
vt 0.343750 0.298729
vt 0.343750 0.285170
vt 0.343750 0.339407
vt 0.343750 0.327714
vt 0.343750 0.337327
vt 0.843750 0.380085
vt 0.843750 0.352966
vt 0.843750 0.366525
vt 0.843750 0.298729
vt 0.843750 0.332143
vt 0.843750 0.275000
vt 0.843750 0.417857
vt 0.843750 0.475000
vt 0.843750 0.356356
vt 0.843750 0.400000
vt 0.843750 0.312750
vt 0.843750 0.351711
vt 0.843750 0.365000
vt 0.843750 0.375000
vt 0.218750 0.185000
vt 0.218750 0.025000
vt 0.218750 0.225000
vt 0.343750 0.225000
vt 0.343750 0.025000
vt 0.093750 0.025000
vt 0.093750 0.074122
vt 0.093750 0.222441
vt 0.093750 0.225000
vt 0.468750 0.375000
vn 0.000000 0.707107 0.707107
vn 1.000000 0.000000 0.000000
vn 0.000000 -0.965926 -0.258819
vn 0.000000 0.707107 -0.707107
vn 0.000000 0.866025 -0.500000
vn 0.000000 0.258819 -0.965926
vn 0.000000 0.608761 -0.793353
vn 0.000000 0.965926 -0.258819
vn 0.000000 1.000000 0.000000
vn 0.000000 0.500000 -0.866025
vn 0.000000 0.965926 0.258819
vn 0.000000 0.866025 0.500000
vn 0.000000 -0.866025 -0.500000
vn 0.000000 -0.707107 -0.707107
vn 0.000000 0.500000 0.866025
vn 0.000000 0.000000 -1.000000
vn 0.000000 -0.258819 -0.965926
vn 0.000000 -0.707107 0.707107
vn 0.000000 -0.866025 0.500000
vn 0.000000 -0.500000 -0.866025
vn 0.000000 -0.965926 0.258819
vn 0.000000 -0.258819 0.965926
vn 0.000000 -0.500000 0.866025
vn 0.000000 0.000000 1.000000
vn 0.000000 -1.000000 0.000000
vn 0.000000 0.258819 0.965926
vn -1.000000 0.000000 0.000000
vn 0.000000 0.991445 -0.130526
vn 0.000000 0.978477 0.206356
vn 0.000000 0.914834 0.403830
vn 0.923879 0.000000 0.382683
vn 0.000000 0.831470 -0.555570
vn 0.252725 0.000000 0.967538
vn 0.382683 0.000000 0.923879
vn -0.382683 0.000000 0.923879
vn -0.252725 0.000000 0.967538
vn -0.923879 0.000000 0.382683
vn 0.000000 0.980785 -0.195090
vn 0.707107 0.707107 0.000000
vn 0.447214 0.894427 0.000000
vn -0.707107 0.707107 0.000000
vn -0.447214 0.894427 0.000000
vn -0.980581 0.196116 0.000000
vn 0.980581 0.196116 0.000000
vn 0.000000 0.793353 0.608761
vn 0.948683 -0.316228 0.000000
vn 0.000000 0.793353 -0.608761
vn 0.000000 0.233891 -0.972263
vn 0.000000 0.479903 -0.877321
vn 0.000000 0.233891 0.972263
vn 0.000000 0.479903 0.877321
vn 0.000000 0.130526 -0.991445
vn 0.000000 0.371391 0.928477
vn -0.948683 -0.316228 0.000000
vn 0.000000 0.751840 0.659346
vn 0.000000 0.813241 0.581927
vn 0.000000 0.608761 0.793353
vn 0.000000 -0.316228 0.948683
vn 0.000000 0.923879 -0.382683
vn 0.707107 0.000000 -0.707107
vn -0.707107 0.000000 -0.707107
vn 0.195090 0.000000 0.980785
vn -0.195090 0.000000 0.980785
vn -0.707107 0.000000 0.707107
vn 0.707107 0.000000 0.707107
vn -0.195090 0.000000 -0.980785
vn 0.195090 0.000000 -0.980785
vn 0.923879 0.000000 -0.382683
vn -0.923879 0.000000 -0.382683
vn 0.382683 -0.923879 0.000000
vn 0.923879 -0.382683 0.000000
vn -0.382683 -0.923879 -0.000000
vn -0.923879 -0.382683 -0.000000
vn 0.923879 0.382683 0.000000
vn 0.382683 0.923879 0.000000
vn 0.000000 0.000000 -1.000000
vn -0.382683 0.923879 -0.000000
vn -0.923879 0.382683 -0.000000
vn -0.382683 -0.923879 0.000000
vn -0.923879 -0.382683 0.000000
vn 0.382683 -0.923879 0.000000
vn 0.923879 -0.382683 0.000000
vn -0.923879 0.382683 0.000000
vn -0.382683 0.923879 0.000000
vn 0.382683 0.923879 0.000000
vn 0.923879 0.382683 0.000000
vn 0.000000 -0.065403 0.997859
vn 0.000000 -0.065403 -0.997859
vn 0.000000 -0.793353 -0.608761
vn 0.000000 -0.923879 0.382683
vn -0.000000 0.000000 1.000000
vn 0.000000 0.970143 0.242536
vn -0.756282 0.000000 0.654246
vn 0.756282 0.000000 0.654246
vn 0.147206 0.955679 0.254968
vn 0.240514 0.876705 0.416583
vn 0.240514 0.876705 -0.416583
vn 0.147206 0.955679 -0.254968
vn -0.147206 0.955679 0.254968
vn -0.240514 0.876705 0.416583
vn -0.481028 0.876705 0.000000
vn -0.294411 0.955679 0.000000
vn 0.294411 0.955679 0.000000
vn 0.481028 0.876705 0.000000
vn -0.240514 0.876705 -0.416583
vn -0.147206 0.955679 -0.254968
vn -0.328209 0.754398 -0.568474
vn -0.328209 0.754398 0.568474
vn -0.656417 0.754398 0.000000
vn 0.656417 0.754398 0.000000
vn 0.328209 0.754398 -0.568474
vn 0.328209 0.754398 0.568474
vn 0.335724 0.741052 0.581491
vn 0.425014 0.526738 0.736146
vn 0.425014 0.526738 -0.736146
vn 0.335724 0.741052 -0.581491
vn -0.335724 0.741052 0.581491
vn -0.425014 0.526738 0.736146
vn -0.850028 0.526738 0.000000
vn -0.671448 0.741052 0.000000
vn 0.671448 0.741052 0.000000
vn 0.850028 0.526738 0.000000
vn -0.425014 0.526738 -0.736146
vn -0.335724 0.741052 -0.581491
vn -0.465709 0.363952 -0.806631
vn -0.465709 0.363952 0.806631
vn -0.931418 0.363952 0.000000
vn 0.931418 0.363952 0.000000
vn 0.465709 0.363952 -0.806631
vn 0.465709 0.363952 0.806631
usemtl colormap
f 1/1/1 2/2/1 3/2/1
f 2/2/1 1/1/1 4/1/1
f 5/1/1 6/2/1 7/1/1
f 6/2/1 5/1/1 8/2/1
f 9/3/2 10/4/2 11/4/2
f 10/4/2 9/3/2 12/5/2
f 12/5/2 9/3/2 13/6/2
f 12/5/2 13/6/2 7/7/2
f 12/5/2 7/7/2 14/8/2
f 14/8/2 7/7/2 15/9/2
f 15/9/2 7/7/2 6/10/2
f 16/8/3 12/5/3 14/8/3
f 12/5/3 16/8/3 17/5/3
f 18/11/4 19/12/5 20/11/4
f 19/12/5 18/11/4 21/12/5
f 22/13/6 11/4/6 23/4/6
f 11/4/6 22/13/6 24/13/6
f 11/4/6 24/13/6 9/3/7
f 9/3/7 24/13/6 25/3/7
f 26/14/2 27/4/2 28/4/2
f 27/4/2 26/14/2 29/15/2
f 27/4/2 29/15/2 30/4/2
f 30/4/2 29/15/2 20/11/2
f 30/4/2 20/11/2 31/4/2
f 31/4/2 20/11/2 19/12/2
f 31/4/2 19/12/2 23/4/2
f 23/4/2 32/4/2 31/4/2
f 23/4/2 19/12/2 22/13/2
f 22/13/2 19/12/2 33/16/2
f 22/13/2 33/16/2 34/17/2
f 32/4/2 23/4/2 35/4/2
f 34/17/2 33/16/2 36/18/2
f 32/4/2 35/4/2 37/4/2
f 34/17/2 36/18/2 38/16/2
f 37/4/2 35/4/2 39/4/2
f 39/4/2 35/4/2 40/4/2
f 40/4/2 35/4/2 41/4/2
f 41/4/2 35/4/2 34/17/2
f 34/17/2 38/16/2 42/12/2
f 34/17/2 42/12/2 43/11/2
f 41/4/2 34/17/2 44/4/2
f 44/4/2 34/17/2 43/11/2
f 44/4/2 43/11/2 45/15/2
f 44/4/2 45/15/2 46/4/2
f 46/4/2 45/15/2 47/14/2
f 46/4/2 47/14/2 48/4/2
f 48/4/2 47/14/2 49/4/2
f 50/16/8 36/18/9 33/16/8
f 36/18/9 50/16/8 51/18/9
f 18/11/4 29/15/10 52/15/10
f 29/15/10 18/11/4 20/11/4
f 51/18/9 38/16/11 36/18/9
f 38/16/11 51/18/9 53/16/11
f 54/12/12 43/11/1 42/12/12
f 43/11/1 54/12/12 55/11/1
f 53/16/11 42/12/12 38/16/11
f 42/12/12 53/16/11 54/12/12
f 21/12/5 33/16/8 19/12/5
f 33/16/8 21/12/5 50/16/8
f 56/4/13 31/4/14 32/4/13
f 31/4/14 56/4/13 57/4/14
f 43/11/1 58/15/15 45/15/15
f 58/15/15 43/11/1 55/11/1
f 52/15/10 26/14/6 59/14/6
f 26/14/6 52/15/10 29/15/10
f 60/4/16 27/4/17 61/4/17
f 27/4/17 60/4/16 28/4/16
f 62/4/18 41/4/19 44/4/18
f 41/4/19 62/4/18 63/4/19
f 61/4/17 30/4/20 64/4/20
f 30/4/20 61/4/17 27/4/17
f 63/4/19 40/4/21 41/4/19
f 40/4/21 63/4/19 65/4/21
f 48/4/22 66/4/23 46/4/23
f 66/4/23 48/4/22 67/4/22
f 46/4/23 62/4/18 44/4/18
f 62/4/18 46/4/23 66/4/23
f 49/4/24 67/4/22 48/4/22
f 67/4/22 49/4/24 68/4/24
f 64/4/20 31/4/14 57/4/14
f 31/4/14 64/4/20 30/4/20
f 69/4/25 37/4/3 39/4/25
f 37/4/3 69/4/25 70/4/3
f 45/15/15 71/14/26 47/14/26
f 71/14/26 45/15/15 58/15/15
f 72/17/22 12/5/22 17/5/22
f 72/17/22 10/4/22 12/5/22
f 10/4/22 72/17/22 35/4/22
f 34/17/22 35/4/22 72/17/22
f 59/14/6 28/4/16 60/4/16
f 28/4/16 59/14/6 26/14/6
f 65/4/21 39/4/25 40/4/21
f 39/4/25 65/4/21 69/4/25
f 70/4/3 32/4/13 37/4/3
f 32/4/13 70/4/3 56/4/13
f 47/14/26 68/4/24 49/4/24
f 68/4/24 47/14/26 71/14/26
f 35/4/3 11/4/3 10/4/3
f 11/4/3 35/4/3 23/4/3
f 73/19/4 74/20/4 75/20/4
f 74/20/4 73/19/4 76/19/4
f 77/21/18 78/10/18 79/10/18
f 78/10/18 77/21/18 80/21/18
f 22/13/11 72/17/11 24/13/11
f 72/17/11 22/13/11 34/17/11
f 61/4/27 59/14/27 60/4/27
f 59/14/27 61/4/27 52/15/27
f 52/15/27 61/4/27 64/4/27
f 52/15/27 64/4/27 18/11/27
f 18/11/27 64/4/27 57/4/27
f 18/11/27 57/4/27 21/12/27
f 21/12/27 57/4/27 56/4/27
f 21/12/27 56/4/27 50/16/27
f 50/16/27 56/4/27 70/4/27
f 50/16/27 70/4/27 51/18/27
f 51/18/27 70/4/27 69/4/27
f 51/18/27 69/4/27 53/16/27
f 53/16/27 69/4/27 65/4/27
f 53/16/27 65/4/27 54/12/27
f 54/12/27 65/4/27 63/4/27
f 54/12/27 63/4/27 55/11/27
f 55/11/27 63/4/27 62/4/27
f 55/11/27 62/4/27 58/15/27
f 58/15/27 62/4/27 66/4/27
f 58/15/27 66/4/27 71/14/27
f 71/14/27 66/4/27 67/4/27
f 71/14/27 67/4/27 68/4/27
f 15/9/18 8/10/18 81/9/18
f 8/10/18 15/9/18 6/10/18
f 81/9/14 79/10/14 15/9/14
f 74/20/14 15/9/14 79/10/14
f 78/10/14 74/20/14 79/10/14
f 16/8/14 15/9/14 74/20/14
f 15/9/14 16/8/14 14/8/14
f 74/20/14 78/10/14 75/20/14
f 78/10/14 82/9/14 75/20/14
f 82/9/14 78/10/14 83/9/14
f 75/20/14 82/9/14 84/8/14
f 84/8/14 82/9/14 85/8/14
f 86/18/9 87/16/11 88/18/9
f 87/16/11 86/18/9 89/16/11
f 90/4/20 91/4/14 92/4/14
f 91/4/14 90/4/20 93/4/20
f 94/11/4 95/12/5 96/11/4
f 95/12/5 94/11/4 97/12/5
f 98/15/10 99/14/6 100/14/6
f 99/14/6 98/15/10 101/15/10
f 102/4/23 103/4/18 104/4/18
f 103/4/18 102/4/23 105/4/23
f 106/15/15 107/14/26 108/14/26
f 107/14/26 106/15/15 109/15/15
f 110/4/13 91/4/14 111/4/13
f 91/4/14 110/4/13 92/4/14
f 112/13/11 113/17/11 114/13/11
f 113/17/11 112/13/11 115/17/11
f 116/4/24 117/4/22 118/4/22
f 117/4/22 116/4/24 119/4/24
f 118/4/22 105/4/23 102/4/23
f 105/4/23 118/4/22 117/4/22
f 120/11/1 109/15/15 106/15/15
f 109/15/15 120/11/1 121/11/1
f 122/4/19 123/4/21 124/4/19
f 123/4/21 122/4/19 125/4/21
f 126/4/3 127/4/3 128/4/3
f 127/4/3 126/4/3 129/4/3
f 130/4/25 131/4/3 132/4/25
f 131/4/3 130/4/25 133/4/3
f 134/4/17 93/4/20 90/4/20
f 93/4/20 134/4/17 135/4/17
f 103/4/18 124/4/19 104/4/18
f 124/4/19 103/4/18 122/4/19
f 113/17/22 126/4/22 128/4/22
f 126/4/22 113/17/22 115/17/22
f 126/4/22 115/17/22 136/5/22
f 136/5/22 115/17/22 137/5/22
f 100/14/6 138/4/16 139/4/16
f 138/4/16 100/14/6 99/14/6
f 140/16/8 88/18/9 141/16/8
f 88/18/9 140/16/8 86/18/9
f 142/12/12 120/11/1 143/12/12
f 120/11/1 142/12/12 121/11/1
f 94/11/4 101/15/10 98/15/10
f 101/15/10 94/11/4 96/11/4
f 97/12/5 141/16/8 95/12/5
f 141/16/8 97/12/5 140/16/8
f 125/4/21 132/4/25 123/4/21
f 132/4/25 125/4/21 130/4/25
f 108/14/26 119/4/24 116/4/24
f 119/4/24 108/14/26 107/14/26
f 139/4/16 135/4/17 134/4/17
f 135/4/17 139/4/16 138/4/16
f 85/8/3 137/5/3 84/8/3
f 137/5/3 85/8/3 136/5/3
f 107/14/27 117/4/27 119/4/27
f 107/14/27 105/4/27 117/4/27
f 109/15/27 105/4/27 107/14/27
f 109/15/27 103/4/27 105/4/27
f 121/11/27 103/4/27 109/15/27
f 113/17/27 103/4/27 121/11/27
f 142/12/27 113/17/27 121/11/27
f 89/16/27 113/17/27 142/12/27
f 86/18/27 113/17/27 89/16/27
f 113/17/27 122/4/27 103/4/27
f 140/16/27 113/17/27 86/18/27
f 140/16/27 114/13/27 113/17/27
f 128/4/27 122/4/27 113/17/27
f 97/12/27 114/13/27 140/16/27
f 128/4/27 125/4/27 122/4/27
f 128/4/27 130/4/27 125/4/27
f 128/4/27 133/4/27 130/4/27
f 128/4/27 110/4/27 133/4/27
f 127/4/27 110/4/27 128/4/27
f 97/12/27 127/4/27 114/13/27
f 110/4/27 127/4/27 92/4/27
f 97/12/27 92/4/27 127/4/27
f 94/11/27 92/4/27 97/12/27
f 94/11/27 90/4/27 92/4/27
f 98/15/27 90/4/27 94/11/27
f 98/15/27 134/4/27 90/4/27
f 100/14/27 134/4/27 98/15/27
f 134/4/27 100/14/27 139/4/27
f 89/16/11 143/12/12 87/16/11
f 143/12/12 89/16/11 142/12/12
f 144/6/28 1/7/11 145/6/28
f 1/7/11 144/6/28 4/7/11
f 3/10/18 82/9/18 83/9/18
f 82/9/18 3/10/18 2/10/18
f 133/4/3 111/4/13 131/4/3
f 111/4/13 133/4/3 110/4/13
f 99/14/2 135/4/2 138/4/2
f 135/4/2 99/14/2 101/15/2
f 135/4/2 101/15/2 93/4/2
f 93/4/2 101/15/2 96/11/2
f 93/4/2 96/11/2 91/4/2
f 91/4/2 96/11/2 95/12/2
f 91/4/2 95/12/2 111/4/2
f 111/4/2 95/12/2 141/16/2
f 111/4/2 141/16/2 131/4/2
f 131/4/2 141/16/2 88/18/2
f 131/4/2 88/18/2 132/4/2
f 132/4/2 88/18/2 87/16/2
f 132/4/2 87/16/2 123/4/2
f 123/4/2 87/16/2 143/12/2
f 123/4/2 143/12/2 124/4/2
f 124/4/2 143/12/2 120/11/2
f 124/4/2 120/11/2 104/4/2
f 104/4/2 120/11/2 106/15/2
f 104/4/2 106/15/2 102/4/2
f 102/4/2 106/15/2 108/14/2
f 102/4/2 108/14/2 118/4/2
f 118/4/2 108/14/2 116/4/2
f 73/19/1 77/21/1 76/19/1
f 77/21/1 73/19/1 80/21/1
f 81/9/27 77/21/27 79/10/27
f 8/10/27 77/21/27 81/9/27
f 8/10/27 76/19/27 77/21/27
f 5/7/27 76/19/27 8/10/27
f 5/7/27 74/20/27 76/19/27
f 5/7/27 16/8/27 74/20/27
f 5/7/27 17/5/27 16/8/27
f 146/6/27 17/5/27 5/7/27
f 25/3/27 17/5/27 146/6/27
f 25/3/27 72/17/27 17/5/27
f 72/17/27 25/3/27 24/13/27
f 146/6/28 7/7/11 13/6/28
f 7/7/11 146/6/28 5/7/11
f 25/3/7 13/6/28 9/3/7
f 13/6/28 25/3/7 146/6/28
f 112/13/6 147/3/7 148/3/7
f 112/13/6 129/4/6 147/3/7
f 129/4/6 112/13/6 127/4/6
f 114/13/6 127/4/6 112/13/6
f 147/3/7 145/6/28 148/3/7
f 145/6/28 147/3/7 144/6/28
f 126/4/27 147/3/27 129/4/27
f 147/3/27 126/4/27 136/5/27
f 147/3/27 136/5/27 144/6/27
f 144/6/27 136/5/27 4/7/27
f 4/7/27 136/5/27 85/8/27
f 4/7/27 85/8/27 82/9/27
f 4/7/27 82/9/27 2/10/27
f 148/3/2 115/17/2 112/13/2
f 115/17/2 148/3/2 137/5/2
f 137/5/2 148/3/2 145/6/2
f 137/5/2 145/6/2 1/7/2
f 137/5/2 1/7/2 84/8/2
f 84/8/2 1/7/2 75/20/2
f 75/20/2 1/7/2 73/19/2
f 73/19/2 1/7/2 3/10/2
f 73/19/2 3/10/2 80/21/2
f 80/21/2 3/10/2 83/9/2
f 83/9/2 78/10/2 80/21/2
f 149/22/16 150/23/16 151/23/16
f 150/23/16 149/22/16 152/22/16
f 153/24/9 154/24/29 155/24/9
f 154/24/29 153/24/9 156/24/29
f 157/25/2 158/26/2 159/27/2
f 158/26/2 157/25/2 160/24/2
f 160/24/2 157/25/2 161/28/2
f 160/24/2 161/28/2 162/29/2
f 160/24/2 162/29/2 163/29/2
f 160/24/2 163/29/2 164/24/2
f 163/29/16 165/24/16 164/24/16
f 165/24/16 163/29/16 166/29/16
f 159/27/1 167/26/1 168/27/1
f 167/26/1 159/27/1 158/26/1
f 169/30/27 153/24/27 170/30/27
f 153/24/27 169/30/27 156/24/27
f 156/24/29 171/30/30 154/24/29
f 171/30/30 156/24/29 169/30/30
f 154/24/2 172/30/2 155/24/2
f 172/30/2 154/24/2 171/30/2
f 167/26/27 173/25/27 168/27/27
f 173/25/27 167/26/27 174/24/27
f 173/25/27 174/24/27 175/28/27
f 175/28/27 174/24/27 176/29/27
f 176/29/27 174/24/27 166/29/27
f 166/29/27 174/24/27 165/24/27
f 177/28/2 178/25/31 179/25/2
f 178/25/31 177/28/2 180/29/2
f 178/25/31 180/29/2 181/29/31
f 182/25/2 183/31/2 184/31/2
f 183/31/2 182/25/2 185/25/2
f 186/31/27 187/25/27 188/31/27
f 187/25/27 186/31/27 189/25/27
f 190/22/16 191/23/16 192/23/16
f 191/23/16 190/22/16 193/22/16
f 194/31/16 195/32/16 196/32/16
f 195/32/16 194/31/16 197/32/16
f 197/32/16 194/31/16 198/32/16
f 198/32/16 194/31/16 199/31/16
f 200/33/16 195/32/16 197/32/16
f 195/32/16 200/33/16 201/33/16
f 202/33/25 203/34/25 204/33/25
f 203/34/25 202/33/25 205/34/25
f 205/34/25 202/33/25 206/34/25
f 206/34/25 202/33/25 207/33/25
f 206/34/25 207/33/25 208/33/25
f 206/34/25 208/33/25 209/33/25
f 209/33/25 208/33/25 200/33/25
f 200/33/25 208/33/25 201/33/25
f 201/33/25 208/33/25 210/33/25
f 210/33/25 208/33/25 211/34/25
f 211/34/25 208/33/25 212/33/25
f 211/34/25 212/33/25 213/34/25
f 213/34/25 212/33/25 214/33/25
f 213/34/25 214/33/25 215/33/25
f 187/25/4 216/31/4 188/31/4
f 216/31/4 187/25/4 159/27/4
f 216/31/4 159/27/4 194/31/4
f 194/31/4 159/27/4 199/31/4
f 199/31/4 159/27/4 217/31/4
f 217/31/4 159/27/4 184/31/4
f 168/27/4 184/31/4 159/27/4
f 184/31/4 168/27/4 182/25/4
f 182/25/4 168/27/4 173/25/4
f 175/28/32 182/25/4 173/25/4
f 177/28/32 182/25/4 175/28/32
f 182/25/4 177/28/32 179/25/4
f 159/27/4 187/25/4 157/25/4
f 187/25/4 218/28/32 157/25/4
f 157/25/4 218/28/32 161/28/32
f 218/28/32 187/25/4 219/25/4
f 220/35/24 221/23/24 222/35/24
f 221/23/24 220/35/24 223/31/24
f 221/23/24 223/31/24 224/32/24
f 224/32/24 223/31/24 225/22/24
f 225/22/24 223/31/24 183/31/24
f 225/22/24 183/31/24 226/36/24
f 226/36/24 183/31/24 185/25/33
f 226/36/24 185/25/33 172/30/24
f 172/30/24 185/25/33 227/29/34
f 172/30/24 227/29/34 155/24/24
f 228/29/35 155/24/24 227/29/34
f 228/29/35 153/24/24 155/24/24
f 228/29/35 170/30/24 153/24/24
f 189/25/36 170/30/24 228/29/35
f 189/25/36 229/36/24 170/30/24
f 186/31/24 229/36/24 189/25/36
f 229/36/24 186/31/24 230/22/24
f 231/31/24 230/22/24 186/31/24
f 231/31/24 232/32/24 230/22/24
f 231/31/24 233/23/24 232/32/24
f 234/35/24 233/23/24 231/31/24
f 233/23/24 234/35/24 235/35/24
f 227/29/34 178/25/31 181/29/31
f 178/25/31 227/29/34 185/25/33
f 185/25/25 179/25/25 178/25/25
f 179/25/25 185/25/25 182/25/25
f 236/25/37 218/28/27 219/25/27
f 218/28/27 236/25/37 237/29/27
f 237/29/27 236/25/37 238/29/37
f 189/25/36 238/29/37 236/25/37
f 238/29/37 189/25/36 228/29/35
f 237/29/38 163/29/9 162/29/38
f 163/29/9 237/29/38 228/29/9
f 228/29/9 237/29/38 238/29/9
f 228/29/9 166/29/9 163/29/9
f 227/29/9 166/29/9 228/29/9
f 227/29/9 176/29/38 166/29/9
f 181/29/9 176/29/38 227/29/9
f 176/29/38 181/29/9 180/29/38
f 236/25/25 187/25/25 189/25/25
f 187/25/25 236/25/25 219/25/25
f 175/28/32 180/29/38 177/28/32
f 180/29/38 175/28/32 176/29/38
f 218/28/32 162/29/38 161/28/32
f 162/29/38 218/28/32 237/29/38
f 239/29/39 240/37/2 241/29/40
f 240/37/2 239/29/39 242/38/2
f 242/38/2 239/29/39 243/39/2
f 243/39/2 239/29/39 244/38/2
f 244/38/2 239/29/39 245/40/2
f 245/40/2 239/29/39 246/41/2
f 246/41/2 239/29/39 247/42/2
f 247/42/2 239/29/39 248/43/2
f 248/43/2 239/29/39 249/44/2
f 249/44/2 239/29/39 250/44/2
f 240/37/2 242/38/2 251/45/2
f 191/45/2 240/37/2 251/45/2
f 240/37/2 191/45/2 252/37/2
f 251/45/2 242/38/2 253/46/2
f 253/46/2 242/38/2 254/40/2
f 253/46/2 254/40/2 204/46/2
f 204/46/2 254/40/2 255/41/2
f 204/46/2 255/41/2 256/42/2
f 204/46/2 256/42/2 257/43/2
f 204/46/2 257/43/2 258/46/2
f 259/29/9 260/29/9 261/29/9
f 260/29/9 259/29/9 262/29/41
f 262/29/41 259/29/9 263/29/42
f 214/46/27 264/45/27 265/46/27
f 264/45/27 214/46/27 266/37/27
f 267/37/27 264/45/27 266/37/27
f 264/45/27 267/37/27 151/45/27
f 266/37/27 214/46/27 263/29/42
f 263/29/42 214/46/27 268/40/27
f 263/29/42 268/40/27 269/38/27
f 263/29/42 269/38/27 262/29/41
f 262/29/41 269/38/27 270/39/27
f 268/40/27 214/46/27 271/41/27
f 271/41/27 214/46/27 272/42/27
f 272/42/27 214/46/27 273/43/27
f 273/43/27 214/46/27 274/46/27
f 262/29/41 270/39/27 275/38/27
f 262/29/41 275/38/27 276/40/27
f 262/29/41 276/40/27 277/41/27
f 262/29/41 277/41/27 278/42/27
f 262/29/41 278/42/27 279/43/27
f 262/29/41 279/43/27 280/44/27
f 262/29/41 280/44/27 281/44/27
f 282/29/9 241/29/40 283/29/9
f 241/29/40 282/29/9 239/29/39
f 239/29/39 282/29/9 284/29/9
f 285/47/43 170/48/43 229/47/43
f 170/48/43 285/47/43 169/48/43
f 169/48/43 285/47/43 286/49/43
f 169/48/43 286/49/43 287/49/43
f 171/48/44 226/47/44 172/48/44
f 226/47/44 171/48/44 288/47/44
f 288/47/44 171/48/44 289/49/44
f 289/49/44 171/48/44 290/49/44
f 234/50/9 291/50/9 235/50/9
f 291/50/9 234/50/9 292/50/9
f 222/50/9 293/50/9 220/50/9
f 293/50/9 222/50/9 294/50/9
f 295/51/27 214/34/27 296/51/27
f 214/34/27 295/51/27 274/34/27
f 274/34/27 295/51/27 297/52/27
f 297/52/27 295/51/27 298/53/27
f 298/53/27 295/51/27 299/50/27
f 298/53/27 299/50/27 300/54/27
f 300/54/27 299/50/27 301/55/27
f 300/54/27 301/55/27 302/56/27
f 300/54/27 302/56/27 303/57/27
f 303/57/27 302/56/27 304/58/27
f 303/57/27 304/58/27 305/59/27
f 303/57/27 305/59/27 306/60/27
f 306/60/27 305/59/27 307/61/27
f 306/60/27 307/61/27 270/62/27
f 270/62/27 307/61/27 308/63/27
f 270/62/27 308/63/27 309/61/27
f 270/62/27 309/61/27 310/60/27
f 310/60/27 309/61/27 311/59/27
f 310/60/27 311/59/27 312/57/27
f 312/57/27 311/59/27 313/58/27
f 312/57/27 313/58/27 314/54/27
f 314/54/27 313/58/27 315/56/27
f 314/54/27 315/56/27 316/55/27
f 314/54/27 316/55/27 317/53/27
f 317/53/27 316/55/27 318/50/27
f 317/53/27 318/50/27 319/51/27
f 317/53/27 319/51/27 320/50/27
f 317/53/27 320/50/27 279/52/27
f 320/50/27 319/51/27 321/51/27
f 320/50/27 321/51/27 234/50/27
f 234/50/27 321/51/27 292/50/27
f 292/50/27 321/51/27 322/52/27
f 322/52/27 321/51/27 323/53/27
f 323/53/27 321/51/27 324/50/27
f 323/53/27 324/50/27 325/54/27
f 325/54/27 324/50/27 326/55/27
f 325/54/27 326/55/27 327/56/27
f 325/54/27 327/56/27 328/57/27
f 328/57/27 327/56/27 329/58/27
f 328/57/27 329/58/27 330/59/27
f 328/57/27 330/59/27 331/60/27
f 331/60/27 330/59/27 332/61/27
f 331/60/27 332/61/27 333/62/27
f 333/62/27 332/61/27 334/63/27
f 333/62/27 334/63/27 335/61/27
f 333/62/27 335/61/27 336/60/27
f 336/60/27 335/61/27 337/59/27
f 336/60/27 337/59/27 338/57/27
f 338/57/27 337/59/27 339/58/27
f 338/57/27 339/58/27 340/54/27
f 340/54/27 339/58/27 341/56/27
f 340/54/27 341/56/27 342/55/27
f 340/54/27 342/55/27 343/53/27
f 343/53/27 342/55/27 344/50/27
f 343/53/27 344/50/27 345/51/27
f 343/53/27 345/51/27 346/34/27
f 343/53/27 346/34/27 347/52/27
f 346/34/27 345/51/27 348/51/27
f 346/34/27 348/51/27 349/34/27
f 338/57/12 350/63/45 351/57/12
f 350/63/45 338/57/12 352/54/1
f 352/54/1 338/57/12 340/54/1
f 353/64/46 354/53/46 355/64/46
f 354/53/46 353/64/46 356/52/46
f 356/52/46 353/64/46 357/34/46
f 357/34/46 353/64/46 358/34/46
f 359/54/4 360/57/5 361/54/4
f 360/57/5 359/54/4 362/57/5
f 362/57/5 359/54/4 363/63/47
f 364/64/46 222/50/46 221/64/46
f 222/50/46 364/64/46 365/53/46
f 222/50/46 365/53/46 366/52/46
f 222/50/46 366/52/46 294/50/46
f 325/54/4 367/63/47 368/54/4
f 367/63/47 325/54/4 369/57/5
f 369/57/5 325/54/4 328/57/5
f 370/65/27 371/66/41 372/65/27
f 371/66/41 370/65/27 373/66/41
f 370/65/25 374/65/25 375/65/25
f 374/65/25 370/65/25 372/65/25
f 376/63/24 377/65/24 378/65/24
f 377/65/24 376/63/24 379/63/24
f 380/63/24 379/63/24 376/63/24
f 380/63/24 381/63/24 379/63/24
f 382/64/24 381/63/24 380/63/24
f 381/63/24 382/64/24 353/64/24
f 383/62/9 384/60/11 385/62/9
f 384/60/11 383/62/9 386/60/11
f 323/53/10 387/52/48 322/52/6
f 387/52/48 323/53/10 388/53/49
f 389/60/8 385/62/9 390/60/8
f 385/62/9 389/60/8 383/62/9
f 391/53/15 356/52/50 392/52/26
f 356/52/50 391/53/15 354/53/51
f 393/52/50 343/53/15 347/52/26
f 343/53/15 393/52/50 394/53/51
f 395/49/24 370/65/24 375/65/24
f 370/65/24 395/49/24 373/66/24
f 373/66/24 395/49/24 396/66/24
f 322/52/6 291/50/52 292/50/52
f 291/50/52 322/52/6 387/52/48
f 352/54/27 397/63/27 350/63/27
f 397/63/27 352/54/27 398/64/27
f 397/63/27 398/64/27 382/64/27
f 397/63/27 382/64/27 380/63/27
f 399/57/12 400/54/1 401/57/12
f 400/54/1 399/57/12 402/54/1
f 402/54/1 399/57/12 403/63/45
f 171/48/53 404/49/53 290/49/53
f 404/49/53 171/48/53 405/67/53
f 405/67/53 171/48/53 406/67/53
f 169/48/53 406/67/53 171/48/53
f 287/49/53 406/67/53 169/48/53
f 406/67/53 287/49/53 407/49/53
f 362/57/5 390/60/8 360/57/5
f 390/60/8 362/57/5 389/60/8
f 366/52/48 408/53/10 409/52/6
f 408/53/10 366/52/48 365/53/49
f 291/50/54 233/64/54 235/50/54
f 233/64/54 291/50/54 387/52/54
f 233/64/54 387/52/54 388/53/54
f 233/64/54 388/53/54 410/64/54
f 331/60/8 411/62/9 412/60/8
f 411/62/9 331/60/8 333/62/9
f 336/60/11 351/57/12 413/60/11
f 351/57/12 336/60/11 338/57/12
f 333/62/9 413/60/11 411/62/9
f 413/60/11 333/62/9 336/60/11
f 393/52/50 346/34/55 414/34/56
f 346/34/55 393/52/50 347/52/26
f 328/57/5 412/60/8 369/57/5
f 412/60/8 328/57/5 331/60/8
f 346/34/55 415/34/9 414/34/56
f 415/34/9 346/34/55 416/34/9
f 416/34/9 358/34/9 415/34/9
f 416/34/9 346/34/55 417/34/9
f 417/34/9 346/34/55 349/34/9
f 418/34/9 358/34/9 416/34/9
f 418/34/9 357/34/56 358/34/9
f 419/34/9 357/34/56 418/34/9
f 420/34/9 357/34/56 419/34/9
f 357/34/56 420/34/9 421/34/55
f 392/52/26 357/34/56 421/34/55
f 357/34/56 392/52/26 356/52/50
f 394/53/54 382/64/54 398/64/54
f 382/64/54 394/53/54 393/52/54
f 382/64/54 393/52/54 414/34/54
f 382/64/54 414/34/54 415/34/54
f 391/53/15 355/64/57 354/53/51
f 355/64/57 391/53/15 400/54/1
f 355/64/57 400/54/1 402/54/1
f 323/53/10 410/64/7 388/53/49
f 410/64/7 323/53/10 325/54/4
f 410/64/7 325/54/4 368/54/4
f 386/60/11 401/57/12 384/60/11
f 401/57/12 386/60/11 399/57/12
f 398/64/57 343/53/15 394/53/51
f 343/53/15 398/64/57 340/54/1
f 340/54/1 398/64/57 352/54/1
f 422/66/39 423/65/2 424/66/39
f 423/65/2 422/66/39 425/65/2
f 353/64/58 415/34/58 358/34/58
f 415/34/58 353/64/58 382/64/58
f 364/64/7 408/53/10 365/53/49
f 408/53/10 364/64/7 361/54/4
f 361/54/4 364/64/7 359/54/4
f 366/52/48 293/50/52 294/50/52
f 293/50/52 366/52/48 409/52/6
f 422/66/24 426/65/24 425/65/24
f 426/65/24 422/66/24 427/49/24
f 427/49/24 422/66/24 428/66/24
f 429/66/9 422/66/39 424/66/39
f 422/66/39 429/66/9 428/66/9
f 426/65/25 423/65/25 425/65/25
f 423/65/25 426/65/25 430/65/25
f 371/66/41 396/66/9 431/66/9
f 396/66/9 371/66/41 373/66/41
f 158/68/4 174/69/59 167/68/4
f 174/69/59 158/68/4 160/69/59
f 160/69/59 165/69/9 174/69/59
f 165/69/9 160/69/59 164/69/9
f 432/63/2 402/54/2 403/63/2
f 402/54/2 432/63/2 355/64/2
f 355/64/2 432/63/2 353/64/2
f 353/64/2 432/63/2 381/63/2
f 363/63/2 221/64/2 224/63/2
f 221/64/2 363/63/2 359/54/2
f 221/64/2 359/54/2 364/64/2
f 410/64/27 232/63/27 233/64/27
f 232/63/27 410/64/27 368/54/27
f 232/63/27 368/54/27 367/63/27
f 421/34/2 391/53/2 392/52/2
f 433/51/2 391/53/2 421/34/2
f 433/51/2 421/34/2 434/51/2
f 434/51/2 421/34/2 420/34/2
f 435/50/2 391/53/2 433/51/2
f 436/55/2 391/53/2 435/50/2
f 436/55/2 400/54/2 391/53/2
f 437/56/2 400/54/2 436/55/2
f 438/58/2 400/54/2 437/56/2
f 438/58/2 401/57/2 400/54/2
f 439/59/2 401/57/2 438/58/2
f 439/59/2 384/60/2 401/57/2
f 440/61/2 384/60/2 439/59/2
f 441/63/2 384/60/2 440/61/2
f 441/63/2 385/62/2 384/60/2
f 442/61/2 385/62/2 441/63/2
f 442/61/2 390/60/2 385/62/2
f 443/59/2 390/60/2 442/61/2
f 443/59/2 360/57/2 390/60/2
f 444/58/2 360/57/2 443/59/2
f 445/56/2 360/57/2 444/58/2
f 445/56/2 361/54/2 360/57/2
f 446/55/2 361/54/2 445/56/2
f 447/50/2 361/54/2 446/55/2
f 361/54/2 447/50/2 408/53/2
f 448/51/2 408/53/2 447/50/2
f 448/51/2 409/52/2 408/53/2
f 448/51/2 293/50/2 409/52/2
f 448/51/2 220/50/2 293/50/2
f 448/51/2 449/50/2 220/50/2
f 450/51/2 449/50/2 448/51/2
f 450/51/2 451/53/2 449/50/2
f 449/50/2 451/53/2 248/52/2
f 452/50/2 451/53/2 450/51/2
f 453/55/2 451/53/2 452/50/2
f 453/55/2 454/54/2 451/53/2
f 455/56/2 454/54/2 453/55/2
f 456/58/2 454/54/2 455/56/2
f 457/70/2 454/54/2 456/58/2
f 457/70/2 458/57/2 454/54/2
f 459/59/2 458/57/2 457/70/2
f 459/59/2 460/60/2 458/57/2
f 461/61/2 460/60/2 459/59/2
f 462/63/2 460/60/2 461/61/2
f 462/63/2 243/62/2 460/60/2
f 463/61/2 243/62/2 462/63/2
f 464/71/2 243/62/2 463/61/2
f 464/71/2 465/60/2 243/62/2
f 466/59/2 465/60/2 464/71/2
f 466/59/2 467/57/2 465/60/2
f 468/58/2 467/57/2 466/59/2
f 469/56/2 467/57/2 468/58/2
f 469/56/2 470/54/2 467/57/2
f 471/55/2 470/54/2 469/56/2
f 472/50/2 470/54/2 471/55/2
f 470/54/2 472/50/2 473/53/2
f 474/51/2 473/53/2 472/50/2
f 474/51/2 475/52/2 473/53/2
f 474/51/2 258/34/2 475/52/2
f 476/51/2 258/34/2 474/51/2
f 258/34/2 476/51/2 204/34/2
f 477/49/25 478/49/25 479/49/25
f 478/49/25 477/49/25 193/49/25
f 478/49/25 193/49/25 480/49/25
f 480/49/25 193/49/25 190/49/25
f 481/66/31 478/49/60 482/66/60
f 478/49/60 481/66/31 479/49/31
f 184/66/9 483/66/9 217/66/9
f 484/66/9 483/66/9 184/66/9
f 483/66/9 484/66/9 482/66/9
f 485/66/9 482/66/9 484/66/9
f 482/66/9 485/66/9 481/66/9
f 486/50/16 487/72/16 488/72/16
f 487/72/16 486/50/16 489/50/16
f 490/72/25 487/72/25 491/72/25
f 487/72/25 490/72/25 488/72/25
f 490/72/27 486/50/27 488/72/27
f 486/50/27 490/72/27 492/50/27
f 493/73/9 494/73/9 495/73/9
f 494/73/9 493/73/9 496/73/9
f 497/50/27 493/73/27 498/50/27
f 493/73/27 497/50/27 209/34/27
f 199/66/27 493/73/27 209/34/27
f 199/66/27 209/34/27 198/63/27
f 493/73/27 199/66/27 496/73/27
f 203/34/25 499/34/25 500/34/25
f 499/34/25 203/34/25 205/34/25
f 499/34/25 205/34/25 501/34/25
f 501/34/25 205/34/25 206/34/25
f 493/73/16 502/50/16 498/50/16
f 502/50/16 493/73/16 495/73/16
f 483/66/2 494/73/2 217/66/2
f 483/66/2 495/73/2 494/73/2
f 495/73/2 483/66/2 502/50/2
f 501/34/2 502/50/2 483/66/2
f 501/34/2 483/66/2 480/49/2
f 501/34/2 480/49/2 503/64/2
f 190/49/2 503/64/2 480/49/2
f 503/64/2 190/49/2 192/64/2
f 491/72/2 502/50/2 501/34/2
f 491/72/2 501/34/2 206/34/2
f 487/72/2 502/50/2 491/72/2
f 502/50/2 487/72/2 489/50/2
f 191/64/9 503/64/9 192/64/9
f 503/64/9 191/64/9 504/64/9
f 505/64/9 504/64/9 191/64/9
f 504/64/9 505/64/9 506/64/9
f 503/64/16 499/34/60 501/34/16
f 499/34/60 503/64/16 504/64/60
f 483/66/16 478/49/60 480/49/16
f 478/49/60 483/66/16 482/66/60
f 506/64/31 499/34/60 504/64/60
f 499/34/60 506/64/31 500/34/31
f 494/73/24 199/66/24 217/66/24
f 199/66/24 494/73/24 496/73/24
f 497/50/24 206/34/24 209/34/24
f 497/50/24 491/72/24 206/34/24
f 491/72/24 497/50/24 490/72/24
f 492/50/24 490/72/24 497/50/24
f 507/66/61 508/49/16 509/49/61
f 508/49/16 507/66/61 510/66/16
f 511/49/25 149/49/25 512/49/25
f 149/49/25 511/49/25 509/49/25
f 509/49/25 152/49/25 149/49/25
f 152/49/25 509/49/25 508/49/25
f 507/66/9 216/66/9 510/66/9
f 216/66/9 507/66/9 188/66/9
f 188/66/9 507/66/9 513/66/9
f 513/66/9 507/66/9 514/66/9
f 514/66/9 507/66/9 515/66/9
f 516/73/9 517/73/9 518/73/9
f 517/73/9 516/73/9 519/73/9
f 520/34/25 213/34/25 215/34/25
f 213/34/25 520/34/25 521/34/25
f 521/34/25 211/34/25 213/34/25
f 211/34/25 521/34/25 522/34/25
f 511/49/37 507/66/61 509/49/61
f 507/66/61 511/49/37 515/66/37
f 523/50/2 524/72/2 525/50/2
f 524/72/2 523/50/2 526/72/2
f 527/64/9 150/64/9 528/64/9
f 150/64/9 527/64/9 151/64/9
f 151/64/9 527/64/9 529/64/9
f 529/64/9 527/64/9 530/64/9
f 531/72/27 532/50/27 533/72/27
f 532/50/27 531/72/27 534/50/27
f 534/50/27 531/72/27 522/34/27
f 522/34/27 531/72/27 211/34/27
f 534/50/27 522/34/27 516/73/27
f 510/66/27 516/73/27 522/34/27
f 516/73/27 510/66/27 519/73/27
f 519/73/27 510/66/27 216/66/27
f 510/66/27 522/34/27 528/64/27
f 510/66/27 528/64/27 508/49/27
f 150/64/27 508/49/27 528/64/27
f 508/49/27 150/64/27 152/49/27
f 520/34/37 527/64/61 521/34/61
f 527/64/61 520/34/37 530/64/37
f 532/50/16 524/72/16 533/72/16
f 524/72/16 532/50/16 525/50/16
f 517/73/2 535/50/2 518/73/2
f 535/50/2 517/73/2 194/66/2
f 210/34/2 535/50/2 194/66/2
f 210/34/2 194/66/2 196/63/2
f 535/50/2 210/34/2 536/50/2
f 531/72/25 524/72/25 526/72/25
f 524/72/25 531/72/25 533/72/25
f 516/73/16 535/50/16 534/50/16
f 535/50/16 516/73/16 518/73/16
f 527/64/61 522/34/16 521/34/61
f 522/34/16 527/64/61 528/64/16
f 517/73/24 216/66/24 194/66/24
f 216/66/24 517/73/24 519/73/24
f 523/50/24 531/72/24 526/72/24
f 531/72/24 523/50/24 536/50/24
f 531/72/24 536/50/24 211/34/24
f 211/34/24 536/50/24 210/34/24
f 418/34/62 537/51/63 538/51/62
f 537/51/63 418/34/62 416/34/63
f 416/34/63 539/51/64 537/51/63
f 539/51/64 416/34/63 417/34/64
f 419/34/65 538/51/62 540/51/65
f 538/51/62 419/34/65 418/34/62
f 539/51/64 349/34/37 348/51/37
f 349/34/37 539/51/64 417/34/64
f 208/34/66 541/51/67 542/51/66
f 541/51/67 208/34/66 207/34/67
f 212/34/61 542/51/66 543/51/61
f 542/51/66 212/34/61 208/34/66
f 207/34/67 544/51/60 541/51/67
f 544/51/60 207/34/67 202/34/60
f 204/34/68 544/51/60 202/34/60
f 544/51/60 204/34/68 476/51/68
f 296/51/69 212/34/61 543/51/61
f 212/34/61 296/51/69 214/34/69
f 419/34/65 434/51/31 420/34/31
f 434/51/31 419/34/65 540/51/65
f 434/51/25 545/51/25 433/51/25
f 545/51/25 434/51/25 540/51/25
f 545/51/25 540/51/25 538/51/25
f 545/51/25 538/51/25 537/51/25
f 545/51/25 537/51/25 546/51/25
f 546/51/25 537/51/25 547/51/25
f 547/51/25 537/51/25 345/51/25
f 345/51/25 537/51/25 539/51/25
f 345/51/25 539/51/25 348/51/25
f 546/51/25 547/51/25 548/51/25
f 548/51/25 547/51/25 549/51/25
f 548/51/25 448/51/25 546/51/25
f 448/51/25 548/51/25 450/51/25
f 549/51/25 547/51/25 550/51/25
f 551/51/25 550/51/25 547/51/25
f 550/51/25 551/51/25 319/51/25
f 319/51/25 551/51/25 321/51/25
f 552/51/25 549/51/25 550/51/25
f 542/51/25 549/51/25 552/51/25
f 542/51/25 552/51/25 295/51/25
f 542/51/25 295/51/25 543/51/25
f 543/51/25 295/51/25 296/51/25
f 541/51/25 549/51/25 542/51/25
f 544/51/25 549/51/25 541/51/25
f 476/51/25 549/51/25 544/51/25
f 549/51/25 476/51/25 474/51/25
f 529/64/64 520/34/37 215/34/64
f 520/34/37 529/64/64 530/64/37
f 514/66/64 511/49/37 512/49/64
f 511/49/37 514/66/64 515/66/37
f 481/66/31 477/49/65 479/49/31
f 477/49/65 481/66/31 485/66/65
f 506/64/31 203/34/65 500/34/31
f 203/34/65 506/64/31 505/64/65
f 553/4/70 554/74/71 555/4/70
f 554/74/71 553/4/70 556/74/71
f 557/4/72 555/4/70 558/4/72
f 555/4/70 557/4/72 553/4/70
f 559/74/73 558/4/72 560/74/73
f 558/4/72 559/74/73 557/4/72
f 561/75/74 562/6/75 563/6/75
f 562/6/75 561/75/74 564/75/74
f 556/74/71 561/75/74 554/74/71
f 561/75/74 556/74/71 564/75/74
f 559/74/76 553/4/76 557/4/76
f 553/4/76 559/74/76 556/74/76
f 556/74/76 559/74/76 565/75/76
f 556/74/76 565/75/76 564/75/76
f 564/75/76 565/75/76 566/6/76
f 564/75/76 566/6/76 562/6/76
f 563/6/75 566/6/77 567/6/77
f 566/6/77 563/6/75 562/6/75
f 565/75/78 560/74/73 568/75/78
f 560/74/73 565/75/78 559/74/73
f 567/6/77 565/75/78 568/75/78
f 565/75/78 567/6/77 566/6/77
f 569/4/79 570/74/80 571/4/79
f 570/74/80 569/4/79 572/74/80
f 573/4/81 571/4/79 574/4/81
f 571/4/79 573/4/81 569/4/79
f 575/74/82 574/4/81 576/74/82
f 574/4/81 575/74/82 573/4/81
f 577/75/83 578/6/84 579/6/84
f 578/6/84 577/75/83 580/75/83
f 572/74/80 577/75/83 570/74/80
f 577/75/83 572/74/80 580/75/83
f 575/74/24 569/4/24 573/4/24
f 569/4/24 575/74/24 572/74/24
f 572/74/24 575/74/24 581/75/24
f 572/74/24 581/75/24 580/75/24
f 580/75/24 581/75/24 582/6/24
f 580/75/24 582/6/24 578/6/24
f 579/6/84 582/6/85 583/6/85
f 582/6/85 579/6/84 578/6/84
f 581/75/86 576/74/82 584/75/86
f 576/74/82 581/75/86 575/74/82
f 583/6/85 581/75/86 584/75/86
f 581/75/86 583/6/85 582/6/85
f 585/76/13 440/77/3 439/76/13
f 440/77/3 585/76/13 586/77/3
f 587/78/20 456/79/14 455/78/20
f 456/79/14 587/78/20 588/79/14
f 589/76/13 461/77/3 459/76/13
f 461/77/3 589/76/13 590/77/3
f 469/78/23 591/80/22 471/80/22
f 591/80/22 469/78/23 592/78/23
f 447/81/87 546/82/24 448/82/24
f 546/82/24 447/81/87 593/81/87
f 594/83/25 463/77/21 462/83/25
f 463/77/21 594/83/25 595/77/21
f 596/76/19 468/79/18 466/76/19
f 468/79/18 596/76/19 597/79/18
f 445/78/23 598/80/22 446/80/22
f 598/80/22 445/78/23 599/78/23
f 600/81/88 436/80/17 435/81/88
f 436/80/17 600/81/88 601/80/17
f 318/81/88 550/82/16 319/82/16
f 550/82/16 318/81/88 602/81/88
f 603/79/14 439/76/13 438/79/14
f 439/76/13 603/79/14 585/76/13
f 586/77/3 441/83/25 440/77/3
f 441/83/25 586/77/3 604/83/25
f 588/79/14 457/84/89 456/79/14
f 457/84/89 588/79/14 459/76/13
f 459/76/13 588/79/14 589/76/13
f 605/78/20 438/79/14 437/78/20
f 438/79/14 605/78/20 603/79/14
f 595/77/21 464/85/90 463/77/21
f 464/85/90 595/77/21 466/76/19
f 466/76/19 595/77/21 596/76/19
f 606/77/21 443/76/19 442/77/21
f 443/76/19 606/77/21 607/76/19
f 608/80/17 455/78/20 453/80/17
f 455/78/20 608/80/17 587/78/20
f 468/79/18 592/78/23 469/78/23
f 592/78/23 468/79/18 597/79/18
f 609/81/88 453/80/17 452/81/88
f 453/80/17 609/81/88 608/80/17
f 472/81/87 549/82/24 474/82/24
f 549/82/24 472/81/87 610/81/87
f 607/76/19 444/79/18 443/76/19
f 444/79/18 607/76/19 611/79/18
f 446/80/22 593/81/87 447/81/87
f 593/81/87 446/80/22 598/80/22
f 471/80/22 610/81/87 472/81/87
f 610/81/87 471/80/22 591/80/22
f 612/81/87 321/82/24 551/82/24
f 321/82/24 612/81/87 324/81/87
f 334/83/25 613/77/21 614/83/25
f 613/77/21 334/83/25 332/77/21
f 344/81/88 547/82/16 345/82/16
f 547/82/16 344/81/88 615/81/88
f 604/83/25 442/77/21 441/83/25
f 442/77/21 604/83/25 606/77/21
f 342/80/17 615/81/88 344/81/88
f 615/81/88 342/80/17 616/80/17
f 444/79/18 599/78/23 445/78/23
f 599/78/23 444/79/18 611/79/18
f 601/80/17 437/78/20 436/80/17
f 437/78/20 601/80/17 605/78/20
f 590/77/3 462/83/25 461/77/3
f 462/83/25 590/77/3 594/83/25
f 547/82/27 612/81/27 551/82/27
f 612/81/27 547/82/27 617/80/27
f 617/80/27 547/82/27 618/78/27
f 618/78/27 547/82/27 619/79/27
f 619/79/27 547/82/27 620/76/27
f 620/76/27 547/82/27 613/77/27
f 613/77/27 547/82/27 614/83/27
f 614/83/27 547/82/27 621/77/27
f 621/77/27 547/82/27 622/76/27
f 622/76/27 547/82/27 623/79/27
f 623/79/27 547/82/27 624/78/27
f 624/78/27 547/82/27 616/80/27
f 616/80/27 547/82/27 615/81/27
f 332/77/21 620/76/19 613/77/21
f 620/76/19 332/77/21 330/76/19
f 618/78/23 326/80/22 617/80/22
f 326/80/22 618/78/23 327/78/23
f 600/81/88 433/82/16 545/82/16
f 433/82/16 600/81/88 435/81/88
f 315/78/20 625/79/14 626/78/20
f 625/79/14 315/78/20 313/79/14
f 307/77/21 627/76/19 628/77/21
f 627/76/19 307/77/21 305/76/19
f 629/79/18 302/78/23 630/78/23
f 302/78/23 629/79/18 304/79/18
f 309/77/3 631/83/25 632/77/3
f 631/83/25 309/77/3 308/83/25
f 630/78/23 301/80/22 633/80/22
f 301/80/22 630/78/23 302/78/23
f 339/79/14 624/78/20 341/78/20
f 624/78/20 339/79/14 623/79/14
f 617/80/22 324/81/87 612/81/87
f 324/81/87 617/80/22 326/80/22
f 591/80/2 549/82/2 610/81/2
f 549/82/2 591/80/2 548/82/2
f 548/82/2 591/80/2 592/78/2
f 548/82/2 592/78/2 597/79/2
f 548/82/2 597/79/2 596/76/2
f 548/82/2 596/76/2 595/77/2
f 548/82/2 595/77/2 594/83/2
f 548/82/2 594/83/2 590/77/2
f 548/82/2 590/77/2 589/76/2
f 548/82/2 589/76/2 588/79/2
f 548/82/2 588/79/2 587/78/2
f 548/82/2 587/78/2 608/80/2
f 548/82/2 608/80/2 609/81/2
f 550/82/27 634/81/27 552/82/27
f 634/81/27 550/82/27 633/80/27
f 633/80/27 550/82/27 630/78/27
f 630/78/27 550/82/27 629/79/27
f 629/79/27 550/82/27 627/76/27
f 627/76/27 550/82/27 628/77/27
f 628/77/27 550/82/27 631/83/27
f 631/83/27 550/82/27 632/77/27
f 632/77/27 550/82/27 635/76/27
f 635/76/27 550/82/27 625/79/27
f 625/79/27 550/82/27 626/78/27
f 626/78/27 550/82/27 636/80/27
f 636/80/27 550/82/27 602/81/27
f 330/76/19 619/79/18 620/76/19
f 619/79/18 330/76/19 329/79/18
f 316/80/17 602/81/88 318/81/88
f 602/81/88 316/80/17 636/80/17
f 308/83/25 628/77/21 631/83/25
f 628/77/21 308/83/25 307/77/21
f 335/77/3 614/83/25 621/77/3
f 614/83/25 335/77/3 334/83/25
f 598/80/2 546/82/2 593/81/2
f 546/82/2 598/80/2 545/82/2
f 545/82/2 598/80/2 599/78/2
f 545/82/2 599/78/2 611/79/2
f 545/82/2 611/79/2 607/76/2
f 545/82/2 607/76/2 606/77/2
f 545/82/2 606/77/2 604/83/2
f 545/82/2 604/83/2 586/77/2
f 545/82/2 586/77/2 585/76/2
f 545/82/2 585/76/2 603/79/2
f 545/82/2 603/79/2 605/78/2
f 545/82/2 605/78/2 601/80/2
f 545/82/2 601/80/2 600/81/2
f 313/79/14 635/76/13 625/79/14
f 635/76/13 313/79/14 311/76/13
f 305/76/19 629/79/18 627/76/19
f 629/79/18 305/76/19 304/79/18
f 311/76/13 632/77/3 635/76/13
f 632/77/3 311/76/13 309/77/3
f 619/79/18 327/78/23 618/78/23
f 327/78/23 619/79/18 329/79/18
f 609/81/88 450/82/16 548/82/16
f 450/82/16 609/81/88 452/81/88
f 315/78/20 636/80/17 316/80/17
f 636/80/17 315/78/20 626/78/20
f 341/78/20 616/80/17 342/80/17
f 616/80/17 341/78/20 624/78/20
f 339/79/14 622/76/13 623/79/14
f 622/76/13 339/79/14 337/76/13
f 337/76/13 621/77/3 622/76/13
f 621/77/3 337/76/13 335/77/3
f 633/80/22 299/81/87 634/81/87
f 299/81/87 633/80/22 301/80/22
f 634/81/87 295/82/24 552/82/24
f 295/82/24 634/81/87 299/81/87
f 371/86/16 374/87/16 372/87/16
f 374/87/16 371/86/16 637/88/16
f 637/88/16 371/86/16 431/86/16
f 638/88/16 423/87/16 430/87/16
f 423/87/16 638/88/16 424/86/16
f 424/86/16 638/88/16 429/86/16
f 486/89/9 502/89/9 489/89/9
f 502/89/9 486/89/9 498/89/9
f 498/89/9 486/89/9 497/89/9
f 497/89/9 486/89/9 492/89/9
f 532/89/9 523/89/9 525/89/9
f 523/89/9 532/89/9 535/89/9
f 535/89/9 532/89/9 534/89/9
f 536/89/9 523/89/9 535/89/9
f 554/90/91 558/91/91 555/91/91
f 558/91/91 554/90/91 560/90/91
f 560/90/91 554/90/91 561/92/91
f 560/90/91 561/92/91 568/92/91
f 568/92/91 561/92/91 563/93/91
f 568/92/91 563/93/91 567/93/91
f 570/90/16 574/91/16 571/91/16
f 574/91/16 570/90/16 576/90/16
f 576/90/16 570/90/16 577/92/16
f 576/90/16 577/92/16 584/92/16
f 584/92/16 577/92/16 579/93/16
f 584/92/16 579/93/16 583/93/16
f 404/88/92 639/94/92 290/88/92
f 639/94/92 404/88/92 640/87/92
f 640/87/92 404/88/92 377/87/92
f 377/87/92 404/88/92 407/88/92
f 377/87/92 407/88/92 378/87/92
f 378/87/92 407/88/92 641/87/92
f 641/87/92 407/88/92 287/88/92
f 641/87/92 287/88/92 642/94/92
f 643/95/27 350/91/27 397/91/27
f 643/95/27 644/96/27 350/91/27
f 643/95/27 645/97/27 644/96/27
f 646/93/27 645/97/27 643/95/27
f 646/93/27 647/98/27 645/97/27
f 286/93/27 647/98/27 646/93/27
f 286/93/27 648/97/27 647/98/27
f 649/93/27 648/97/27 286/93/27
f 650/99/27 648/97/27 649/93/27
f 650/99/27 651/96/27 648/97/27
f 652/99/27 651/96/27 650/99/27
f 651/96/27 652/99/27 653/91/27
f 654/93/27 653/91/27 652/99/27
f 654/93/27 655/91/27 653/91/27
f 655/91/27 654/93/27 656/93/27
f 289/93/2 657/99/2 658/93/2
f 657/99/2 289/93/2 659/97/2
f 659/97/2 289/93/2 660/98/2
f 661/96/2 657/99/2 659/97/2
f 660/98/2 289/93/2 662/93/2
f 661/96/2 663/99/2 657/99/2
f 660/98/2 662/93/2 664/97/2
f 665/91/2 663/99/2 661/96/2
f 665/91/2 666/93/2 663/99/2
f 667/91/2 666/93/2 665/91/2
f 666/93/2 667/91/2 668/93/2
f 664/97/2 662/93/2 669/95/2
f 664/97/2 669/95/2 670/96/2
f 670/96/2 669/95/2 403/91/2
f 403/91/2 669/95/2 432/91/2
f 671/100/24 672/101/64 673/101/24
f 672/101/64 671/100/24 674/100/93
f 675/100/94 676/101/24 677/101/65
f 676/101/24 675/100/94 678/100/24
f 675/100/94 679/101/2 680/102/2
f 679/101/2 675/100/94 677/101/65
f 672/101/64 681/102/27 682/101/27
f 681/102/27 672/101/64 674/100/93
f 683/103/16 684/104/16 685/104/16
f 684/104/16 683/103/16 686/103/16
f 687/103/16 688/104/16 689/104/16
f 688/104/16 687/103/16 690/103/16
f 691/105/43 692/106/43 693/105/43
f 694/107/43 692/106/43 691/105/43
f 694/107/43 695/106/43 692/106/43
f 696/107/43 695/106/43 694/107/43
f 696/107/43 697/105/43 695/106/43
f 697/105/43 696/107/43 698/105/43
f 699/108/53 407/105/53 404/105/53
f 407/105/53 699/108/53 700/108/53
f 701/107/44 702/105/44 703/107/44
f 702/105/44 701/107/44 704/106/44
f 705/105/44 702/105/44 704/106/44
f 704/106/44 701/107/44 706/106/44
f 706/106/44 701/107/44 707/105/44
f 706/106/44 707/105/44 708/105/44
f 709/6/9 710/6/9 711/6/9
f 710/6/9 709/6/9 712/6/9
f 712/6/9 709/6/9 713/6/9
f 712/6/9 713/6/9 714/6/9
f 710/6/95 715/109/96 716/109/96
f 715/109/96 710/6/95 712/6/95
f 717/109/97 711/6/98 718/109/97
f 711/6/98 717/109/97 709/6/98
f 714/6/99 715/109/100 712/6/99
f 715/109/100 714/6/99 719/109/100
f 720/109/101 714/6/102 713/6/102
f 714/6/102 720/109/101 719/109/101
f 711/6/103 716/109/104 718/109/104
f 716/109/104 711/6/103 710/6/103
f 717/109/105 713/6/106 709/6/106
f 713/6/106 717/109/105 720/109/105
f 721/4/107 717/109/105 722/4/107
f 717/109/105 721/4/107 720/109/105
f 715/109/100 723/4/108 724/4/108
f 723/4/108 715/109/100 719/109/100
f 723/4/109 720/109/101 721/4/109
f 720/109/101 723/4/109 719/109/101
f 718/109/104 725/4/110 726/4/110
f 725/4/110 718/109/104 716/109/104
f 717/109/97 726/4/111 722/4/111
f 726/4/111 717/109/97 718/109/97
f 716/109/96 724/4/112 725/4/112
f 724/4/112 716/109/96 715/109/96
f 727/6/9 728/6/9 729/6/9
f 728/6/9 727/6/9 730/6/9
f 730/6/9 727/6/9 731/6/9
f 730/6/9 731/6/9 732/6/9
f 728/6/113 733/109/114 734/109/114
f 733/109/114 728/6/113 730/6/113
f 735/109/115 729/6/116 736/109/115
f 729/6/116 735/109/115 727/6/116
f 732/6/117 733/109/118 730/6/117
f 733/109/118 732/6/117 737/109/118
f 738/109/119 732/6/120 731/6/120
f 732/6/120 738/109/119 737/109/119
f 729/6/121 734/109/122 736/109/122
f 734/109/122 729/6/121 728/6/121
f 735/109/123 731/6/124 727/6/124
f 731/6/124 735/109/123 738/109/123
f 739/4/125 735/109/123 740/4/125
f 735/109/123 739/4/125 738/109/123
f 733/109/118 741/4/126 742/4/126
f 741/4/126 733/109/118 737/109/118
f 741/4/127 738/109/119 739/4/127
f 738/109/119 741/4/127 737/109/119
f 736/109/122 743/4/128 744/4/128
f 743/4/128 736/109/122 734/109/122
f 735/109/115 744/4/129 740/4/129
f 744/4/129 735/109/115 736/109/115
f 734/109/114 742/4/130 743/4/130
f 742/4/130 734/109/114 733/109/114
f 745/6/9 746/6/9 747/6/9
f 746/6/9 745/6/9 748/6/9
f 748/6/9 745/6/9 749/6/9
f 748/6/9 749/6/9 750/6/9
f 746/6/113 751/109/114 752/109/114
f 751/109/114 746/6/113 748/6/113
f 753/109/115 747/6/116 754/109/115
f 747/6/116 753/109/115 745/6/116
f 750/6/117 751/109/118 748/6/117
f 751/109/118 750/6/117 755/109/118
f 756/109/119 750/6/120 749/6/120
f 750/6/120 756/109/119 755/109/119
f 747/6/121 752/109/122 754/109/122
f 752/109/122 747/6/121 746/6/121
f 753/109/123 749/6/124 745/6/124
f 749/6/124 753/109/123 756/109/123
f 757/4/125 753/109/123 758/4/125
f 753/109/123 757/4/125 756/109/123
f 751/109/118 759/4/126 760/4/126
f 759/4/126 751/109/118 755/109/118
f 759/4/127 756/109/119 757/4/127
f 756/109/119 759/4/127 755/109/119
f 754/109/122 761/4/128 762/4/128
f 761/4/128 754/109/122 752/109/122
f 753/109/115 762/4/129 758/4/129
f 762/4/129 753/109/115 754/109/115
f 752/109/114 760/4/130 761/4/130
f 760/4/130 752/109/114 751/109/114
f 763/6/9 764/6/9 765/6/9
f 764/6/9 763/6/9 766/6/9
f 766/6/9 763/6/9 767/6/9
f 766/6/9 767/6/9 768/6/9
f 764/6/113 769/109/114 770/109/114
f 769/109/114 764/6/113 766/6/113
f 771/109/115 765/6/116 772/109/115
f 765/6/116 771/109/115 763/6/116
f 768/6/117 769/109/118 766/6/117
f 769/109/118 768/6/117 773/109/118
f 774/109/119 768/6/120 767/6/120
f 768/6/120 774/109/119 773/109/119
f 765/6/121 770/109/122 772/109/122
f 770/109/122 765/6/121 764/6/121
f 771/109/123 767/6/124 763/6/124
f 767/6/124 771/109/123 774/109/123
f 775/4/125 771/109/123 776/4/125
f 771/109/123 775/4/125 774/109/123
f 769/109/118 777/4/126 778/4/126
f 777/4/126 769/109/118 773/109/118
f 777/4/127 774/109/119 775/4/127
f 774/109/119 777/4/127 773/109/119
f 772/109/122 779/4/128 780/4/128
f 779/4/128 772/109/122 770/109/122
f 771/109/115 780/4/129 776/4/129
f 780/4/129 771/109/115 772/109/115
f 770/109/114 778/4/130 779/4/130
f 778/4/130 770/109/114 769/109/114
f 781/6/9 782/6/9 783/6/9
f 782/6/9 781/6/9 784/6/9
f 784/6/9 781/6/9 785/6/9
f 784/6/9 785/6/9 786/6/9
f 782/6/113 787/109/114 788/109/114
f 787/109/114 782/6/113 784/6/113
f 789/109/115 783/6/116 790/109/115
f 783/6/116 789/109/115 781/6/116
f 786/6/117 787/109/118 784/6/117
f 787/109/118 786/6/117 791/109/118
f 792/109/119 786/6/120 785/6/120
f 786/6/120 792/109/119 791/109/119
f 783/6/121 788/109/122 790/109/122
f 788/109/122 783/6/121 782/6/121
f 789/109/123 785/6/124 781/6/124
f 785/6/124 789/109/123 792/109/123
f 793/4/125 789/109/123 794/4/125
f 789/109/123 793/4/125 792/109/123
f 787/109/118 795/4/126 796/4/126
f 795/4/126 787/109/118 791/109/118
f 795/4/127 792/109/119 793/4/127
f 792/109/119 795/4/127 791/109/119
f 790/109/122 797/4/128 798/4/128
f 797/4/128 790/109/122 788/109/122
f 789/109/115 798/4/129 794/4/129
f 798/4/129 789/109/115 790/109/115
f 788/109/114 796/4/130 797/4/130
f 796/4/130 788/109/114 787/109/114
f 799/6/9 800/6/9 801/6/9
f 800/6/9 799/6/9 802/6/9
f 802/6/9 799/6/9 803/6/9
f 802/6/9 803/6/9 804/6/9
f 800/6/95 805/109/96 806/109/96
f 805/109/96 800/6/95 802/6/95
f 807/109/97 801/6/98 808/109/97
f 801/6/98 807/109/97 799/6/98
f 804/6/99 805/109/100 802/6/99
f 805/109/100 804/6/99 809/109/100
f 810/109/101 804/6/102 803/6/102
f 804/6/102 810/109/101 809/109/101
f 801/6/103 806/109/104 808/109/104
f 806/109/104 801/6/103 800/6/103
f 807/109/105 803/6/106 799/6/106
f 803/6/106 807/109/105 810/109/105
f 811/4/107 807/109/105 812/4/107
f 807/109/105 811/4/107 810/109/105
f 805/109/100 813/4/108 814/4/108
f 813/4/108 805/109/100 809/109/100
f 813/4/109 810/109/101 811/4/109
f 810/109/101 813/4/109 809/109/101
f 808/109/104 815/4/110 816/4/110
f 815/4/110 808/109/104 806/109/104
f 807/109/97 816/4/111 812/4/111
f 816/4/111 807/109/97 808/109/97
f 806/109/96 814/4/112 815/4/112
f 814/4/112 806/109/96 805/109/96
f 817/6/9 818/6/9 819/6/9
f 818/6/9 817/6/9 820/6/9
f 820/6/9 817/6/9 821/6/9
f 820/6/9 821/6/9 822/6/9
f 818/6/113 823/109/114 824/109/114
f 823/109/114 818/6/113 820/6/113
f 825/109/115 819/6/116 826/109/115
f 819/6/116 825/109/115 817/6/116
f 822/6/117 823/109/118 820/6/117
f 823/109/118 822/6/117 827/109/118
f 828/109/119 822/6/120 821/6/120
f 822/6/120 828/109/119 827/109/119
f 819/6/121 824/109/122 826/109/122
f 824/109/122 819/6/121 818/6/121
f 825/109/123 821/6/124 817/6/124
f 821/6/124 825/109/123 828/109/123
f 829/4/125 825/109/123 830/4/125
f 825/109/123 829/4/125 828/109/123
f 823/109/118 831/4/126 832/4/126
f 831/4/126 823/109/118 827/109/118
f 831/4/127 828/109/119 829/4/127
f 828/109/119 831/4/127 827/109/119
f 826/109/122 833/4/128 834/4/128
f 833/4/128 826/109/122 824/109/122
f 825/109/115 834/4/129 830/4/129
f 834/4/129 825/109/115 826/109/115
f 824/109/114 832/4/130 833/4/130
f 832/4/130 824/109/114 823/109/114
f 835/6/9 836/6/9 837/6/9
f 836/6/9 835/6/9 838/6/9
f 838/6/9 835/6/9 839/6/9
f 838/6/9 839/6/9 840/6/9
f 836/6/113 841/109/114 842/109/114
f 841/109/114 836/6/113 838/6/113
f 843/109/115 837/6/116 844/109/115
f 837/6/116 843/109/115 835/6/116
f 840/6/117 841/109/118 838/6/117
f 841/109/118 840/6/117 845/109/118
f 846/109/119 840/6/120 839/6/120
f 840/6/120 846/109/119 845/109/119
f 837/6/121 842/109/122 844/109/122
f 842/109/122 837/6/121 836/6/121
f 843/109/123 839/6/124 835/6/124
f 839/6/124 843/109/123 846/109/123
f 847/4/125 843/109/123 848/4/125
f 843/109/123 847/4/125 846/109/123
f 841/109/118 849/4/126 850/4/126
f 849/4/126 841/109/118 845/109/118
f 849/4/127 846/109/119 847/4/127
f 846/109/119 849/4/127 845/109/119
f 844/109/122 851/4/128 852/4/128
f 851/4/128 844/109/122 842/109/122
f 843/109/115 852/4/129 848/4/129
f 852/4/129 843/109/115 844/109/115
f 842/109/114 850/4/130 851/4/130
f 850/4/130 842/109/114 841/109/114
