# Generated by GTAClone/tools/split_car_wheels.py from hatchback-sports.obj
# Kenney Car Kit (CC0 1.0); the split is a derivative work, also CC0.
mtllib colormap.mtl
v -0.650000 0.400939 -1.186711
v -0.516667 0.400000 -1.186835
v -0.650000 0.400000 -1.186835
v -0.516980 0.400939 -1.186711
v -0.650000 0.200000 0.510000
v -0.650000 0.300000 0.420000
v -0.650000 0.200000 0.420000
v -0.650000 0.400939 0.433289
v -0.650000 0.495000 0.472250
v -0.650000 0.300000 0.510000
v -0.650000 0.575772 0.534228
v -0.650000 0.377646 0.520222
v -0.650000 0.450000 0.550192
v -0.650000 0.637750 0.615000
v -0.650000 0.512132 0.597868
v -0.650000 0.559808 0.660000
v -0.650000 0.676711 0.709061
v -0.650000 0.589778 0.732354
v -0.650000 0.690000 0.810000
v -0.650000 0.600000 0.810000
v -0.650000 0.589778 0.887646
v -0.650000 0.676711 0.910939
v -0.650000 0.559808 0.960000
v -0.650000 0.637750 1.005000
v -0.650000 0.512132 1.022132
v -0.650000 0.575772 1.085772
v -0.650000 0.450000 1.069808
v -0.650000 0.377646 1.099778
v -0.650000 0.495000 1.147750
v -0.650000 0.300000 1.110000
v -0.650000 0.200000 1.110000
v -0.650000 0.200000 1.250000
v -0.650000 0.400000 1.186835
v -0.650000 0.400939 1.186711
v -0.650000 0.400000 1.250000
v 0.650000 0.400000 -1.186835
v 0.650000 0.300000 -1.300000
v 0.650000 0.400000 -1.300000
v 0.650000 0.300000 -1.110000
v 0.650000 0.400939 -1.186711
v 0.650000 0.495000 -1.147750
v 0.650000 0.575772 -1.085772
v 0.650000 0.377646 -1.099778
v 0.650000 0.450000 -1.069808
v 0.650000 0.637750 -1.005000
v 0.650000 0.512132 -1.022132
v 0.650000 0.559808 -0.960000
v 0.650000 0.676711 -0.910939
v 0.650000 0.589778 -0.887646
v 0.650000 0.690000 -0.810000
v 0.650000 0.600000 -0.810000
v 0.650000 0.676711 -0.709060
v 0.650000 0.589778 -0.732354
v 0.650000 0.559808 -0.660000
v 0.650000 0.637750 -0.615000
v 0.650000 0.512132 -0.597868
v 0.650000 0.575772 -0.534228
v 0.650000 0.450000 -0.550192
v 0.650000 0.377646 -0.520222
v 0.650000 0.495000 -0.472250
v 0.650000 0.300000 -0.510000
v 0.650000 0.200000 -0.510000
v 0.650000 0.200000 -0.420000
v 0.650000 0.400939 -0.433289
v 0.650000 0.300000 -0.420000
v 0.550000 0.500000 1.200000
v 0.548333 0.495000 1.147750
v 0.550000 0.500000 1.143913
v 0.516980 0.400939 1.186711
v 0.516667 0.400000 1.186835
v 0.516667 0.400000 1.266667
v 0.550000 0.500000 1.300000
v 0.550000 0.500000 -1.300000
v 0.516667 0.400000 -1.186835
v 0.516667 0.400000 -1.333333
v 0.516980 0.400939 -1.186711
v 0.548333 0.495000 -1.147750
v 0.550000 0.500000 -1.143913
v -0.550000 0.575772 1.085772
v -0.550000 0.637750 1.005000
v -0.650000 0.676711 -0.709060
v -0.550000 0.637750 -0.615000
v -0.550000 0.676711 -0.709060
v -0.650000 0.637750 -0.615000
v 0.550000 0.637750 0.615000
v 0.650000 0.676711 0.709061
v 0.650000 0.637750 0.615000
v 0.550000 0.676711 0.709061
v 0.550000 0.676711 -0.709060
v 0.550000 0.637750 -0.615000
v 0.550000 0.575772 -1.085772
v 0.550000 0.637750 -1.005000
v 0.516980 0.400939 0.433289
v 0.650000 0.495000 0.472250
v 0.650000 0.400939 0.433289
v 0.548333 0.495000 0.472250
v 0.550000 0.500000 -0.476087
v 0.548333 0.495000 -0.472250
v 0.550000 0.575772 -0.534228
v -0.550000 0.575772 -0.534228
v -0.650000 0.575772 -0.534228
v 0.550000 0.575772 0.534228
v 0.650000 0.575772 0.534228
v 0.650000 0.690000 0.810000
v 0.550000 0.690000 0.810000
v 0.650000 0.676711 0.910939
v 0.550000 0.676711 0.910939
v 0.550000 0.637750 1.005000
v 0.650000 0.575772 1.085772
v 0.650000 0.637750 1.005000
v 0.550000 0.575772 1.085772
v -0.650000 0.690000 -0.810000
v -0.550000 0.690000 -0.810000
v 0.550000 0.690000 -0.810000
v -0.516980 0.400939 0.433289
v -0.548333 0.495000 0.472250
v 0.550000 0.676711 -0.910939
v -0.550000 0.500000 -1.300000
v -0.516667 0.400000 -1.333333
v -0.548333 0.495000 -1.147750
v -0.550000 0.500000 -1.143913
v -0.548333 0.495000 -0.472250
v -0.650000 0.400939 -0.433289
v -0.516980 0.400939 -0.433289
v -0.650000 0.495000 -0.472250
v 0.650000 0.495000 1.147750
v 0.650000 0.400939 1.186711
v -0.516980 0.400939 1.186711
v -0.548333 0.495000 1.147750
v -0.550000 0.637750 0.615000
v -0.550000 0.575772 0.534228
v -0.650000 0.676711 -0.910939
v -0.550000 0.676711 -0.910939
v -0.650000 0.495000 -1.147750
v -0.483333 0.300000 0.420000
v 0.516980 0.400939 -0.433289
v -0.650000 0.575772 -1.085772
v -0.550000 0.575772 -1.085772
v 0.483333 0.300000 -0.420000
v -0.550000 0.690000 0.810000
v -0.550000 0.676711 0.709061
v 0.550000 0.500000 0.476087
v 0.650000 0.300000 0.420000
v 0.483333 0.300000 0.420000
v -0.550000 0.676711 0.910939
v -0.550000 0.500000 -0.476087
v -0.550000 0.500000 1.143913
v -0.650000 0.637750 -1.005000
v -0.550000 0.637750 -1.005000
v -0.650000 0.300000 -0.420000
v -0.483333 0.300000 -0.420000
v -0.550000 0.500000 0.476087
v -0.516667 0.400000 1.266667
v -0.550000 0.500000 1.300000
v 0.350000 0.500000 1.300000
v -0.350000 0.500000 1.300000
v -0.516667 0.400000 1.186835
v -0.550000 0.400000 1.350000
v -0.620711 0.400000 1.320711
v 0.550000 0.400000 1.350000
v 0.620711 0.400000 1.320711
v 0.650000 0.400000 1.250000
v 0.650000 0.400000 1.186835
v -0.550000 0.500000 1.200000
v -0.400000 0.300000 -1.110000
v 0.400000 0.200000 -1.110000
v -0.400000 0.200000 -1.110000
v 0.400000 0.300000 -1.110000
v 0.650000 0.200000 1.250000
v 0.650000 0.200000 1.110000
v 0.650000 0.300000 1.110000
v 0.650000 0.377646 1.099778
v 0.650000 0.450000 1.069808
v 0.650000 0.512132 1.022132
v 0.650000 0.559808 0.960000
v 0.650000 0.589778 0.887646
v 0.650000 0.600000 0.810000
v 0.650000 0.589778 0.732354
v 0.650000 0.559808 0.660000
v 0.650000 0.512132 0.597868
v 0.650000 0.450000 0.550192
v 0.650000 0.377646 0.520222
v 0.650000 0.300000 0.510000
v 0.650000 0.200000 0.510000
v 0.650000 0.200000 0.420000
v 0.483333 0.200000 -0.420000
v 0.483333 0.200000 0.420000
v -0.650000 0.200000 -0.420000
v -0.650000 0.300000 -0.510000
v -0.650000 0.200000 -0.510000
v -0.650000 0.377646 -0.520222
v -0.650000 0.450000 -0.550192
v -0.650000 0.512132 -0.597868
v -0.650000 0.559808 -0.660000
v -0.650000 0.589778 -0.732354
v -0.650000 0.600000 -0.810000
v -0.650000 0.589778 -0.887646
v -0.650000 0.559808 -0.960000
v -0.650000 0.512132 -1.022132
v -0.650000 0.450000 -1.069808
v -0.650000 0.377646 -1.099778
v -0.650000 0.300000 -1.110000
v -0.650000 0.400000 -1.300000
v -0.650000 0.300000 -1.300000
v -0.483333 0.200000 0.420000
v -0.483333 0.200000 -0.420000
v 0.550000 0.500000 -0.420000
v 0.550000 0.500000 0.420000
v -0.550000 0.500000 -0.420000
v -0.550000 0.500000 0.420000
v -0.550000 0.200000 1.350000
v 0.550000 0.200000 1.350000
v 0.620711 0.200000 1.320711
v -0.620711 0.200000 1.320711
v 0.400000 0.200000 1.110000
v 0.400000 0.200000 0.510000
v -0.400000 0.200000 1.110000
v -0.400000 0.200000 -0.510000
v -0.400000 0.200000 0.510000
v 0.400000 0.200000 -0.510000
v 0.620711 0.400000 -1.370711
v 0.620711 0.300000 -1.370711
v -0.620711 0.400000 -1.370711
v -0.550000 0.300000 -1.400000
v -0.620711 0.300000 -1.370711
v -0.550000 0.400000 -1.400000
v 0.550000 0.300000 -1.400000
v 0.550000 0.400000 -1.400000
v 0.350000 0.600000 1.300000
v -0.350000 0.600000 1.300000
v -0.300000 0.500000 -1.300000
v 0.300000 0.700000 -1.300000
v 0.300000 0.500000 -1.300000
v -0.300000 0.700000 -1.300000
v 0.125000 0.150000 1.350000
v 0.175000 0.200000 1.400000
v 0.125000 0.150000 1.400000
v 0.175000 0.200000 1.350000
v -0.125000 0.150000 1.350000
v -0.125000 0.150000 1.400000
v -0.175000 0.200000 1.350000
v -0.175000 0.200000 1.400000
v 0.175000 0.275000 1.400000
v 0.125000 0.325000 1.350000
v 0.125000 0.325000 1.400000
v 0.175000 0.275000 1.350000
v -0.175000 0.275000 1.350000
v -0.125000 0.325000 1.350000
v -0.125000 0.325000 1.400000
v -0.175000 0.275000 1.400000
v -0.125000 0.250000 -1.400000
v -0.175000 0.300000 -1.450000
v -0.125000 0.250000 -1.450000
v -0.175000 0.300000 -1.400000
v 0.125000 0.250000 -1.400000
v 0.125000 0.250000 -1.450000
v 0.175000 0.300000 -1.400000
v 0.175000 0.300000 -1.450000
v -0.175000 0.375000 -1.450000
v -0.125000 0.425000 -1.400000
v -0.125000 0.425000 -1.450000
v -0.175000 0.375000 -1.400000
v 0.175000 0.375000 -1.400000
v 0.125000 0.425000 -1.400000
v 0.125000 0.425000 -1.450000
v 0.175000 0.375000 -1.450000
v 0.368020 1.040000 0.252902
v -0.388020 0.980000 0.332902
v 0.388020 0.980000 0.332902
v -0.368020 1.040000 0.252902
v 0.450000 1.100000 -0.732711
v 0.485255 0.994234 -0.932711
v 0.450000 1.100000 -0.932711
v -0.450000 1.100000 -0.732711
v -0.450000 1.100000 -0.932711
v -0.485255 0.994234 -0.932711
v 0.400000 0.559808 0.960000
v 0.400000 0.589778 0.887646
v 0.400000 0.450000 1.069808
v 0.400000 0.512132 1.022132
v 0.400000 0.300000 0.510000
v 0.400000 0.559808 0.660000
v 0.400000 0.512132 0.597868
v 0.400000 0.600000 0.810000
v 0.400000 0.589778 0.732354
v 0.400000 0.377646 0.520222
v 0.400000 0.450000 0.550192
v 0.400000 0.300000 1.110000
v 0.400000 0.377646 1.099778
v -0.400000 0.300000 1.110000
v -0.400000 0.377646 1.099778
v -0.400000 0.300000 0.510000
v -0.400000 0.589778 0.732354
v -0.400000 0.600000 0.810000
v -0.400000 0.559808 0.660000
v -0.400000 0.450000 1.069808
v -0.400000 0.512132 1.022132
v -0.400000 0.377646 0.520222
v -0.400000 0.512132 0.597868
v -0.400000 0.450000 0.550192
v -0.400000 0.559808 0.960000
v -0.400000 0.589778 0.887646
v -0.400000 0.300000 -0.510000
v 0.400000 0.559808 -0.960000
v 0.400000 0.512132 -1.022132
v 0.400000 0.377646 -0.520222
v 0.400000 0.450000 -0.550192
v 0.400000 0.600000 -0.810000
v 0.400000 0.589778 -0.887646
v 0.400000 0.512132 -0.597868
v 0.400000 0.559808 -0.660000
v 0.400000 0.589778 -0.732354
v 0.400000 0.377646 -1.099778
v 0.400000 0.450000 -1.069808
v 0.400000 0.300000 -0.510000
v -0.400000 0.377646 -0.520222
v -0.400000 0.559808 -0.960000
v -0.400000 0.589778 -0.887646
v -0.400000 0.377646 -1.099778
v -0.400000 0.559808 -0.660000
v -0.400000 0.512132 -0.597868
v -0.400000 0.450000 -1.069808
v -0.400000 0.512132 -1.022132
v -0.400000 0.600000 -0.810000
v -0.400000 0.589778 -0.732354
v -0.400000 0.450000 -0.550192
v 0.650000 0.800000 0.572902
v 0.550000 0.700000 0.572902
v 0.650000 0.700000 0.572902
v 0.550000 0.800000 0.572902
v 0.550000 0.800000 0.472902
v 0.650000 0.800000 0.472902
v -0.450000 1.100000 -0.732711
v 0.450000 1.100000 0.172902
v 0.450000 1.100000 -0.732711
v -0.450000 1.100000 0.172902
v 0.650000 0.700000 0.472902
v 0.550000 0.700000 0.472902
v 0.448020 0.800000 0.572902
v 0.368020 1.040000 0.252902
v 0.388020 0.980000 0.332902
v -0.368020 1.040000 0.252902
v -0.388020 0.980000 0.332902
v -0.448020 0.800000 0.572902
v -0.550000 0.800000 0.572902
v -0.650000 0.700000 0.572902
v -0.550000 0.700000 0.472902
v -0.550000 0.700000 0.572902
v -0.650000 0.700000 0.472902
v -0.550000 0.800000 -0.379904
v -0.518834 0.893497 -1.123200
v -0.550000 0.800000 -1.300000
v -0.485255 0.994234 -0.932711
v -0.481623 1.005132 -0.379904
v -0.481623 1.005132 0.138148
v -0.550000 0.800000 0.411657
v -0.550000 0.800000 0.472902
v -0.650000 0.800000 0.472902
v -0.650000 0.800000 0.572902
v 0.550000 0.800000 0.411657
v 0.481623 1.005132 0.138148
v 0.481623 1.005132 -0.379904
v 0.550000 0.800000 -0.379904
v 0.485255 0.994234 -0.932711
v 0.518834 0.893497 -1.123200
v 0.550000 0.800000 -1.300000
v 0.550000 0.600000 1.300000
v -0.550000 0.600000 1.300000
v 0.550000 0.600000 1.200000
v 0.483333 0.500000 -0.420000
v 0.483333 0.500000 0.420000
v -0.483333 0.500000 0.420000
v -0.483333 0.500000 -0.420000
v -0.434417 0.800000 -1.300000
v 0.434417 0.893497 -1.123200
v 0.434417 0.800000 -1.300000
v -0.434417 0.893497 -1.123200
v -0.550000 0.600000 1.200000
v -0.650000 0.450000 -0.420000
v -0.600000 0.500000 -0.420000
v 0.650000 0.450000 -0.420000
v 0.600000 0.500000 -0.420000
v -0.650000 0.450000 0.420000
v -0.600000 0.500000 0.420000
v 0.650000 0.450000 0.420000
v 0.600000 0.500000 0.420000
v 0.300000 0.700000 -1.300000
v 0.300000 0.500000 -1.300000
v -0.300000 0.700000 -1.300000
v -0.300000 0.500000 -1.300000
v -0.600000 0.500000 -0.420000
v -0.550000 0.500000 0.420000
v -0.550000 0.500000 -0.420000
v -0.600000 0.500000 0.420000
v 0.550000 0.500000 -0.420000
v 0.600000 0.500000 0.420000
v 0.600000 0.500000 -0.420000
v 0.550000 0.500000 0.420000
v -0.650000 0.450000 -0.420000
v -0.650000 0.450000 0.420000
v 0.650000 0.450000 0.420000
v 0.650000 0.450000 -0.420000
v -0.650000 0.200000 0.420000
v -0.650000 0.300000 -0.420000
v -0.650000 0.200000 -0.420000
v -0.650000 0.300000 0.420000
v 0.650000 0.300000 -0.420000
v 0.650000 0.200000 -0.420000
v 0.650000 0.200000 0.420000
v 0.650000 0.300000 0.420000
v -0.550000 0.800000 -1.300000
v -0.434417 0.893497 -1.123200
v -0.434417 0.800000 -1.300000
v -0.518834 0.893497 -1.123200
v 0.434417 0.800000 -1.300000
v 0.518834 0.893497 -1.123200
v 0.550000 0.800000 -1.300000
v 0.434417 0.893497 -1.123200
v -0.550000 0.800000 0.411657
v -0.481623 1.005132 -0.379904
v -0.550000 0.800000 -0.379904
v -0.481623 1.005132 0.138148
v 0.481623 1.005132 0.138148
v 0.550000 0.800000 -0.379904
v 0.481623 1.005132 -0.379904
v 0.550000 0.800000 0.411657
v 0.388020 0.980000 0.332902
v -0.448020 0.800000 0.572902
v 0.448020 0.800000 0.572902
v -0.388020 0.980000 0.332902
v -0.550000 0.600000 1.200000
v -0.550000 0.500000 1.200000
v 0.550000 0.500000 1.200000
v 0.550000 0.600000 1.200000
vt 0.468750 0.327829
vt 0.468750 0.327632
vt 0.468750 0.285526
vt 0.468750 0.306579
vt 0.468750 0.347632
vt 0.468750 0.364636
vt 0.468750 0.322925
vt 0.468750 0.338158
vt 0.468750 0.377684
vt 0.468750 0.351238
vt 0.468750 0.361275
vt 0.468750 0.385887
vt 0.468750 0.367585
vt 0.468750 0.388684
vt 0.468750 0.369737
vt 0.468750 0.348684
vt 0.468750 0.556579
vt 0.468750 0.535526
vt 0.468750 0.275000
vt 0.468750 0.475000
vt 0.468750 0.332143
vt 0.468750 0.417857
vt 0.468750 0.425000
vt 0.468750 0.325000
vt 0.343750 0.361275
vt 0.343750 0.367585
vt 0.343750 0.338158
vt 0.343750 0.351238
vt 0.343750 0.306579
vt 0.343750 0.285526
vt 0.343750 0.369737
vt 0.343750 0.322925
vt 0.468750 0.661842
vt 0.468750 0.640790
vt 0.468750 0.725000
vt 0.468750 0.712368
vt 0.468750 0.699737
vt 0.468750 0.681526
vt 0.468750 0.702733
vt 0.468750 0.705028
vt 0.468750 0.619737
vt 0.468750 0.598684
vt 0.468750 0.614636
vt 0.468750 0.627684
vt 0.468750 0.635887
vt 0.468750 0.638684
vt 0.468750 0.588158
vt 0.468750 0.691667
vt 0.468750 0.525000
vt 0.468750 0.591667
vt 0.843750 0.411842
vt 0.843750 0.390790
vt 0.843750 0.332143
vt 0.843750 0.275000
vt 0.843750 0.417857
vt 0.843750 0.475000
vt 0.343750 0.025000
vt 0.343750 0.225000
vt 0.093750 0.025000
vt 0.093750 0.225000
vt 0.093750 0.200497
vt 0.218750 0.225000
vt 0.218750 0.025000
vn 0.000000 0.258819 -0.965926
vn 0.000000 0.813241 -0.581927
vn 0.000000 0.751840 -0.659346
vn 0.000000 0.233891 -0.972263
vn -1.000000 0.000000 0.000000
vn 1.000000 0.000000 0.000000
vn 0.948683 -0.316228 0.000000
vn 0.000000 0.866025 0.500000
vn 0.000000 0.707107 0.707107
vn 0.000000 0.965926 0.258819
vn 0.000000 0.866025 -0.500000
vn 0.000000 0.965926 -0.258819
vn 0.000000 0.707107 -0.707107
vn 0.000000 0.500000 -0.866025
vn 0.000000 0.479903 -0.877321
vn 0.000000 0.500000 0.866025
vn 0.000000 0.608761 0.793353
vn 0.000000 0.479903 0.877321
vn 0.000000 1.000000 0.000000
vn -0.948683 -0.316228 0.000000
vn 0.000000 0.258819 0.965926
vn 0.000000 0.233891 0.972263
vn 0.000000 0.130526 -0.991445
vn 0.000000 0.608761 -0.793353
vn 0.000000 0.130526 0.991445
vn 0.000000 -0.316228 0.948683
vn 0.000000 0.751840 0.659346
vn 0.000000 0.813241 0.581927
vn 0.000000 0.000000 -1.000000
vn 0.000000 0.000000 1.000000
vn 0.195090 0.000000 0.980785
vn -0.195090 0.000000 0.980785
vn 0.707107 0.000000 0.707107
vn 0.923879 0.000000 0.382683
vn -0.707107 0.000000 0.707107
vn -0.923879 0.000000 0.382683
vn 0.000000 -1.000000 0.000000
vn 0.707107 0.000000 -0.707107
vn 0.923879 0.000000 -0.382683
vn -0.707107 0.000000 -0.707107
vn -0.195090 0.000000 -0.980785
vn -0.923879 0.000000 -0.382683
vn 0.195090 0.000000 -0.980785
vn 0.000000 0.316228 -0.948683
vn 0.000000 -0.000000 -1.000000
vn 0.382683 -0.923879 0.000000
vn 0.923879 -0.382683 0.000000
vn -0.382683 -0.923879 -0.000000
vn -0.923879 -0.382683 -0.000000
vn 0.923879 0.382683 0.000000
vn 0.382683 0.923879 0.000000
vn 0.000000 0.000000 -1.000000
vn -0.382683 0.923879 -0.000000
vn -0.923879 0.382683 -0.000000
vn -0.382683 -0.923879 0.000000
vn -0.923879 -0.382683 0.000000
vn 0.382683 -0.923879 0.000000
vn 0.923879 -0.382683 0.000000
vn -0.923879 0.382683 0.000000
vn -0.382683 0.923879 0.000000
vn 0.382683 0.923879 0.000000
vn 0.923879 0.382683 0.000000
vn 0.000000 0.800000 0.600000
vn 0.948683 0.316228 0.000000
vn -0.948683 0.316228 0.000000
vn 0.000000 -0.866025 -0.500000
vn 0.000000 -0.965926 -0.258819
vn 0.000000 -0.500000 -0.866025
vn 0.000000 -0.707107 -0.707107
vn 0.000000 -0.065403 0.997859
vn 0.000000 -0.866025 0.500000
vn 0.000000 -0.707107 0.707107
vn 0.000000 -0.965926 0.258819
vn 0.000000 -0.258819 0.965926
vn 0.000000 -0.500000 0.866025
vn 0.000000 -0.065403 -0.997859
vn 0.000000 -0.258819 -0.965926
vn 0.000000 -0.130526 0.991445
vn 0.707107 0.707107 0.000000
vn 0.000000 0.942269 0.334858
vn -0.707107 0.707107 0.000000
vn 0.000000 0.964189 0.265216
vn 0.000000 0.884000 -0.467487
vn -0.000000 0.000000 1.000000
usemtl colormap
f 1/1/1 2/2/2 3/2/3
f 2/2/2 1/1/1 4/1/4
f 5/3/5 6/4/5 7/3/5
f 6/4/5 5/3/5 8/1/5
f 8/1/5 5/3/5 9/5/5
f 9/5/5 5/3/5 10/4/5
f 9/5/5 10/4/5 11/6/5
f 11/6/5 10/4/5 12/7/5
f 11/6/5 12/7/5 13/8/5
f 11/6/5 13/8/5 14/9/5
f 14/9/5 13/8/5 15/10/5
f 14/9/5 15/10/5 16/11/5
f 14/9/5 16/11/5 17/12/5
f 17/12/5 16/11/5 18/13/5
f 17/12/5 18/13/5 19/14/5
f 19/14/5 18/13/5 20/15/5
f 19/14/5 20/15/5 21/13/5
f 19/14/5 21/13/5 22/12/5
f 22/12/5 21/13/5 23/11/5
f 22/12/5 23/11/5 24/9/5
f 24/9/5 23/11/5 25/10/5
f 24/9/5 25/10/5 26/6/5
f 26/6/5 25/10/5 27/8/5
f 26/6/5 27/8/5 28/7/5
f 26/6/5 28/7/5 29/5/5
f 29/5/5 28/7/5 30/4/5
f 29/5/5 30/4/5 31/3/5
f 29/5/5 31/3/5 32/3/5
f 29/5/5 32/3/5 33/2/5
f 29/5/5 33/2/5 34/1/5
f 33/2/5 32/3/5 35/2/5
f 36/2/6 37/4/6 38/2/6
f 37/4/6 36/2/6 39/4/6
f 39/4/6 36/2/6 40/1/6
f 39/4/6 40/1/6 41/5/6
f 39/4/6 41/5/6 42/6/6
f 39/4/6 42/6/6 43/7/6
f 43/7/6 42/6/6 44/8/6
f 44/8/6 42/6/6 45/9/6
f 44/8/6 45/9/6 46/10/6
f 46/10/6 45/9/6 47/11/6
f 47/11/6 45/9/6 48/12/6
f 47/11/6 48/12/6 49/13/6
f 49/13/6 48/12/6 50/14/6
f 49/13/6 50/14/6 51/15/6
f 51/15/6 50/14/6 52/12/6
f 51/15/6 52/12/6 53/13/6
f 53/13/6 52/12/6 54/11/6
f 54/11/6 52/12/6 55/9/6
f 54/11/6 55/9/6 56/10/6
f 56/10/6 55/9/6 57/6/6
f 56/10/6 57/6/6 58/8/6
f 58/8/6 57/6/6 59/7/6
f 59/7/6 57/6/6 60/5/6
f 59/7/6 60/5/6 61/4/6
f 61/4/6 60/5/6 62/3/6
f 62/3/6 60/5/6 63/3/6
f 63/3/6 60/5/6 64/1/6
f 63/3/6 64/1/6 65/4/6
f 66/16/7 67/5/7 68/16/7
f 67/5/7 66/16/7 69/1/7
f 69/1/7 66/16/7 70/2/7
f 70/2/7 66/16/7 71/2/7
f 71/2/7 66/16/7 72/16/7
f 73/16/7 74/2/7 75/2/7
f 74/2/7 73/16/7 76/1/7
f 76/1/7 73/16/7 77/5/7
f 77/5/7 73/16/7 78/16/7
f 24/9/8 79/6/9 80/9/8
f 79/6/9 24/9/8 26/6/9
f 81/12/10 82/9/8 83/12/10
f 82/9/8 81/12/10 84/9/8
f 85/9/11 86/12/12 87/9/11
f 86/12/12 85/9/11 88/12/12
f 89/12/10 55/9/8 52/12/10
f 55/9/8 89/12/10 90/9/8
f 91/6/13 45/9/11 42/6/13
f 45/9/11 91/6/13 92/9/11
f 93/1/4 94/5/14 95/1/1
f 94/5/14 93/1/4 96/5/15
f 60/5/16 97/16/17 98/5/18
f 97/16/17 60/5/16 57/6/9
f 97/16/17 57/6/9 99/6/9
f 84/9/8 100/6/9 82/9/8
f 100/6/9 84/9/8 101/6/9
f 102/6/13 87/9/11 103/6/13
f 87/9/11 102/6/13 85/9/11
f 90/9/8 57/6/9 55/9/8
f 57/6/9 90/9/8 99/6/9
f 88/12/12 104/14/19 86/12/12
f 104/14/19 88/12/12 105/14/19
f 105/14/19 106/12/10 104/14/19
f 106/12/10 105/14/19 107/12/10
f 108/9/8 109/6/9 110/9/8
f 109/6/9 108/9/8 111/6/9
f 112/14/19 83/12/10 113/14/19
f 83/12/10 112/14/19 81/12/10
f 114/14/19 52/12/10 50/14/19
f 52/12/10 114/14/19 89/12/10
f 9/5/14 115/1/4 8/1/1
f 115/1/4 9/5/14 116/5/15
f 92/9/11 48/12/12 45/9/11
f 48/12/12 92/9/11 117/12/12
f 2/2/20 118/16/20 119/2/20
f 118/16/20 2/2/20 4/1/20
f 118/16/20 4/1/20 120/5/20
f 118/16/20 120/5/20 121/16/20
f 122/5/18 123/1/21 124/1/22
f 123/1/21 122/5/18 125/5/16
f 126/5/16 69/1/22 127/1/21
f 69/1/22 126/5/16 67/5/18
f 128/1/22 29/5/16 34/1/21
f 29/5/16 128/1/22 129/5/18
f 11/6/13 130/9/11 131/6/13
f 130/9/11 11/6/13 14/9/11
f 132/12/12 113/14/19 133/12/12
f 113/14/19 132/12/12 112/14/19
f 134/5/14 4/1/4 1/1/1
f 4/1/4 134/5/14 120/5/15
f 8/1/1 135/4/23 6/4/23
f 135/4/23 8/1/1 115/1/4
f 64/1/21 98/5/18 136/1/22
f 98/5/18 64/1/21 60/5/16
f 137/6/13 120/5/15 134/5/14
f 120/5/15 137/6/13 121/16/24
f 121/16/24 137/6/13 138/6/13
f 65/4/25 136/1/22 139/4/25
f 136/1/22 65/4/25 64/1/21
f 17/12/12 140/14/19 141/12/12
f 140/14/19 17/12/12 19/14/19
f 126/5/16 68/16/17 67/5/18
f 68/16/17 126/5/16 109/6/9
f 68/16/17 109/6/9 111/6/9
f 142/16/24 94/5/14 96/5/15
f 94/5/14 142/16/24 103/6/13
f 103/6/13 142/16/24 102/6/13
f 93/1/4 143/4/23 144/4/23
f 143/4/23 93/1/4 95/1/1
f 22/12/10 80/9/8 145/12/10
f 80/9/8 22/12/10 24/9/8
f 146/16/17 125/5/16 122/5/18
f 125/5/16 146/16/17 101/6/9
f 101/6/9 146/16/17 100/6/9
f 147/16/17 29/5/16 129/5/18
f 29/5/16 147/16/17 26/6/9
f 26/6/9 147/16/17 79/6/9
f 117/12/12 50/14/19 48/12/12
f 50/14/19 117/12/12 114/14/19
f 19/14/19 145/12/10 140/14/19
f 145/12/10 19/14/19 22/12/10
f 76/1/4 36/2/3 74/2/2
f 36/2/3 76/1/4 40/1/1
f 148/9/11 133/12/12 149/9/11
f 133/12/12 148/9/11 132/12/12
f 76/1/4 41/5/14 40/1/1
f 41/5/14 76/1/4 77/5/15
f 124/1/22 150/4/25 151/4/25
f 150/4/25 124/1/22 123/1/21
f 9/5/14 152/16/24 116/5/15
f 152/16/24 9/5/14 11/6/13
f 152/16/24 11/6/13 131/6/13
f 14/9/11 141/12/12 130/9/11
f 141/12/12 14/9/11 17/12/12
f 77/5/15 42/6/13 41/5/14
f 42/6/13 77/5/15 78/16/24
f 42/6/13 78/16/24 91/6/13
f 107/12/10 110/9/8 106/12/10
f 110/9/8 107/12/10 108/9/8
f 72/16/26 153/2/26 71/2/26
f 153/2/26 72/16/26 154/16/26
f 154/16/26 72/16/26 155/16/26
f 154/16/26 155/16/26 156/16/26
f 33/2/27 153/2/19 157/2/28
f 153/2/19 33/2/27 158/2/19
f 158/2/19 71/2/19 153/2/19
f 158/2/19 33/2/27 159/2/19
f 159/2/19 33/2/27 35/2/19
f 160/2/19 71/2/19 158/2/19
f 160/2/19 70/2/28 71/2/19
f 161/2/19 70/2/28 160/2/19
f 162/2/19 70/2/28 161/2/19
f 70/2/28 162/2/19 163/2/27
f 128/1/22 33/2/27 157/2/28
f 33/2/27 128/1/22 34/1/21
f 137/6/13 149/9/11 138/6/13
f 149/9/11 137/6/13 148/9/11
f 129/5/20 164/16/20 147/16/20
f 164/16/20 129/5/20 128/1/20
f 164/16/20 128/1/20 157/2/20
f 164/16/20 157/2/20 153/2/20
f 164/16/20 153/2/20 154/16/20
f 127/1/21 70/2/28 163/2/27
f 70/2/28 127/1/21 69/1/22
f 165/4/29 166/3/29 167/3/29
f 166/3/29 165/4/29 168/4/29
f 163/2/6 126/5/6 127/1/6
f 169/3/6 126/5/6 163/2/6
f 169/3/6 163/2/6 162/2/6
f 170/3/6 126/5/6 169/3/6
f 171/4/6 126/5/6 170/3/6
f 172/7/6 126/5/6 171/4/6
f 172/7/6 109/6/6 126/5/6
f 173/8/6 109/6/6 172/7/6
f 174/10/6 109/6/6 173/8/6
f 174/10/6 110/9/6 109/6/6
f 175/11/6 110/9/6 174/10/6
f 175/11/6 106/12/6 110/9/6
f 176/13/6 106/12/6 175/11/6
f 177/15/6 106/12/6 176/13/6
f 177/15/6 104/14/6 106/12/6
f 178/13/6 104/14/6 177/15/6
f 178/13/6 86/12/6 104/14/6
f 179/11/6 86/12/6 178/13/6
f 179/11/6 87/9/6 86/12/6
f 180/10/6 87/9/6 179/11/6
f 181/8/6 87/9/6 180/10/6
f 181/8/6 103/6/6 87/9/6
f 182/7/6 103/6/6 181/8/6
f 183/4/6 103/6/6 182/7/6
f 103/6/6 183/4/6 94/5/6
f 184/3/6 94/5/6 183/4/6
f 184/3/6 95/1/6 94/5/6
f 185/3/6 95/1/6 184/3/6
f 95/1/6 185/3/6 143/4/6
f 186/3/29 65/17/29 63/3/29
f 65/17/29 186/3/29 139/17/29
f 143/17/30 187/3/30 185/3/30
f 187/3/30 143/17/30 144/17/30
f 188/3/5 189/4/5 190/3/5
f 189/4/5 188/3/5 125/5/5
f 125/5/5 191/7/5 189/4/5
f 125/5/5 188/3/5 123/1/5
f 123/1/5 188/3/5 150/4/5
f 101/6/5 191/7/5 125/5/5
f 101/6/5 192/8/5 191/7/5
f 101/6/5 193/10/5 192/8/5
f 84/9/5 193/10/5 101/6/5
f 84/9/5 194/11/5 193/10/5
f 81/12/5 194/11/5 84/9/5
f 81/12/5 195/13/5 194/11/5
f 112/14/5 195/13/5 81/12/5
f 112/14/5 196/15/5 195/13/5
f 112/14/5 197/13/5 196/15/5
f 132/12/5 197/13/5 112/14/5
f 132/12/5 198/11/5 197/13/5
f 148/9/5 198/11/5 132/12/5
f 148/9/5 199/10/5 198/11/5
f 148/9/5 200/8/5 199/10/5
f 137/6/5 200/8/5 148/9/5
f 137/6/5 201/7/5 200/8/5
f 137/6/5 202/4/5 201/7/5
f 134/5/5 202/4/5 137/6/5
f 1/1/5 202/4/5 134/5/5
f 3/2/5 202/4/5 1/1/5
f 203/2/5 202/4/5 3/2/5
f 202/4/5 203/2/5 204/4/5
f 135/17/30 7/3/30 205/3/30
f 7/3/30 135/17/30 6/17/30
f 188/3/29 151/17/29 206/3/29
f 151/17/29 188/3/29 150/17/29
f 207/16/7 98/5/7 97/16/7
f 98/5/7 207/16/7 136/1/7
f 136/1/7 207/16/7 139/4/7
f 139/4/7 207/16/7 208/16/7
f 139/4/7 208/16/7 144/4/7
f 144/4/7 208/16/7 93/1/7
f 93/1/7 208/16/7 96/5/7
f 96/5/7 208/16/7 142/16/7
f 122/5/20 209/16/20 146/16/20
f 209/16/20 122/5/20 124/1/20
f 209/16/20 124/1/20 151/4/20
f 209/16/20 151/4/20 135/4/20
f 209/16/20 135/4/20 210/16/20
f 210/16/20 135/4/20 115/1/20
f 210/16/20 115/1/20 116/5/20
f 210/16/20 116/5/20 152/16/20
f 160/2/31 211/3/32 212/3/31
f 211/3/32 160/2/31 158/2/32
f 161/2/33 212/3/31 213/3/33
f 212/3/31 161/2/33 160/2/31
f 161/2/33 169/3/34 162/2/34
f 169/3/34 161/2/33 213/3/33
f 214/3/35 35/2/36 32/3/36
f 35/2/36 214/3/35 159/2/35
f 158/2/32 214/3/35 211/3/32
f 214/3/35 158/2/32 159/2/35
f 169/3/37 215/3/37 170/3/37
f 215/3/37 169/3/37 213/3/37
f 215/3/37 213/3/37 212/3/37
f 215/3/37 212/3/37 211/3/37
f 215/3/37 211/3/37 216/3/37
f 216/3/37 211/3/37 217/3/37
f 217/3/37 211/3/37 31/3/37
f 31/3/37 211/3/37 214/3/37
f 31/3/37 214/3/37 32/3/37
f 216/3/37 217/3/37 218/3/37
f 219/3/37 218/3/37 217/3/37
f 167/3/37 216/3/37 218/3/37
f 166/3/37 216/3/37 167/3/37
f 220/3/37 216/3/37 166/3/37
f 206/18/37 218/3/37 219/3/37
f 218/3/37 206/18/37 190/3/37
f 190/3/37 206/18/37 188/18/37
f 219/3/37 205/18/37 206/18/37
f 205/18/37 219/3/37 5/3/37
f 205/18/37 5/3/37 7/18/37
f 187/18/37 216/3/37 220/3/37
f 185/18/37 216/3/37 187/18/37
f 216/3/37 185/18/37 184/3/37
f 220/3/37 186/18/37 187/18/37
f 220/3/37 63/18/37 186/18/37
f 63/18/37 220/3/37 62/3/37
f 221/2/38 37/4/39 222/4/38
f 37/4/39 221/2/38 38/2/39
f 223/2/40 224/4/41 225/4/40
f 224/4/41 223/2/40 226/2/41
f 204/4/42 223/2/40 225/4/40
f 223/2/40 204/4/42 203/2/42
f 226/2/41 227/4/43 224/4/41
f 227/4/43 226/2/41 228/2/43
f 3/2/3 223/2/19 203/2/19
f 3/2/3 226/2/19 223/2/19
f 2/2/2 226/2/19 3/2/3
f 119/2/19 226/2/19 2/2/2
f 75/2/19 226/2/19 119/2/19
f 226/2/19 75/2/19 228/2/19
f 74/2/2 228/2/19 75/2/19
f 74/2/2 221/2/19 228/2/19
f 36/2/3 221/2/19 74/2/2
f 221/2/19 36/2/3 38/2/19
f 39/4/37 222/4/37 37/4/37
f 222/4/37 39/4/37 168/4/37
f 222/4/37 168/4/37 227/4/37
f 227/4/37 168/4/37 224/4/37
f 224/4/37 168/4/37 165/4/37
f 224/4/37 165/4/37 202/4/37
f 224/4/37 202/4/37 225/4/37
f 225/4/37 202/4/37 204/4/37
f 228/2/43 222/4/38 227/4/43
f 222/4/38 228/2/43 221/2/38
f 118/16/44 75/2/44 119/2/44
f 75/2/44 118/16/44 73/16/44
f 229/15/30 156/16/30 155/16/30
f 156/16/30 229/15/30 230/15/30
f 231/19/45 232/20/45 233/19/45
f 232/20/45 231/19/45 234/20/45
f 235/19/46 236/21/47 237/19/46
f 236/21/47 235/19/46 238/21/47
f 239/19/48 237/19/46 240/19/48
f 237/19/46 239/19/48 235/19/46
f 241/21/49 240/19/48 242/21/49
f 240/19/48 241/21/49 239/19/48
f 243/22/50 244/20/51 245/20/51
f 244/20/51 243/22/50 246/22/50
f 238/21/47 243/22/50 236/21/47
f 243/22/50 238/21/47 246/22/50
f 241/21/52 235/19/52 239/19/52
f 235/19/52 241/21/52 238/21/52
f 238/21/52 241/21/52 247/22/52
f 238/21/52 247/22/52 246/22/52
f 246/22/52 247/22/52 248/20/52
f 246/22/52 248/20/52 244/20/52
f 245/20/51 248/20/53 249/20/53
f 248/20/53 245/20/51 244/20/51
f 247/22/54 242/21/49 250/22/54
f 242/21/49 247/22/54 241/21/49
f 249/20/53 247/22/54 250/22/54
f 247/22/54 249/20/53 248/20/53
f 251/19/55 252/21/56 253/19/55
f 252/21/56 251/19/55 254/21/56
f 255/19/57 253/19/55 256/19/57
f 253/19/55 255/19/57 251/19/55
f 257/21/58 256/19/57 258/21/58
f 256/19/57 257/21/58 255/19/57
f 259/22/59 260/20/60 261/20/60
f 260/20/60 259/22/59 262/22/59
f 254/21/56 259/22/59 252/21/56
f 259/22/59 254/21/56 262/22/59
f 257/21/30 251/19/30 255/19/30
f 251/19/30 257/21/30 254/21/30
f 254/21/30 257/21/30 263/22/30
f 254/21/30 263/22/30 262/22/30
f 262/22/30 263/22/30 264/20/30
f 262/22/30 264/20/30 260/20/30
f 261/20/60 264/20/61 265/20/61
f 264/20/61 261/20/60 260/20/60
f 263/22/62 258/21/58 266/22/62
f 258/21/58 263/22/62 257/21/58
f 265/20/61 263/22/62 266/22/62
f 263/22/62 265/20/61 264/20/61
f 267/23/63 268/24/63 269/24/63
f 268/24/63 267/23/63 270/23/63
f 271/23/64 272/24/64 273/23/64
f 274/23/65 275/23/65 276/24/65
f 275/23/29 272/24/29 276/24/29
f 272/24/29 275/23/29 273/23/29
f 275/23/19 271/23/19 273/23/19
f 271/23/19 275/23/19 274/23/19
f 277/25/66 176/26/67 175/25/66
f 176/26/67 277/25/66 278/26/67
f 279/27/68 174/28/69 173/27/68
f 174/28/69 279/27/68 280/28/69
f 183/29/70 216/30/30 184/30/30
f 216/30/30 183/29/70 281/29/70
f 280/28/69 175/25/66 174/28/69
f 175/25/66 280/28/69 277/25/66
f 282/25/71 180/28/72 179/25/71
f 180/28/72 282/25/71 283/28/72
f 278/26/67 177/31/37 176/26/67
f 177/31/37 278/26/67 284/31/37
f 285/26/73 179/25/71 178/26/73
f 179/25/71 285/26/73 282/25/71
f 182/32/74 281/29/70 183/29/70
f 281/29/70 182/32/74 286/32/74
f 181/27/75 286/32/74 182/32/74
f 286/32/74 181/27/75 287/27/75
f 288/29/76 172/32/77 171/29/76
f 172/32/77 288/29/76 289/32/77
f 180/28/72 287/27/75 181/27/75
f 287/27/75 180/28/72 283/28/72
f 289/32/77 173/27/68 172/32/77
f 173/27/68 289/32/77 279/27/68
f 30/29/76 217/30/29 31/30/29
f 217/30/29 30/29/76 290/29/76
f 284/31/37 178/26/73 177/31/37
f 178/26/73 284/31/37 285/26/73
f 28/32/77 290/29/76 30/29/76
f 290/29/76 28/32/77 291/32/77
f 292/29/70 5/30/30 219/30/30
f 5/30/30 292/29/70 10/29/70
f 20/31/37 293/26/73 294/31/37
f 293/26/73 20/31/37 18/26/73
f 18/26/73 295/25/71 293/26/73
f 295/25/71 18/26/73 16/25/71
f 25/28/69 296/27/68 27/27/68
f 296/27/68 25/28/69 297/28/69
f 298/32/74 10/29/70 292/29/70
f 10/29/70 298/32/74 12/32/74
f 299/28/72 13/27/75 300/27/75
f 13/27/75 299/28/72 15/28/72
f 300/27/75 12/32/74 298/32/74
f 12/32/74 300/27/75 13/27/75
f 16/25/71 299/28/72 295/25/71
f 299/28/72 16/25/71 15/28/72
f 25/28/69 301/25/66 297/28/69
f 301/25/66 25/28/69 23/25/66
f 21/26/67 294/31/37 302/26/67
f 294/31/37 21/26/67 20/31/37
f 27/27/68 291/32/77 28/32/77
f 291/32/77 27/27/68 296/27/68
f 23/25/66 302/26/67 301/25/66
f 302/26/67 23/25/66 21/26/67
f 217/30/5 292/29/5 219/30/5
f 292/29/5 217/30/5 298/32/5
f 298/32/5 217/30/5 300/27/5
f 300/27/5 217/30/5 299/28/5
f 299/28/5 217/30/5 295/25/5
f 295/25/5 217/30/5 293/26/5
f 293/26/5 217/30/5 294/31/5
f 294/31/5 217/30/5 302/26/5
f 302/26/5 217/30/5 301/25/5
f 301/25/5 217/30/5 297/28/5
f 297/28/5 217/30/5 296/27/5
f 296/27/5 217/30/5 291/32/5
f 291/32/5 217/30/5 290/29/5
f 286/32/6 216/30/6 281/29/6
f 216/30/6 286/32/6 215/30/6
f 215/30/6 286/32/6 287/27/6
f 215/30/6 287/27/6 283/28/6
f 215/30/6 283/28/6 282/25/6
f 215/30/6 282/25/6 285/26/6
f 215/30/6 285/26/6 284/31/6
f 215/30/6 284/31/6 278/26/6
f 215/30/6 278/26/6 277/25/6
f 215/30/6 277/25/6 280/28/6
f 215/30/6 280/28/6 279/27/6
f 215/30/6 279/27/6 289/32/6
f 215/30/6 289/32/6 288/29/6
f 288/29/76 170/30/29 215/30/29
f 170/30/29 288/29/76 171/29/76
f 189/29/76 218/30/29 190/30/29
f 218/30/29 189/29/76 303/29/76
f 304/25/71 46/28/72 47/25/71
f 46/28/72 304/25/71 305/28/72
f 306/32/77 58/27/68 59/32/77
f 58/27/68 306/32/77 307/27/68
f 308/31/37 49/26/73 51/31/37
f 49/26/73 308/31/37 309/26/73
f 307/27/68 56/28/69 58/27/68
f 56/28/69 307/27/68 310/28/69
f 311/25/66 53/26/67 54/25/66
f 53/26/67 311/25/66 312/26/67
f 44/27/75 313/32/74 43/32/74
f 313/32/74 44/27/75 314/27/75
f 46/28/72 314/27/75 44/27/75
f 314/27/75 46/28/72 305/28/72
f 310/28/69 54/25/66 56/28/69
f 54/25/66 310/28/69 311/25/66
f 309/26/73 47/25/71 49/26/73
f 47/25/71 309/26/73 304/25/71
f 315/29/76 59/32/77 61/29/76
f 59/32/77 315/29/76 306/32/77
f 43/32/74 168/29/78 39/29/78
f 168/29/78 43/32/74 313/32/74
f 312/26/67 51/31/37 53/26/67
f 51/31/37 312/26/67 308/31/37
f 191/32/77 303/29/76 189/29/76
f 303/29/76 191/32/77 316/32/77
f 197/26/73 317/25/71 318/26/73
f 317/25/71 197/26/73 198/25/71
f 319/32/74 202/29/78 165/29/78
f 202/29/78 319/32/74 201/32/74
f 193/28/69 320/25/66 321/28/69
f 320/25/66 193/28/69 194/25/66
f 322/27/75 201/32/74 319/32/74
f 201/32/74 322/27/75 200/27/75
f 218/30/5 165/29/5 167/30/5
f 165/29/5 218/30/5 319/32/5
f 319/32/5 218/30/5 322/27/5
f 322/27/5 218/30/5 323/28/5
f 323/28/5 218/30/5 317/25/5
f 317/25/5 218/30/5 318/26/5
f 318/26/5 218/30/5 324/31/5
f 324/31/5 218/30/5 325/26/5
f 325/26/5 218/30/5 320/25/5
f 320/25/5 218/30/5 321/28/5
f 321/28/5 218/30/5 326/27/5
f 326/27/5 218/30/5 316/32/5
f 316/32/5 218/30/5 303/29/5
f 192/27/68 316/32/77 191/32/77
f 316/32/77 192/27/68 326/27/68
f 195/26/67 324/31/37 325/26/67
f 324/31/37 195/26/67 196/31/37
f 192/27/68 321/28/69 326/27/68
f 321/28/69 192/27/68 193/28/69
f 198/25/71 323/28/72 317/25/71
f 323/28/72 198/25/71 199/28/72
f 194/25/66 325/26/67 320/25/66
f 325/26/67 194/25/66 195/26/67
f 315/29/76 62/30/29 220/30/29
f 62/30/29 315/29/76 61/29/76
f 313/32/6 166/30/6 168/29/6
f 166/30/6 313/32/6 220/30/6
f 220/30/6 313/32/6 314/27/6
f 220/30/6 314/27/6 305/28/6
f 220/30/6 305/28/6 304/25/6
f 220/30/6 304/25/6 309/26/6
f 220/30/6 309/26/6 308/31/6
f 220/30/6 308/31/6 312/26/6
f 220/30/6 312/26/6 311/25/6
f 220/30/6 311/25/6 310/28/6
f 220/30/6 310/28/6 307/27/6
f 220/30/6 307/27/6 306/32/6
f 220/30/6 306/32/6 315/29/6
f 196/31/37 318/26/73 324/31/37
f 318/26/73 196/31/37 197/26/73
f 323/28/72 200/27/75 322/27/75
f 200/27/75 323/28/72 199/28/72
f 327/33/30 328/34/30 329/34/30
f 328/34/30 327/33/30 330/33/30
f 331/33/19 327/33/79 332/33/79
f 327/33/79 331/33/19 330/33/19
f 333/35/19 334/35/80 335/35/19
f 334/35/80 333/35/19 336/35/80
f 328/34/37 337/34/37 329/34/37
f 337/34/37 328/34/37 338/34/37
f 334/35/80 339/33/63 330/33/63
f 339/33/63 334/35/80 340/36/63
f 339/33/63 340/36/63 341/37/63
f 340/36/63 334/35/80 336/35/80
f 340/36/63 336/35/80 342/36/63
f 342/36/63 336/35/80 343/37/63
f 343/37/63 336/35/80 344/33/63
f 344/33/63 336/35/80 345/33/63
f 346/34/37 347/34/37 348/34/37
f 347/34/37 346/34/37 349/34/37
f 350/33/65 351/38/65 352/33/65
f 351/38/65 350/33/65 353/39/65
f 353/39/65 350/33/65 333/35/65
f 333/35/65 350/33/65 354/40/65
f 333/35/65 354/40/65 336/35/65
f 336/35/65 354/40/65 355/40/65
f 336/35/65 355/40/65 356/33/65
f 336/35/65 356/33/65 357/33/65
f 336/35/65 357/33/65 345/33/65
f 358/33/81 345/33/19 357/33/19
f 345/33/19 358/33/81 359/33/81
f 345/33/30 346/34/30 348/34/30
f 346/34/30 345/33/30 359/33/30
f 346/34/5 358/33/81 349/34/5
f 358/33/81 346/34/5 359/33/81
f 327/33/79 337/34/6 332/33/79
f 337/34/6 327/33/79 329/34/6
f 331/33/64 334/35/64 330/33/64
f 360/33/64 334/35/64 331/33/64
f 361/40/64 334/35/64 360/33/64
f 362/40/64 334/35/64 361/40/64
f 334/35/64 362/40/64 335/35/64
f 363/33/64 335/35/64 362/40/64
f 363/33/64 364/39/64 335/35/64
f 363/33/64 365/38/64 364/39/64
f 365/38/64 363/33/64 366/33/64
f 339/33/82 367/41/82 330/33/82
f 367/41/82 339/33/82 229/41/82
f 229/41/82 339/33/82 344/33/82
f 229/41/82 344/33/82 230/41/82
f 230/41/82 344/33/82 368/41/82
f 368/41/82 344/33/82 345/33/82
f 73/42/6 91/43/6 78/42/6
f 73/42/6 92/44/6 91/43/6
f 366/33/6 92/44/6 73/42/6
f 92/44/6 366/33/6 117/45/6
f 117/45/6 366/33/6 363/33/6
f 117/45/6 363/33/6 114/46/6
f 114/46/6 363/33/6 89/45/6
f 89/45/6 363/33/6 90/44/6
f 90/44/6 363/33/6 99/43/6
f 99/43/6 363/33/6 97/42/6
f 97/42/6 363/33/6 207/42/6
f 207/42/6 363/33/6 208/42/6
f 208/42/6 363/33/6 360/33/6
f 208/42/6 360/33/6 331/33/6
f 208/42/6 331/33/6 338/34/6
f 208/42/6 338/34/6 142/42/6
f 142/42/6 338/34/6 328/34/6
f 142/42/6 328/34/6 102/43/6
f 102/43/6 328/34/6 85/44/6
f 328/34/6 88/45/6 85/44/6
f 328/34/6 105/46/6 88/45/6
f 330/33/6 105/46/6 328/34/6
f 105/46/6 330/33/6 107/45/6
f 107/45/6 330/33/6 367/41/6
f 107/45/6 367/41/6 108/44/6
f 108/44/6 367/41/6 369/41/6
f 108/44/6 369/41/6 111/43/6
f 111/43/6 369/41/6 68/42/6
f 66/42/6 68/42/6 369/41/6
f 185/18/37 186/18/37 63/18/37
f 186/18/37 185/18/37 187/18/37
f 370/42/19 208/42/19 207/42/19
f 208/42/19 370/42/19 371/42/19
f 205/18/37 188/18/37 206/18/37
f 188/18/37 205/18/37 7/18/37
f 209/42/19 372/42/19 373/42/19
f 372/42/19 209/42/19 210/42/19
f 139/17/5 371/42/5 370/42/5
f 371/42/5 139/17/5 144/17/5
f 373/42/6 135/17/6 151/17/6
f 135/17/6 373/42/6 372/42/6
f 374/33/83 375/38/83 376/33/83
f 377/38/83 375/38/83 374/33/83
f 353/39/83 375/38/83 377/38/83
f 353/39/83 377/38/83 351/38/83
f 364/39/83 375/38/83 353/39/83
f 375/38/83 364/39/83 365/38/83
f 378/41/5 147/42/5 164/42/5
f 378/41/5 79/43/5 147/42/5
f 378/41/5 80/44/5 79/43/5
f 368/41/5 80/44/5 378/41/5
f 368/41/5 145/45/5 80/44/5
f 345/33/5 145/45/5 368/41/5
f 345/33/5 140/46/5 145/45/5
f 345/33/5 141/45/5 140/46/5
f 345/33/5 130/44/5 141/45/5
f 348/34/5 130/44/5 345/33/5
f 348/34/5 131/43/5 130/44/5
f 348/34/5 152/42/5 131/43/5
f 347/34/5 152/42/5 348/34/5
f 152/42/5 347/34/5 210/42/5
f 357/33/5 210/42/5 347/34/5
f 356/33/5 210/42/5 357/33/5
f 350/33/5 210/42/5 356/33/5
f 350/33/5 209/42/5 210/42/5
f 350/33/5 146/42/5 209/42/5
f 350/33/5 100/43/5 146/42/5
f 350/33/5 82/44/5 100/43/5
f 350/33/5 83/45/5 82/44/5
f 350/33/5 113/46/5 83/45/5
f 350/33/5 133/45/5 113/46/5
f 352/33/5 133/45/5 350/33/5
f 352/33/5 149/44/5 133/45/5
f 352/33/5 138/43/5 149/44/5
f 352/33/5 121/42/5 138/43/5
f 121/42/5 352/33/5 118/42/5
f 150/17/29 373/42/29 151/17/29
f 373/42/29 150/17/29 379/47/29
f 373/42/29 379/47/29 209/42/29
f 209/42/29 379/47/29 380/42/29
f 370/42/29 65/17/29 139/17/29
f 65/17/29 370/42/29 381/47/29
f 381/47/29 370/42/29 207/42/29
f 381/47/29 207/42/29 382/42/29
f 135/17/30 383/47/30 6/17/30
f 383/47/30 135/17/30 372/42/30
f 383/47/30 372/42/30 384/42/30
f 384/42/30 372/42/30 210/42/30
f 385/47/30 144/17/30 143/17/30
f 144/17/30 385/47/30 371/42/30
f 371/42/30 385/47/30 208/42/30
f 208/42/30 385/47/30 386/42/30
f 366/33/29 387/34/29 376/33/29
f 376/33/29 387/34/29 374/33/29
f 387/34/29 352/33/29 374/33/29
f 366/33/29 388/42/29 387/34/29
f 389/34/29 352/33/29 387/34/29
f 73/42/29 388/42/29 366/33/29
f 390/42/29 352/33/29 389/34/29
f 388/42/29 73/42/29 390/42/29
f 390/42/29 118/42/29 352/33/29
f 118/42/29 390/42/29 73/42/29
f 391/35/60 392/35/19 393/35/19
f 392/35/19 391/35/60 394/35/60
f 395/35/19 396/35/61 397/35/61
f 396/35/61 395/35/19 398/35/19
f 399/48/59 394/35/60 391/35/60
f 394/35/60 399/48/59 400/48/59
f 397/35/61 401/48/62 402/48/62
f 401/48/62 397/35/61 396/35/61
f 403/49/5 404/50/5 405/49/5
f 404/50/5 403/49/5 399/48/59
f 399/48/59 403/49/5 406/50/5
f 399/48/59 406/50/5 400/48/59
f 401/48/62 407/50/6 402/48/62
f 407/50/6 401/48/62 408/49/6
f 408/49/6 401/48/62 409/49/6
f 409/49/6 401/48/62 410/50/6
f 331/51/29 337/52/29 338/52/29
f 337/52/29 331/51/29 332/51/29
f 358/51/29 347/52/29 349/52/29
f 347/52/29 358/51/29 357/51/29
f 236/53/84 240/54/84 237/54/84
f 240/54/84 236/53/84 242/53/84
f 242/53/84 236/53/84 243/55/84
f 242/53/84 243/55/84 250/55/84
f 250/55/84 243/55/84 245/56/84
f 250/55/84 245/56/84 249/56/84
f 252/53/29 256/54/29 253/54/29
f 256/54/29 252/53/29 258/53/29
f 258/53/29 252/53/29 259/55/29
f 258/53/29 259/55/29 266/55/29
f 266/55/29 259/55/29 261/56/29
f 266/55/29 261/56/29 265/56/29
f 411/57/83 412/58/83 413/57/83
f 412/58/83 411/57/83 414/58/83
f 415/57/83 416/58/83 417/57/83
f 416/58/83 415/57/83 418/58/83
f 419/59/65 420/60/65 421/59/65
f 420/60/65 419/59/65 422/60/65
f 423/60/64 424/59/64 425/60/64
f 424/59/64 423/60/64 426/59/64
f 427/61/63 428/59/63 429/59/63
f 428/59/63 427/61/63 430/61/63
f 230/62/30 154/63/35 156/63/30
f 154/63/35 230/62/30 368/62/35
f 154/63/35 431/62/5 432/63/5
f 431/62/5 154/63/35 368/62/35
f 367/62/33 155/63/30 72/63/33
f 155/63/30 367/62/33 229/62/30
f 367/62/33 433/63/6 434/62/6
f 433/63/6 367/62/33 72/63/33
