# Generated by GTAClone/tools/split_car_wheels.py from police.obj group wheel-front-left
# Kenney Car Kit (CC0 1.0); the split is a derivative work, also CC0.
mtllib colormap.mtl
v -0.050000 0.259808 0.150000
v 0.050000 0.289778 0.077646
v -0.050000 0.289778 0.077646
v 0.050000 0.259808 0.150000
v 0.050000 -0.150000 0.259808
v -0.050000 -0.212132 0.212132
v 0.050000 -0.212132 0.212132
v -0.050000 -0.150000 0.259808
v 0.150000 0.255000 -0.000000
v 0.050000 0.289778 -0.077646
v 0.050000 0.300000 -0.000000
v 0.150000 0.246311 -0.065999
v -0.050000 0.000000 -0.300000
v 0.050000 -0.077646 -0.289778
v -0.050000 -0.077646 -0.289778
v 0.050000 0.000000 -0.300000
v 0.050000 -0.289778 -0.077646
v -0.050000 -0.300000 -0.000000
v -0.050000 -0.289778 -0.077646
v 0.050000 -0.300000 -0.000000
v 0.150000 -0.220836 -0.127500
v 0.050000 -0.259808 -0.150000
v 0.150000 -0.246311 -0.065999
v 0.050000 0.212132 0.212132
v -0.050000 0.212132 0.212132
v -0.050000 -0.259808 -0.150000
v -0.050000 0.077646 0.289778
v -0.150000 0.127500 0.220836
v -0.150000 0.065999 0.246311
v -0.050000 0.150000 0.259808
v 0.150000 0.246311 0.065999
v 0.150000 0.220837 0.127500
v -0.050000 0.300000 -0.000000
v 0.150000 -0.255000 -0.000000
v 0.050000 -0.150000 -0.259808
v 0.150000 -0.180312 -0.180312
v 0.050000 -0.212132 -0.212132
v 0.150000 -0.127500 -0.220836
v 0.050000 0.259808 -0.150000
v 0.150000 0.180312 -0.180312
v 0.050000 0.212132 -0.212132
v 0.150000 0.220837 -0.127500
v -0.050000 -0.150000 -0.259808
v -0.050000 -0.212132 -0.212132
v 0.050000 -0.077646 0.289778
v -0.050000 -0.077646 0.289778
v 0.150000 -0.065999 -0.246311
v 0.150000 0.000000 -0.255000
v 0.150000 -0.180312 0.180312
v 0.150000 -0.127500 0.220836
v -0.050000 0.259808 -0.150000
v -0.050000 0.212132 -0.212132
v -0.050000 0.289778 -0.077646
v 0.050000 0.077646 -0.289778
v 0.150000 0.065999 -0.246311
v -0.050000 -0.289778 0.077646
v 0.050000 -0.289778 0.077646
v 0.150000 -0.246311 0.065999
v 0.050000 -0.259808 0.150000
v 0.150000 -0.220836 0.127500
v 0.150000 0.065999 0.246311
v 0.050000 0.000000 0.300000
v 0.150000 0.000000 0.255000
v 0.050000 0.077646 0.289778
v 0.150000 -0.065999 0.246311
v -0.050000 0.077646 -0.289778
v -0.050000 -0.259808 0.150000
v 0.050000 0.150000 -0.259808
v -0.050000 0.150000 -0.259808
v 0.050000 0.150000 0.259808
v 0.150000 0.127500 -0.220836
v 0.150000 0.180312 0.180312
v 0.150000 0.127500 0.220836
v -0.050000 0.000000 0.300000
v -0.150000 0.180312 0.180312
v -0.150000 0.255000 -0.000000
v -0.150000 0.246311 -0.065999
v -0.150000 -0.246311 -0.065999
v -0.150000 -0.220836 -0.127500
v -0.150000 -0.127500 0.220836
v -0.150000 -0.065999 0.246311
v -0.150000 0.220837 0.127500
v -0.150000 0.220837 -0.127500
v -0.150000 0.180312 -0.180312
v -0.150000 -0.065999 -0.246311
v -0.150000 0.000000 -0.255000
v -0.150000 -0.246311 0.065999
v -0.150000 -0.255000 -0.000000
v 0.150000 0.000000 0.164880
v 0.150000 -0.042674 0.159262
v 0.150000 0.042674 0.159262
v 0.150000 -0.082440 0.142790
v 0.150000 -0.116588 0.116588
v 0.150000 0.082440 0.142790
v 0.150000 0.116588 0.116588
v 0.150000 -0.142790 0.082440
v 0.150000 -0.159262 0.042674
v 0.150000 -0.164880 -0.000000
v 0.150000 0.142790 0.082440
v 0.150000 0.159262 0.042674
v 0.150000 -0.159262 -0.042674
v 0.150000 -0.142790 -0.082440
v 0.150000 0.164880 -0.000000
v 0.150000 0.159262 -0.042674
v 0.150000 0.142790 -0.082440
v 0.150000 -0.116588 -0.116588
v 0.150000 -0.082440 -0.142790
v 0.150000 0.116588 -0.116588
v 0.150000 0.082440 -0.142790
v 0.150000 -0.042674 -0.159262
v 0.150000 0.042674 -0.159262
v 0.150000 0.000000 -0.164880
v -0.150000 -0.180312 0.180312
v -0.150000 -0.220836 0.127500
v -0.150000 0.127500 -0.220836
v -0.150000 0.065999 -0.246311
v -0.150000 -0.127500 -0.220836
v -0.150000 0.246311 0.065999
v -0.150000 0.000000 0.255000
v -0.150000 -0.180312 -0.180312
v 0.150000 -0.077446 0.077446
v 0.050000 -0.071139 0.041072
v 0.050000 -0.058085 0.058085
v 0.150000 -0.094852 0.054763
v 0.050000 0.021261 0.079345
v 0.150000 0.000000 0.109525
v 0.050000 0.000000 0.082144
v 0.150000 0.028347 0.105793
v 0.150000 -0.109525 -0.000000
v 0.050000 -0.079345 -0.021260
v 0.050000 -0.082144 -0.000000
v 0.150000 -0.105793 -0.028347
v 0.150000 0.028347 -0.105793
v 0.050000 0.041072 -0.071139
v 0.050000 0.021261 -0.079345
v 0.150000 0.054763 -0.094852
v 0.050000 -0.021260 0.079345
v 0.150000 -0.028347 0.105793
v 0.150000 0.094852 0.054763
v 0.050000 0.058085 0.058085
v 0.050000 0.071139 0.041072
v 0.150000 0.077446 0.077446
v 0.150000 -0.028347 -0.105793
v 0.050000 -0.041072 -0.071139
v 0.150000 -0.054763 -0.094852
v 0.050000 -0.021260 -0.079345
v 0.050000 -0.079345 0.021260
v 0.150000 -0.105793 0.028347
v 0.050000 -0.041072 0.071139
v 0.150000 -0.054763 0.094852
v 0.050000 0.058085 -0.058085
v 0.150000 0.077446 -0.077446
v 0.150000 0.054763 0.094852
v 0.050000 0.041072 0.071139
v 0.150000 0.105793 -0.028347
v 0.050000 0.082144 -0.000000
v 0.050000 0.079345 -0.021260
v 0.150000 0.109525 -0.000000
v 0.050000 0.071139 -0.041072
v 0.150000 0.094852 -0.054763
v 0.150000 -0.094852 -0.054763
v 0.050000 -0.058085 -0.058085
v 0.050000 -0.071139 -0.041072
v 0.150000 -0.077446 -0.077446
v 0.050000 0.079345 0.021260
v 0.050000 0.000000 -0.082144
v 0.150000 0.000000 -0.109525
v 0.150000 0.105793 0.028347
v 0.150000 0.042674 -0.159262
v 0.150000 -0.042674 -0.159262
v 0.150000 0.000000 -0.164880
v 0.150000 0.082440 -0.142790
v 0.150000 -0.082440 -0.142790
v 0.150000 -0.116588 -0.116588
v 0.150000 0.116588 -0.116588
v 0.150000 0.000000 -0.109525
v 0.150000 0.028347 -0.105793
v 0.150000 -0.028347 -0.105793
v 0.150000 0.142790 -0.082440
v 0.150000 0.054763 -0.094852
v 0.150000 0.077446 -0.077446
v 0.150000 -0.142790 -0.082440
v 0.150000 -0.054763 -0.094852
v 0.150000 -0.077446 -0.077446
v 0.150000 0.159262 -0.042674
v 0.150000 0.094852 -0.054763
v 0.150000 0.105793 -0.028347
v 0.150000 0.164880 -0.000000
v 0.150000 0.109525 -0.000000
v 0.150000 -0.159262 -0.042674
v 0.150000 -0.094852 -0.054763
v 0.150000 -0.105793 -0.028347
v 0.150000 0.159262 0.042674
v 0.150000 0.105793 0.028347
v 0.150000 0.094852 0.054763
v 0.150000 -0.164880 -0.000000
v 0.150000 -0.109525 -0.000000
v 0.150000 -0.105793 0.028347
v 0.150000 -0.159262 0.042674
v 0.150000 -0.094852 0.054763
v 0.150000 0.142790 0.082440
v 0.150000 0.077446 0.077446
v 0.150000 0.054763 0.094852
v 0.150000 -0.142790 0.082440
v 0.150000 -0.077446 0.077446
v 0.150000 -0.054763 0.094852
v 0.150000 0.116588 0.116588
v 0.150000 -0.116588 0.116588
v 0.150000 0.028347 0.105793
v 0.150000 -0.028347 0.105793
v 0.150000 0.000000 0.109525
v 0.150000 0.082440 0.142790
v 0.150000 -0.082440 0.142790
v 0.150000 0.042674 0.159262
v 0.150000 -0.042674 0.159262
v 0.150000 0.000000 0.164880
vt 0.343750 0.448205
vt 0.343750 0.468185
vt 0.343750 0.275000
vt 0.343750 0.445000
vt 0.343750 0.475000
vt 0.343750 0.439207
vt 0.343750 0.416421
vt 0.343750 0.326764
vt 0.343750 0.360000
vt 0.343750 0.318999
vt 0.343750 0.375000
vt 0.343750 0.422224
vt 0.343750 0.395208
vt 0.343750 0.303449
vt 0.343750 0.329960
vt 0.343750 0.352725
vt 0.343750 0.370194
vt 0.343750 0.381175
vt 0.343750 0.384920
vt 0.468750 0.275000
vt 0.468750 0.289174
vt 0.468750 0.293898
vt 0.468750 0.302381
vt 0.468750 0.311509
vt 0.468750 0.338234
vt 0.468750 0.313723
vt 0.468750 0.322426
vt 0.468750 0.326631
vt 0.468750 0.345529
vt 0.468750 0.329763
vt 0.468750 0.327897
vt 0.468750 0.348017
vt 0.468750 0.400882
vt 0.468750 0.349118
vt 0.468750 0.375000
vt 0.468750 0.425000
vt 0.468750 0.325000
vt 0.468750 0.304289
vt 0.468750 0.445711
vt 0.468750 0.392193
vt 0.468750 0.357807
vt 0.468750 0.461603
vt 0.468750 0.408214
vt 0.468750 0.421971
vt 0.468750 0.288397
vt 0.468750 0.341786
vt 0.468750 0.328029
vt 0.468750 0.471593
vt 0.468750 0.432528
vt 0.468750 0.439164
vt 0.468750 0.475000
vt 0.468750 0.441427
vt 0.468750 0.278407
vt 0.468750 0.317472
vt 0.468750 0.310836
vt 0.468750 0.308573
vn -0.206363 0.847385 0.489238
vn 0.206363 0.945135 0.253248
vn -0.206363 0.945135 0.253248
vn 0.206363 0.847385 0.489238
vn 0.206363 -0.489238 0.847385
vn -0.206363 -0.691887 0.691887
vn 0.206363 -0.691887 0.691887
vn -0.206363 -0.489238 0.847385
vn 0.410365 0.911922 -0.000000
vn 0.206363 0.945135 -0.253248
vn 0.206363 0.978476 -0.000000
vn 0.410365 0.880849 -0.236023
vn -0.206363 0.000000 -0.978476
vn 0.206363 -0.253248 -0.945135
vn -0.206363 -0.253248 -0.945135
vn 0.206363 0.000000 -0.978476
vn 0.206363 -0.945135 -0.253248
vn -0.206363 -0.978476 0.000000
vn -0.206363 -0.945135 -0.253248
vn 0.206363 -0.978476 -0.000000
vn 0.410365 -0.789747 -0.455961
vn 0.206363 -0.847385 -0.489238
vn 0.410365 -0.880849 -0.236023
vn 0.206363 0.691887 0.691887
vn -0.206363 0.691887 0.691887
vn -0.206363 -0.847385 -0.489238
vn -0.206363 0.253248 0.945135
vn -0.410365 0.455961 0.789747
vn -0.410365 0.236023 0.880849
vn -0.206363 0.489238 0.847385
vn 0.410365 0.880849 0.236023
vn 0.410365 0.789747 0.455961
vn -0.206363 0.978476 0.000000
vn 0.410365 -0.911922 -0.000000
vn 0.206363 -0.489238 -0.847385
vn 0.410365 -0.644826 -0.644826
vn 0.206363 -0.691887 -0.691887
vn 0.410365 -0.455961 -0.789747
vn 0.206363 0.847385 -0.489238
vn 0.410365 0.644826 -0.644826
vn 0.206363 0.691887 -0.691887
vn 0.410365 0.789747 -0.455961
vn -0.206363 -0.489238 -0.847385
vn -0.206363 -0.691887 -0.691887
vn 0.206363 -0.253248 0.945135
vn -0.206363 -0.253248 0.945135
vn 0.410365 -0.236023 -0.880849
vn 0.410365 0.000000 -0.911922
vn 0.410365 -0.644826 0.644826
vn 0.410365 -0.455961 0.789747
vn -0.206363 0.847385 -0.489238
vn -0.206363 0.691887 -0.691887
vn -0.206363 0.945135 -0.253248
vn 0.206363 0.253248 -0.945135
vn 0.410365 0.236023 -0.880849
vn -0.206363 -0.945135 0.253248
vn 0.206363 -0.945135 0.253248
vn 0.410365 -0.880849 0.236023
vn 0.206363 -0.847385 0.489238
vn 0.410365 -0.789747 0.455961
vn 0.410365 0.236023 0.880849
vn 0.206363 0.000000 0.978476
vn 0.410365 0.000000 0.911922
vn 0.206363 0.253248 0.945135
vn 0.410365 -0.236023 0.880849
vn -0.206363 0.253248 -0.945135
vn -0.206363 -0.847385 0.489238
vn 0.206363 0.489238 -0.847385
vn -0.206363 0.489238 -0.847385
vn 0.206363 0.489238 0.847385
vn 0.410365 0.455961 -0.789747
vn 0.410365 0.644826 0.644826
vn 0.410365 0.455961 0.789747
vn -0.206363 0.000000 0.978476
vn -0.410365 0.644826 0.644826
vn -0.410365 0.911922 0.000000
vn -0.410365 0.880849 -0.236023
vn -0.410365 -0.880849 -0.236023
vn -0.410365 -0.789747 -0.455961
vn -0.410365 -0.455961 0.789747
vn -0.410365 -0.236023 0.880849
vn -0.410365 0.789747 0.455961
vn -0.410365 0.789747 -0.455961
vn -0.410365 0.644826 -0.644826
vn -0.410365 -0.236023 -0.880849
vn -0.410365 0.000000 -0.911922
vn -0.410365 -0.880849 0.236023
vn -0.410365 -0.911922 0.000000
vn 1.000000 0.000000 -0.000000
vn -0.410365 -0.644826 0.644826
vn -0.410365 -0.789747 0.455961
vn -0.410365 0.455961 -0.789747
vn -0.410365 0.236023 -0.880849
vn -0.410365 -0.455961 -0.789747
vn -0.410365 0.880849 0.236023
vn -0.410365 0.000000 0.911922
vn -0.410365 -0.644826 -0.644826
vn -1.000000 0.000000 0.000000
vn 0.264093 0.682003 -0.682003
vn 0.264093 0.835279 -0.482249
vn 0.264092 -0.249630 -0.931633
vn 0.264093 0.000000 -0.964497
vn 0.264093 0.964497 -0.000000
vn 0.264092 0.931633 0.249630
vn 0.264092 -0.249630 0.931633
vn 0.264093 -0.482249 0.835279
vn 0.264092 0.249630 -0.931633
vn 0.264093 -0.835279 -0.482249
vn 0.264093 -0.682003 -0.682003
vn 0.264092 0.249630 0.931633
vn 0.264093 0.482249 0.835279
vn 0.264092 0.931633 -0.249630
vn 0.264093 0.482249 -0.835279
vn 0.264093 -0.682003 0.682003
vn 0.264093 -0.482249 -0.835279
vn 0.264092 -0.931633 0.249630
vn 0.264093 -0.964497 -0.000000
vn 0.264093 -0.835279 0.482249
vn 0.264093 0.835279 0.482249
vn 0.264093 0.682003 0.682003
vn 0.264093 0.000000 0.964497
vn 0.264092 -0.931633 -0.249630
vn 1.000000 0.000000 0.000000
usemtl colormap
f 1/1/1 2/2/2 3/2/3
f 2/2/2 1/1/1 4/1/4
f 5/3/5 6/3/6 7/3/7
f 6/3/6 5/3/5 8/3/8
f 9/4/9 10/2/10 11/5/11
f 10/2/10 9/4/9 12/6/12
f 13/3/13 14/3/14 15/3/15
f 14/3/14 13/3/13 16/3/16
f 17/3/17 18/3/18 19/3/19
f 18/3/18 17/3/17 20/3/20
f 21/3/21 17/3/17 22/3/22
f 17/3/17 21/3/21 23/3/23
f 24/7/24 1/1/1 25/7/25
f 1/1/1 24/7/24 4/1/4
f 26/3/26 17/3/17 19/3/19
f 17/3/17 26/3/26 22/3/22
f 27/8/27 28/9/28 29/10/29
f 28/9/28 27/8/27 30/11/30
f 4/1/4 31/6/31 2/2/2
f 31/6/31 4/1/4 32/12/32
f 2/2/2 33/5/33 3/2/3
f 33/5/33 2/2/2 11/5/11
f 23/3/23 20/3/20 17/3/17
f 20/3/20 23/3/23 34/3/34
f 35/3/35 36/3/36 37/3/37
f 36/3/36 35/3/35 38/3/38
f 39/1/39 40/13/40 41/7/41
f 40/13/40 39/1/39 42/12/42
f 43/3/43 37/3/37 44/3/44
f 37/3/37 43/3/43 35/3/35
f 45/3/45 8/3/8 5/3/5
f 8/3/8 45/3/45 46/3/46
f 2/2/2 9/4/9 11/5/11
f 9/4/9 2/2/2 31/6/31
f 16/3/16 47/3/47 14/3/14
f 47/3/47 16/3/16 48/3/48
f 49/3/49 5/3/5 7/3/7
f 5/3/5 49/3/49 50/3/50
f 51/1/51 41/7/41 52/7/52
f 41/7/41 51/1/51 39/1/39
f 33/5/33 10/2/10 53/2/53
f 10/2/10 33/5/33 11/5/11
f 54/8/54 48/3/48 16/3/16
f 48/3/48 54/8/54 55/10/55
f 20/3/20 56/3/56 18/3/18
f 56/3/56 20/3/20 57/3/57
f 58/3/58 59/3/59 57/3/57
f 59/3/59 58/3/58 60/3/60
f 34/3/34 57/3/57 20/3/20
f 57/3/57 34/3/34 58/3/58
f 61/10/61 62/3/62 63/3/63
f 62/3/62 61/10/61 64/8/64
f 65/3/65 62/3/62 45/3/45
f 62/3/62 65/3/65 63/3/63
f 66/8/66 16/3/16 13/3/13
f 16/3/16 66/8/66 54/8/54
f 59/3/59 6/3/6 67/3/67
f 6/3/6 59/3/59 7/3/7
f 52/7/52 68/11/68 69/11/69
f 68/11/68 52/7/52 41/7/41
f 10/2/10 51/1/51 53/2/53
f 51/1/51 10/2/10 39/1/39
f 24/7/24 30/11/30 70/11/70
f 30/11/30 24/7/24 25/7/25
f 54/8/54 71/9/71 55/10/55
f 71/9/71 54/8/54 68/11/68
f 15/3/15 35/3/35 43/3/43
f 35/3/35 15/3/15 14/3/14
f 72/13/72 70/11/70 73/9/73
f 70/11/70 72/13/72 24/7/24
f 37/3/37 26/3/26 44/3/44
f 26/3/26 37/3/37 22/3/22
f 12/6/12 39/1/39 10/2/10
f 39/1/39 12/6/12 42/12/42
f 64/8/64 74/3/74 62/3/62
f 74/3/74 64/8/64 27/8/27
f 73/9/73 64/8/64 61/10/61
f 64/8/64 73/9/73 70/11/70
f 30/11/30 75/13/75 28/9/28
f 75/13/75 30/11/30 25/7/25
f 76/4/76 53/2/53 77/6/77
f 53/2/53 76/4/76 33/5/33
f 62/3/62 46/3/46 45/3/45
f 46/3/46 62/3/62 74/3/74
f 69/11/69 54/8/54 66/8/66
f 54/8/54 69/11/69 68/11/68
f 68/11/68 40/13/40 71/9/71
f 40/13/40 68/11/68 41/7/41
f 26/3/26 78/3/78 79/3/79
f 78/3/78 26/3/26 19/3/19
f 46/3/46 80/3/80 8/3/8
f 80/3/80 46/3/46 81/3/81
f 75/13/75 1/1/1 82/12/82
f 1/1/1 75/13/75 25/7/25
f 83/12/83 52/7/52 84/13/84
f 52/7/52 83/12/83 51/1/51
f 85/3/85 13/3/13 15/3/15
f 13/3/13 85/3/85 86/3/86
f 18/3/18 87/3/87 88/3/88
f 87/3/87 18/3/18 56/3/56
f 36/3/36 22/3/22 37/3/37
f 22/3/22 36/3/36 21/3/21
f 65/3/89 61/10/89 63/3/89
f 61/10/89 65/3/89 50/3/89
f 61/10/89 50/3/89 73/9/89
f 73/9/89 50/3/89 49/3/89
f 73/9/89 49/3/89 72/13/89
f 72/13/89 49/3/89 89/3/89
f 89/3/89 49/3/89 90/3/89
f 91/14/89 72/13/89 89/3/89
f 90/3/89 49/3/89 60/3/89
f 90/3/89 60/3/89 92/3/89
f 92/3/89 60/3/89 93/3/89
f 72/13/89 91/14/89 32/12/89
f 32/12/89 91/14/89 94/15/89
f 32/12/89 94/15/89 95/16/89
f 93/3/89 60/3/89 58/3/89
f 93/3/89 58/3/89 96/3/89
f 96/3/89 58/3/89 97/3/89
f 97/3/89 58/3/89 34/3/89
f 97/3/89 34/3/89 98/3/89
f 32/12/89 95/16/89 31/6/89
f 31/6/89 95/16/89 99/17/89
f 31/6/89 99/17/89 100/18/89
f 98/3/89 34/3/89 23/3/89
f 98/3/89 23/3/89 101/3/89
f 101/3/89 23/3/89 102/3/89
f 31/6/89 100/18/89 9/4/89
f 9/4/89 100/18/89 103/19/89
f 9/4/89 103/19/89 104/18/89
f 9/4/89 104/18/89 12/6/89
f 12/6/89 104/18/89 105/17/89
f 102/3/89 23/3/89 21/3/89
f 102/3/89 21/3/89 106/3/89
f 106/3/89 21/3/89 107/3/89
f 12/6/89 105/17/89 42/12/89
f 42/12/89 105/17/89 108/16/89
f 42/12/89 108/16/89 109/15/89
f 107/3/89 21/3/89 36/3/89
f 42/12/89 109/15/89 40/13/89
f 107/3/89 36/3/89 110/3/89
f 40/13/89 109/15/89 111/14/89
f 110/3/89 36/3/89 112/3/89
f 40/13/89 111/14/89 112/3/89
f 40/13/89 112/3/89 36/3/89
f 40/13/89 36/3/89 38/3/89
f 40/13/89 38/3/89 71/9/89
f 71/9/89 38/3/89 47/3/89
f 71/9/89 47/3/89 55/10/89
f 55/10/89 47/3/89 48/3/89
f 50/3/50 45/3/45 5/3/5
f 45/3/45 50/3/50 65/3/65
f 67/3/67 113/3/90 114/3/91
f 113/3/90 67/3/67 6/3/6
f 115/9/92 66/8/66 116/10/93
f 66/8/66 115/9/92 69/11/69
f 117/3/94 15/3/15 43/3/43
f 15/3/15 117/3/94 85/3/85
f 8/3/8 113/3/90 6/3/6
f 113/3/90 8/3/8 80/3/80
f 82/12/82 3/2/3 118/6/95
f 3/2/3 82/12/82 1/1/1
f 84/13/84 69/11/69 115/9/92
f 69/11/69 84/13/84 52/7/52
f 72/13/72 4/1/4 24/7/24
f 4/1/4 72/13/72 32/12/32
f 60/3/60 7/3/7 59/3/59
f 7/3/7 60/3/60 49/3/49
f 27/8/27 119/3/96 74/3/74
f 119/3/96 27/8/27 29/10/29
f 56/3/56 114/3/91 87/3/87
f 114/3/91 56/3/56 67/3/67
f 14/3/14 38/3/38 35/3/35
f 38/3/38 14/3/14 47/3/47
f 120/3/97 43/3/43 44/3/44
f 43/3/43 120/3/97 117/3/94
f 77/6/77 51/1/51 83/12/83
f 51/1/51 77/6/77 53/2/53
f 19/3/19 88/3/88 78/3/78
f 88/3/88 19/3/19 18/3/18
f 70/11/70 27/8/27 64/8/64
f 27/8/27 70/11/70 30/11/30
f 29/10/98 81/3/98 119/3/98
f 81/3/98 29/10/98 28/9/98
f 81/3/98 28/9/98 80/3/98
f 80/3/98 28/9/98 75/13/98
f 80/3/98 75/13/98 113/3/98
f 113/3/98 75/13/98 82/12/98
f 113/3/98 82/12/98 114/3/98
f 114/3/98 82/12/98 118/6/98
f 114/3/98 118/6/98 87/3/98
f 87/3/98 118/6/98 76/4/98
f 87/3/98 76/4/98 88/3/98
f 88/3/98 76/4/98 77/6/98
f 88/3/98 77/6/98 78/3/98
f 78/3/98 77/6/98 83/12/98
f 78/3/98 83/12/98 79/3/98
f 79/3/98 83/12/98 84/13/98
f 79/3/98 84/13/98 120/3/98
f 120/3/98 84/13/98 115/9/98
f 120/3/98 115/9/98 117/3/98
f 117/3/98 115/9/98 116/10/98
f 117/3/98 116/10/98 85/3/98
f 85/3/98 116/10/98 86/3/98
f 116/10/93 13/3/13 86/3/86
f 13/3/13 116/10/93 66/8/66
f 74/3/74 81/3/81 46/3/46
f 81/3/81 74/3/74 119/3/96
f 57/3/57 67/3/67 56/3/56
f 67/3/67 57/3/57 59/3/59
f 118/6/95 33/5/33 76/4/76
f 33/5/33 118/6/95 3/2/3
f 44/3/44 79/3/79 120/3/97
f 79/3/79 44/3/44 26/3/26
f 121/20/99 122/20/100 123/20/99
f 122/20/100 121/20/99 124/20/100
f 125/21/101 126/20/102 127/20/102
f 126/20/102 125/21/101 128/22/101
f 129/20/103 130/20/104 131/20/103
f 130/20/104 129/20/103 132/20/104
f 133/22/105 134/23/106 135/21/105
f 134/23/106 133/22/105 136/24/106
f 137/20/107 126/20/102 138/20/107
f 126/20/102 137/20/107 127/20/102
f 139/25/108 140/26/109 141/27/108
f 140/26/109 139/25/108 142/28/109
f 143/20/110 144/20/111 145/20/111
f 144/20/111 143/20/110 146/20/110
f 147/20/112 129/20/103 131/20/103
f 129/20/103 147/20/112 148/20/112
f 149/20/113 138/20/107 150/20/113
f 138/20/107 149/20/113 137/20/107
f 136/24/106 151/26/114 134/23/106
f 151/26/114 136/24/106 152/28/114
f 140/26/109 153/24/115 154/23/115
f 153/24/115 140/26/109 142/28/109
f 155/29/116 156/30/117 157/31/116
f 156/30/117 155/29/116 158/32/117
f 123/20/99 150/20/113 121/20/99
f 150/20/113 123/20/99 149/20/113
f 152/28/114 159/27/118 151/26/114
f 159/27/118 152/28/114 160/25/118
f 161/20/119 162/20/120 163/20/119
f 162/20/120 161/20/119 164/20/120
f 145/20/111 162/20/120 164/20/120
f 162/20/120 145/20/111 144/20/111
f 160/25/118 157/31/116 159/27/118
f 157/31/116 160/25/118 155/29/116
f 137/20/89 125/21/89 127/20/89
f 125/21/89 137/20/89 149/20/89
f 125/21/89 149/20/89 154/23/89
f 154/23/89 149/20/89 123/20/89
f 154/23/89 123/20/89 140/26/89
f 140/26/89 123/20/89 122/20/89
f 140/26/89 122/20/89 141/27/89
f 141/27/89 122/20/89 147/20/89
f 141/27/89 147/20/89 165/31/89
f 165/31/89 147/20/89 131/20/89
f 165/31/89 131/20/89 156/30/89
f 156/30/89 131/20/89 130/20/89
f 156/30/89 130/20/89 157/31/89
f 157/31/89 130/20/89 163/20/89
f 157/31/89 163/20/89 159/27/89
f 159/27/89 163/20/89 162/20/89
f 159/27/89 162/20/89 151/26/89
f 151/26/89 162/20/89 144/20/89
f 151/26/89 144/20/89 134/23/89
f 134/23/89 144/20/89 146/20/89
f 134/23/89 146/20/89 135/21/89
f 135/21/89 146/20/89 166/20/89
f 167/20/121 135/21/105 166/20/121
f 135/21/105 167/20/121 133/22/105
f 168/29/122 141/27/108 165/31/122
f 141/27/108 168/29/122 139/25/108
f 167/20/121 146/20/110 143/20/110
f 146/20/110 167/20/121 166/20/121
f 124/20/100 147/20/112 122/20/100
f 147/20/112 124/20/100 148/20/112
f 158/32/117 165/31/122 156/30/117
f 165/31/122 158/32/117 168/29/122
f 132/20/104 163/20/119 130/20/104
f 163/20/119 132/20/104 161/20/119
f 154/23/115 128/22/101 125/21/101
f 128/22/101 154/23/115 153/24/115
f 169/33/123 170/34/123 171/35/123
f 170/34/123 169/33/123 172/36/123
f 170/34/123 172/36/123 173/37/123
f 173/37/123 172/36/123 174/38/123
f 174/38/123 172/36/123 175/39/123
f 174/38/123 175/39/123 176/35/123
f 175/39/123 177/40/123 176/35/123
f 174/38/123 176/35/123 178/41/123
f 177/40/123 175/39/123 179/42/123
f 177/40/123 179/42/123 180/43/123
f 180/43/123 179/42/123 181/44/123
f 174/38/123 178/41/123 182/45/123
f 182/45/123 178/41/123 183/46/123
f 182/45/123 183/46/123 184/47/123
f 181/44/123 179/42/123 185/48/123
f 181/44/123 185/48/123 186/49/123
f 186/49/123 185/48/123 187/50/123
f 187/50/123 185/48/123 188/51/123
f 187/50/123 188/51/123 189/52/123
f 182/45/123 184/47/123 190/53/123
f 190/53/123 184/47/123 191/54/123
f 190/53/123 191/54/123 192/55/123
f 189/52/123 188/51/123 193/48/123
f 189/52/123 193/48/123 194/50/123
f 194/50/123 193/48/123 195/49/123
f 190/53/123 192/55/123 196/20/123
f 196/20/123 192/55/123 197/56/123
f 196/20/123 197/56/123 198/55/123
f 196/20/123 198/55/123 199/53/123
f 199/53/123 198/55/123 200/54/123
f 195/49/123 193/48/123 201/42/123
f 195/49/123 201/42/123 202/44/123
f 202/44/123 201/42/123 203/43/123
f 199/53/123 200/54/123 204/45/123
f 204/45/123 200/54/123 205/47/123
f 204/45/123 205/47/123 206/46/123
f 203/43/123 201/42/123 207/39/123
f 204/45/123 206/46/123 208/38/123
f 203/43/123 207/39/123 209/40/123
f 208/38/123 206/46/123 210/41/123
f 209/40/123 207/39/123 211/35/123
f 208/38/123 210/41/123 211/35/123
f 208/38/123 211/35/123 207/39/123
f 208/38/123 207/39/123 212/36/123
f 208/38/123 212/36/123 213/37/123
f 213/37/123 212/36/123 214/33/123
f 213/37/123 214/33/123 215/34/123
f 215/34/123 214/33/123 216/35/123
