# Generated by GTAClone/tools/split_car_wheels.py from race-future.obj
# Kenney Car Kit (CC0 1.0); the split is a derivative work, also CC0.
mtllib colormap.mtl
v -0.250000 0.586044 -1.029886
v 0.250000 0.586044 -1.329886
v 0.250000 0.586044 -1.029886
v -0.250000 0.586044 -1.329886
v 0.250000 0.636044 -1.029886
v -0.250000 0.636044 -1.029886
v 0.600000 0.300000 0.115489
v 0.600000 0.200000 -0.484511
v 0.600000 0.300000 -0.484511
v 0.600000 0.200000 0.115489
v 0.350000 0.400000 -0.484511
v 0.350000 0.200000 -0.484511
v 0.500000 0.400000 -0.484511
v 0.350000 0.200000 0.115489
v 0.350000 0.400000 0.115489
v 0.500000 0.400000 0.115489
v -0.600000 0.300000 -0.484511
v -0.350000 0.200000 -0.484511
v -0.600000 0.200000 -0.484511
v -0.350000 0.400000 -0.484511
v -0.500000 0.400000 -0.484511
v -0.600000 0.200000 0.115489
v -0.600000 0.300000 0.115489
v -0.350000 0.400000 0.115489
v -0.500000 0.400000 0.115489
v -0.350000 0.200000 0.115489
v -0.105840 0.495484 -1.129886
v 0.105840 0.386044 -1.129886
v -0.105840 0.386044 -1.129886
v 0.105840 0.495484 -1.129886
v 0.550000 0.350000 1.329886
v 0.550000 0.200000 1.029886
v 0.550000 0.400000 1.029886
v 0.550000 0.200000 1.329886
v -0.550000 0.400000 1.029886
v -0.450000 0.200000 1.029886
v -0.550000 0.200000 1.029886
v -0.450000 0.400000 1.029886
v 0.450000 0.200000 1.329886
v 0.450000 0.350000 1.329886
v -0.450000 0.350000 1.329886
v -0.550000 0.350000 1.329886
v 0.450000 0.400000 1.029886
v 0.450000 0.200000 1.029886
v 0.250000 0.300000 1.129886
v 0.450000 0.300000 1.279886
v 0.450000 0.300000 1.129886
v -0.450000 0.300000 1.279886
v -0.250000 0.300000 1.129886
v -0.450000 0.300000 1.129886
v -0.250000 0.200000 1.129886
v -0.450000 0.200000 1.129886
v -0.550000 0.200000 1.329886
v 0.450000 0.200000 1.129886
v 0.250000 0.200000 1.129886
v -0.450000 0.200000 1.279886
v -0.450000 0.200000 1.329886
v 0.450000 0.200000 1.279886
v 0.250000 0.200000 0.276541
v -0.250000 0.200000 0.276541
v -0.350000 0.200000 -1.329886
v 0.350000 0.200000 -1.329886
v 0.300000 0.377646 0.879664
v 0.550000 0.300000 0.889886
v 0.300000 0.300000 0.889886
v 0.550000 0.377646 0.879664
v 0.300000 0.450000 0.849694
v 0.550000 0.450000 0.849694
v 0.550000 0.512132 0.802018
v 0.300000 0.512132 0.802018
v 0.550000 0.559808 0.739886
v 0.300000 0.559808 0.739886
v 0.550000 0.393037 0.242666
v 0.550000 0.300000 0.289886
v 0.550000 0.307696 0.231431
v 0.550000 0.479734 0.278577
v 0.550000 0.377646 0.300109
v 0.550000 0.554183 0.335704
v 0.550000 0.450000 0.330079
v 0.550000 0.512132 0.377754
v 0.550000 0.611309 0.410152
v 0.550000 0.559808 0.439886
v 0.550000 0.647220 0.496849
v 0.550000 0.589778 0.512240
v 0.550000 0.659469 0.589886
v 0.550000 0.600000 0.589886
v 0.550000 0.589778 0.667532
v 0.550000 0.647220 0.682924
v 0.550000 0.611309 0.769621
v 0.550000 0.554183 0.844069
v 0.550000 0.479734 0.901195
v 0.550000 0.307696 0.948342
v 0.550000 0.393037 0.937106
v 0.300000 0.559808 0.439886
v 0.300000 0.512132 0.377754
v 0.300000 0.589778 0.667532
v 0.300000 0.589778 0.512240
v 0.300000 0.377646 0.300109
v 0.300000 0.450000 0.330079
v 0.300000 0.300000 0.289886
v 0.300000 0.600000 0.589886
v -0.300000 0.377646 0.300109
v -0.550000 0.300000 0.289886
v -0.300000 0.300000 0.289886
v -0.550000 0.377646 0.300109
v -0.300000 0.450000 0.330079
v -0.550000 0.512132 0.377754
v -0.550000 0.450000 0.330079
v -0.300000 0.512132 0.377754
v -0.550000 0.559808 0.439886
v -0.300000 0.559808 0.439886
v -0.550000 0.589778 0.512240
v -0.300000 0.589778 0.512240
v -0.550000 0.600000 0.589886
v -0.300000 0.600000 0.589886
v -0.550000 0.393037 0.242666
v -0.550000 0.307696 0.231431
v -0.550000 0.479734 0.278577
v -0.550000 0.554183 0.335704
v -0.550000 0.611309 0.410152
v -0.550000 0.647220 0.496849
v -0.550000 0.659469 0.589886
v -0.550000 0.589778 0.667532
v -0.550000 0.647220 0.682924
v -0.550000 0.559808 0.739886
v -0.550000 0.611309 0.769621
v -0.550000 0.512132 0.802018
v -0.550000 0.554183 0.844069
v -0.550000 0.450000 0.849694
v -0.550000 0.479734 0.901195
v -0.550000 0.377646 0.879664
v -0.550000 0.300000 0.889886
v -0.550000 0.307696 0.948342
v -0.550000 0.393037 0.937106
v -0.300000 0.589778 0.667532
v -0.300000 0.559808 0.739886
v -0.300000 0.450000 0.849694
v -0.300000 0.512132 0.802018
v -0.300000 0.377646 0.879664
v -0.300000 0.300000 0.889886
v -0.350000 0.589778 -1.007759
v -0.350000 0.559808 -1.080114
v -0.350000 0.580612 -1.029886
v -0.550000 0.589778 -1.007759
v -0.550000 0.559808 -1.080114
v -0.550000 0.512132 -0.717982
v -0.350000 0.450000 -0.670306
v -0.550000 0.450000 -0.670306
v -0.350000 0.485839 -0.697806
v -0.350000 0.512132 -0.717982
v -0.550000 0.600000 -0.930114
v -0.350000 0.600000 -0.930114
v -0.350000 0.377646 -1.219892
v -0.550000 0.450000 -1.189921
v -0.550000 0.377646 -1.219892
v -0.350000 0.450000 -1.189921
v -0.550000 0.377646 -0.640336
v -0.350000 0.300000 -0.630114
v -0.550000 0.300000 -0.630114
v -0.350000 0.377646 -0.640336
v -0.350000 0.300000 -1.230114
v -0.550000 0.300000 -1.230114
v -0.550000 0.393037 -1.277334
v -0.550000 0.307696 -1.288569
v -0.550000 0.479734 -1.241423
v -0.550000 0.554183 -1.184296
v -0.550000 0.512132 -1.142246
v -0.550000 0.611309 -1.109848
v -0.550000 0.647220 -1.023151
v -0.550000 0.659469 -0.930114
v -0.550000 0.589778 -0.852468
v -0.550000 0.647220 -0.837076
v -0.550000 0.559808 -0.780114
v -0.550000 0.611309 -0.750379
v -0.550000 0.554183 -0.675931
v -0.550000 0.479734 -0.618805
v -0.550000 0.307696 -0.571658
v -0.550000 0.393037 -0.582894
v -0.350000 0.512132 -1.142246
v -0.350000 0.589778 -0.852468
v -0.350000 0.559808 -0.780114
v 0.350000 0.450000 -0.670306
v 0.550000 0.512132 -0.717982
v 0.550000 0.450000 -0.670306
v 0.350000 0.485839 -0.697806
v 0.350000 0.512132 -0.717982
v 0.550000 0.559808 -0.780114
v 0.350000 0.559808 -0.780114
v 0.350000 0.559808 -1.080114
v 0.550000 0.512132 -1.142246
v 0.550000 0.559808 -1.080114
v 0.350000 0.512132 -1.142246
v 0.550000 0.589778 -0.852468
v 0.350000 0.589778 -0.852468
v 0.550000 0.377646 -1.219892
v 0.350000 0.300000 -1.230114
v 0.550000 0.300000 -1.230114
v 0.350000 0.377646 -1.219892
v 0.350000 0.300000 -0.630114
v 0.550000 0.377646 -0.640336
v 0.550000 0.300000 -0.630114
v 0.350000 0.377646 -0.640336
v 0.550000 0.450000 -1.189921
v 0.350000 0.450000 -1.189921
v 0.550000 0.600000 -0.930114
v 0.350000 0.600000 -0.930114
v 0.550000 0.589778 -1.007759
v 0.350000 0.589778 -1.007759
v 0.550000 0.393037 -1.277334
v 0.550000 0.307696 -1.288569
v 0.550000 0.479734 -1.241423
v 0.550000 0.554183 -1.184296
v 0.550000 0.611309 -1.109848
v 0.550000 0.647220 -1.023151
v 0.550000 0.659469 -0.930114
v 0.550000 0.647220 -0.837076
v 0.550000 0.611309 -0.750379
v 0.550000 0.554183 -0.675931
v 0.550000 0.479734 -0.618805
v 0.550000 0.307696 -0.571658
v 0.550000 0.393037 -0.582894
v 0.350000 0.580612 -1.029886
v 0.250000 0.588544 0.276541
v 0.350000 0.488544 0.115489
v 0.350000 0.588544 0.115489
v 0.271033 0.393037 0.242666
v 0.250000 0.474817 0.276541
v 0.278010 0.307696 0.231431
v 0.250000 0.301757 0.276541
v -0.350000 0.488544 0.115489
v -0.278010 0.307696 0.231431
v -0.250000 0.301757 0.276541
v -0.350000 0.588544 0.115489
v -0.271033 0.393037 0.242666
v -0.250000 0.588544 0.276541
v -0.250000 0.474817 0.276541
v 0.067000 0.832544 0.046875
v -0.067000 0.732544 0.046875
v 0.067000 0.732544 0.046875
v -0.067000 0.832544 0.046875
v 0.250000 0.350000 1.129886
v -0.250000 0.300000 1.129886
v 0.250000 0.300000 1.129886
v -0.250000 0.350000 1.129886
v -0.250000 0.389348 1.029886
v 0.250000 0.389348 1.029886
v -0.250000 0.636044 -1.329886
v 0.250000 0.636044 -1.329886
v 0.250000 0.736044 -1.329886
v 0.350000 0.686044 -1.029886
v 0.350000 0.736044 -1.329886
v 0.250000 0.686044 -1.029886
v -0.250000 0.686044 -1.029886
v -0.250000 0.736044 -1.329886
v -0.250000 0.644430 -1.029886
v -0.250000 0.647220 -1.023151
v -0.250000 0.409141 -1.029886
v -0.250000 0.386044 -1.129886
v -0.250000 0.386044 -1.329886
v -0.250000 0.500420 -0.634677
v -0.250000 0.659469 -0.930114
v -0.250000 0.647220 -0.837076
v -0.250000 0.611309 -0.750379
v -0.250000 0.554183 -0.675931
v -0.350000 0.736044 -1.329886
v -0.350000 0.686044 -1.029886
v 0.550000 0.588544 0.065489
v 0.550000 0.488544 0.015489
v 0.550000 0.588544 0.015489
v 0.550000 0.488544 0.065489
v 0.350000 0.488544 0.015489
v -0.550000 0.488544 0.065489
v -0.550000 0.588544 0.015489
v -0.550000 0.488544 0.015489
v -0.550000 0.588544 0.065489
v -0.350000 0.488544 0.015489
v 0.250000 0.386044 -1.129886
v 0.250000 0.386044 -1.329886
v 0.250000 0.409141 -1.029886
v 0.250000 0.500420 -0.634677
v 0.250000 0.644430 -1.029886
v 0.250000 0.647220 -1.023151
v 0.250000 0.659469 -0.930114
v 0.250000 0.647220 -0.837076
v 0.250000 0.611309 -0.750379
v 0.250000 0.554183 -0.675931
v -0.252000 0.588544 -0.253125
v -0.252000 0.732544 -0.253125
v 0.252000 0.732544 -0.253125
v 0.252000 0.588544 -0.253125
v 0.350000 0.588544 -0.253125
v 0.350000 0.500420 -0.634677
v 0.067000 0.732544 -0.253125
v 0.036850 0.570315 -0.853125
v -0.036850 0.570315 -0.853125
v -0.067000 0.732544 -0.253125
v -0.250000 0.300000 0.289886
v -0.250000 0.300000 0.889886
v -0.250000 0.307696 0.948342
v -0.250000 0.393037 0.937106
v -0.250000 0.424054 0.924259
v -0.250000 0.350000 1.129886
v 0.250000 0.307696 0.948342
v 0.250000 0.300000 0.889886
v 0.250000 0.393037 0.937106
v 0.250000 0.424054 0.924259
v 0.250000 0.479734 0.901195
v 0.250000 0.300000 0.289886
v 0.250000 0.554183 0.844069
v 0.250000 0.611309 0.769621
v 0.250000 0.647220 0.682924
v 0.250000 0.659469 0.589886
v 0.250000 0.647220 0.496849
v 0.250000 0.611309 0.410152
v 0.250000 0.554183 0.335704
v 0.250000 0.588544 0.380485
v 0.250000 0.479734 0.278577
v -0.250000 0.479734 0.278577
v -0.250000 0.554183 0.335704
v -0.250000 0.611309 0.410152
v -0.250000 0.588544 0.380485
v -0.250000 0.479734 0.901195
v -0.250000 0.554183 0.844069
v -0.250000 0.647220 0.496849
v -0.250000 0.659469 0.589886
v -0.250000 0.647220 0.682924
v -0.250000 0.611309 0.769621
v -0.350000 0.500420 -0.634677
v -0.350000 0.479734 -0.618805
v -0.350000 0.393037 -1.277334
v -0.350000 0.479734 -1.241423
v -0.350000 0.307696 -0.571658
v -0.350000 0.393037 -0.582894
v 0.350000 0.479734 -0.618805
v 0.350000 0.554183 -1.184296
v 0.350000 0.479734 -1.241423
v 0.350000 0.393037 -1.277334
v 0.350000 0.611309 -1.109848
v 0.350000 0.644430 -1.029886
v -0.350000 0.644430 -1.029886
v -0.350000 0.611309 -1.109848
v -0.350000 0.588544 -0.253125
v -0.350000 0.554183 -1.184296
v -0.350000 0.307696 -1.288569
v 0.350000 0.307696 -1.288569
v 0.350000 0.307696 -0.571658
v 0.350000 0.393037 -0.582894
v -0.153720 0.732544 0.146875
v 0.153720 0.732544 0.146875
v 0.250000 0.350000 1.129886
v 0.250000 0.588544 0.423636
v -0.250000 0.588544 0.423636
v -0.350000 0.588544 0.015489
v 0.350000 0.588544 0.015489
v 0.153720 0.588544 0.146875
v -0.153720 0.588544 0.146875
v 0.067000 0.732544 -0.253125
v 0.067000 0.832544 -0.253125
v -0.067000 0.832544 -0.253125
v -0.067000 0.732544 -0.253125
v 0.067000 0.832544 0.046875
v -0.067000 0.832544 0.046875
v 0.067000 0.732544 0.046875
v -0.067000 0.732544 0.046875
vt 0.468750 0.397061
vt 0.468750 0.412870
vt 0.468750 0.306618
vt 0.468750 0.275000
vt 0.468750 0.338237
vt 0.468750 0.368427
vt 0.468750 0.333824
vt 0.468750 0.322427
vt 0.468750 0.331169
vt 0.468750 0.354046
vt 0.468750 0.373691
vt 0.468750 0.388765
vt 0.468750 0.336035
vt 0.468750 0.309052
vt 0.468750 0.363447
vt 0.468750 0.386987
vt 0.468750 0.405049
vt 0.468750 0.416403
vt 0.468750 0.398241
vt 0.468750 0.420276
vt 0.468750 0.401473
vt 0.468750 0.395343
vt 0.468750 0.365378
vt 0.468750 0.397851
vt 0.468750 0.366233
vt 0.468750 0.361893
vt 0.468750 0.307174
vt 0.468750 0.475000
vt 0.468750 0.443382
vt 0.468750 0.386923
vt 0.968750 0.694488
vt 0.968750 0.678679
vt 0.968750 0.662870
vt 0.968750 0.665521
vt 0.968750 0.666404
vt 0.968750 0.647061
vt 0.968750 0.591127
vt 0.968750 0.583824
vt 0.968750 0.619988
vt 0.968750 0.670276
vt 0.968750 0.655049
vt 0.968750 0.636987
vt 0.968750 0.647851
vt 0.968750 0.616233
vt 0.968750 0.525000
vt 0.968750 0.618427
vt 0.968750 0.693382
vt 0.968750 0.642088
vt 0.968750 0.556618
vt 0.968750 0.557174
vt 0.968750 0.559052
vt 0.968750 0.584869
vt 0.968750 0.586035
vt 0.968750 0.595842
vt 0.968750 0.572427
vt 0.968750 0.613447
vt 0.968750 0.581169
vt 0.968750 0.604046
vt 0.968750 0.623691
vt 0.968750 0.638765
vt 0.968750 0.648241
vt 0.968750 0.651473
vt 0.968750 0.611893
vt 0.968750 0.588237
vt 0.968750 0.615378
vt 0.968750 0.645343
vt 0.968750 0.574492
vt 0.968750 0.605000
vt 0.843750 0.397851
vt 0.843750 0.366233
vt 0.093750 0.193382
vt 0.093750 0.147851
vn 0.000000 -1.000000 0.000000
vn 0.000000 0.000000 1.000000
vn 0.923879 0.382683 0.000000
vn 1.000000 0.000000 0.000000
vn 0.000000 0.000000 -1.000000
vn 0.000000 1.000000 0.000000
vn 0.382683 0.923879 0.000000
vn -1.000000 0.000000 0.000000
vn -0.923879 0.382683 0.000000
vn -0.382683 0.923879 0.000000
vn 0.000000 0.646375 0.763020
vn 0.000000 0.986394 0.164399
vn 0.000000 0.707107 0.707107
vn 0.000000 -0.258819 -0.965926
vn 0.000000 -0.130526 -0.991445
vn 0.000000 -0.500000 -0.866025
vn 0.000000 -0.707107 -0.707107
vn 0.000000 -0.866025 -0.500000
vn 0.000000 -0.866025 0.500000
vn 0.000000 -0.707107 0.707107
vn 0.000000 -0.965926 -0.258819
vn 0.000000 -0.965926 0.258819
vn 0.000000 -0.500000 0.866025
vn 0.000000 -0.258819 0.965926
vn 0.000000 -0.130526 0.991445
vn 0.000000 -0.923879 0.382683
vn 0.000000 -0.608761 -0.793353
vn 0.849553 0.000000 0.527504
vn -0.849553 0.000000 0.527504
vn 0.000000 0.562961 0.826484
vn 0.000000 0.930556 0.366150
vn 0.000000 0.707107 -0.707107
vn 0.788205 0.000000 0.615412
vn -0.788205 0.000000 0.615412
vn -0.986388 0.000000 -0.164435
vn 0.986388 0.000000 -0.164435
vn 0.000000 0.974350 -0.225039
vn 0.000000 0.993854 -0.110694
vn 0.000000 0.993567 -0.113248
vn 0.000000 0.965336 -0.261009
vn 0.000000 0.991029 -0.133650
vn 0.000000 0.990770 -0.135557
vn 0.000000 -0.991445 0.130526
vn 0.000000 0.500000 0.866025
vn 0.000000 0.258819 0.965926
vn 0.000000 0.382683 0.923879
vn 0.000000 0.866025 0.500000
vn 0.000000 -0.991445 -0.130526
vn 0.000000 0.130526 0.991445
vn 0.000000 0.965926 0.258819
vn 0.000000 0.965926 -0.258819
vn 0.000000 0.866025 -0.500000
vn 0.000000 0.793353 -0.608761
vn 0.000000 0.270926 -0.962600
vn 0.000000 0.500000 -0.866025
vn 0.000000 0.258819 -0.965926
vn 0.000000 0.382683 -0.923879
vn 0.000000 0.130526 -0.991445
vn 0.000000 0.608761 0.793353
vn 0.000000 0.923879 -0.382683
vn 0.000000 0.950032 0.312154
vn 0.242536 0.000000 0.970143
vn -0.242536 0.000000 0.970143
vn 0.999634 0.000000 -0.027045
vn 0.998740 0.000000 -0.050187
vn 0.999773 0.000000 -0.021317
vn -0.999773 0.000000 -0.021317
vn -0.998740 0.000000 -0.050187
vn -0.999634 0.000000 -0.027045
vn 0.000000 0.979484 -0.201520
vn 0.000000 0.916309 -0.400471
vn 0.617008 0.000000 0.786957
vn 0.971117 0.000000 0.238603
vn -0.617008 0.000000 0.786957
vn -0.971117 0.000000 0.238603
usemtl colormap
f 1/1/1 2/1/1 3/1/1
f 2/1/1 1/1/1 4/1/1
f 5/2/2 1/1/2 3/1/2
f 1/1/2 5/2/2 6/2/2
f 7/3/3 8/4/4 9/3/3
f 8/4/4 7/3/3 10/4/4
f 11/5/5 8/4/5 12/4/5
f 8/4/5 11/5/5 9/3/5
f 9/3/5 11/5/5 13/5/5
f 7/3/2 14/4/2 10/4/2
f 14/4/2 7/3/2 15/5/2
f 15/5/2 7/3/2 16/5/2
f 11/5/6 16/5/7 13/5/7
f 16/5/7 11/5/6 15/5/6
f 16/5/7 9/3/3 13/5/7
f 9/3/3 16/5/7 7/3/3
f 17/3/5 18/4/5 19/4/5
f 18/4/5 17/3/5 20/5/5
f 20/5/5 17/3/5 21/5/5
f 22/4/8 17/3/9 19/4/8
f 17/3/9 22/4/8 23/3/9
f 21/5/10 24/5/6 20/5/6
f 24/5/6 21/5/10 25/5/10
f 23/3/9 21/5/10 17/3/9
f 21/5/10 23/3/9 25/5/10
f 24/5/2 22/4/2 26/4/2
f 22/4/2 24/5/2 23/3/2
f 23/3/2 24/5/2 25/5/2
f 27/6/5 28/7/5 29/7/5
f 28/7/5 27/6/5 30/6/5
f 31/8/4 32/4/4 33/5/4
f 32/4/4 31/8/4 34/4/4
f 35/5/5 36/4/5 37/4/5
f 36/4/5 35/5/5 38/5/5
f 31/8/11 39/4/2 34/4/2
f 39/4/2 31/8/11 40/8/11
f 35/5/12 41/8/11 38/5/12
f 41/8/11 35/5/12 42/8/11
f 43/5/5 32/4/5 44/4/5
f 32/4/5 43/5/5 33/5/5
f 43/5/12 31/8/11 33/5/12
f 31/8/11 43/5/12 40/8/11
f 45/3/6 46/3/13 47/3/6
f 46/3/13 45/3/6 48/3/13
f 48/3/13 45/3/6 49/3/6
f 48/3/13 49/3/6 50/3/6
f 50/3/5 51/4/5 52/4/5
f 51/4/5 50/3/5 49/3/5
f 53/4/8 35/5/8 37/4/8
f 35/5/8 53/4/8 42/8/8
f 45/3/5 54/4/5 55/4/5
f 54/4/5 45/3/5 47/3/5
f 53/4/1 56/4/1 57/4/1
f 56/4/1 53/4/1 52/4/1
f 52/4/1 53/4/1 36/4/1
f 36/4/1 53/4/1 37/4/1
f 51/4/1 56/4/1 52/4/1
f 55/4/1 56/4/1 51/4/1
f 54/4/1 56/4/1 55/4/1
f 56/4/1 54/4/1 58/4/1
f 44/4/1 58/4/1 54/4/1
f 44/4/1 39/4/1 58/4/1
f 32/4/1 39/4/1 44/4/1
f 39/4/1 32/4/1 34/4/1
f 55/4/1 51/4/1 59/4/1
f 60/4/1 59/4/1 51/4/1
f 61/4/1 59/4/1 60/4/1
f 61/4/1 60/4/1 26/4/1
f 62/4/1 59/4/1 61/4/1
f 61/4/1 26/4/1 18/4/1
f 22/4/1 18/4/1 26/4/1
f 18/4/1 22/4/1 19/4/1
f 12/4/1 59/4/1 62/4/1
f 12/4/1 14/4/1 59/4/1
f 8/4/1 14/4/1 12/4/1
f 14/4/1 8/4/1 10/4/1
f 63/9/14 64/3/15 65/3/15
f 64/3/15 63/9/14 66/9/14
f 67/10/16 66/9/14 63/9/14
f 66/9/14 67/10/16 68/10/16
f 67/10/16 69/11/17 68/10/16
f 69/11/17 67/10/16 70/11/17
f 70/11/17 71/12/18 69/11/17
f 71/12/18 70/11/17 72/12/18
f 73/13/4 74/3/4 75/14/4
f 74/3/4 73/13/4 76/15/4
f 74/3/4 76/15/4 77/9/4
f 77/9/4 76/15/4 78/16/4
f 77/9/4 78/16/4 79/10/4
f 79/10/4 78/16/4 80/11/4
f 80/11/4 78/16/4 81/17/4
f 80/11/4 81/17/4 82/12/4
f 82/12/4 81/17/4 83/18/4
f 82/12/4 83/18/4 84/19/4
f 84/19/4 83/18/4 85/20/4
f 84/19/4 85/20/4 86/21/4
f 86/21/4 85/20/4 87/19/4
f 87/19/4 85/20/4 88/18/4
f 87/19/4 88/18/4 71/12/4
f 71/12/4 88/18/4 89/17/4
f 71/12/4 89/17/4 69/11/4
f 69/11/4 89/17/4 90/16/4
f 69/11/4 90/16/4 68/10/4
f 68/10/4 90/16/4 91/15/4
f 68/10/4 91/15/4 66/9/4
f 66/9/4 91/15/4 64/3/4
f 64/3/4 91/15/4 92/14/4
f 92/14/4 91/15/4 93/13/4
f 94/12/19 80/11/20 82/12/19
f 80/11/20 94/12/19 95/11/20
f 72/12/18 87/19/21 71/12/18
f 87/19/21 72/12/18 96/19/21
f 97/19/22 82/12/19 84/19/22
f 82/12/19 97/19/22 94/12/19
f 79/10/23 98/9/24 77/9/24
f 98/9/24 79/10/23 99/10/23
f 77/9/24 100/3/25 74/3/25
f 100/3/25 77/9/24 98/9/24
f 80/11/20 99/10/23 79/10/23
f 99/10/23 80/11/20 95/11/20
f 96/19/21 86/21/1 87/19/21
f 86/21/1 96/19/21 101/21/1
f 101/21/1 84/19/22 86/21/1
f 84/19/22 101/21/1 97/19/22
f 102/9/24 103/3/25 104/3/25
f 103/3/25 102/9/24 105/9/24
f 106/10/23 107/11/20 108/10/23
f 107/11/20 106/10/23 109/11/20
f 110/12/19 109/11/20 111/12/19
f 109/11/20 110/12/19 107/11/20
f 112/19/22 111/12/19 113/19/22
f 111/12/19 112/19/22 110/12/19
f 114/21/1 113/19/22 115/21/1
f 113/19/22 114/21/1 112/19/22
f 103/3/8 116/13/8 117/14/8
f 116/13/8 103/3/8 118/15/8
f 118/15/8 103/3/8 105/9/8
f 118/15/8 105/9/8 119/16/8
f 119/16/8 105/9/8 108/10/8
f 119/16/8 108/10/8 107/11/8
f 119/16/8 107/11/8 120/17/8
f 120/17/8 107/11/8 110/12/8
f 120/17/8 110/12/8 121/18/8
f 121/18/8 110/12/8 112/19/8
f 121/18/8 112/19/8 122/20/8
f 122/20/8 112/19/8 114/21/8
f 122/20/8 114/21/8 123/19/8
f 122/20/8 123/19/8 124/18/8
f 124/18/8 123/19/8 125/12/8
f 124/18/8 125/12/8 126/17/8
f 126/17/8 125/12/8 127/11/8
f 126/17/8 127/11/8 128/16/8
f 128/16/8 127/11/8 129/10/8
f 128/16/8 129/10/8 130/15/8
f 130/15/8 129/10/8 131/9/8
f 130/15/8 131/9/8 132/3/8
f 130/15/8 132/3/8 133/14/8
f 130/15/8 133/14/8 134/13/8
f 123/19/21 115/21/1 135/19/21
f 115/21/1 123/19/21 114/21/1
f 125/12/18 135/19/21 136/12/18
f 135/19/21 125/12/18 123/19/21
f 127/11/17 137/10/16 129/10/16
f 137/10/16 127/11/17 138/11/17
f 127/11/17 136/12/18 138/11/17
f 136/12/18 127/11/17 125/12/18
f 131/9/14 137/10/16 139/9/14
f 137/10/16 131/9/14 129/10/16
f 132/3/15 139/9/14 140/3/15
f 139/9/14 132/3/15 131/9/14
f 106/10/23 105/9/24 102/9/24
f 105/9/24 106/10/23 108/10/23
f 141/19/22 142/12/19 143/22/26
f 142/12/19 141/19/22 144/19/22
f 142/12/19 144/19/22 145/12/19
f 146/11/17 147/10/16 148/10/16
f 147/10/16 146/11/17 149/23/27
f 149/23/27 146/11/17 150/11/17
f 151/21/1 141/19/22 152/21/1
f 141/19/22 151/21/1 144/19/22
f 153/9/24 154/10/23 155/9/24
f 154/10/23 153/9/24 156/10/23
f 157/9/14 158/3/15 159/3/15
f 158/3/15 157/9/14 160/9/14
f 148/10/16 160/9/14 157/9/14
f 160/9/14 148/10/16 147/10/16
f 161/3/25 155/9/24 162/3/25
f 155/9/24 161/3/25 153/9/24
f 162/3/8 163/13/8 164/14/8
f 163/13/8 162/3/8 165/15/8
f 165/15/8 162/3/8 155/9/8
f 165/15/8 155/9/8 166/16/8
f 166/16/8 155/9/8 154/10/8
f 166/16/8 154/10/8 167/11/8
f 166/16/8 167/11/8 168/17/8
f 168/17/8 167/11/8 145/12/8
f 168/17/8 145/12/8 169/18/8
f 169/18/8 145/12/8 144/19/8
f 169/18/8 144/19/8 170/20/8
f 170/20/8 144/19/8 151/21/8
f 170/20/8 151/21/8 171/19/8
f 170/20/8 171/19/8 172/18/8
f 172/18/8 171/19/8 173/12/8
f 172/18/8 173/12/8 174/17/8
f 174/17/8 173/12/8 146/11/8
f 174/17/8 146/11/8 175/16/8
f 175/16/8 146/11/8 148/10/8
f 175/16/8 148/10/8 176/15/8
f 176/15/8 148/10/8 157/9/8
f 176/15/8 157/9/8 159/3/8
f 176/15/8 159/3/8 177/14/8
f 176/15/8 177/14/8 178/13/8
f 156/10/23 167/11/20 154/10/23
f 167/11/20 156/10/23 179/11/20
f 171/19/21 152/21/1 180/19/21
f 152/21/1 171/19/21 151/21/1
f 173/12/18 180/19/21 181/12/18
f 180/19/21 173/12/18 171/19/21
f 146/11/17 181/12/18 150/11/17
f 181/12/18 146/11/17 173/12/18
f 145/12/19 179/11/20 142/12/19
f 179/11/20 145/12/19 167/11/20
f 182/10/16 183/11/17 184/10/16
f 183/11/17 182/10/16 185/23/27
f 183/11/17 185/23/27 186/11/17
f 186/11/17 187/12/18 183/11/17
f 187/12/18 186/11/17 188/12/18
f 189/12/19 190/11/20 191/12/19
f 190/11/20 189/12/19 192/11/20
f 188/12/18 193/19/21 187/12/18
f 193/19/21 188/12/18 194/19/21
f 195/9/24 196/3/25 197/3/25
f 196/3/25 195/9/24 198/9/24
f 199/3/15 200/9/14 201/3/15
f 200/9/14 199/3/15 202/9/14
f 202/9/14 184/10/16 200/9/14
f 184/10/16 202/9/14 182/10/16
f 203/10/23 198/9/24 195/9/24
f 198/9/24 203/10/23 204/10/23
f 190/11/20 204/10/23 203/10/23
f 204/10/23 190/11/20 192/11/20
f 194/19/21 205/21/1 193/19/21
f 205/21/1 194/19/21 206/21/1
f 206/21/1 207/19/22 205/21/1
f 207/19/22 206/21/1 208/19/22
f 209/13/4 197/3/4 210/14/4
f 197/3/4 209/13/4 211/15/4
f 197/3/4 211/15/4 195/9/4
f 195/9/4 211/15/4 212/16/4
f 195/9/4 212/16/4 203/10/4
f 203/10/4 212/16/4 190/11/4
f 190/11/4 212/16/4 213/17/4
f 190/11/4 213/17/4 191/12/4
f 191/12/4 213/17/4 214/18/4
f 191/12/4 214/18/4 207/19/4
f 207/19/4 214/18/4 215/20/4
f 207/19/4 215/20/4 205/21/4
f 205/21/4 215/20/4 216/18/4
f 205/21/4 216/18/4 193/19/4
f 193/19/4 216/18/4 187/12/4
f 187/12/4 216/18/4 217/17/4
f 187/12/4 217/17/4 183/11/4
f 183/11/4 217/17/4 218/16/4
f 183/11/4 218/16/4 184/10/4
f 184/10/4 218/16/4 219/15/4
f 184/10/4 219/15/4 200/9/4
f 200/9/4 219/15/4 201/3/4
f 201/3/4 219/15/4 220/14/4
f 220/14/4 219/15/4 221/13/4
f 208/19/22 191/12/19 207/19/22
f 191/12/19 208/19/22 222/22/26
f 189/12/19 191/12/19 222/22/26
f 223/24/28 224/25/28 225/24/28
f 224/25/28 223/24/28 15/5/28
f 15/5/28 223/24/28 14/4/28
f 14/4/28 223/24/28 226/13/28
f 226/13/28 223/24/28 227/26/28
f 14/4/28 226/13/28 228/14/28
f 228/14/28 59/4/28 14/4/28
f 59/4/28 228/14/28 229/27/28
f 60/4/29 24/5/29 26/4/29
f 24/5/29 60/4/29 230/25/29
f 230/25/29 60/4/29 231/14/29
f 231/14/29 60/4/29 232/27/29
f 230/25/29 231/14/29 233/24/29
f 234/13/29 233/24/29 231/14/29
f 233/24/29 234/13/29 235/24/29
f 235/24/29 234/13/29 236/26/29
f 237/28/2 238/29/2 239/29/2
f 238/29/2 237/28/2 240/28/2
f 41/8/11 53/4/2 57/4/2
f 53/4/2 41/8/11 42/8/11
f 46/3/13 56/4/2 58/4/2
f 56/4/2 46/3/13 48/3/13
f 39/4/8 46/3/8 58/4/8
f 40/8/8 46/3/8 39/4/8
f 40/8/8 47/3/8 46/3/8
f 43/5/8 47/3/8 40/8/8
f 43/5/8 54/4/8 47/3/8
f 54/4/8 43/5/8 44/4/8
f 56/4/4 41/8/4 57/4/4
f 48/3/4 41/8/4 56/4/4
f 50/3/4 41/8/4 48/3/4
f 50/3/4 38/5/4 41/8/4
f 38/5/4 50/3/4 36/4/4
f 52/4/4 36/4/4 50/3/4
f 241/30/30 242/4/2 243/4/2
f 242/4/2 241/30/30 244/30/30
f 245/28/31 241/30/30 246/28/31
f 241/30/30 245/28/31 244/30/30
f 247/28/32 2/4/5 4/4/5
f 2/4/5 247/28/32 248/28/32
f 247/28/32 5/28/6 248/28/32
f 5/28/6 247/28/32 6/28/6
f 249/31/12 250/32/11 251/31/12
f 250/32/11 249/31/12 252/32/11
f 253/32/4 247/33/4 254/31/4
f 247/33/4 253/32/4 6/33/4
f 6/33/4 253/32/4 255/34/4
f 256/35/4 6/33/4 255/34/4
f 6/33/4 256/35/4 1/36/4
f 1/36/4 256/35/4 257/37/4
f 258/38/4 1/36/4 257/37/4
f 259/38/4 1/36/4 258/38/4
f 1/36/4 259/38/4 4/36/4
f 257/37/4 256/35/4 260/39/4
f 260/39/4 256/35/4 261/40/4
f 260/39/4 261/40/4 262/35/4
f 260/39/4 262/35/4 263/41/4
f 260/39/4 263/41/4 264/42/4
f 265/31/12 253/32/11 254/31/12
f 253/32/11 265/31/12 266/32/11
f 267/43/33 268/44/4 269/43/4
f 268/44/4 267/43/33 270/44/33
f 224/44/1 268/44/1 270/44/1
f 268/44/1 224/44/1 271/44/1
f 272/44/34 273/43/8 274/44/8
f 273/43/8 272/44/34 275/43/34
f 272/44/1 276/44/1 230/44/1
f 276/44/1 272/44/1 274/44/1
f 259/38/6 277/38/6 278/38/6
f 277/38/6 259/38/6 28/38/6
f 28/38/6 259/38/6 29/38/6
f 29/38/6 259/38/6 258/38/6
f 251/31/5 248/33/5 249/31/5
f 251/31/5 2/36/5 248/33/5
f 251/31/5 278/38/5 2/36/5
f 62/45/5 278/38/5 251/31/5
f 278/38/5 62/45/5 259/38/5
f 61/45/5 259/38/5 62/45/5
f 259/38/5 61/45/5 265/31/5
f 259/38/5 265/31/5 4/36/5
f 4/36/5 265/31/5 247/33/5
f 247/33/5 265/31/5 254/31/5
f 277/38/8 2/36/8 278/38/8
f 2/36/8 277/38/8 3/36/8
f 3/36/8 277/38/8 279/37/8
f 280/39/8 3/36/8 279/37/8
f 3/36/8 280/39/8 5/33/8
f 5/33/8 280/39/8 281/34/8
f 281/34/8 280/39/8 282/35/8
f 282/35/8 280/39/8 283/40/8
f 283/40/8 280/39/8 284/35/8
f 284/35/8 280/39/8 285/41/8
f 285/41/8 280/39/8 286/42/8
f 5/33/8 249/31/8 248/33/8
f 249/31/8 5/33/8 252/32/8
f 252/32/8 5/33/8 281/34/8
f 287/43/35 27/46/35 29/38/35
f 27/46/35 287/43/35 288/47/35
f 289/47/36 28/38/36 30/46/36
f 28/38/36 289/47/36 290/43/36
f 28/38/37 279/37/37 277/38/37
f 28/38/37 280/39/37 279/37/37
f 290/43/38 280/39/37 28/38/37
f 291/43/39 280/39/37 290/43/38
f 280/39/37 291/43/39 292/39/37
f 30/46/40 293/47/41 289/47/42
f 293/47/41 30/46/40 294/48/40
f 294/48/40 30/46/40 27/46/40
f 294/48/40 27/46/40 295/48/40
f 295/48/40 27/46/40 296/47/41
f 296/47/41 27/46/40 288/47/42
f 60/45/8 297/49/8 232/50/8
f 297/49/8 60/45/8 51/45/8
f 297/49/8 51/45/8 298/49/8
f 298/49/8 51/45/8 299/51/8
f 299/51/8 51/45/8 245/52/8
f 245/52/8 300/53/8 299/51/8
f 300/53/8 245/52/8 301/54/8
f 245/52/8 51/45/8 302/55/8
f 302/55/8 51/45/8 49/49/8
f 303/51/43 64/49/43 92/51/43
f 64/49/43 303/51/43 65/49/43
f 65/49/43 303/51/43 304/49/43
f 91/56/44 305/53/45 93/53/45
f 305/53/45 91/56/44 306/54/46
f 306/54/46 91/56/44 307/56/44
f 304/49/1 100/49/1 65/49/1
f 100/49/1 304/49/1 308/49/1
f 90/42/13 307/56/44 91/56/44
f 307/56/44 90/42/13 309/42/13
f 89/41/47 309/42/13 90/42/13
f 309/42/13 89/41/47 310/41/47
f 100/49/48 75/51/48 74/49/48
f 75/51/48 100/49/48 228/51/48
f 228/51/48 100/49/48 308/49/48
f 228/51/48 308/49/48 229/50/48
f 98/57/4 65/49/4 100/49/4
f 65/49/4 98/57/4 99/58/4
f 65/49/4 99/58/4 95/59/4
f 65/49/4 95/59/4 94/60/4
f 65/49/4 94/60/4 97/61/4
f 65/49/4 97/61/4 101/62/4
f 65/49/4 101/62/4 96/61/4
f 65/49/4 96/61/4 72/60/4
f 65/49/4 72/60/4 70/59/4
f 65/49/4 70/59/4 67/58/4
f 65/49/4 67/58/4 63/57/4
f 93/53/45 303/51/49 92/51/49
f 303/51/49 93/53/45 305/53/45
f 88/35/50 310/41/47 89/41/47
f 310/41/47 88/35/50 311/35/50
f 85/40/6 311/35/50 88/35/50
f 311/35/50 85/40/6 312/40/6
f 83/35/51 312/40/6 85/40/6
f 312/40/6 83/35/51 313/35/51
f 81/41/52 313/35/51 83/35/51
f 313/35/51 81/41/52 314/41/52
f 315/42/32 316/43/53 78/42/32
f 314/41/52 78/42/32 316/43/53
f 78/42/32 314/41/52 81/41/52
f 226/53/54 76/56/55 73/53/56
f 76/56/55 226/53/54 227/63/57
f 76/56/55 227/63/57 317/56/55
f 317/56/55 78/42/32 76/56/55
f 78/42/32 317/56/55 315/42/32
f 223/43/4 317/56/4 227/63/4
f 317/56/4 223/43/4 315/42/4
f 315/42/4 223/43/4 316/43/4
f 297/49/48 231/51/48 232/50/48
f 231/51/48 297/49/48 104/49/48
f 231/51/48 104/49/48 117/51/48
f 117/51/48 104/49/48 103/49/48
f 133/51/43 298/49/43 299/51/43
f 298/49/43 133/51/43 140/49/43
f 140/49/43 133/51/43 132/49/43
f 140/49/8 102/57/8 104/49/8
f 102/57/8 140/49/8 106/58/8
f 106/58/8 140/49/8 109/59/8
f 109/59/8 140/49/8 111/60/8
f 111/60/8 140/49/8 113/61/8
f 113/61/8 140/49/8 115/62/8
f 115/62/8 140/49/8 135/61/8
f 135/61/8 140/49/8 136/60/8
f 136/60/8 140/49/8 138/59/8
f 138/59/8 140/49/8 137/58/8
f 137/58/8 140/49/8 139/57/8
f 140/49/1 297/49/1 298/49/1
f 297/49/1 140/49/1 104/49/1
f 116/53/56 231/51/58 117/51/58
f 231/51/58 116/53/56 234/53/54
f 118/56/55 234/53/54 116/53/56
f 234/53/54 118/56/55 236/63/57
f 236/63/57 118/56/55 318/56/55
f 119/42/32 318/56/55 118/56/55
f 318/56/55 119/42/32 319/42/32
f 319/42/32 320/41/52 321/43/53
f 320/41/52 319/42/32 120/41/52
f 120/41/52 319/42/32 119/42/32
f 322/56/44 128/42/13 130/56/44
f 128/42/13 322/56/44 323/42/13
f 324/35/51 122/40/6 325/40/6
f 122/40/6 324/35/51 121/35/51
f 320/41/52 121/35/51 324/35/51
f 121/35/51 320/41/52 120/41/52
f 300/53/45 130/56/44 134/53/45
f 130/56/44 300/53/45 301/54/46
f 130/56/44 301/54/46 322/56/44
f 325/40/6 124/35/50 326/35/50
f 124/35/50 325/40/6 122/40/6
f 327/41/47 128/42/13 323/42/13
f 128/42/13 327/41/47 126/41/47
f 299/51/49 134/53/45 133/51/49
f 134/53/45 299/51/49 300/53/45
f 326/35/50 126/41/47 327/41/47
f 126/41/47 326/35/50 124/35/50
f 318/56/8 235/43/8 236/63/8
f 235/43/8 318/56/8 319/42/8
f 235/43/8 319/42/8 321/43/8
f 263/41/47 175/42/13 264/42/13
f 175/42/13 263/41/47 174/41/47
f 264/42/13 328/39/59 260/39/59
f 328/39/59 264/42/13 175/42/13
f 176/56/44 328/39/59 175/42/13
f 328/39/59 176/56/44 329/56/44
f 256/35/51 170/40/6 261/40/6
f 170/40/6 256/35/51 169/35/51
f 262/35/50 174/41/47 263/41/47
f 174/41/47 262/35/50 172/35/50
f 165/56/55 330/53/56 163/53/56
f 330/53/56 165/56/55 331/56/55
f 332/51/49 178/53/45 177/51/49
f 178/53/45 332/51/49 333/53/45
f 261/40/6 172/35/50 262/35/50
f 172/35/50 261/40/6 170/40/6
f 333/53/45 176/56/44 178/53/45
f 176/56/44 333/53/45 329/56/44
f 219/56/44 292/39/59 334/56/44
f 292/39/59 219/56/44 218/42/13
f 292/39/59 218/42/13 280/39/59
f 280/39/59 218/42/13 286/42/13
f 217/41/47 286/42/13 218/42/13
f 286/42/13 217/41/47 285/41/47
f 215/40/6 284/35/50 216/35/50
f 284/35/50 215/40/6 283/40/6
f 214/35/51 283/40/6 215/40/6
f 283/40/6 214/35/51 282/35/51
f 216/35/50 285/41/47 217/41/47
f 285/41/47 216/35/50 284/35/50
f 335/42/32 211/56/55 336/56/55
f 211/56/55 335/42/32 212/42/32
f 337/53/56 211/56/55 209/53/56
f 211/56/55 337/53/56 336/56/55
f 338/41/52 339/34/60 213/41/52
f 339/34/60 214/35/51 213/41/52
f 214/35/51 339/34/60 282/35/51
f 282/35/51 339/34/60 281/34/60
f 340/34/60 256/35/51 255/34/60
f 256/35/51 340/34/60 169/35/51
f 169/35/51 340/34/60 341/41/52
f 169/35/51 341/41/52 168/41/52
f 257/37/37 29/38/37 258/38/37
f 260/39/37 29/38/37 257/37/37
f 29/38/37 260/39/37 287/43/38
f 287/43/38 260/39/37 328/39/37
f 287/43/38 328/39/37 342/43/39
f 343/42/32 168/41/52 341/41/52
f 168/41/52 343/42/32 166/42/32
f 166/42/32 331/56/55 165/56/55
f 331/56/55 166/42/32 343/42/32
f 339/34/2 252/32/11 281/34/2
f 252/32/11 339/34/2 250/32/11
f 255/34/2 266/32/11 340/34/2
f 266/32/11 255/34/2 253/32/11
f 228/51/58 73/53/56 75/51/58
f 73/53/56 228/51/58 226/53/54
f 177/51/43 158/49/43 332/51/43
f 158/49/43 177/51/43 159/49/43
f 163/53/56 344/51/58 164/51/58
f 344/51/58 163/53/56 330/53/56
f 161/49/48 164/51/48 344/51/48
f 164/51/48 161/49/48 162/49/48
f 345/51/58 209/53/56 210/51/58
f 209/53/56 345/51/58 337/53/56
f 221/53/45 346/51/49 220/51/49
f 346/51/49 221/53/45 347/53/45
f 196/49/48 210/51/48 197/49/48
f 210/51/48 196/49/48 345/51/48
f 212/42/32 338/41/52 213/41/52
f 338/41/52 212/42/32 335/42/32
f 346/51/43 201/49/43 220/51/43
f 201/49/43 346/51/43 199/49/43
f 219/56/44 347/53/45 221/53/45
f 347/53/45 219/56/44 334/56/44
f 288/47/42 238/47/6 296/47/41
f 238/47/6 288/47/42 348/47/6
f 348/47/6 239/47/6 238/47/6
f 349/47/6 239/47/6 348/47/6
f 349/47/6 293/47/41 239/47/6
f 293/47/41 349/47/6 289/47/42
f 246/52/4 305/53/4 306/54/4
f 305/53/4 246/52/4 303/51/4
f 55/45/4 303/51/4 246/52/4
f 55/45/4 246/52/4 350/55/4
f 55/45/4 350/55/4 45/49/4
f 55/45/4 304/49/4 303/51/4
f 55/45/4 308/49/4 304/49/4
f 59/45/4 308/49/4 55/45/4
f 308/49/4 59/45/4 229/50/4
f 351/43/61 246/52/61 306/54/61
f 246/52/61 351/43/61 352/43/61
f 246/52/61 352/43/61 301/54/61
f 245/52/61 246/52/61 301/54/61
f 351/43/8 314/41/8 316/43/8
f 314/41/8 351/43/8 313/35/8
f 313/35/8 351/43/8 306/54/8
f 313/35/8 306/54/8 312/40/8
f 312/40/8 306/54/8 311/35/8
f 311/35/8 306/54/8 310/41/8
f 310/41/8 306/54/8 309/42/8
f 309/42/8 306/54/8 307/56/8
f 320/41/4 352/43/4 321/43/4
f 352/43/4 320/41/4 324/35/4
f 352/43/4 324/35/4 301/54/4
f 301/54/4 324/35/4 325/40/4
f 301/54/4 325/40/4 326/35/4
f 301/54/4 326/35/4 327/41/4
f 301/54/4 327/41/4 323/42/4
f 301/54/4 323/42/4 322/56/4
f 276/44/8 24/64/8 230/44/8
f 342/43/8 24/64/8 276/44/8
f 353/43/8 342/43/8 276/44/8
f 342/43/8 20/64/8 24/64/8
f 342/43/8 333/53/8 20/64/8
f 20/64/8 333/53/8 332/51/8
f 20/64/8 332/51/8 18/45/8
f 158/49/8 18/45/8 332/51/8
f 342/43/8 329/56/8 333/53/8
f 329/56/8 332/51/8 333/53/8
f 329/56/8 158/49/8 332/51/8
f 329/56/8 342/43/8 328/39/8
f 328/39/8 158/49/8 329/56/8
f 328/39/8 160/57/8 158/49/8
f 147/58/8 158/49/8 160/57/8
f 328/39/8 147/58/8 160/57/8
f 149/65/8 158/49/8 147/58/8
f 147/58/8 328/39/8 149/65/8
f 150/59/8 158/49/8 149/65/8
f 181/60/8 158/49/8 150/59/8
f 180/61/8 158/49/8 181/60/8
f 152/62/8 158/49/8 180/61/8
f 141/61/8 158/49/8 152/62/8
f 143/66/8 158/49/8 141/61/8
f 142/60/8 158/49/8 143/66/8
f 340/34/8 142/60/8 143/66/8
f 142/60/8 18/45/8 158/49/8
f 341/41/8 142/60/8 340/34/8
f 266/32/8 341/41/8 340/34/8
f 341/41/8 179/59/8 142/60/8
f 179/59/8 18/45/8 142/60/8
f 266/32/8 343/42/8 341/41/8
f 343/42/8 179/59/8 341/41/8
f 265/31/8 343/42/8 266/32/8
f 156/58/8 18/45/8 179/59/8
f 343/42/8 156/58/8 179/59/8
f 343/42/8 153/57/8 156/58/8
f 153/57/8 18/45/8 156/58/8
f 331/56/8 153/57/8 343/42/8
f 343/42/8 265/31/8 331/56/8
f 161/49/8 18/45/8 153/57/8
f 331/56/8 161/49/8 153/57/8
f 331/56/8 265/31/8 330/53/8
f 330/53/8 161/49/8 331/56/8
f 344/51/8 18/45/8 161/49/8
f 161/49/8 330/53/8 344/51/8
f 330/53/8 265/31/8 344/51/8
f 344/51/8 61/45/8 18/45/8
f 61/45/8 344/51/8 265/31/8
f 271/44/4 291/43/4 354/43/4
f 15/64/4 291/43/4 271/44/4
f 15/64/4 271/44/4 224/44/4
f 11/64/4 291/43/4 15/64/4
f 347/53/4 291/43/4 11/64/4
f 347/53/4 11/64/4 346/51/4
f 12/45/4 346/51/4 11/64/4
f 12/45/4 199/49/4 346/51/4
f 334/56/4 291/43/4 347/53/4
f 346/51/4 334/56/4 347/53/4
f 199/49/4 334/56/4 346/51/4
f 291/43/4 334/56/4 292/39/4
f 199/49/4 292/39/4 334/56/4
f 202/57/4 292/39/4 199/49/4
f 199/49/4 182/58/4 202/57/4
f 182/58/4 292/39/4 202/57/4
f 199/49/4 185/65/4 182/58/4
f 292/39/4 182/58/4 185/65/4
f 199/49/4 186/59/4 185/65/4
f 199/49/4 188/60/4 186/59/4
f 199/49/4 194/61/4 188/60/4
f 199/49/4 206/62/4 194/61/4
f 199/49/4 208/61/4 206/62/4
f 199/49/4 222/66/4 208/61/4
f 199/49/4 189/60/4 222/66/4
f 189/60/4 339/34/4 222/66/4
f 12/45/4 189/60/4 199/49/4
f 189/60/4 338/41/4 339/34/4
f 338/41/4 250/32/4 339/34/4
f 192/59/4 338/41/4 189/60/4
f 12/45/4 192/59/4 189/60/4
f 335/42/4 250/32/4 338/41/4
f 192/59/4 335/42/4 338/41/4
f 335/42/4 251/31/4 250/32/4
f 12/45/4 204/58/4 192/59/4
f 204/58/4 335/42/4 192/59/4
f 198/57/4 335/42/4 204/58/4
f 12/45/4 198/57/4 204/58/4
f 336/56/4 251/31/4 335/42/4
f 198/57/4 336/56/4 335/42/4
f 12/45/4 196/49/4 198/57/4
f 196/49/4 336/56/4 198/57/4
f 337/53/4 251/31/4 336/56/4
f 196/49/4 337/53/4 336/56/4
f 251/31/4 337/53/4 62/45/4
f 345/51/4 12/45/4 62/45/4
f 12/45/4 345/51/4 196/49/4
f 337/53/4 196/49/4 345/51/4
f 62/45/4 337/53/4 345/51/4
f 290/43/38 354/43/6 291/43/39
f 354/43/6 290/43/38 225/43/6
f 267/43/6 354/43/6 225/43/6
f 354/43/6 267/43/6 269/43/6
f 225/43/6 290/43/38 223/43/6
f 223/43/6 290/43/38 355/43/6
f 223/43/6 355/43/6 316/43/6
f 352/43/6 316/43/6 355/43/6
f 316/43/6 352/43/6 351/43/6
f 352/43/6 355/43/6 356/43/6
f 352/43/6 356/43/6 235/43/6
f 352/43/6 235/43/6 321/43/6
f 287/43/38 235/43/6 356/43/6
f 235/43/6 287/43/38 233/43/6
f 233/43/6 287/43/38 342/43/39
f 233/43/6 342/43/39 353/43/6
f 233/43/6 353/43/6 273/43/6
f 233/43/6 273/43/6 275/43/6
f 267/43/33 224/44/62 270/44/33
f 224/44/62 267/43/33 225/43/62
f 233/43/63 272/44/34 230/44/63
f 272/44/34 233/43/63 275/43/34
f 357/67/64 294/45/65 358/68/66
f 359/68/67 295/45/68 360/67/69
f 359/68/70 361/68/6 358/68/70
f 361/68/6 359/68/70 362/68/6
f 294/45/71 359/68/70 358/68/70
f 359/68/70 294/45/71 295/45/71
f 361/68/4 357/67/64 358/68/66
f 357/67/64 361/68/4 363/67/4
f 364/67/8 359/68/67 360/67/69
f 359/68/67 364/67/8 362/68/8
f 354/69/5 268/70/5 271/70/5
f 268/70/5 354/69/5 269/69/5
f 273/69/5 276/70/5 274/70/5
f 276/70/5 273/69/5 353/69/5
f 349/71/72 290/72/73 289/71/73
f 290/72/73 349/71/72 355/72/72
f 356/72/74 288/71/75 287/72/75
f 288/71/75 356/72/74 348/71/74
f 349/71/72 356/72/74 355/72/72
f 356/72/74 349/71/72 348/71/74
