# Generated by GTAClone/tools/split_car_wheels.py from race.obj
# Kenney Car Kit (CC0 1.0); the split is a derivative work, also CC0.
mtllib colormap.mtl
v -0.067000 0.732544 -0.203125
v -0.036850 0.470315 -0.803125
v -0.067000 0.632544 -0.203125
v 0.067000 0.632544 -0.203125
v 0.036850 0.470315 -0.803125
v 0.067000 0.732544 -0.203125
v -0.350000 0.488544 0.165489
v -0.550000 0.488544 0.065489
v -0.550000 0.488544 0.165489
v -0.350000 0.488544 0.065489
v -0.350000 0.488544 -0.203125
v -0.252000 0.488544 -0.203125
v -0.235876 0.488544 -0.122722
v -0.206652 0.488544 -0.049793
v -0.165952 0.488544 0.011612
v -0.151250 0.488544 0.326541
v -0.116035 0.488544 0.058084
v -0.151250 0.488544 0.473636
v -0.059675 0.488544 0.087041
v -0.000000 0.488544 0.096875
v 0.059675 0.488544 0.087041
v 0.116035 0.488544 0.058084
v 0.151250 0.488544 0.473636
v 0.151250 0.488544 0.326541
v 0.165952 0.488544 0.011612
v 0.206652 0.488544 -0.049793
v 0.235876 0.488544 -0.122722
v 0.252000 0.488544 -0.203125
v 0.350000 0.488544 0.165489
v 0.350000 0.488544 0.065489
v 0.350000 0.488544 -0.203125
v 0.550000 0.488544 0.165489
v 0.550000 0.488544 0.065489
v 0.105840 0.286044 -1.079886
v 0.250000 0.309141 -0.979886
v 0.250000 0.286044 -1.079886
v 0.350000 0.309141 -0.979886
v 0.250000 0.536044 -0.979886
v 0.250000 0.636044 -1.279886
v 0.250000 0.536044 -1.279886
v 0.250000 0.586044 -0.979886
v 0.350000 0.586044 -0.979886
v 0.350000 0.636044 -1.279886
v -0.350000 0.100000 -1.229886
v -0.350000 0.636044 -1.279886
v -0.350000 0.150000 -1.279886
v -0.350000 0.586044 -0.979886
v -0.350000 0.309141 -0.979886
v -0.350000 0.100000 -0.434511
v -0.350000 0.300000 -0.434511
v -0.350000 0.300000 0.165489
v -0.350000 0.388544 0.065489
v -0.350000 0.388544 0.165489
v -0.250000 0.586044 -0.979886
v -0.250000 0.536044 -1.279886
v -0.250000 0.636044 -1.279886
v -0.250000 0.536044 -0.979886
v 0.350000 0.388544 0.065489
v 0.350000 0.300000 0.165489
v 0.350000 0.388544 0.165489
v 0.350000 0.300000 -0.434511
v 0.350000 0.100000 -0.434511
v 0.350000 0.100000 -1.229886
v 0.350000 0.150000 -1.279886
v 0.550000 0.388544 0.065489
v 0.550000 0.388544 0.165489
v -0.550000 0.388544 0.165489
v -0.550000 0.388544 0.065489
v -0.250000 0.286044 -1.279886
v 0.250000 0.286044 -1.279886
v -0.105840 0.286044 -1.079886
v -0.250000 0.286044 -1.079886
v -0.250000 0.309141 -0.979886
v 0.250000 0.486044 -0.979886
v -0.250000 0.486044 -0.979886
v -0.250000 0.486044 -1.279886
v 0.250000 0.486044 -1.279886
v -0.067000 0.632544 -0.103125
v -0.067000 0.732544 -0.103125
v 0.067000 0.732544 -0.103125
v 0.067000 0.632544 -0.103125
v 0.151250 0.274458 1.017727
v -0.151250 0.274458 1.017727
v -0.151250 0.100000 1.079886
v -0.151250 0.200000 1.079886
v -0.151250 0.300000 0.686805
v -0.151250 0.287857 0.685206
v -0.151250 0.312144 0.685206
v -0.151250 0.276541 0.680519
v -0.151250 0.323459 0.680519
v -0.151250 0.266823 0.673063
v -0.151250 0.333177 0.673063
v -0.151250 0.340633 0.663346
v -0.151250 0.345320 0.652030
v -0.151250 0.346919 0.639886
v -0.151250 0.345320 0.627743
v -0.151250 0.340633 0.616427
v -0.151250 0.259367 0.663346
v -0.151250 0.333177 0.606710
v -0.151250 0.254680 0.652030
v -0.151250 0.253081 0.639886
v -0.151250 0.254680 0.627743
v -0.151250 0.323459 0.599253
v -0.151250 0.100000 0.326541
v -0.151250 0.259367 0.616427
v -0.151250 0.266823 0.606710
v -0.151250 0.276541 0.599253
v -0.151250 0.312144 0.594566
v -0.151250 0.287857 0.594566
v -0.151250 0.300000 0.592967
v 0.151250 0.100000 0.326541
v 0.151250 0.276541 0.599253
v 0.151250 0.287857 0.594566
v 0.151250 0.300000 0.592967
v 0.151250 0.312144 0.594566
v 0.151250 0.266823 0.606710
v 0.151250 0.259367 0.616427
v 0.151250 0.254680 0.627743
v 0.151250 0.100000 1.079886
v 0.151250 0.253081 0.639886
v 0.151250 0.254680 0.652030
v 0.151250 0.323459 0.599253
v 0.151250 0.259367 0.663346
v 0.151250 0.333177 0.606710
v 0.151250 0.266823 0.673063
v 0.151250 0.340633 0.616427
v 0.151250 0.276541 0.680519
v 0.151250 0.345320 0.627743
v 0.151250 0.346919 0.639886
v 0.151250 0.345320 0.652030
v 0.151250 0.287857 0.685206
v 0.151250 0.340633 0.663346
v 0.151250 0.333177 0.673063
v 0.151250 0.323459 0.680519
v 0.151250 0.312144 0.685206
v 0.151250 0.300000 0.686805
v 0.151250 0.200000 1.079886
v -0.252000 0.488544 -0.203125
v -0.105840 0.395484 -1.079886
v -0.252000 0.632544 -0.203125
v 0.252000 0.632544 -0.203125
v 0.105840 0.395484 -1.079886
v 0.252000 0.488544 -0.203125
v -0.067000 0.632544 -0.103125
v -0.067000 0.632544 -0.203125
v -0.116035 0.632544 0.058084
v -0.165952 0.632544 0.011612
v -0.206652 0.632544 -0.049793
v -0.235876 0.632544 -0.122722
v -0.059675 0.632544 0.087041
v -0.000000 0.632544 0.096875
v 0.059675 0.632544 0.087041
v 0.067000 0.632544 -0.103125
v 0.116035 0.632544 0.058084
v 0.067000 0.632544 -0.203125
v 0.165952 0.632544 0.011612
v 0.206652 0.632544 -0.049793
v 0.235876 0.632544 -0.122722
v 0.036850 0.470315 -0.803125
v -0.036850 0.470315 -0.803125
v 0.600000 0.200000 0.165489
v 0.600000 0.100000 -0.434511
v 0.600000 0.200000 -0.434511
v 0.600000 0.100000 0.165489
v 0.500000 0.300000 -0.434511
v 0.350000 0.100000 0.165489
v 0.500000 0.300000 0.165489
v -0.600000 0.200000 -0.434511
v -0.600000 0.100000 -0.434511
v -0.500000 0.300000 -0.434511
v -0.600000 0.100000 0.165489
v -0.600000 0.200000 0.165489
v -0.500000 0.300000 0.165489
v -0.350000 0.100000 0.165489
v -0.450000 0.100000 1.279886
v -0.350000 0.100000 1.229886
v -0.350000 0.100000 1.279886
v -0.350000 0.100000 1.079886
v -0.350000 0.100000 0.979886
v -0.450000 0.100000 0.979886
v 0.350000 0.100000 1.079886
v 0.350000 0.100000 1.229886
v 0.350000 0.100000 0.979886
v 0.350000 0.100000 1.279886
v 0.450000 0.100000 0.979886
v 0.450000 0.100000 1.279886
v 0.450000 0.250000 1.279886
v 0.450000 0.300000 0.979886
v -0.450000 0.300000 0.979886
v -0.350000 0.300000 0.979886
v -0.350000 0.250000 1.279886
v -0.450000 0.250000 1.279886
v 0.350000 0.300000 0.979886
v 0.350000 0.250000 1.279886
v 0.350000 0.200000 1.229886
v 0.350000 0.200000 1.079886
v -0.350000 0.200000 1.229886
v -0.350000 0.200000 1.079886
v 0.300000 0.254680 0.652030
v 0.300000 0.259367 0.663346
v -0.300000 0.345320 0.627743
v -0.300000 0.346919 0.639886
v 0.300000 0.300000 0.592967
v 0.300000 0.287857 0.594566
v -0.300000 0.300000 0.592967
v -0.300000 0.287857 0.594566
v -0.300000 0.259367 0.663346
v -0.300000 0.254680 0.652030
v 0.300000 0.312144 0.685206
v 0.300000 0.300000 0.686805
v -0.300000 0.312144 0.685206
v -0.300000 0.300000 0.686805
v 0.300000 0.346919 0.639886
v 0.300000 0.345320 0.627743
v 0.300000 0.276541 0.680519
v 0.300000 0.266823 0.673063
v -0.300000 0.253081 0.639886
v -0.300000 0.287857 0.685206
v -0.300000 0.323459 0.599253
v -0.300000 0.312144 0.594566
v 0.300000 0.323459 0.599253
v 0.300000 0.312144 0.594566
v -0.300000 0.333177 0.673063
v -0.300000 0.323459 0.680519
v 0.300000 0.253081 0.639886
v 0.300000 0.287857 0.685206
v -0.300000 0.276541 0.680519
v -0.300000 0.266823 0.673063
v 0.300000 0.340633 0.616427
v 0.300000 0.333177 0.606710
v -0.300000 0.333177 0.606710
v -0.300000 0.340633 0.616427
v 0.300000 0.266823 0.606710
v 0.300000 0.276541 0.599253
v 0.300000 0.340633 0.663346
v 0.300000 0.345320 0.652030
v 0.300000 0.333177 0.673063
v 0.300000 0.323459 0.680519
v -0.300000 0.345320 0.652030
v -0.300000 0.340633 0.663346
v -0.300000 0.266823 0.606710
v -0.300000 0.276541 0.599253
v 0.300000 0.259367 0.616427
v -0.300000 0.254680 0.627743
v -0.300000 0.259367 0.616427
v 0.300000 0.254680 0.627743
v -0.350000 0.354529 0.545439
v -0.300000 0.377116 0.562770
v -0.300000 0.354529 0.545439
v -0.350000 0.377116 0.562770
v -0.300000 0.394447 0.585357
v -0.350000 0.394447 0.585357
v -0.350000 0.409058 0.639886
v -0.300000 0.405342 0.668113
v -0.300000 0.409058 0.639886
v -0.350000 0.405342 0.668113
v -0.300000 0.394447 0.694415
v -0.350000 0.394447 0.694415
v -0.350000 0.405342 0.611660
v -0.300000 0.405342 0.611660
v -0.300000 0.377116 0.717002
v -0.350000 0.377116 0.717002
v -0.300000 0.328226 0.534544
v -0.300000 0.271774 0.534544
v -0.300000 0.300000 0.530828
v -0.300000 0.245471 0.545439
v -0.300000 0.222884 0.562770
v -0.300000 0.205553 0.585357
v -0.300000 0.194658 0.611660
v -0.300000 0.190942 0.639886
v -0.300000 0.194658 0.668113
v -0.300000 0.205553 0.694415
v -0.300000 0.222884 0.717002
v -0.300000 0.354529 0.734334
v -0.300000 0.245471 0.734334
v -0.300000 0.328226 0.745229
v -0.300000 0.271774 0.745229
v -0.300000 0.300000 0.748945
v -0.350000 0.328226 0.534544
v -0.350000 0.300000 0.530828
v 0.350000 0.300000 0.748945
v 0.300000 0.271774 0.745229
v 0.350000 0.271774 0.745229
v 0.300000 0.300000 0.748945
v 0.300000 0.405342 0.668113
v 0.350000 0.394447 0.694415
v 0.350000 0.405342 0.668113
v 0.300000 0.394447 0.694415
v -0.350000 0.271774 0.534544
v -0.350000 0.245471 0.545439
v 0.300000 0.245471 0.734334
v 0.350000 0.245471 0.734334
v 0.300000 0.328226 0.534544
v 0.350000 0.300000 0.530828
v 0.300000 0.300000 0.530828
v 0.350000 0.328226 0.534544
v -0.350000 0.190942 0.639886
v -0.350000 0.194658 0.611660
v -0.350000 0.194658 0.668113
v -0.350000 0.205553 0.585357
v 0.350000 0.377116 0.717002
v 0.300000 0.354529 0.734334
v 0.350000 0.354529 0.734334
v 0.300000 0.377116 0.717002
v 0.300000 0.194658 0.611660
v 0.350000 0.205553 0.585357
v 0.350000 0.194658 0.611660
v 0.300000 0.205553 0.585357
v 0.300000 0.405342 0.611660
v 0.350000 0.409058 0.639886
v 0.350000 0.405342 0.611660
v 0.300000 0.409058 0.639886
v 0.300000 0.354529 0.545439
v 0.350000 0.354529 0.545439
v 0.300000 0.271774 0.534544
v 0.300000 0.245471 0.545439
v 0.300000 0.222884 0.562770
v 0.300000 0.377116 0.562770
v 0.300000 0.394447 0.585357
v 0.300000 0.190942 0.639886
v 0.300000 0.194658 0.668113
v 0.300000 0.205553 0.694415
v 0.300000 0.222884 0.717002
v 0.300000 0.328226 0.745229
v -0.350000 0.300000 0.748945
v -0.350000 0.328226 0.745229
v 0.350000 0.245471 0.545439
v 0.350000 0.222884 0.562770
v 0.350000 0.394447 0.585357
v 0.350000 0.377116 0.562770
v 0.350000 0.271774 0.534544
v 0.350000 0.190942 0.639886
v 0.350000 0.194658 0.668113
v -0.350000 0.354529 0.734334
v -0.350000 0.205553 0.694415
v 0.350000 0.205553 0.694415
v 0.350000 0.222884 0.717002
v 0.350000 0.328226 0.745229
v -0.350000 0.222884 0.562770
v -0.350000 0.222884 0.717002
v -0.350000 0.271774 0.745229
v -0.350000 0.245471 0.734334
v -0.250000 0.536044 -1.279886
v 0.250000 0.486044 -1.279886
v -0.250000 0.486044 -1.279886
v 0.250000 0.536044 -1.279886
v 0.250000 0.536044 -0.979886
v -0.250000 0.486044 -0.979886
v 0.250000 0.486044 -0.979886
v -0.250000 0.536044 -0.979886
v 0.059675 0.632544 0.087041
v -0.000000 0.632544 0.096875
v -0.059675 0.632544 0.087041
v -0.252000 0.632544 -0.203125
v -0.235876 0.632544 -0.122722
v -0.116035 0.632544 0.058084
v 0.235876 0.632544 -0.122722
v 0.252000 0.632544 -0.203125
v 0.206652 0.632544 -0.049793
v 0.165952 0.632544 0.011612
v -0.206652 0.632544 -0.049793
v -0.165952 0.632544 0.011612
v 0.116035 0.632544 0.058084
vt 0.843750 0.725000
vt 0.843750 0.642088
vt 0.843750 0.693382
vt 0.843750 0.647851
vt 0.843750 0.583824
vt 0.843750 0.591127
vt 0.843750 0.662870
vt 0.843750 0.694488
vt 0.843750 0.678679
vt 0.843750 0.525000
vt 0.843750 0.540809
vt 0.843750 0.588237
vt 0.843750 0.616233
vt 0.843750 0.647061
vt 0.843750 0.580161
vt 0.843750 0.556618
vt 0.843750 0.584397
vt 0.843750 0.592076
vt 0.843750 0.580819
vt 0.843750 0.595654
vt 0.843750 0.577747
vt 0.843750 0.598727
vt 0.843750 0.601084
vt 0.843750 0.602566
vt 0.843750 0.603072
vt 0.843750 0.575389
vt 0.843750 0.573907
vt 0.843750 0.573402
vt 0.843750 0.571753
vt 0.843750 0.550268
vt 0.843750 0.605000
vt 0.843750 0.567545
vt 0.468750 0.397061
vt 0.468750 0.306618
vt 0.468750 0.275000
vt 0.468750 0.338237
vt 0.468750 0.397851
vt 0.468750 0.366233
vt 0.468750 0.368427
vt 0.468750 0.333824
vt 0.468750 0.322427
vt 0.468750 0.325389
vt 0.468750 0.323907
vt 0.468750 0.352566
vt 0.468750 0.353072
vt 0.468750 0.334397
vt 0.468750 0.342076
vt 0.468750 0.330819
vt 0.468750 0.327747
vt 0.468750 0.323402
vt 0.468750 0.345654
vt 0.468750 0.348727
vt 0.468750 0.351084
vt 0.468750 0.355478
vt 0.468750 0.362619
vt 0.468750 0.368099
vt 0.468750 0.372719
vt 0.468750 0.371544
vt 0.468750 0.347161
vt 0.468750 0.329312
vt 0.468750 0.320995
vt 0.468750 0.313854
vt 0.468750 0.308374
vt 0.468750 0.304929
vt 0.468750 0.303754
vt 0.468750 0.475000
vt 0.468750 0.443382
vt 0.468750 0.290809
vt 0.093750 0.193382
vt 0.093750 0.147851
vt 0.843750 0.397851
vt 0.843750 0.366233
vn -0.999773 0.000000 -0.021317
vn -0.998740 0.000000 -0.050187
vn -0.999634 0.000000 -0.027045
vn 0.999634 0.000000 -0.027045
vn 0.998740 0.000000 -0.050187
vn 0.999773 0.000000 -0.021317
vn 0.000000 1.000000 0.000000
vn -0.707107 0.707107 0.000000
vn 0.000000 0.993567 -0.113248
vn 0.000000 0.993702 -0.112055
vn 0.000000 0.982486 0.186339
vn 0.707107 0.707107 0.000000
vn 0.000000 0.974350 -0.225039
vn -1.000000 0.000000 0.000000
vn 0.000000 0.986394 0.164399
vn 0.000000 0.646375 0.763020
vn 1.000000 0.000000 0.000000
vn 0.000000 0.000000 1.000000
vn 0.000000 -1.000000 0.000000
vn 0.000000 0.916309 -0.400471
vn 0.000000 0.979484 -0.201520
vn 0.000000 0.000000 -1.000000
vn 0.000000 -0.382683 -0.923879
vn 0.000000 0.810948 0.585118
vn 0.000000 0.640857 0.767661
vn -0.986388 0.000000 -0.164435
vn 0.986388 0.000000 -0.164435
vn 0.000000 0.991054 -0.133464
vn 0.000000 0.991029 -0.133650
vn 0.000000 0.965336 -0.261009
vn 0.923879 0.382683 0.000000
vn 0.382683 0.923879 0.000000
vn -0.923879 0.382683 0.000000
vn -0.382683 0.923879 0.000000
vn -0.629573 0.000000 0.776942
vn 0.629573 0.000000 0.776942
vn 0.000000 -0.923879 -0.382683
vn 0.000000 0.707107 0.707107
vn 0.000000 -0.866025 0.500000
vn 0.000000 -0.965926 0.258819
vn 0.000000 0.965926 -0.258819
vn 0.000000 -0.258819 -0.965926
vn 0.000000 0.258819 0.965926
vn 0.000000 -0.500000 0.866025
vn 0.000000 -0.707107 0.707107
vn 0.000000 -0.258819 0.965926
vn 0.000000 0.500000 -0.866025
vn 0.000000 0.258819 -0.965926
vn 0.000000 0.500000 0.866025
vn 0.000000 0.707107 -0.707107
vn 0.000000 0.866025 -0.500000
vn 0.000000 -0.500000 -0.866025
vn 0.000000 -0.707107 -0.707107
vn 0.000000 0.965926 0.258819
vn 0.000000 0.866025 0.500000
vn 0.000000 -0.866025 -0.500000
vn 0.000000 -0.965926 -0.258819
vn 0.313592 0.000000 0.949558
vn -0.313592 0.000000 0.949558
vn -0.958381 0.000000 0.285493
vn -0.980478 0.000000 0.196629
vn -0.574623 0.000000 0.818418
vn 0.958381 0.000000 0.285493
vn 0.980478 0.000000 0.196629
vn 0.885501 0.000000 0.464638
vn 0.762760 0.000000 0.646682
vn -0.762760 0.000000 0.646682
vn -0.885501 0.000000 0.464638
vn 0.574623 0.000000 0.818418
usemtl colormap
f 1/1/1 2/2/2 3/3/3
f 4/3/4 5/2/5 6/1/6
f 7/4/7 8/4/8 9/4/8
f 7/4/7 10/4/7 8/4/8
f 7/4/7 11/4/9 10/4/7
f 7/4/7 12/4/10 11/4/9
f 7/4/7 13/4/7 12/4/10
f 7/4/7 14/4/7 13/4/7
f 7/4/7 15/4/7 14/4/7
f 16/4/7 15/4/7 7/4/7
f 15/4/7 16/4/7 17/4/7
f 18/4/11 17/4/7 16/4/7
f 18/4/11 19/4/7 17/4/7
f 18/4/11 20/4/7 19/4/7
f 18/4/11 21/4/7 20/4/7
f 18/4/11 22/4/7 21/4/7
f 23/4/11 22/4/7 18/4/11
f 24/4/7 22/4/7 23/4/11
f 24/4/7 25/4/7 22/4/7
f 24/4/7 26/4/7 25/4/7
f 24/4/7 27/4/7 26/4/7
f 24/4/7 28/4/10 27/4/7
f 29/4/7 28/4/10 24/4/7
f 30/4/7 28/4/10 29/4/7
f 28/4/10 30/4/7 31/4/9
f 32/4/12 30/4/7 29/4/7
f 30/4/7 32/4/12 33/4/12
f 34/5/13 35/6/13 36/5/13
f 28/4/10 35/6/13 34/5/13
f 31/4/9 35/6/13 28/4/10
f 35/6/13 31/4/9 37/6/13
f 38/7/14 39/8/14 40/7/14
f 39/8/14 38/7/14 41/9/14
f 39/8/15 42/9/16 43/8/15
f 42/9/16 39/8/15 41/9/16
f 44/10/14 45/8/14 46/11/14
f 45/8/14 44/10/14 47/9/14
f 47/9/14 44/10/14 48/6/14
f 49/10/14 48/6/14 44/10/14
f 48/6/14 49/10/14 50/12/14
f 48/6/14 50/12/14 11/4/14
f 11/4/14 50/12/14 51/12/14
f 11/4/14 51/12/14 52/13/14
f 52/13/14 51/12/14 53/13/14
f 10/4/14 11/4/14 52/13/14
f 54/9/17 55/7/17 56/8/17
f 55/7/17 54/9/17 57/7/17
f 45/8/15 54/9/16 56/8/15
f 54/9/16 45/8/15 47/9/16
f 58/13/17 31/4/17 30/4/17
f 59/12/17 31/4/17 58/13/17
f 59/12/17 58/13/17 60/13/17
f 61/12/17 31/4/17 59/12/17
f 31/4/17 61/12/17 37/6/17
f 62/10/17 37/6/17 61/12/17
f 63/10/17 37/6/17 62/10/17
f 63/10/17 42/9/17 37/6/17
f 64/11/17 42/9/17 63/10/17
f 42/9/17 64/11/17 43/8/17
f 32/4/12 65/13/17 33/4/12
f 65/13/17 32/4/12 66/13/17
f 32/4/18 60/13/18 66/13/18
f 60/13/18 32/4/18 29/4/18
f 60/13/19 65/13/19 66/13/19
f 65/13/19 60/13/19 58/13/19
f 7/4/18 67/13/18 53/13/18
f 67/13/18 7/4/18 9/4/18
f 67/13/14 8/4/8 68/13/14
f 8/4/8 67/13/14 9/4/8
f 67/13/19 52/13/19 53/13/19
f 52/13/19 67/13/19 68/13/19
f 69/5/7 36/5/7 70/5/7
f 36/5/7 69/5/7 34/5/7
f 34/5/7 69/5/7 71/5/7
f 71/5/7 69/5/7 72/5/7
f 73/6/13 71/5/13 72/5/13
f 71/5/13 73/6/13 12/4/10
f 12/4/10 73/6/13 48/6/13
f 12/4/10 48/6/13 11/4/9
f 42/9/16 35/6/18 37/6/18
f 35/6/18 42/9/16 74/14/18
f 74/14/18 42/9/16 38/7/18
f 38/7/18 42/9/16 41/9/16
f 75/14/18 48/6/18 73/6/18
f 48/6/18 75/14/18 47/9/16
f 47/9/16 75/14/18 57/7/18
f 47/9/16 57/7/18 54/9/16
f 75/14/17 69/5/17 76/14/17
f 69/5/17 75/14/17 72/5/17
f 72/5/17 75/14/17 73/6/17
f 36/5/14 77/14/14 70/5/14
f 77/14/14 36/5/14 74/14/14
f 74/14/14 36/5/14 35/6/14
f 78/3/14 1/1/1 3/3/3
f 1/1/1 78/3/14 79/1/14
f 5/2/20 1/1/21 6/1/21
f 1/1/21 5/2/20 2/2/20
f 1/1/21 80/1/7 6/1/21
f 80/1/7 1/1/21 79/1/7
f 80/1/17 4/3/4 6/1/6
f 4/3/4 80/1/17 81/3/17
f 55/7/22 45/8/22 56/8/22
f 76/14/22 45/8/22 55/7/22
f 69/5/22 45/8/22 76/14/22
f 69/5/22 46/11/23 45/8/22
f 46/11/23 69/5/22 64/11/23
f 70/5/22 64/11/23 69/5/22
f 64/11/23 70/5/22 43/8/22
f 43/8/22 70/5/22 77/14/22
f 43/8/22 77/14/22 40/7/22
f 43/8/22 40/7/22 39/8/22
f 18/4/11 82/15/24 23/4/11
f 82/15/24 18/4/11 83/15/24
f 83/15/14 84/10/14 85/16/14
f 86/12/14 84/10/14 83/15/14
f 87/17/14 84/10/14 86/12/14
f 83/15/14 88/18/14 86/12/14
f 89/19/14 84/10/14 87/17/14
f 83/15/14 90/20/14 88/18/14
f 91/21/14 84/10/14 89/19/14
f 83/15/14 92/22/14 90/20/14
f 83/15/14 93/23/14 92/22/14
f 83/15/14 94/24/14 93/23/14
f 18/4/14 94/24/14 83/15/14
f 94/24/14 18/4/14 95/25/14
f 95/25/14 18/4/14 96/24/14
f 96/24/14 18/4/14 97/23/14
f 98/26/14 84/10/14 91/21/14
f 97/23/14 18/4/14 99/22/14
f 100/27/14 84/10/14 98/26/14
f 101/28/14 84/10/14 100/27/14
f 102/27/14 84/10/14 101/28/14
f 99/22/14 18/4/14 103/20/14
f 102/27/14 104/10/14 84/10/14
f 105/26/14 104/10/14 102/27/14
f 106/21/14 104/10/14 105/26/14
f 104/10/14 106/21/14 16/4/14
f 16/4/14 106/21/14 107/19/14
f 16/4/14 107/19/14 18/4/14
f 103/20/14 18/4/14 108/18/14
f 18/4/14 107/19/14 109/17/14
f 108/18/14 18/4/14 110/12/14
f 18/4/14 109/17/14 110/12/14
f 23/4/17 111/10/17 24/4/17
f 111/10/17 23/4/17 112/19/17
f 112/19/17 23/4/17 113/17/17
f 113/17/17 23/4/17 114/12/17
f 23/4/17 115/18/17 114/12/17
f 111/10/17 112/19/17 116/21/17
f 111/10/17 116/21/17 117/26/17
f 111/10/17 117/26/17 118/27/17
f 111/10/17 118/27/17 119/10/17
f 119/10/17 118/27/17 120/28/17
f 119/10/17 120/28/17 121/27/17
f 115/18/17 23/4/17 122/20/17
f 119/10/17 121/27/17 123/26/17
f 122/20/17 23/4/17 124/22/17
f 119/10/17 123/26/17 125/21/17
f 124/22/17 23/4/17 126/23/17
f 119/10/17 125/21/17 127/19/17
f 126/23/17 23/4/17 128/24/17
f 128/24/17 23/4/17 129/25/17
f 129/25/17 23/4/17 130/24/17
f 130/24/17 23/4/17 82/15/17
f 119/10/17 127/19/17 131/17/17
f 130/24/17 82/15/17 132/23/17
f 132/23/17 82/15/17 133/22/17
f 133/22/17 82/15/17 134/20/17
f 134/20/17 82/15/17 135/18/17
f 119/10/17 131/17/17 136/12/17
f 135/18/17 82/15/17 136/12/17
f 119/10/17 136/12/17 82/15/17
f 119/10/17 82/15/17 137/16/17
f 82/15/24 85/16/25 137/16/25
f 85/16/25 82/15/24 83/15/24
f 138/29/26 139/30/26 71/10/26
f 139/30/26 138/29/26 140/31/26
f 141/31/27 34/10/27 142/30/27
f 34/10/27 141/31/27 143/29/27
f 140/31/28 144/31/7 145/31/29
f 144/31/7 140/31/28 146/31/7
f 146/31/7 140/31/28 147/31/7
f 147/31/7 140/31/28 148/31/7
f 148/31/7 140/31/28 149/31/7
f 150/31/7 144/31/7 146/31/7
f 151/31/7 144/31/7 150/31/7
f 152/31/7 144/31/7 151/31/7
f 152/31/7 153/31/7 144/31/7
f 154/31/7 153/31/7 152/31/7
f 154/31/7 155/31/29 153/31/7
f 156/31/7 155/31/29 154/31/7
f 157/31/7 155/31/29 156/31/7
f 158/31/7 155/31/29 157/31/7
f 155/31/29 158/31/7 141/31/28
f 142/30/30 155/31/29 141/31/28
f 155/31/29 142/30/30 159/32/30
f 159/32/30 142/30/30 139/30/30
f 159/32/30 139/30/30 160/32/30
f 160/32/30 139/30/30 145/31/29
f 145/31/29 139/30/30 140/31/28
f 75/33/19 77/33/19 74/33/19
f 77/33/19 75/33/19 76/33/19
f 161/34/31 162/35/17 163/34/31
f 162/35/17 161/34/31 164/35/17
f 61/36/22 162/35/22 62/35/22
f 162/35/22 61/36/22 163/34/22
f 163/34/22 61/36/22 165/36/22
f 161/34/18 166/35/18 164/35/18
f 166/35/18 161/34/18 59/36/18
f 59/36/18 161/34/18 167/36/18
f 61/36/7 167/36/32 165/36/32
f 167/36/32 61/36/7 59/36/7
f 167/36/32 163/34/31 165/36/32
f 163/34/31 167/36/32 161/34/31
f 168/34/22 49/35/22 169/35/22
f 49/35/22 168/34/22 50/36/22
f 50/36/22 168/34/22 170/36/22
f 171/35/14 168/34/33 169/35/14
f 168/34/33 171/35/14 172/34/33
f 170/36/34 51/36/7 50/36/7
f 51/36/7 170/36/34 173/36/34
f 172/34/33 170/36/34 168/34/33
f 170/36/34 172/34/33 173/36/34
f 51/36/18 171/35/18 174/35/18
f 171/35/18 51/36/18 172/34/18
f 172/34/18 51/36/18 173/36/18
f 16/37/35 174/35/35 104/35/35
f 174/35/35 16/37/35 51/36/35
f 51/36/35 16/37/35 53/38/35
f 53/38/35 16/37/35 7/37/35
f 59/36/36 111/35/36 166/35/36
f 111/35/36 59/36/36 24/37/36
f 24/37/36 59/36/36 60/38/36
f 24/37/36 60/38/36 29/37/36
f 139/39/22 34/40/22 71/40/22
f 34/40/22 139/39/22 142/39/22
f 175/35/19 176/35/19 177/35/19
f 176/35/19 175/35/19 178/35/19
f 178/35/19 175/35/19 179/35/19
f 179/35/19 175/35/19 180/35/19
f 84/35/19 176/35/19 178/35/19
f 119/35/19 176/35/19 84/35/19
f 181/35/19 176/35/19 119/35/19
f 176/35/19 181/35/19 182/35/19
f 183/35/19 182/35/19 181/35/19
f 183/35/19 184/35/19 182/35/19
f 185/35/19 184/35/19 183/35/19
f 184/35/19 185/35/19 186/35/19
f 119/35/19 84/35/19 111/35/19
f 104/35/19 111/35/19 84/35/19
f 44/35/37 111/35/19 104/35/19
f 44/35/37 104/35/19 174/35/19
f 63/35/37 111/35/19 44/35/37
f 44/35/37 174/35/19 49/35/19
f 171/35/19 49/35/19 174/35/19
f 49/35/19 171/35/19 169/35/19
f 62/35/19 111/35/19 63/35/37
f 62/35/19 166/35/19 111/35/19
f 162/35/19 166/35/19 62/35/19
f 166/35/19 162/35/19 164/35/19
f 187/41/17 185/35/17 188/36/17
f 185/35/17 187/41/17 186/35/17
f 189/36/22 179/35/22 180/35/22
f 179/35/22 189/36/22 190/36/22
f 189/36/15 191/41/16 190/36/15
f 191/41/16 189/36/15 192/41/16
f 193/36/22 185/35/22 183/35/22
f 185/35/22 193/36/22 188/36/22
f 193/36/15 187/41/16 188/36/15
f 187/41/16 193/36/15 194/41/16
f 187/41/16 184/35/18 186/35/18
f 184/35/18 187/41/16 194/41/16
f 191/41/16 175/35/18 177/35/18
f 175/35/18 191/41/16 192/41/16
f 137/34/7 195/34/38 196/34/7
f 195/34/38 137/34/7 197/34/38
f 197/34/38 137/34/7 85/34/7
f 197/34/38 85/34/7 198/34/7
f 198/34/22 84/35/22 178/35/22
f 84/35/22 198/34/22 85/34/22
f 175/35/14 189/36/14 180/35/14
f 189/36/14 175/35/14 192/41/14
f 123/42/39 199/43/40 200/42/39
f 199/43/40 123/42/39 121/43/40
f 201/44/41 95/45/7 96/44/41
f 95/45/7 201/44/41 202/45/7
f 113/46/42 203/36/22 204/46/42
f 203/36/22 113/46/42 114/36/22
f 205/36/22 109/46/42 206/46/42
f 109/46/42 205/36/22 110/36/22
f 207/42/39 100/43/40 98/42/39
f 100/43/40 207/42/39 208/43/40
f 209/47/43 136/36/18 210/36/18
f 136/36/18 209/47/43 135/47/43
f 86/36/18 211/47/43 212/36/18
f 211/47/43 86/36/18 88/47/43
f 128/44/41 213/45/7 214/44/41
f 213/45/7 128/44/41 129/45/7
f 215/48/44 125/49/45 216/49/45
f 125/49/45 215/48/44 127/48/44
f 208/43/40 101/50/19 100/43/40
f 101/50/19 208/43/40 217/50/19
f 86/36/18 218/46/46 87/46/46
f 218/46/46 86/36/18 212/36/18
f 219/51/47 108/47/48 220/47/48
f 108/47/48 219/51/47 103/51/47
f 115/47/48 221/51/47 222/47/48
f 221/51/47 115/47/48 122/51/47
f 90/51/49 223/52/38 224/51/49
f 223/52/38 90/51/49 92/52/38
f 121/43/40 225/50/19 199/43/40
f 225/50/19 121/43/40 120/50/19
f 226/46/46 127/48/44 215/48/44
f 127/48/44 226/46/46 131/46/46
f 91/49/45 227/48/44 228/49/45
f 227/48/44 91/49/45 89/48/44
f 124/52/50 229/53/51 230/52/50
f 229/53/51 124/52/50 126/53/51
f 231/52/50 97/53/51 99/52/50
f 97/53/51 231/52/50 232/53/51
f 112/48/52 233/49/53 116/49/53
f 233/49/53 112/48/52 234/48/52
f 89/48/44 218/46/46 227/48/44
f 218/46/46 89/48/44 87/46/46
f 231/52/50 103/51/47 219/51/47
f 103/51/47 231/52/50 99/52/50
f 130/44/54 235/53/55 236/44/54
f 235/53/55 130/44/54 132/53/55
f 237/52/38 134/51/49 238/51/49
f 134/51/49 237/52/38 133/52/38
f 239/44/54 93/53/55 94/44/54
f 93/53/55 239/44/54 240/53/55
f 226/46/46 136/36/18 131/46/46
f 136/36/18 226/46/46 210/36/18
f 241/49/53 107/48/52 106/49/53
f 107/48/52 241/49/53 242/48/52
f 122/51/47 230/52/50 221/51/47
f 230/52/50 122/51/47 124/52/50
f 117/42/56 233/49/53 243/42/56
f 233/49/53 117/42/56 116/49/53
f 242/48/52 109/46/42 107/48/52
f 109/46/42 242/48/52 206/46/42
f 220/47/48 110/36/22 205/36/22
f 110/36/22 220/47/48 108/47/48
f 238/51/49 135/47/43 209/47/43
f 135/47/43 238/51/49 134/51/49
f 244/43/57 105/42/56 102/43/57
f 105/42/56 244/43/57 245/42/56
f 126/53/51 214/44/41 229/53/51
f 214/44/41 126/53/51 128/44/41
f 202/45/7 94/44/54 95/45/7
f 94/44/54 202/45/7 239/44/54
f 88/47/43 224/51/49 211/47/43
f 224/51/49 88/47/43 90/51/49
f 232/53/51 96/44/41 97/53/51
f 96/44/41 232/53/51 201/44/41
f 118/43/57 243/42/56 246/43/57
f 243/42/56 118/43/57 117/42/56
f 113/46/42 234/48/52 112/48/52
f 234/48/52 113/46/42 204/46/42
f 217/50/19 102/43/57 101/50/19
f 102/43/57 217/50/19 244/43/57
f 245/42/56 106/49/53 105/42/56
f 106/49/53 245/42/56 241/49/53
f 125/49/45 200/42/39 216/49/45
f 200/42/39 125/49/45 123/42/39
f 114/36/22 222/47/48 203/36/22
f 222/47/48 114/36/22 115/47/48
f 129/45/7 236/44/54 213/45/7
f 236/44/54 129/45/7 130/44/54
f 240/53/55 92/52/38 93/53/55
f 92/52/38 240/53/55 223/52/38
f 228/49/45 98/42/39 91/49/45
f 98/42/39 228/49/45 207/42/39
f 120/50/19 246/43/57 225/50/19
f 246/43/57 120/50/19 118/43/57
f 132/53/55 237/52/38 235/53/55
f 237/52/38 132/53/55 133/52/38
f 137/34/22 181/35/22 119/35/22
f 181/35/22 137/34/22 196/34/22
f 247/54/47 248/55/50 249/54/47
f 248/55/50 247/54/47 250/55/50
f 250/55/50 251/56/51 248/55/50
f 251/56/51 250/55/50 252/56/51
f 253/57/7 254/58/54 255/57/7
f 254/58/54 253/57/7 256/58/54
f 256/58/54 257/56/55 254/58/54
f 257/56/55 256/58/54 258/56/55
f 259/58/41 255/57/7 260/58/41
f 255/57/7 259/58/41 253/57/7
f 258/56/55 261/55/38 257/56/55
f 261/55/38 258/56/55 262/55/38
f 252/56/51 260/58/41 251/56/51
f 260/58/41 252/56/51 259/58/41
f 263/59/17 264/60/17 265/36/17
f 264/60/17 263/59/17 249/54/17
f 264/60/17 249/54/17 266/61/17
f 266/61/17 249/54/17 248/55/17
f 266/61/17 248/55/17 267/62/17
f 267/62/17 248/55/17 251/56/17
f 267/62/17 251/56/17 268/63/17
f 268/63/17 251/56/17 205/36/17
f 205/36/17 251/56/17 220/47/17
f 206/46/17 268/63/17 205/36/17
f 220/47/17 251/56/17 260/58/17
f 268/63/17 206/46/17 269/64/17
f 220/47/17 260/58/17 219/51/17
f 219/51/17 260/58/17 231/52/17
f 231/52/17 260/58/17 232/53/17
f 269/64/17 206/46/17 242/48/17
f 269/64/17 242/48/17 241/49/17
f 269/64/17 241/49/17 245/42/17
f 232/53/17 260/58/17 255/57/17
f 232/53/17 255/57/17 201/44/17
f 201/44/17 255/57/17 202/45/17
f 269/64/17 245/42/17 270/65/17
f 202/45/17 255/57/17 254/58/17
f 270/65/17 245/42/17 244/43/17
f 270/65/17 244/43/17 217/50/17
f 270/65/17 217/50/17 208/43/17
f 202/45/17 254/58/17 239/44/17
f 239/44/17 254/58/17 240/53/17
f 240/53/17 254/58/17 223/52/17
f 270/65/17 208/43/17 271/64/17
f 271/64/17 208/43/17 207/42/17
f 271/64/17 207/42/17 228/49/17
f 223/52/17 254/58/17 257/56/17
f 271/64/17 228/49/17 272/63/17
f 223/52/17 257/56/17 224/51/17
f 272/63/17 228/49/17 227/48/17
f 224/51/17 257/56/17 211/47/17
f 272/63/17 227/48/17 218/46/17
f 211/47/17 257/56/17 212/36/17
f 272/63/17 218/46/17 212/36/17
f 272/63/17 212/36/17 257/56/17
f 272/63/17 257/56/17 261/55/17
f 272/63/17 261/55/17 273/62/17
f 273/62/17 261/55/17 274/54/17
f 273/62/17 274/54/17 275/61/17
f 275/61/17 274/54/17 276/59/17
f 275/61/17 276/59/17 277/60/17
f 277/60/17 276/59/17 278/36/17
f 279/59/48 249/54/47 263/59/48
f 249/54/47 279/59/48 247/54/47
f 280/36/22 263/59/48 265/36/22
f 263/59/48 280/36/22 279/59/48
f 281/36/18 282/60/46 283/60/46
f 282/60/46 281/36/18 284/36/18
f 285/58/54 286/56/55 287/58/54
f 286/56/55 285/58/54 288/56/55
f 289/60/42 266/61/52 290/61/52
f 266/61/52 289/60/42 264/60/42
f 283/60/46 291/61/44 292/61/44
f 291/61/44 283/60/46 282/60/46
f 293/59/48 294/36/22 295/36/22
f 294/36/22 293/59/48 296/59/48
f 297/65/19 269/64/57 270/65/19
f 269/64/57 297/65/19 298/64/57
f 299/64/40 270/65/19 271/64/40
f 270/65/19 299/64/40 297/65/19
f 298/64/57 268/63/56 269/64/57
f 268/63/56 298/64/57 300/63/56
f 301/55/38 302/54/49 303/54/49
f 302/54/49 301/55/38 304/55/38
f 305/64/57 306/63/56 307/64/57
f 306/63/56 305/64/57 308/63/56
f 309/58/41 310/57/7 311/58/41
f 310/57/7 309/58/41 312/57/7
f 288/56/55 301/55/38 286/56/55
f 301/55/38 288/56/55 304/55/38
f 313/54/47 296/59/48 293/59/48
f 296/59/48 313/54/47 314/54/47
f 315/60/14 293/59/14 295/36/14
f 293/59/14 315/60/14 316/61/14
f 293/59/14 316/61/14 313/54/14
f 313/54/14 316/61/14 317/62/14
f 313/54/14 317/62/14 318/55/14
f 318/55/14 317/62/14 308/63/14
f 318/55/14 308/63/14 319/56/14
f 319/56/14 308/63/14 203/36/14
f 203/36/14 308/63/14 204/46/14
f 222/47/14 319/56/14 203/36/14
f 204/46/14 308/63/14 305/64/14
f 319/56/14 222/47/14 309/58/14
f 204/46/14 305/64/14 234/48/14
f 234/48/14 305/64/14 233/49/14
f 233/49/14 305/64/14 243/42/14
f 309/58/14 222/47/14 221/51/14
f 309/58/14 221/51/14 230/52/14
f 309/58/14 230/52/14 229/53/14
f 243/42/14 305/64/14 320/65/14
f 309/58/14 229/53/14 312/57/14
f 243/42/14 320/65/14 246/43/14
f 246/43/14 320/65/14 225/50/14
f 225/50/14 320/65/14 199/43/14
f 312/57/14 229/53/14 214/44/14
f 312/57/14 214/44/14 213/45/14
f 312/57/14 213/45/14 236/44/14
f 199/43/14 320/65/14 321/64/14
f 199/43/14 321/64/14 200/42/14
f 200/42/14 321/64/14 216/49/14
f 312/57/14 236/44/14 285/58/14
f 285/58/14 236/44/14 235/53/14
f 285/58/14 235/53/14 237/52/14
f 216/49/14 321/64/14 322/63/14
f 285/58/14 237/52/14 288/56/14
f 216/49/14 322/63/14 215/48/14
f 288/56/14 237/52/14 238/51/14
f 215/48/14 322/63/14 226/46/14
f 288/56/14 238/51/14 209/47/14
f 226/46/14 322/63/14 210/36/14
f 288/56/14 209/47/14 210/36/14
f 288/56/14 210/36/14 322/63/14
f 288/56/14 322/63/14 323/62/14
f 288/56/14 323/62/14 304/55/14
f 304/55/14 323/62/14 291/61/14
f 304/55/14 291/61/14 302/54/14
f 302/54/14 291/61/14 282/60/14
f 302/54/14 282/60/14 324/59/14
f 324/59/14 282/60/14 284/36/14
f 276/59/43 325/36/18 278/36/18
f 325/36/18 276/59/43 326/59/43
f 317/62/53 327/61/52 328/62/53
f 327/61/52 317/62/53 316/61/52
f 318/55/50 329/56/51 330/55/50
f 329/56/51 318/55/50 319/56/51
f 295/36/22 331/60/42 315/60/42
f 331/60/42 295/36/22 294/36/22
f 321/64/40 332/65/19 333/64/40
f 332/65/19 321/64/40 320/65/19
f 261/55/38 334/54/49 274/54/49
f 334/54/49 261/55/38 262/55/38
f 335/63/39 271/64/40 272/63/39
f 271/64/40 335/63/39 299/64/40
f 318/55/50 314/54/47 313/54/47
f 314/54/47 318/55/50 330/55/50
f 323/62/45 336/63/39 337/62/45
f 336/63/39 323/62/45 322/63/39
f 322/63/39 333/64/40 336/63/39
f 333/64/40 322/63/39 321/64/40
f 292/61/44 323/62/45 337/62/45
f 323/62/45 292/61/44 291/61/44
f 280/36/22 264/60/42 289/60/42
f 264/60/42 280/36/22 265/36/22
f 338/59/43 284/36/18 281/36/18
f 284/36/18 338/59/43 324/59/43
f 319/56/51 311/58/41 329/56/51
f 311/58/41 319/56/51 309/58/41
f 312/57/7 287/58/54 310/57/7
f 287/58/54 312/57/7 285/58/54
f 320/65/19 307/64/57 332/65/19
f 307/64/57 320/65/19 305/64/57
f 290/61/52 267/62/53 339/62/53
f 267/62/53 290/61/52 266/61/52
f 340/62/45 272/63/39 273/62/45
f 272/63/39 340/62/45 335/63/39
f 315/60/42 327/61/52 316/61/52
f 327/61/52 315/60/42 331/60/42
f 308/63/56 328/62/53 306/63/56
f 328/62/53 308/63/56 317/62/53
f 300/63/56 267/62/53 268/63/56
f 267/62/53 300/63/56 339/62/53
f 278/36/18 341/60/46 277/60/46
f 341/60/46 278/36/18 325/36/18
f 303/54/49 324/59/43 338/59/43
f 324/59/43 303/54/49 302/54/49
f 275/61/44 340/62/45 273/62/45
f 340/62/45 275/61/44 342/61/44
f 274/54/49 326/59/43 276/59/43
f 326/59/43 274/54/49 334/54/49
f 277/60/46 342/61/44 275/61/44
f 342/61/44 277/60/46 341/60/46
f 80/66/18 78/67/18 81/67/18
f 78/67/18 80/66/18 79/66/18
f 195/34/38 176/35/18 182/35/18
f 176/35/18 195/34/38 197/34/38
f 184/35/14 195/34/14 182/35/14
f 194/41/14 195/34/14 184/35/14
f 194/41/14 196/34/14 195/34/14
f 193/36/14 196/34/14 194/41/14
f 193/36/14 181/35/14 196/34/14
f 181/35/14 193/36/14 183/35/14
f 176/35/17 191/41/17 177/35/17
f 197/34/17 191/41/17 176/35/17
f 198/34/17 191/41/17 197/34/17
f 198/34/17 190/36/17 191/41/17
f 190/36/17 198/34/17 179/35/17
f 178/35/17 179/35/17 198/34/17
f 46/68/23 63/35/37 44/35/37
f 63/35/37 46/68/23 64/68/23
f 343/66/50 344/35/22 345/35/22
f 344/35/22 343/66/50 346/66/50
f 347/66/38 348/35/18 349/35/18
f 348/35/18 347/66/38 350/66/38
f 343/66/50 347/66/38 346/66/50
f 347/66/38 343/66/50 350/66/38
f 351/69/58 20/70/18 21/70/58
f 20/70/18 351/69/58 352/69/18
f 352/69/18 19/70/59 20/70/18
f 19/70/59 352/69/18 353/69/59
f 13/70/60 354/69/61 12/70/61
f 354/69/61 13/70/60 355/69/60
f 353/69/59 17/70/62 19/70/59
f 17/70/62 353/69/59 356/69/62
f 357/69/63 28/70/64 358/69/64
f 28/70/64 357/69/63 27/70/63
f 359/69/65 27/70/63 357/69/63
f 27/70/63 359/69/65 26/70/65
f 360/69/66 26/70/65 359/69/65
f 26/70/65 360/69/66 25/70/66
f 15/70/67 361/69/68 14/70/68
f 361/69/68 15/70/67 362/69/67
f 14/70/68 355/69/60 13/70/60
f 355/69/60 14/70/68 361/69/68
f 363/69/69 21/70/58 22/70/69
f 21/70/58 363/69/69 351/69/58
f 356/69/62 15/70/67 17/70/62
f 15/70/67 356/69/62 362/69/67
f 360/69/66 22/70/69 25/70/66
f 22/70/69 360/69/66 363/69/69
f 30/71/22 65/72/22 58/72/22
f 65/72/22 30/71/22 33/71/22
f 8/71/22 52/72/22 68/72/22
f 52/72/22 8/71/22 10/71/22
