# Generated by GTAClone/tools/split_car_wheels.py from race.obj group wheel-front-left
# Kenney Car Kit (CC0 1.0); the split is a derivative work, also CC0.
mtllib colormap.mtl
v 0.050000 -0.077646 -0.289778
v 0.150000 -0.127500 -0.220837
v 0.050000 -0.150000 -0.259808
v 0.150000 -0.065999 -0.246311
v -0.050000 0.150000 -0.259808
v 0.050000 0.077646 -0.289778
v -0.050000 0.077646 -0.289778
v 0.050000 0.150000 -0.259808
v 0.050000 0.289778 0.077646
v -0.050000 0.300000 -0.000000
v -0.050000 0.289778 0.077646
v 0.050000 0.300000 -0.000000
v 0.050000 0.000000 0.300000
v -0.050000 -0.077646 0.289778
v 0.050000 -0.077646 0.289778
v -0.050000 0.000000 0.300000
v -0.050000 0.289778 -0.077646
v 0.050000 0.259808 -0.150000
v -0.050000 0.259808 -0.150000
v 0.050000 0.289778 -0.077646
v -0.050000 -0.077646 -0.289778
v -0.050000 -0.150000 -0.259808
v 0.150000 0.127500 -0.220837
v 0.150000 0.065999 -0.246311
v -0.050000 0.259808 0.150000
v 0.050000 0.259808 0.150000
v -0.050000 0.212132 -0.212132
v 0.050000 0.212132 -0.212132
v 0.050000 -0.300000 -0.000000
v 0.150000 -0.246311 0.065999
v 0.050000 -0.289778 0.077646
v 0.150000 -0.255000 -0.000000
v 0.150000 0.255000 -0.000000
v 0.150000 0.246311 -0.065999
v 0.150000 -0.065999 0.246311
v 0.150000 0.000000 0.255000
v -0.050000 -0.259808 0.150000
v -0.050000 -0.289778 0.077646
v 0.050000 -0.259808 0.150000
v 0.150000 0.127500 0.220836
v 0.050000 0.077646 0.289778
v 0.150000 0.065999 0.246311
v 0.050000 0.150000 0.259808
v 0.150000 0.000000 -0.255000
v 0.050000 0.000000 -0.300000
v 0.050000 -0.259808 -0.150000
v -0.050000 -0.289778 -0.077646
v -0.050000 -0.259808 -0.150000
v 0.050000 -0.289778 -0.077646
v 0.150000 -0.220836 0.127500
v 0.150000 0.220837 -0.127500
v 0.150000 0.180312 -0.180312
v -0.050000 0.000000 -0.300000
v -0.050000 0.077646 0.289778
v -0.050000 0.150000 0.259808
v 0.150000 0.246311 0.065999
v 0.150000 -0.127500 0.220836
v 0.050000 -0.150000 0.259808
v 0.150000 -0.246311 -0.065999
v 0.150000 0.180312 0.180312
v 0.050000 0.212132 0.212132
v -0.050000 -0.300000 -0.000000
v -0.050000 -0.150000 0.259808
v 0.150000 0.220837 0.127500
v 0.150000 -0.180312 0.180312
v 0.050000 -0.212132 0.212132
v 0.150000 -0.180312 -0.180312
v 0.050000 -0.212132 -0.212132
v 0.150000 -0.220836 -0.127500
v -0.050000 0.212132 0.212132
v -0.050000 -0.212132 -0.212132
v -0.050000 -0.212132 0.212132
v -0.150000 0.000000 0.255000
v -0.150000 0.065999 0.246311
v -0.150000 0.127500 0.220836
v -0.150000 0.180312 0.180312
v -0.150000 0.220837 0.127500
v -0.150000 0.246311 0.065999
v -0.150000 -0.065999 -0.246311
v -0.150000 0.000000 -0.255000
v -0.150000 -0.065999 0.246311
v -0.150000 -0.127500 0.220836
v -0.150000 -0.180312 0.180312
v -0.150000 -0.220836 0.127500
v -0.150000 -0.246311 0.065999
v -0.150000 0.255000 -0.000000
v -0.150000 -0.255000 -0.000000
v -0.150000 0.246311 -0.065999
v -0.150000 -0.246311 -0.065999
v -0.150000 0.220837 -0.127500
v -0.150000 -0.220836 -0.127500
v -0.150000 0.180312 -0.180312
v -0.150000 -0.180312 -0.180312
v -0.150000 0.127500 -0.220837
v -0.150000 -0.127500 -0.220837
v -0.150000 0.065999 -0.246311
v 0.050000 0.071139 0.041072
v 0.150000 0.077446 0.077446
v 0.050000 0.058085 0.058085
v 0.150000 0.094852 0.054763
v 0.050000 -0.079345 -0.021260
v 0.150000 -0.094852 -0.054763
v 0.050000 -0.071139 -0.041072
v 0.150000 -0.105793 -0.028347
v 0.050000 -0.021260 0.079345
v 0.050000 0.021261 0.079345
v 0.050000 0.000000 0.082144
v 0.050000 -0.041072 0.071139
v 0.050000 0.041072 0.071139
v 0.050000 -0.058085 0.058085
v 0.050000 -0.071139 0.041072
v 0.050000 -0.079345 0.021260
v 0.050000 0.079345 0.021260
v 0.050000 -0.082144 -0.000000
v 0.050000 0.082144 -0.000000
v 0.050000 0.079345 -0.021260
v 0.050000 0.071139 -0.041072
v 0.050000 -0.058085 -0.058085
v 0.050000 0.058085 -0.058085
v 0.050000 -0.041072 -0.071139
v 0.050000 0.041072 -0.071139
v 0.050000 -0.021260 -0.079345
v 0.050000 0.021261 -0.079345
v 0.050000 0.000000 -0.082144
v 0.150000 0.000000 0.109525
v 0.150000 0.028347 0.105793
v 0.150000 0.054763 -0.094852
v 0.150000 0.077446 -0.077446
v 0.150000 -0.028347 0.105793
v 0.150000 -0.054763 0.094852
v 0.150000 -0.077446 -0.077446
v 0.150000 -0.077446 0.077446
v 0.150000 -0.054763 -0.094852
v 0.150000 0.054763 0.094852
v 0.150000 0.105793 -0.028347
v 0.150000 0.109525 -0.000000
v 0.150000 0.105793 0.028347
v 0.150000 0.094852 -0.054763
v 0.150000 0.000000 -0.109525
v 0.150000 -0.028347 -0.105793
v 0.150000 0.028347 -0.105793
v 0.150000 -0.094852 0.054763
v 0.150000 -0.105793 0.028347
v 0.150000 -0.109525 -0.000000
v 0.150000 0.042674 -0.159262
v 0.150000 -0.042674 -0.159262
v 0.150000 0.000000 -0.164880
v 0.150000 0.082440 -0.142790
v 0.150000 -0.082440 -0.142790
v 0.150000 -0.116588 -0.116588
v 0.150000 0.116588 -0.116588
v 0.150000 0.142790 -0.082440
v 0.150000 -0.142790 -0.082440
v 0.150000 0.159262 -0.042674
v 0.150000 0.105793 -0.028347
v 0.150000 0.164880 -0.000000
v 0.150000 0.109525 -0.000000
v 0.150000 -0.159262 -0.042674
v 0.150000 0.159262 0.042674
v 0.150000 0.105793 0.028347
v 0.150000 -0.164880 -0.000000
v 0.150000 -0.109525 -0.000000
v 0.150000 -0.159262 0.042674
v 0.150000 0.142790 0.082440
v 0.150000 -0.142790 0.082440
v 0.150000 0.116588 0.116588
v 0.150000 -0.116588 0.116588
v 0.150000 0.082440 0.142790
v 0.150000 -0.082440 0.142790
v 0.150000 0.042674 0.159262
v 0.150000 -0.042674 0.159262
v 0.150000 0.000000 0.164880
v 0.150000 -0.116588 0.116588
v 0.150000 0.116588 0.116588
v 0.150000 -0.142790 0.082440
v 0.150000 0.142790 0.082440
v 0.150000 0.159262 0.042674
v 0.150000 -0.142790 -0.082440
v 0.150000 0.159262 -0.042674
v 0.150000 0.142790 -0.082440
v 0.150000 -0.116588 -0.116588
v 0.150000 0.116588 -0.116588
vt 0.343750 0.275000
vt 0.343750 0.375000
vt 0.343750 0.326764
vt 0.343750 0.468185
vt 0.343750 0.475000
vt 0.343750 0.448205
vt 0.343750 0.360000
vt 0.343750 0.318999
vt 0.343750 0.416421
vt 0.343750 0.445000
vt 0.343750 0.439207
vt 0.343750 0.422224
vt 0.343750 0.395208
vt 0.468750 0.322426
vt 0.468750 0.326631
vt 0.468750 0.313723
vt 0.468750 0.338234
vt 0.468750 0.275000
vt 0.468750 0.289174
vt 0.468750 0.302381
vt 0.468750 0.327897
vt 0.468750 0.329763
vt 0.468750 0.293898
vt 0.468750 0.311509
vt 0.468750 0.345529
vt 0.468750 0.348017
vt 0.468750 0.400882
vt 0.468750 0.349118
vt 0.468750 0.375000
vt 0.468750 0.425000
vt 0.468750 0.325000
vt 0.468750 0.304289
vt 0.468750 0.445711
vt 0.468750 0.392193
vt 0.468750 0.357807
vt 0.468750 0.461603
vt 0.468750 0.408214
vt 0.468750 0.421971
vt 0.468750 0.288397
vt 0.468750 0.341786
vt 0.468750 0.328029
vt 0.468750 0.471593
vt 0.468750 0.432528
vt 0.468750 0.439164
vt 0.468750 0.475000
vt 0.468750 0.441427
vt 0.468750 0.278407
vt 0.468750 0.317472
vt 0.468750 0.310836
vt 0.468750 0.308573
vt 0.593750 0.525000
vt 0.593750 0.568999
vt 0.593750 0.610000
vt 0.593750 0.645208
vt 0.593750 0.553449
vt 0.593750 0.672224
vt 0.593750 0.579960
vt 0.593750 0.602725
vt 0.593750 0.689207
vt 0.593750 0.620194
vt 0.593750 0.631175
vt 0.593750 0.695000
vt 0.593750 0.634920
vn 0.206363 -0.253248 -0.945135
vn 0.410365 -0.455961 -0.789747
vn 0.206363 -0.489238 -0.847385
vn 0.410365 -0.236023 -0.880849
vn -0.206363 0.489238 -0.847385
vn 0.206363 0.253248 -0.945135
vn -0.206363 0.253248 -0.945135
vn 0.206363 0.489238 -0.847385
vn 0.206363 0.945135 0.253248
vn -0.206363 0.978476 0.000000
vn -0.206363 0.945135 0.253248
vn 0.206363 0.978476 -0.000000
vn 0.206363 0.000000 0.978476
vn -0.206363 -0.253248 0.945135
vn 0.206363 -0.253248 0.945135
vn -0.206363 0.000000 0.978476
vn -0.206363 0.945135 -0.253248
vn 0.206363 0.847385 -0.489238
vn -0.206363 0.847385 -0.489238
vn 0.206363 0.945135 -0.253248
vn -0.206363 -0.253248 -0.945135
vn -0.206363 -0.489238 -0.847385
vn 0.410365 0.455961 -0.789747
vn 0.410365 0.236023 -0.880849
vn -0.206363 0.847385 0.489238
vn 0.206363 0.847385 0.489238
vn -0.206363 0.691887 -0.691887
vn 0.206363 0.691887 -0.691887
vn 0.206363 -0.978476 -0.000000
vn 0.410365 -0.880849 0.236023
vn 0.206363 -0.945135 0.253248
vn 0.410365 -0.911922 -0.000000
vn 0.410365 0.911922 -0.000000
vn 0.410365 0.880849 -0.236023
vn 0.410365 -0.236023 0.880849
vn 0.410365 0.000000 0.911922
vn -0.206363 -0.847385 0.489238
vn -0.206363 -0.945135 0.253248
vn 0.206363 -0.847385 0.489238
vn 0.410365 0.455961 0.789747
vn 0.206363 0.253248 0.945135
vn 0.410365 0.236023 0.880849
vn 0.206363 0.489238 0.847385
vn 0.410365 0.000000 -0.911922
vn 0.206363 0.000000 -0.978476
vn 0.206363 -0.847385 -0.489238
vn -0.206363 -0.945135 -0.253248
vn -0.206363 -0.847385 -0.489238
vn 0.206363 -0.945135 -0.253248
vn 0.410365 -0.789747 0.455961
vn 0.410365 0.789747 -0.455961
vn 0.410365 0.644826 -0.644826
vn -0.206363 0.000000 -0.978476
vn -0.206363 0.253248 0.945135
vn -0.206363 0.489238 0.847385
vn 0.410365 0.880849 0.236023
vn 0.410365 -0.455961 0.789747
vn 0.206363 -0.489238 0.847385
vn 0.410365 -0.880849 -0.236023
vn 0.410365 0.644826 0.644826
vn 0.206363 0.691887 0.691887
vn -0.206363 -0.978476 0.000000
vn -0.206363 -0.489238 0.847385
vn 0.410365 0.789747 0.455961
vn 0.410365 -0.644826 0.644826
vn 0.206363 -0.691887 0.691887
vn 0.410365 -0.644826 -0.644826
vn 0.206363 -0.691887 -0.691887
vn 0.410365 -0.789747 -0.455961
vn -0.206363 0.691887 0.691887
vn -0.206363 -0.691887 -0.691887
vn -0.206363 -0.691887 0.691887
vn -0.410365 0.000000 0.911922
vn -0.410365 0.236023 0.880849
vn -0.410365 0.455961 0.789747
vn -0.410365 0.644826 0.644826
vn -0.410365 0.789747 0.455961
vn -0.410365 0.880849 0.236023
vn -0.410365 -0.236023 -0.880849
vn -0.410365 0.000000 -0.911922
vn -1.000000 0.000000 0.000000
vn -0.410365 -0.789747 -0.455961
vn -0.410365 -0.644826 -0.644826
vn -0.410365 0.455961 -0.789747
vn -0.410365 0.236023 -0.880849
vn -0.410365 -0.455961 -0.789747
vn -0.410365 -0.880849 -0.236023
vn -0.410365 -0.911922 0.000000
vn -0.410365 -0.880849 0.236023
vn -0.410365 -0.789747 0.455961
vn -0.410365 -0.644826 0.644826
vn -0.410365 -0.455961 0.789747
vn -0.410365 -0.236023 0.880849
vn -0.410365 0.644826 -0.644826
vn -0.410365 0.911922 0.000000
vn -0.410365 0.880849 -0.236023
vn -0.410365 0.789747 -0.455961
vn 0.264093 -0.835279 -0.482249
vn 0.264093 -0.682003 -0.682003
vn 0.264092 0.931633 0.249630
vn 0.264093 0.835279 0.482249
vn 1.000000 0.000000 -0.000000
vn 0.264092 -0.249630 -0.931633
vn 0.264093 0.000000 -0.964497
vn 0.264093 -0.482249 0.835279
vn 0.264093 -0.682003 0.682003
vn 0.264093 0.482249 -0.835279
vn 0.264092 0.249630 -0.931633
vn 0.264093 0.682003 0.682003
vn 0.264093 0.682003 -0.682003
vn 0.264093 0.482249 0.835279
vn 0.264093 -0.482249 -0.835279
vn 0.264092 -0.931633 0.249630
vn 0.264093 -0.964497 -0.000000
vn 0.264092 -0.931633 -0.249630
vn 0.264093 -0.835279 0.482249
vn 0.264093 0.000000 0.964497
vn 0.264092 0.249630 0.931633
vn 0.264092 -0.249630 0.931633
vn 0.264093 0.835279 -0.482249
vn 0.264092 0.931633 -0.249630
vn 0.264093 0.964497 -0.000000
vn 1.000000 0.000000 0.000000
usemtl colormap
f 1/1/1 2/1/2 3/1/3
f 2/1/2 1/1/1 4/1/4
f 5/2/5 6/3/6 7/3/7
f 6/3/6 5/2/5 8/2/8
f 9/4/9 10/5/10 11/4/11
f 10/5/10 9/4/9 12/5/12
f 13/1/13 14/1/14 15/1/15
f 14/1/14 13/1/13 16/1/16
f 17/4/17 18/6/18 19/6/19
f 18/6/18 17/4/17 20/4/20
f 21/1/21 3/1/3 22/1/22
f 3/1/3 21/1/21 1/1/1
f 6/3/6 23/7/23 24/8/24
f 23/7/23 6/3/6 8/2/8
f 25/6/25 9/4/9 11/4/11
f 9/4/9 25/6/25 26/6/26
f 27/9/27 8/2/8 5/2/5
f 8/2/8 27/9/27 28/9/28
f 29/1/29 30/1/30 31/1/31
f 30/1/30 29/1/29 32/1/32
f 33/10/33 20/4/20 12/5/12
f 20/4/20 33/10/33 34/11/34
f 35/1/35 13/1/13 15/1/15
f 13/1/13 35/1/35 36/1/36
f 31/1/31 37/1/37 38/1/38
f 37/1/37 31/1/31 39/1/39
f 40/7/40 41/3/41 42/8/42
f 41/3/41 40/7/40 43/2/43
f 6/3/6 44/1/44 45/1/45
f 44/1/44 6/3/6 24/8/24
f 46/1/46 47/1/47 48/1/48
f 47/1/47 46/1/46 49/1/49
f 30/1/30 39/1/39 31/1/31
f 39/1/39 30/1/30 50/1/50
f 51/12/51 28/9/28 18/6/18
f 28/9/28 51/12/51 52/13/52
f 45/1/45 4/1/4 1/1/1
f 4/1/4 45/1/45 44/1/44
f 20/4/20 51/12/51 18/6/18
f 51/12/51 20/4/20 34/11/34
f 53/1/53 1/1/1 21/1/21
f 1/1/1 53/1/53 45/1/45
f 43/2/43 54/3/54 41/3/41
f 54/3/54 43/2/43 55/2/55
f 56/11/56 12/5/12 9/4/9
f 12/5/12 56/11/56 33/10/33
f 57/1/57 15/1/15 58/1/58
f 15/1/15 57/1/57 35/1/35
f 59/1/59 29/1/29 49/1/49
f 29/1/29 59/1/59 32/1/32
f 60/13/60 43/2/43 40/7/40
f 43/2/43 60/13/60 61/9/61
f 62/1/62 31/1/31 38/1/38
f 31/1/31 62/1/62 29/1/29
f 7/3/7 45/1/45 53/1/53
f 45/1/45 7/3/7 6/3/6
f 15/1/15 63/1/63 58/1/58
f 63/1/63 15/1/15 14/1/14
f 26/6/26 56/11/56 9/4/9
f 56/11/56 26/6/26 64/12/64
f 65/1/65 58/1/58 66/1/66
f 58/1/58 65/1/65 57/1/57
f 8/2/8 52/13/52 23/7/23
f 52/13/52 8/2/8 28/9/28
f 67/1/67 46/1/46 68/1/68
f 46/1/46 67/1/67 69/1/69
f 69/1/69 49/1/49 46/1/46
f 49/1/49 69/1/69 59/1/59
f 49/1/49 62/1/62 47/1/47
f 62/1/62 49/1/49 29/1/29
f 41/3/41 16/1/16 13/1/13
f 16/1/16 41/3/41 54/3/54
f 50/1/50 66/1/66 39/1/39
f 66/1/66 50/1/50 65/1/65
f 70/9/70 26/6/26 25/6/25
f 26/6/26 70/9/70 61/9/61
f 3/1/3 67/1/67 68/1/68
f 67/1/67 3/1/3 2/1/2
f 42/8/42 13/1/13 36/1/36
f 13/1/13 42/8/42 41/3/41
f 68/1/68 48/1/48 71/1/71
f 48/1/48 68/1/68 46/1/46
f 61/9/61 64/12/64 26/6/26
f 64/12/64 61/9/61 60/13/60
f 10/5/10 20/4/20 17/4/17
f 20/4/20 10/5/10 12/5/12
f 19/6/19 28/9/28 27/9/27
f 28/9/28 19/6/19 18/6/18
f 39/1/39 72/1/72 37/1/37
f 72/1/72 39/1/39 66/1/66
f 61/9/61 55/2/55 43/2/43
f 55/2/55 61/9/61 70/9/70
f 58/1/58 72/1/72 66/1/66
f 72/1/72 58/1/58 63/1/63
f 22/1/22 68/1/68 71/1/71
f 68/1/68 22/1/22 3/1/3
f 54/3/54 73/1/73 16/1/16
f 73/1/73 54/3/54 74/8/74
f 54/3/54 75/7/75 74/8/74
f 75/7/75 54/3/54 55/2/55
f 55/2/55 76/13/76 75/7/75
f 76/13/76 55/2/55 70/9/70
f 77/12/77 11/4/11 78/11/78
f 11/4/11 77/12/77 25/6/25
f 79/1/79 53/1/53 21/1/21
f 53/1/53 79/1/79 80/1/80
f 74/8/81 81/1/81 73/1/81
f 81/1/81 74/8/81 75/7/81
f 81/1/81 75/7/81 82/1/81
f 82/1/81 75/7/81 76/13/81
f 82/1/81 76/13/81 83/1/81
f 83/1/81 76/13/81 77/12/81
f 83/1/81 77/12/81 84/1/81
f 84/1/81 77/12/81 78/11/81
f 84/1/81 78/11/81 85/1/81
f 85/1/81 78/11/81 86/10/81
f 85/1/81 86/10/81 87/1/81
f 87/1/81 86/10/81 88/11/81
f 87/1/81 88/11/81 89/1/81
f 89/1/81 88/11/81 90/12/81
f 89/1/81 90/12/81 91/1/81
f 91/1/81 90/12/81 92/13/81
f 91/1/81 92/13/81 93/1/81
f 93/1/81 92/13/81 94/7/81
f 93/1/81 94/7/81 95/1/81
f 95/1/81 94/7/81 96/8/81
f 95/1/81 96/8/81 79/1/81
f 79/1/81 96/8/81 80/1/81
f 71/1/71 91/1/82 93/1/83
f 91/1/82 71/1/71 48/1/48
f 94/7/84 7/3/7 96/8/85
f 7/3/7 94/7/84 5/2/5
f 95/1/86 21/1/21 22/1/22
f 21/1/21 95/1/86 79/1/79
f 48/1/48 89/1/87 91/1/82
f 89/1/87 48/1/48 47/1/47
f 96/8/85 53/1/53 80/1/80
f 53/1/53 96/8/85 7/3/7
f 47/1/47 87/1/88 89/1/87
f 87/1/88 47/1/47 62/1/62
f 62/1/62 85/1/89 87/1/88
f 85/1/89 62/1/62 38/1/38
f 93/1/83 22/1/22 71/1/71
f 22/1/22 93/1/83 95/1/86
f 38/1/38 84/1/90 85/1/89
f 84/1/90 38/1/38 37/1/37
f 37/1/37 83/1/91 84/1/90
f 83/1/91 37/1/37 72/1/72
f 63/1/63 83/1/91 72/1/72
f 83/1/91 63/1/63 82/1/92
f 16/1/16 81/1/93 14/1/14
f 81/1/93 16/1/16 73/1/73
f 92/13/94 5/2/5 94/7/84
f 5/2/5 92/13/94 27/9/27
f 14/1/14 82/1/92 63/1/63
f 82/1/92 14/1/14 81/1/93
f 78/11/78 10/5/10 86/10/95
f 10/5/10 78/11/78 11/4/11
f 88/11/96 19/6/19 90/12/97
f 19/6/19 88/11/96 17/4/17
f 86/10/95 17/4/17 88/11/96
f 17/4/17 86/10/95 10/5/10
f 76/13/76 25/6/25 77/12/77
f 25/6/25 76/13/76 70/9/70
f 90/12/97 27/9/27 92/13/94
f 27/9/27 90/12/97 19/6/19
f 97/14/98 98/15/99 99/16/99
f 98/15/99 97/14/98 100/17/98
f 101/18/100 102/18/101 103/18/101
f 102/18/101 101/18/100 104/18/100
f 105/18/102 106/19/102 107/18/102
f 106/19/102 105/18/102 108/18/102
f 106/19/102 108/18/102 109/20/102
f 109/20/102 108/18/102 110/18/102
f 109/20/102 110/18/102 99/16/102
f 99/16/102 110/18/102 111/18/102
f 99/16/102 111/18/102 97/14/102
f 97/14/102 111/18/102 112/18/102
f 97/14/102 112/18/102 113/21/102
f 113/21/102 112/18/102 114/18/102
f 113/21/102 114/18/102 115/22/102
f 115/22/102 114/18/102 101/18/102
f 115/22/102 101/18/102 116/21/102
f 116/21/102 101/18/102 103/18/102
f 116/21/102 103/18/102 117/14/102
f 117/14/102 103/18/102 118/18/102
f 117/14/102 118/18/102 119/16/102
f 119/16/102 118/18/102 120/18/102
f 119/16/102 120/18/102 121/20/102
f 121/20/102 120/18/102 122/18/102
f 121/20/102 122/18/102 123/19/102
f 123/19/102 122/18/102 124/18/102
f 106/19/103 125/18/104 107/18/104
f 125/18/104 106/19/103 126/23/103
f 127/24/105 119/16/106 121/20/105
f 119/16/106 127/24/105 128/15/106
f 108/18/107 129/18/108 130/18/107
f 129/18/108 108/18/107 105/18/108
f 103/18/101 131/18/109 118/18/109
f 131/18/109 103/18/101 102/18/101
f 110/18/110 130/18/107 132/18/110
f 130/18/107 110/18/110 108/18/107
f 133/18/111 118/18/109 131/18/109
f 118/18/109 133/18/111 120/18/111
f 99/16/99 134/24/112 109/20/112
f 134/24/112 99/16/99 98/15/99
f 109/20/112 126/23/103 106/19/103
f 126/23/103 109/20/112 134/24/112
f 135/25/113 115/22/114 116/21/113
f 115/22/114 135/25/113 136/26/114
f 136/26/114 113/21/115 115/22/114
f 113/21/115 136/26/114 137/25/115
f 113/21/115 100/17/98 97/14/98
f 100/17/98 113/21/115 137/25/115
f 128/15/106 117/14/116 119/16/106
f 117/14/116 128/15/106 138/17/116
f 139/18/117 122/18/118 140/18/118
f 122/18/118 139/18/117 124/18/117
f 141/23/119 124/18/117 139/18/117
f 124/18/117 141/23/119 123/19/119
f 142/18/120 112/18/121 111/18/120
f 112/18/121 142/18/120 143/18/121
f 144/18/122 101/18/100 114/18/122
f 101/18/100 144/18/122 104/18/100
f 141/23/119 121/20/105 123/19/119
f 121/20/105 141/23/119 127/24/105
f 112/18/121 144/18/122 114/18/122
f 144/18/122 112/18/121 143/18/121
f 138/17/116 116/21/113 117/14/116
f 116/21/113 138/17/116 135/25/113
f 105/18/108 125/18/104 129/18/108
f 125/18/104 105/18/108 107/18/104
f 140/18/118 120/18/111 133/18/111
f 120/18/111 140/18/118 122/18/118
f 132/18/110 111/18/120 110/18/110
f 111/18/120 132/18/110 142/18/120
f 145/27/123 146/28/123 147/29/123
f 146/28/123 145/27/123 148/30/123
f 146/28/123 148/30/123 149/31/123
f 149/31/123 148/30/123 150/32/123
f 150/32/123 148/30/123 151/33/123
f 150/32/123 151/33/123 139/29/123
f 151/33/123 141/34/123 139/29/123
f 150/32/123 139/29/123 140/35/123
f 141/34/123 151/33/123 152/36/123
f 141/34/123 152/36/123 127/37/123
f 127/37/123 152/36/123 128/38/123
f 150/32/123 140/35/123 153/39/123
f 153/39/123 140/35/123 133/40/123
f 153/39/123 133/40/123 131/41/123
f 128/38/123 152/36/123 154/42/123
f 128/38/123 154/42/123 138/43/123
f 138/43/123 154/42/123 155/44/123
f 155/44/123 154/42/123 156/45/123
f 155/44/123 156/45/123 157/46/123
f 153/39/123 131/41/123 158/47/123
f 158/47/123 131/41/123 102/48/123
f 158/47/123 102/48/123 104/49/123
f 157/46/123 156/45/123 159/42/123
f 157/46/123 159/42/123 160/44/123
f 160/44/123 159/42/123 100/43/123
f 158/47/123 104/49/123 161/18/123
f 161/18/123 104/49/123 162/50/123
f 161/18/123 162/50/123 143/49/123
f 161/18/123 143/49/123 163/47/123
f 163/47/123 143/49/123 142/48/123
f 100/43/123 159/42/123 164/36/123
f 100/43/123 164/36/123 98/38/123
f 98/38/123 164/36/123 134/37/123
f 163/47/123 142/48/123 165/39/123
f 165/39/123 142/48/123 132/41/123
f 165/39/123 132/41/123 130/40/123
f 134/37/123 164/36/123 166/33/123
f 165/39/123 130/40/123 167/32/123
f 134/37/123 166/33/123 126/34/123
f 167/32/123 130/40/123 129/35/123
f 126/34/123 166/33/123 125/29/123
f 167/32/123 129/35/123 125/29/123
f 167/32/123 125/29/123 166/33/123
f 167/32/123 166/33/123 168/30/123
f 167/32/123 168/30/123 169/31/123
f 169/31/123 168/30/123 170/27/123
f 169/31/123 170/27/123 171/28/123
f 171/28/123 170/27/123 172/29/123
f 35/51/102 42/52/102 36/51/102
f 42/52/102 35/51/102 57/51/102
f 42/52/102 57/51/102 40/53/102
f 40/53/102 57/51/102 65/51/102
f 40/53/102 65/51/102 60/54/102
f 60/54/102 65/51/102 172/51/102
f 172/51/102 65/51/102 171/51/102
f 170/55/102 60/54/102 172/51/102
f 171/51/102 65/51/102 50/51/102
f 171/51/102 50/51/102 169/51/102
f 169/51/102 50/51/102 173/51/102
f 60/54/102 170/55/102 64/56/102
f 64/56/102 170/55/102 168/57/102
f 64/56/102 168/57/102 174/58/102
f 173/51/102 50/51/102 30/51/102
f 173/51/102 30/51/102 175/51/102
f 175/51/102 30/51/102 163/51/102
f 163/51/102 30/51/102 32/51/102
f 163/51/102 32/51/102 161/51/102
f 64/56/102 174/58/102 56/59/102
f 56/59/102 174/58/102 176/60/102
f 56/59/102 176/60/102 177/61/102
f 161/51/102 32/51/102 59/51/102
f 161/51/102 59/51/102 158/51/102
f 158/51/102 59/51/102 178/51/102
f 56/59/102 177/61/102 33/62/102
f 33/62/102 177/61/102 156/63/102
f 33/62/102 156/63/102 179/61/102
f 33/62/102 179/61/102 34/59/102
f 34/59/102 179/61/102 180/60/102
f 178/51/102 59/51/102 69/51/102
f 178/51/102 69/51/102 181/51/102
f 181/51/102 69/51/102 149/51/102
f 34/59/102 180/60/102 51/56/102
f 51/56/102 180/60/102 182/58/102
f 51/56/102 182/58/102 148/57/102
f 149/51/102 69/51/102 67/51/102
f 51/56/102 148/57/102 52/54/102
f 149/51/102 67/51/102 146/51/102
f 52/54/102 148/57/102 145/55/102
f 146/51/102 67/51/102 147/51/102
f 52/54/102 145/55/102 147/51/102
f 52/54/102 147/51/102 67/51/102
f 52/54/102 67/51/102 2/51/102
f 52/54/102 2/51/102 23/53/102
f 23/53/102 2/51/102 4/51/102
f 23/53/102 4/51/102 24/52/102
f 24/52/102 4/51/102 44/51/102
