# Generated by GTAClone/tools/split_car_wheels.py from sedan-sports.obj
# Kenney Car Kit (CC0 1.0); the split is a derivative work, also CC0.
mtllib colormap.mtl
v -0.650000 0.400939 -1.036711
v -0.516667 0.400000 -1.036835
v -0.650000 0.400000 -1.036835
v -0.516980 0.400939 -1.036711
v -0.650000 0.200000 -0.960000
v -0.650000 0.400000 -1.150000
v -0.650000 0.200000 -1.150000
v -0.650000 0.495000 -0.997750
v -0.650000 0.300000 -0.960000
v -0.650000 0.575772 -0.935772
v -0.650000 0.377646 -0.949778
v -0.650000 0.450000 -0.919808
v -0.650000 0.637750 -0.855000
v -0.650000 0.512132 -0.872132
v -0.650000 0.559808 -0.810000
v -0.650000 0.676711 -0.760939
v -0.650000 0.589778 -0.737646
v -0.650000 0.690000 -0.660000
v -0.650000 0.600000 -0.660000
v -0.650000 0.589778 -0.582354
v -0.650000 0.676711 -0.559060
v -0.650000 0.559808 -0.510000
v -0.650000 0.637750 -0.465000
v -0.650000 0.512132 -0.447868
v -0.650000 0.575772 -0.384228
v -0.650000 0.450000 -0.400192
v -0.650000 0.377646 -0.370222
v -0.650000 0.495000 -0.322250
v -0.650000 0.300000 -0.360000
v -0.650000 0.200000 -0.360000
v -0.650000 0.300000 -0.270000
v -0.650000 0.400939 -0.283289
v -0.650000 0.200000 0.360000
v -0.650000 0.300000 0.270000
v -0.650000 0.400939 0.283289
v -0.650000 0.495000 0.322250
v -0.650000 0.300000 0.360000
v -0.650000 0.575772 0.384228
v -0.650000 0.377646 0.370222
v -0.650000 0.450000 0.400192
v -0.650000 0.637750 0.465000
v -0.650000 0.512132 0.447868
v -0.650000 0.559808 0.510000
v -0.650000 0.676711 0.559061
v -0.650000 0.589778 0.582354
v -0.650000 0.690000 0.660000
v -0.650000 0.600000 0.660000
v -0.650000 0.589778 0.737646
v -0.650000 0.676711 0.760939
v -0.650000 0.559808 0.810000
v -0.650000 0.637750 0.855000
v -0.650000 0.512132 0.872132
v -0.650000 0.575772 0.935772
v -0.650000 0.450000 0.919808
v -0.650000 0.377646 0.949778
v -0.650000 0.495000 0.997750
v -0.650000 0.300000 0.960000
v -0.650000 0.200000 0.960000
v -0.650000 0.200000 1.100000
v -0.650000 0.400000 1.036835
v -0.650000 0.400939 1.036711
v -0.650000 0.400000 1.100000
v 0.650000 0.400000 1.036835
v 0.650000 0.495000 0.997750
v 0.650000 0.400939 1.036711
v 0.650000 0.200000 1.100000
v 0.650000 0.400000 1.100000
v 0.650000 0.200000 0.960000
v 0.650000 0.300000 0.960000
v 0.650000 0.377646 0.949778
v 0.650000 0.575772 0.935772
v 0.650000 0.450000 0.919808
v 0.650000 0.512132 0.872132
v 0.650000 0.637750 0.855000
v 0.650000 0.559808 0.810000
v 0.650000 0.676711 0.760939
v 0.650000 0.589778 0.737646
v 0.650000 0.600000 0.660000
v 0.650000 0.690000 0.660000
v 0.650000 0.589778 0.582354
v 0.650000 0.676711 0.559061
v 0.650000 0.559808 0.510000
v 0.650000 0.637750 0.465000
v 0.650000 0.512132 0.447868
v 0.650000 0.450000 0.400192
v 0.650000 0.575772 0.384228
v 0.650000 0.377646 0.370222
v 0.650000 0.300000 0.360000
v 0.650000 0.495000 0.322250
v 0.650000 0.200000 0.360000
v 0.650000 0.400939 0.283289
v 0.650000 0.300000 0.270000
v 0.650000 0.300000 -0.270000
v 0.650000 0.200000 -0.360000
v 0.650000 0.495000 -0.322250
v 0.650000 0.400939 -0.283289
v 0.650000 0.300000 -0.360000
v 0.650000 0.377646 -0.370222
v 0.650000 0.575772 -0.384228
v 0.650000 0.450000 -0.400192
v 0.650000 0.512132 -0.447868
v 0.650000 0.637750 -0.465000
v 0.650000 0.559808 -0.510000
v 0.650000 0.676711 -0.559060
v 0.650000 0.589778 -0.582354
v 0.650000 0.600000 -0.660000
v 0.650000 0.690000 -0.660000
v 0.650000 0.589778 -0.737646
v 0.650000 0.676711 -0.760939
v 0.650000 0.559808 -0.810000
v 0.650000 0.637750 -0.855000
v 0.650000 0.512132 -0.872132
v 0.650000 0.450000 -0.919808
v 0.650000 0.575772 -0.935772
v 0.650000 0.377646 -0.949778
v 0.650000 0.300000 -0.960000
v 0.650000 0.495000 -0.997750
v 0.650000 0.200000 -0.960000
v 0.650000 0.400939 -1.036711
v 0.650000 0.400000 -1.036835
v 0.650000 0.200000 -1.150000
v 0.650000 0.400000 -1.150000
v 0.550000 0.500000 1.150000
v 0.548333 0.495000 0.997750
v 0.550000 0.500000 0.993913
v 0.516980 0.400939 1.036711
v 0.516667 0.400000 1.036835
v 0.516667 0.400000 1.116667
v 0.550000 0.500000 -1.150000
v 0.516667 0.400000 -1.183333
v 0.550000 0.500000 -1.250000
v 0.516667 0.400000 -1.036835
v 0.516980 0.400939 -1.036711
v 0.548333 0.495000 -0.997750
v 0.550000 0.500000 -0.993913
v -0.550000 0.575772 0.935772
v -0.550000 0.637750 0.855000
v -0.550000 0.637750 -0.465000
v -0.550000 0.676711 -0.559060
v 0.550000 0.637750 0.465000
v 0.550000 0.676711 0.559061
v 0.550000 0.676711 -0.559060
v 0.550000 0.637750 -0.465000
v 0.550000 0.575772 -0.935772
v 0.550000 0.637750 -0.855000
v 0.516980 0.400939 0.283289
v 0.548333 0.495000 0.322250
v 0.550000 0.500000 -0.326087
v 0.548333 0.495000 -0.322250
v 0.550000 0.575772 -0.384228
v -0.550000 0.575772 -0.384228
v 0.550000 0.575772 0.384228
v 0.550000 0.690000 0.660000
v 0.550000 0.676711 0.760939
v 0.550000 0.637750 0.855000
v 0.550000 0.575772 0.935772
v -0.550000 0.690000 -0.660000
v 0.550000 0.690000 -0.660000
v -0.516980 0.400939 0.283289
v -0.548333 0.495000 0.322250
v 0.550000 0.676711 -0.760939
v -0.516667 0.400000 -1.183333
v -0.550000 0.500000 -1.150000
v -0.550000 0.500000 -1.250000
v -0.548333 0.495000 -0.997750
v -0.550000 0.500000 -0.993913
v -0.548333 0.495000 -0.322250
v -0.516980 0.400939 -0.283289
v -0.550000 0.500000 0.326087
v -0.550000 0.500000 -0.326087
v -0.483333 0.300000 -0.270000
v -0.483333 0.300000 0.270000
v 0.550000 0.500000 0.326087
v 0.516980 0.400939 -0.283289
v 0.483333 0.300000 -0.270000
v 0.483333 0.300000 0.270000
v -0.516980 0.400939 1.036711
v -0.548333 0.495000 0.997750
v -0.550000 0.637750 0.465000
v -0.550000 0.575772 0.384228
v -0.550000 0.676711 -0.760939
v -0.550000 0.575772 -0.935772
v -0.550000 0.690000 0.660000
v -0.550000 0.676711 0.559061
v -0.550000 0.676711 0.760939
v -0.550000 0.500000 0.993913
v -0.550000 0.637750 -0.855000
v -0.516667 0.400000 1.116667
v -0.550000 0.500000 1.150000
v -0.516667 0.400000 1.036835
v 0.620711 0.400000 1.170711
v 0.620711 0.200000 1.170711
v 0.550000 0.400000 1.200000
v -0.550000 0.200000 1.200000
v 0.550000 0.200000 1.200000
v -0.550000 0.400000 1.200000
v -0.620711 0.200000 1.170711
v -0.620711 0.400000 1.170711
v -0.620711 0.400000 -1.220711
v -0.620711 0.200000 -1.220711
v -0.550000 0.400000 -1.250000
v 0.550000 0.200000 -1.250000
v -0.550000 0.200000 -1.250000
v 0.550000 0.400000 -1.250000
v 0.620711 0.200000 -1.220711
v 0.620711 0.400000 -1.220711
v 0.400000 0.200000 -0.360000
v 0.400000 0.200000 0.360000
v 0.400000 0.200000 -0.960000
v -0.400000 0.200000 -0.960000
v -0.400000 0.200000 -0.360000
v -0.400000 0.200000 0.960000
v -0.400000 0.200000 0.360000
v 0.400000 0.200000 0.960000
v 0.125000 0.150000 1.200000
v 0.175000 0.200000 1.250000
v 0.125000 0.150000 1.250000
v 0.175000 0.200000 1.200000
v -0.125000 0.150000 1.200000
v -0.125000 0.150000 1.250000
v -0.175000 0.200000 1.200000
v -0.175000 0.200000 1.250000
v 0.175000 0.275000 1.250000
v 0.125000 0.325000 1.200000
v 0.125000 0.325000 1.250000
v 0.175000 0.275000 1.200000
v -0.175000 0.275000 1.200000
v -0.125000 0.325000 1.200000
v -0.125000 0.325000 1.250000
v -0.175000 0.275000 1.250000
v -0.125000 0.150000 -1.250000
v -0.175000 0.200000 -1.300000
v -0.125000 0.150000 -1.300000
v -0.175000 0.200000 -1.250000
v 0.125000 0.150000 -1.250000
v 0.125000 0.150000 -1.300000
v 0.175000 0.200000 -1.250000
v 0.175000 0.200000 -1.300000
v -0.175000 0.275000 -1.300000
v -0.125000 0.325000 -1.250000
v -0.125000 0.325000 -1.300000
v -0.175000 0.275000 -1.250000
v 0.175000 0.275000 -1.250000
v 0.125000 0.325000 -1.250000
v 0.125000 0.325000 -1.300000
v 0.175000 0.275000 -1.300000
v 0.400000 0.450000 -0.400192
v 0.400000 0.512132 -0.447868
v 0.400000 0.559808 -0.510000
v 0.400000 0.589778 -0.582354
v 0.400000 0.377646 -0.949778
v 0.400000 0.450000 -0.919808
v 0.400000 0.559808 0.810000
v 0.400000 0.589778 0.737646
v 0.400000 0.450000 0.919808
v 0.400000 0.512132 0.872132
v -0.400000 0.300000 -0.360000
v 0.400000 0.600000 -0.660000
v 0.400000 0.589778 -0.737646
v 0.400000 0.300000 0.360000
v 0.400000 0.300000 -0.960000
v 0.400000 0.559808 0.510000
v 0.400000 0.512132 0.447868
v 0.400000 0.559808 -0.810000
v 0.400000 0.512132 -0.872132
v 0.400000 0.600000 0.660000
v 0.400000 0.589778 0.582354
v 0.400000 0.377646 0.370222
v 0.400000 0.377646 -0.370222
v 0.400000 0.300000 -0.360000
v 0.400000 0.450000 0.400192
v 0.400000 0.300000 0.960000
v 0.400000 0.377646 0.949778
v -0.400000 0.300000 0.960000
v -0.400000 0.377646 0.949778
v -0.400000 0.300000 0.360000
v -0.400000 0.589778 0.582354
v -0.400000 0.600000 0.660000
v -0.400000 0.559808 0.510000
v -0.400000 0.450000 0.919808
v -0.400000 0.512132 0.872132
v -0.400000 0.377646 0.370222
v -0.400000 0.512132 0.447868
v -0.400000 0.450000 0.400192
v -0.400000 0.559808 0.810000
v -0.400000 0.589778 0.737646
v -0.400000 0.300000 -0.960000
v -0.400000 0.377646 -0.949778
v -0.400000 0.450000 -0.919808
v -0.400000 0.512132 -0.872132
v -0.400000 0.559808 -0.810000
v -0.400000 0.589778 -0.737646
v -0.400000 0.600000 -0.660000
v -0.400000 0.589778 -0.582354
v -0.400000 0.559808 -0.510000
v -0.400000 0.512132 -0.447868
v -0.400000 0.450000 -0.400192
v -0.400000 0.377646 -0.370222
v 0.650000 0.800000 0.422902
v 0.550000 0.700000 0.422902
v 0.650000 0.700000 0.422902
v 0.550000 0.800000 0.422902
v 0.550000 0.600000 1.150000
v -0.550000 0.600000 1.150000
v 0.275000 0.600000 1.150000
v -0.275000 0.600000 1.150000
v 0.550000 0.800000 0.322902
v 0.650000 0.800000 0.322902
v 0.550000 0.800000 0.388755
v -0.550000 0.600000 -1.250000
v -0.550000 0.700000 -1.050000
v -0.550000 0.800000 -0.850000
v -0.550000 0.800000 -0.200000
v -0.550000 0.700000 0.322902
v -0.550000 0.800000 0.322902
v -0.550000 0.700000 0.422902
v -0.550000 0.800000 0.422902
v -0.550000 0.800000 0.550000
v -0.550000 0.750000 0.900000
v -0.550000 0.675000 1.025000
v 0.650000 0.700000 0.322902
v 0.550000 0.700000 0.322902
v 0.450000 1.100000 0.150000
v 0.448020 0.800000 0.550000
v 0.550000 0.800000 0.550000
v 0.368020 1.040000 0.230000
v -0.450000 1.100000 0.150000
v -0.368020 1.040000 0.230000
v -0.448020 0.800000 0.550000
v 0.550000 0.600000 -1.250000
v -0.412500 0.600000 -1.250000
v 0.412500 0.600000 -1.250000
v 0.412500 0.700000 -1.050000
v -0.412500 0.700000 -1.050000
v 0.550000 0.800000 -0.850000
v 0.550000 0.700000 -1.050000
v -0.650000 0.700000 0.422902
v -0.650000 0.700000 0.322902
v 0.550000 0.750000 0.900000
v -0.450000 1.100000 -0.550000
v -0.481623 1.005132 -0.200000
v -0.481623 1.005132 0.115246
v -0.550000 0.800000 0.388755
v -0.650000 0.800000 0.322902
v -0.650000 0.800000 0.422902
v 0.550000 0.675000 1.025000
v 0.550000 0.800000 -0.194629
v 0.481623 1.005132 0.115246
v 0.481623 1.005132 -0.195891
v 0.450000 1.100000 -0.550000
v 0.275000 0.675000 1.025000
v -0.275000 0.675000 1.025000
v -0.423689 0.870711 -0.779289
v 0.423689 0.870711 -0.779289
v -0.370830 1.029289 -0.620711
v 0.370830 1.029289 -0.620711
v 0.368020 1.040000 0.230000
v -0.368020 1.040000 0.230000
v 0.481623 1.005132 0.115246
v 0.481623 1.005132 -0.195891
v -0.370830 1.029289 -0.620711
v 0.370830 1.029289 -0.620711
v -0.481623 1.005132 -0.200000
v -0.550000 0.800000 -0.200000
v -0.481623 1.005132 0.115246
v -0.312628 0.600000 -1.009343
v -0.312628 0.800000 -1.128029
v -0.312628 0.600000 -1.128029
v -0.312628 0.800000 -1.009343
v -0.212755 0.600000 -1.128029
v -0.212755 0.600000 -1.009343
v -0.212755 0.800000 -1.009343
v -0.212755 0.800000 -1.128029
v 0.212755 0.600000 -1.009343
v 0.312628 0.600000 -1.128029
v 0.312628 0.600000 -1.009343
v 0.212755 0.600000 -1.128029
v 0.212755 0.800000 -1.128029
v 0.312628 0.800000 -1.128029
v 0.312628 0.800000 -1.009343
v 0.212755 0.800000 -1.009343
v -0.550000 0.800000 -0.950000
v -0.550000 0.900000 -1.187372
v -0.550000 0.800000 -1.187372
v -0.550000 0.900000 -1.068686
v -0.550000 0.850000 -0.950000
v 0.550000 0.800000 -1.187372
v 0.550000 0.900000 -1.187372
v 0.550000 0.850000 -0.950000
v 0.550000 0.800000 -0.950000
v 0.550000 0.900000 -1.068686
vt 0.468750 0.327829
vt 0.468750 0.327632
vt 0.468750 0.285526
vt 0.468750 0.347632
vt 0.468750 0.306579
vt 0.468750 0.364636
vt 0.468750 0.322925
vt 0.468750 0.338158
vt 0.468750 0.377684
vt 0.468750 0.351238
vt 0.468750 0.361275
vt 0.468750 0.385887
vt 0.468750 0.367585
vt 0.468750 0.388684
vt 0.468750 0.369737
vt 0.468750 0.348684
vt 0.468750 0.275000
vt 0.468750 0.332143
vt 0.468750 0.417857
vt 0.468750 0.475000
vt 0.343750 0.338158
vt 0.343750 0.351238
vt 0.343750 0.361275
vt 0.343750 0.367585
vt 0.343750 0.322925
vt 0.343750 0.306579
vt 0.343750 0.285526
vt 0.343750 0.369737
vt 0.843750 0.661842
vt 0.843750 0.640790
vt 0.843750 0.619737
vt 0.843750 0.598684
vt 0.843750 0.614636
vt 0.843750 0.627684
vt 0.843750 0.635887
vt 0.843750 0.638684
vt 0.843750 0.651316
vt 0.843750 0.635526
vt 0.843750 0.725000
vt 0.843750 0.712368
vt 0.843750 0.705028
vt 0.843750 0.676728
vt 0.843750 0.710113
vt 0.843750 0.411842
vt 0.843750 0.390790
vt 0.843750 0.332143
vt 0.843750 0.275000
vt 0.843750 0.417857
vt 0.843750 0.475000
vt 0.343750 0.025000
vt 0.343750 0.225000
vt 0.093750 0.225000
vt 0.093750 0.025000
vt 0.093750 0.195943
vt 0.093750 0.216074
vt 0.093750 0.083926
vt 0.218750 0.225000
vt 0.218750 0.025000
vt 0.343750 0.275000
vt 0.343750 0.408333
vt 0.843750 0.658333
vt 0.843750 0.691667
vn 0.000000 0.258819 -0.965926
vn 0.000000 0.813241 -0.581927
vn 0.000000 0.751840 -0.659346
vn 0.000000 0.233891 -0.972263
vn -1.000000 0.000000 0.000000
vn 1.000000 0.000000 0.000000
vn 0.948683 -0.316228 0.000000
vn 0.000000 0.866025 0.500000
vn 0.000000 0.707107 0.707107
vn 0.000000 0.965926 0.258819
vn 0.000000 0.866025 -0.500000
vn 0.000000 0.965926 -0.258819
vn 0.000000 0.707107 -0.707107
vn 0.000000 0.500000 -0.866025
vn 0.000000 0.479903 -0.877321
vn 0.000000 0.500000 0.866025
vn 0.000000 0.608761 0.793353
vn 0.000000 0.479903 0.877321
vn 0.000000 1.000000 0.000000
vn -0.948683 -0.316228 0.000000
vn 0.000000 0.258819 0.965926
vn 0.000000 0.233891 0.972263
vn 0.000000 0.130526 -0.991445
vn 0.000000 0.608761 -0.793353
vn 0.000000 0.130526 0.991445
vn 0.000000 -0.316228 0.948683
vn 0.000000 0.751840 0.659346
vn 0.000000 0.813241 0.581927
vn 0.000000 -0.554700 -0.832050
vn 0.707107 0.000000 0.707107
vn 0.923879 0.000000 0.382683
vn 0.195090 0.000000 0.980785
vn -0.195090 0.000000 0.980785
vn -0.707107 0.000000 0.707107
vn -0.923879 0.000000 0.382683
vn -0.923879 0.000000 -0.382683
vn -0.707107 0.000000 -0.707107
vn -0.195090 0.000000 -0.980785
vn 0.195090 0.000000 -0.980785
vn 0.923879 0.000000 -0.382683
vn 0.707107 0.000000 -0.707107
vn 0.000000 -1.000000 0.000000
vn 0.382683 -0.923879 -0.000000
vn 0.923879 -0.382683 -0.000000
vn -0.382683 -0.923879 0.000000
vn -0.923879 -0.382683 0.000000
vn 0.923879 0.382683 -0.000000
vn 0.382683 0.923879 -0.000000
vn -0.000000 0.000000 -1.000000
vn -0.382683 0.923879 0.000000
vn -0.923879 0.382683 0.000000
vn -0.382683 -0.923879 0.000000
vn -0.923879 -0.382683 0.000000
vn 0.382683 -0.923879 0.000000
vn 0.923879 -0.382683 0.000000
vn -0.923879 0.382683 0.000000
vn -0.382683 0.923879 0.000000
vn 0.000000 0.000000 1.000000
vn 0.382683 0.923879 0.000000
vn 0.923879 0.382683 0.000000
vn 0.000000 -0.500000 -0.866025
vn 0.000000 -0.707107 -0.707107
vn 0.000000 -0.866025 -0.500000
vn 0.000000 -0.965926 -0.258819
vn 0.000000 -0.500000 0.866025
vn 0.000000 -0.258819 0.965926
vn 0.000000 -0.065403 -0.997859
vn 0.000000 0.000000 -1.000000
vn 0.000000 -0.965926 0.258819
vn 0.000000 -0.065403 0.997859
vn 0.000000 -0.866025 0.500000
vn 0.000000 -0.707107 0.707107
vn 0.000000 -0.258819 -0.965926
vn 0.707107 0.707107 0.000000
vn 0.000000 0.942269 0.334858
vn 0.000000 0.800000 0.600000
vn 0.000000 0.894427 -0.447214
vn 0.000000 0.989950 0.141421
vn 0.000000 0.942368 0.334579
vn -0.948683 0.316228 0.000000
vn -0.707107 0.707107 0.000000
vn 0.948683 0.316228 0.000000
vn 0.000000 0.857493 0.514496
vn 0.000000 0.000000 1.000000
vn 0.000000 0.980194 0.198039
vn 0.000000 0.921561 0.388234
usemtl colormap
f 1/1/1 2/2/2 3/2/3
f 2/2/2 1/1/1 4/1/4
f 5/3/5 6/2/5 7/3/5
f 6/2/5 5/3/5 3/2/5
f 3/2/5 5/3/5 1/1/5
f 1/1/5 5/3/5 8/4/5
f 8/4/5 5/3/5 9/5/5
f 8/4/5 9/5/5 10/6/5
f 10/6/5 9/5/5 11/7/5
f 10/6/5 11/7/5 12/8/5
f 10/6/5 12/8/5 13/9/5
f 13/9/5 12/8/5 14/10/5
f 13/9/5 14/10/5 15/11/5
f 13/9/5 15/11/5 16/12/5
f 16/12/5 15/11/5 17/13/5
f 16/12/5 17/13/5 18/14/5
f 18/14/5 17/13/5 19/15/5
f 18/14/5 19/15/5 20/13/5
f 18/14/5 20/13/5 21/12/5
f 21/12/5 20/13/5 22/11/5
f 21/12/5 22/11/5 23/9/5
f 23/9/5 22/11/5 24/10/5
f 23/9/5 24/10/5 25/6/5
f 25/6/5 24/10/5 26/8/5
f 25/6/5 26/8/5 27/7/5
f 25/6/5 27/7/5 28/4/5
f 28/4/5 27/7/5 29/5/5
f 28/4/5 29/5/5 30/3/5
f 28/4/5 30/3/5 31/5/5
f 28/4/5 31/5/5 32/1/5
f 31/5/5 30/3/5 33/3/5
f 31/5/5 33/3/5 34/5/5
f 34/5/5 33/3/5 35/1/5
f 35/1/5 33/3/5 36/4/5
f 36/4/5 33/3/5 37/5/5
f 36/4/5 37/5/5 38/6/5
f 38/6/5 37/5/5 39/7/5
f 38/6/5 39/7/5 40/8/5
f 38/6/5 40/8/5 41/9/5
f 41/9/5 40/8/5 42/10/5
f 41/9/5 42/10/5 43/11/5
f 41/9/5 43/11/5 44/12/5
f 44/12/5 43/11/5 45/13/5
f 44/12/5 45/13/5 46/14/5
f 46/14/5 45/13/5 47/15/5
f 46/14/5 47/15/5 48/13/5
f 46/14/5 48/13/5 49/12/5
f 49/12/5 48/13/5 50/11/5
f 49/12/5 50/11/5 51/9/5
f 51/9/5 50/11/5 52/10/5
f 51/9/5 52/10/5 53/6/5
f 53/6/5 52/10/5 54/8/5
f 53/6/5 54/8/5 55/7/5
f 53/6/5 55/7/5 56/4/5
f 56/4/5 55/7/5 57/5/5
f 56/4/5 57/5/5 58/3/5
f 56/4/5 58/3/5 59/3/5
f 56/4/5 59/3/5 60/2/5
f 56/4/5 60/2/5 61/1/5
f 60/2/5 59/3/5 62/2/5
f 63/2/6 64/4/6 65/1/6
f 66/3/6 64/4/6 63/2/6
f 66/3/6 63/2/6 67/2/6
f 68/3/6 64/4/6 66/3/6
f 69/5/6 64/4/6 68/3/6
f 70/7/6 64/4/6 69/5/6
f 70/7/6 71/6/6 64/4/6
f 72/8/6 71/6/6 70/7/6
f 73/10/6 71/6/6 72/8/6
f 73/10/6 74/9/6 71/6/6
f 75/11/6 74/9/6 73/10/6
f 75/11/6 76/12/6 74/9/6
f 77/13/6 76/12/6 75/11/6
f 78/15/6 76/12/6 77/13/6
f 78/15/6 79/14/6 76/12/6
f 80/13/6 79/14/6 78/15/6
f 80/13/6 81/12/6 79/14/6
f 82/11/6 81/12/6 80/13/6
f 82/11/6 83/9/6 81/12/6
f 84/10/6 83/9/6 82/11/6
f 85/8/6 83/9/6 84/10/6
f 85/8/6 86/6/6 83/9/6
f 87/7/6 86/6/6 85/8/6
f 88/5/6 86/6/6 87/7/6
f 86/6/6 88/5/6 89/4/6
f 90/3/6 89/4/6 88/5/6
f 90/3/6 91/1/6 89/4/6
f 90/3/6 92/5/6 91/1/6
f 90/3/6 93/5/6 92/5/6
f 94/3/6 93/5/6 90/3/6
f 94/3/6 95/4/6 93/5/6
f 93/5/6 95/4/6 96/1/6
f 97/5/6 95/4/6 94/3/6
f 98/7/6 95/4/6 97/5/6
f 98/7/6 99/6/6 95/4/6
f 100/8/6 99/6/6 98/7/6
f 101/10/6 99/6/6 100/8/6
f 101/10/6 102/9/6 99/6/6
f 103/11/6 102/9/6 101/10/6
f 103/11/6 104/12/6 102/9/6
f 105/13/6 104/12/6 103/11/6
f 106/15/6 104/12/6 105/13/6
f 106/15/6 107/14/6 104/12/6
f 108/13/6 107/14/6 106/15/6
f 108/13/6 109/12/6 107/14/6
f 110/11/6 109/12/6 108/13/6
f 110/11/6 111/9/6 109/12/6
f 112/10/6 111/9/6 110/11/6
f 113/8/6 111/9/6 112/10/6
f 113/8/6 114/6/6 111/9/6
f 115/7/6 114/6/6 113/8/6
f 116/5/6 114/6/6 115/7/6
f 114/6/6 116/5/6 117/4/6
f 118/3/6 117/4/6 116/5/6
f 118/3/6 119/1/6 117/4/6
f 118/3/6 120/2/6 119/1/6
f 121/3/6 120/2/6 118/3/6
f 120/2/6 121/3/6 122/2/6
f 123/16/7 124/4/7 125/16/7
f 124/4/7 123/16/7 126/1/7
f 126/1/7 123/16/7 127/2/7
f 127/2/7 123/16/7 128/2/7
f 129/16/7 130/2/7 131/16/7
f 130/2/7 129/16/7 132/2/7
f 132/2/7 129/16/7 133/1/7
f 133/1/7 129/16/7 134/4/7
f 134/4/7 129/16/7 135/16/7
f 51/9/8 136/6/9 137/9/8
f 136/6/9 51/9/8 53/6/9
f 21/12/10 138/9/8 139/12/10
f 138/9/8 21/12/10 23/9/8
f 140/9/11 81/12/12 83/9/11
f 81/12/12 140/9/11 141/12/12
f 142/12/10 102/9/8 104/12/10
f 102/9/8 142/12/10 143/9/8
f 144/6/13 111/9/11 114/6/13
f 111/9/11 144/6/13 145/9/11
f 146/1/4 89/4/14 91/1/1
f 89/4/14 146/1/4 147/4/15
f 95/4/16 148/16/17 149/4/18
f 148/16/17 95/4/16 99/6/9
f 148/16/17 99/6/9 150/6/9
f 23/9/8 151/6/9 138/9/8
f 151/6/9 23/9/8 25/6/9
f 152/6/13 83/9/11 86/6/13
f 83/9/11 152/6/13 140/9/11
f 143/9/8 99/6/9 102/9/8
f 99/6/9 143/9/8 150/6/9
f 141/12/12 79/14/19 81/12/12
f 79/14/19 141/12/12 153/14/19
f 153/14/19 76/12/10 79/14/19
f 76/12/10 153/14/19 154/12/10
f 155/9/8 71/6/9 74/9/8
f 71/6/9 155/9/8 156/6/9
f 18/14/19 139/12/10 157/14/19
f 139/12/10 18/14/19 21/12/10
f 158/14/19 104/12/10 107/14/19
f 104/12/10 158/14/19 142/12/10
f 36/4/14 159/1/4 35/1/1
f 159/1/4 36/4/14 160/4/15
f 145/9/11 109/12/12 111/9/11
f 109/12/12 145/9/11 161/12/12
f 162/2/20 163/16/20 164/16/20
f 163/16/20 162/2/20 2/2/20
f 163/16/20 2/2/20 4/1/20
f 163/16/20 4/1/20 165/4/20
f 163/16/20 165/4/20 166/16/20
f 167/4/18 32/1/21 168/1/22
f 32/1/21 167/4/18 28/4/16
f 167/4/20 169/16/20 170/16/20
f 169/16/20 167/4/20 168/1/20
f 169/16/20 168/1/20 171/5/20
f 169/16/20 171/5/20 160/4/20
f 160/4/20 171/5/20 159/1/20
f 159/1/20 171/5/20 172/5/20
f 64/4/16 126/1/22 65/1/21
f 126/1/22 64/4/16 124/4/18
f 173/16/7 149/4/7 148/16/7
f 149/4/7 173/16/7 174/1/7
f 174/1/7 173/16/7 175/5/7
f 175/5/7 173/16/7 147/4/7
f 175/5/7 147/4/7 146/1/7
f 175/5/7 146/1/7 176/5/7
f 177/1/22 56/4/16 61/1/21
f 56/4/16 177/1/22 178/4/18
f 38/6/13 179/9/11 180/6/13
f 179/9/11 38/6/13 41/9/11
f 16/12/12 157/14/19 181/12/12
f 157/14/19 16/12/12 18/14/19
f 8/4/14 4/1/4 1/1/1
f 4/1/4 8/4/14 165/4/15
f 35/1/1 172/5/23 34/5/23
f 172/5/23 35/1/1 159/1/4
f 96/1/21 149/4/18 174/1/22
f 149/4/18 96/1/21 95/4/16
f 10/6/13 165/4/15 8/4/14
f 165/4/15 10/6/13 166/16/24
f 166/16/24 10/6/13 182/6/13
f 93/5/25 174/1/22 175/5/25
f 174/1/22 93/5/25 96/1/21
f 44/12/12 183/14/19 184/12/12
f 183/14/19 44/12/12 46/14/19
f 64/4/16 125/16/17 124/4/18
f 125/16/17 64/4/16 71/6/9
f 125/16/17 71/6/9 156/6/9
f 173/16/24 89/4/14 147/4/15
f 89/4/14 173/16/24 86/6/13
f 86/6/13 173/16/24 152/6/13
f 146/1/4 92/5/23 176/5/23
f 92/5/23 146/1/4 91/1/1
f 49/12/10 137/9/8 185/12/10
f 137/9/8 49/12/10 51/9/8
f 170/16/17 28/4/16 167/4/18
f 28/4/16 170/16/17 25/6/9
f 25/6/9 170/16/17 151/6/9
f 186/16/17 56/4/16 178/4/18
f 56/4/16 186/16/17 53/6/9
f 53/6/9 186/16/17 136/6/9
f 161/12/12 107/14/19 109/12/12
f 107/14/19 161/12/12 158/14/19
f 46/14/19 185/12/10 183/14/19
f 185/12/10 46/14/19 49/12/10
f 133/1/4 120/2/3 132/2/2
f 120/2/3 133/1/4 119/1/1
f 31/5/19 172/5/19 171/5/19
f 172/5/19 31/5/19 34/5/19
f 13/9/11 181/12/12 187/9/11
f 181/12/12 13/9/11 16/12/12
f 133/1/4 117/4/14 119/1/1
f 117/4/14 133/1/4 134/4/15
f 168/1/22 31/5/25 171/5/25
f 31/5/25 168/1/22 32/1/21
f 36/4/14 169/16/24 160/4/15
f 169/16/24 36/4/14 38/6/13
f 169/16/24 38/6/13 180/6/13
f 41/9/11 184/12/12 179/9/11
f 184/12/12 41/9/11 44/12/12
f 134/4/15 114/6/13 117/4/14
f 114/6/13 134/4/15 135/16/24
f 114/6/13 135/16/24 144/6/13
f 175/5/19 92/5/19 93/5/19
f 92/5/19 175/5/19 176/5/19
f 154/12/10 74/9/8 76/12/10
f 74/9/8 154/12/10 155/9/8
f 123/16/26 188/2/26 128/2/26
f 188/2/26 123/16/26 189/16/26
f 177/1/22 60/2/27 190/2/28
f 60/2/27 177/1/22 61/1/21
f 10/6/13 187/9/11 182/6/13
f 187/9/11 10/6/13 13/9/11
f 178/4/20 189/16/20 186/16/20
f 189/16/20 178/4/20 177/1/20
f 189/16/20 177/1/20 190/2/20
f 189/16/20 190/2/20 188/2/20
f 65/1/21 127/2/28 63/2/27
f 127/2/28 65/1/21 126/1/22
f 164/16/29 130/2/29 162/2/29
f 130/2/29 164/16/29 131/16/29
f 191/2/30 66/3/31 67/2/31
f 66/3/31 191/2/30 192/3/30
f 193/2/32 194/3/33 195/3/32
f 194/3/33 193/2/32 196/2/33
f 191/2/30 195/3/32 192/3/30
f 195/3/32 191/2/30 193/2/32
f 197/3/34 62/2/35 59/3/35
f 62/2/35 197/3/34 198/2/34
f 60/2/27 188/2/19 190/2/28
f 188/2/19 60/2/27 196/2/19
f 196/2/19 128/2/19 188/2/19
f 196/2/19 60/2/27 198/2/19
f 198/2/19 60/2/27 62/2/19
f 193/2/19 128/2/19 196/2/19
f 193/2/19 127/2/28 128/2/19
f 191/2/19 127/2/28 193/2/19
f 67/2/19 127/2/28 191/2/19
f 127/2/28 67/2/19 63/2/27
f 7/3/36 199/2/37 200/3/37
f 199/2/37 7/3/36 6/2/36
f 201/2/38 202/3/39 203/3/38
f 202/3/39 201/2/38 204/2/39
f 122/2/40 205/3/41 206/2/41
f 205/3/41 122/2/40 121/3/40
f 199/2/37 203/3/38 200/3/37
f 203/3/38 199/2/37 201/2/38
f 3/2/3 199/2/19 6/2/19
f 3/2/3 201/2/19 199/2/19
f 2/2/2 201/2/19 3/2/3
f 162/2/19 201/2/19 2/2/2
f 130/2/19 201/2/19 162/2/19
f 201/2/19 130/2/19 204/2/19
f 132/2/2 204/2/19 130/2/19
f 132/2/2 206/2/19 204/2/19
f 120/2/3 206/2/19 132/2/2
f 206/2/19 120/2/3 122/2/19
f 204/2/39 205/3/41 202/3/39
f 205/3/41 204/2/39 206/2/41
f 90/3/42 207/3/42 94/3/42
f 207/3/42 90/3/42 208/3/42
f 207/3/42 208/3/42 209/3/42
f 203/3/42 209/3/42 208/3/42
f 202/3/42 209/3/42 203/3/42
f 205/3/42 209/3/42 202/3/42
f 205/3/42 118/3/42 209/3/42
f 118/3/42 205/3/42 121/3/42
f 203/3/42 208/3/42 210/3/42
f 203/3/42 210/3/42 5/3/42
f 203/3/42 5/3/42 200/3/42
f 200/3/42 5/3/42 7/3/42
f 210/3/42 208/3/42 211/3/42
f 208/3/42 212/3/42 211/3/42
f 213/3/42 211/3/42 212/3/42
f 211/3/42 213/3/42 30/3/42
f 30/3/42 213/3/42 33/3/42
f 208/3/42 194/3/42 212/3/42
f 212/3/42 194/3/42 58/3/42
f 214/3/42 194/3/42 208/3/42
f 58/3/42 194/3/42 197/3/42
f 58/3/42 197/3/42 59/3/42
f 214/3/42 195/3/42 194/3/42
f 214/3/42 192/3/42 195/3/42
f 214/3/42 66/3/42 192/3/42
f 66/3/42 214/3/42 68/3/42
f 196/2/33 197/3/34 194/3/33
f 197/3/34 196/2/33 198/2/34
f 215/17/43 216/18/44 217/17/43
f 216/18/44 215/17/43 218/18/44
f 219/17/45 217/17/43 220/17/45
f 217/17/43 219/17/45 215/17/43
f 221/18/46 220/17/45 222/18/46
f 220/17/45 221/18/46 219/17/45
f 223/19/47 224/20/48 225/20/48
f 224/20/48 223/19/47 226/19/47
f 218/18/44 223/19/47 216/18/44
f 223/19/47 218/18/44 226/19/47
f 221/18/49 215/17/49 219/17/49
f 215/17/49 221/18/49 218/18/49
f 218/18/49 221/18/49 227/19/49
f 218/18/49 227/19/49 226/19/49
f 226/19/49 227/19/49 228/20/49
f 226/19/49 228/20/49 224/20/49
f 225/20/48 228/20/50 229/20/50
f 228/20/50 225/20/48 224/20/48
f 227/19/51 222/18/46 230/19/51
f 222/18/46 227/19/51 221/18/46
f 229/20/50 227/19/51 230/19/51
f 227/19/51 229/20/50 228/20/50
f 231/17/52 232/18/53 233/17/52
f 232/18/53 231/17/52 234/18/53
f 235/17/54 233/17/52 236/17/54
f 233/17/52 235/17/54 231/17/52
f 237/18/55 236/17/54 238/18/55
f 236/17/54 237/18/55 235/17/54
f 239/19/56 240/20/57 241/20/57
f 240/20/57 239/19/56 242/19/56
f 234/18/53 239/19/56 232/18/53
f 239/19/56 234/18/53 242/19/56
f 237/18/58 231/17/58 235/17/58
f 231/17/58 237/18/58 234/18/58
f 234/18/58 237/18/58 243/19/58
f 234/18/58 243/19/58 242/19/58
f 242/19/58 243/19/58 244/20/58
f 242/19/58 244/20/58 240/20/58
f 241/20/57 244/20/59 245/20/59
f 244/20/59 241/20/57 240/20/57
f 243/19/60 238/18/55 246/19/60
f 238/18/55 243/19/60 237/18/55
f 245/20/59 243/19/60 246/19/60
f 243/19/60 245/20/59 244/20/59
f 247/21/61 101/22/62 100/21/61
f 101/22/62 247/21/61 248/22/62
f 249/23/63 105/24/64 103/23/63
f 105/24/64 249/23/63 250/24/64
f 113/21/65 251/25/66 115/25/66
f 251/25/66 113/21/65 252/21/65
f 253/23/63 77/24/64 75/23/63
f 77/24/64 253/23/63 254/24/64
f 255/21/61 73/22/62 72/21/61
f 73/22/62 255/21/61 256/22/62
f 29/26/67 211/27/68 30/27/68
f 211/27/68 29/26/67 257/26/67
f 258/28/42 108/24/69 106/28/42
f 108/24/69 258/28/42 259/24/69
f 88/26/70 208/27/58 90/27/58
f 208/27/58 88/26/70 260/26/70
f 116/26/70 209/27/58 118/27/58
f 209/27/58 116/26/70 261/26/70
f 256/22/62 75/23/63 73/22/62
f 75/23/63 256/22/62 253/23/63
f 262/23/71 84/22/72 82/23/71
f 84/22/72 262/23/71 263/22/72
f 264/23/71 112/22/72 110/23/71
f 112/22/72 264/23/71 265/22/72
f 254/24/64 78/28/42 77/24/64
f 78/28/42 254/24/64 266/28/42
f 267/24/69 82/23/71 80/24/69
f 82/23/71 267/24/69 262/23/71
f 112/22/72 252/21/65 113/21/65
f 252/21/65 112/22/72 265/22/72
f 248/22/62 103/23/63 101/22/62
f 103/23/63 248/22/62 249/23/63
f 87/25/66 260/26/70 88/26/70
f 260/26/70 87/25/66 268/25/66
f 269/25/73 100/21/61 98/25/73
f 100/21/61 269/25/73 247/21/61
f 270/26/67 98/25/73 97/26/67
f 98/25/73 270/26/67 269/25/73
f 115/25/66 261/26/70 116/26/70
f 261/26/70 115/25/66 251/25/66
f 259/24/69 110/23/71 108/24/69
f 110/23/71 259/24/69 264/23/71
f 85/21/65 268/25/66 87/25/66
f 268/25/66 85/21/65 271/21/65
f 272/26/67 70/25/73 69/26/67
f 70/25/73 272/26/67 273/25/73
f 84/22/72 271/21/65 85/21/65
f 271/21/65 84/22/72 263/22/72
f 273/25/73 72/21/61 70/25/73
f 72/21/61 273/25/73 255/21/61
f 250/24/64 106/28/42 105/24/64
f 106/28/42 250/24/64 258/28/42
f 57/26/67 212/27/68 58/27/68
f 212/27/68 57/26/67 274/26/67
f 266/28/42 80/24/69 78/28/42
f 80/24/69 266/28/42 267/24/69
f 55/25/73 274/26/67 57/26/67
f 274/26/67 55/25/73 275/25/73
f 276/26/70 33/27/58 213/27/58
f 33/27/58 276/26/70 37/26/70
f 47/28/42 277/24/69 278/28/42
f 277/24/69 47/28/42 45/24/69
f 45/24/69 279/23/71 277/24/69
f 279/23/71 45/24/69 43/23/71
f 52/22/62 280/21/61 54/21/61
f 280/21/61 52/22/62 281/22/62
f 282/25/66 37/26/70 276/26/70
f 37/26/70 282/25/66 39/25/66
f 283/22/72 40/21/65 284/21/65
f 40/21/65 283/22/72 42/22/72
f 284/21/65 39/25/66 282/25/66
f 39/25/66 284/21/65 40/21/65
f 43/23/71 283/22/72 279/23/71
f 283/22/72 43/23/71 42/22/72
f 52/22/62 285/23/63 281/22/62
f 285/23/63 52/22/62 50/23/63
f 48/24/64 278/28/42 286/24/64
f 278/28/42 48/24/64 47/28/42
f 54/21/61 275/25/73 55/25/73
f 275/25/73 54/21/61 280/21/61
f 50/23/63 286/24/64 285/23/63
f 286/24/64 50/23/63 48/24/64
f 212/27/5 276/26/5 213/27/5
f 276/26/5 212/27/5 282/25/5
f 282/25/5 212/27/5 284/21/5
f 284/21/5 212/27/5 283/22/5
f 283/22/5 212/27/5 279/23/5
f 279/23/5 212/27/5 277/24/5
f 277/24/5 212/27/5 278/28/5
f 278/28/5 212/27/5 286/24/5
f 286/24/5 212/27/5 285/23/5
f 285/23/5 212/27/5 281/22/5
f 281/22/5 212/27/5 280/21/5
f 280/21/5 212/27/5 275/25/5
f 275/25/5 212/27/5 274/26/5
f 268/25/6 208/27/6 260/26/6
f 208/27/6 268/25/6 214/27/6
f 214/27/6 268/25/6 271/21/6
f 214/27/6 271/21/6 263/22/6
f 214/27/6 263/22/6 262/23/6
f 214/27/6 262/23/6 267/24/6
f 214/27/6 267/24/6 266/28/6
f 214/27/6 266/28/6 254/24/6
f 214/27/6 254/24/6 253/23/6
f 214/27/6 253/23/6 256/22/6
f 214/27/6 256/22/6 255/21/6
f 214/27/6 255/21/6 273/25/6
f 214/27/6 273/25/6 272/26/6
f 272/26/67 68/27/68 214/27/68
f 68/27/68 272/26/67 69/26/67
f 251/25/6 209/27/6 261/26/6
f 209/27/6 251/25/6 207/27/6
f 207/27/6 251/25/6 252/21/6
f 207/27/6 252/21/6 265/22/6
f 207/27/6 265/22/6 264/23/6
f 207/27/6 264/23/6 259/24/6
f 207/27/6 259/24/6 258/28/6
f 207/27/6 258/28/6 250/24/6
f 207/27/6 250/24/6 249/23/6
f 207/27/6 249/23/6 248/22/6
f 207/27/6 248/22/6 247/21/6
f 207/27/6 247/21/6 269/25/6
f 207/27/6 269/25/6 270/26/6
f 211/27/5 287/26/5 210/27/5
f 287/26/5 211/27/5 288/25/5
f 288/25/5 211/27/5 289/21/5
f 289/21/5 211/27/5 290/22/5
f 290/22/5 211/27/5 291/23/5
f 291/23/5 211/27/5 292/24/5
f 292/24/5 211/27/5 293/28/5
f 293/28/5 211/27/5 294/24/5
f 294/24/5 211/27/5 295/23/5
f 295/23/5 211/27/5 296/22/5
f 296/22/5 211/27/5 297/21/5
f 297/21/5 211/27/5 298/25/5
f 298/25/5 211/27/5 257/26/5
f 270/26/67 94/27/68 207/27/68
f 94/27/68 270/26/67 97/26/67
f 27/25/73 257/26/67 29/26/67
f 257/26/67 27/25/73 298/25/73
f 287/26/70 5/27/58 210/27/58
f 5/27/58 287/26/70 9/26/70
f 19/28/42 292/24/69 293/28/42
f 292/24/69 19/28/42 17/24/69
f 17/24/69 291/23/71 292/24/69
f 291/23/71 17/24/69 15/23/71
f 26/21/61 296/22/62 297/21/61
f 296/22/62 26/21/61 24/22/62
f 288/25/66 9/26/70 287/26/70
f 9/26/70 288/25/66 11/25/66
f 290/22/72 12/21/65 289/21/65
f 12/21/65 290/22/72 14/22/72
f 289/21/65 11/25/66 288/25/66
f 11/25/66 289/21/65 12/21/65
f 24/22/62 295/23/63 296/22/62
f 295/23/63 24/22/62 22/23/63
f 20/24/64 293/28/42 294/24/64
f 293/28/42 20/24/64 19/28/42
f 15/23/71 290/22/72 291/23/71
f 290/22/72 15/23/71 14/22/72
f 26/21/61 298/25/73 27/25/73
f 298/25/73 26/21/61 297/21/61
f 22/23/63 294/24/64 295/23/63
f 294/24/64 22/23/63 20/24/64
f 299/29/58 300/30/58 301/30/58
f 300/30/58 299/29/58 302/29/58
f 303/31/58 189/32/58 123/32/58
f 189/32/58 303/31/58 304/31/58
f 304/31/58 303/31/58 305/31/58
f 304/31/58 305/31/58 306/31/58
f 307/29/19 299/29/74 308/29/74
f 299/29/74 307/29/19 302/29/19
f 302/29/19 307/29/19 309/29/19
f 163/32/5 310/31/5 164/32/5
f 310/31/5 163/32/5 311/30/5
f 311/30/5 163/32/5 166/32/5
f 311/30/5 166/32/5 312/29/5
f 312/29/5 166/32/5 182/33/5
f 312/29/5 182/33/5 187/34/5
f 312/29/5 187/34/5 181/35/5
f 312/29/5 181/35/5 313/29/5
f 313/29/5 181/35/5 157/36/5
f 313/29/5 157/36/5 139/35/5
f 313/29/5 139/35/5 138/34/5
f 313/29/5 138/34/5 151/33/5
f 313/29/5 151/33/5 170/32/5
f 313/29/5 170/32/5 169/32/5
f 313/29/5 169/32/5 314/30/5
f 315/29/5 313/29/5 314/30/5
f 314/30/5 169/32/5 316/30/5
f 316/30/5 169/32/5 180/33/5
f 316/30/5 180/33/5 179/34/5
f 316/30/5 179/34/5 317/29/5
f 317/29/5 179/34/5 318/29/5
f 318/29/5 179/34/5 184/35/5
f 318/29/5 184/35/5 319/37/5
f 319/37/5 184/35/5 183/36/5
f 319/37/5 183/36/5 185/35/5
f 319/37/5 185/35/5 137/34/5
f 319/37/5 137/34/5 136/33/5
f 319/37/5 136/33/5 320/38/5
f 320/38/5 136/33/5 186/32/5
f 320/38/5 186/32/5 189/32/5
f 320/38/5 189/32/5 304/31/5
f 300/30/42 321/30/42 301/30/42
f 321/30/42 300/30/42 322/30/42
f 323/39/75 324/29/76 325/29/76
f 324/29/76 323/39/75 326/40/76
f 326/40/76 323/39/75 327/39/75
f 326/40/76 327/39/75 328/40/76
f 328/40/76 327/39/75 329/29/76
f 329/29/76 327/39/75 318/29/76
f 310/31/68 131/32/68 164/32/68
f 131/32/68 310/31/68 330/31/68
f 330/31/68 310/31/68 331/31/68
f 330/31/68 331/31/68 332/31/68
f 331/31/77 333/30/77 332/31/77
f 334/30/77 333/30/77 331/31/77
f 312/29/77 333/30/77 334/30/77
f 312/29/77 334/30/77 311/30/77
f 335/29/77 333/30/77 312/29/77
f 333/30/77 335/29/77 336/30/77
f 337/30/42 314/30/42 316/30/42
f 314/30/42 337/30/42 338/30/42
f 324/29/78 339/37/79 325/29/78
f 339/37/79 324/29/78 319/37/79
f 319/37/79 324/29/78 329/29/78
f 319/37/79 329/29/78 318/29/78
f 313/29/80 340/39/80 312/29/80
f 340/39/80 313/29/80 341/41/80
f 340/39/80 341/41/80 327/39/80
f 327/39/80 341/41/80 342/41/80
f 327/39/80 342/41/80 343/29/80
f 327/39/80 343/29/80 318/29/80
f 318/29/80 343/29/80 317/29/80
f 344/29/81 343/29/19 315/29/19
f 343/29/19 344/29/81 317/29/19
f 317/29/19 344/29/81 345/29/81
f 317/29/58 337/30/58 316/30/58
f 337/30/58 317/29/58 345/29/58
f 337/30/5 344/29/81 338/30/5
f 344/29/81 337/30/5 345/29/81
f 325/29/6 300/30/6 302/29/6
f 300/30/6 325/29/6 140/34/6
f 140/34/6 325/29/6 141/35/6
f 152/33/6 300/30/6 140/34/6
f 141/35/6 325/29/6 339/37/6
f 173/32/6 300/30/6 152/33/6
f 141/35/6 339/37/6 153/36/6
f 153/36/6 339/37/6 154/35/6
f 154/35/6 339/37/6 155/34/6
f 155/34/6 339/37/6 156/33/6
f 156/33/6 339/37/6 346/38/6
f 156/33/6 346/38/6 125/32/6
f 125/32/6 346/38/6 123/32/6
f 123/32/6 346/38/6 303/31/6
f 173/32/6 322/30/6 300/30/6
f 173/32/6 347/29/6 322/30/6
f 322/30/6 347/29/6 307/29/6
f 148/32/6 347/29/6 173/32/6
f 150/33/6 347/29/6 148/32/6
f 143/34/6 347/29/6 150/33/6
f 142/35/6 347/29/6 143/34/6
f 158/36/6 347/29/6 142/35/6
f 161/35/6 347/29/6 158/36/6
f 161/35/6 335/29/6 347/29/6
f 145/34/6 335/29/6 161/35/6
f 144/33/6 335/29/6 145/34/6
f 135/32/6 335/29/6 144/33/6
f 135/32/6 336/30/6 335/29/6
f 129/32/6 336/30/6 135/32/6
f 131/32/6 336/30/6 129/32/6
f 336/30/6 131/32/6 330/31/6
f 299/29/74 321/30/6 308/29/74
f 321/30/6 299/29/74 301/30/6
f 309/29/82 325/29/82 302/29/82
f 309/29/82 323/39/82 325/29/82
f 348/41/82 323/39/82 309/29/82
f 349/41/82 323/39/82 348/41/82
f 323/39/82 349/41/82 350/39/82
f 347/29/82 350/39/82 349/41/82
f 350/39/82 347/29/82 335/29/82
f 319/37/79 346/38/83 339/37/79
f 346/38/83 319/37/79 351/38/83
f 351/38/83 319/37/79 305/31/83
f 305/31/83 319/37/79 352/38/83
f 352/38/83 319/37/79 320/38/83
f 306/31/83 305/31/83 352/38/83
f 340/39/19 323/39/75 350/39/19
f 323/39/75 340/39/19 327/39/75
f 312/29/13 353/42/13 335/29/13
f 353/42/13 312/29/13 340/39/13
f 354/42/13 335/29/13 353/42/13
f 353/42/13 340/39/13 355/43/13
f 335/29/13 354/42/13 350/39/13
f 355/43/13 340/39/13 356/43/13
f 350/39/13 354/42/13 356/43/13
f 350/39/13 356/43/13 340/39/13
f 307/44/68 321/45/68 322/45/68
f 321/45/68 307/44/68 308/44/68
f 344/44/68 314/45/68 338/45/68
f 314/45/68 344/44/68 315/44/68
f 312/44/19 347/44/19 335/44/19
f 347/44/19 312/44/19 307/44/19
f 307/44/19 312/44/19 309/44/19
f 309/44/19 312/44/19 302/44/19
f 302/44/19 312/44/19 325/44/19
f 325/44/19 312/44/19 324/44/19
f 324/44/19 312/44/19 329/44/19
f 329/44/19 312/44/19 318/44/19
f 318/44/19 312/44/19 313/44/19
f 318/44/19 313/44/19 315/44/19
f 318/44/19 315/44/19 343/44/19
f 318/44/19 343/44/19 317/44/19
f 216/46/84 220/47/84 217/47/84
f 220/47/84 216/46/84 222/46/84
f 222/46/84 216/46/84 223/48/84
f 222/46/84 223/48/84 230/48/84
f 230/48/84 223/48/84 225/49/84
f 230/48/84 225/49/84 229/49/84
f 232/46/68 236/47/68 233/47/68
f 236/47/68 232/46/68 238/46/68
f 238/46/68 232/46/68 239/48/68
f 238/46/68 239/48/68 246/48/68
f 246/48/68 239/48/68 241/49/68
f 246/48/68 241/49/68 245/49/68
f 310/50/77 334/51/77 331/50/77
f 334/51/77 310/50/77 311/51/77
f 332/50/77 336/51/77 330/50/77
f 336/51/77 332/50/77 333/51/77
f 357/52/76 329/53/76 324/53/76
f 329/53/76 357/52/76 358/52/76
f 359/54/82 347/53/82 360/54/82
f 347/53/82 359/54/82 307/53/82
f 307/53/82 359/54/82 309/53/82
f 361/55/13 354/56/13 353/56/13
f 354/56/13 361/55/13 362/55/13
f 315/53/80 363/54/80 364/53/80
f 363/54/80 315/53/80 365/54/80
f 365/54/80 315/53/80 343/53/80
f 320/57/83 306/58/83 352/57/83
f 306/58/83 320/57/83 304/58/83
f 351/57/83 303/58/83 346/57/83
f 303/58/83 351/57/83 305/58/83
f 366/59/5 367/60/5 368/59/5
f 367/60/5 366/59/5 369/60/5
f 366/59/42 370/59/42 371/59/42
f 370/59/42 366/59/42 368/59/42
f 372/60/58 366/59/58 371/59/58
f 366/59/58 372/60/58 369/60/58
f 367/60/68 370/59/68 368/59/68
f 370/59/68 367/60/68 373/60/68
f 372/60/6 370/59/6 373/60/6
f 370/59/6 372/60/6 371/59/6
f 374/59/42 375/59/42 376/59/42
f 375/59/42 374/59/42 377/59/42
f 378/60/68 375/59/68 377/59/68
f 375/59/68 378/60/68 379/60/68
f 380/60/58 374/59/58 376/59/58
f 374/59/58 380/60/58 381/60/58
f 380/60/6 375/59/6 379/60/6
f 375/59/6 380/60/6 376/59/6
f 374/59/5 378/60/5 377/59/5
f 378/60/5 374/59/5 381/60/5
f 382/61/5 383/39/5 384/61/5
f 383/39/5 382/61/5 385/39/5
f 385/39/5 382/61/5 386/62/5
f 383/39/68 387/61/68 384/61/68
f 387/61/68 383/39/68 388/39/68
f 389/62/58 382/61/58 390/61/58
f 382/61/58 389/62/58 386/62/58
f 385/39/85 389/62/86 391/39/85
f 389/62/86 385/39/85 386/62/86
f 391/39/6 387/61/6 388/39/6
f 387/61/6 391/39/6 390/61/6
f 390/61/6 391/39/6 389/62/6
f 388/39/19 385/39/85 391/39/85
f 385/39/85 388/39/19 383/39/19
f 372/61/42 382/61/42 369/61/42
f 369/61/42 382/61/42 367/61/42
f 384/61/42 367/61/42 382/61/42
f 384/61/42 373/61/42 367/61/42
f 373/61/42 378/61/42 372/61/42
f 384/61/42 378/61/42 373/61/42
f 381/61/42 372/61/42 378/61/42
f 381/61/42 382/61/42 372/61/42
f 384/61/42 379/61/42 378/61/42
f 387/61/42 379/61/42 384/61/42
f 380/61/42 382/61/42 381/61/42
f 379/61/42 387/61/42 380/61/42
f 380/61/42 390/61/42 382/61/42
f 390/61/42 380/61/42 387/61/42
