# Generated by GTAClone/tools/split_car_wheels.py from suv.obj
# Kenney Car Kit (CC0 1.0); the split is a derivative work, also CC0.
mtllib colormap.mtl
v -0.650000 0.400939 -0.936711
v -0.516667 0.400000 -0.936835
v -0.650000 0.400000 -0.936835
v -0.516980 0.400939 -0.936711
v -0.650000 0.300000 -0.860000
v -0.650000 0.400000 -1.050000
v -0.650000 0.300000 -1.050000
v -0.650000 0.495000 -0.897750
v -0.650000 0.575772 -0.835772
v -0.650000 0.377646 -0.849778
v -0.650000 0.450000 -0.819808
v -0.650000 0.637750 -0.755000
v -0.650000 0.512132 -0.772132
v -0.650000 0.559808 -0.710000
v -0.650000 0.676711 -0.660939
v -0.650000 0.589778 -0.637646
v -0.650000 0.690000 -0.560000
v -0.650000 0.600000 -0.560000
v -0.650000 0.589778 -0.482354
v -0.650000 0.676711 -0.459061
v -0.650000 0.559808 -0.410000
v -0.650000 0.637750 -0.365000
v -0.650000 0.512132 -0.347868
v -0.650000 0.575772 -0.284228
v -0.650000 0.450000 -0.300192
v -0.650000 0.377646 -0.270222
v -0.650000 0.495000 -0.222250
v -0.650000 0.300000 -0.260000
v -0.650000 0.200000 -0.260000
v -0.650000 0.300000 -0.170000
v -0.650000 0.400939 -0.183289
v -0.650000 0.200000 0.460000
v -0.650000 0.300000 0.370000
v -0.650000 0.400939 0.383289
v -0.650000 0.495000 0.422250
v -0.650000 0.300000 0.460000
v -0.650000 0.575772 0.484228
v -0.650000 0.377646 0.470222
v -0.650000 0.450000 0.500192
v -0.650000 0.637750 0.565000
v -0.650000 0.512132 0.547868
v -0.650000 0.559808 0.610000
v -0.650000 0.676711 0.659061
v -0.650000 0.589778 0.682354
v -0.650000 0.690000 0.760000
v -0.650000 0.600000 0.760000
v -0.650000 0.589778 0.837646
v -0.650000 0.676711 0.860939
v -0.650000 0.559808 0.910000
v -0.650000 0.637750 0.955000
v -0.650000 0.512132 0.972132
v -0.650000 0.575772 1.035772
v -0.650000 0.450000 1.019808
v -0.650000 0.377646 1.049778
v -0.650000 0.495000 1.097750
v -0.650000 0.300000 1.060000
v -0.650000 0.400000 1.136835
v -0.650000 0.400939 1.136711
v -0.650000 0.300000 1.200000
v -0.650000 0.400000 1.200000
v 0.650000 0.400000 1.136835
v 0.650000 0.495000 1.097750
v 0.650000 0.400939 1.136711
v 0.650000 0.300000 1.060000
v 0.650000 0.300000 1.200000
v 0.650000 0.400000 1.200000
v 0.650000 0.377646 1.049778
v 0.650000 0.575772 1.035772
v 0.650000 0.450000 1.019808
v 0.650000 0.512132 0.972132
v 0.650000 0.637750 0.955000
v 0.650000 0.559808 0.910000
v 0.650000 0.676711 0.860939
v 0.650000 0.589778 0.837646
v 0.650000 0.600000 0.760000
v 0.650000 0.690000 0.760000
v 0.650000 0.589778 0.682354
v 0.650000 0.676711 0.659061
v 0.650000 0.559808 0.610000
v 0.650000 0.637750 0.565000
v 0.650000 0.512132 0.547868
v 0.650000 0.450000 0.500192
v 0.650000 0.575772 0.484228
v 0.650000 0.377646 0.470222
v 0.650000 0.300000 0.460000
v 0.650000 0.495000 0.422250
v 0.650000 0.200000 0.460000
v 0.650000 0.400939 0.383289
v 0.650000 0.300000 0.370000
v 0.650000 0.300000 -0.170000
v 0.650000 0.200000 -0.260000
v 0.650000 0.495000 -0.222250
v 0.650000 0.400939 -0.183289
v 0.650000 0.300000 -0.260000
v 0.650000 0.377646 -0.270222
v 0.650000 0.575772 -0.284228
v 0.650000 0.450000 -0.300192
v 0.650000 0.512132 -0.347868
v 0.650000 0.637750 -0.365000
v 0.650000 0.559808 -0.410000
v 0.650000 0.676711 -0.459061
v 0.650000 0.589778 -0.482354
v 0.650000 0.600000 -0.560000
v 0.650000 0.690000 -0.560000
v 0.650000 0.589778 -0.637646
v 0.650000 0.676711 -0.660939
v 0.650000 0.559808 -0.710000
v 0.650000 0.637750 -0.755000
v 0.650000 0.512132 -0.772132
v 0.650000 0.450000 -0.819808
v 0.650000 0.575772 -0.835772
v 0.650000 0.377646 -0.849778
v 0.650000 0.300000 -0.860000
v 0.650000 0.495000 -0.897750
v 0.650000 0.400939 -0.936711
v 0.650000 0.400000 -0.936835
v 0.650000 0.300000 -1.050000
v 0.650000 0.400000 -1.050000
v 0.550000 0.500000 1.250000
v 0.548333 0.495000 1.097750
v 0.550000 0.500000 1.093913
v 0.516980 0.400939 1.136711
v 0.516667 0.400000 1.136835
v 0.516667 0.400000 1.216667
v 0.550000 0.500000 -1.050000
v 0.516667 0.400000 -1.083333
v 0.550000 0.500000 -1.150000
v 0.516667 0.400000 -0.936835
v 0.516980 0.400939 -0.936711
v 0.548333 0.495000 -0.897750
v 0.550000 0.500000 -0.893913
v -0.550000 0.575772 1.035772
v -0.550000 0.637750 0.955000
v -0.550000 0.637750 -0.365000
v -0.550000 0.676711 -0.459061
v 0.550000 0.637750 0.565000
v 0.550000 0.676711 0.659061
v 0.550000 0.676711 -0.459061
v 0.550000 0.637750 -0.365000
v 0.550000 0.575772 -0.835772
v 0.550000 0.637750 -0.755000
v 0.516980 0.400939 0.383289
v 0.548333 0.495000 0.422250
v 0.550000 0.500000 -0.226087
v 0.548333 0.495000 -0.222250
v 0.550000 0.575772 -0.284228
v -0.550000 0.575772 -0.284228
v 0.550000 0.575772 0.484228
v 0.550000 0.690000 0.760000
v 0.550000 0.676711 0.860939
v 0.550000 0.637750 0.955000
v 0.550000 0.575772 1.035772
v -0.550000 0.690000 -0.560000
v 0.550000 0.690000 -0.560000
v -0.516980 0.400939 0.383289
v -0.548333 0.495000 0.422250
v 0.550000 0.676711 -0.660939
v -0.516667 0.400000 -1.083333
v -0.550000 0.500000 -1.050000
v -0.550000 0.500000 -1.150000
v -0.548333 0.495000 -0.897750
v -0.550000 0.500000 -0.893913
v -0.548333 0.495000 -0.222250
v -0.516980 0.400939 -0.183289
v -0.550000 0.500000 0.426087
v -0.550000 0.500000 -0.226087
v -0.483333 0.300000 -0.170000
v -0.483333 0.300000 0.370000
v 0.550000 0.500000 0.426087
v 0.516980 0.400939 -0.183289
v 0.483333 0.300000 -0.170000
v 0.483333 0.300000 0.370000
v -0.516980 0.400939 1.136711
v -0.548333 0.495000 1.097750
v -0.550000 0.637750 0.565000
v -0.550000 0.575772 0.484228
v -0.550000 0.676711 -0.660939
v -0.550000 0.575772 -0.835772
v -0.550000 0.690000 0.760000
v -0.550000 0.676711 0.659061
v -0.550000 0.676711 0.860939
v -0.550000 0.500000 1.093913
v -0.550000 0.637750 -0.755000
v -0.516667 0.400000 1.216667
v -0.550000 0.500000 1.250000
v 0.275000 0.500000 1.250000
v -0.275000 0.500000 1.250000
v -0.516667 0.400000 1.136835
v -0.450000 0.500000 -1.150000
v 0.450000 0.500000 -1.150000
v -0.275000 0.500000 1.150000
v 0.275000 0.500000 1.150000
v -0.400000 0.200000 1.060000
v 0.400000 0.200000 0.460000
v 0.400000 0.200000 1.060000
v -0.400000 0.200000 -0.260000
v -0.400000 0.200000 0.460000
v -0.400000 0.200000 -0.860000
v 0.400000 0.200000 -0.860000
v 0.400000 0.200000 -0.260000
v -0.400000 0.300000 -0.860000
v 0.400000 0.300000 -0.860000
v 0.400000 0.300000 1.060000
v -0.400000 0.300000 1.060000
v 0.620711 0.300000 -1.120711
v 0.620711 0.400000 -1.120711
v -0.550000 0.400000 -1.150000
v 0.550000 0.300000 -1.150000
v -0.550000 0.300000 -1.150000
v 0.550000 0.400000 -1.150000
v -0.620711 0.400000 -1.120711
v -0.620711 0.300000 -1.120711
v -0.620711 0.400000 1.270711
v -0.620711 0.300000 1.270711
v -0.550000 0.400000 1.300000
v -0.550000 0.300000 1.300000
v 0.620711 0.400000 1.270711
v 0.620711 0.300000 1.270711
v 0.550000 0.400000 1.300000
v 0.550000 0.300000 1.300000
v -0.275000 0.800000 1.050000
v 0.275000 0.800000 1.100000
v 0.275000 0.800000 1.050000
v -0.275000 0.800000 1.100000
v 0.275000 0.750000 1.150000
v -0.275000 0.750000 1.150000
v -0.275000 0.500000 1.150000
v 0.275000 0.500000 1.150000
v 0.450000 1.300000 -0.950000
v -0.450000 1.300000 0.250000
v 0.450000 1.300000 0.250000
v -0.450000 1.300000 -0.950000
v -0.550000 0.800000 -0.150000
v -0.550000 0.800000 -1.150000
v -0.469612 1.201942 -0.150000
v -0.469612 1.201942 0.328446
v -0.469612 1.201942 0.428446
v 0.469612 1.201942 0.328446
v 0.469612 1.201942 0.428446
v 0.469612 1.201942 -0.150000
v 0.550000 0.800000 -0.150000
v 0.550000 0.800000 -1.150000
v -0.398290 1.050000 -1.050000
v 0.398290 1.050000 -1.050000
v -0.366860 1.207152 -0.987139
v 0.366860 1.207152 -0.987139
v 0.125000 0.250000 1.300000
v 0.175000 0.300000 1.350000
v 0.125000 0.250000 1.350000
v 0.175000 0.300000 1.300000
v -0.125000 0.250000 1.300000
v -0.125000 0.250000 1.350000
v -0.175000 0.300000 1.300000
v -0.175000 0.300000 1.350000
v 0.175000 0.375000 1.350000
v 0.125000 0.425000 1.300000
v 0.125000 0.425000 1.350000
v 0.175000 0.375000 1.300000
v -0.175000 0.375000 1.300000
v -0.125000 0.425000 1.300000
v -0.125000 0.425000 1.350000
v -0.175000 0.375000 1.350000
v -0.125000 0.212500 -1.150000
v -0.175000 0.262500 -1.200000
v -0.125000 0.212500 -1.200000
v -0.175000 0.262500 -1.150000
v 0.125000 0.212500 -1.150000
v 0.125000 0.212500 -1.200000
v 0.175000 0.262500 -1.150000
v 0.175000 0.262500 -1.200000
v -0.175000 0.337500 -1.200000
v -0.125000 0.387500 -1.150000
v -0.125000 0.387500 -1.200000
v -0.175000 0.337500 -1.150000
v 0.175000 0.337500 -1.150000
v 0.125000 0.387500 -1.150000
v 0.125000 0.387500 -1.200000
v 0.175000 0.337500 -1.200000
v 0.400000 0.450000 -0.300192
v 0.400000 0.512132 -0.347868
v 0.400000 0.559808 -0.410000
v 0.400000 0.589778 -0.482354
v 0.400000 0.377646 -0.849778
v 0.400000 0.450000 -0.819808
v 0.400000 0.559808 0.910000
v 0.400000 0.589778 0.837646
v 0.400000 0.450000 1.019808
v 0.400000 0.512132 0.972132
v -0.400000 0.300000 -0.260000
v 0.400000 0.600000 -0.560000
v 0.400000 0.589778 -0.637646
v 0.400000 0.300000 0.460000
v 0.400000 0.559808 0.610000
v 0.400000 0.512132 0.547868
v 0.400000 0.559808 -0.710000
v 0.400000 0.512132 -0.772132
v 0.400000 0.600000 0.760000
v 0.400000 0.589778 0.682354
v 0.400000 0.377646 0.470222
v 0.400000 0.377646 -0.270222
v 0.400000 0.300000 -0.260000
v 0.400000 0.450000 0.500192
v 0.400000 0.377646 1.049778
v -0.400000 0.377646 1.049778
v -0.400000 0.300000 0.460000
v -0.400000 0.589778 0.682354
v -0.400000 0.600000 0.760000
v -0.400000 0.559808 0.610000
v -0.400000 0.450000 1.019808
v -0.400000 0.512132 0.972132
v -0.400000 0.377646 0.470222
v -0.400000 0.512132 0.547868
v -0.400000 0.450000 0.500192
v -0.400000 0.559808 0.910000
v -0.400000 0.589778 0.837646
v -0.400000 0.377646 -0.849778
v -0.400000 0.450000 -0.819808
v -0.400000 0.512132 -0.772132
v -0.400000 0.559808 -0.710000
v -0.400000 0.589778 -0.637646
v -0.400000 0.600000 -0.560000
v -0.400000 0.589778 -0.482354
v -0.400000 0.559808 -0.410000
v -0.400000 0.512132 -0.347868
v -0.400000 0.450000 -0.300192
v -0.400000 0.377646 -0.270222
v 0.750000 0.900000 0.522902
v 0.550000 0.700000 0.522902
v 0.750000 0.700000 0.522902
v 0.550000 0.800000 0.522902
v 0.550000 0.900000 0.522902
v 0.750000 0.700000 0.422902
v 0.550000 0.700000 0.422902
v 0.469612 1.201942 0.328446
v 0.448788 0.800000 0.650000
v 0.550000 0.800000 0.650000
v 0.384017 1.123855 0.390916
v -0.384017 1.123855 0.390916
v -0.469612 1.201942 0.328446
v -0.550000 0.800000 0.650000
v -0.448788 0.800000 0.650000
v 0.485229 1.123855 0.263818
v 0.485229 1.123855 -0.040229
v 0.469612 1.201942 -0.150000
v 0.550000 0.800000 -0.150000
v 0.550000 0.800000 -0.040229
v -0.750000 0.700000 0.522902
v -0.550000 0.700000 0.422902
v -0.550000 0.700000 0.522902
v -0.750000 0.700000 0.422902
v -0.550000 0.800000 0.522902
v -0.750000 0.900000 0.522902
v -0.550000 0.900000 0.522902
v -0.750000 0.900000 0.422902
v 0.750000 0.900000 0.422902
v -0.550000 0.800000 -0.040229
v -0.469612 1.201942 -0.150000
v -0.550000 0.800000 -0.150000
v -0.485229 1.123855 -0.040229
v -0.485229 1.123855 0.263818
v 0.550000 0.900000 0.422902
v 0.550000 0.800000 0.422902
v -0.550000 0.900000 0.422902
v -0.550000 0.800000 0.422902
v -0.550000 0.800000 -1.150000
v -0.450000 0.700000 -1.150000
v -0.550000 0.700000 -1.150000
v 0.450000 0.700000 -1.150000
v 0.550000 0.700000 -1.150000
v 0.550000 0.800000 -1.150000
v -0.550000 0.800000 1.250000
v -0.275000 0.800000 1.250000
v -0.275000 0.800000 1.100000
v 0.275000 0.800000 1.250000
v 0.275000 0.800000 1.100000
v 0.275000 0.800000 1.150000
v 0.550000 0.800000 1.250000
v -0.275000 0.750000 1.150000
v 0.275000 0.750000 1.150000
v 0.362500 0.736603 1.250000
v 0.386618 0.746593 1.250000
v 0.341789 0.720711 1.250000
v 0.325898 0.700000 1.250000
v 0.315907 0.675882 1.250000
v 0.312500 0.650000 1.250000
v 0.412500 0.750000 1.250000
v 0.438382 0.746593 1.250000
v 0.315907 0.624118 1.250000
v 0.462500 0.736603 1.250000
v 0.325898 0.600000 1.250000
v 0.483211 0.720711 1.250000
v 0.341789 0.579289 1.250000
v 0.499103 0.700000 1.250000
v 0.362500 0.563397 1.250000
v 0.509093 0.675882 1.250000
v 0.512500 0.650000 1.250000
v 0.509093 0.624118 1.250000
v 0.386618 0.553407 1.250000
v 0.412500 0.550000 1.250000
v 0.438382 0.553407 1.250000
v 0.499103 0.600000 1.250000
v 0.462500 0.563397 1.250000
v 0.483211 0.579289 1.250000
v -0.462500 0.736603 1.250000
v -0.438382 0.746593 1.250000
v -0.483211 0.720711 1.250000
v -0.499103 0.700000 1.250000
v -0.509093 0.675882 1.250000
v -0.512500 0.650000 1.250000
v -0.412500 0.750000 1.250000
v -0.386618 0.746593 1.250000
v -0.509093 0.624118 1.250000
v -0.362500 0.736603 1.250000
v -0.499103 0.600000 1.250000
v -0.341789 0.720711 1.250000
v -0.483211 0.579289 1.250000
v -0.325898 0.700000 1.250000
v -0.462500 0.563397 1.250000
v -0.315907 0.675882 1.250000
v -0.312500 0.650000 1.250000
v -0.315907 0.624118 1.250000
v -0.438382 0.553407 1.250000
v -0.412500 0.550000 1.250000
v -0.386618 0.553407 1.250000
v -0.325898 0.600000 1.250000
v -0.362500 0.563397 1.250000
v -0.341789 0.579289 1.250000
v 0.509093 0.675882 1.250000
v 0.315907 0.675882 1.250000
v 0.341789 0.720711 1.250000
v 0.483211 0.720711 1.250000
v -0.315907 0.675882 1.250000
v -0.509093 0.675882 1.250000
v -0.483211 0.720711 1.250000
v -0.341789 0.720711 1.250000
v -0.550000 0.800000 0.422902
v -0.485229 1.123855 -0.040228
v -0.550000 0.800000 -0.040228
v -0.485229 1.123855 0.263818
v -0.550000 0.800000 0.522902
v -0.366860 1.207152 -0.987139
v 0.398290 1.050000 -1.050000
v -0.398290 1.050000 -1.050000
v 0.366860 1.207152 -0.987139
v 0.384017 1.123855 0.390916
v -0.448788 0.800000 0.650000
v 0.448788 0.800000 0.650000
v -0.384017 1.123855 0.390916
v 0.485229 1.123855 0.263818
v 0.550000 0.800000 -0.040228
v 0.485229 1.123855 -0.040228
v 0.550000 0.800000 0.422902
v 0.550000 0.800000 0.522902
v 0.450000 0.700000 -1.150000
v 0.550000 0.500000 -1.150000
v 0.450000 0.500000 -1.150000
v 0.550000 0.700000 -1.150000
v -0.550000 0.700000 -1.150000
v -0.450000 0.500000 -1.150000
v -0.550000 0.500000 -1.150000
v -0.450000 0.700000 -1.150000
vt 0.468750 0.315110
vt 0.468750 0.314922
vt 0.468750 0.294961
vt 0.468750 0.333886
vt 0.468750 0.350009
vt 0.468750 0.310460
vt 0.468750 0.324903
vt 0.468750 0.362380
vt 0.468750 0.337305
vt 0.468750 0.346822
vt 0.468750 0.370157
vt 0.468750 0.352805
vt 0.468750 0.372810
vt 0.468750 0.354845
vt 0.468750 0.275000
vt 0.468750 0.334884
vt 0.468750 0.475000
vt 0.468750 0.441667
vt 0.468750 0.435777
vt 0.468750 0.375000
vt 0.468750 0.437861
vt 0.468750 0.332143
vt 0.468750 0.417857
vt 0.343750 0.324903
vt 0.343750 0.337305
vt 0.343750 0.346822
vt 0.343750 0.352805
vt 0.343750 0.310460
vt 0.343750 0.294961
vt 0.343750 0.275000
vt 0.343750 0.354845
vt 0.468750 0.664729
vt 0.468750 0.624806
vt 0.468750 0.644767
vt 0.468750 0.725000
vt 0.468750 0.709413
vt 0.468750 0.584884
vt 0.468750 0.612380
vt 0.468750 0.600009
vt 0.468750 0.620157
vt 0.468750 0.622810
vt 0.468750 0.634787
vt 0.468750 0.632112
vt 0.468750 0.634107
vt 0.468750 0.628940
vt 0.468750 0.619992
vt 0.468750 0.614826
vt 0.468750 0.609659
vt 0.468750 0.604845
vt 0.468750 0.600711
vt 0.468750 0.597539
vt 0.468750 0.595545
vt 0.468750 0.594864
vt 0.843750 0.394767
vt 0.843750 0.374806
vt 0.843750 0.414729
vt 0.843750 0.294961
vt 0.843750 0.332143
vt 0.843750 0.275000
vt 0.843750 0.417857
vt 0.843750 0.475000
vt 0.218750 0.028407
vt 0.218750 0.025000
vt 0.218750 0.038397
vt 0.218750 0.054289
vt 0.218750 0.075000
vt 0.218750 0.099118
vt 0.218750 0.125000
vt 0.218750 0.150882
vt 0.218750 0.175000
vt 0.218750 0.195711
vt 0.218750 0.211602
vt 0.218750 0.221592
vt 0.218750 0.225000
vt 0.093750 0.025000
vt 0.093750 0.184083
vt 0.093750 0.225000
vt 0.093750 0.147804
vt 0.343750 0.225000
vt 0.343750 0.025000
vn 0.000000 0.258819 -0.965926
vn 0.000000 0.813241 -0.581927
vn 0.000000 0.751840 -0.659346
vn 0.000000 0.233891 -0.972263
vn -1.000000 0.000000 0.000000
vn 1.000000 0.000000 0.000000
vn 0.948683 -0.316228 0.000000
vn 0.000000 0.866025 0.500000
vn 0.000000 0.707107 0.707107
vn 0.000000 0.965926 0.258819
vn 0.000000 0.866025 -0.500000
vn 0.000000 0.965926 -0.258819
vn 0.000000 0.707107 -0.707107
vn 0.000000 0.500000 -0.866025
vn 0.000000 0.479903 -0.877321
vn 0.000000 0.500000 0.866025
vn 0.000000 0.608761 0.793353
vn 0.000000 0.479903 0.877321
vn 0.000000 1.000000 0.000000
vn -0.948683 -0.316228 0.000000
vn 0.000000 0.258819 0.965926
vn 0.000000 0.233891 0.972263
vn 0.000000 0.130526 -0.991445
vn 0.000000 0.608761 -0.793353
vn 0.000000 0.130526 0.991445
vn 0.000000 -0.316228 0.948683
vn 0.000000 0.751840 0.659346
vn 0.000000 0.813241 0.581927
vn 0.000000 -0.554700 -0.832050
vn 0.000000 -1.000000 0.000000
vn 0.000000 0.000000 -1.000000
vn 0.000000 0.000000 1.000000
vn 0.923879 0.000000 -0.382683
vn 0.707107 0.000000 -0.707107
vn -0.195090 0.000000 -0.980785
vn 0.195090 0.000000 -0.980785
vn -0.707107 0.000000 -0.707107
vn -0.923879 0.000000 0.382683
vn -0.707107 0.000000 0.707107
vn -0.195090 0.000000 0.980785
vn 0.707107 0.000000 0.707107
vn 0.923879 0.000000 0.382683
vn 0.195090 0.000000 0.980785
vn -0.923879 0.000000 -0.382683
vn 0.000000 0.923879 0.382683
vn 0.000000 0.382683 0.923879
vn 0.000000 0.806546 -0.591171
vn 0.000000 0.966686 0.255964
vn -0.980581 0.196116 0.000000
vn 0.980581 0.196116 0.000000
vn 0.000000 0.876397 0.481589
vn 0.000000 0.371391 -0.928477
vn 0.382683 -0.923879 0.000000
vn 0.923879 -0.382683 0.000000
vn -0.382683 -0.923879 -0.000000
vn -0.923879 -0.382683 -0.000000
vn 0.923879 0.382683 0.000000
vn 0.382683 0.923879 0.000000
vn 0.000000 0.000000 -1.000000
vn -0.382683 0.923879 -0.000000
vn -0.923879 0.382683 -0.000000
vn -0.382683 -0.923879 0.000000
vn -0.923879 -0.382683 0.000000
vn 0.382683 -0.923879 0.000000
vn 0.923879 -0.382683 0.000000
vn -0.923879 0.382683 0.000000
vn -0.382683 0.923879 0.000000
vn 0.382683 0.923879 0.000000
vn 0.923879 0.382683 0.000000
vn 0.000000 -0.500000 -0.866025
vn 0.000000 -0.707107 -0.707107
vn 0.000000 -0.866025 -0.500000
vn 0.000000 -0.965926 -0.258819
vn 0.000000 -0.500000 0.866025
vn 0.000000 -0.258819 0.965926
vn 0.000000 -0.065403 -0.997859
vn 0.000000 -0.965926 0.258819
vn 0.000000 -0.065403 0.997859
vn 0.000000 -0.866025 0.500000
vn 0.000000 -0.707107 0.707107
vn 0.000000 -0.258819 -0.965926
vn 0.000000 -0.130526 0.991445
vn 0.000000 -0.130526 -0.991445
vn 0.000000 0.624695 0.780869
vn -0.707107 0.707107 0.000000
vn 0.707107 0.707107 0.000000
vn -0.000000 0.000000 1.000000
usemtl colormap
f 1/1/1 2/2/2 3/2/3
f 2/2/2 1/1/1 4/1/4
f 5/3/5 6/2/5 7/3/5
f 6/2/5 5/3/5 3/2/5
f 3/2/5 5/3/5 1/1/5
f 1/1/5 5/3/5 8/4/5
f 8/4/5 5/3/5 9/5/5
f 9/5/5 5/3/5 10/6/5
f 9/5/5 10/6/5 11/7/5
f 9/5/5 11/7/5 12/8/5
f 12/8/5 11/7/5 13/9/5
f 12/8/5 13/9/5 14/10/5
f 12/8/5 14/10/5 15/11/5
f 15/11/5 14/10/5 16/12/5
f 15/11/5 16/12/5 17/13/5
f 17/13/5 16/12/5 18/14/5
f 17/13/5 18/14/5 19/12/5
f 17/13/5 19/12/5 20/11/5
f 20/11/5 19/12/5 21/10/5
f 20/11/5 21/10/5 22/8/5
f 22/8/5 21/10/5 23/9/5
f 22/8/5 23/9/5 24/5/5
f 24/5/5 23/9/5 25/7/5
f 24/5/5 25/7/5 26/6/5
f 24/5/5 26/6/5 27/4/5
f 27/4/5 26/6/5 28/3/5
f 27/4/5 28/3/5 29/15/5
f 27/4/5 29/15/5 30/3/5
f 27/4/5 30/3/5 31/1/5
f 30/3/5 29/15/5 32/15/5
f 30/3/5 32/15/5 33/3/5
f 33/3/5 32/15/5 34/1/5
f 34/1/5 32/15/5 35/4/5
f 35/4/5 32/15/5 36/3/5
f 35/4/5 36/3/5 37/5/5
f 37/5/5 36/3/5 38/6/5
f 37/5/5 38/6/5 39/7/5
f 37/5/5 39/7/5 40/8/5
f 40/8/5 39/7/5 41/9/5
f 40/8/5 41/9/5 42/10/5
f 40/8/5 42/10/5 43/11/5
f 43/11/5 42/10/5 44/12/5
f 43/11/5 44/12/5 45/13/5
f 45/13/5 44/12/5 46/14/5
f 45/13/5 46/14/5 47/12/5
f 45/13/5 47/12/5 48/11/5
f 48/11/5 47/12/5 49/10/5
f 48/11/5 49/10/5 50/8/5
f 50/8/5 49/10/5 51/9/5
f 50/8/5 51/9/5 52/5/5
f 52/5/5 51/9/5 53/7/5
f 52/5/5 53/7/5 54/6/5
f 52/5/5 54/6/5 55/4/5
f 55/4/5 54/6/5 56/3/5
f 55/4/5 56/3/5 57/2/5
f 55/4/5 57/2/5 58/1/5
f 57/2/5 56/3/5 59/3/5
f 57/2/5 59/3/5 60/2/5
f 61/2/6 62/4/6 63/1/6
f 64/3/6 62/4/6 61/2/6
f 64/3/6 61/2/6 65/3/6
f 65/3/6 61/2/6 66/2/6
f 67/6/6 62/4/6 64/3/6
f 67/6/6 68/5/6 62/4/6
f 69/7/6 68/5/6 67/6/6
f 70/9/6 68/5/6 69/7/6
f 70/9/6 71/8/6 68/5/6
f 72/10/6 71/8/6 70/9/6
f 72/10/6 73/11/6 71/8/6
f 74/12/6 73/11/6 72/10/6
f 75/14/6 73/11/6 74/12/6
f 75/14/6 76/13/6 73/11/6
f 77/12/6 76/13/6 75/14/6
f 77/12/6 78/11/6 76/13/6
f 79/10/6 78/11/6 77/12/6
f 79/10/6 80/8/6 78/11/6
f 81/9/6 80/8/6 79/10/6
f 82/7/6 80/8/6 81/9/6
f 82/7/6 83/5/6 80/8/6
f 84/6/6 83/5/6 82/7/6
f 85/3/6 83/5/6 84/6/6
f 83/5/6 85/3/6 86/4/6
f 87/15/6 86/4/6 85/3/6
f 87/15/6 88/1/6 86/4/6
f 87/15/6 89/3/6 88/1/6
f 87/15/6 90/3/6 89/3/6
f 91/15/6 90/3/6 87/15/6
f 91/15/6 92/4/6 90/3/6
f 90/3/6 92/4/6 93/1/6
f 94/3/6 92/4/6 91/15/6
f 95/6/6 92/4/6 94/3/6
f 95/6/6 96/5/6 92/4/6
f 97/7/6 96/5/6 95/6/6
f 98/9/6 96/5/6 97/7/6
f 98/9/6 99/8/6 96/5/6
f 100/10/6 99/8/6 98/9/6
f 100/10/6 101/11/6 99/8/6
f 102/12/6 101/11/6 100/10/6
f 103/14/6 101/11/6 102/12/6
f 103/14/6 104/13/6 101/11/6
f 105/12/6 104/13/6 103/14/6
f 105/12/6 106/11/6 104/13/6
f 107/10/6 106/11/6 105/12/6
f 107/10/6 108/8/6 106/11/6
f 109/9/6 108/8/6 107/10/6
f 110/7/6 108/8/6 109/9/6
f 110/7/6 111/5/6 108/8/6
f 112/6/6 111/5/6 110/7/6
f 113/3/6 111/5/6 112/6/6
f 113/3/6 114/4/6 111/5/6
f 113/3/6 115/1/6 114/4/6
f 113/3/6 116/2/6 115/1/6
f 117/3/6 116/2/6 113/3/6
f 116/2/6 117/3/6 118/2/6
f 119/16/7 120/4/7 121/16/7
f 120/4/7 119/16/7 122/1/7
f 122/1/7 119/16/7 123/2/7
f 123/2/7 119/16/7 124/2/7
f 125/16/7 126/2/7 127/16/7
f 126/2/7 125/16/7 128/2/7
f 128/2/7 125/16/7 129/1/7
f 129/1/7 125/16/7 130/4/7
f 130/4/7 125/16/7 131/16/7
f 50/8/8 132/5/9 133/8/8
f 132/5/9 50/8/8 52/5/9
f 20/11/10 134/8/8 135/11/10
f 134/8/8 20/11/10 22/8/8
f 136/8/11 78/11/12 80/8/11
f 78/11/12 136/8/11 137/11/12
f 138/11/10 99/8/8 101/11/10
f 99/8/8 138/11/10 139/8/8
f 140/5/13 108/8/11 111/5/13
f 108/8/11 140/5/13 141/8/11
f 142/1/4 86/4/14 88/1/1
f 86/4/14 142/1/4 143/4/15
f 92/4/16 144/16/17 145/4/18
f 144/16/17 92/4/16 96/5/9
f 144/16/17 96/5/9 146/5/9
f 22/8/8 147/5/9 134/8/8
f 147/5/9 22/8/8 24/5/9
f 148/5/13 80/8/11 83/5/13
f 80/8/11 148/5/13 136/8/11
f 139/8/8 96/5/9 99/8/8
f 96/5/9 139/8/8 146/5/9
f 137/11/12 76/13/19 78/11/12
f 76/13/19 137/11/12 149/13/19
f 149/13/19 73/11/10 76/13/19
f 73/11/10 149/13/19 150/11/10
f 151/8/8 68/5/9 71/8/8
f 68/5/9 151/8/8 152/5/9
f 17/13/19 135/11/10 153/13/19
f 135/11/10 17/13/19 20/11/10
f 154/13/19 101/11/10 104/13/19
f 101/11/10 154/13/19 138/11/10
f 35/4/14 155/1/4 34/1/1
f 155/1/4 35/4/14 156/4/15
f 141/8/11 106/11/12 108/8/11
f 106/11/12 141/8/11 157/11/12
f 158/2/20 159/16/20 160/16/20
f 159/16/20 158/2/20 2/2/20
f 159/16/20 2/2/20 4/1/20
f 159/16/20 4/1/20 161/4/20
f 159/16/20 161/4/20 162/16/20
f 163/4/18 31/1/21 164/1/22
f 31/1/21 163/4/18 27/4/16
f 163/4/20 165/16/20 166/16/20
f 165/16/20 163/4/20 164/1/20
f 165/16/20 164/1/20 167/3/20
f 165/16/20 167/3/20 156/4/20
f 156/4/20 167/3/20 155/1/20
f 155/1/20 167/3/20 168/3/20
f 62/4/16 122/1/22 63/1/21
f 122/1/22 62/4/16 120/4/18
f 169/16/7 145/4/7 144/16/7
f 145/4/7 169/16/7 170/1/7
f 170/1/7 169/16/7 171/3/7
f 171/3/7 169/16/7 143/4/7
f 171/3/7 143/4/7 142/1/7
f 171/3/7 142/1/7 172/3/7
f 173/1/22 55/4/16 58/1/21
f 55/4/16 173/1/22 174/4/18
f 37/5/13 175/8/11 176/5/13
f 175/8/11 37/5/13 40/8/11
f 15/11/12 153/13/19 177/11/12
f 153/13/19 15/11/12 17/13/19
f 8/4/14 4/1/4 1/1/1
f 4/1/4 8/4/14 161/4/15
f 34/1/1 168/3/23 33/3/23
f 168/3/23 34/1/1 155/1/4
f 93/1/21 145/4/18 170/1/22
f 145/4/18 93/1/21 92/4/16
f 9/5/13 161/4/15 8/4/14
f 161/4/15 9/5/13 162/16/24
f 162/16/24 9/5/13 178/5/13
f 90/3/25 170/1/22 171/3/25
f 170/1/22 90/3/25 93/1/21
f 43/11/12 179/13/19 180/11/12
f 179/13/19 43/11/12 45/13/19
f 62/4/16 121/16/17 120/4/18
f 121/16/17 62/4/16 68/5/9
f 121/16/17 68/5/9 152/5/9
f 169/16/24 86/4/14 143/4/15
f 86/4/14 169/16/24 83/5/13
f 83/5/13 169/16/24 148/5/13
f 142/1/4 89/3/23 172/3/23
f 89/3/23 142/1/4 88/1/1
f 48/11/10 133/8/8 181/11/10
f 133/8/8 48/11/10 50/8/8
f 166/16/17 27/4/16 163/4/18
f 27/4/16 166/16/17 24/5/9
f 24/5/9 166/16/17 147/5/9
f 182/16/17 55/4/16 174/4/18
f 55/4/16 182/16/17 52/5/9
f 52/5/9 182/16/17 132/5/9
f 157/11/12 104/13/19 106/11/12
f 104/13/19 157/11/12 154/13/19
f 45/13/19 181/11/10 179/13/19
f 181/11/10 45/13/19 48/11/10
f 129/1/4 116/2/3 128/2/2
f 116/2/3 129/1/4 115/1/1
f 12/8/11 177/11/12 183/8/11
f 177/11/12 12/8/11 15/11/12
f 129/1/4 114/4/14 115/1/1
f 114/4/14 129/1/4 130/4/15
f 164/1/22 30/3/25 167/3/25
f 30/3/25 164/1/22 31/1/21
f 35/4/14 165/16/24 156/4/15
f 165/16/24 35/4/14 37/5/13
f 165/16/24 37/5/13 176/5/13
f 40/8/11 180/11/12 175/8/11
f 180/11/12 40/8/11 43/11/12
f 130/4/15 111/5/13 114/4/14
f 111/5/13 130/4/15 131/16/24
f 111/5/13 131/16/24 140/5/13
f 150/11/10 71/8/8 73/11/10
f 71/8/8 150/11/10 151/8/8
f 119/16/26 184/2/26 124/2/26
f 184/2/26 119/16/26 185/16/26
f 185/16/26 119/16/26 186/16/26
f 185/16/26 186/16/26 187/16/26
f 173/1/22 57/2/27 188/2/28
f 57/2/27 173/1/22 58/1/21
f 9/5/13 183/8/11 178/5/13
f 183/8/11 9/5/13 12/8/11
f 174/4/20 185/16/20 182/16/20
f 185/16/20 174/4/20 173/1/20
f 185/16/20 173/1/20 188/2/20
f 185/16/20 188/2/20 184/2/20
f 63/1/21 123/2/28 61/2/27
f 123/2/28 63/1/21 122/1/22
f 160/16/29 126/2/29 158/2/29
f 126/2/29 160/16/29 127/16/29
f 127/16/29 160/16/29 189/16/29
f 127/16/29 189/16/29 190/16/29
f 191/16/19 186/16/19 192/16/19
f 186/16/19 191/16/19 187/16/19
f 193/15/30 194/15/30 195/15/30
f 194/15/30 193/15/30 196/15/30
f 196/15/30 193/15/30 197/15/30
f 196/15/30 197/15/30 29/15/30
f 29/15/30 197/15/30 32/15/30
f 198/15/30 194/15/30 196/15/30
f 199/15/30 194/15/30 198/15/30
f 200/15/30 194/15/30 199/15/30
f 200/15/30 87/15/30 194/15/30
f 87/15/30 200/15/30 91/15/30
f 201/3/31 199/15/31 198/15/31
f 199/15/31 201/3/31 202/3/31
f 203/3/32 193/15/32 195/15/32
f 193/15/32 203/3/32 204/3/32
f 118/2/33 205/3/34 206/2/34
f 205/3/34 118/2/33 117/3/33
f 207/2/35 208/3/36 209/3/35
f 208/3/36 207/2/35 210/2/36
f 210/2/36 205/3/34 208/3/36
f 205/3/34 210/2/36 206/2/34
f 211/2/37 209/3/35 212/3/37
f 209/3/35 211/2/37 207/2/35
f 113/3/30 205/3/30 117/3/30
f 205/3/30 113/3/30 202/3/30
f 205/3/30 202/3/30 208/3/30
f 208/3/30 202/3/30 209/3/30
f 209/3/30 202/3/30 201/3/30
f 209/3/30 201/3/30 5/3/30
f 209/3/30 5/3/30 212/3/30
f 212/3/30 5/3/30 7/3/30
f 59/3/38 213/2/39 60/2/38
f 213/2/39 59/3/38 214/3/39
f 215/2/40 214/3/39 216/3/40
f 214/3/39 215/2/40 213/2/39
f 217/2/41 65/3/42 66/2/42
f 65/3/42 217/2/41 218/3/41
f 219/2/43 216/3/40 220/3/43
f 216/3/40 219/2/43 215/2/40
f 65/3/30 203/3/30 64/3/30
f 203/3/30 65/3/30 218/3/30
f 203/3/30 218/3/30 220/3/30
f 203/3/30 220/3/30 216/3/30
f 203/3/30 216/3/30 204/3/30
f 204/3/30 216/3/30 56/3/30
f 56/3/30 216/3/30 214/3/30
f 56/3/30 214/3/30 59/3/30
f 57/2/27 184/2/19 188/2/28
f 184/2/19 57/2/27 215/2/19
f 215/2/19 124/2/19 184/2/19
f 215/2/19 57/2/27 213/2/19
f 213/2/19 57/2/27 60/2/19
f 219/2/19 124/2/19 215/2/19
f 219/2/19 123/2/28 124/2/19
f 217/2/19 123/2/28 219/2/19
f 66/2/19 123/2/28 217/2/19
f 123/2/28 66/2/19 61/2/27
f 217/2/41 220/3/43 218/3/41
f 220/3/43 217/2/41 219/2/43
f 3/2/3 211/2/19 6/2/19
f 3/2/3 207/2/19 211/2/19
f 2/2/2 207/2/19 3/2/3
f 158/2/19 207/2/19 2/2/2
f 126/2/19 207/2/19 158/2/19
f 207/2/19 126/2/19 210/2/19
f 128/2/2 210/2/19 126/2/19
f 128/2/2 206/2/19 210/2/19
f 116/2/3 206/2/19 128/2/2
f 206/2/19 116/2/3 118/2/19
f 7/3/44 211/2/37 212/3/37
f 211/2/37 7/3/44 6/2/44
f 221/17/19 222/17/45 223/17/19
f 222/17/45 221/17/19 224/17/45
f 224/17/45 225/18/46 222/17/45
f 225/18/46 224/17/45 226/18/46
f 225/18/46 227/15/32 228/15/32
f 227/15/32 225/18/46 226/18/46
f 229/17/47 230/17/48 231/17/48
f 230/17/48 229/17/47 232/17/47
f 233/15/49 232/17/49 234/15/49
f 232/17/49 233/15/49 235/19/49
f 232/17/49 235/19/49 230/17/49
f 230/17/49 235/19/49 236/19/49
f 230/17/49 236/19/49 237/19/49
f 237/19/30 238/19/30 239/19/30
f 238/19/30 237/19/30 236/19/30
f 238/19/50 231/17/50 239/19/50
f 240/19/50 231/17/50 238/19/50
f 231/17/50 240/19/50 229/17/50
f 241/15/50 229/17/50 240/19/50
f 229/17/50 241/15/50 242/15/50
f 231/17/48 237/19/51 239/19/51
f 237/19/51 231/17/48 230/17/48
f 234/15/52 243/20/52 242/15/52
f 243/20/52 234/15/52 232/17/47
f 244/20/52 242/15/52 243/20/52
f 243/20/52 232/17/47 245/21/52
f 242/15/52 244/20/52 229/17/47
f 245/21/52 232/17/47 246/21/52
f 229/17/47 244/20/52 246/21/52
f 229/17/47 246/21/52 232/17/47
f 247/15/53 248/22/54 249/15/53
f 248/22/54 247/15/53 250/22/54
f 251/15/55 249/15/53 252/15/55
f 249/15/53 251/15/55 247/15/53
f 253/22/56 252/15/55 254/22/56
f 252/15/55 253/22/56 251/15/55
f 255/23/57 256/17/58 257/17/58
f 256/17/58 255/23/57 258/23/57
f 250/22/54 255/23/57 248/22/54
f 255/23/57 250/22/54 258/23/57
f 253/22/59 247/15/59 251/15/59
f 247/15/59 253/22/59 250/22/59
f 250/22/59 253/22/59 259/23/59
f 250/22/59 259/23/59 258/23/59
f 258/23/59 259/23/59 260/17/59
f 258/23/59 260/17/59 256/17/59
f 257/17/58 260/17/60 261/17/60
f 260/17/60 257/17/58 256/17/58
f 259/23/61 254/22/56 262/23/61
f 254/22/56 259/23/61 253/22/56
f 261/17/60 259/23/61 262/23/61
f 259/23/61 261/17/60 260/17/60
f 263/15/62 264/22/63 265/15/62
f 264/22/63 263/15/62 266/22/63
f 267/15/64 265/15/62 268/15/64
f 265/15/62 267/15/64 263/15/62
f 269/22/65 268/15/64 270/22/65
f 268/15/64 269/22/65 267/15/64
f 271/23/66 272/17/67 273/17/67
f 272/17/67 271/23/66 274/23/66
f 266/22/63 271/23/66 264/22/63
f 271/23/66 266/22/63 274/23/66
f 269/22/32 263/15/32 267/15/32
f 263/15/32 269/22/32 266/22/32
f 266/22/32 269/22/32 275/23/32
f 266/22/32 275/23/32 274/23/32
f 274/23/32 275/23/32 276/17/32
f 274/23/32 276/17/32 272/17/32
f 273/17/67 276/17/68 277/17/68
f 276/17/68 273/17/67 272/17/67
f 275/23/69 270/22/65 278/23/69
f 270/22/65 275/23/69 269/22/65
f 277/17/68 275/23/69 278/23/69
f 275/23/69 277/17/68 276/17/68
f 279/24/70 98/25/71 97/24/70
f 98/25/71 279/24/70 280/25/71
f 281/26/72 102/27/73 100/26/72
f 102/27/73 281/26/72 282/27/73
f 110/24/74 283/28/75 112/28/75
f 283/28/75 110/24/74 284/24/74
f 285/26/72 74/27/73 72/26/72
f 74/27/73 285/26/72 286/27/73
f 287/24/70 70/25/71 69/24/70
f 70/25/71 287/24/70 288/25/71
f 28/29/76 196/30/31 29/30/31
f 196/30/31 28/29/76 289/29/76
f 290/31/30 105/27/77 103/31/30
f 105/27/77 290/31/30 291/27/77
f 85/29/78 194/30/32 87/30/32
f 194/30/32 85/29/78 292/29/78
f 288/25/71 72/26/72 70/25/71
f 72/26/72 288/25/71 285/26/72
f 293/26/79 81/25/80 79/26/79
f 81/25/80 293/26/79 294/25/80
f 295/26/79 109/25/80 107/26/79
f 109/25/80 295/26/79 296/25/80
f 286/27/73 75/31/30 74/27/73
f 75/31/30 286/27/73 297/31/30
f 298/27/77 79/26/79 77/27/77
f 79/26/79 298/27/77 293/26/79
f 109/25/80 284/24/74 110/24/74
f 284/24/74 109/25/80 296/25/80
f 280/25/71 100/26/72 98/25/71
f 100/26/72 280/25/71 281/26/72
f 84/28/75 292/29/78 85/29/78
f 292/29/78 84/28/75 299/28/75
f 300/28/81 97/24/70 95/28/81
f 97/24/70 300/28/81 279/24/70
f 301/29/76 95/28/81 94/29/76
f 95/28/81 301/29/76 300/28/81
f 112/28/75 202/29/82 113/29/82
f 202/29/82 112/28/75 283/28/75
f 291/27/77 107/26/79 105/27/77
f 107/26/79 291/27/77 295/26/79
f 82/24/74 299/28/75 84/28/75
f 299/28/75 82/24/74 302/24/74
f 203/29/83 67/28/81 64/29/83
f 67/28/81 203/29/83 303/28/81
f 81/25/80 302/24/74 82/24/74
f 302/24/74 81/25/80 294/25/80
f 303/28/81 69/24/70 67/28/81
f 69/24/70 303/28/81 287/24/70
f 282/27/73 103/31/30 102/27/73
f 103/31/30 282/27/73 290/31/30
f 297/31/30 77/27/77 75/31/30
f 77/27/77 297/31/30 298/27/77
f 54/28/81 204/29/83 56/29/83
f 204/29/83 54/28/81 304/28/81
f 305/29/78 32/30/32 197/30/32
f 32/30/32 305/29/78 36/29/78
f 46/31/30 306/27/77 307/31/30
f 306/27/77 46/31/30 44/27/77
f 44/27/77 308/26/79 306/27/77
f 308/26/79 44/27/77 42/26/79
f 51/25/71 309/24/70 53/24/70
f 309/24/70 51/25/71 310/25/71
f 311/28/75 36/29/78 305/29/78
f 36/29/78 311/28/75 38/28/75
f 312/25/80 39/24/74 313/24/74
f 39/24/74 312/25/80 41/25/80
f 313/24/74 38/28/75 311/28/75
f 38/28/75 313/24/74 39/24/74
f 42/26/79 312/25/80 308/26/79
f 312/25/80 42/26/79 41/25/80
f 51/25/71 314/26/72 310/25/71
f 314/26/72 51/25/71 49/26/72
f 47/27/73 307/31/30 315/27/73
f 307/31/30 47/27/73 46/31/30
f 53/24/70 304/28/81 54/28/81
f 304/28/81 53/24/70 309/24/70
f 49/26/72 315/27/73 314/26/72
f 315/27/73 49/26/72 47/27/73
f 193/30/5 305/29/5 197/30/5
f 305/29/5 193/30/5 311/28/5
f 311/28/5 193/30/5 313/24/5
f 313/24/5 193/30/5 312/25/5
f 312/25/5 193/30/5 308/26/5
f 308/26/5 193/30/5 306/27/5
f 306/27/5 193/30/5 307/31/5
f 307/31/5 193/30/5 315/27/5
f 315/27/5 193/30/5 314/26/5
f 314/26/5 193/30/5 310/25/5
f 310/25/5 193/30/5 309/24/5
f 309/24/5 193/30/5 304/28/5
f 304/28/5 193/30/5 204/29/5
f 299/28/6 194/30/6 292/29/6
f 194/30/6 299/28/6 195/30/6
f 195/30/6 299/28/6 302/24/6
f 195/30/6 302/24/6 294/25/6
f 195/30/6 294/25/6 293/26/6
f 195/30/6 293/26/6 298/27/6
f 195/30/6 298/27/6 297/31/6
f 195/30/6 297/31/6 286/27/6
f 195/30/6 286/27/6 285/26/6
f 195/30/6 285/26/6 288/25/6
f 195/30/6 288/25/6 287/24/6
f 195/30/6 287/24/6 303/28/6
f 195/30/6 303/28/6 203/29/6
f 283/28/6 199/30/6 202/29/6
f 199/30/6 283/28/6 200/30/6
f 200/30/6 283/28/6 284/24/6
f 200/30/6 284/24/6 296/25/6
f 200/30/6 296/25/6 295/26/6
f 200/30/6 295/26/6 291/27/6
f 200/30/6 291/27/6 290/31/6
f 200/30/6 290/31/6 282/27/6
f 200/30/6 282/27/6 281/26/6
f 200/30/6 281/26/6 280/25/6
f 200/30/6 280/25/6 279/24/6
f 200/30/6 279/24/6 300/28/6
f 200/30/6 300/28/6 301/29/6
f 196/30/5 201/29/5 198/30/5
f 201/29/5 196/30/5 316/28/5
f 316/28/5 196/30/5 317/24/5
f 317/24/5 196/30/5 318/25/5
f 318/25/5 196/30/5 319/26/5
f 319/26/5 196/30/5 320/27/5
f 320/27/5 196/30/5 321/31/5
f 321/31/5 196/30/5 322/27/5
f 322/27/5 196/30/5 323/26/5
f 323/26/5 196/30/5 324/25/5
f 324/25/5 196/30/5 325/24/5
f 325/24/5 196/30/5 326/28/5
f 326/28/5 196/30/5 289/29/5
f 301/29/76 91/30/31 200/30/31
f 91/30/31 301/29/76 94/29/76
f 26/28/81 289/29/76 28/29/76
f 289/29/76 26/28/81 326/28/81
f 18/31/30 320/27/77 321/31/30
f 320/27/77 18/31/30 16/27/77
f 16/27/77 319/26/79 320/27/77
f 319/26/79 16/27/77 14/26/79
f 25/24/70 324/25/71 325/24/70
f 324/25/71 25/24/70 23/25/71
f 316/28/75 5/29/82 201/29/82
f 5/29/82 316/28/75 10/28/75
f 318/25/80 11/24/74 317/24/74
f 11/24/74 318/25/80 13/25/80
f 317/24/74 10/28/75 316/28/75
f 10/28/75 317/24/74 11/24/74
f 23/25/71 323/26/72 324/25/71
f 323/26/72 23/25/71 21/26/72
f 19/27/73 321/31/30 322/27/73
f 321/31/30 19/27/73 18/31/30
f 14/26/79 318/25/80 319/26/79
f 318/25/80 14/26/79 13/25/80
f 25/24/70 326/28/81 26/28/81
f 326/28/81 25/24/70 325/24/70
f 21/26/72 322/27/73 323/26/72
f 322/27/73 21/26/72 19/27/73
f 327/32/32 328/33/32 329/33/32
f 328/33/32 327/32/32 330/34/32
f 330/34/32 327/32/32 331/32/32
f 328/33/30 332/33/30 329/33/30
f 332/33/30 328/33/30 333/33/30
f 334/35/84 335/34/84 336/34/84
f 335/34/84 334/35/84 337/36/84
f 337/36/84 334/35/84 338/36/84
f 339/35/84 338/36/84 334/35/84
f 340/34/84 338/36/84 339/35/84
f 338/36/84 340/34/84 341/34/84
f 330/34/50 334/35/50 336/34/50
f 342/36/50 334/35/50 330/34/50
f 343/36/50 334/35/50 342/36/50
f 343/36/50 344/35/50 334/35/50
f 344/35/50 343/36/50 345/34/50
f 346/34/50 345/34/50 343/36/50
f 347/33/30 348/33/30 349/33/30
f 348/33/30 347/33/30 350/33/30
f 351/34/32 347/33/32 349/33/32
f 347/33/32 351/34/32 352/32/32
f 352/32/32 351/34/32 353/32/32
f 347/33/5 354/32/85 350/33/5
f 354/32/85 347/33/5 352/32/85
f 327/32/86 332/33/6 355/32/86
f 332/33/6 327/32/86 329/33/6
f 356/34/49 357/35/49 358/34/49
f 357/35/49 356/34/49 359/36/49
f 357/35/49 359/36/49 339/35/49
f 339/35/49 359/36/49 360/36/49
f 339/35/49 360/36/49 351/34/49
f 339/35/49 351/34/49 340/34/49
f 361/32/19 327/32/86 355/32/86
f 327/32/86 361/32/19 331/32/19
f 330/34/5 361/32/5 362/34/5
f 361/32/5 330/34/5 331/32/5
f 354/32/85 353/32/19 363/32/19
f 353/32/19 354/32/85 352/32/85
f 353/32/6 364/34/6 363/32/6
f 364/34/6 353/32/6 351/34/6
f 365/34/31 366/33/31 367/33/31
f 366/33/31 365/34/31 368/33/31
f 368/33/31 365/34/31 369/33/31
f 369/33/31 365/34/31 370/34/31
f 190/37/31 366/33/31 368/33/31
f 366/33/31 190/37/31 189/37/31
f 371/34/19 341/34/19 340/34/19
f 372/34/19 341/34/19 371/34/19
f 373/34/19 341/34/19 372/34/19
f 221/34/19 341/34/19 373/34/19
f 223/34/19 341/34/19 221/34/19
f 341/34/19 223/34/19 335/34/19
f 374/34/19 335/34/19 223/34/19
f 374/34/19 223/34/19 375/34/19
f 374/34/19 375/34/19 376/34/19
f 377/34/19 335/34/19 374/34/19
f 335/34/19 377/34/19 336/34/19
f 159/37/5 367/33/5 160/37/5
f 367/33/5 159/37/5 365/34/5
f 365/34/5 159/37/5 183/38/5
f 183/38/5 159/37/5 178/39/5
f 178/39/5 159/37/5 162/37/5
f 365/34/5 183/38/5 177/40/5
f 365/34/5 177/40/5 358/34/5
f 358/34/5 177/40/5 153/41/5
f 358/34/5 153/41/5 135/40/5
f 358/34/5 135/40/5 134/38/5
f 358/34/5 134/38/5 147/39/5
f 358/34/5 147/39/5 166/37/5
f 358/34/5 166/37/5 165/37/5
f 358/34/5 165/37/5 356/34/5
f 356/34/5 165/37/5 348/33/5
f 364/34/5 356/34/5 348/33/5
f 348/33/5 165/37/5 349/33/5
f 349/33/5 165/37/5 176/39/5
f 349/33/5 176/39/5 175/38/5
f 349/33/5 175/38/5 351/34/5
f 351/34/5 175/38/5 340/34/5
f 340/34/5 175/38/5 180/40/5
f 340/34/5 180/40/5 371/34/5
f 371/34/5 180/40/5 179/41/5
f 371/34/5 179/41/5 181/40/5
f 371/34/5 181/40/5 133/38/5
f 371/34/5 133/38/5 132/39/5
f 371/34/5 132/39/5 182/37/5
f 371/34/5 182/37/5 185/37/5
f 372/34/6 378/42/6 373/34/6
f 378/42/6 372/34/6 191/37/6
f 191/37/6 372/34/6 187/37/6
f 186/37/5 379/42/5 192/37/5
f 379/42/5 186/37/5 376/34/5
f 376/34/5 186/37/5 374/34/5
f 376/34/5 375/34/5 379/42/5
f 336/34/6 328/33/6 330/34/6
f 328/33/6 336/34/6 136/38/6
f 136/38/6 336/34/6 137/40/6
f 148/39/6 328/33/6 136/38/6
f 137/40/6 336/34/6 377/34/6
f 169/37/6 328/33/6 148/39/6
f 137/40/6 377/34/6 149/41/6
f 149/41/6 377/34/6 150/40/6
f 150/40/6 377/34/6 151/38/6
f 151/38/6 377/34/6 152/39/6
f 152/39/6 377/34/6 121/37/6
f 121/37/6 377/34/6 119/37/6
f 169/37/6 333/33/6 328/33/6
f 169/37/6 346/34/6 333/33/6
f 333/33/6 346/34/6 362/34/6
f 169/37/6 345/34/6 346/34/6
f 144/37/6 345/34/6 169/37/6
f 146/39/6 345/34/6 144/37/6
f 139/38/6 345/34/6 146/39/6
f 138/40/6 345/34/6 139/38/6
f 154/41/6 345/34/6 138/40/6
f 157/40/6 345/34/6 154/41/6
f 369/33/6 345/34/6 157/40/6
f 345/34/6 369/33/6 370/34/6
f 369/33/6 157/40/6 127/37/6
f 127/37/6 157/40/6 141/38/6
f 127/37/6 141/38/6 125/37/6
f 125/37/6 141/38/6 140/39/6
f 125/37/6 140/39/6 131/37/6
f 374/34/32 380/43/32 381/44/32
f 374/34/32 382/45/32 380/43/32
f 374/34/32 383/33/32 382/45/32
f 374/34/32 384/46/32 383/33/32
f 374/34/32 385/47/32 384/46/32
f 374/34/32 381/44/32 386/42/32
f 374/34/32 386/42/32 377/34/32
f 387/44/32 377/34/32 386/42/32
f 374/34/32 388/48/32 385/47/32
f 186/37/32 388/48/32 374/34/32
f 389/43/32 377/34/32 387/44/32
f 388/48/32 186/37/32 390/49/32
f 391/45/32 377/34/32 389/43/32
f 390/49/32 186/37/32 392/50/32
f 393/33/32 377/34/32 391/45/32
f 392/50/32 186/37/32 394/51/32
f 395/46/32 377/34/32 393/33/32
f 396/47/32 377/34/32 395/46/32
f 397/48/32 377/34/32 396/47/32
f 394/51/32 186/37/32 398/52/32
f 398/52/32 186/37/32 399/53/32
f 186/37/32 400/52/32 399/53/32
f 397/48/32 119/37/32 377/34/32
f 119/37/32 400/52/32 186/37/32
f 401/49/32 119/37/32 397/48/32
f 400/52/32 119/37/32 402/51/32
f 403/50/32 119/37/32 401/49/32
f 402/51/32 119/37/32 403/50/32
f 371/34/32 404/43/32 405/44/32
f 371/34/32 406/45/32 404/43/32
f 371/34/32 407/33/32 406/45/32
f 371/34/32 408/46/32 407/33/32
f 371/34/32 409/47/32 408/46/32
f 371/34/32 405/44/32 410/42/32
f 371/34/32 410/42/32 372/34/32
f 411/44/32 372/34/32 410/42/32
f 371/34/32 412/48/32 409/47/32
f 185/37/32 412/48/32 371/34/32
f 413/43/32 372/34/32 411/44/32
f 412/48/32 185/37/32 414/49/32
f 415/45/32 372/34/32 413/43/32
f 414/49/32 185/37/32 416/50/32
f 417/33/32 372/34/32 415/45/32
f 416/50/32 185/37/32 418/51/32
f 419/46/32 372/34/32 417/33/32
f 420/47/32 372/34/32 419/46/32
f 421/48/32 372/34/32 420/47/32
f 418/51/32 185/37/32 422/52/32
f 422/52/32 185/37/32 423/53/32
f 185/37/32 424/52/32 423/53/32
f 421/48/32 187/37/32 372/34/32
f 187/37/32 424/52/32 185/37/32
f 425/49/32 187/37/32 421/48/32
f 424/52/32 187/37/32 426/51/32
f 427/50/32 187/37/32 425/49/32
f 426/51/32 187/37/32 427/50/32
f 362/54/31 332/55/31 333/55/31
f 332/55/31 362/54/31 355/56/31
f 355/56/31 362/54/31 361/56/31
f 354/56/31 348/55/31 350/55/31
f 348/55/31 354/56/31 364/54/31
f 364/54/31 354/56/31 363/56/31
f 30/57/19 168/57/19 167/57/19
f 168/57/19 30/57/19 33/57/19
f 171/57/19 89/57/19 90/57/19
f 89/57/19 171/57/19 172/57/19
f 248/58/87 252/59/87 249/59/87
f 252/59/87 248/58/87 254/58/87
f 254/58/87 248/58/87 255/60/87
f 254/58/87 255/60/87 262/60/87
f 262/60/87 255/60/87 257/61/87
f 262/60/87 257/61/87 261/61/87
f 264/58/31 268/59/31 265/59/31
f 268/59/31 264/58/31 270/58/31
f 270/58/31 264/58/31 271/60/31
f 270/58/31 271/60/31 278/60/31
f 278/60/31 271/60/31 273/61/31
f 278/60/31 273/61/31 277/61/31
f 400/62/32 398/62/32 399/63/32
f 398/62/32 400/62/32 394/64/32
f 394/64/32 400/62/32 402/64/32
f 394/64/32 402/64/32 403/65/32
f 394/64/32 403/65/32 392/65/32
f 392/65/32 403/65/32 401/66/32
f 392/65/32 401/66/32 390/66/32
f 390/66/32 401/66/32 397/67/32
f 390/66/32 397/67/32 388/67/32
f 388/67/32 397/67/32 396/68/32
f 388/67/32 396/68/32 385/68/32
f 385/68/32 396/68/32 428/69/32
f 385/68/32 428/69/32 429/69/32
f 429/69/32 428/69/32 383/70/32
f 383/70/32 428/69/32 393/70/32
f 383/70/32 393/70/32 430/71/32
f 430/71/32 393/70/32 431/71/32
f 430/71/32 431/71/32 389/72/32
f 430/71/32 389/72/32 380/72/32
f 380/72/32 389/72/32 381/73/32
f 381/73/32 389/72/32 387/73/32
f 381/73/32 387/73/32 386/74/32
f 424/62/32 422/62/32 423/63/32
f 422/62/32 424/62/32 418/64/32
f 418/64/32 424/62/32 426/64/32
f 418/64/32 426/64/32 427/65/32
f 418/64/32 427/65/32 416/65/32
f 416/65/32 427/65/32 425/66/32
f 416/65/32 425/66/32 414/66/32
f 414/66/32 425/66/32 421/67/32
f 414/66/32 421/67/32 412/67/32
f 412/67/32 421/67/32 420/68/32
f 412/67/32 420/68/32 409/68/32
f 409/68/32 420/68/32 432/69/32
f 409/68/32 432/69/32 433/69/32
f 433/69/32 432/69/32 407/70/32
f 407/70/32 432/69/32 417/70/32
f 407/70/32 417/70/32 434/71/32
f 434/71/32 417/70/32 435/71/32
f 434/71/32 435/71/32 413/72/32
f 434/71/32 413/72/32 404/72/32
f 404/72/32 413/72/32 405/73/32
f 405/73/32 413/72/32 411/73/32
f 405/73/32 411/73/32 410/74/32
f 436/75/49 437/76/49 438/75/49
f 437/76/49 436/75/49 439/76/49
f 439/76/49 436/75/49 440/75/49
f 441/77/52 442/78/52 443/78/52
f 442/78/52 441/77/52 444/77/52
f 445/76/84 446/75/84 447/75/84
f 446/75/84 445/76/84 448/76/84
f 449/76/50 450/75/50 451/76/50
f 450/75/50 449/76/50 452/75/50
f 452/75/50 449/76/50 453/75/50
f 454/79/31 455/80/31 456/80/31
f 455/80/31 454/79/31 457/79/31
f 458/79/31 459/80/31 460/80/31
f 459/80/31 458/79/31 461/79/31
