# Generated by GTAClone/tools/split_car_wheels.py from suv-luxury.obj
# Kenney Car Kit (CC0 1.0); the split is a derivative work, also CC0.
mtllib colormap.mtl
v 0.416667 0.300000 -1.086835
v 0.516667 0.400000 -1.333333
v 0.516667 0.400000 -1.086835
v -0.416667 0.300000 -1.086835
v -0.516667 0.400000 -1.086835
v -0.516667 0.400000 -1.333333
v -0.650000 0.400939 -1.086711
v -0.650000 0.400000 -1.086835
v -0.516980 0.400939 -1.086711
v 0.550000 0.500000 1.300000
v 0.548333 0.495000 1.147750
v 0.550000 0.500000 1.143913
v 0.516980 0.400939 1.186711
v 0.516667 0.400000 1.186835
v 0.516667 0.400000 1.266667
v -0.650000 0.637750 1.005000
v -0.550000 0.575772 1.085772
v -0.550000 0.637750 1.005000
v -0.650000 0.575772 1.085772
v -0.650000 0.676711 -0.609061
v -0.550000 0.637750 -0.515000
v -0.550000 0.676711 -0.609061
v -0.650000 0.637750 -0.515000
v 0.550000 0.637750 0.615000
v 0.650000 0.676711 0.709060
v 0.650000 0.637750 0.615000
v 0.550000 0.676711 0.709060
v 0.550000 0.676711 -0.609061
v 0.650000 0.637750 -0.515000
v 0.650000 0.676711 -0.609061
v 0.550000 0.637750 -0.515000
v 0.550000 0.575772 -0.985772
v 0.650000 0.637750 -0.905000
v 0.650000 0.575772 -0.985772
v 0.550000 0.637750 -0.905000
v 0.516980 0.400939 0.433289
v 0.650000 0.495000 0.472250
v 0.650000 0.400939 0.433289
v 0.548333 0.495000 0.472250
v 0.650000 0.495000 -0.372250
v 0.550000 0.500000 -0.376087
v 0.548333 0.495000 -0.372250
v 0.650000 0.575772 -0.434228
v 0.550000 0.575772 -0.434228
v -0.550000 0.575772 -0.434228
v -0.650000 0.575772 -0.434228
v 0.550000 0.575772 0.534228
v 0.650000 0.575772 0.534228
v 0.650000 0.690000 0.810000
v 0.550000 0.690000 0.810000
v 0.650000 0.676711 0.910939
v 0.550000 0.676711 0.910939
v 0.550000 0.637750 1.005000
v 0.650000 0.575772 1.085772
v 0.650000 0.637750 1.005000
v 0.550000 0.575772 1.085772
v -0.650000 0.690000 -0.710000
v -0.550000 0.690000 -0.710000
v 0.550000 0.690000 -0.710000
v 0.650000 0.690000 -0.710000
v -0.650000 0.495000 0.472250
v -0.516980 0.400939 0.433289
v -0.650000 0.400939 0.433289
v -0.548333 0.495000 0.472250
v 0.650000 0.676711 -0.810939
v 0.550000 0.676711 -0.810939
v -0.548333 0.495000 -0.372250
v -0.650000 0.400939 -0.333289
v -0.516980 0.400939 -0.333289
v -0.650000 0.495000 -0.372250
v -0.550000 0.500000 0.476087
v -0.550000 0.500000 -0.376087
v -0.483333 0.300000 -0.320000
v -0.483333 0.300000 0.420000
v 0.650000 0.495000 1.147750
v 0.650000 0.400939 1.186711
v 0.550000 0.500000 0.476087
v 0.516980 0.400939 -0.333289
v 0.483333 0.300000 -0.320000
v 0.483333 0.300000 0.420000
v -0.516980 0.400939 1.186711
v -0.650000 0.495000 1.147750
v -0.650000 0.400939 1.186711
v -0.548333 0.495000 1.147750
v -0.650000 0.575772 0.534228
v -0.550000 0.637750 0.615000
v -0.550000 0.575772 0.534228
v -0.650000 0.637750 0.615000
v -0.650000 0.676711 -0.810939
v -0.550000 0.676711 -0.810939
v -0.650000 0.495000 -1.047750
v -0.548333 0.495000 -1.047750
v -0.650000 0.300000 0.420000
v 0.650000 0.400939 -0.333289
v -0.650000 0.575772 -0.985772
v -0.550000 0.500000 -1.043913
v -0.550000 0.575772 -0.985772
v 0.650000 0.300000 -0.320000
v -0.650000 0.676711 0.709060
v -0.550000 0.690000 0.810000
v -0.550000 0.676711 0.709060
v -0.650000 0.690000 0.810000
v 0.650000 0.300000 0.420000
v -0.650000 0.676711 0.910939
v -0.550000 0.676711 0.910939
v -0.550000 0.500000 1.143913
v 0.516980 0.400939 -1.086711
v 0.650000 0.400000 -1.086835
v 0.650000 0.400939 -1.086711
v -0.650000 0.300000 -0.320000
v -0.650000 0.637750 -0.905000
v -0.550000 0.637750 -0.905000
v 0.650000 0.495000 -1.047750
v 0.548333 0.495000 -1.047750
v 0.550000 0.500000 -1.043913
v -0.516667 0.400000 1.266667
v -0.550000 0.500000 1.300000
v -0.650000 0.400000 1.186835
v -0.516667 0.400000 1.186835
v 0.650000 0.400000 1.186835
v -0.550000 0.500000 -1.400000
v 0.550000 0.500000 -1.400000
v -0.650000 0.200000 -1.086835
v 0.650000 0.200000 -1.086835
v 0.550000 0.500000 -1.200000
v 0.550000 0.400000 1.400000
v -0.550000 0.200000 1.400000
v 0.550000 0.200000 1.400000
v -0.550000 0.400000 1.400000
v -0.620711 0.200000 1.370711
v -0.650000 0.400000 1.300000
v -0.650000 0.200000 1.300000
v -0.620711 0.400000 1.370711
v 0.620711 0.400000 1.370711
v 0.650000 0.200000 1.300000
v 0.650000 0.400000 1.300000
v 0.620711 0.200000 1.370711
v -0.550000 0.500000 -1.200000
v -0.650000 0.200000 -1.010000
v -0.650000 0.300000 -1.010000
v -0.650000 0.377646 -0.999778
v -0.650000 0.450000 -0.969808
v -0.650000 0.512132 -0.922132
v -0.650000 0.559808 -0.860000
v -0.650000 0.589778 -0.787646
v -0.650000 0.600000 -0.710000
v -0.650000 0.589778 -0.632354
v -0.650000 0.559808 -0.560000
v -0.650000 0.512132 -0.497868
v -0.650000 0.450000 -0.450192
v -0.650000 0.377646 -0.420222
v -0.650000 0.300000 -0.410000
v -0.650000 0.200000 -0.410000
v -0.650000 0.200000 0.510000
v -0.650000 0.300000 0.510000
v -0.650000 0.377646 0.520222
v -0.650000 0.450000 0.550192
v -0.650000 0.512132 0.597868
v -0.650000 0.559808 0.660000
v -0.650000 0.589778 0.732354
v -0.650000 0.600000 0.810000
v -0.650000 0.589778 0.887646
v -0.650000 0.559808 0.960000
v -0.650000 0.512132 1.022132
v -0.650000 0.450000 1.069808
v -0.650000 0.377646 1.099778
v -0.650000 0.300000 1.110000
v -0.650000 0.200000 1.110000
v 0.650000 0.200000 1.110000
v 0.650000 0.300000 1.110000
v 0.650000 0.377646 1.099778
v 0.650000 0.450000 1.069808
v 0.650000 0.512132 1.022132
v 0.650000 0.559808 0.960000
v 0.650000 0.589778 0.887646
v 0.650000 0.600000 0.810000
v 0.650000 0.589778 0.732354
v 0.650000 0.559808 0.660000
v 0.650000 0.512132 0.597868
v 0.650000 0.450000 0.550192
v 0.650000 0.377646 0.520222
v 0.650000 0.300000 0.510000
v 0.650000 0.200000 0.510000
v 0.650000 0.200000 -0.410000
v 0.650000 0.300000 -0.410000
v 0.650000 0.377646 -0.420222
v 0.650000 0.450000 -0.450192
v 0.650000 0.512132 -0.497868
v 0.650000 0.559808 -0.560000
v 0.650000 0.589778 -0.632354
v 0.650000 0.600000 -0.710000
v 0.650000 0.589778 -0.787646
v 0.650000 0.559808 -0.860000
v 0.650000 0.512132 -0.922132
v 0.650000 0.450000 -0.969808
v 0.650000 0.377646 -0.999778
v 0.650000 0.300000 -1.010000
v 0.650000 0.200000 -1.010000
v 0.400000 0.200000 -0.410000
v 0.400000 0.200000 0.510000
v 0.400000 0.200000 -1.010000
v -0.400000 0.200000 -1.010000
v -0.400000 0.200000 -0.410000
v -0.400000 0.200000 1.110000
v -0.400000 0.200000 0.510000
v 0.400000 0.200000 1.110000
v 0.206250 0.500000 1.300000
v -0.206250 0.650000 1.250000
v -0.206250 0.500000 1.300000
v 0.206250 0.650000 1.250000
v 0.125000 0.150000 1.400000
v 0.175000 0.200000 1.450000
v 0.125000 0.150000 1.450000
v 0.175000 0.200000 1.400000
v -0.125000 0.150000 1.400000
v -0.125000 0.150000 1.450000
v -0.175000 0.200000 1.400000
v -0.175000 0.200000 1.450000
v 0.175000 0.275000 1.450000
v 0.125000 0.325000 1.400000
v 0.125000 0.325000 1.450000
v 0.175000 0.275000 1.400000
v -0.175000 0.275000 1.400000
v -0.125000 0.325000 1.400000
v -0.125000 0.325000 1.450000
v -0.175000 0.275000 1.450000
v -0.125000 0.125000 -1.086835
v -0.175000 0.175000 -1.136835
v -0.125000 0.125000 -1.136835
v -0.175000 0.175000 -1.086835
v 0.125000 0.125000 -1.086835
v 0.125000 0.125000 -1.136835
v 0.175000 0.175000 -1.086835
v 0.175000 0.175000 -1.136835
v -0.175000 0.250000 -1.136835
v -0.125000 0.300000 -1.086835
v -0.125000 0.300000 -1.136835
v -0.175000 0.250000 -1.086835
v 0.175000 0.250000 -1.086835
v 0.125000 0.300000 -1.086835
v 0.125000 0.300000 -1.136835
v 0.175000 0.250000 -1.136835
v 0.433097 0.884515 0.649291
v -0.450000 0.800000 0.700000
v 0.450000 0.800000 0.700000
v -0.433097 0.884515 0.649291
v 0.400000 0.450000 -0.450192
v 0.400000 0.512132 -0.497868
v 0.400000 0.559808 -0.560000
v 0.400000 0.589778 -0.632354
v 0.400000 0.377646 -0.999778
v 0.400000 0.450000 -0.969808
v 0.400000 0.559808 0.960000
v 0.400000 0.589778 0.887646
v 0.400000 0.450000 1.069808
v 0.400000 0.512132 1.022132
v 0.400000 0.600000 -0.710000
v 0.400000 0.589778 -0.787646
v 0.400000 0.300000 0.510000
v 0.400000 0.300000 -1.010000
v 0.400000 0.559808 0.660000
v 0.400000 0.512132 0.597868
v 0.400000 0.559808 -0.860000
v 0.400000 0.512132 -0.922132
v 0.400000 0.600000 0.810000
v 0.400000 0.589778 0.732354
v 0.400000 0.377646 0.520222
v 0.400000 0.377646 -0.420222
v 0.400000 0.300000 -0.410000
v 0.400000 0.450000 0.550192
v 0.400000 0.300000 1.110000
v 0.400000 0.377646 1.099778
v -0.400000 0.300000 1.110000
v -0.400000 0.377646 1.099778
v -0.400000 0.300000 0.510000
v -0.400000 0.589778 0.732354
v -0.400000 0.600000 0.810000
v -0.400000 0.559808 0.660000
v -0.400000 0.450000 1.069808
v -0.400000 0.512132 1.022132
v -0.400000 0.377646 0.520222
v -0.400000 0.512132 0.597868
v -0.400000 0.450000 0.550192
v -0.400000 0.559808 0.960000
v -0.400000 0.589778 0.887646
v -0.400000 0.300000 -1.010000
v -0.400000 0.377646 -0.999778
v -0.400000 0.450000 -0.969808
v -0.400000 0.512132 -0.922132
v -0.400000 0.559808 -0.860000
v -0.400000 0.589778 -0.787646
v -0.400000 0.600000 -0.710000
v -0.400000 0.589778 -0.632354
v -0.400000 0.559808 -0.560000
v -0.400000 0.512132 -0.497868
v -0.400000 0.450000 -0.450192
v -0.400000 0.377646 -0.420222
v -0.400000 0.300000 -0.410000
v 0.550000 0.800000 0.472902
v 0.750000 0.700000 0.472902
v 0.550000 0.700000 0.472902
v 0.750000 0.800000 0.472902
v 0.550000 0.900000 0.472902
v 0.650000 0.900000 0.472902
v -0.750000 0.800000 0.472902
v -0.550000 0.700000 0.472902
v -0.750000 0.700000 0.472902
v -0.550000 0.800000 0.472902
v -0.650000 0.900000 0.472902
v -0.550000 0.900000 0.472902
v -0.550000 0.650000 1.150000
v -0.550000 0.650000 1.250000
v -0.550000 0.725000 1.150000
v -0.550000 0.800000 1.200000
v -0.550000 0.725000 1.225000
v -0.550000 0.800000 0.700000
v -0.550000 0.800000 0.600000
v -0.550000 0.800000 0.572902
v -0.550000 0.700000 0.572902
v -0.550000 0.800000 -0.049291
v -0.550000 0.800000 -1.300000
v -0.550000 0.700000 -1.300000
v -0.550000 0.700000 -1.400000
v 0.550000 0.700000 0.572902
v 0.750000 0.700000 0.572902
v 0.450000 1.300000 0.400000
v 0.550000 0.800000 0.700000
v 0.366903 1.215485 0.450709
v 0.000000 1.215485 0.450709
v -0.450000 1.300000 0.400000
v -0.366903 1.215485 0.450709
v -0.750000 0.700000 0.572902
v -0.750000 0.800000 0.572902
v 0.750000 0.800000 0.572902
v 0.550000 0.800000 1.200000
v 0.650000 0.900000 0.572902
v 0.550000 0.900000 0.572902
v 0.550000 0.800000 0.572902
v -0.550000 0.900000 0.572902
v -0.650000 0.900000 0.572902
v 0.550000 0.650000 1.250000
v 0.206250 0.500000 1.300000
v 0.275000 0.650000 1.250000
v 0.206250 0.650000 1.250000
v 0.275000 0.725000 1.225000
v -0.206250 0.650000 1.250000
v -0.275000 0.725000 1.225000
v 0.550000 0.725000 1.225000
v -0.275000 0.650000 1.250000
v -0.206250 0.500000 1.300000
v 0.350000 0.700000 -1.400000
v -0.350000 0.800000 -1.400000
v 0.350000 0.800000 -1.400000
v -0.350000 0.700000 -1.400000
v 0.550000 0.700000 -1.400000
v 0.550000 0.800000 0.600000
v 0.550000 0.800000 -0.049291
v 0.550000 0.725000 1.150000
v 0.550000 0.650000 1.150000
v 0.550000 0.700000 -1.300000
v 0.550000 0.800000 -1.300000
v -0.460000 1.250000 -1.220000
v -0.550000 0.800000 -1.400000
v -0.398290 1.050000 -1.300000
v 0.550000 0.800000 -1.400000
v -0.366860 1.207152 -1.237139
v 0.398290 1.050000 -1.300000
v 0.366860 1.207152 -1.237139
v 0.460000 1.250000 -1.220000
v 0.450000 1.300000 -1.146148
v -0.450000 1.300000 -1.146148
v -0.466903 1.215485 -0.049291
v -0.466903 1.215485 0.350709
v 0.466903 1.215485 0.350709
v 0.466903 1.215485 -0.049291
v -0.250000 1.300000 0.300000
v -0.325000 1.300000 0.275000
v -0.350000 1.300000 0.200000
v 0.250000 1.300000 0.300000
v -0.350000 1.300000 0.050709
v 0.325000 1.300000 0.275000
v 0.350000 1.300000 0.200000
v 0.350000 1.300000 0.050709
v 0.325000 1.300000 -0.024291
v -0.325000 1.300000 -0.024291
v 0.250000 1.300000 -0.049291
v -0.250000 1.300000 -0.049291
v 0.350000 0.800000 -1.400000
v 0.550000 0.700000 -1.400000
v 0.350000 0.700000 -1.400000
v 0.550000 0.800000 -1.400000
v -0.550000 0.800000 -1.400000
v -0.350000 0.700000 -1.400000
v -0.550000 0.700000 -1.400000
v -0.350000 0.800000 -1.400000
v -0.550000 0.800000 -1.300000
v 0.550000 0.800000 -1.300000
v 0.466903 1.215484 0.350709
v 0.550000 0.800000 -0.049291
v 0.466903 1.215484 -0.049291
v 0.550000 0.800000 0.472902
v 0.550000 0.800000 0.572902
v 0.366903 1.215484 0.450709
v -0.433097 0.884515 0.649291
v 0.433097 0.884515 0.649291
v -0.366903 1.215484 0.450709
v 0.000000 1.215484 0.450709
v -0.366860 1.207152 -1.237139
v 0.366860 1.207152 -1.237139
v -0.550000 0.800000 0.472902
v -0.466903 1.215484 -0.049291
v -0.550000 0.800000 -0.049291
v -0.466903 1.215484 0.350709
v -0.550000 0.800000 0.572902
v 0.325000 1.300000 -0.024291
v 0.350000 1.300000 0.200000
v 0.350000 1.300000 0.050709
v 0.325000 1.300000 0.275000
v 0.250000 1.300000 -0.049291
v 0.250000 1.300000 0.300000
v -0.250000 1.300000 -0.049291
v -0.250000 1.300000 0.300000
v -0.325000 1.300000 -0.024291
v -0.325000 1.300000 0.275000
v -0.350000 1.300000 0.050709
v -0.350000 1.300000 0.200000
v -0.275000 0.725000 1.225000
v -0.550000 0.650000 1.250000
v -0.275000 0.650000 1.250000
v -0.550000 0.725000 1.225000
v 0.550000 0.725000 1.225000
v 0.550000 0.725000 1.150000
v 0.550000 0.650000 1.250000
v 0.275000 0.650000 1.250000
v 0.275000 0.725000 1.225000
v -0.550000 0.725000 1.150000
vt 0.468750 0.304787
vt 0.468750 0.321808
vt 0.468750 0.321968
vt 0.468750 0.338830
vt 0.468750 0.337979
vt 0.468750 0.362277
vt 0.468750 0.351727
vt 0.468750 0.368908
vt 0.468750 0.371170
vt 0.468750 0.287766
vt 0.468750 0.318003
vt 0.468750 0.330319
vt 0.468750 0.340895
vt 0.468750 0.349010
vt 0.468750 0.354111
vt 0.468750 0.355851
vt 0.468750 0.275000
vt 0.468750 0.332143
vt 0.468750 0.417857
vt 0.468750 0.475000
vt 0.468750 0.425000
vt 0.468750 0.325000
vt 0.343750 0.330319
vt 0.343750 0.340895
vt 0.343750 0.349010
vt 0.343750 0.354111
vt 0.343750 0.318003
vt 0.343750 0.355851
vt 0.343750 0.304787
vt 0.343750 0.287766
vt 0.843750 0.389894
vt 0.843750 0.372872
vt 0.843750 0.406915
vt 0.843750 0.321808
vt 0.843750 0.304787
vt 0.843750 0.332143
vt 0.843750 0.275000
vt 0.843750 0.417857
vt 0.843750 0.475000
vt 0.593750 0.614362
vt 0.593750 0.588830
vt 0.593750 0.627128
vt 0.593750 0.601727
vt 0.593750 0.612277
vt 0.593750 0.639894
vt 0.593750 0.618908
vt 0.593750 0.621170
vt 0.593750 0.622872
vt 0.593750 0.725000
vt 0.593750 0.654279
vt 0.593750 0.710614
vt 0.593750 0.656915
vt 0.593750 0.716489
vt 0.593750 0.682447
vt 0.593750 0.709196
vt 0.343750 0.225000
vt 0.343750 0.025000
vt 0.093750 0.191194
vt 0.093750 0.025000
vt 0.093750 0.058806
vt 0.093750 0.187861
vt 0.093750 0.125000
vt 0.093750 0.225000
vt 0.218750 0.225000
vt 0.218750 0.025000
vn 0.707107 -0.707107 0.000000
vn -0.707107 -0.707107 0.000000
vn 0.000000 0.258819 -0.965926
vn 0.000000 0.045370 -0.998970
vn 0.000000 0.065403 -0.997859
vn 0.000000 0.233891 -0.972263
vn 0.948683 -0.316228 0.000000
vn 0.000000 0.866025 0.500000
vn 0.000000 0.707107 0.707107
vn 0.000000 0.965926 0.258819
vn 0.000000 0.866025 -0.500000
vn 0.000000 0.965926 -0.258819
vn 0.000000 0.707107 -0.707107
vn 0.000000 0.500000 -0.866025
vn 0.000000 0.479903 -0.877321
vn 0.000000 0.500000 0.866025
vn 0.000000 0.608761 0.793353
vn 0.000000 0.479903 0.877321
vn 0.000000 1.000000 0.000000
vn 0.000000 0.258819 0.965926
vn 0.000000 0.233891 0.972263
vn -0.948683 -0.316228 0.000000
vn 0.000000 0.130526 -0.991445
vn 0.000000 0.608761 -0.793353
vn 0.000000 0.130526 0.991445
vn 0.000000 -0.316228 0.948683
vn 0.000000 0.751840 0.659346
vn 0.000000 0.813241 0.581927
vn 0.000000 -0.554700 -0.832050
vn 0.000000 0.000000 -1.000000
vn 0.000000 -0.926650 -0.375925
vn 0.195090 0.000000 0.980785
vn -0.195090 0.000000 0.980785
vn -0.707107 0.000000 0.707107
vn -0.923879 0.000000 0.382683
vn 0.707107 0.000000 0.707107
vn 0.923879 0.000000 0.382683
vn 0.000000 -1.000000 0.000000
vn -1.000000 0.000000 0.000000
vn 1.000000 0.000000 0.000000
vn -0.000000 0.316228 0.948683
vn 0.382683 -0.923879 0.000000
vn 0.923879 -0.382683 0.000000
vn -0.382683 -0.923879 -0.000000
vn -0.923879 -0.382683 -0.000000
vn 0.923879 0.382683 0.000000
vn 0.382683 0.923879 0.000000
vn 0.000000 0.000000 -1.000000
vn -0.382683 0.923879 -0.000000
vn -0.923879 0.382683 -0.000000
vn -0.382683 -0.923879 0.000000
vn -0.923879 -0.382683 0.000000
vn 0.382683 -0.923879 0.000000
vn 0.923879 -0.382683 0.000000
vn -0.923879 0.382683 0.000000
vn -0.382683 0.923879 0.000000
vn 0.000000 0.000000 1.000000
vn 0.382683 0.923879 0.000000
vn 0.923879 0.382683 0.000000
vn 0.000000 0.514496 0.857493
vn 0.000000 -0.500000 -0.866025
vn 0.000000 -0.707107 -0.707107
vn 0.000000 -0.866025 -0.500000
vn 0.000000 -0.965926 -0.258819
vn 0.000000 -0.500000 0.866025
vn 0.000000 -0.258819 0.965926
vn 0.000000 -0.965926 0.258819
vn 0.000000 -0.065403 0.997859
vn 0.000000 -0.866025 0.500000
vn 0.000000 -0.707107 0.707107
vn 0.000000 -0.258819 -0.965926
vn 0.000000 -0.065403 -0.997859
vn -0.000000 0.000000 1.000000
vn 0.000000 0.855531 0.517752
vn 0.000000 0.811242 0.584710
vn 0.000000 0.316228 0.948683
vn 0.000000 0.605113 -0.796139
vn 0.000000 0.371391 -0.928477
vn 0.000000 0.828067 -0.560629
vn -0.980581 0.196116 0.000000
vn 0.980581 0.196116 0.000000
vn 0.707107 0.000000 -0.707107
vn -0.707107 0.000000 -0.707107
vn -0.622386 0.247515 0.742545
vn -0.769485 0.201964 0.605891
vn 0.769485 0.201964 0.605891
vn 0.622386 0.247515 0.742545
usemtl colormap
f 1/1/1 2/2/1 3/2/1
f 4/1/2 5/2/2 6/2/2
f 7/3/3 5/2/4 8/2/5
f 5/2/4 7/3/3 9/3/6
f 10/4/7 11/5/7 12/4/7
f 11/5/7 10/4/7 13/3/7
f 13/3/7 10/4/7 14/2/7
f 14/2/7 10/4/7 15/2/7
f 16/6/8 17/7/9 18/6/8
f 17/7/9 16/6/8 19/7/9
f 20/8/10 21/6/8 22/8/10
f 21/6/8 20/8/10 23/6/8
f 24/6/11 25/8/12 26/6/11
f 25/8/12 24/6/11 27/8/12
f 28/8/10 29/6/8 30/8/10
f 29/6/8 28/8/10 31/6/8
f 32/7/13 33/6/11 34/7/13
f 33/6/11 32/7/13 35/6/11
f 36/3/6 37/5/14 38/3/3
f 37/5/14 36/3/6 39/5/15
f 40/5/16 41/4/17 42/5/18
f 41/4/17 40/5/16 43/7/9
f 41/4/17 43/7/9 44/7/9
f 23/6/8 45/7/9 21/6/8
f 45/7/9 23/6/8 46/7/9
f 47/7/13 26/6/11 48/7/13
f 26/6/11 47/7/13 24/6/11
f 31/6/8 43/7/9 29/6/8
f 43/7/9 31/6/8 44/7/9
f 27/8/12 49/9/19 25/8/12
f 49/9/19 27/8/12 50/9/19
f 50/9/19 51/8/10 49/9/19
f 51/8/10 50/9/19 52/8/10
f 53/6/8 54/7/9 55/6/8
f 54/7/9 53/6/8 56/7/9
f 57/9/19 22/8/10 58/9/19
f 22/8/10 57/9/19 20/8/10
f 59/9/19 30/8/10 60/9/19
f 30/8/10 59/9/19 28/8/10
f 61/5/14 62/3/6 63/3/3
f 62/3/6 61/5/14 64/5/15
f 35/6/11 65/8/12 33/6/11
f 65/8/12 35/6/11 66/8/12
f 67/5/18 68/3/20 69/3/21
f 68/3/20 67/5/18 70/5/16
f 67/5/22 71/4/22 72/4/22
f 71/4/22 67/5/22 69/3/22
f 71/4/22 69/3/22 73/1/22
f 71/4/22 73/1/22 64/5/22
f 64/5/22 73/1/22 62/3/22
f 62/3/22 73/1/22 74/1/22
f 75/5/16 13/3/21 76/3/20
f 13/3/21 75/5/16 11/5/18
f 77/4/7 42/5/7 41/4/7
f 42/5/7 77/4/7 78/3/7
f 78/3/7 77/4/7 79/1/7
f 79/1/7 77/4/7 39/5/7
f 79/1/7 39/5/7 36/3/7
f 79/1/7 36/3/7 80/1/7
f 81/3/21 82/5/16 83/3/20
f 82/5/16 81/3/21 84/5/18
f 85/7/13 86/6/11 87/7/13
f 86/6/11 85/7/13 88/6/11
f 89/8/12 58/9/19 90/8/12
f 58/9/19 89/8/12 57/9/19
f 91/5/14 9/3/6 7/3/3
f 9/3/6 91/5/14 92/5/15
f 63/3/3 74/1/23 93/1/23
f 74/1/23 63/3/3 62/3/6
f 94/3/20 42/5/18 78/3/21
f 42/5/18 94/3/20 40/5/16
f 95/7/13 92/5/15 91/5/14
f 92/5/15 95/7/13 96/4/24
f 96/4/24 95/7/13 97/7/13
f 98/1/25 78/3/21 79/1/25
f 78/3/21 98/1/25 94/3/20
f 99/8/12 100/9/19 101/8/12
f 100/9/19 99/8/12 102/9/19
f 75/5/16 12/4/17 11/5/18
f 12/4/17 75/5/16 54/7/9
f 12/4/17 54/7/9 56/7/9
f 77/4/24 37/5/14 39/5/15
f 37/5/14 77/4/24 48/7/13
f 48/7/13 77/4/24 47/7/13
f 36/3/6 103/1/23 80/1/23
f 103/1/23 36/3/6 38/3/3
f 104/8/10 18/6/8 105/8/10
f 18/6/8 104/8/10 16/6/8
f 72/4/17 70/5/16 67/5/18
f 70/5/16 72/4/17 46/7/9
f 46/7/9 72/4/17 45/7/9
f 106/4/17 82/5/16 84/5/18
f 82/5/16 106/4/17 19/7/9
f 19/7/9 106/4/17 17/7/9
f 66/8/12 60/9/19 65/8/12
f 60/9/19 66/8/12 59/9/19
f 102/9/19 105/8/10 100/9/19
f 105/8/10 102/9/19 104/8/10
f 107/3/6 108/2/5 3/2/4
f 108/2/5 107/3/6 109/3/3
f 110/1/19 74/1/19 73/1/19
f 74/1/19 110/1/19 93/1/19
f 111/6/11 90/8/12 112/6/11
f 90/8/12 111/6/11 89/8/12
f 107/3/6 113/5/14 109/3/3
f 113/5/14 107/3/6 114/5/15
f 69/3/21 110/1/25 73/1/25
f 110/1/25 69/3/21 68/3/20
f 61/5/14 71/4/24 64/5/15
f 71/4/24 61/5/14 85/7/13
f 71/4/24 85/7/13 87/7/13
f 88/6/11 101/8/12 86/6/11
f 101/8/12 88/6/11 99/8/12
f 114/5/15 34/7/13 113/5/14
f 34/7/13 114/5/15 115/4/24
f 34/7/13 115/4/24 32/7/13
f 79/1/19 103/1/19 98/1/19
f 103/1/19 79/1/19 80/1/19
f 52/8/10 55/6/8 51/8/10
f 55/6/8 52/8/10 53/6/8
f 10/4/26 116/2/26 15/2/26
f 116/2/26 10/4/26 117/4/26
f 81/3/21 118/2/27 119/2/28
f 118/2/27 81/3/21 83/3/20
f 95/7/13 112/6/11 97/7/13
f 112/6/11 95/7/13 111/6/11
f 84/5/22 117/4/22 106/4/22
f 117/4/22 84/5/22 81/3/22
f 117/4/22 81/3/22 119/2/22
f 117/4/22 119/2/22 116/2/22
f 76/3/20 14/2/28 120/2/27
f 14/2/28 76/3/20 13/3/21
f 121/4/29 2/2/29 6/2/29
f 2/2/29 121/4/29 122/4/29
f 1/1/30 4/1/30 3/2/30
f 5/2/30 3/2/30 4/1/30
f 4/1/30 8/2/5 5/2/4
f 4/1/30 123/10/30 8/2/5
f 123/10/30 4/1/30 124/10/30
f 1/1/30 124/10/30 4/1/30
f 124/10/30 1/1/30 108/2/5
f 108/2/5 1/1/30 3/2/4
f 1/1/31 6/2/31 2/2/31
f 6/2/31 1/1/31 4/1/31
f 125/4/7 2/2/7 122/4/7
f 2/2/7 125/4/7 3/2/7
f 3/2/7 125/4/7 107/3/7
f 107/3/7 125/4/7 114/5/7
f 114/5/7 125/4/7 115/4/7
f 126/2/32 127/10/33 128/10/32
f 127/10/33 126/2/32 129/2/33
f 130/10/34 131/2/35 132/10/35
f 131/2/35 130/10/34 133/2/34
f 134/2/36 135/10/37 136/2/37
f 135/10/37 134/2/36 137/10/36
f 129/2/33 130/10/34 127/10/33
f 130/10/34 129/2/33 133/2/34
f 118/2/27 116/2/19 119/2/28
f 116/2/19 118/2/27 129/2/19
f 129/2/19 15/2/19 116/2/19
f 129/2/19 118/2/27 133/2/19
f 133/2/19 118/2/27 131/2/19
f 126/2/19 15/2/19 129/2/19
f 126/2/19 14/2/28 15/2/19
f 134/2/19 14/2/28 126/2/19
f 136/2/19 14/2/28 134/2/19
f 14/2/28 136/2/19 120/2/27
f 134/2/36 128/10/32 137/10/36
f 128/10/32 134/2/36 126/2/32
f 5/2/38 2/2/38 3/2/38
f 2/2/38 5/2/38 6/2/38
f 6/2/22 138/4/22 121/4/22
f 138/4/22 6/2/22 5/2/22
f 138/4/22 5/2/22 9/3/22
f 138/4/22 9/3/22 92/5/22
f 138/4/22 92/5/22 96/4/22
f 139/10/39 8/2/39 123/10/39
f 8/2/39 139/10/39 7/3/39
f 7/3/39 139/10/39 91/5/39
f 91/5/39 139/10/39 140/1/39
f 91/5/39 140/1/39 95/7/39
f 95/7/39 140/1/39 141/11/39
f 95/7/39 141/11/39 142/12/39
f 95/7/39 142/12/39 111/6/39
f 111/6/39 142/12/39 143/13/39
f 111/6/39 143/13/39 144/14/39
f 111/6/39 144/14/39 89/8/39
f 89/8/39 144/14/39 145/15/39
f 89/8/39 145/15/39 57/9/39
f 57/9/39 145/15/39 146/16/39
f 57/9/39 146/16/39 147/15/39
f 57/9/39 147/15/39 20/8/39
f 20/8/39 147/15/39 148/14/39
f 20/8/39 148/14/39 23/6/39
f 23/6/39 148/14/39 149/13/39
f 23/6/39 149/13/39 46/7/39
f 46/7/39 149/13/39 150/12/39
f 46/7/39 150/12/39 151/11/39
f 46/7/39 151/11/39 70/5/39
f 70/5/39 151/11/39 152/1/39
f 70/5/39 152/1/39 153/10/39
f 70/5/39 153/10/39 110/1/39
f 70/5/39 110/1/39 68/3/39
f 110/1/39 153/10/39 154/10/39
f 110/1/39 154/10/39 93/1/39
f 93/1/39 154/10/39 63/3/39
f 63/3/39 154/10/39 61/5/39
f 61/5/39 154/10/39 155/1/39
f 61/5/39 155/1/39 85/7/39
f 85/7/39 155/1/39 156/11/39
f 85/7/39 156/11/39 157/12/39
f 85/7/39 157/12/39 88/6/39
f 88/6/39 157/12/39 158/13/39
f 88/6/39 158/13/39 159/14/39
f 88/6/39 159/14/39 99/8/39
f 99/8/39 159/14/39 160/15/39
f 99/8/39 160/15/39 102/9/39
f 102/9/39 160/15/39 161/16/39
f 102/9/39 161/16/39 162/15/39
f 102/9/39 162/15/39 104/8/39
f 104/8/39 162/15/39 163/14/39
f 104/8/39 163/14/39 16/6/39
f 16/6/39 163/14/39 164/13/39
f 16/6/39 164/13/39 19/7/39
f 19/7/39 164/13/39 165/12/39
f 19/7/39 165/12/39 166/11/39
f 19/7/39 166/11/39 82/5/39
f 82/5/39 166/11/39 167/1/39
f 82/5/39 167/1/39 168/10/39
f 82/5/39 168/10/39 118/2/39
f 82/5/39 118/2/39 83/3/39
f 118/2/39 168/10/39 132/10/39
f 118/2/39 132/10/39 131/2/39
f 120/2/40 75/5/40 76/3/40
f 169/10/40 75/5/40 120/2/40
f 169/10/40 120/2/40 135/10/40
f 135/10/40 120/2/40 136/2/40
f 170/1/40 75/5/40 169/10/40
f 171/11/40 75/5/40 170/1/40
f 171/11/40 54/7/40 75/5/40
f 172/12/40 54/7/40 171/11/40
f 173/13/40 54/7/40 172/12/40
f 173/13/40 55/6/40 54/7/40
f 174/14/40 55/6/40 173/13/40
f 174/14/40 51/8/40 55/6/40
f 175/15/40 51/8/40 174/14/40
f 176/16/40 51/8/40 175/15/40
f 176/16/40 49/9/40 51/8/40
f 177/15/40 49/9/40 176/16/40
f 177/15/40 25/8/40 49/9/40
f 178/14/40 25/8/40 177/15/40
f 178/14/40 26/6/40 25/8/40
f 179/13/40 26/6/40 178/14/40
f 180/12/40 26/6/40 179/13/40
f 180/12/40 48/7/40 26/6/40
f 181/11/40 48/7/40 180/12/40
f 182/1/40 48/7/40 181/11/40
f 48/7/40 182/1/40 37/5/40
f 183/10/40 37/5/40 182/1/40
f 183/10/40 38/3/40 37/5/40
f 183/10/40 103/1/40 38/3/40
f 183/10/40 98/1/40 103/1/40
f 184/10/40 98/1/40 183/10/40
f 184/10/40 40/5/40 98/1/40
f 98/1/40 40/5/40 94/3/40
f 185/1/40 40/5/40 184/10/40
f 186/11/40 40/5/40 185/1/40
f 186/11/40 43/7/40 40/5/40
f 187/12/40 43/7/40 186/11/40
f 188/13/40 43/7/40 187/12/40
f 188/13/40 29/6/40 43/7/40
f 189/14/40 29/6/40 188/13/40
f 189/14/40 30/8/40 29/6/40
f 190/15/40 30/8/40 189/14/40
f 191/16/40 30/8/40 190/15/40
f 191/16/40 60/9/40 30/8/40
f 192/15/40 60/9/40 191/16/40
f 192/15/40 65/8/40 60/9/40
f 193/14/40 65/8/40 192/15/40
f 193/14/40 33/6/40 65/8/40
f 194/13/40 33/6/40 193/14/40
f 195/12/40 33/6/40 194/13/40
f 195/12/40 34/7/40 33/6/40
f 196/11/40 34/7/40 195/12/40
f 197/1/40 34/7/40 196/11/40
f 34/7/40 197/1/40 113/5/40
f 198/10/40 113/5/40 197/1/40
f 198/10/40 109/3/40 113/5/40
f 124/10/40 109/3/40 198/10/40
f 109/3/40 124/10/40 108/2/40
f 183/10/38 199/10/38 184/10/38
f 199/10/38 183/10/38 200/10/38
f 199/10/38 200/10/38 201/10/38
f 202/10/38 201/10/38 200/10/38
f 123/10/38 201/10/38 202/10/38
f 123/10/38 202/10/38 139/10/38
f 124/10/38 201/10/38 123/10/38
f 201/10/38 124/10/38 198/10/38
f 202/10/38 200/10/38 203/10/38
f 200/10/38 204/10/38 203/10/38
f 205/10/38 203/10/38 204/10/38
f 203/10/38 205/10/38 153/10/38
f 153/10/38 205/10/38 154/10/38
f 200/10/38 127/10/38 204/10/38
f 204/10/38 127/10/38 168/10/38
f 206/10/38 127/10/38 200/10/38
f 168/10/38 127/10/38 130/10/38
f 168/10/38 130/10/38 132/10/38
f 206/10/38 128/10/38 127/10/38
f 206/10/38 137/10/38 128/10/38
f 206/10/38 135/10/38 137/10/38
f 135/10/38 206/10/38 169/10/38
f 207/17/41 208/17/41 209/17/41
f 208/17/41 207/17/41 210/17/41
f 211/17/42 212/18/43 213/17/42
f 212/18/43 211/17/42 214/18/43
f 215/17/44 213/17/42 216/17/44
f 213/17/42 215/17/44 211/17/42
f 217/18/45 216/17/44 218/18/45
f 216/17/44 217/18/45 215/17/44
f 219/19/46 220/20/47 221/20/47
f 220/20/47 219/19/46 222/19/46
f 214/18/43 219/19/46 212/18/43
f 219/19/46 214/18/43 222/19/46
f 217/18/48 211/17/48 215/17/48
f 211/17/48 217/18/48 214/18/48
f 214/18/48 217/18/48 223/19/48
f 214/18/48 223/19/48 222/19/48
f 222/19/48 223/19/48 224/20/48
f 222/19/48 224/20/48 220/20/48
f 221/20/47 224/20/49 225/20/49
f 224/20/49 221/20/47 220/20/47
f 223/19/50 218/18/45 226/19/50
f 218/18/45 223/19/50 217/18/45
f 225/20/49 223/19/50 226/19/50
f 223/19/50 225/20/49 224/20/49
f 227/17/51 228/18/52 229/17/51
f 228/18/52 227/17/51 230/18/52
f 231/17/53 229/17/51 232/17/53
f 229/17/51 231/17/53 227/17/51
f 233/18/54 232/17/53 234/18/54
f 232/17/53 233/18/54 231/17/53
f 235/19/55 236/20/56 237/20/56
f 236/20/56 235/19/55 238/19/55
f 230/18/52 235/19/55 228/18/52
f 235/19/55 230/18/52 238/19/55
f 233/18/57 227/17/57 231/17/57
f 227/17/57 233/18/57 230/18/57
f 230/18/57 233/18/57 239/19/57
f 230/18/57 239/19/57 238/19/57
f 238/19/57 239/19/57 240/20/57
f 238/19/57 240/20/57 236/20/57
f 237/20/56 240/20/58 241/20/58
f 240/20/58 237/20/56 236/20/56
f 239/19/59 234/18/54 242/19/59
f 234/18/54 239/19/59 233/18/54
f 241/20/58 239/19/59 242/19/59
f 239/19/59 241/20/58 240/20/58
f 243/21/60 244/22/60 245/22/60
f 244/22/60 243/21/60 246/21/60
f 247/23/61 188/24/62 187/23/61
f 188/24/62 247/23/61 248/24/62
f 249/25/63 190/26/64 189/25/63
f 190/26/64 249/25/63 250/26/64
f 195/23/65 251/27/66 196/27/66
f 251/27/66 195/23/65 252/23/65
f 253/25/63 175/26/64 174/25/63
f 175/26/64 253/25/63 254/26/64
f 255/23/61 173/24/62 172/23/61
f 173/24/62 255/23/61 256/24/62
f 257/28/38 192/26/67 191/28/38
f 192/26/67 257/28/38 258/26/67
f 182/29/68 200/30/57 183/30/57
f 200/30/57 182/29/68 259/29/68
f 197/29/68 201/30/57 198/30/57
f 201/30/57 197/29/68 260/29/68
f 256/24/62 174/25/63 173/24/62
f 174/25/63 256/24/62 253/25/63
f 261/25/69 179/24/70 178/25/69
f 179/24/70 261/25/69 262/24/70
f 263/25/69 194/24/70 193/25/69
f 194/24/70 263/25/69 264/24/70
f 254/26/64 176/28/38 175/26/64
f 176/28/38 254/26/64 265/28/38
f 266/26/67 178/25/69 177/26/67
f 178/25/69 266/26/67 261/25/69
f 194/24/70 252/23/65 195/23/65
f 252/23/65 194/24/70 264/24/70
f 248/24/62 189/25/63 188/24/62
f 189/25/63 248/24/62 249/25/63
f 181/27/66 259/29/68 182/29/68
f 259/29/68 181/27/66 267/27/66
f 268/27/71 187/23/61 186/27/71
f 187/23/61 268/27/71 247/23/61
f 269/29/72 186/27/71 185/29/72
f 186/27/71 269/29/72 268/27/71
f 196/27/66 260/29/68 197/29/68
f 260/29/68 196/27/66 251/27/66
f 258/26/67 193/25/69 192/26/67
f 193/25/69 258/26/67 263/25/69
f 180/23/65 267/27/66 181/27/66
f 267/27/66 180/23/65 270/23/65
f 271/29/72 171/27/71 170/29/72
f 171/27/71 271/29/72 272/27/71
f 179/24/70 270/23/65 180/23/65
f 270/23/65 179/24/70 262/24/70
f 272/27/71 172/23/61 171/27/71
f 172/23/61 272/27/71 255/23/61
f 250/26/64 191/28/38 190/26/64
f 191/28/38 250/26/64 257/28/38
f 167/29/72 204/30/30 168/30/30
f 204/30/30 167/29/72 273/29/72
f 265/28/38 177/26/67 176/28/38
f 177/26/67 265/28/38 266/26/67
f 166/27/71 273/29/72 167/29/72
f 273/29/72 166/27/71 274/27/71
f 275/29/68 154/30/57 205/30/57
f 154/30/57 275/29/68 155/29/68
f 161/28/38 276/26/67 277/28/38
f 276/26/67 161/28/38 160/26/67
f 160/26/67 278/25/69 276/26/67
f 278/25/69 160/26/67 159/25/69
f 164/24/62 279/23/61 165/23/61
f 279/23/61 164/24/62 280/24/62
f 281/27/66 155/29/68 275/29/68
f 155/29/68 281/27/66 156/27/66
f 282/24/70 157/23/65 283/23/65
f 157/23/65 282/24/70 158/24/70
f 283/23/65 156/27/66 281/27/66
f 156/27/66 283/23/65 157/23/65
f 159/25/69 282/24/70 278/25/69
f 282/24/70 159/25/69 158/24/70
f 164/24/62 284/25/63 280/24/62
f 284/25/63 164/24/62 163/25/63
f 162/26/64 277/28/38 285/26/64
f 277/28/38 162/26/64 161/28/38
f 165/23/61 274/27/71 166/27/71
f 274/27/71 165/23/61 279/23/61
f 163/25/63 285/26/64 284/25/63
f 285/26/64 163/25/63 162/26/64
f 204/30/39 275/29/39 205/30/39
f 275/29/39 204/30/39 281/27/39
f 281/27/39 204/30/39 283/23/39
f 283/23/39 204/30/39 282/24/39
f 282/24/39 204/30/39 278/25/39
f 278/25/39 204/30/39 276/26/39
f 276/26/39 204/30/39 277/28/39
f 277/28/39 204/30/39 285/26/39
f 285/26/39 204/30/39 284/25/39
f 284/25/39 204/30/39 280/24/39
f 280/24/39 204/30/39 279/23/39
f 279/23/39 204/30/39 274/27/39
f 274/27/39 204/30/39 273/29/39
f 267/27/40 200/30/40 259/29/40
f 200/30/40 267/27/40 206/30/40
f 206/30/40 267/27/40 270/23/40
f 206/30/40 270/23/40 262/24/40
f 206/30/40 262/24/40 261/25/40
f 206/30/40 261/25/40 266/26/40
f 206/30/40 266/26/40 265/28/40
f 206/30/40 265/28/40 254/26/40
f 206/30/40 254/26/40 253/25/40
f 206/30/40 253/25/40 256/24/40
f 206/30/40 256/24/40 255/23/40
f 206/30/40 255/23/40 272/27/40
f 206/30/40 272/27/40 271/29/40
f 271/29/72 169/30/30 206/30/30
f 169/30/30 271/29/72 170/29/72
f 251/27/40 201/30/40 260/29/40
f 201/30/40 251/27/40 199/30/40
f 199/30/40 251/27/40 252/23/40
f 199/30/40 252/23/40 264/24/40
f 199/30/40 264/24/40 263/25/40
f 199/30/40 263/25/40 258/26/40
f 199/30/40 258/26/40 257/28/40
f 199/30/40 257/28/40 250/26/40
f 199/30/40 250/26/40 249/25/40
f 199/30/40 249/25/40 248/24/40
f 199/30/40 248/24/40 247/23/40
f 199/30/40 247/23/40 268/27/40
f 199/30/40 268/27/40 269/29/40
f 203/30/39 286/29/39 202/30/39
f 286/29/39 203/30/39 287/27/39
f 287/27/39 203/30/39 288/23/39
f 288/23/39 203/30/39 289/24/39
f 289/24/39 203/30/39 290/25/39
f 290/25/39 203/30/39 291/26/39
f 291/26/39 203/30/39 292/28/39
f 292/28/39 203/30/39 293/26/39
f 293/26/39 203/30/39 294/25/39
f 294/25/39 203/30/39 295/24/39
f 295/24/39 203/30/39 296/23/39
f 296/23/39 203/30/39 297/27/39
f 297/27/39 203/30/39 298/29/39
f 151/27/71 298/29/72 152/29/72
f 298/29/72 151/27/71 297/27/71
f 286/29/68 139/30/57 202/30/57
f 139/30/57 286/29/68 140/29/68
f 146/28/38 291/26/67 292/28/38
f 291/26/67 146/28/38 145/26/67
f 145/26/67 290/25/69 291/26/67
f 290/25/69 145/26/67 144/25/69
f 150/23/61 295/24/62 296/23/61
f 295/24/62 150/23/61 149/24/62
f 287/27/66 140/29/68 286/29/68
f 140/29/68 287/27/66 141/27/66
f 289/24/70 142/23/65 288/23/65
f 142/23/65 289/24/70 143/24/70
f 288/23/65 141/27/66 287/27/66
f 141/27/66 288/23/65 142/23/65
f 149/24/62 294/25/63 295/24/62
f 294/25/63 149/24/62 148/25/63
f 147/26/64 292/28/38 293/26/64
f 292/28/38 147/26/64 146/28/38
f 144/25/69 289/24/70 290/25/69
f 289/24/70 144/25/69 143/24/70
f 150/23/61 297/27/71 151/27/71
f 297/27/71 150/23/61 296/23/61
f 148/25/63 293/26/64 294/25/63
f 293/26/64 148/25/63 147/26/64
f 152/29/72 203/30/30 153/30/30
f 203/30/30 152/29/72 298/29/72
f 269/29/72 184/30/30 199/30/30
f 184/30/30 269/29/72 185/29/72
f 299/31/30 300/32/30 301/32/30
f 300/32/30 299/31/30 302/31/30
f 302/31/30 299/31/30 303/33/30
f 302/31/30 303/33/30 304/33/30
f 305/31/30 306/32/30 307/32/30
f 306/32/30 305/31/30 308/31/30
f 308/31/30 305/31/30 309/33/30
f 308/31/30 309/33/30 310/33/30
f 3/34/57 4/35/57 1/35/57
f 4/35/57 3/34/57 5/34/57
f 212/36/73 216/37/73 213/37/73
f 216/37/73 212/36/73 218/36/73
f 218/36/73 212/36/73 219/38/73
f 218/36/73 219/38/73 226/38/73
f 226/38/73 219/38/73 221/39/73
f 226/38/73 221/39/73 225/39/73
f 228/36/30 232/37/30 229/37/30
f 232/37/30 228/36/30 234/36/30
f 234/36/30 228/36/30 235/38/30
f 234/36/30 235/38/30 242/38/30
f 242/38/30 235/38/30 237/39/30
f 242/38/30 237/39/30 241/39/30
f 311/40/39 117/41/39 312/40/39
f 117/41/39 311/40/39 106/41/39
f 313/42/39 106/41/39 311/40/39
f 313/42/39 17/43/39 106/41/39
f 313/42/39 18/44/39 17/43/39
f 314/45/39 18/44/39 313/42/39
f 314/45/39 313/42/39 315/42/39
f 314/45/39 105/46/39 18/44/39
f 314/45/39 100/47/39 105/46/39
f 314/45/39 101/46/39 100/47/39
f 316/45/39 101/46/39 314/45/39
f 316/45/39 86/44/39 101/46/39
f 317/45/39 86/44/39 316/45/39
f 318/45/39 86/44/39 317/45/39
f 319/48/39 86/44/39 318/45/39
f 319/48/39 87/43/39 86/44/39
f 319/48/39 71/41/39 87/43/39
f 306/48/39 71/41/39 319/48/39
f 320/45/39 71/41/39 306/48/39
f 308/45/39 320/45/39 306/48/39
f 320/45/39 72/41/39 71/41/39
f 320/45/39 45/43/39 72/41/39
f 320/45/39 21/44/39 45/43/39
f 320/45/39 22/46/39 21/44/39
f 320/45/39 58/47/39 22/46/39
f 320/45/39 90/46/39 58/47/39
f 321/45/39 90/46/39 320/45/39
f 321/45/39 112/44/39 90/46/39
f 321/45/39 138/41/39 112/44/39
f 112/44/39 138/41/39 97/43/39
f 97/43/39 138/41/39 96/41/39
f 322/48/39 138/41/39 321/45/39
f 323/48/39 138/41/39 322/48/39
f 138/41/39 323/48/39 121/41/39
f 324/48/38 300/48/38 325/48/38
f 300/48/38 324/48/38 301/48/38
f 326/49/74 245/45/60 327/45/60
f 245/45/60 326/49/74 243/50/60
f 243/50/60 326/49/74 328/51/60
f 328/51/60 326/49/74 329/51/60
f 330/49/74 329/51/60 326/49/74
f 330/49/74 331/51/60 329/51/60
f 330/49/74 246/50/60 331/51/60
f 316/45/60 246/50/60 330/49/74
f 246/50/60 316/45/60 244/45/60
f 332/48/38 306/48/38 319/48/38
f 306/48/38 332/48/38 307/48/38
f 332/48/39 305/45/55 307/48/39
f 305/45/55 332/48/39 333/45/55
f 334/45/59 300/48/40 302/45/59
f 300/48/40 334/45/59 325/48/40
f 245/45/19 335/45/75 327/45/19
f 335/45/75 245/45/19 314/45/75
f 314/45/75 245/45/19 244/45/19
f 314/45/75 244/45/19 316/45/19
f 303/52/19 336/52/58 304/52/58
f 336/52/58 303/52/19 337/52/19
f 338/45/39 303/52/39 299/45/39
f 303/52/39 338/45/39 337/52/39
f 309/52/56 339/52/19 310/52/19
f 339/52/19 309/52/56 340/52/56
f 339/52/40 308/45/40 310/52/40
f 308/45/40 339/52/40 318/45/40
f 341/40/76 342/41/76 10/41/76
f 342/41/76 341/40/76 343/40/76
f 342/41/76 343/40/76 344/40/76
f 344/40/76 343/40/76 345/42/76
f 344/40/76 345/42/76 346/40/76
f 347/42/76 346/40/76 345/42/76
f 345/42/76 335/45/75 347/42/76
f 335/45/75 345/42/76 348/42/76
f 347/42/76 335/45/75 315/42/76
f 315/42/76 335/45/75 314/45/75
f 349/40/76 346/40/76 347/42/76
f 117/41/76 346/40/76 349/40/76
f 312/40/76 117/41/76 349/40/76
f 346/40/76 117/41/76 350/41/76
f 351/48/30 352/45/30 353/45/30
f 352/45/30 351/48/30 354/48/30
f 355/48/30 354/48/30 351/48/30
f 355/48/30 323/48/30 354/48/30
f 122/41/30 323/48/30 355/48/30
f 323/48/30 122/41/30 121/41/30
f 334/45/57 324/48/57 325/48/57
f 324/48/57 334/45/57 338/45/57
f 338/45/57 334/45/57 337/52/57
f 337/52/57 334/45/57 336/52/57
f 318/45/57 332/48/57 319/48/57
f 332/48/57 318/45/57 333/45/57
f 333/45/57 318/45/57 339/52/57
f 333/45/57 339/52/57 340/52/57
f 333/45/55 309/52/56 305/45/55
f 309/52/56 333/45/55 340/52/56
f 336/52/58 302/45/59 304/52/58
f 302/45/59 336/52/58 334/45/59
f 356/45/40 324/48/40 338/45/40
f 24/44/40 324/48/40 356/45/40
f 24/44/40 356/45/40 327/45/40
f 47/43/40 324/48/40 24/44/40
f 24/44/40 327/45/40 27/46/40
f 77/41/40 324/48/40 47/43/40
f 27/46/40 327/45/40 335/45/40
f 27/46/40 335/45/40 50/47/40
f 50/47/40 335/45/40 52/46/40
f 77/41/40 301/48/40 324/48/40
f 52/46/40 335/45/40 53/44/40
f 77/41/40 357/45/40 301/48/40
f 301/48/40 357/45/40 299/45/40
f 41/41/40 357/45/40 77/41/40
f 44/43/40 357/45/40 41/41/40
f 31/44/40 357/45/40 44/43/40
f 28/46/40 357/45/40 31/44/40
f 59/47/40 357/45/40 28/46/40
f 66/46/40 357/45/40 59/47/40
f 53/44/40 335/45/40 358/42/40
f 358/42/40 335/45/40 348/42/40
f 53/44/40 358/42/40 56/43/40
f 56/43/40 358/42/40 12/41/40
f 359/40/40 12/41/40 358/42/40
f 12/41/40 359/40/40 10/41/40
f 10/41/40 359/40/40 341/40/40
f 360/48/40 357/45/40 66/46/40
f 357/45/40 360/48/40 361/45/40
f 360/48/40 66/46/40 35/44/40
f 360/48/40 35/44/40 125/41/40
f 125/41/40 35/44/40 32/43/40
f 125/41/40 32/43/40 115/41/40
f 122/41/40 360/48/40 125/41/40
f 360/48/40 122/41/40 355/48/40
f 362/53/77 352/45/78 363/45/78
f 352/45/78 362/53/77 364/54/78
f 352/45/78 364/54/78 353/45/78
f 353/45/78 364/54/78 365/45/78
f 364/54/78 362/53/77 366/55/78
f 367/54/78 365/45/78 364/54/78
f 366/55/78 362/53/77 368/55/78
f 365/45/78 367/54/78 369/53/77
f 369/53/77 367/54/78 368/55/78
f 369/53/77 368/55/78 362/53/77
f 362/53/77 370/49/79 369/53/77
f 370/49/79 362/53/77 371/49/79
f 321/45/80 362/53/80 363/45/80
f 362/53/80 321/45/80 320/45/80
f 362/53/80 320/45/80 371/49/80
f 371/49/80 320/45/80 372/51/80
f 371/49/80 372/51/80 330/49/80
f 330/49/80 372/51/80 373/51/80
f 330/49/80 373/51/80 317/45/80
f 330/49/80 317/45/80 316/45/80
f 356/45/81 326/49/81 327/45/81
f 374/51/81 326/49/81 356/45/81
f 375/51/81 326/49/81 374/51/81
f 326/49/81 375/51/81 370/49/81
f 357/45/81 370/49/81 375/51/81
f 357/45/81 369/53/81 370/49/81
f 361/45/81 369/53/81 357/45/81
f 369/53/81 361/45/81 365/45/81
f 330/49/74 376/49/19 377/49/19
f 330/49/74 377/49/19 378/49/19
f 330/49/74 379/49/19 376/49/19
f 330/49/74 378/49/19 371/49/19
f 326/49/74 379/49/19 330/49/74
f 380/49/19 371/49/19 378/49/19
f 379/49/19 326/49/74 381/49/19
f 381/49/19 326/49/74 382/49/19
f 382/49/19 326/49/74 383/49/19
f 370/49/19 383/49/19 326/49/74
f 383/49/19 370/49/19 384/49/19
f 384/49/19 370/49/19 371/49/19
f 385/49/19 371/49/19 380/49/19
f 384/49/19 371/49/19 386/49/19
f 387/49/19 371/49/19 385/49/19
f 386/49/19 371/49/19 387/49/19
f 388/56/30 389/57/82 390/57/30
f 389/57/82 388/56/30 391/56/82
f 392/56/83 393/57/30 394/57/83
f 393/57/30 392/56/83 395/56/30
f 322/57/39 392/56/83 394/57/83
f 392/56/83 322/57/39 396/56/39
f 397/56/40 389/57/82 391/56/82
f 389/57/82 397/56/40 360/57/40
f 398/58/81 399/59/81 400/58/81
f 399/59/81 398/58/81 401/59/81
f 401/59/81 398/58/81 356/59/81
f 401/59/81 356/59/81 402/59/81
f 403/58/60 404/60/60 405/60/60
f 404/60/60 403/58/60 406/58/60
f 406/58/60 403/58/60 407/58/60
f 408/61/78 367/62/78 364/62/78
f 367/62/78 408/61/78 409/61/78
f 410/59/80 411/58/80 412/59/80
f 411/58/80 410/59/80 413/58/80
f 413/58/80 410/59/80 317/59/80
f 317/59/80 410/59/80 414/59/80
f 415/63/19 416/63/19 417/63/19
f 416/63/19 415/63/19 418/63/19
f 418/63/19 415/63/19 419/63/19
f 418/63/19 419/63/19 420/63/19
f 420/63/19 419/63/19 421/63/19
f 420/63/19 421/63/19 422/63/19
f 422/63/19 421/63/19 423/63/19
f 422/63/19 423/63/19 424/63/19
f 424/63/19 423/63/19 425/63/19
f 424/63/19 425/63/19 426/63/19
f 427/64/76 428/65/84 429/65/76
f 428/65/84 427/64/76 430/64/85
f 431/64/86 359/65/40 432/64/40
f 359/65/40 431/64/86 433/65/87
f 431/64/86 434/65/76 433/65/87
f 434/65/76 431/64/86 435/64/76
f 428/65/84 436/64/39 311/65/39
f 436/64/39 428/65/84 430/64/85
