# Generated by GTAClone/tools/split_car_wheels.py from taxi.obj
# Kenney Car Kit (CC0 1.0); the split is a derivative work, also CC0.
mtllib colormap.mtl
v -0.650000 0.400939 -1.136711
v -0.516667 0.400000 -1.136835
v -0.650000 0.400000 -1.136835
v -0.516980 0.400939 -1.136711
v -0.650000 0.200000 -1.060000
v -0.650000 0.400000 -1.250000
v -0.650000 0.200000 -1.250000
v -0.650000 0.495000 -1.097750
v -0.650000 0.300000 -1.060000
v -0.650000 0.575772 -1.035772
v -0.650000 0.377646 -1.049778
v -0.650000 0.450000 -1.019808
v -0.650000 0.637750 -0.955000
v -0.650000 0.512132 -0.972132
v -0.650000 0.559808 -0.910000
v -0.650000 0.676711 -0.860939
v -0.650000 0.589778 -0.837646
v -0.650000 0.690000 -0.760000
v -0.650000 0.600000 -0.760000
v -0.650000 0.589778 -0.682354
v -0.650000 0.676711 -0.659061
v -0.650000 0.559808 -0.610000
v -0.650000 0.637750 -0.565000
v -0.650000 0.512132 -0.547868
v -0.650000 0.575772 -0.484228
v -0.650000 0.450000 -0.500192
v -0.650000 0.377646 -0.470222
v -0.650000 0.495000 -0.422250
v -0.650000 0.300000 -0.460000
v -0.650000 0.200000 -0.460000
v -0.650000 0.300000 -0.370000
v -0.650000 0.400939 -0.383289
v -0.650000 0.200000 0.460000
v -0.650000 0.300000 0.370000
v -0.650000 0.400939 0.383289
v -0.650000 0.495000 0.422250
v -0.650000 0.300000 0.460000
v -0.650000 0.575772 0.484228
v -0.650000 0.377646 0.470222
v -0.650000 0.450000 0.500192
v -0.650000 0.637750 0.565000
v -0.650000 0.512132 0.547868
v -0.650000 0.559808 0.610000
v -0.650000 0.676711 0.659061
v -0.650000 0.589778 0.682354
v -0.650000 0.690000 0.760000
v -0.650000 0.600000 0.760000
v -0.650000 0.589778 0.837646
v -0.650000 0.676711 0.860939
v -0.650000 0.559808 0.910000
v -0.650000 0.637750 0.955000
v -0.650000 0.512132 0.972132
v -0.650000 0.575772 1.035772
v -0.650000 0.450000 1.019808
v -0.650000 0.377646 1.049778
v -0.650000 0.495000 1.097750
v -0.650000 0.300000 1.060000
v -0.650000 0.200000 1.060000
v -0.650000 0.200000 1.200000
v -0.650000 0.400000 1.136835
v -0.650000 0.400939 1.136711
v -0.650000 0.400000 1.200000
v 0.650000 0.400000 1.136835
v 0.650000 0.495000 1.097750
v 0.650000 0.400939 1.136711
v 0.650000 0.200000 1.200000
v 0.650000 0.400000 1.200000
v 0.650000 0.200000 1.060000
v 0.650000 0.300000 1.060000
v 0.650000 0.377646 1.049778
v 0.650000 0.575772 1.035772
v 0.650000 0.450000 1.019808
v 0.650000 0.512132 0.972132
v 0.650000 0.637750 0.955000
v 0.650000 0.559808 0.910000
v 0.650000 0.676711 0.860939
v 0.650000 0.589778 0.837646
v 0.650000 0.600000 0.760000
v 0.650000 0.690000 0.760000
v 0.650000 0.589778 0.682354
v 0.650000 0.676711 0.659061
v 0.650000 0.559808 0.610000
v 0.650000 0.637750 0.565000
v 0.650000 0.512132 0.547868
v 0.650000 0.450000 0.500192
v 0.650000 0.575772 0.484228
v 0.650000 0.377646 0.470222
v 0.650000 0.300000 0.460000
v 0.650000 0.495000 0.422250
v 0.650000 0.200000 0.460000
v 0.650000 0.400939 0.383289
v 0.650000 0.300000 0.370000
v 0.650000 0.300000 -0.370000
v 0.650000 0.200000 -0.460000
v 0.650000 0.495000 -0.422250
v 0.650000 0.400939 -0.383289
v 0.650000 0.300000 -0.460000
v 0.650000 0.377646 -0.470222
v 0.650000 0.575772 -0.484228
v 0.650000 0.450000 -0.500192
v 0.650000 0.512132 -0.547868
v 0.650000 0.637750 -0.565000
v 0.650000 0.559808 -0.610000
v 0.650000 0.676711 -0.659061
v 0.650000 0.589778 -0.682354
v 0.650000 0.600000 -0.760000
v 0.650000 0.690000 -0.760000
v 0.650000 0.589778 -0.837646
v 0.650000 0.676711 -0.860939
v 0.650000 0.559808 -0.910000
v 0.650000 0.637750 -0.955000
v 0.650000 0.512132 -0.972132
v 0.650000 0.450000 -1.019808
v 0.650000 0.575772 -1.035772
v 0.650000 0.377646 -1.049778
v 0.650000 0.300000 -1.060000
v 0.650000 0.495000 -1.097750
v 0.650000 0.200000 -1.060000
v 0.650000 0.400939 -1.136711
v 0.650000 0.400000 -1.136835
v 0.650000 0.200000 -1.250000
v 0.650000 0.400000 -1.250000
v 0.550000 0.500000 1.250000
v 0.548333 0.495000 1.097750
v 0.550000 0.500000 1.093913
v 0.516980 0.400939 1.136711
v 0.516667 0.400000 1.136835
v 0.516667 0.400000 1.216667
v 0.550000 0.500000 -1.250000
v 0.516667 0.400000 -1.283333
v 0.550000 0.500000 -1.350000
v 0.516667 0.400000 -1.136835
v 0.516980 0.400939 -1.136711
v 0.548333 0.495000 -1.097750
v 0.550000 0.500000 -1.093913
v -0.550000 0.575772 1.035772
v -0.550000 0.637750 0.955000
v -0.550000 0.637750 -0.565000
v -0.550000 0.676711 -0.659061
v 0.550000 0.637750 0.565000
v 0.550000 0.676711 0.659061
v 0.550000 0.676711 -0.659061
v 0.550000 0.637750 -0.565000
v 0.550000 0.575772 -1.035772
v 0.550000 0.637750 -0.955000
v 0.516980 0.400939 0.383289
v 0.548333 0.495000 0.422250
v 0.550000 0.500000 -0.426087
v 0.548333 0.495000 -0.422250
v 0.550000 0.575772 -0.484228
v -0.550000 0.575772 -0.484228
v 0.550000 0.575772 0.484228
v 0.550000 0.690000 0.760000
v 0.550000 0.676711 0.860939
v 0.550000 0.637750 0.955000
v 0.550000 0.575772 1.035772
v -0.550000 0.690000 -0.760000
v 0.550000 0.690000 -0.760000
v -0.516980 0.400939 0.383289
v -0.548333 0.495000 0.422250
v 0.550000 0.676711 -0.860939
v -0.516667 0.400000 -1.283333
v -0.550000 0.500000 -1.250000
v -0.550000 0.500000 -1.350000
v -0.548333 0.495000 -1.097750
v -0.550000 0.500000 -1.093913
v -0.548333 0.495000 -0.422250
v -0.516980 0.400939 -0.383289
v -0.550000 0.500000 -0.300000
v -0.550000 0.500000 -0.426087
v -0.483333 0.300000 -0.370000
v -0.483333 0.300000 0.370000
v -0.550000 0.500000 0.300000
v -0.550000 0.500000 0.426087
v 0.550000 0.500000 -0.300000
v 0.516980 0.400939 -0.383289
v 0.483333 0.300000 -0.370000
v 0.483333 0.300000 0.370000
v 0.550000 0.500000 0.300000
v 0.550000 0.500000 0.426087
v -0.516980 0.400939 1.136711
v -0.548333 0.495000 1.097750
v -0.550000 0.637750 0.565000
v -0.550000 0.575772 0.484228
v -0.550000 0.676711 -0.860939
v -0.550000 0.575772 -1.035772
v -0.550000 0.690000 0.760000
v -0.550000 0.676711 0.659061
v -0.550000 0.676711 0.860939
v -0.550000 0.500000 1.093913
v -0.550000 0.637750 -0.955000
v -0.516667 0.400000 1.136835
v -0.550000 0.500000 1.250000
v -0.516667 0.400000 1.216667
v -0.620711 0.400000 -1.320711
v -0.550000 0.400000 -1.350000
v 0.550000 0.400000 -1.350000
v 0.620711 0.400000 -1.320711
v 0.275000 0.400000 1.216667
v 0.275000 0.500000 1.250000
v -0.275000 0.500000 1.250000
v -0.275000 0.400000 1.216667
v -0.550000 0.400000 1.300000
v -0.620711 0.200000 1.270711
v -0.550000 0.200000 1.300000
v -0.620711 0.400000 1.270711
v 0.620711 0.400000 1.270711
v 0.620711 0.200000 1.270711
v 0.550000 0.400000 1.300000
v 0.550000 0.200000 1.300000
v 0.620711 0.200000 -1.320711
v 0.550000 0.200000 -1.350000
v -0.620711 0.200000 -1.320711
v -0.550000 0.200000 -1.350000
v 0.400000 0.200000 -0.460000
v 0.400000 0.200000 0.460000
v 0.400000 0.200000 -1.060000
v -0.400000 0.200000 -1.060000
v -0.400000 0.200000 -0.460000
v -0.400000 0.200000 1.060000
v -0.400000 0.200000 0.460000
v 0.400000 0.200000 1.060000
v 0.125000 0.150000 1.300000
v 0.175000 0.200000 1.350000
v 0.125000 0.150000 1.350000
v 0.175000 0.200000 1.300000
v -0.125000 0.150000 1.300000
v -0.125000 0.150000 1.350000
v -0.175000 0.200000 1.300000
v -0.175000 0.200000 1.350000
v 0.175000 0.275000 1.350000
v 0.125000 0.325000 1.300000
v 0.125000 0.325000 1.350000
v 0.175000 0.275000 1.300000
v -0.175000 0.275000 1.300000
v -0.125000 0.325000 1.300000
v -0.125000 0.325000 1.350000
v -0.175000 0.275000 1.350000
v -0.125000 0.150000 -1.350000
v -0.175000 0.200000 -1.400000
v -0.125000 0.150000 -1.400000
v -0.175000 0.200000 -1.350000
v 0.125000 0.150000 -1.350000
v 0.125000 0.150000 -1.400000
v 0.175000 0.200000 -1.350000
v 0.175000 0.200000 -1.400000
v -0.175000 0.275000 -1.400000
v -0.125000 0.325000 -1.350000
v -0.125000 0.325000 -1.400000
v -0.175000 0.275000 -1.350000
v 0.175000 0.275000 -1.350000
v 0.125000 0.325000 -1.350000
v 0.125000 0.325000 -1.400000
v 0.175000 0.275000 -1.400000
v 0.400000 0.450000 -0.500192
v 0.400000 0.512132 -0.547868
v 0.400000 0.559808 -0.610000
v 0.400000 0.589778 -0.682354
v 0.400000 0.377646 -1.049778
v 0.400000 0.450000 -1.019808
v 0.400000 0.559808 0.910000
v 0.400000 0.589778 0.837646
v 0.400000 0.450000 1.019808
v 0.400000 0.512132 0.972132
v -0.400000 0.300000 -0.460000
v 0.400000 0.600000 -0.760000
v 0.400000 0.589778 -0.837646
v 0.400000 0.300000 0.460000
v 0.400000 0.300000 -1.060000
v 0.400000 0.559808 0.610000
v 0.400000 0.512132 0.547868
v 0.400000 0.559808 -0.910000
v 0.400000 0.512132 -0.972132
v 0.400000 0.600000 0.760000
v 0.400000 0.589778 0.682354
v 0.400000 0.377646 0.470222
v 0.400000 0.377646 -0.470222
v 0.400000 0.300000 -0.460000
v 0.400000 0.450000 0.500192
v 0.400000 0.300000 1.060000
v 0.400000 0.377646 1.049778
v -0.400000 0.300000 1.060000
v -0.400000 0.377646 1.049778
v -0.400000 0.300000 0.460000
v -0.400000 0.589778 0.682354
v -0.400000 0.600000 0.760000
v -0.400000 0.559808 0.610000
v -0.400000 0.450000 1.019808
v -0.400000 0.512132 0.972132
v -0.400000 0.377646 0.470222
v -0.400000 0.512132 0.547868
v -0.400000 0.450000 0.500192
v -0.400000 0.559808 0.910000
v -0.400000 0.589778 0.837646
v -0.400000 0.300000 -1.060000
v -0.400000 0.377646 -1.049778
v -0.400000 0.450000 -1.019808
v -0.400000 0.512132 -0.972132
v -0.400000 0.559808 -0.910000
v -0.400000 0.589778 -0.837646
v -0.400000 0.600000 -0.760000
v -0.400000 0.589778 -0.682354
v -0.400000 0.559808 -0.610000
v -0.400000 0.512132 -0.547868
v -0.400000 0.450000 -0.500192
v -0.400000 0.377646 -0.470222
v 0.275000 0.800000 1.250000
v 0.275000 0.800000 0.650000
v 0.275000 0.700000 1.250000
v -0.275000 0.700000 1.250000
v -0.275000 0.800000 0.650000
v -0.275000 0.800000 1.250000
v 0.750000 0.800000 0.522902
v 0.550000 0.700000 0.522902
v 0.750000 0.700000 0.522902
v 0.550000 0.800000 0.522902
v 0.550000 0.800000 0.422902
v 0.750000 0.800000 0.422902
v 0.750000 0.700000 0.422902
v 0.550000 0.700000 0.422902
v 0.275000 0.700000 -1.350000
v 0.550000 0.800000 -0.850000
v 0.550000 0.700000 -1.350000
v -0.550000 0.800000 -0.850000
v -0.275000 0.700000 -1.350000
v -0.550000 0.700000 -1.350000
v -0.750000 0.700000 0.522902
v -0.550000 0.700000 0.422902
v -0.550000 0.700000 0.522902
v -0.750000 0.700000 0.422902
v -0.448788 0.800000 0.650000
v -0.550000 0.800000 1.250000
v -0.550000 0.800000 0.650000
v -0.750000 0.800000 0.422902
v -0.550000 0.800000 0.522902
v -0.550000 0.800000 0.422902
v -0.750000 0.800000 0.522902
v 0.275000 0.600000 -1.350000
v -0.275000 0.600000 -1.350000
v 0.550000 0.600000 -1.350000
v -0.550000 0.600000 -1.350000
v 0.550000 0.800000 0.650000
v 0.550000 0.800000 1.250000
v 0.550000 0.650000 0.300000
v 0.550000 0.800000 -0.040229
v 0.550000 0.700000 1.250000
v 0.550000 0.650000 -0.300000
v -0.550000 0.650000 0.300000
v -0.550000 0.800000 -0.040229
v -0.550000 0.700000 1.250000
v -0.550000 0.650000 -0.300000
v 0.448788 0.800000 0.650000
v 0.460000 1.250000 0.290000
v 0.364405 1.221913 0.312470
v -0.364405 1.221913 0.312470
v -0.460000 1.250000 0.290000
v -0.460000 1.250000 -0.670000
v 0.450000 1.300000 -0.596148
v 0.460000 1.250000 -0.670000
v -0.450000 1.300000 -0.596148
v 0.450000 1.300000 0.185969
v -0.450000 1.300000 0.185969
v -0.469612 1.201942 -0.040229
v -0.469612 1.201942 0.201349
v 0.469612 1.201942 0.201349
v 0.469612 1.201942 -0.040229
v 0.100000 1.300000 -0.450000
v -0.100000 1.300000 -0.450000
v -0.100000 1.300000 0.050000
v 0.100000 1.300000 0.050000
v -0.429721 0.892848 -0.812861
v -0.366860 1.207152 -0.687139
v 0.366860 1.207152 -0.687139
v 0.429721 0.892848 -0.812861
v 0.050000 1.500000 0.050000
v -0.050000 1.500000 0.050000
v 0.050000 1.500000 -0.450000
v -0.050000 1.500000 -0.450000
v -0.550000 0.500000 0.300000
v -0.550000 0.650000 0.300000
v 0.550000 0.650000 0.300000
v 0.550000 0.500000 0.300000
v 0.550000 0.800000 1.250000
v 0.275000 0.800000 1.250000
v -0.275000 0.800000 1.250000
v -0.550000 0.800000 1.250000
v -0.469612 1.201942 -0.040229
v -0.550000 0.800000 -0.040229
v -0.469612 1.201942 0.201349
v 0.364405 1.221913 0.312470
v 0.275000 0.800000 0.650000
v 0.448788 0.800000 0.650000
v -0.275000 0.800000 0.650000
v -0.448788 0.800000 0.650000
v -0.364405 1.221913 0.312470
v 0.469612 1.201942 0.201349
v 0.550000 0.800000 -0.040229
v 0.469612 1.201942 -0.040229
vt 0.468750 0.312176
vt 0.468750 0.312037
vt 0.468750 0.282407
vt 0.468750 0.326111
vt 0.468750 0.297222
vt 0.468750 0.338077
vt 0.468750 0.308725
vt 0.468750 0.319444
vt 0.468750 0.347259
vt 0.468750 0.328649
vt 0.468750 0.335712
vt 0.468750 0.353031
vt 0.468750 0.340152
vt 0.468750 0.355000
vt 0.468750 0.341667
vt 0.468750 0.326852
vt 0.468750 0.275000
vt 0.468750 0.332143
vt 0.468750 0.417857
vt 0.468750 0.475000
vt 0.343750 0.319444
vt 0.343750 0.328649
vt 0.343750 0.335712
vt 0.343750 0.340152
vt 0.343750 0.308725
vt 0.343750 0.297222
vt 0.343750 0.282407
vt 0.343750 0.341667
vt 0.593750 0.621296
vt 0.593750 0.606482
vt 0.593750 0.591667
vt 0.593750 0.576852
vt 0.593750 0.597259
vt 0.593750 0.603031
vt 0.593750 0.588077
vt 0.593750 0.599074
vt 0.593750 0.605000
vt 0.593750 0.687963
vt 0.593750 0.683802
vt 0.593750 0.695370
vt 0.593750 0.680843
vt 0.593750 0.635051
vt 0.593750 0.681615
vt 0.843750 0.371296
vt 0.843750 0.356482
vt 0.843750 0.475000
vt 0.843750 0.445370
vt 0.843750 0.275000
vt 0.843750 0.332143
vt 0.843750 0.417857
vt 0.218750 0.225000
vt 0.218750 0.025000
vt 0.718750 0.475000
vt 0.718750 0.341667
vt 0.718750 0.275000
vt 0.343750 0.225000
vt 0.343750 0.025000
vt 0.093750 0.025000
vt 0.093750 0.215533
vt 0.093750 0.225000
vt 0.093750 0.218003
vt 0.093750 0.069013
vn 0.000000 0.258819 -0.965926
vn 0.000000 0.813241 -0.581927
vn 0.000000 0.751840 -0.659346
vn 0.000000 0.233891 -0.972263
vn -1.000000 0.000000 0.000000
vn 1.000000 0.000000 0.000000
vn 0.948683 -0.316228 0.000000
vn 0.000000 0.866025 0.500000
vn 0.000000 0.707107 0.707107
vn 0.000000 0.965926 0.258819
vn 0.000000 0.866025 -0.500000
vn 0.000000 0.965926 -0.258819
vn 0.000000 0.707107 -0.707107
vn 0.000000 0.500000 -0.866025
vn 0.000000 0.479903 -0.877321
vn 0.000000 0.500000 0.866025
vn 0.000000 0.608761 0.793353
vn 0.000000 0.479903 0.877321
vn 0.000000 1.000000 0.000000
vn -0.948683 -0.316228 0.000000
vn 0.000000 0.258819 0.965926
vn 0.000000 0.233891 0.972263
vn 0.000000 0.130526 -0.991445
vn 0.000000 0.608761 -0.793353
vn 0.000000 0.130526 0.991445
vn 0.000000 0.751840 0.659346
vn 0.000000 0.813241 0.581927
vn 0.000000 -0.554700 -0.832050
vn 0.000000 -0.316228 0.948683
vn -0.195090 0.000000 0.980785
vn -0.707107 0.000000 0.707107
vn 0.707107 0.000000 0.707107
vn 0.923879 0.000000 0.382683
vn 0.195090 0.000000 0.980785
vn -0.923879 0.000000 0.382683
vn 0.195090 0.000000 -0.980785
vn 0.707107 0.000000 -0.707107
vn -0.923879 0.000000 -0.382683
vn -0.707107 0.000000 -0.707107
vn 0.923879 0.000000 -0.382683
vn -0.195090 0.000000 -0.980785
vn 0.000000 -1.000000 0.000000
vn 0.382683 -0.923879 -0.000000
vn 0.923879 -0.382683 -0.000000
vn -0.382683 -0.923879 0.000000
vn -0.923879 -0.382683 0.000000
vn 0.923879 0.382683 -0.000000
vn 0.382683 0.923879 -0.000000
vn -0.000000 0.000000 -1.000000
vn -0.382683 0.923879 0.000000
vn -0.923879 0.382683 0.000000
vn -0.382683 -0.923879 0.000000
vn -0.923879 -0.382683 0.000000
vn 0.382683 -0.923879 0.000000
vn 0.923879 -0.382683 0.000000
vn -0.923879 0.382683 0.000000
vn -0.382683 0.923879 0.000000
vn 0.000000 0.000000 1.000000
vn 0.382683 0.923879 0.000000
vn 0.923879 0.382683 0.000000
vn 0.000000 -0.500000 -0.866025
vn 0.000000 -0.707107 -0.707107
vn 0.000000 -0.866025 -0.500000
vn 0.000000 -0.965926 -0.258819
vn 0.000000 -0.500000 0.866025
vn 0.000000 -0.258819 0.965926
vn 0.000000 -0.065403 -0.997859
vn 0.000000 0.000000 -1.000000
vn 0.000000 -0.965926 0.258819
vn 0.000000 -0.065403 0.997859
vn 0.000000 -0.866025 0.500000
vn 0.000000 -0.707107 0.707107
vn 0.000000 -0.258819 -0.965926
vn -0.104561 0.980987 0.163498
vn -0.666847 0.735055 0.122509
vn 0.666847 0.735055 0.122509
vn 0.104561 0.980987 0.163498
vn 0.707107 0.707107 0.000000
vn 0.000000 0.980581 -0.196116
vn 0.000000 0.789850 -0.613300
vn -0.707107 0.707107 0.000000
vn 0.000000 0.771775 0.635896
vn 0.000000 0.624695 0.780869
vn 0.000000 0.605113 -0.796139
vn 0.000000 0.952912 -0.303247
vn 0.000000 0.973641 0.228088
vn -0.980581 0.196116 0.000000
vn 0.980581 0.196116 0.000000
vn 0.000000 0.371391 -0.928477
vn 0.970143 0.242536 0.000000
vn -0.970143 0.242536 0.000000
vn 0.000000 0.000000 1.000000
vn 0.000000 -0.160182 0.987088
usemtl colormap
f 1/1/1 2/2/2 3/2/3
f 2/2/2 1/1/1 4/1/4
f 5/3/5 6/2/5 7/3/5
f 6/2/5 5/3/5 3/2/5
f 3/2/5 5/3/5 1/1/5
f 1/1/5 5/3/5 8/4/5
f 8/4/5 5/3/5 9/5/5
f 8/4/5 9/5/5 10/6/5
f 10/6/5 9/5/5 11/7/5
f 10/6/5 11/7/5 12/8/5
f 10/6/5 12/8/5 13/9/5
f 13/9/5 12/8/5 14/10/5
f 13/9/5 14/10/5 15/11/5
f 13/9/5 15/11/5 16/12/5
f 16/12/5 15/11/5 17/13/5
f 16/12/5 17/13/5 18/14/5
f 18/14/5 17/13/5 19/15/5
f 18/14/5 19/15/5 20/13/5
f 18/14/5 20/13/5 21/12/5
f 21/12/5 20/13/5 22/11/5
f 21/12/5 22/11/5 23/9/5
f 23/9/5 22/11/5 24/10/5
f 23/9/5 24/10/5 25/6/5
f 25/6/5 24/10/5 26/8/5
f 25/6/5 26/8/5 27/7/5
f 25/6/5 27/7/5 28/4/5
f 28/4/5 27/7/5 29/5/5
f 28/4/5 29/5/5 30/3/5
f 28/4/5 30/3/5 31/5/5
f 28/4/5 31/5/5 32/1/5
f 31/5/5 30/3/5 33/3/5
f 31/5/5 33/3/5 34/5/5
f 34/5/5 33/3/5 35/1/5
f 35/1/5 33/3/5 36/4/5
f 36/4/5 33/3/5 37/5/5
f 36/4/5 37/5/5 38/6/5
f 38/6/5 37/5/5 39/7/5
f 38/6/5 39/7/5 40/8/5
f 38/6/5 40/8/5 41/9/5
f 41/9/5 40/8/5 42/10/5
f 41/9/5 42/10/5 43/11/5
f 41/9/5 43/11/5 44/12/5
f 44/12/5 43/11/5 45/13/5
f 44/12/5 45/13/5 46/14/5
f 46/14/5 45/13/5 47/15/5
f 46/14/5 47/15/5 48/13/5
f 46/14/5 48/13/5 49/12/5
f 49/12/5 48/13/5 50/11/5
f 49/12/5 50/11/5 51/9/5
f 51/9/5 50/11/5 52/10/5
f 51/9/5 52/10/5 53/6/5
f 53/6/5 52/10/5 54/8/5
f 53/6/5 54/8/5 55/7/5
f 53/6/5 55/7/5 56/4/5
f 56/4/5 55/7/5 57/5/5
f 56/4/5 57/5/5 58/3/5
f 56/4/5 58/3/5 59/3/5
f 56/4/5 59/3/5 60/2/5
f 56/4/5 60/2/5 61/1/5
f 60/2/5 59/3/5 62/2/5
f 63/2/6 64/4/6 65/1/6
f 66/3/6 64/4/6 63/2/6
f 66/3/6 63/2/6 67/2/6
f 68/3/6 64/4/6 66/3/6
f 69/5/6 64/4/6 68/3/6
f 70/7/6 64/4/6 69/5/6
f 70/7/6 71/6/6 64/4/6
f 72/8/6 71/6/6 70/7/6
f 73/10/6 71/6/6 72/8/6
f 73/10/6 74/9/6 71/6/6
f 75/11/6 74/9/6 73/10/6
f 75/11/6 76/12/6 74/9/6
f 77/13/6 76/12/6 75/11/6
f 78/15/6 76/12/6 77/13/6
f 78/15/6 79/14/6 76/12/6
f 80/13/6 79/14/6 78/15/6
f 80/13/6 81/12/6 79/14/6
f 82/11/6 81/12/6 80/13/6
f 82/11/6 83/9/6 81/12/6
f 84/10/6 83/9/6 82/11/6
f 85/8/6 83/9/6 84/10/6
f 85/8/6 86/6/6 83/9/6
f 87/7/6 86/6/6 85/8/6
f 88/5/6 86/6/6 87/7/6
f 86/6/6 88/5/6 89/4/6
f 90/3/6 89/4/6 88/5/6
f 90/3/6 91/1/6 89/4/6
f 90/3/6 92/5/6 91/1/6
f 90/3/6 93/5/6 92/5/6
f 94/3/6 93/5/6 90/3/6
f 94/3/6 95/4/6 93/5/6
f 93/5/6 95/4/6 96/1/6
f 97/5/6 95/4/6 94/3/6
f 98/7/6 95/4/6 97/5/6
f 98/7/6 99/6/6 95/4/6
f 100/8/6 99/6/6 98/7/6
f 101/10/6 99/6/6 100/8/6
f 101/10/6 102/9/6 99/6/6
f 103/11/6 102/9/6 101/10/6
f 103/11/6 104/12/6 102/9/6
f 105/13/6 104/12/6 103/11/6
f 106/15/6 104/12/6 105/13/6
f 106/15/6 107/14/6 104/12/6
f 108/13/6 107/14/6 106/15/6
f 108/13/6 109/12/6 107/14/6
f 110/11/6 109/12/6 108/13/6
f 110/11/6 111/9/6 109/12/6
f 112/10/6 111/9/6 110/11/6
f 113/8/6 111/9/6 112/10/6
f 113/8/6 114/6/6 111/9/6
f 115/7/6 114/6/6 113/8/6
f 116/5/6 114/6/6 115/7/6
f 114/6/6 116/5/6 117/4/6
f 118/3/6 117/4/6 116/5/6
f 118/3/6 119/1/6 117/4/6
f 118/3/6 120/2/6 119/1/6
f 121/3/6 120/2/6 118/3/6
f 120/2/6 121/3/6 122/2/6
f 123/16/7 124/4/7 125/16/7
f 124/4/7 123/16/7 126/1/7
f 126/1/7 123/16/7 127/2/7
f 127/2/7 123/16/7 128/2/7
f 129/16/7 130/2/7 131/16/7
f 130/2/7 129/16/7 132/2/7
f 132/2/7 129/16/7 133/1/7
f 133/1/7 129/16/7 134/4/7
f 134/4/7 129/16/7 135/16/7
f 51/9/8 136/6/9 137/9/8
f 136/6/9 51/9/8 53/6/9
f 21/12/10 138/9/8 139/12/10
f 138/9/8 21/12/10 23/9/8
f 140/9/11 81/12/12 83/9/11
f 81/12/12 140/9/11 141/12/12
f 142/12/10 102/9/8 104/12/10
f 102/9/8 142/12/10 143/9/8
f 144/6/13 111/9/11 114/6/13
f 111/9/11 144/6/13 145/9/11
f 146/1/4 89/4/14 91/1/1
f 89/4/14 146/1/4 147/4/15
f 95/4/16 148/16/17 149/4/18
f 148/16/17 95/4/16 99/6/9
f 148/16/17 99/6/9 150/6/9
f 23/9/8 151/6/9 138/9/8
f 151/6/9 23/9/8 25/6/9
f 152/6/13 83/9/11 86/6/13
f 83/9/11 152/6/13 140/9/11
f 143/9/8 99/6/9 102/9/8
f 99/6/9 143/9/8 150/6/9
f 141/12/12 79/14/19 81/12/12
f 79/14/19 141/12/12 153/14/19
f 153/14/19 76/12/10 79/14/19
f 76/12/10 153/14/19 154/12/10
f 155/9/8 71/6/9 74/9/8
f 71/6/9 155/9/8 156/6/9
f 18/14/19 139/12/10 157/14/19
f 139/12/10 18/14/19 21/12/10
f 158/14/19 104/12/10 107/14/19
f 104/12/10 158/14/19 142/12/10
f 36/4/14 159/1/4 35/1/1
f 159/1/4 36/4/14 160/4/15
f 145/9/11 109/12/12 111/9/11
f 109/12/12 145/9/11 161/12/12
f 162/2/20 163/16/20 164/16/20
f 163/16/20 162/2/20 2/2/20
f 163/16/20 2/2/20 4/1/20
f 163/16/20 4/1/20 165/4/20
f 163/16/20 165/4/20 166/16/20
f 167/4/18 32/1/21 168/1/22
f 32/1/21 167/4/18 28/4/16
f 167/4/20 169/16/20 170/16/20
f 169/16/20 167/4/20 168/1/20
f 169/16/20 168/1/20 171/5/20
f 169/16/20 171/5/20 172/5/20
f 169/16/20 172/5/20 173/16/20
f 173/16/20 172/5/20 159/1/20
f 173/16/20 159/1/20 160/4/20
f 173/16/20 160/4/20 174/16/20
f 64/4/16 126/1/22 65/1/21
f 126/1/22 64/4/16 124/4/18
f 175/16/7 149/4/7 148/16/7
f 149/4/7 175/16/7 176/1/7
f 176/1/7 175/16/7 177/5/7
f 177/5/7 175/16/7 178/5/7
f 178/5/7 175/16/7 179/16/7
f 178/5/7 179/16/7 146/1/7
f 146/1/7 179/16/7 147/4/7
f 147/4/7 179/16/7 180/16/7
f 181/1/22 56/4/16 61/1/21
f 56/4/16 181/1/22 182/4/18
f 38/6/13 183/9/11 184/6/13
f 183/9/11 38/6/13 41/9/11
f 16/12/12 157/14/19 185/12/12
f 157/14/19 16/12/12 18/14/19
f 8/4/14 4/1/4 1/1/1
f 4/1/4 8/4/14 165/4/15
f 35/1/1 172/5/23 34/5/23
f 172/5/23 35/1/1 159/1/4
f 96/1/21 149/4/18 176/1/22
f 149/4/18 96/1/21 95/4/16
f 10/6/13 165/4/15 8/4/14
f 165/4/15 10/6/13 166/16/24
f 166/16/24 10/6/13 186/6/13
f 93/5/25 176/1/22 177/5/25
f 176/1/22 93/5/25 96/1/21
f 44/12/12 187/14/19 188/12/12
f 187/14/19 44/12/12 46/14/19
f 64/4/16 125/16/17 124/4/18
f 125/16/17 64/4/16 71/6/9
f 125/16/17 71/6/9 156/6/9
f 180/16/24 89/4/14 147/4/15
f 89/4/14 180/16/24 86/6/13
f 86/6/13 180/16/24 152/6/13
f 146/1/4 92/5/23 178/5/23
f 92/5/23 146/1/4 91/1/1
f 49/12/10 137/9/8 189/12/10
f 137/9/8 49/12/10 51/9/8
f 170/16/17 28/4/16 167/4/18
f 28/4/16 170/16/17 25/6/9
f 25/6/9 170/16/17 151/6/9
f 190/16/17 56/4/16 182/4/18
f 56/4/16 190/16/17 53/6/9
f 53/6/9 190/16/17 136/6/9
f 161/12/12 107/14/19 109/12/12
f 107/14/19 161/12/12 158/14/19
f 46/14/19 189/12/10 187/14/19
f 189/12/10 46/14/19 49/12/10
f 133/1/4 120/2/3 132/2/2
f 120/2/3 133/1/4 119/1/1
f 171/5/19 34/5/19 172/5/19
f 34/5/19 171/5/19 31/5/19
f 13/9/11 185/12/12 191/9/11
f 185/12/12 13/9/11 16/12/12
f 133/1/4 117/4/14 119/1/1
f 117/4/14 133/1/4 134/4/15
f 168/1/22 31/5/25 171/5/25
f 31/5/25 168/1/22 32/1/21
f 36/4/14 174/16/24 160/4/15
f 174/16/24 36/4/14 38/6/13
f 174/16/24 38/6/13 184/6/13
f 41/9/11 188/12/12 183/9/11
f 188/12/12 41/9/11 44/12/12
f 134/4/15 114/6/13 117/4/14
f 114/6/13 134/4/15 135/16/24
f 114/6/13 135/16/24 144/6/13
f 177/5/19 92/5/19 93/5/19
f 92/5/19 177/5/19 178/5/19
f 154/12/10 74/9/8 76/12/10
f 74/9/8 154/12/10 155/9/8
f 181/1/22 60/2/26 192/2/27
f 60/2/26 181/1/22 61/1/21
f 10/6/13 191/9/11 186/6/13
f 191/9/11 10/6/13 13/9/11
f 182/4/20 193/16/20 190/16/20
f 193/16/20 182/4/20 181/1/20
f 193/16/20 181/1/20 192/2/20
f 193/16/20 192/2/20 194/2/20
f 65/1/21 127/2/27 63/2/26
f 127/2/27 65/1/21 126/1/22
f 3/2/3 195/2/19 6/2/19
f 3/2/3 196/2/19 195/2/19
f 2/2/2 196/2/19 3/2/3
f 162/2/19 196/2/19 2/2/2
f 130/2/19 196/2/19 162/2/19
f 196/2/19 130/2/19 197/2/19
f 132/2/2 197/2/19 130/2/19
f 132/2/2 198/2/19 197/2/19
f 120/2/3 198/2/19 132/2/2
f 198/2/19 120/2/3 122/2/19
f 164/16/28 130/2/28 162/2/28
f 130/2/28 164/16/28 131/16/28
f 123/16/29 199/2/29 128/2/29
f 199/2/29 123/16/29 200/16/29
f 201/16/29 194/2/29 202/2/29
f 194/2/29 201/16/29 193/16/29
f 203/2/30 204/3/31 205/3/30
f 204/3/31 203/2/30 206/2/31
f 207/2/32 66/3/33 67/2/33
f 66/3/33 207/2/32 208/3/32
f 209/2/34 205/3/30 210/3/34
f 205/3/30 209/2/34 203/2/30
f 207/2/32 210/3/34 208/3/32
f 210/3/34 207/2/32 209/2/34
f 204/3/31 62/2/35 59/3/35
f 62/2/35 204/3/31 206/2/31
f 60/2/26 194/2/19 192/2/27
f 194/2/19 60/2/26 203/2/19
f 203/2/19 202/2/19 194/2/19
f 203/2/19 199/2/19 202/2/19
f 203/2/19 128/2/19 199/2/19
f 203/2/19 60/2/26 206/2/19
f 206/2/19 60/2/26 62/2/19
f 209/2/19 128/2/19 203/2/19
f 209/2/19 127/2/27 128/2/19
f 207/2/19 127/2/27 209/2/19
f 67/2/19 127/2/27 207/2/19
f 127/2/27 67/2/19 63/2/26
f 197/2/36 211/3/37 212/3/36
f 211/3/37 197/2/36 198/2/37
f 7/3/38 195/2/39 213/3/39
f 195/2/39 7/3/38 6/2/38
f 122/2/40 211/3/37 198/2/37
f 211/3/37 122/2/40 121/3/40
f 196/2/41 212/3/36 214/3/41
f 212/3/36 196/2/41 197/2/36
f 195/2/39 214/3/41 213/3/39
f 214/3/41 195/2/39 196/2/41
f 90/3/42 215/3/42 94/3/42
f 215/3/42 90/3/42 216/3/42
f 215/3/42 216/3/42 217/3/42
f 214/3/42 217/3/42 216/3/42
f 212/3/42 217/3/42 214/3/42
f 211/3/42 217/3/42 212/3/42
f 121/3/42 217/3/42 211/3/42
f 217/3/42 121/3/42 118/3/42
f 214/3/42 216/3/42 218/3/42
f 214/3/42 218/3/42 5/3/42
f 214/3/42 5/3/42 213/3/42
f 213/3/42 5/3/42 7/3/42
f 218/3/42 216/3/42 219/3/42
f 216/3/42 220/3/42 219/3/42
f 221/3/42 219/3/42 220/3/42
f 219/3/42 221/3/42 30/3/42
f 30/3/42 221/3/42 33/3/42
f 216/3/42 205/3/42 220/3/42
f 220/3/42 205/3/42 58/3/42
f 222/3/42 205/3/42 216/3/42
f 58/3/42 205/3/42 204/3/42
f 58/3/42 204/3/42 59/3/42
f 222/3/42 210/3/42 205/3/42
f 222/3/42 208/3/42 210/3/42
f 222/3/42 66/3/42 208/3/42
f 66/3/42 222/3/42 68/3/42
f 223/17/43 224/18/44 225/17/43
f 224/18/44 223/17/43 226/18/44
f 227/17/45 225/17/43 228/17/45
f 225/17/43 227/17/45 223/17/43
f 229/18/46 228/17/45 230/18/46
f 228/17/45 229/18/46 227/17/45
f 231/19/47 232/20/48 233/20/48
f 232/20/48 231/19/47 234/19/47
f 226/18/44 231/19/47 224/18/44
f 231/19/47 226/18/44 234/19/47
f 229/18/49 223/17/49 227/17/49
f 223/17/49 229/18/49 226/18/49
f 226/18/49 229/18/49 235/19/49
f 226/18/49 235/19/49 234/19/49
f 234/19/49 235/19/49 236/20/49
f 234/19/49 236/20/49 232/20/49
f 233/20/48 236/20/50 237/20/50
f 236/20/50 233/20/48 232/20/48
f 235/19/51 230/18/46 238/19/51
f 230/18/46 235/19/51 229/18/46
f 237/20/50 235/19/51 238/19/51
f 235/19/51 237/20/50 236/20/50
f 239/17/52 240/18/53 241/17/52
f 240/18/53 239/17/52 242/18/53
f 243/17/54 241/17/52 244/17/54
f 241/17/52 243/17/54 239/17/52
f 245/18/55 244/17/54 246/18/55
f 244/17/54 245/18/55 243/17/54
f 247/19/56 248/20/57 249/20/57
f 248/20/57 247/19/56 250/19/56
f 242/18/53 247/19/56 240/18/53
f 247/19/56 242/18/53 250/19/56
f 245/18/58 239/17/58 243/17/58
f 239/17/58 245/18/58 242/18/58
f 242/18/58 245/18/58 251/19/58
f 242/18/58 251/19/58 250/19/58
f 250/19/58 251/19/58 252/20/58
f 250/19/58 252/20/58 248/20/58
f 249/20/57 252/20/59 253/20/59
f 252/20/59 249/20/57 248/20/57
f 251/19/60 246/18/55 254/19/60
f 246/18/55 251/19/60 245/18/55
f 253/20/59 251/19/60 254/19/60
f 251/19/60 253/20/59 252/20/59
f 255/21/61 101/22/62 100/21/61
f 101/22/62 255/21/61 256/22/62
f 257/23/63 105/24/64 103/23/63
f 105/24/64 257/23/63 258/24/64
f 113/21/65 259/25/66 115/25/66
f 259/25/66 113/21/65 260/21/65
f 261/23/63 77/24/64 75/23/63
f 77/24/64 261/23/63 262/24/64
f 263/21/61 73/22/62 72/21/61
f 73/22/62 263/21/61 264/22/62
f 29/26/67 219/27/68 30/27/68
f 219/27/68 29/26/67 265/26/67
f 266/28/42 108/24/69 106/28/42
f 108/24/69 266/28/42 267/24/69
f 88/26/70 216/27/58 90/27/58
f 216/27/58 88/26/70 268/26/70
f 116/26/70 217/27/58 118/27/58
f 217/27/58 116/26/70 269/26/70
f 264/22/62 75/23/63 73/22/62
f 75/23/63 264/22/62 261/23/63
f 270/23/71 84/22/72 82/23/71
f 84/22/72 270/23/71 271/22/72
f 272/23/71 112/22/72 110/23/71
f 112/22/72 272/23/71 273/22/72
f 262/24/64 78/28/42 77/24/64
f 78/28/42 262/24/64 274/28/42
f 275/24/69 82/23/71 80/24/69
f 82/23/71 275/24/69 270/23/71
f 112/22/72 260/21/65 113/21/65
f 260/21/65 112/22/72 273/22/72
f 256/22/62 103/23/63 101/22/62
f 103/23/63 256/22/62 257/23/63
f 87/25/66 268/26/70 88/26/70
f 268/26/70 87/25/66 276/25/66
f 277/25/73 100/21/61 98/25/73
f 100/21/61 277/25/73 255/21/61
f 278/26/67 98/25/73 97/26/67
f 98/25/73 278/26/67 277/25/73
f 115/25/66 269/26/70 116/26/70
f 269/26/70 115/25/66 259/25/66
f 267/24/69 110/23/71 108/24/69
f 110/23/71 267/24/69 272/23/71
f 85/21/65 276/25/66 87/25/66
f 276/25/66 85/21/65 279/21/65
f 280/26/67 70/25/73 69/26/67
f 70/25/73 280/26/67 281/25/73
f 84/22/72 279/21/65 85/21/65
f 279/21/65 84/22/72 271/22/72
f 281/25/73 72/21/61 70/25/73
f 72/21/61 281/25/73 263/21/61
f 258/24/64 106/28/42 105/24/64
f 106/28/42 258/24/64 266/28/42
f 57/26/67 220/27/68 58/27/68
f 220/27/68 57/26/67 282/26/67
f 274/28/42 80/24/69 78/28/42
f 80/24/69 274/28/42 275/24/69
f 55/25/73 282/26/67 57/26/67
f 282/26/67 55/25/73 283/25/73
f 284/26/70 33/27/58 221/27/58
f 33/27/58 284/26/70 37/26/70
f 47/28/42 285/24/69 286/28/42
f 285/24/69 47/28/42 45/24/69
f 45/24/69 287/23/71 285/24/69
f 287/23/71 45/24/69 43/23/71
f 52/22/62 288/21/61 54/21/61
f 288/21/61 52/22/62 289/22/62
f 290/25/66 37/26/70 284/26/70
f 37/26/70 290/25/66 39/25/66
f 291/22/72 40/21/65 292/21/65
f 40/21/65 291/22/72 42/22/72
f 292/21/65 39/25/66 290/25/66
f 39/25/66 292/21/65 40/21/65
f 43/23/71 291/22/72 287/23/71
f 291/22/72 43/23/71 42/22/72
f 52/22/62 293/23/63 289/22/62
f 293/23/63 52/22/62 50/23/63
f 48/24/64 286/28/42 294/24/64
f 286/28/42 48/24/64 47/28/42
f 54/21/61 283/25/73 55/25/73
f 283/25/73 54/21/61 288/21/61
f 50/23/63 294/24/64 293/23/63
f 294/24/64 50/23/63 48/24/64
f 220/27/5 284/26/5 221/27/5
f 284/26/5 220/27/5 290/25/5
f 290/25/5 220/27/5 292/21/5
f 292/21/5 220/27/5 291/22/5
f 291/22/5 220/27/5 287/23/5
f 287/23/5 220/27/5 285/24/5
f 285/24/5 220/27/5 286/28/5
f 286/28/5 220/27/5 294/24/5
f 294/24/5 220/27/5 293/23/5
f 293/23/5 220/27/5 289/22/5
f 289/22/5 220/27/5 288/21/5
f 288/21/5 220/27/5 283/25/5
f 283/25/5 220/27/5 282/26/5
f 276/25/6 216/27/6 268/26/6
f 216/27/6 276/25/6 222/27/6
f 222/27/6 276/25/6 279/21/6
f 222/27/6 279/21/6 271/22/6
f 222/27/6 271/22/6 270/23/6
f 222/27/6 270/23/6 275/24/6
f 222/27/6 275/24/6 274/28/6
f 222/27/6 274/28/6 262/24/6
f 222/27/6 262/24/6 261/23/6
f 222/27/6 261/23/6 264/22/6
f 222/27/6 264/22/6 263/21/6
f 222/27/6 263/21/6 281/25/6
f 222/27/6 281/25/6 280/26/6
f 280/26/67 68/27/68 222/27/68
f 68/27/68 280/26/67 69/26/67
f 259/25/6 217/27/6 269/26/6
f 217/27/6 259/25/6 215/27/6
f 215/27/6 259/25/6 260/21/6
f 215/27/6 260/21/6 273/22/6
f 215/27/6 273/22/6 272/23/6
f 215/27/6 272/23/6 267/24/6
f 215/27/6 267/24/6 266/28/6
f 215/27/6 266/28/6 258/24/6
f 215/27/6 258/24/6 257/23/6
f 215/27/6 257/23/6 256/22/6
f 215/27/6 256/22/6 255/21/6
f 215/27/6 255/21/6 277/25/6
f 215/27/6 277/25/6 278/26/6
f 219/27/5 295/26/5 218/27/5
f 295/26/5 219/27/5 296/25/5
f 296/25/5 219/27/5 297/21/5
f 297/21/5 219/27/5 298/22/5
f 298/22/5 219/27/5 299/23/5
f 299/23/5 219/27/5 300/24/5
f 300/24/5 219/27/5 301/28/5
f 301/28/5 219/27/5 302/24/5
f 302/24/5 219/27/5 303/23/5
f 303/23/5 219/27/5 304/22/5
f 304/22/5 219/27/5 305/21/5
f 305/21/5 219/27/5 306/25/5
f 306/25/5 219/27/5 265/26/5
f 278/26/67 94/27/68 215/27/68
f 94/27/68 278/26/67 97/26/67
f 27/25/73 265/26/67 29/26/67
f 265/26/67 27/25/73 306/25/73
f 295/26/70 5/27/58 218/27/58
f 5/27/58 295/26/70 9/26/70
f 19/28/42 300/24/69 301/28/42
f 300/24/69 19/28/42 17/24/69
f 17/24/69 299/23/71 300/24/69
f 299/23/71 17/24/69 15/23/71
f 26/21/61 304/22/62 305/21/61
f 304/22/62 26/21/61 24/22/62
f 296/25/66 9/26/70 295/26/70
f 9/26/70 296/25/66 11/25/66
f 298/22/72 12/21/65 297/21/65
f 12/21/65 298/22/72 14/22/72
f 297/21/65 11/25/66 296/25/66
f 11/25/66 297/21/65 12/21/65
f 24/22/62 303/23/63 304/22/62
f 303/23/63 24/22/62 22/23/63
f 20/24/64 301/28/42 302/24/64
f 301/28/42 20/24/64 19/28/42
f 15/23/71 298/22/72 299/23/71
f 298/22/72 15/23/71 14/22/72
f 26/21/61 306/25/73 27/25/73
f 306/25/73 26/21/61 305/21/61
f 22/23/63 302/24/64 303/23/63
f 302/24/64 22/23/63 20/24/64
f 307/29/5 308/29/74 309/30/75
f 310/30/76 311/29/77 312/29/6
f 313/29/58 314/30/58 315/30/58
f 314/30/58 313/29/58 316/29/58
f 317/29/19 313/29/78 318/29/78
f 313/29/78 317/29/19 316/29/19
f 314/30/42 319/30/42 315/30/42
f 319/30/42 314/30/42 320/30/42
f 321/30/79 322/29/80 323/30/79
f 322/29/80 321/30/79 324/29/80
f 324/29/80 321/30/79 325/30/79
f 324/29/80 325/30/79 326/30/79
f 327/30/42 328/30/42 329/30/42
f 328/30/42 327/30/42 330/30/42
f 331/29/19 312/29/19 311/29/19
f 312/29/19 331/29/19 332/29/19
f 332/29/19 331/29/19 333/29/19
f 334/29/81 335/29/19 336/29/19
f 335/29/19 334/29/81 337/29/81
f 338/31/68 325/30/68 321/30/68
f 325/30/68 338/31/68 339/31/68
f 340/31/68 339/31/68 338/31/68
f 340/31/68 341/31/68 339/31/68
f 131/32/68 341/31/68 340/31/68
f 341/31/68 131/32/68 164/32/68
f 335/29/58 327/30/58 329/30/58
f 327/30/58 335/29/58 337/29/58
f 327/30/5 334/29/81 330/30/5
f 334/29/81 327/30/5 337/29/81
f 342/29/6 314/30/6 316/29/6
f 314/30/6 342/29/6 140/33/6
f 140/33/6 342/29/6 141/34/6
f 141/34/6 342/29/6 343/29/6
f 152/35/6 314/30/6 140/33/6
f 180/32/6 314/30/6 152/35/6
f 180/32/6 320/30/6 314/30/6
f 179/32/6 320/30/6 180/32/6
f 179/32/6 317/29/6 320/30/6
f 344/36/6 317/29/6 179/32/6
f 141/34/6 343/29/6 153/37/6
f 344/36/6 345/29/6 317/29/6
f 153/37/6 343/29/6 154/34/6
f 154/34/6 343/29/6 155/33/6
f 155/33/6 343/29/6 156/35/6
f 156/35/6 343/29/6 125/32/6
f 125/32/6 343/29/6 123/32/6
f 123/32/6 343/29/6 346/30/6
f 347/36/6 345/29/6 344/36/6
f 150/35/6 345/29/6 347/36/6
f 150/35/6 347/36/6 148/32/6
f 175/32/6 148/32/6 347/36/6
f 143/33/6 345/29/6 150/35/6
f 142/34/6 345/29/6 143/33/6
f 158/37/6 345/29/6 142/34/6
f 158/37/6 322/29/6 345/29/6
f 161/34/6 322/29/6 158/37/6
f 145/33/6 322/29/6 161/34/6
f 144/35/6 322/29/6 145/33/6
f 129/32/6 322/29/6 144/35/6
f 129/32/6 144/35/6 135/32/6
f 131/32/6 322/29/6 129/32/6
f 340/31/6 322/29/6 131/32/6
f 322/29/6 340/31/6 323/30/6
f 313/29/78 319/30/6 318/29/78
f 319/30/6 313/29/78 315/30/6
f 174/32/5 348/36/5 173/32/5
f 348/36/5 174/32/5 328/30/5
f 336/29/5 348/36/5 328/30/5
f 328/30/5 174/32/5 329/30/5
f 329/30/5 174/32/5 184/35/5
f 349/29/5 348/36/5 336/29/5
f 329/30/5 184/35/5 183/33/5
f 329/30/5 183/33/5 335/29/5
f 335/29/5 183/33/5 333/29/5
f 333/29/5 183/33/5 188/34/5
f 333/29/5 188/34/5 332/29/5
f 332/29/5 188/34/5 187/37/5
f 332/29/5 187/37/5 189/34/5
f 332/29/5 189/34/5 137/33/5
f 332/29/5 137/33/5 136/35/5
f 332/29/5 136/35/5 190/32/5
f 332/29/5 190/32/5 193/32/5
f 332/29/5 193/32/5 350/30/5
f 349/29/5 351/36/5 348/36/5
f 349/29/5 151/35/5 351/36/5
f 351/36/5 151/35/5 170/32/5
f 351/36/5 170/32/5 169/32/5
f 349/29/5 138/33/5 151/35/5
f 349/29/5 139/34/5 138/33/5
f 349/29/5 157/37/5 139/34/5
f 324/29/5 157/37/5 349/29/5
f 324/29/5 185/34/5 157/37/5
f 324/29/5 191/33/5 185/34/5
f 324/29/5 186/35/5 191/33/5
f 324/29/5 163/32/5 186/35/5
f 186/35/5 163/32/5 166/32/5
f 326/30/5 163/32/5 324/29/5
f 341/31/5 163/32/5 326/30/5
f 163/32/5 341/31/5 164/32/5
f 352/29/19 343/29/19 342/29/19
f 343/29/19 352/29/19 307/29/19
f 307/29/19 352/29/19 308/29/19
f 346/30/58 200/32/58 123/32/58
f 200/32/58 346/30/58 309/30/58
f 311/29/77 309/30/75 308/29/74
f 309/30/75 311/29/77 310/30/76
f 353/38/82 352/29/83 342/29/83
f 352/29/83 353/38/82 354/39/83
f 354/39/83 353/38/82 355/39/83
f 356/38/82 355/39/83 353/38/82
f 333/29/83 355/39/83 356/38/82
f 355/39/83 333/29/83 331/29/83
f 310/30/58 193/32/58 201/32/58
f 193/32/58 310/30/58 350/30/58
f 357/38/84 358/40/85 359/38/84
f 358/40/85 357/38/84 360/40/85
f 361/40/86 356/38/82 353/38/82
f 356/38/82 361/40/86 362/40/86
f 349/29/87 357/38/87 324/29/87
f 357/38/87 349/29/87 360/40/87
f 360/40/87 349/29/87 363/41/87
f 360/40/87 363/41/87 362/40/87
f 362/40/87 363/41/87 364/41/87
f 362/40/87 364/41/87 356/38/87
f 356/38/87 364/41/87 335/29/87
f 356/38/87 335/29/87 333/29/87
f 316/29/88 353/38/88 342/29/88
f 365/41/88 353/38/88 316/29/88
f 365/41/88 361/40/88 353/38/88
f 366/41/88 361/40/88 365/41/88
f 361/40/88 366/41/88 358/40/88
f 345/29/88 358/40/88 366/41/88
f 345/29/88 359/38/88 358/40/88
f 359/38/88 345/29/88 322/29/88
f 367/40/19 360/40/85 368/40/19
f 368/40/19 360/40/85 369/40/19
f 367/40/19 358/40/85 360/40/85
f 369/40/19 360/40/85 362/40/86
f 358/40/85 367/40/19 361/40/86
f 362/40/86 370/40/19 369/40/19
f 361/40/86 370/40/19 362/40/86
f 370/40/19 361/40/86 367/40/19
f 371/42/89 357/38/84 372/43/89
f 372/43/89 357/38/84 373/43/89
f 371/42/89 324/29/80 357/38/84
f 359/38/84 373/43/89 357/38/84
f 324/29/80 371/42/89 322/29/80
f 359/38/84 374/42/89 373/43/89
f 322/29/80 374/42/89 359/38/84
f 374/42/89 322/29/80 371/42/89
f 317/44/68 319/45/68 320/45/68
f 319/45/68 317/44/68 318/44/68
f 334/44/68 328/45/68 330/45/68
f 328/45/68 334/44/68 336/44/68
f 375/46/58 369/47/58 370/47/58
f 369/47/58 375/46/58 376/46/58
f 375/46/90 367/47/90 377/46/90
f 367/47/90 375/46/90 370/47/90
f 378/46/68 367/47/68 368/47/68
f 367/47/68 378/46/68 377/46/68
f 378/46/19 375/46/19 377/46/19
f 375/46/19 378/46/19 376/46/19
f 369/47/91 378/46/91 368/47/91
f 378/46/91 369/47/91 376/46/91
f 379/48/5 351/46/5 169/48/5
f 351/46/5 379/48/5 380/46/5
f 381/46/6 175/48/6 347/46/6
f 175/48/6 381/46/6 382/48/6
f 224/49/92 228/48/92 225/48/92
f 228/48/92 224/49/92 230/49/92
f 230/49/92 224/49/92 231/50/92
f 230/49/92 231/50/92 238/50/92
f 238/50/92 231/50/92 233/46/92
f 238/50/92 233/46/92 237/46/92
f 240/49/68 244/48/68 241/48/68
f 244/48/68 240/49/68 246/49/68
f 246/49/68 240/49/68 247/50/68
f 246/49/68 247/50/68 254/50/68
f 254/50/68 247/50/68 249/46/68
f 254/50/68 249/46/68 253/46/68
f 383/51/58 309/52/58 346/52/58
f 309/52/58 383/51/58 384/51/58
f 385/51/58 350/52/58 310/52/58
f 350/52/58 385/51/58 386/51/58
f 309/53/58 201/54/93 200/54/93
f 201/54/93 309/53/58 310/53/58
f 200/54/93 202/55/29 199/55/29
f 202/55/29 200/54/93 201/54/93
f 326/56/68 339/57/68 341/57/68
f 339/57/68 326/56/68 325/56/68
f 321/56/68 340/57/68 338/57/68
f 340/57/68 321/56/68 323/56/68
f 336/58/87 387/59/87 388/58/87
f 387/59/87 336/58/87 389/59/87
f 389/59/87 336/58/87 335/58/87
f 390/60/83 391/58/83 392/58/83
f 391/58/83 390/60/83 393/58/83
f 393/58/83 390/60/83 394/58/83
f 394/58/83 390/60/83 395/60/83
f 372/61/89 374/62/89 371/62/89
f 374/62/89 372/61/89 373/61/89
f 396/59/88 397/58/88 398/59/88
f 397/58/88 396/59/88 317/58/88
f 317/58/88 396/59/88 316/58/88
