# Generated by GTAClone/tools/split_car_wheels.py from tractor.obj
# Kenney Car Kit (CC0 1.0); the split is a derivative work, also CC0.
mtllib colormap.mtl
v -0.265263 0.471053 -0.647750
v 0.265263 0.471053 1.013776
v 0.265263 0.471053 -0.647750
v -0.265263 0.471053 1.013776
v -0.265263 0.210053 0.926776
v 0.265263 0.210053 -0.647750
v 0.265263 0.210053 0.926776
v -0.265263 0.210053 -0.647750
v -0.108750 0.231803 -0.647750
v -0.152250 0.275303 -0.691250
v -0.108750 0.231803 -0.691250
v -0.152250 0.275303 -0.647750
v 0.108750 0.231803 -0.647750
v 0.108750 0.231803 -0.691250
v 0.152250 0.275303 -0.647750
v 0.152250 0.275303 -0.691250
v -0.152250 0.340553 -0.691250
v -0.108750 0.384053 -0.647750
v -0.108750 0.384053 -0.691250
v -0.152250 0.340553 -0.647750
v 0.152250 0.340553 -0.647750
v 0.108750 0.384053 -0.647750
v 0.108750 0.384053 -0.691250
v 0.152250 0.340553 -0.691250
v -0.395763 1.515053 0.143776
v 0.395763 1.515053 -0.734750
v 0.395763 1.515053 0.143776
v -0.395763 1.515053 -0.734750
v -0.395763 1.602053 -0.734750
v 0.395763 1.602053 0.100276
v 0.395763 1.602053 -0.734750
v -0.395763 1.602053 0.100276
v -0.395763 1.558553 0.143776
v 0.395763 1.558553 0.143776
v 0.547810 0.458605 0.381248
v 0.265263 0.330193 0.381248
v 0.547810 0.330193 0.381248
v 0.265263 0.458605 0.381248
v 0.547810 0.330193 0.294247
v 0.265263 0.330193 0.294247
v 0.265263 0.494642 0.294247
v 0.547810 0.494642 0.294247
v 0.547810 0.738281 0.537886
v 0.265263 0.738281 0.537886
v 0.265263 0.651281 0.887123
v 0.547810 0.651281 0.573923
v 0.547810 0.651281 0.887123
v 0.265263 0.651281 0.573923
v 0.547810 0.738281 0.887123
v 0.265263 0.738281 0.887123
v -0.265263 0.494642 0.294247
v -0.265263 0.330193 0.381248
v -0.265263 0.330193 0.294247
v -0.265263 0.458605 0.381248
v -0.265263 0.738281 0.537886
v -0.265263 0.651281 0.573923
v -0.265263 0.738281 0.887123
v -0.265263 0.651281 0.887123
v -0.549886 0.330193 0.381248
v -0.549886 0.494642 0.294247
v -0.549886 0.330193 0.294247
v -0.549886 0.458605 0.381248
v -0.549886 0.738281 0.537886
v -0.549886 0.651281 0.573923
v -0.549886 0.738281 0.887123
v -0.549886 0.651281 0.887123
v 0.259480 0.684235 0.017100
v 0.671038 0.661523 -0.067661
v 0.671038 0.684235 0.017100
v 0.259480 0.661523 -0.067661
v 0.259480 1.033115 -0.711278
v 0.671038 0.980617 -0.838021
v 0.671038 1.033115 -0.711278
v 0.259480 0.980617 -0.838021
v 0.259480 1.056611 -0.881896
v 0.671038 1.056611 -0.881896
v 0.671038 1.138772 -0.575265
v 0.259480 1.117876 -0.416542
v 0.671038 1.117876 -0.416542
v 0.259480 1.138772 -0.575265
v 0.259480 1.056611 -0.268635
v 0.671038 1.056611 -0.268635
v 0.259480 1.117876 -0.733989
v 0.259480 1.051022 -0.575265
v 0.259480 1.033115 -0.439253
v 0.259480 0.980617 -0.312510
v 0.259480 0.897103 -0.203673
v 0.259480 0.959152 -0.141624
v 0.259480 0.788266 -0.120160
v 0.259480 0.832142 -0.044165
v 0.671038 0.788266 -0.120160
v 0.671038 0.897103 -0.203673
v 0.671038 0.980617 -0.312510
v 0.671038 1.117876 -0.733989
v 0.671038 1.033115 -0.439253
v 0.671038 1.051022 -0.575265
v 0.671038 0.959152 -0.141624
v 0.671038 0.832142 -0.044165
v -0.174000 0.645053 -0.821750
v 0.174000 0.471053 -0.821750
v -0.174000 0.471053 -0.821750
v 0.174000 0.645053 -0.821750
v -0.217500 0.471053 -0.647750
v 0.217500 0.471053 -0.778250
v 0.217500 0.471053 -0.647750
v -0.217500 0.471053 -0.778250
v 0.217500 0.645053 -0.647750
v 0.217500 0.645053 -0.778250
v -0.217500 0.645053 -0.647750
v -0.217500 0.645053 -0.778250
v -0.352263 0.558053 1.013776
v 0.352263 0.471053 1.013776
v -0.352263 0.471053 1.013776
v 0.352263 0.558053 1.013776
v 0.352263 0.558053 1.100776
v -0.352263 0.471053 1.100776
v 0.352263 0.471053 1.100776
v -0.352263 0.558053 1.100776
v -0.671038 1.051022 -0.575265
v -0.259480 1.033115 -0.711278
v -0.259480 1.051022 -0.575265
v -0.671038 1.033115 -0.711278
v -0.259480 1.117876 -0.733989
v -0.259480 0.980617 -0.838021
v -0.259480 1.056611 -0.881896
v -0.259480 1.138772 -0.575265
v -0.259480 1.117876 -0.416542
v -0.259480 1.033115 -0.439253
v -0.259480 0.980617 -0.312510
v -0.259480 1.056611 -0.268635
v -0.259480 0.897103 -0.203673
v -0.259480 0.959152 -0.141624
v -0.259480 0.788266 -0.120160
v -0.259480 0.832142 -0.044165
v -0.259480 0.661523 -0.067661
v -0.259480 0.684235 0.017100
v -0.671038 1.056611 -0.881896
v -0.671038 0.980617 -0.838021
v -0.671038 0.832142 -0.044165
v -0.671038 0.684235 0.017100
v -0.671038 0.897103 -0.203673
v -0.671038 0.980617 -0.312510
v -0.671038 1.117876 -0.416542
v -0.671038 1.138772 -0.575265
v -0.671038 1.117876 -0.733989
v -0.671038 1.033115 -0.439253
v -0.671038 1.056611 -0.268635
v -0.671038 0.959152 -0.141624
v -0.671038 0.788266 -0.120160
v -0.671038 0.661523 -0.067661
v 0.095474 0.953533 0.847035
v 0.130540 0.906053 0.824576
v 0.089864 0.906053 0.841425
v 0.130540 0.953533 0.832510
v 0.165605 0.953533 0.847035
v 0.188064 0.906053 0.882100
v 0.171215 0.906053 0.841425
v 0.180130 0.953533 0.882100
v 0.089864 0.906053 0.922776
v 0.080950 0.953533 0.882100
v 0.073015 0.906053 0.882100
v 0.095474 0.953533 0.917166
v 0.165605 0.953533 0.917166
v 0.130540 0.906053 0.939625
v 0.171215 0.906053 0.922776
v 0.130540 0.953533 0.931690
v 0.143161 0.993415 0.869479
v 0.143161 0.993415 0.894722
v 0.148389 0.993415 0.882100
v 0.130540 0.993415 0.864251
v 0.130540 0.993415 0.899950
v 0.117918 0.993415 0.869479
v 0.117918 0.993415 0.894722
v 0.112690 0.993415 0.882100
v 0.161314 0.953533 0.882100
v 0.152301 0.953533 0.860339
v 0.152301 0.953533 0.903861
v 0.130540 0.953533 0.851326
v 0.130540 0.953533 0.912875
v 0.108779 0.953533 0.860339
v 0.108779 0.953533 0.903861
v 0.099765 0.953533 0.882100
v -0.066513 0.968526 0.323208
v -0.066513 0.968526 0.415485
v -0.047402 0.968526 0.369347
v -0.078908 0.968526 0.369347
v -0.088791 0.968526 0.345486
v -0.088791 0.968526 0.393207
v -0.112652 0.968526 0.304097
v -0.112652 0.968526 0.335603
v -0.112652 0.968526 0.434597
v -0.112652 0.968526 0.403091
v -0.136513 0.968526 0.393207
v -0.158791 0.968526 0.323208
v -0.158791 0.968526 0.415485
v -0.136513 0.968526 0.345486
v -0.146396 0.968526 0.369347
v -0.177902 0.968526 0.369347
v -0.112652 0.906053 0.293657
v -0.166173 0.906053 0.315826
v -0.036962 0.906053 0.369347
v -0.059131 0.906053 0.315826
v -0.166173 0.906053 0.422868
v -0.188342 0.906053 0.369347
v -0.112652 0.906053 0.445037
v -0.059131 0.906053 0.422868
v -0.084019 1.218418 0.340714
v -0.084019 1.218418 0.397979
v -0.072159 1.218418 0.369347
v -0.112652 1.218418 0.328854
v -0.112652 1.218418 0.409840
v -0.141285 1.218418 0.340714
v -0.141285 1.218418 0.397979
v -0.153145 1.218418 0.369347
v 0.108750 0.188303 0.926776
v 0.152250 0.231803 0.970276
v 0.108750 0.188303 0.970276
v 0.152250 0.231803 0.926776
v -0.108750 0.188303 0.926776
v -0.108750 0.188303 0.970276
v -0.152250 0.231803 0.926776
v -0.152250 0.231803 0.970276
v 0.152250 0.297053 0.970276
v 0.108750 0.340553 0.926776
v 0.108750 0.340553 0.970276
v 0.152250 0.297053 0.926776
v -0.152250 0.297053 0.926776
v -0.108750 0.340553 0.926776
v -0.108750 0.340553 0.970276
v -0.152250 0.297053 0.970276
v -0.439263 0.471053 0.230776
v 0.439263 0.471053 -0.647750
v 0.439263 0.471053 0.230776
v -0.439263 0.471053 -0.647750
v 0.439263 0.906053 -0.647750
v -0.439263 0.906053 -0.647750
v 0.311582 1.121370 -0.647750
v 0.352263 1.515053 -0.647750
v -0.311582 1.121370 -0.647750
v 0.269049 1.419106 -0.647750
v -0.352263 1.515053 -0.647750
v -0.269049 1.419106 -0.647750
v 0.439263 0.906053 0.230776
v -0.439263 0.906053 0.230776
v 0.352263 1.515053 0.056776
v -0.352263 1.515053 0.056776
v 0.365970 1.419106 -0.550829
v 0.425556 1.002000 -0.550829
v 0.365970 1.419106 -0.016534
v 0.396898 1.202611 0.045322
v 0.425556 1.002000 -0.107958
v 0.339496 0.989706 0.206876
v -0.339496 0.989706 0.206876
v 0.276396 1.431401 0.080677
v -0.276396 1.431401 0.080677
v -0.425556 1.002000 -0.550829
v -0.365970 1.419106 -0.550829
v -0.425556 1.002000 -0.107958
v -0.396898 1.202611 0.045322
v -0.365970 1.419106 -0.016534
v 0.439263 1.039676 0.154486
v 0.576723 1.039676 0.230776
v 0.576723 1.039676 0.154486
v 0.439263 1.039676 0.230776
v 0.439263 0.819053 0.230776
v 0.576723 0.819053 0.230776
v 0.439263 0.819053 0.154486
v 0.576723 0.819053 0.154486
v -0.576723 1.039676 0.154486
v -0.439263 1.039676 0.230776
v -0.439263 1.039676 0.154486
v -0.576723 1.039676 0.230776
v -0.576723 0.819053 0.230776
v -0.576723 0.819053 0.154486
v -0.439263 0.819053 0.154486
v -0.439263 0.819053 0.230776
v 0.265263 0.732053 1.013776
v 0.178263 0.471053 0.230776
v 0.265263 0.732053 0.230776
v 0.178263 0.471053 1.013776
v 0.221763 0.906053 0.230776
v 0.265263 0.862553 1.013776
v 0.265263 0.862553 0.230776
v 0.221763 0.906053 1.013776
v -0.265263 0.862553 1.013776
v -0.221763 0.906053 1.013776
v -0.178263 0.819053 1.013776
v -0.265263 0.732053 1.013776
v -0.178263 0.645053 1.013776
v -0.091263 0.819053 1.013776
v -0.178263 0.471053 1.013776
v 0.091263 0.819053 1.013776
v -0.091263 0.645053 1.013776
v 0.178263 0.819053 1.013776
v 0.091263 0.645053 1.013776
v 0.178263 0.645053 1.013776
v -0.178263 0.471053 0.230776
v -0.265263 0.732053 0.230776
v -0.265263 0.862553 0.230776
v -0.221763 0.906053 0.230776
v 0.178263 0.645053 1.013776
v 0.091263 0.819053 1.013776
v 0.091263 0.645053 1.013776
v 0.178263 0.819053 1.013776
v -0.091263 0.645053 1.013776
v -0.178263 0.819053 1.013776
v -0.178263 0.645053 1.013776
v -0.091263 0.819053 1.013776
v -0.339496 0.989706 0.206876
v 0.339496 0.989706 0.206876
v 0.425556 1.002000 -0.550829
v 0.425556 1.002000 -0.107958
v 0.396898 1.202611 0.045322
v -0.425556 1.002000 -0.107958
v -0.425556 1.002000 -0.550829
v -0.396898 1.202611 0.045322
v -0.269049 1.419106 -0.647750
v 0.311582 1.121370 -0.647750
v -0.311582 1.121370 -0.647750
v 0.269049 1.419106 -0.647750
vt 0.468750 0.475000
vt 0.468750 0.275000
vt 0.468750 0.332143
vt 0.468750 0.417857
vt 0.468750 0.375000
vt 0.468750 0.337934
vt 0.468750 0.355595
vt 0.468750 0.432362
vt 0.468750 0.284518
vt 0.468750 0.430723
vt 0.468750 0.408722
vt 0.468750 0.440569
vt 0.468750 0.466243
vt 0.468750 0.438227
vt 0.468750 0.373724
vt 0.468750 0.399727
vt 0.468750 0.328114
vt 0.468750 0.346501
vt 0.468750 0.383696
vt 0.468750 0.315000
vt 0.468750 0.358333
vt 0.468750 0.399582
vt 0.468750 0.456619
vt 0.468750 0.376714
vt 0.468750 0.415145
vt 0.468750 0.374359
vt 0.468750 0.458975
vt 0.843750 0.332143
vt 0.843750 0.275000
vt 0.843750 0.417857
vt 0.843750 0.475000
vt 0.843750 0.376714
vt 0.843750 0.415145
vt 0.593750 0.725000
vt 0.593750 0.525000
vt 0.593750 0.645000
vt 0.593750 0.705000
vt 0.593750 0.685000
vt 0.593750 0.605000
vt 0.093750 0.225000
vt 0.093750 0.025000
vt 0.093750 0.219433
vt 0.093750 0.030567
vt 0.093750 0.121404
vt 0.093750 0.084618
vn 0.000000 1.000000 0.000000
vn 0.000000 -1.000000 0.000000
vn 0.000000 -0.316228 0.948683
vn -1.000000 0.000000 0.000000
vn 0.000000 0.000000 -1.000000
vn 1.000000 0.000000 0.000000
vn -0.382683 -0.923879 0.000000
vn -0.923879 -0.382683 0.000000
vn 0.382683 -0.923879 0.000000
vn 0.923879 -0.382683 0.000000
vn -0.923879 0.382683 0.000000
vn -0.382683 0.923879 0.000000
vn 0.000000 0.000000 1.000000
vn 0.382683 0.923879 0.000000
vn 0.923879 0.382683 0.000000
vn 0.000000 0.923879 0.382683
vn 0.000000 0.382683 0.923879
vn 0.000000 -0.382684 0.923880
vn 0.000000 -0.707107 -0.707107
vn 0.000000 0.382684 -0.923880
vn 0.000000 0.923880 -0.382684
vn 0.000000 -0.923880 0.382684
vn 0.000000 0.707107 0.707107
vn 0.000000 -0.965926 0.258819
vn 0.000000 -0.923879 0.382683
vn 0.000000 -0.500000 -0.866025
vn 0.000000 0.965926 0.258819
vn 0.000000 0.866025 0.500000
vn 0.000000 -0.382683 -0.923879
vn 0.000000 -0.866025 -0.500000
vn 0.000000 0.965926 -0.258819
vn 0.000000 -0.965926 -0.258819
vn 0.000000 0.923879 -0.382683
vn 0.000000 0.500000 0.866025
vn -0.382683 0.000000 -0.923879
vn 0.382683 0.000000 -0.923879
vn -0.923879 0.000000 -0.382683
vn 0.923879 0.000000 -0.382683
vn -0.697435 0.164827 -0.697435
vn 0.000000 0.164827 -0.986322
vn 0.697435 0.164827 -0.697435
vn 0.986322 0.164827 0.000000
vn -0.697435 0.164827 0.697435
vn -0.986322 0.164827 0.000000
vn 0.697435 0.164827 0.697435
vn 0.000000 0.164827 0.986322
vn 0.672664 0.308297 -0.672664
vn 0.951290 0.308297 0.000000
vn 0.000000 0.308297 -0.951290
vn 0.672664 0.308297 0.672664
vn -0.951290 0.308297 0.000000
vn -0.672664 0.308297 -0.672664
vn -0.672664 0.308297 0.672664
vn 0.000000 0.308297 0.951290
vn -0.706849 -0.026997 0.706849
vn -0.999636 -0.026997 0.000000
vn 0.000000 -0.026997 0.999636
vn 0.706849 -0.026997 0.706849
vn 0.999636 -0.026997 0.000000
vn 0.706849 -0.026997 -0.706849
vn 0.000000 -0.026997 -0.999636
vn -0.706849 -0.026997 -0.706849
vn 0.382683 -0.923879 -0.000000
vn 0.923879 -0.382683 -0.000000
vn -0.382683 -0.923879 0.000000
vn -0.923879 -0.382683 0.000000
vn 0.923879 0.382683 -0.000000
vn 0.382683 0.923879 -0.000000
vn -0.000000 0.000000 -1.000000
vn -0.382683 0.923879 0.000000
vn -0.923879 0.382683 0.000000
vn 0.989950 0.141421 0.000000
vn 0.000000 0.274721 0.961524
vn -0.989950 0.141421 0.000000
vn 0.000000 0.000000 1.000000
vn 0.000000 0.607130 -0.794603
vn 0.987088 -0.160182 0.000000
vn 0.948683 -0.316228 0.000000
vn -0.948683 -0.316228 0.000000
vn -0.987088 -0.160182 0.000000
vn 0.000000 -0.000000 1.000000
usemtl colormap
f 1/1/1 2/1/1 3/1/1
f 2/1/1 1/1/1 4/1/1
f 5/2/2 6/2/2 7/2/2
f 6/2/2 5/2/2 8/2/2
f 2/1/3 5/2/3 7/2/3
f 5/2/3 2/1/3 4/1/3
f 5/2/4 1/1/4 8/2/4
f 1/1/4 5/2/4 4/1/4
f 1/1/5 6/2/5 8/2/5
f 6/2/5 1/1/5 3/1/5
f 2/1/6 6/2/6 3/1/6
f 6/2/6 2/1/6 7/2/6
f 9/2/7 10/3/8 11/2/7
f 10/3/8 9/2/7 12/3/8
f 13/2/9 11/2/7 14/2/9
f 11/2/7 13/2/9 9/2/7
f 15/3/10 14/2/9 16/3/10
f 14/2/9 15/3/10 13/2/9
f 17/4/11 18/1/12 19/1/12
f 18/1/12 17/4/11 20/4/11
f 12/3/8 17/4/11 10/3/8
f 17/4/11 12/3/8 20/4/11
f 15/3/13 9/2/13 13/2/13
f 9/2/13 15/3/13 12/3/13
f 12/3/13 15/3/13 21/4/13
f 12/3/13 21/4/13 20/4/13
f 20/4/13 21/4/13 22/1/13
f 20/4/13 22/1/13 18/1/13
f 19/1/12 22/1/14 23/1/14
f 22/1/14 19/1/12 18/1/12
f 21/4/15 16/3/10 24/4/15
f 16/3/10 21/4/15 15/3/10
f 23/1/14 21/4/15 24/4/15
f 21/4/15 23/1/14 22/1/14
f 25/2/2 26/2/2 27/2/2
f 26/2/2 25/2/2 28/2/2
f 29/1/1 30/1/16 31/1/1
f 30/1/16 29/1/1 32/1/16
f 25/2/4 29/1/4 28/2/4
f 29/1/4 25/2/4 32/1/4
f 32/1/4 25/2/4 33/5/4
f 30/1/6 26/2/6 31/1/6
f 26/2/6 30/1/6 27/2/6
f 27/2/6 30/1/6 34/5/6
f 29/1/5 26/2/5 28/2/5
f 26/2/5 29/1/5 31/1/5
f 34/5/17 25/2/13 27/2/13
f 25/2/13 34/5/17 33/5/17
f 32/1/16 34/5/17 30/1/16
f 34/5/17 32/1/16 33/5/17
f 35/6/18 36/2/13 37/2/13
f 36/2/13 35/6/18 38/6/18
f 36/2/2 39/2/19 37/2/2
f 39/2/19 36/2/2 40/2/19
f 41/7/20 39/2/19 40/2/19
f 39/2/19 41/7/20 42/7/20
f 41/7/20 43/1/21 42/7/20
f 43/1/21 41/7/20 44/1/21
f 45/8/2 46/8/22 47/8/2
f 46/8/22 45/8/2 48/8/22
f 48/8/22 35/6/18 46/8/22
f 35/6/18 48/8/22 38/6/18
f 44/1/21 49/1/23 43/1/21
f 49/1/23 44/1/21 50/1/23
f 49/1/23 45/8/13 47/8/13
f 45/8/13 49/1/23 50/1/23
f 42/7/6 37/2/6 39/2/6
f 37/2/6 42/7/6 35/6/6
f 35/6/6 42/7/6 43/1/6
f 35/6/6 43/1/6 46/8/6
f 46/8/6 43/1/6 49/1/6
f 46/8/6 49/1/6 47/8/6
f 36/2/4 41/7/4 40/2/4
f 41/7/4 36/2/4 38/6/4
f 41/7/4 38/6/4 44/1/4
f 44/1/4 38/6/4 48/8/4
f 44/1/4 48/8/4 50/1/4
f 50/1/4 48/8/4 45/8/4
f 51/7/6 52/2/6 53/2/6
f 52/2/6 51/7/6 54/6/6
f 54/6/6 51/7/6 55/1/6
f 54/6/6 55/1/6 56/8/6
f 56/8/6 55/1/6 57/1/6
f 56/8/6 57/1/6 58/8/6
f 59/2/4 60/7/4 61/2/4
f 60/7/4 59/2/4 62/6/4
f 60/7/4 62/6/4 63/1/4
f 63/1/4 62/6/4 64/8/4
f 63/1/4 64/8/4 65/1/4
f 65/1/4 64/8/4 66/8/4
f 54/6/18 59/2/13 52/2/13
f 59/2/13 54/6/18 62/6/18
f 59/2/2 53/2/19 52/2/2
f 53/2/19 59/2/2 61/2/19
f 60/7/20 53/2/19 61/2/19
f 53/2/19 60/7/20 51/7/20
f 60/7/20 55/1/21 51/7/20
f 55/1/21 60/7/20 63/1/21
f 63/1/21 57/1/23 55/1/21
f 57/1/23 63/1/21 65/1/23
f 57/1/23 66/8/13 58/8/13
f 66/8/13 57/1/23 65/1/23
f 66/8/2 56/8/22 58/8/2
f 56/8/22 66/8/2 64/8/22
f 64/8/22 54/6/18 56/8/22
f 54/6/18 64/8/22 62/6/18
f 67/9/24 68/2/24 69/9/24
f 68/2/24 67/9/24 70/2/24
f 71/10/24 72/11/25 73/10/24
f 72/11/25 71/10/24 74/11/25
f 75/12/26 72/11/26 74/11/26
f 72/11/26 75/12/26 76/12/26
f 77/1/1 78/13/27 79/13/27
f 78/13/27 77/1/1 80/1/1
f 79/13/27 81/12/28 82/12/28
f 81/12/28 79/13/27 78/13/27
f 74/11/4 83/13/4 75/12/4
f 83/13/4 74/11/4 71/10/4
f 83/13/4 71/10/4 80/1/4
f 80/1/4 71/10/4 84/14/4
f 80/1/4 84/14/4 85/10/4
f 80/1/4 85/10/4 78/13/4
f 78/13/4 85/10/4 86/11/4
f 78/13/4 86/11/4 81/12/4
f 81/12/4 86/11/4 87/15/4
f 81/12/4 87/15/4 88/16/4
f 88/16/4 87/15/4 89/17/4
f 88/16/4 89/17/4 90/18/4
f 90/18/4 89/17/4 70/2/4
f 90/18/4 70/2/4 67/9/4
f 89/17/26 68/2/29 70/2/29
f 68/2/29 89/17/26 91/17/26
f 87/15/19 91/17/26 89/17/26
f 91/17/26 87/15/19 92/15/19
f 87/15/19 93/11/30 92/15/19
f 93/11/30 87/15/19 86/11/30
f 94/13/31 80/1/1 77/1/1
f 80/1/1 94/13/31 83/13/31
f 86/11/30 95/10/32 93/11/30
f 95/10/32 86/11/30 85/10/32
f 94/13/6 72/11/6 76/12/6
f 72/11/6 94/13/6 73/10/6
f 73/10/6 94/13/6 77/1/6
f 73/10/6 77/1/6 96/14/6
f 96/14/6 77/1/6 79/13/6
f 96/14/6 79/13/6 95/10/6
f 95/10/6 79/13/6 93/11/6
f 93/11/6 79/13/6 82/12/6
f 93/11/6 82/12/6 92/15/6
f 92/15/6 82/12/6 97/16/6
f 92/15/6 97/16/6 91/17/6
f 91/17/6 97/16/6 98/18/6
f 91/17/6 98/18/6 68/2/6
f 68/2/6 98/18/6 69/9/6
f 82/12/28 88/16/23 97/16/23
f 88/16/23 82/12/28 81/12/28
f 76/12/33 83/13/31 94/13/31
f 83/13/31 76/12/33 75/12/33
f 98/18/34 88/16/23 90/18/34
f 88/16/23 98/18/34 97/16/23
f 69/9/17 90/18/34 67/9/17
f 90/18/34 69/9/17 98/18/34
f 85/10/32 96/14/2 95/10/32
f 96/14/2 85/10/32 84/14/2
f 84/14/2 73/10/24 96/14/2
f 73/10/24 84/14/2 71/10/24
f 99/1/35 100/2/36 101/2/35
f 100/2/36 99/1/35 102/1/36
f 103/2/2 104/2/2 105/2/2
f 104/2/2 103/2/2 100/2/2
f 100/2/2 103/2/2 101/2/2
f 101/2/2 103/2/2 106/2/2
f 102/1/1 107/1/1 108/1/1
f 107/1/1 102/1/1 109/1/1
f 109/1/1 102/1/1 99/1/1
f 109/1/1 99/1/1 110/1/1
f 103/2/4 110/1/37 106/2/37
f 110/1/37 103/2/4 109/1/4
f 106/2/37 99/1/35 101/2/35
f 99/1/35 106/2/37 110/1/37
f 107/1/6 104/2/38 108/1/38
f 104/2/38 107/1/6 105/2/6
f 108/1/38 100/2/36 102/1/36
f 100/2/36 108/1/38 104/2/38
f 111/1/5 112/2/5 113/2/5
f 112/2/5 111/1/5 114/1/5
f 115/1/13 116/2/13 117/2/13
f 116/2/13 115/1/13 118/1/13
f 116/2/4 111/1/4 113/2/4
f 111/1/4 116/2/4 118/1/4
f 116/2/2 112/2/2 117/2/2
f 112/2/2 116/2/2 113/2/2
f 115/1/6 112/2/6 114/1/6
f 112/2/6 115/1/6 117/2/6
f 111/1/1 115/1/1 114/1/1
f 115/1/1 111/1/1 118/1/1
f 119/14/2 120/10/24 121/14/2
f 120/10/24 119/14/2 122/10/24
f 123/13/6 124/11/6 125/12/6
f 124/11/6 123/13/6 120/10/6
f 120/10/6 123/13/6 126/1/6
f 120/10/6 126/1/6 121/14/6
f 121/14/6 126/1/6 127/13/6
f 121/14/6 127/13/6 128/10/6
f 128/10/6 127/13/6 129/11/6
f 129/11/6 127/13/6 130/12/6
f 129/11/6 130/12/6 131/15/6
f 131/15/6 130/12/6 132/16/6
f 131/15/6 132/16/6 133/17/6
f 133/17/6 132/16/6 134/18/6
f 133/17/6 134/18/6 135/2/6
f 135/2/6 134/18/6 136/9/6
f 137/12/26 124/11/26 138/11/26
f 124/11/26 137/12/26 125/12/26
f 136/9/17 139/18/34 140/9/17
f 139/18/34 136/9/17 134/18/34
f 122/10/24 124/11/25 120/10/24
f 124/11/25 122/10/24 138/11/25
f 141/15/19 129/11/30 131/15/19
f 129/11/30 141/15/19 142/11/30
f 126/1/1 143/13/27 127/13/27
f 143/13/27 126/1/1 144/1/1
f 123/13/31 144/1/1 126/1/1
f 144/1/1 123/13/31 145/13/31
f 138/11/4 145/13/4 137/12/4
f 145/13/4 138/11/4 122/10/4
f 145/13/4 122/10/4 144/1/4
f 144/1/4 122/10/4 119/14/4
f 144/1/4 119/14/4 146/10/4
f 144/1/4 146/10/4 143/13/4
f 143/13/4 146/10/4 142/11/4
f 143/13/4 142/11/4 147/12/4
f 147/12/4 142/11/4 141/15/4
f 147/12/4 141/15/4 148/16/4
f 148/16/4 141/15/4 149/17/4
f 148/16/4 149/17/4 139/18/4
f 139/18/4 149/17/4 150/2/4
f 139/18/4 150/2/4 140/9/4
f 130/12/28 148/16/23 132/16/23
f 148/16/23 130/12/28 147/12/28
f 140/9/24 135/2/24 136/9/24
f 135/2/24 140/9/24 150/2/24
f 146/10/32 121/14/2 128/10/32
f 121/14/2 146/10/32 119/14/2
f 149/17/26 135/2/29 150/2/29
f 135/2/29 149/17/26 133/17/26
f 142/11/30 128/10/32 129/11/30
f 128/10/32 142/11/30 146/10/32
f 134/18/34 148/16/23 139/18/34
f 148/16/23 134/18/34 132/16/23
f 141/15/19 133/17/26 149/17/26
f 133/17/26 141/15/19 131/15/19
f 125/12/33 145/13/31 123/13/31
f 145/13/31 125/12/33 137/12/33
f 127/13/27 147/12/28 130/12/28
f 147/12/28 127/13/27 143/13/27
f 151/19/39 152/2/40 153/2/39
f 152/2/40 151/19/39 154/19/40
f 155/19/41 156/2/42 157/2/41
f 156/2/42 155/19/41 158/19/42
f 154/19/40 157/2/41 152/2/40
f 157/2/41 154/19/40 155/19/41
f 159/2/43 160/19/44 161/2/44
f 160/19/44 159/2/43 162/19/43
f 161/2/44 151/19/39 153/2/39
f 151/19/39 161/2/44 160/19/44
f 163/19/45 164/2/46 165/2/45
f 164/2/46 163/19/45 166/19/46
f 166/19/46 159/2/43 164/2/46
f 159/2/43 166/19/46 162/19/43
f 163/19/45 156/2/42 158/19/42
f 156/2/42 163/19/45 165/2/45
f 167/1/1 168/1/1 169/1/1
f 168/1/1 167/1/1 170/1/1
f 168/1/1 170/1/1 171/1/1
f 171/1/1 170/1/1 172/1/1
f 171/1/1 172/1/1 173/1/1
f 173/1/1 172/1/1 174/1/1
f 155/19/1 163/19/1 158/19/1
f 163/19/1 155/19/1 175/19/1
f 175/19/1 155/19/1 176/19/1
f 177/19/1 163/19/1 175/19/1
f 176/19/1 155/19/1 154/19/1
f 163/19/1 177/19/1 166/19/1
f 176/19/1 154/19/1 178/19/1
f 166/19/1 177/19/1 179/19/1
f 178/19/1 154/19/1 151/19/1
f 166/19/1 179/19/1 162/19/1
f 178/19/1 151/19/1 180/19/1
f 162/19/1 179/19/1 181/19/1
f 180/19/1 151/19/1 182/19/1
f 162/19/1 181/19/1 182/19/1
f 162/19/1 182/19/1 151/19/1
f 162/19/1 151/19/1 160/19/1
f 167/1/47 175/19/48 176/19/47
f 175/19/48 167/1/47 169/1/48
f 170/1/49 176/19/47 178/19/49
f 176/19/47 170/1/49 167/1/47
f 168/1/50 175/19/48 169/1/48
f 175/19/48 168/1/50 177/19/50
f 182/19/51 172/1/52 180/19/52
f 172/1/52 182/19/51 174/1/51
f 182/19/51 173/1/53 174/1/51
f 173/1/53 182/19/51 181/19/53
f 172/1/52 178/19/49 180/19/52
f 178/19/49 172/1/52 170/1/49
f 171/1/54 181/19/53 179/19/54
f 181/19/53 171/1/54 173/1/53
f 168/1/50 179/19/54 177/19/50
f 179/19/54 168/1/50 171/1/54
f 183/20/1 184/20/1 185/20/1
f 184/20/1 183/20/1 186/20/1
f 186/20/1 183/20/1 187/20/1
f 188/20/1 184/20/1 186/20/1
f 187/20/1 183/20/1 189/20/1
f 187/20/1 189/20/1 190/20/1
f 184/20/1 188/20/1 191/20/1
f 191/20/1 188/20/1 192/20/1
f 191/20/1 192/20/1 193/20/1
f 190/20/1 189/20/1 194/20/1
f 191/20/1 193/20/1 195/20/1
f 190/20/1 194/20/1 196/20/1
f 195/20/1 193/20/1 197/20/1
f 196/20/1 194/20/1 197/20/1
f 195/20/1 197/20/1 194/20/1
f 195/20/1 194/20/1 198/20/1
f 194/20/39 199/2/40 200/2/39
f 199/2/40 194/20/39 189/20/40
f 183/20/41 201/2/42 202/2/41
f 201/2/42 183/20/41 185/20/42
f 189/20/40 202/2/41 199/2/40
f 202/2/41 189/20/40 183/20/41
f 203/2/43 198/20/44 204/2/44
f 198/20/44 203/2/43 195/20/43
f 204/2/44 194/20/39 200/2/39
f 194/20/39 204/2/44 198/20/44
f 184/20/45 205/2/46 206/2/45
f 205/2/46 184/20/45 191/20/46
f 191/20/46 203/2/43 205/2/46
f 203/2/43 191/20/46 195/20/43
f 185/20/42 206/2/45 201/2/42
f 206/2/45 185/20/42 184/20/45
f 207/1/1 208/1/1 209/1/1
f 208/1/1 207/1/1 210/1/1
f 208/1/1 210/1/1 211/1/1
f 211/1/1 210/1/1 212/1/1
f 211/1/1 212/1/1 213/1/1
f 213/1/1 212/1/1 214/1/1
f 193/20/55 214/1/56 197/20/56
f 214/1/56 193/20/55 213/1/55
f 211/1/57 193/20/55 192/20/57
f 193/20/55 211/1/57 213/1/55
f 208/1/58 192/20/57 188/20/58
f 192/20/57 208/1/58 211/1/57
f 209/1/59 187/20/60 207/1/60
f 187/20/60 209/1/59 186/20/59
f 209/1/59 188/20/58 186/20/59
f 188/20/58 209/1/59 208/1/58
f 210/1/61 187/20/60 190/20/61
f 187/20/60 210/1/61 207/1/60
f 212/1/62 190/20/61 196/20/62
f 190/20/61 212/1/62 210/1/61
f 196/20/62 214/1/56 212/1/62
f 214/1/56 196/20/62 197/20/56
f 215/2/63 216/3/64 217/2/63
f 216/3/64 215/2/63 218/3/64
f 219/2/65 217/2/63 220/2/65
f 217/2/63 219/2/65 215/2/63
f 221/3/66 220/2/65 222/3/66
f 220/2/65 221/3/66 219/2/65
f 223/4/67 224/1/68 225/1/68
f 224/1/68 223/4/67 226/4/67
f 218/3/64 223/4/67 216/3/64
f 223/4/67 218/3/64 226/4/67
f 221/3/69 215/2/69 219/2/69
f 215/2/69 221/3/69 218/3/69
f 218/3/69 221/3/69 227/4/69
f 218/3/69 227/4/69 226/4/69
f 226/4/69 227/4/69 228/1/69
f 226/4/69 228/1/69 224/1/69
f 225/1/68 228/1/70 229/1/70
f 228/1/70 225/1/68 224/1/68
f 227/4/71 222/3/66 230/4/71
f 222/3/66 227/4/71 221/3/66
f 229/1/70 227/4/71 230/4/71
f 227/4/71 229/1/70 228/1/70
f 231/2/2 232/2/2 233/2/2
f 232/2/2 231/2/2 234/2/2
f 234/2/5 235/21/5 232/2/5
f 235/21/5 234/2/5 236/21/5
f 237/22/5 235/21/5 236/21/5
f 235/21/5 237/22/5 238/1/5
f 237/22/5 236/21/5 239/22/5
f 238/1/5 237/22/5 240/23/5
f 241/1/5 239/22/5 236/21/5
f 238/1/5 240/23/5 242/23/5
f 239/22/5 241/1/5 242/23/5
f 242/23/5 241/1/5 238/1/5
f 243/21/6 232/2/6 235/21/6
f 232/2/6 243/21/6 233/2/6
f 243/21/13 231/2/13 233/2/13
f 231/2/13 243/21/13 244/21/13
f 234/2/4 244/21/4 236/21/4
f 244/21/4 234/2/4 231/2/4
f 241/1/1 245/1/1 238/1/1
f 245/1/1 241/1/1 246/1/1
f 238/1/72 247/23/72 235/21/72
f 247/23/72 238/1/72 245/1/72
f 248/24/72 235/21/72 247/23/72
f 247/23/72 245/1/72 249/23/72
f 249/23/72 245/1/72 250/25/72
f 235/21/72 248/24/72 243/21/72
f 243/21/72 250/25/72 245/1/72
f 243/21/72 248/24/72 251/24/72
f 243/21/72 251/24/72 250/25/72
f 243/21/73 252/26/73 244/21/73
f 252/26/73 243/21/73 245/1/73
f 253/26/73 244/21/73 252/26/73
f 252/26/73 245/1/73 254/27/73
f 244/21/73 253/26/73 246/1/73
f 254/27/73 245/1/73 255/27/73
f 246/1/73 253/26/73 255/27/73
f 246/1/73 255/27/73 245/1/73
f 236/21/74 256/24/74 241/1/74
f 256/24/74 236/21/74 244/21/74
f 257/23/74 241/1/74 256/24/74
f 256/24/74 244/21/74 258/24/74
f 258/24/74 244/21/74 259/25/74
f 241/1/74 257/23/74 246/1/74
f 259/25/74 244/21/74 246/1/74
f 246/1/74 257/23/74 260/23/74
f 246/1/74 260/23/74 259/25/74
f 10/28/5 14/29/5 11/29/5
f 14/29/5 10/28/5 16/28/5
f 16/28/5 10/28/5 17/30/5
f 16/28/5 17/30/5 24/30/5
f 24/30/5 17/30/5 19/31/5
f 24/30/5 19/31/5 23/31/5
f 216/28/75 220/29/75 217/29/75
f 220/29/75 216/28/75 222/28/75
f 222/28/75 216/28/75 223/30/75
f 222/28/75 223/30/75 230/30/75
f 230/30/75 223/30/75 225/31/75
f 230/30/75 225/31/75 229/31/75
f 258/32/76 250/33/76 251/32/76
f 250/33/76 258/32/76 259/33/76
f 261/34/1 262/34/1 263/34/1
f 262/34/1 261/34/1 264/34/1
f 262/34/13 265/35/13 266/35/13
f 265/35/13 262/34/13 264/34/13
f 265/35/4 261/34/4 267/35/4
f 261/34/4 265/35/4 264/34/4
f 265/35/2 268/35/2 266/35/2
f 268/35/2 265/35/2 267/35/2
f 262/34/6 268/35/6 263/34/6
f 268/35/6 262/34/6 266/35/6
f 269/34/1 270/34/1 271/34/1
f 270/34/1 269/34/1 272/34/1
f 273/35/4 269/34/4 274/35/4
f 269/34/4 273/35/4 272/34/4
f 270/34/6 275/35/6 271/34/6
f 275/35/6 270/34/6 276/35/6
f 273/35/2 275/35/2 276/35/2
f 275/35/2 273/35/2 274/35/2
f 270/34/13 273/35/13 276/35/13
f 273/35/13 270/34/13 272/34/13
f 277/36/77 278/35/78 279/36/77
f 278/35/78 277/36/77 280/35/78
f 281/34/14 282/37/15 283/37/15
f 282/37/15 281/34/14 284/34/14
f 282/37/15 279/36/77 283/37/15
f 279/36/77 282/37/15 277/36/77
f 285/37/13 284/34/13 286/34/13
f 285/37/13 282/37/13 284/34/13
f 285/37/13 287/38/13 282/37/13
f 288/36/13 287/38/13 285/37/13
f 288/36/13 289/39/13 287/38/13
f 290/38/13 282/37/13 287/38/13
f 291/35/13 289/39/13 288/36/13
f 292/38/13 282/37/13 290/38/13
f 293/39/13 292/38/13 290/38/13
f 294/38/13 282/37/13 292/38/13
f 292/38/13 293/39/13 295/39/13
f 289/39/13 295/39/13 293/39/13
f 294/38/13 277/36/13 282/37/13
f 289/39/13 296/39/13 295/39/13
f 289/39/13 291/35/13 296/39/13
f 296/39/13 277/36/13 294/38/13
f 280/35/13 296/39/13 291/35/13
f 296/39/13 280/35/13 277/36/13
f 291/35/2 278/35/2 280/35/2
f 278/35/2 291/35/2 297/35/2
f 298/36/5 278/35/5 297/35/5
f 278/35/5 298/36/5 279/36/5
f 279/36/5 298/36/5 299/37/5
f 279/36/5 299/37/5 283/37/5
f 283/37/5 299/37/5 300/34/5
f 283/37/5 300/34/5 281/34/5
f 300/34/12 284/34/14 281/34/14
f 284/34/14 300/34/12 286/34/12
f 291/35/79 298/36/80 297/35/79
f 298/36/80 291/35/79 288/36/80
f 299/37/11 286/34/12 300/34/12
f 286/34/12 299/37/11 285/37/11
f 288/36/80 299/37/11 298/36/80
f 299/37/11 288/36/80 285/37/11
f 261/40/5 268/41/5 267/41/5
f 268/41/5 261/40/5 263/40/5
f 269/40/5 275/41/5 274/41/5
f 275/41/5 269/40/5 271/40/5
f 301/41/81 302/41/81 303/41/81
f 302/41/81 301/41/81 304/41/81
f 305/41/81 306/41/81 307/41/81
f 306/41/81 305/41/81 308/41/81
f 254/40/73 309/41/73 310/41/73
f 309/41/73 254/40/73 255/40/73
f 249/42/72 311/43/72 247/42/72
f 311/43/72 249/42/72 312/43/72
f 312/43/72 249/42/72 313/44/72
f 314/43/74 257/42/74 315/43/74
f 257/42/74 314/43/74 260/42/74
f 260/42/74 314/43/74 316/44/74
f 317/42/5 318/45/5 319/45/5
f 318/45/5 317/42/5 320/42/5
