# Generated by GTAClone/tools/split_car_wheels.py from tractor-police.obj
# Kenney Car Kit (CC0 1.0); the split is a derivative work, also CC0.
mtllib colormap.mtl
v -0.265263 0.471053 -0.647750
v 0.265263 0.471053 1.013776
v 0.265263 0.471053 -0.647750
v -0.265263 0.471053 1.013776
v -0.265263 0.210053 0.926776
v 0.265263 0.210053 -0.647750
v 0.265263 0.210053 0.926776
v -0.265263 0.210053 -0.647750
v -0.108750 0.231803 -0.647750
v -0.152250 0.275303 -0.691250
v -0.108750 0.231803 -0.691250
v -0.152250 0.275303 -0.647750
v 0.108750 0.231803 -0.647750
v 0.108750 0.231803 -0.691250
v 0.152250 0.275303 -0.647750
v 0.152250 0.275303 -0.691250
v -0.152250 0.340553 -0.691250
v -0.108750 0.384053 -0.647750
v -0.108750 0.384053 -0.691250
v -0.152250 0.340553 -0.647750
v 0.152250 0.340553 -0.647750
v 0.108750 0.384053 -0.647750
v 0.108750 0.384053 -0.691250
v 0.152250 0.340553 -0.691250
v 0.547809 0.458605 0.381248
v 0.265263 0.330193 0.381248
v 0.547809 0.330193 0.381248
v 0.265263 0.458605 0.381248
v 0.547809 0.330193 0.294247
v 0.265263 0.330193 0.294247
v 0.265263 0.494642 0.294247
v 0.547809 0.494642 0.294247
v 0.547809 0.738281 0.537886
v 0.265263 0.738281 0.537886
v 0.265263 0.651281 0.887123
v 0.547809 0.651281 0.573923
v 0.547809 0.651281 0.887123
v 0.265263 0.651281 0.573923
v 0.547809 0.738281 0.887123
v 0.265263 0.738281 0.887123
v -0.265263 0.494642 0.294247
v -0.265263 0.330193 0.381248
v -0.265263 0.330193 0.294247
v -0.265263 0.458605 0.381248
v -0.265263 0.738281 0.537886
v -0.265263 0.651281 0.573923
v -0.265263 0.738281 0.887123
v -0.265263 0.651281 0.887123
v -0.549886 0.330193 0.381248
v -0.549886 0.494642 0.294247
v -0.549886 0.330193 0.294247
v -0.549886 0.458605 0.381248
v -0.549886 0.738281 0.537886
v -0.549886 0.651281 0.573923
v -0.549886 0.738281 0.887123
v -0.549886 0.651281 0.887123
v 0.259480 0.684235 0.017100
v 0.671039 0.661523 -0.067661
v 0.671039 0.684235 0.017100
v 0.259480 0.661523 -0.067661
v 0.259480 1.033115 -0.711278
v 0.671039 0.980617 -0.838021
v 0.671039 1.033115 -0.711278
v 0.259480 0.980617 -0.838021
v 0.259480 1.056611 -0.881896
v 0.671039 1.056611 -0.881896
v 0.671039 1.138772 -0.575265
v 0.259480 1.117876 -0.416542
v 0.671039 1.117876 -0.416542
v 0.259480 1.138772 -0.575265
v 0.259480 1.056611 -0.268635
v 0.671039 1.056611 -0.268635
v 0.259480 1.117876 -0.733989
v 0.259480 1.051022 -0.575265
v 0.259480 1.033115 -0.439253
v 0.259480 0.980617 -0.312510
v 0.259480 0.897103 -0.203673
v 0.259480 0.959152 -0.141624
v 0.259480 0.788266 -0.120160
v 0.259480 0.832142 -0.044165
v 0.671039 0.788266 -0.120160
v 0.671039 0.897103 -0.203673
v 0.671039 0.980617 -0.312510
v 0.671039 1.117876 -0.733989
v 0.671039 1.033115 -0.439253
v 0.671039 1.051022 -0.575265
v 0.671039 0.959152 -0.141624
v 0.671039 0.832142 -0.044165
v -0.174000 0.645053 -0.821750
v 0.174000 0.471053 -0.821750
v -0.174000 0.471053 -0.821750
v 0.174000 0.645053 -0.821750
v -0.217500 0.471053 -0.647750
v 0.217500 0.471053 -0.778250
v 0.217500 0.471053 -0.647750
v -0.217500 0.471053 -0.778250
v 0.217500 0.645053 -0.647750
v 0.217500 0.645053 -0.778250
v -0.217500 0.645053 -0.647750
v -0.217500 0.645053 -0.778250
v -0.352263 0.558053 1.013776
v 0.352263 0.471053 1.013776
v -0.352263 0.471053 1.013776
v 0.352263 0.558053 1.013776
v 0.352263 0.558053 1.100776
v -0.352263 0.471053 1.100776
v 0.352263 0.471053 1.100776
v -0.352263 0.558053 1.100776
v -0.671039 1.051022 -0.575265
v -0.259480 1.033115 -0.711278
v -0.259480 1.051022 -0.575265
v -0.671039 1.033115 -0.711278
v -0.259480 1.117876 -0.733989
v -0.259480 0.980617 -0.838021
v -0.259480 1.056611 -0.881896
v -0.259480 1.138772 -0.575265
v -0.259480 1.117876 -0.416542
v -0.259480 1.033115 -0.439253
v -0.259480 0.980617 -0.312510
v -0.259480 1.056611 -0.268635
v -0.259480 0.897103 -0.203673
v -0.259480 0.959152 -0.141624
v -0.259480 0.788266 -0.120160
v -0.259480 0.832142 -0.044165
v -0.259480 0.661523 -0.067661
v -0.259480 0.684235 0.017100
v -0.671039 1.056611 -0.881896
v -0.671039 0.980617 -0.838021
v -0.671039 0.832142 -0.044165
v -0.671039 0.684235 0.017100
v -0.671039 0.897103 -0.203673
v -0.671039 0.980617 -0.312510
v -0.671039 1.117876 -0.416542
v -0.671039 1.138772 -0.575265
v -0.671039 1.117876 -0.733989
v -0.671039 1.033115 -0.439253
v -0.671039 1.056611 -0.268635
v -0.671039 0.959152 -0.141624
v -0.671039 0.788266 -0.120160
v -0.671039 0.661523 -0.067661
v -0.066513 0.968526 0.323208
v -0.066513 0.968526 0.415485
v -0.047402 0.968526 0.369347
v -0.078908 0.968526 0.369347
v -0.088791 0.968526 0.345486
v -0.088791 0.968526 0.393207
v -0.112652 0.968526 0.304097
v -0.112652 0.968526 0.335603
v -0.112652 0.968526 0.434597
v -0.112652 0.968526 0.403091
v -0.136513 0.968526 0.393207
v -0.158791 0.968526 0.323208
v -0.158791 0.968526 0.415485
v -0.136513 0.968526 0.345486
v -0.146396 0.968526 0.369347
v -0.177902 0.968526 0.369347
v -0.112652 0.906053 0.293657
v -0.166173 0.906053 0.315826
v -0.036962 0.906053 0.369347
v -0.059131 0.906053 0.315826
v -0.166173 0.906053 0.422868
v -0.188342 0.906053 0.369347
v -0.112652 0.906053 0.445037
v -0.059131 0.906053 0.422868
v -0.084019 1.218418 0.340714
v -0.084019 1.218418 0.397979
v -0.072159 1.218418 0.369347
v -0.112652 1.218418 0.328854
v -0.112652 1.218418 0.409840
v -0.141285 1.218418 0.340714
v -0.141285 1.218418 0.397979
v -0.153145 1.218418 0.369347
v 0.108750 0.188303 0.926776
v 0.152250 0.231803 0.970276
v 0.108750 0.188303 0.970276
v 0.152250 0.231803 0.926776
v -0.108750 0.188303 0.926776
v -0.108750 0.188303 0.970276
v -0.152250 0.231803 0.926776
v -0.152250 0.231803 0.970276
v 0.152250 0.297053 0.970276
v 0.108750 0.340553 0.926776
v 0.108750 0.340553 0.970276
v 0.152250 0.297053 0.926776
v -0.152250 0.297053 0.926776
v -0.108750 0.340553 0.926776
v -0.108750 0.340553 0.970276
v -0.152250 0.297053 0.970276
v 0.095474 0.953533 0.847035
v 0.130540 0.906053 0.824576
v 0.089864 0.906053 0.841425
v 0.130540 0.953533 0.832510
v 0.165605 0.953533 0.847035
v 0.188064 0.906053 0.882100
v 0.171216 0.906053 0.841425
v 0.180130 0.953533 0.882100
v 0.089864 0.906053 0.922776
v 0.080950 0.953533 0.882100
v 0.073015 0.906053 0.882100
v 0.095474 0.953533 0.917166
v 0.165605 0.953533 0.917166
v 0.130540 0.906053 0.939625
v 0.171216 0.906053 0.922776
v 0.130540 0.953533 0.931690
v 0.143161 0.993415 0.869479
v 0.143161 0.993415 0.894722
v 0.148389 0.993415 0.882100
v 0.130540 0.993415 0.864251
v 0.130540 0.993415 0.899950
v 0.117919 0.993415 0.869479
v 0.117919 0.993415 0.894722
v 0.112691 0.993415 0.882100
v 0.161314 0.953533 0.882100
v 0.152301 0.953533 0.860339
v 0.152301 0.953533 0.903861
v 0.130540 0.953533 0.851326
v 0.130540 0.953533 0.912875
v 0.108779 0.953533 0.860339
v 0.108779 0.953533 0.903861
v 0.099765 0.953533 0.882100
v -0.439263 0.471053 0.230776
v 0.439263 0.471053 -0.647750
v 0.439263 0.471053 0.230776
v -0.439263 0.471053 -0.647750
v 0.439263 0.906053 -0.647750
v -0.439263 0.906053 -0.647750
v 0.311582 1.121370 -0.647750
v 0.352263 1.515053 -0.647750
v -0.311582 1.121370 -0.647750
v 0.269049 1.419106 -0.647750
v -0.352263 1.515053 -0.647750
v -0.269049 1.419106 -0.647750
v 0.439263 0.906053 0.230776
v -0.439263 0.906053 0.230776
v 0.352263 1.515053 0.056776
v -0.352263 1.515053 0.056776
v 0.365970 1.419106 -0.550829
v 0.425556 1.002000 -0.550829
v 0.365970 1.419106 -0.016534
v 0.396898 1.202611 0.045322
v 0.425556 1.002000 -0.107958
v 0.339496 0.989706 0.206875
v -0.339496 0.989706 0.206875
v 0.276396 1.431401 0.080677
v -0.276396 1.431401 0.080677
v -0.425556 1.002000 -0.550829
v -0.365970 1.419106 -0.550829
v -0.425556 1.002000 -0.107958
v -0.396898 1.202611 0.045322
v -0.365970 1.419106 -0.016534
v 0.265263 0.732053 1.013776
v 0.178263 0.471053 0.230776
v 0.265263 0.732053 0.230776
v 0.178263 0.471053 1.013776
v 0.265263 0.862553 1.013776
v 0.265263 0.862553 0.230776
v -0.178263 0.471053 1.013776
v -0.265263 0.732053 0.230776
v -0.178263 0.471053 0.230776
v -0.265263 0.732053 1.013776
v -0.265263 0.862553 0.230776
v -0.265263 0.862553 1.013776
v 0.439263 1.039676 0.154486
v 0.576723 1.039676 0.230776
v 0.576723 1.039676 0.154486
v 0.439263 1.039676 0.230776
v 0.439263 0.819053 0.230776
v 0.576723 0.819053 0.230776
v 0.439263 0.819053 0.154486
v 0.576723 0.819053 0.154486
v -0.576723 1.039676 0.154486
v -0.439263 1.039676 0.230776
v -0.439263 1.039676 0.154486
v -0.576723 1.039676 0.230776
v -0.576723 0.819053 0.230776
v -0.576723 0.819053 0.154486
v -0.439263 0.819053 0.154486
v -0.439263 0.819053 0.230776
v -0.395763 1.515053 0.143776
v 0.395763 1.515053 -0.734750
v 0.395763 1.515053 0.143776
v -0.395763 1.515053 -0.734750
v -0.395763 1.602053 -0.734750
v 0.395763 1.602053 0.100276
v 0.395763 1.602053 -0.734750
v -0.395763 1.602053 0.100276
v -0.395763 1.558553 0.143776
v 0.395763 1.558553 0.143776
v 0.221763 0.906053 0.230776
v 0.221763 0.906053 1.013776
v -0.221763 0.906053 1.013776
v -0.178263 0.819053 1.013776
v -0.178263 0.645053 1.013776
v -0.091263 0.819053 1.013776
v 0.091263 0.819053 1.013776
v -0.091263 0.645053 1.013776
v 0.178263 0.819053 1.013776
v 0.091263 0.645053 1.013776
v 0.178263 0.645053 1.013776
v -0.221763 0.906053 0.230776
v -0.339496 0.989706 0.206875
v 0.339496 0.989706 0.206875
v 0.425556 1.002000 -0.550829
v 0.425556 1.002000 -0.107958
v 0.396898 1.202611 0.045322
v -0.425556 1.002000 -0.107958
v -0.425556 1.002000 -0.550829
v -0.396898 1.202611 0.045322
v -0.269049 1.419106 -0.647750
v 0.311582 1.121370 -0.647750
v -0.311582 1.121370 -0.647750
v 0.269049 1.419106 -0.647750
v 0.178263 0.645053 1.013776
v 0.091263 0.819053 1.013776
v 0.091263 0.645053 1.013776
v 0.178263 0.819053 1.013776
v -0.091263 0.645053 1.013776
v -0.178263 0.819053 1.013776
v -0.178263 0.645053 1.013776
v -0.091263 0.819053 1.013776
v -0.144213 1.702053 -0.199724
v -0.299000 1.702053 0.000276
v -0.144213 1.702053 0.000276
v -0.299000 1.702053 -0.199724
v -0.350000 1.602053 -0.199724
v -0.144213 1.602053 -0.199724
v -0.350000 1.602053 0.000276
v -0.144213 1.602053 0.000276
v 0.299000 1.702053 0.000276
v 0.350000 1.602053 -0.199724
v 0.299000 1.702053 -0.199724
v 0.350000 1.602053 0.000276
v 0.144213 1.602053 0.000276
v 0.144213 1.702053 0.000276
v 0.144213 1.702053 -0.199724
v 0.144213 1.602053 -0.199724
v -0.144213 1.702053 -0.199724
v 0.144213 1.602053 -0.199724
v -0.144213 1.602053 -0.199724
v 0.144213 1.702053 -0.199724
v 0.144213 1.602053 0.000276
v -0.144213 1.702053 0.000276
v -0.144213 1.602053 0.000276
v 0.144213 1.702053 0.000276
v 0.300000 0.596825 1.100776
v 0.400000 0.596825 1.150776
v 0.400000 0.596825 1.100776
v 0.300000 0.596825 1.200776
v 0.300000 0.596825 1.000776
v 0.200000 0.596825 1.100776
v 0.200000 0.596825 1.000776
v -0.500000 0.396825 1.100776
v -0.300000 0.396825 1.200776
v -0.300000 0.396825 1.100776
v -0.400000 0.396825 1.200776
v -0.413053 0.396825 1.199921
v -0.425882 0.396825 1.197369
v -0.438268 0.396825 1.193164
v -0.450000 0.396825 1.187379
v -0.460876 0.396825 1.180112
v -0.470711 0.396825 1.171487
v -0.479335 0.396825 1.161652
v -0.486602 0.396825 1.150776
v -0.492388 0.396825 1.139045
v -0.496593 0.396825 1.126658
v -0.499144 0.396825 1.113829
v 0.300000 0.396825 1.100776
v 0.499144 0.396825 1.113829
v 0.500000 0.396825 1.100776
v 0.496593 0.396825 1.126658
v 0.492388 0.396825 1.139045
v 0.486602 0.396825 1.150776
v 0.479335 0.396825 1.161652
v 0.470711 0.396825 1.171487
v 0.460876 0.396825 1.180112
v 0.450000 0.396825 1.187379
v 0.438268 0.396825 1.193164
v 0.425882 0.396825 1.197369
v 0.413053 0.396825 1.199921
v 0.400000 0.396825 1.200776
v 0.300000 0.396825 1.200776
v 0.200000 0.696825 1.100776
v 0.300000 0.696825 1.175776
v 0.300000 0.696825 1.100776
v 0.200000 0.696825 1.175776
v -0.300000 0.696825 1.100776
v -0.200000 0.696825 1.175776
v -0.200000 0.696825 1.100776
v -0.300000 0.696825 1.175776
v 0.200000 0.496825 1.100776
v 0.200000 0.496825 1.000776
v 0.200000 0.396825 1.100776
v 0.200000 0.496825 1.125776
v 0.200000 0.396825 1.200776
v 0.200000 0.596825 1.125776
v 0.200000 0.496825 1.175776
v 0.200000 0.596825 1.175776
v 0.200000 0.596825 1.200776
v 0.300000 0.496825 1.200776
v 0.300000 0.496825 1.100776
v 0.300000 0.496825 1.000776
v -0.200000 0.596825 1.100776
v -0.200000 0.596825 1.125776
v -0.200000 0.596825 1.175776
v -0.200000 0.596825 1.200776
v -0.200000 0.496825 1.175776
v -0.200000 0.396825 1.200776
v -0.200000 0.496825 1.125776
v -0.200000 0.396825 1.100776
v -0.200000 0.496825 1.100776
v -0.200000 0.596825 1.000776
v -0.200000 0.496825 1.000776
v -0.300000 0.596825 1.200776
v -0.300000 0.596825 1.100776
v -0.300000 0.596825 1.000776
v -0.300000 0.496825 1.100776
v -0.300000 0.496825 1.000776
v -0.300000 0.496825 1.200776
v 0.460876 0.271053 1.180112
v 0.470711 0.271053 1.171487
v 0.438268 0.271053 1.193164
v 0.450000 0.271053 1.187379
v 0.425882 0.271053 1.197369
v 0.400000 0.271053 1.200776
v 0.413053 0.271053 1.199921
v 0.496593 0.271053 1.126658
v 0.492388 0.271053 1.139045
v 0.486602 0.271053 1.150776
v 0.479335 0.271053 1.161652
v 0.499144 0.271053 1.113829
v 0.500000 0.271053 1.100776
v -0.470711 0.271053 1.171487
v -0.460876 0.271053 1.180112
v -0.499144 0.271053 1.113829
v -0.500000 0.271053 1.100776
v -0.425882 0.271053 1.197369
v -0.413053 0.271053 1.199921
v -0.486602 0.271053 1.150776
v -0.492388 0.271053 1.139045
v -0.479335 0.271053 1.161652
v -0.496593 0.271053 1.126658
v -0.400000 0.271053 1.200776
v -0.450000 0.271053 1.187379
v -0.438268 0.271053 1.193164
v 0.400000 0.496825 1.100776
v -0.400000 0.596825 1.100776
v -0.400000 0.496825 1.100776
v -0.400000 0.596825 1.150776
v 0.400000 0.496825 1.150776
v -0.400000 0.496825 1.150776
vt 0.468750 0.475000
vt 0.468750 0.275000
vt 0.468750 0.332143
vt 0.468750 0.417857
vt 0.468750 0.337934
vt 0.468750 0.355595
vt 0.468750 0.432362
vt 0.468750 0.284518
vt 0.468750 0.430723
vt 0.468750 0.408722
vt 0.468750 0.440569
vt 0.468750 0.466243
vt 0.468750 0.438227
vt 0.468750 0.373724
vt 0.468750 0.399727
vt 0.468750 0.328114
vt 0.468750 0.346501
vt 0.468750 0.315000
vt 0.468750 0.383696
vt 0.468750 0.358333
vt 0.468750 0.399582
vt 0.468750 0.456619
vt 0.468750 0.376714
vt 0.468750 0.415145
vt 0.468750 0.374359
vt 0.468750 0.458975
vt 0.468750 0.395000
vt 0.468750 0.455000
vt 0.843750 0.332143
vt 0.843750 0.275000
vt 0.843750 0.417857
vt 0.843750 0.475000
vt 0.843750 0.376714
vt 0.843750 0.415145
vt 0.843750 0.375000
vt 0.843750 0.455000
vt 0.843750 0.435000
vt 0.843750 0.395000
vt 0.843750 0.355000
vt 0.093750 0.225000
vt 0.093750 0.025000
vt 0.093750 0.219433
vt 0.093750 0.030567
vt 0.093750 0.121404
vt 0.093750 0.084618
vt 0.468750 0.225000
vt 0.468750 0.025000
vt 0.343750 0.225000
vt 0.343750 0.025000
vt 0.343750 0.475000
vt 0.343750 0.275000
vt 0.468750 0.428026
vt 0.468750 0.334079
vt 0.468750 0.381053
vt 0.343750 0.178027
vt 0.343750 0.131053
vt 0.843750 0.381053
vt 0.468750 0.131053
vt 0.468750 0.178027
vn 0.000000 1.000000 0.000000
vn 0.000000 -1.000000 0.000000
vn 0.000000 -0.316228 0.948683
vn -1.000000 0.000000 0.000000
vn 0.000000 0.000000 -1.000000
vn 1.000000 0.000000 0.000000
vn -0.382683 -0.923879 0.000000
vn -0.923879 -0.382683 0.000000
vn 0.382683 -0.923879 0.000000
vn 0.923879 -0.382683 0.000000
vn -0.923879 0.382683 0.000000
vn -0.382683 0.923879 0.000000
vn 0.000000 0.000000 1.000000
vn 0.382683 0.923879 0.000000
vn 0.923879 0.382683 0.000000
vn 0.000000 -0.382684 0.923880
vn 0.000000 -0.707107 -0.707107
vn 0.000000 0.382684 -0.923880
vn 0.000000 0.923880 -0.382684
vn 0.000000 -0.923880 0.382684
vn 0.000000 0.707107 0.707107
vn 0.000000 -0.965926 0.258819
vn 0.000000 -0.923879 0.382683
vn 0.000000 -0.500000 -0.866025
vn 0.000000 0.965926 0.258819
vn 0.000000 0.866025 0.500000
vn 0.000000 -0.382683 -0.923879
vn 0.000000 -0.866025 -0.500000
vn 0.000000 0.965926 -0.258819
vn 0.000000 -0.965926 -0.258819
vn 0.000000 0.923879 -0.382683
vn 0.000000 0.500000 0.866025
vn 0.000000 0.382683 0.923879
vn -0.382683 0.000000 -0.923879
vn 0.382683 0.000000 -0.923879
vn -0.923879 0.000000 -0.382683
vn 0.923879 0.000000 -0.382683
vn -0.697435 0.164827 -0.697435
vn 0.000000 0.164827 -0.986322
vn 0.697435 0.164827 -0.697435
vn 0.986322 0.164827 0.000000
vn -0.697435 0.164827 0.697435
vn -0.986322 0.164827 0.000000
vn 0.697435 0.164827 0.697435
vn 0.000000 0.164827 0.986322
vn -0.706849 -0.026997 0.706849
vn -0.999636 -0.026997 0.000000
vn 0.000000 -0.026997 0.999636
vn 0.706849 -0.026997 0.706849
vn 0.999636 -0.026997 0.000000
vn 0.706849 -0.026997 -0.706849
vn 0.000000 -0.026997 -0.999636
vn -0.706849 -0.026997 -0.706849
vn 0.382683 -0.923879 -0.000000
vn 0.923879 -0.382683 -0.000000
vn -0.382683 -0.923879 0.000000
vn -0.923879 -0.382683 0.000000
vn 0.923879 0.382683 -0.000000
vn 0.382683 0.923879 -0.000000
vn -0.000000 0.000000 -1.000000
vn -0.382683 0.923879 0.000000
vn -0.923879 0.382683 0.000000
vn 0.672664 0.308297 -0.672664
vn 0.951290 0.308297 0.000000
vn 0.000000 0.308297 -0.951290
vn 0.672664 0.308297 0.672664
vn -0.951290 0.308297 0.000000
vn -0.672664 0.308297 -0.672664
vn -0.672664 0.308297 0.672664
vn 0.000000 0.308297 0.951290
vn 0.989950 0.141421 0.000000
vn 0.000000 0.274721 0.961524
vn -0.989950 0.141421 0.000000
vn 0.987088 -0.160182 0.000000
vn 0.948683 -0.316228 0.000000
vn -0.948683 -0.316228 0.000000
vn -0.987088 -0.160182 0.000000
vn 0.000000 0.000000 1.000000
vn 0.000000 0.607130 -0.794603
vn 0.000000 0.923879 0.382683
vn 0.000000 -0.000000 1.000000
vn -0.522338 0.852738 0.000000
vn -0.890836 0.454326 0.000000
vn 0.522338 0.852738 0.000000
vn 0.890836 0.454326 0.000000
vn 0.000000 0.707107 -0.707107
vn 0.000000 0.242536 0.970143
vn 0.000000 0.122183 0.992508
vn 0.707107 0.000000 0.707107
vn 0.608761 0.000000 0.793353
vn 0.500000 0.000000 0.866025
vn 0.382683 0.000000 0.923879
vn 0.258819 0.000000 0.965926
vn 0.130526 0.000000 0.991445
vn 0.032719 0.000000 0.999465
vn 0.923879 0.000000 0.382683
vn 0.965926 0.000000 0.258819
vn 0.866025 0.000000 0.500000
vn 0.793353 0.000000 0.608761
vn 0.991445 0.000000 0.130526
vn 0.997859 0.000000 0.065403
vn -0.608761 0.000000 0.793353
vn -0.707107 0.000000 0.707107
vn -0.991445 0.000000 0.130526
vn -0.997859 0.000000 0.065403
vn -0.130526 0.000000 0.991445
vn -0.258819 0.000000 0.965926
vn -0.866025 0.000000 0.500000
vn -0.923879 0.000000 0.382683
vn -0.793353 0.000000 0.608761
vn -0.965926 0.000000 0.258819
vn -0.032719 0.000000 0.999465
vn -0.500000 0.000000 0.866025
vn -0.382683 0.000000 0.923879
vn 0.850651 0.000000 0.525731
vn 0.447214 0.000000 0.894427
vn -0.850651 0.000000 0.525731
vn -0.447214 0.000000 0.894427
usemtl colormap
f 1/1/1 2/1/1 3/1/1
f 2/1/1 1/1/1 4/1/1
f 5/2/2 6/2/2 7/2/2
f 6/2/2 5/2/2 8/2/2
f 2/1/3 5/2/3 7/2/3
f 5/2/3 2/1/3 4/1/3
f 5/2/4 1/1/4 8/2/4
f 1/1/4 5/2/4 4/1/4
f 1/1/5 6/2/5 8/2/5
f 6/2/5 1/1/5 3/1/5
f 2/1/6 6/2/6 3/1/6
f 6/2/6 2/1/6 7/2/6
f 9/2/7 10/3/8 11/2/7
f 10/3/8 9/2/7 12/3/8
f 13/2/9 11/2/7 14/2/9
f 11/2/7 13/2/9 9/2/7
f 15/3/10 14/2/9 16/3/10
f 14/2/9 15/3/10 13/2/9
f 17/4/11 18/1/12 19/1/12
f 18/1/12 17/4/11 20/4/11
f 12/3/8 17/4/11 10/3/8
f 17/4/11 12/3/8 20/4/11
f 15/3/13 9/2/13 13/2/13
f 9/2/13 15/3/13 12/3/13
f 12/3/13 15/3/13 21/4/13
f 12/3/13 21/4/13 20/4/13
f 20/4/13 21/4/13 22/1/13
f 20/4/13 22/1/13 18/1/13
f 19/1/12 22/1/14 23/1/14
f 22/1/14 19/1/12 18/1/12
f 21/4/15 16/3/10 24/4/15
f 16/3/10 21/4/15 15/3/10
f 23/1/14 21/4/15 24/4/15
f 21/4/15 23/1/14 22/1/14
f 25/5/16 26/2/13 27/2/13
f 26/2/13 25/5/16 28/5/16
f 26/2/2 29/2/17 27/2/2
f 29/2/17 26/2/2 30/2/17
f 31/6/18 29/2/17 30/2/17
f 29/2/17 31/6/18 32/6/18
f 31/6/18 33/1/19 32/6/18
f 33/1/19 31/6/18 34/1/19
f 35/7/2 36/7/20 37/7/2
f 36/7/20 35/7/2 38/7/20
f 38/7/20 25/5/16 36/7/20
f 25/5/16 38/7/20 28/5/16
f 34/1/19 39/1/21 33/1/19
f 39/1/21 34/1/19 40/1/21
f 39/1/21 35/7/13 37/7/13
f 35/7/13 39/1/21 40/1/21
f 32/6/6 27/2/6 29/2/6
f 27/2/6 32/6/6 25/5/6
f 25/5/6 32/6/6 33/1/6
f 25/5/6 33/1/6 36/7/6
f 36/7/6 33/1/6 39/1/6
f 36/7/6 39/1/6 37/7/6
f 26/2/4 31/6/4 30/2/4
f 31/6/4 26/2/4 28/5/4
f 31/6/4 28/5/4 34/1/4
f 34/1/4 28/5/4 38/7/4
f 34/1/4 38/7/4 40/1/4
f 40/1/4 38/7/4 35/7/4
f 41/6/6 42/2/6 43/2/6
f 42/2/6 41/6/6 44/5/6
f 44/5/6 41/6/6 45/1/6
f 44/5/6 45/1/6 46/7/6
f 46/7/6 45/1/6 47/1/6
f 46/7/6 47/1/6 48/7/6
f 49/2/4 50/6/4 51/2/4
f 50/6/4 49/2/4 52/5/4
f 50/6/4 52/5/4 53/1/4
f 53/1/4 52/5/4 54/7/4
f 53/1/4 54/7/4 55/1/4
f 55/1/4 54/7/4 56/7/4
f 44/5/16 49/2/13 42/2/13
f 49/2/13 44/5/16 52/5/16
f 49/2/2 43/2/17 42/2/2
f 43/2/17 49/2/2 51/2/17
f 50/6/18 43/2/17 51/2/17
f 43/2/17 50/6/18 41/6/18
f 50/6/18 45/1/19 41/6/18
f 45/1/19 50/6/18 53/1/19
f 53/1/19 47/1/21 45/1/19
f 47/1/21 53/1/19 55/1/21
f 47/1/21 56/7/13 48/7/13
f 56/7/13 47/1/21 55/1/21
f 56/7/2 46/7/20 48/7/2
f 46/7/20 56/7/2 54/7/20
f 54/7/20 44/5/16 46/7/20
f 44/5/16 54/7/20 52/5/16
f 57/8/22 58/2/22 59/8/22
f 58/2/22 57/8/22 60/2/22
f 61/9/22 62/10/23 63/9/22
f 62/10/23 61/9/22 64/10/23
f 65/11/24 62/10/24 64/10/24
f 62/10/24 65/11/24 66/11/24
f 67/1/1 68/12/25 69/12/25
f 68/12/25 67/1/1 70/1/1
f 69/12/25 71/11/26 72/11/26
f 71/11/26 69/12/25 68/12/25
f 64/10/4 73/12/4 65/11/4
f 73/12/4 64/10/4 61/9/4
f 73/12/4 61/9/4 70/1/4
f 70/1/4 61/9/4 74/13/4
f 70/1/4 74/13/4 75/9/4
f 70/1/4 75/9/4 68/12/4
f 68/12/4 75/9/4 76/10/4
f 68/12/4 76/10/4 71/11/4
f 71/11/4 76/10/4 77/14/4
f 71/11/4 77/14/4 78/15/4
f 78/15/4 77/14/4 79/16/4
f 78/15/4 79/16/4 80/17/4
f 80/17/4 79/16/4 60/2/4
f 80/17/4 60/2/4 57/8/4
f 79/16/24 58/2/27 60/2/27
f 58/2/27 79/16/24 81/16/24
f 77/14/17 81/16/24 79/16/24
f 81/16/24 77/14/17 82/14/17
f 77/14/17 83/10/28 82/14/17
f 83/10/28 77/14/17 76/10/28
f 84/12/29 70/1/1 67/1/1
f 70/1/1 84/12/29 73/12/29
f 76/10/28 85/9/30 83/10/28
f 85/9/30 76/10/28 75/9/30
f 84/12/6 62/10/6 66/11/6
f 62/10/6 84/12/6 63/9/6
f 63/9/6 84/12/6 67/1/6
f 63/9/6 67/1/6 86/13/6
f 86/13/6 67/1/6 69/12/6
f 86/13/6 69/12/6 85/9/6
f 85/9/6 69/12/6 83/10/6
f 83/10/6 69/12/6 72/11/6
f 83/10/6 72/11/6 82/14/6
f 82/14/6 72/11/6 87/15/6
f 82/14/6 87/15/6 81/16/6
f 81/16/6 87/15/6 88/17/6
f 81/16/6 88/17/6 58/2/6
f 58/2/6 88/17/6 59/8/6
f 72/11/26 78/15/21 87/15/21
f 78/15/21 72/11/26 71/11/26
f 66/11/31 73/12/29 84/12/29
f 73/12/29 66/11/31 65/11/31
f 88/17/32 78/15/21 80/17/32
f 78/15/21 88/17/32 87/15/21
f 59/8/33 80/17/32 57/8/33
f 80/17/32 59/8/33 88/17/32
f 75/9/30 86/13/2 85/9/30
f 86/13/2 75/9/30 74/13/2
f 74/13/2 63/9/22 86/13/2
f 63/9/22 74/13/2 61/9/22
f 89/1/34 90/2/35 91/2/34
f 90/2/35 89/1/34 92/1/35
f 93/2/2 94/2/2 95/2/2
f 94/2/2 93/2/2 90/2/2
f 90/2/2 93/2/2 91/2/2
f 91/2/2 93/2/2 96/2/2
f 92/1/1 97/1/1 98/1/1
f 97/1/1 92/1/1 99/1/1
f 99/1/1 92/1/1 89/1/1
f 99/1/1 89/1/1 100/1/1
f 93/2/4 100/1/36 96/2/36
f 100/1/36 93/2/4 99/1/4
f 96/2/36 89/1/34 91/2/34
f 89/1/34 96/2/36 100/1/36
f 97/1/6 94/2/37 98/1/37
f 94/2/37 97/1/6 95/2/6
f 98/1/37 90/2/35 92/1/35
f 90/2/35 98/1/37 94/2/37
f 101/1/5 102/2/5 103/2/5
f 102/2/5 101/1/5 104/1/5
f 105/1/13 106/2/13 107/2/13
f 106/2/13 105/1/13 108/1/13
f 106/2/4 101/1/4 103/2/4
f 101/1/4 106/2/4 108/1/4
f 106/2/2 102/2/2 107/2/2
f 102/2/2 106/2/2 103/2/2
f 105/1/6 102/2/6 104/1/6
f 102/2/6 105/1/6 107/2/6
f 101/1/1 105/1/1 104/1/1
f 105/1/1 101/1/1 108/1/1
f 109/13/2 110/9/22 111/13/2
f 110/9/22 109/13/2 112/9/22
f 113/12/6 114/10/6 115/11/6
f 114/10/6 113/12/6 110/9/6
f 110/9/6 113/12/6 116/1/6
f 110/9/6 116/1/6 111/13/6
f 111/13/6 116/1/6 117/12/6
f 111/13/6 117/12/6 118/9/6
f 118/9/6 117/12/6 119/10/6
f 119/10/6 117/12/6 120/11/6
f 119/10/6 120/11/6 121/14/6
f 121/14/6 120/11/6 122/15/6
f 121/14/6 122/15/6 123/16/6
f 123/16/6 122/15/6 124/17/6
f 123/16/6 124/17/6 125/2/6
f 125/2/6 124/17/6 126/8/6
f 127/11/24 114/10/24 128/10/24
f 114/10/24 127/11/24 115/11/24
f 126/8/33 129/17/32 130/8/33
f 129/17/32 126/8/33 124/17/32
f 112/9/22 114/10/23 110/9/22
f 114/10/23 112/9/22 128/10/23
f 131/14/17 119/10/28 121/14/17
f 119/10/28 131/14/17 132/10/28
f 116/1/1 133/12/25 117/12/25
f 133/12/25 116/1/1 134/1/1
f 113/12/29 134/1/1 116/1/1
f 134/1/1 113/12/29 135/12/29
f 128/10/4 135/12/4 127/11/4
f 135/12/4 128/10/4 112/9/4
f 135/12/4 112/9/4 134/1/4
f 134/1/4 112/9/4 109/13/4
f 134/1/4 109/13/4 136/9/4
f 134/1/4 136/9/4 133/12/4
f 133/12/4 136/9/4 132/10/4
f 133/12/4 132/10/4 137/11/4
f 137/11/4 132/10/4 131/14/4
f 137/11/4 131/14/4 138/15/4
f 138/15/4 131/14/4 139/16/4
f 138/15/4 139/16/4 129/17/4
f 129/17/4 139/16/4 140/2/4
f 129/17/4 140/2/4 130/8/4
f 120/11/26 138/15/21 122/15/21
f 138/15/21 120/11/26 137/11/26
f 130/8/22 125/2/22 126/8/22
f 125/2/22 130/8/22 140/2/22
f 136/9/30 111/13/2 118/9/30
f 111/13/2 136/9/30 109/13/2
f 139/16/24 125/2/27 140/2/27
f 125/2/27 139/16/24 123/16/24
f 132/10/28 118/9/30 119/10/28
f 118/9/30 132/10/28 136/9/30
f 124/17/32 138/15/21 129/17/32
f 138/15/21 124/17/32 122/15/21
f 131/14/17 123/16/24 139/16/24
f 123/16/24 131/14/17 121/14/17
f 115/11/31 135/12/29 113/12/29
f 135/12/29 115/11/31 127/11/31
f 117/12/25 137/11/26 120/11/26
f 137/11/26 117/12/25 133/12/25
f 141/18/1 142/18/1 143/18/1
f 142/18/1 141/18/1 144/18/1
f 144/18/1 141/18/1 145/18/1
f 146/18/1 142/18/1 144/18/1
f 145/18/1 141/18/1 147/18/1
f 145/18/1 147/18/1 148/18/1
f 142/18/1 146/18/1 149/18/1
f 149/18/1 146/18/1 150/18/1
f 149/18/1 150/18/1 151/18/1
f 148/18/1 147/18/1 152/18/1
f 149/18/1 151/18/1 153/18/1
f 148/18/1 152/18/1 154/18/1
f 153/18/1 151/18/1 155/18/1
f 154/18/1 152/18/1 155/18/1
f 153/18/1 155/18/1 152/18/1
f 153/18/1 152/18/1 156/18/1
f 152/18/38 157/2/39 158/2/38
f 157/2/39 152/18/38 147/18/39
f 141/18/40 159/2/41 160/2/40
f 159/2/41 141/18/40 143/18/41
f 147/18/39 160/2/40 157/2/39
f 160/2/40 147/18/39 141/18/40
f 161/2/42 156/18/43 162/2/43
f 156/18/43 161/2/42 153/18/42
f 162/2/43 152/18/38 158/2/38
f 152/18/38 162/2/43 156/18/43
f 142/18/44 163/2/45 164/2/44
f 163/2/45 142/18/44 149/18/45
f 149/18/45 161/2/42 163/2/45
f 161/2/42 149/18/45 153/18/42
f 143/18/41 164/2/44 159/2/41
f 164/2/44 143/18/41 142/18/44
f 165/1/1 166/1/1 167/1/1
f 166/1/1 165/1/1 168/1/1
f 166/1/1 168/1/1 169/1/1
f 169/1/1 168/1/1 170/1/1
f 169/1/1 170/1/1 171/1/1
f 171/1/1 170/1/1 172/1/1
f 151/18/46 172/1/47 155/18/47
f 172/1/47 151/18/46 171/1/46
f 169/1/48 151/18/46 150/18/48
f 151/18/46 169/1/48 171/1/46
f 166/1/49 150/18/48 146/18/49
f 150/18/48 166/1/49 169/1/48
f 167/1/50 145/18/51 165/1/51
f 145/18/51 167/1/50 144/18/50
f 167/1/50 146/18/49 144/18/50
f 146/18/49 167/1/50 166/1/49
f 168/1/52 145/18/51 148/18/52
f 145/18/51 168/1/52 165/1/51
f 170/1/53 148/18/52 154/18/53
f 148/18/52 170/1/53 168/1/52
f 154/18/53 172/1/47 170/1/53
f 172/1/47 154/18/53 155/18/47
f 173/2/54 174/3/55 175/2/54
f 174/3/55 173/2/54 176/3/55
f 177/2/56 175/2/54 178/2/56
f 175/2/54 177/2/56 173/2/54
f 179/3/57 178/2/56 180/3/57
f 178/2/56 179/3/57 177/2/56
f 181/4/58 182/1/59 183/1/59
f 182/1/59 181/4/58 184/4/58
f 176/3/55 181/4/58 174/3/55
f 181/4/58 176/3/55 184/4/58
f 179/3/60 173/2/60 177/2/60
f 173/2/60 179/3/60 176/3/60
f 176/3/60 179/3/60 185/4/60
f 176/3/60 185/4/60 184/4/60
f 184/4/60 185/4/60 186/1/60
f 184/4/60 186/1/60 182/1/60
f 183/1/59 186/1/61 187/1/61
f 186/1/61 183/1/59 182/1/59
f 185/4/62 180/3/57 188/4/62
f 180/3/57 185/4/62 179/3/57
f 187/1/61 185/4/62 188/4/62
f 185/4/62 187/1/61 186/1/61
f 189/19/38 190/2/39 191/2/38
f 190/2/39 189/19/38 192/19/39
f 193/19/40 194/2/41 195/2/40
f 194/2/41 193/19/40 196/19/41
f 192/19/39 195/2/40 190/2/39
f 195/2/40 192/19/39 193/19/40
f 197/2/42 198/19/43 199/2/43
f 198/19/43 197/2/42 200/19/42
f 199/2/43 189/19/38 191/2/38
f 189/19/38 199/2/43 198/19/43
f 201/19/44 202/2/45 203/2/44
f 202/2/45 201/19/44 204/19/45
f 204/19/45 197/2/42 202/2/45
f 197/2/42 204/19/45 200/19/42
f 201/19/44 194/2/41 196/19/41
f 194/2/41 201/19/44 203/2/44
f 205/1/1 206/1/1 207/1/1
f 206/1/1 205/1/1 208/1/1
f 206/1/1 208/1/1 209/1/1
f 209/1/1 208/1/1 210/1/1
f 209/1/1 210/1/1 211/1/1
f 211/1/1 210/1/1 212/1/1
f 193/19/1 201/19/1 196/19/1
f 201/19/1 193/19/1 213/19/1
f 213/19/1 193/19/1 214/19/1
f 215/19/1 201/19/1 213/19/1
f 214/19/1 193/19/1 192/19/1
f 201/19/1 215/19/1 204/19/1
f 214/19/1 192/19/1 216/19/1
f 204/19/1 215/19/1 217/19/1
f 216/19/1 192/19/1 189/19/1
f 204/19/1 217/19/1 200/19/1
f 216/19/1 189/19/1 218/19/1
f 200/19/1 217/19/1 219/19/1
f 218/19/1 189/19/1 220/19/1
f 200/19/1 219/19/1 220/19/1
f 200/19/1 220/19/1 189/19/1
f 200/19/1 189/19/1 198/19/1
f 205/1/63 213/19/64 214/19/63
f 213/19/64 205/1/63 207/1/64
f 208/1/65 214/19/63 216/19/65
f 214/19/63 208/1/65 205/1/63
f 206/1/66 213/19/64 207/1/64
f 213/19/64 206/1/66 215/19/66
f 220/19/67 210/1/68 218/19/68
f 210/1/68 220/19/67 212/1/67
f 220/19/67 211/1/69 212/1/67
f 211/1/69 220/19/67 219/19/69
f 210/1/68 216/19/65 218/19/68
f 216/19/65 210/1/68 208/1/65
f 209/1/70 219/19/69 217/19/70
f 219/19/69 209/1/70 211/1/69
f 206/1/66 217/19/70 215/19/66
f 217/19/70 206/1/66 209/1/70
f 221/2/2 222/2/2 223/2/2
f 222/2/2 221/2/2 224/2/2
f 224/2/5 225/20/5 222/2/5
f 225/20/5 224/2/5 226/20/5
f 227/21/5 225/20/5 226/20/5
f 225/20/5 227/21/5 228/1/5
f 227/21/5 226/20/5 229/21/5
f 228/1/5 227/21/5 230/22/5
f 231/1/5 229/21/5 226/20/5
f 228/1/5 230/22/5 232/22/5
f 229/21/5 231/1/5 232/22/5
f 232/22/5 231/1/5 228/1/5
f 233/20/6 222/2/6 225/20/6
f 222/2/6 233/20/6 223/2/6
f 233/20/13 221/2/13 223/2/13
f 221/2/13 233/20/13 234/20/13
f 224/2/4 234/20/4 226/20/4
f 234/20/4 224/2/4 221/2/4
f 231/1/1 235/1/1 228/1/1
f 235/1/1 231/1/1 236/1/1
f 228/1/71 237/22/71 225/20/71
f 237/22/71 228/1/71 235/1/71
f 238/23/71 225/20/71 237/22/71
f 237/22/71 235/1/71 239/22/71
f 239/22/71 235/1/71 240/24/71
f 225/20/71 238/23/71 233/20/71
f 233/20/71 240/24/71 235/1/71
f 233/20/71 238/23/71 241/23/71
f 233/20/71 241/23/71 240/24/71
f 233/20/72 242/25/72 234/20/72
f 242/25/72 233/20/72 235/1/72
f 243/25/72 234/20/72 242/25/72
f 242/25/72 235/1/72 244/26/72
f 234/20/72 243/25/72 236/1/72
f 244/26/72 235/1/72 245/26/72
f 236/1/72 243/25/72 245/26/72
f 236/1/72 245/26/72 235/1/72
f 226/20/73 246/23/73 231/1/73
f 246/23/73 226/20/73 234/20/73
f 247/22/73 231/1/73 246/23/73
f 246/23/73 234/20/73 248/23/73
f 248/23/73 234/20/73 249/24/73
f 231/1/73 247/22/73 236/1/73
f 249/24/73 234/20/73 236/1/73
f 236/1/73 247/22/73 250/22/73
f 236/1/73 250/22/73 249/24/73
f 251/27/74 252/2/75 253/27/74
f 252/2/75 251/27/74 254/2/75
f 255/28/15 253/27/74 256/28/15
f 253/27/74 255/28/15 251/27/74
f 257/2/76 258/27/77 259/2/76
f 258/27/77 257/2/76 260/27/77
f 260/27/77 261/28/11 258/27/77
f 261/28/11 260/27/77 262/28/11
f 10/29/5 14/30/5 11/30/5
f 14/30/5 10/29/5 16/29/5
f 16/29/5 10/29/5 17/31/5
f 16/29/5 17/31/5 24/31/5
f 24/31/5 17/31/5 19/32/5
f 24/31/5 19/32/5 23/32/5
f 174/29/78 178/30/78 175/30/78
f 178/30/78 174/29/78 180/29/78
f 180/29/78 174/29/78 181/31/78
f 180/29/78 181/31/78 188/31/78
f 188/31/78 181/31/78 183/32/78
f 188/31/78 183/32/78 187/32/78
f 248/33/79 240/34/79 241/33/79
f 240/34/79 248/33/79 249/34/79
f 263/32/1 264/32/1 265/32/1
f 264/32/1 263/32/1 266/32/1
f 264/32/13 267/30/13 268/30/13
f 267/30/13 264/32/13 266/32/13
f 267/30/4 263/32/4 269/30/4
f 263/32/4 267/30/4 266/32/4
f 267/30/2 270/30/2 268/30/2
f 270/30/2 267/30/2 269/30/2
f 264/32/6 270/30/6 265/32/6
f 270/30/6 264/32/6 268/30/6
f 271/32/1 272/32/1 273/32/1
f 272/32/1 271/32/1 274/32/1
f 275/30/4 271/32/4 276/30/4
f 271/32/4 275/30/4 274/32/4
f 272/32/6 277/30/6 273/32/6
f 277/30/6 272/32/6 278/30/6
f 275/30/2 277/30/2 278/30/2
f 277/30/2 275/30/2 276/30/2
f 272/32/13 275/30/13 278/30/13
f 275/30/13 272/32/13 274/32/13
f 279/30/2 280/30/2 281/30/2
f 280/30/2 279/30/2 282/30/2
f 283/32/1 284/32/80 285/32/1
f 284/32/80 283/32/1 286/32/80
f 279/30/4 283/32/4 282/30/4
f 283/32/4 279/30/4 286/32/4
f 286/32/4 279/30/4 287/35/4
f 284/32/6 280/30/6 285/32/6
f 280/30/6 284/32/6 281/30/6
f 281/30/6 284/32/6 288/35/6
f 283/32/5 280/30/5 282/30/5
f 280/30/5 283/32/5 285/32/5
f 288/35/33 279/30/13 281/30/13
f 279/30/13 288/35/33 287/35/33
f 286/32/80 288/35/33 284/32/80
f 288/35/33 286/32/80 287/35/33
f 289/32/14 255/36/15 256/36/15
f 255/36/15 289/32/14 290/32/14
f 262/36/13 290/32/13 291/32/13
f 262/36/13 255/36/13 290/32/13
f 262/36/13 292/37/13 255/36/13
f 260/38/13 292/37/13 262/36/13
f 260/38/13 293/39/13 292/37/13
f 294/37/13 255/36/13 292/37/13
f 257/30/13 293/39/13 260/38/13
f 295/37/13 255/36/13 294/37/13
f 296/39/13 295/37/13 294/37/13
f 297/37/13 255/36/13 295/37/13
f 295/37/13 296/39/13 298/39/13
f 293/39/13 298/39/13 296/39/13
f 297/37/13 251/38/13 255/36/13
f 293/39/13 299/39/13 298/39/13
f 293/39/13 257/30/13 299/39/13
f 299/39/13 251/38/13 297/37/13
f 254/30/13 299/39/13 257/30/13
f 299/39/13 254/30/13 251/38/13
f 257/30/2 252/30/2 254/30/2
f 252/30/2 257/30/2 259/30/2
f 258/38/5 252/30/5 259/30/5
f 252/30/5 258/38/5 253/38/5
f 253/38/5 258/38/5 261/36/5
f 253/38/5 261/36/5 256/36/5
f 256/36/5 261/36/5 300/32/5
f 256/36/5 300/32/5 289/32/5
f 300/32/12 290/32/14 289/32/14
f 290/32/14 300/32/12 291/32/12
f 261/36/11 291/32/12 300/32/12
f 291/32/12 261/36/11 262/36/11
f 263/40/5 270/41/5 269/41/5
f 270/41/5 263/40/5 265/40/5
f 271/40/5 277/41/5 276/41/5
f 277/41/5 271/40/5 273/40/5
f 244/40/72 301/41/72 302/41/72
f 301/41/72 244/40/72 245/40/72
f 239/42/71 303/43/71 237/42/71
f 303/43/71 239/42/71 304/43/71
f 304/43/71 239/42/71 305/44/71
f 306/43/73 247/42/73 307/43/73
f 247/42/73 306/43/73 250/42/73
f 250/42/73 306/43/73 308/44/73
f 309/42/5 310/45/5 311/45/5
f 310/45/5 309/42/5 312/42/5
f 313/41/81 314/41/81 315/41/81
f 314/41/81 313/41/81 316/41/81
f 317/41/81 318/41/81 319/41/81
f 318/41/81 317/41/81 320/41/81
f 321/46/1 322/46/82 323/46/1
f 322/46/82 321/46/1 324/46/82
f 325/47/5 321/46/5 326/47/5
f 321/46/5 325/47/5 324/46/5
f 327/47/83 324/46/82 325/47/83
f 324/46/82 327/47/83 322/46/82
f 323/46/13 327/47/13 328/47/13
f 327/47/13 323/46/13 322/46/13
f 329/48/84 330/49/85 331/48/84
f 330/49/85 329/48/84 332/49/85
f 329/48/13 333/49/13 332/49/13
f 333/49/13 329/48/13 334/48/13
f 335/48/1 329/48/84 331/48/84
f 329/48/84 335/48/1 334/48/1
f 336/49/5 331/48/5 330/49/5
f 331/48/5 336/49/5 335/48/5
f 337/50/86 338/51/5 339/51/5
f 338/51/5 337/50/86 340/50/86
f 341/51/13 342/50/21 343/51/13
f 342/50/21 341/51/13 344/50/21
f 337/50/86 344/50/21 340/50/86
f 344/50/21 337/50/86 342/50/21
f 345/52/1 346/52/1 347/52/1
f 346/52/1 345/52/1 348/52/1
f 349/52/1 350/52/1 345/52/1
f 350/52/1 349/52/1 351/52/1
f 352/53/1 353/53/1 354/53/1
f 353/53/1 352/53/1 355/53/1
f 355/53/1 352/53/1 356/53/1
f 356/53/1 352/53/1 357/53/1
f 357/53/1 352/53/1 358/53/1
f 358/53/1 352/53/1 359/53/1
f 359/53/1 352/53/1 360/53/1
f 360/53/1 352/53/1 361/53/1
f 361/53/1 352/53/1 362/53/1
f 362/53/1 352/53/1 363/53/1
f 363/53/1 352/53/1 364/53/1
f 364/53/1 352/53/1 365/53/1
f 365/53/1 352/53/1 366/53/1
f 367/53/1 368/53/1 369/53/1
f 368/53/1 367/53/1 370/53/1
f 370/53/1 367/53/1 371/53/1
f 371/53/1 367/53/1 372/53/1
f 372/53/1 367/53/1 373/53/1
f 373/53/1 367/53/1 374/53/1
f 374/53/1 367/53/1 375/53/1
f 375/53/1 367/53/1 376/53/1
f 376/53/1 367/53/1 377/53/1
f 377/53/1 367/53/1 378/53/1
f 378/53/1 367/53/1 379/53/1
f 379/53/1 367/53/1 380/53/1
f 380/53/1 367/53/1 381/53/1
f 382/1/1 383/1/1 384/1/1
f 383/1/1 382/1/1 385/1/1
f 386/1/1 387/1/1 388/1/1
f 387/1/1 386/1/1 389/1/1
f 390/54/4 351/52/4 391/54/4
f 351/52/4 390/54/4 350/52/4
f 350/52/4 390/54/4 392/53/4
f 350/52/4 392/53/4 393/54/4
f 350/52/4 393/54/4 382/1/4
f 393/54/4 392/53/4 394/53/4
f 395/52/4 382/1/4 393/54/4
f 393/54/4 394/53/4 396/54/4
f 382/1/4 395/52/4 385/1/4
f 396/54/4 394/53/4 397/52/4
f 385/1/4 395/52/4 397/52/4
f 397/52/4 394/53/4 385/1/4
f 385/1/4 394/53/4 398/52/4
f 367/53/6 399/54/6 381/53/6
f 399/54/6 367/53/6 400/54/6
f 401/54/6 345/52/6 400/54/6
f 345/52/6 401/54/6 349/52/6
f 384/1/6 348/52/6 345/52/6
f 348/52/6 384/1/6 383/1/6
f 387/1/6 402/52/6 388/1/6
f 402/52/6 387/1/6 403/52/6
f 403/52/6 387/1/6 404/52/6
f 404/52/6 387/1/6 405/52/6
f 404/52/6 405/52/6 406/54/6
f 407/53/6 406/54/6 405/52/6
f 407/53/6 408/54/6 406/54/6
f 409/53/6 408/54/6 407/53/6
f 408/54/6 409/53/6 403/52/6
f 402/52/6 403/52/6 409/53/6
f 410/54/6 402/52/6 409/53/6
f 410/54/6 411/52/6 402/52/6
f 411/52/6 410/54/6 412/54/6
f 387/1/87 413/52/88 405/52/88
f 413/52/88 387/1/87 389/1/87
f 348/52/88 385/1/87 398/52/88
f 385/1/87 348/52/88 383/1/87
f 386/1/4 413/52/4 389/1/4
f 413/52/4 386/1/4 414/52/4
f 415/52/4 416/54/4 414/52/4
f 416/54/4 415/52/4 417/54/4
f 354/53/4 418/54/4 416/54/4
f 418/54/4 354/53/4 353/53/4
f 374/53/89 419/2/90 420/2/89
f 419/2/90 374/53/89 375/53/90
f 376/53/91 421/2/92 422/2/91
f 421/2/92 376/53/91 377/53/92
f 377/53/92 423/2/93 421/2/92
f 423/2/93 377/53/92 378/53/93
f 379/53/94 424/2/95 425/2/94
f 424/2/95 379/53/94 380/53/95
f 371/53/96 426/2/97 370/53/97
f 426/2/97 371/53/96 427/2/96
f 372/53/98 427/2/96 371/53/96
f 427/2/96 372/53/98 428/2/98
f 374/53/89 429/2/99 373/53/99
f 429/2/99 374/53/89 420/2/89
f 373/53/99 428/2/98 372/53/98
f 428/2/98 373/53/99 429/2/99
f 370/53/97 430/2/100 368/53/100
f 430/2/100 370/53/97 426/2/97
f 378/53/93 425/2/94 423/2/93
f 425/2/94 378/53/93 379/53/94
f 368/53/100 431/2/101 369/53/101
f 431/2/101 368/53/100 430/2/100
f 375/53/90 422/2/91 419/2/90
f 422/2/91 375/53/90 376/53/91
f 360/53/102 432/2/103 433/2/102
f 432/2/103 360/53/102 361/53/103
f 434/2/104 352/53/105 435/2/105
f 352/53/105 434/2/104 366/53/104
f 356/53/106 436/2/107 437/2/106
f 436/2/107 356/53/106 357/53/107
f 438/2/108 364/53/109 439/2/109
f 364/53/109 438/2/108 363/53/108
f 440/2/110 363/53/108 438/2/108
f 363/53/108 440/2/110 362/53/110
f 441/2/111 366/53/104 434/2/104
f 366/53/104 441/2/111 365/53/111
f 355/53/112 437/2/106 442/2/112
f 437/2/106 355/53/112 356/53/106
f 359/53/113 433/2/102 443/2/113
f 433/2/102 359/53/113 360/53/102
f 439/2/109 365/53/111 441/2/111
f 365/53/111 439/2/109 364/53/109
f 432/2/103 362/53/110 440/2/110
f 362/53/110 432/2/103 361/53/103
f 357/53/107 444/2/114 436/2/107
f 444/2/114 357/53/107 358/53/114
f 358/53/114 443/2/113 444/2/114
f 443/2/113 358/53/114 359/53/113
f 409/53/1 394/53/1 392/53/1
f 394/53/1 409/53/1 407/53/1
f 397/52/13 406/54/13 396/54/13
f 406/54/13 397/52/13 404/52/13
f 403/52/1 397/52/1 395/52/1
f 397/52/1 403/52/1 404/52/1
f 406/54/2 393/54/2 396/54/2
f 393/54/2 406/54/2 408/54/2
f 398/52/88 399/54/13 348/52/88
f 394/53/13 399/54/13 398/52/88
f 399/54/13 394/53/13 381/53/13
f 355/53/112 381/53/13 394/53/13
f 355/53/112 394/53/13 407/53/13
f 355/53/112 380/53/95 381/53/13
f 442/2/112 380/53/95 355/53/112
f 380/53/95 442/2/112 424/2/95
f 355/53/112 407/53/13 353/53/13
f 405/52/88 353/53/13 407/53/13
f 353/53/13 405/52/88 418/54/13
f 418/54/13 405/52/88 413/52/88
f 445/54/5 345/52/5 347/52/5
f 345/52/5 445/54/5 400/54/5
f 382/1/5 345/52/5 350/52/5
f 345/52/5 382/1/5 384/1/5
f 367/53/5 390/54/5 400/54/5
f 390/54/5 367/53/5 392/53/5
f 369/53/5 392/53/5 367/53/5
f 369/53/5 409/53/5 392/53/5
f 369/53/5 354/53/5 409/53/5
f 369/53/5 352/53/5 354/53/5
f 431/2/5 352/53/5 369/53/5
f 352/53/5 431/2/5 435/2/5
f 416/54/5 409/53/5 354/53/5
f 409/53/5 416/54/5 410/54/5
f 446/52/5 416/54/5 447/54/5
f 416/54/5 446/52/5 414/52/5
f 386/1/5 402/52/5 414/52/5
f 402/52/5 386/1/5 388/1/5
f 430/2/2 435/2/2 431/2/2
f 435/2/2 430/2/2 426/2/2
f 435/2/2 426/2/2 427/2/2
f 435/2/2 427/2/2 428/2/2
f 435/2/2 428/2/2 429/2/2
f 435/2/2 429/2/2 420/2/2
f 435/2/2 420/2/2 419/2/2
f 435/2/2 419/2/2 422/2/2
f 435/2/2 422/2/2 421/2/2
f 435/2/2 421/2/2 423/2/2
f 435/2/2 423/2/2 425/2/2
f 435/2/2 425/2/2 424/2/2
f 435/2/2 424/2/2 442/2/2
f 435/2/2 442/2/2 437/2/2
f 435/2/2 437/2/2 436/2/2
f 435/2/2 436/2/2 444/2/2
f 435/2/2 444/2/2 443/2/2
f 435/2/2 443/2/2 433/2/2
f 435/2/2 433/2/2 432/2/2
f 435/2/2 432/2/2 440/2/2
f 435/2/2 440/2/2 438/2/2
f 435/2/2 438/2/2 439/2/2
f 435/2/2 439/2/2 441/2/2
f 435/2/2 441/2/2 434/2/2
f 403/52/5 393/54/5 408/54/5
f 393/54/5 403/52/5 395/52/5
f 351/52/5 401/54/5 391/54/5
f 401/54/5 351/52/5 349/52/5
f 390/54/2 401/54/2 400/54/2
f 401/54/2 390/54/2 391/54/2
f 415/52/5 412/54/5 417/54/5
f 412/54/5 415/52/5 411/52/5
f 410/54/2 417/54/2 412/54/2
f 417/54/2 410/54/2 416/54/2
f 415/52/1 402/52/1 411/52/1
f 402/52/1 415/52/1 414/52/1
f 414/52/1 448/52/1 413/52/1
f 448/52/1 414/52/1 446/52/1
f 346/55/115 445/56/6 347/55/6
f 445/56/6 346/55/115 449/56/115
f 449/56/115 348/55/116 399/56/116
f 348/55/116 449/56/115 346/55/115
f 399/57/2 445/57/2 449/57/2
f 445/57/2 399/57/2 400/57/2
f 450/57/2 416/57/2 418/57/2
f 416/57/2 450/57/2 447/57/2
f 450/58/117 446/59/4 447/58/4
f 446/59/4 450/58/117 448/59/117
f 413/59/118 450/58/117 418/58/118
f 450/58/117 413/59/118 448/59/117
