# Generated by GTAClone/tools/split_car_wheels.py from tractor-police.obj group wheel-front-left
# Kenney Car Kit (CC0 1.0); the split is a derivative work, also CC0.
mtllib colormap.mtl
v 0.041006 0.000000 0.325640
v -0.028623 -0.084282 0.314544
v 0.041006 -0.084282 0.314544
v -0.028623 0.000000 0.325640
v 0.041006 0.325640 0.000000
v -0.028623 0.314544 0.084282
v 0.041006 0.314544 0.084282
v -0.028623 0.325640 0.000000
v -0.028623 -0.325640 0.000000
v 0.041006 -0.314544 -0.084282
v 0.041006 -0.325640 0.000000
v -0.028623 -0.314544 -0.084282
v 0.041006 -0.314544 0.084282
v 0.149553 -0.276794 0.000000
v 0.149553 -0.267363 0.071640
v -0.149553 -0.071218 0.265790
v -0.149553 0.000000 0.275166
v 0.149553 -0.195723 0.195723
v 0.041006 -0.162820 0.282013
v 0.041006 -0.230262 0.230263
v 0.149553 -0.138397 0.239711
v -0.028623 0.084282 -0.314544
v 0.041006 0.000000 -0.325640
v -0.028623 0.000000 -0.325640
v 0.041006 0.084282 -0.314544
v 0.041006 0.162820 -0.282013
v 0.149553 0.195723 -0.195723
v 0.149553 0.138397 -0.239711
v 0.041006 0.230263 -0.230262
v -0.028623 -0.230262 0.230263
v -0.028623 -0.162820 0.282013
v 0.041006 0.282013 0.162820
v -0.028623 0.230263 0.230263
v 0.041006 0.230263 0.230263
v -0.028623 0.282013 0.162820
v 0.041006 0.162820 0.282013
v -0.028623 0.084282 0.314544
v 0.041006 0.084282 0.314544
v -0.028623 0.162820 0.282013
v 0.041006 0.282013 -0.162820
v -0.028623 0.314544 -0.084282
v 0.041006 0.314544 -0.084282
v -0.028623 0.282013 -0.162820
v 0.149553 -0.071640 0.267363
v 0.149553 0.000000 0.276794
v 0.149553 0.138397 0.239711
v 0.149553 0.071640 0.267363
v 0.149553 0.239711 0.138397
v 0.149553 0.195723 0.195723
v 0.149553 -0.239711 -0.138397
v 0.149553 -0.267363 -0.071640
v 0.041006 -0.282013 -0.162820
v 0.149553 0.267363 0.071640
v 0.149553 0.071640 -0.267363
v -0.149553 0.275166 0.000000
v -0.149553 0.265790 -0.071218
v 0.149553 0.267363 -0.071640
v 0.149553 0.276794 0.000000
v 0.041006 -0.282013 0.162820
v -0.028623 -0.282013 0.162820
v -0.149553 0.238301 0.137583
v -0.149553 0.265790 0.071218
v 0.149553 -0.071640 -0.267363
v 0.041006 -0.084282 -0.314544
v 0.149553 0.000000 -0.276794
v -0.028623 0.230263 -0.230262
v -0.028623 0.162820 -0.282013
v -0.028623 -0.084282 -0.314544
v 0.041006 -0.162820 -0.282013
v -0.028623 -0.162820 -0.282013
v 0.149553 -0.195723 -0.195723
v 0.041006 -0.230262 -0.230262
v 0.149553 -0.138397 -0.239711
v 0.149553 0.239711 -0.138397
v -0.028623 -0.314544 0.084282
v -0.149553 -0.137583 0.238301
v -0.149553 -0.194572 0.194572
v -0.028623 -0.282013 -0.162820
v -0.028623 -0.230262 -0.230262
v 0.149553 -0.239711 0.138397
v -0.149553 -0.238301 0.137583
v -0.149553 -0.265790 0.071218
v -0.149553 -0.194572 -0.194572
v -0.149553 -0.137583 -0.238301
v -0.149553 -0.071218 -0.265790
v 0.149553 0.000000 -0.178972
v 0.149553 0.046321 -0.172874
v 0.149553 -0.046321 -0.172874
v 0.149553 0.089486 -0.154994
v 0.149553 0.126552 -0.126552
v 0.149553 -0.089486 -0.154994
v 0.149553 -0.126552 -0.126552
v 0.149553 0.154994 -0.089486
v 0.149553 0.172874 -0.046321
v 0.149553 0.178972 0.000000
v 0.149553 -0.154994 -0.089486
v 0.149553 -0.172874 -0.046321
v 0.149553 0.172874 0.046321
v 0.149553 0.154994 0.089486
v 0.149553 -0.178972 0.000000
v 0.149553 -0.172874 0.046321
v 0.149553 -0.154994 0.089486
v 0.149553 0.126552 0.126552
v 0.149553 0.089486 0.154994
v 0.149553 -0.126552 0.126552
v 0.149553 -0.089486 0.154994
v 0.149553 0.046321 0.172874
v 0.149553 -0.046321 0.172874
v 0.149553 0.000000 0.178972
v -0.149553 0.238301 -0.137583
v -0.149553 0.194572 -0.194572
v -0.149553 0.137583 -0.238301
v -0.149553 -0.238301 -0.137583
v -0.149553 0.071218 0.265790
v -0.149553 0.137583 0.238301
v -0.149553 -0.275166 0.000000
v -0.149553 0.194572 0.194572
v -0.149553 0.071218 -0.265790
v -0.149553 -0.265790 -0.071218
v -0.149553 0.000000 -0.275166
v 0.041006 -0.063049 0.063049
v 0.149553 -0.059443 0.102959
v 0.149553 -0.084065 0.084065
v 0.041006 -0.044582 0.077219
v 0.041006 -0.086126 -0.023077
v 0.149553 -0.118886 0.000000
v 0.149553 -0.114835 -0.030770
v 0.041006 -0.089165 0.000000
v 0.149553 -0.102959 -0.059443
v 0.041006 -0.077219 -0.044582
v 0.041006 0.063049 0.063049
v 0.149553 0.059443 0.102959
v 0.041006 0.044582 0.077219
v 0.149553 0.084065 0.084065
v 0.041006 0.023078 -0.086126
v 0.041006 -0.023077 -0.086126
v 0.041006 0.000000 -0.089165
v 0.041006 0.044582 -0.077219
v 0.041006 -0.044582 -0.077219
v 0.041006 0.063049 -0.063049
v 0.041006 -0.063049 -0.063049
v 0.041006 0.077219 -0.044582
v 0.041006 0.086126 -0.023077
v 0.041006 0.089165 0.000000
v 0.041006 0.086126 0.023078
v 0.041006 -0.086126 0.023078
v 0.041006 0.077219 0.044582
v 0.041006 -0.077219 0.044582
v 0.041006 0.023078 0.086127
v 0.041006 -0.023077 0.086127
v 0.041006 0.000000 0.089165
v 0.149553 0.030770 0.114835
v 0.149553 -0.030770 -0.114835
v 0.149553 -0.059443 -0.102958
v 0.149553 -0.030770 0.114835
v 0.149553 0.030770 -0.114835
v 0.149553 0.059443 -0.102958
v 0.149553 0.000000 -0.118886
v 0.149553 0.000000 0.118886
v 0.149553 0.118886 0.000000
v 0.149553 0.114835 0.030770
v 0.149553 0.102959 -0.059443
v 0.149553 0.114835 -0.030770
v 0.149553 0.084065 -0.084065
v 0.149553 -0.114835 0.030770
v 0.149553 -0.102959 0.059443
v 0.149553 0.102959 0.059443
v 0.149553 -0.084065 -0.084065
v 0.149552 0.000000 -0.178972
v 0.149552 0.046321 -0.172874
v 0.149552 -0.046321 -0.172874
v 0.149552 -0.089486 -0.154994
v 0.149552 0.089486 -0.154994
v 0.149552 -0.126552 -0.126552
v 0.149552 0.126552 -0.126552
v 0.149552 0.000000 -0.118886
v 0.149552 -0.030770 -0.114835
v 0.149552 0.030770 -0.114835
v 0.149552 -0.059443 -0.102958
v 0.149552 0.059443 -0.102958
v 0.149552 -0.154994 -0.089486
v 0.149552 0.154994 -0.089486
v 0.149552 -0.084065 -0.084065
v 0.149552 -0.102959 -0.059443
v 0.149552 -0.172874 -0.046321
v 0.149552 0.084065 -0.084065
v 0.149552 0.102959 -0.059443
v 0.149552 0.172874 -0.046321
v 0.149552 -0.114835 -0.030770
v 0.149552 -0.178972 0.000000
v 0.149552 -0.118886 0.000000
v 0.149552 -0.114835 0.030770
v 0.149552 -0.172874 0.046321
v 0.149552 0.114835 -0.030770
v 0.149552 0.118886 0.000000
v 0.149552 0.178972 0.000000
v 0.149552 -0.102959 0.059443
v 0.149552 -0.084065 0.084065
v 0.149552 -0.154994 0.089486
v 0.149552 0.114835 0.030770
v 0.149552 0.172874 0.046321
v 0.149552 0.102959 0.059443
v 0.149552 0.084065 0.084065
v 0.149552 0.154994 0.089486
v 0.149552 -0.059443 0.102959
v 0.149552 -0.030770 0.114835
v 0.149552 -0.126552 0.126552
v 0.149552 0.059443 0.102959
v 0.149552 0.030770 0.114835
v 0.149552 0.126552 0.126552
v 0.149552 0.000000 0.118886
v 0.149552 -0.089486 0.154994
v 0.149552 0.089486 0.154994
v 0.149552 -0.046321 0.172874
v 0.149552 0.046321 0.172874
v 0.149552 0.000000 0.178972
vt 0.343750 0.275000
vt 0.343750 0.475000
vt 0.343750 0.468185
vt 0.343750 0.326764
vt 0.343750 0.375000
vt 0.343750 0.395208
vt 0.343750 0.360000
vt 0.343750 0.416421
vt 0.343750 0.448205
vt 0.343750 0.318999
vt 0.343750 0.422224
vt 0.343750 0.439207
vt 0.343750 0.444000
vt 0.343750 0.438242
vt 0.343750 0.445000
vt 0.343750 0.421358
vt 0.343750 0.303449
vt 0.343750 0.329960
vt 0.343750 0.352725
vt 0.343750 0.370194
vt 0.343750 0.381175
vt 0.343750 0.384920
vt 0.343750 0.394501
vt 0.343750 0.359500
vt 0.343750 0.318740
vt 0.468750 0.275000
vt 0.468750 0.313723
vt 0.468750 0.311509
vt 0.468750 0.302381
vt 0.468750 0.326631
vt 0.468750 0.289174
vt 0.468750 0.322426
vt 0.468750 0.327897
vt 0.468750 0.329763
vt 0.468750 0.293898
vt 0.468750 0.348017
vt 0.468750 0.345529
vt 0.468750 0.338234
vt 0.468750 0.375000
vt 0.468750 0.400882
vt 0.468750 0.349118
vt 0.468750 0.325000
vt 0.468750 0.425000
vt 0.468750 0.304289
vt 0.468750 0.445711
vt 0.468750 0.357807
vt 0.468750 0.392193
vt 0.468750 0.341786
vt 0.468750 0.408214
vt 0.468750 0.288397
vt 0.468750 0.461603
vt 0.468750 0.328029
vt 0.468750 0.317472
vt 0.468750 0.278407
vt 0.468750 0.421971
vt 0.468750 0.432528
vt 0.468750 0.471593
vt 0.468750 0.310836
vt 0.468750 0.308573
vt 0.468750 0.439164
vt 0.468750 0.441427
vt 0.468750 0.475000
vn 0.206363 0.000000 0.978476
vn -0.193343 -0.253935 0.947700
vn 0.206363 -0.253248 0.945135
vn -0.193343 0.000000 0.981131
vn 0.206363 0.978476 0.000000
vn -0.193343 0.947700 0.253935
vn 0.206363 0.945135 0.253248
vn -0.193343 0.981131 0.000000
vn -0.193343 -0.981131 0.000000
vn 0.206363 -0.945135 -0.253248
vn 0.206363 -0.978476 0.000000
vn -0.193343 -0.947700 -0.253935
vn 0.206363 -0.945135 0.253248
vn 0.410365 -0.911922 0.000000
vn 0.410365 -0.880849 0.236023
vn -0.385179 -0.238849 0.891397
vn -0.385179 0.000000 0.922842
vn 0.410365 -0.644826 0.644826
vn 0.206363 -0.489238 0.847385
vn 0.206363 -0.691887 0.691887
vn 0.410365 -0.455961 0.789747
vn -0.193343 0.253935 -0.947700
vn 0.206363 0.000000 -0.978476
vn -0.193343 0.000000 -0.981131
vn 0.206363 0.253248 -0.945135
vn 0.206363 0.489238 -0.847385
vn 0.410365 0.644826 -0.644826
vn 0.410365 0.455961 -0.789747
vn 0.206363 0.691887 -0.691887
vn -0.193343 -0.693765 0.693765
vn -0.193343 -0.490565 0.849684
vn 0.206363 0.847385 0.489238
vn -0.193343 0.693765 0.693765
vn 0.206363 0.691887 0.691887
vn -0.193343 0.849684 0.490565
vn 0.206363 0.489238 0.847385
vn -0.193343 0.253935 0.947700
vn 0.206363 0.253248 0.945135
vn -0.193343 0.490565 0.849684
vn 0.206363 0.847385 -0.489238
vn -0.193343 0.947700 -0.253935
vn 0.206363 0.945135 -0.253248
vn -0.193343 0.849684 -0.490565
vn 0.410365 -0.236023 0.880849
vn 0.410365 0.000000 0.911922
vn 0.410365 0.455961 0.789747
vn 0.410365 0.236023 0.880849
vn 0.410365 0.789747 0.455961
vn 0.410365 0.644826 0.644826
vn 0.410365 -0.789747 -0.455961
vn 0.410365 -0.880849 -0.236023
vn 0.206363 -0.847385 -0.489238
vn 0.410365 0.880849 0.236023
vn 0.410365 0.236023 -0.880849
vn -0.385179 0.922842 0.000000
vn -0.385179 0.891397 -0.238849
vn 0.410365 0.880849 -0.236023
vn 0.410365 0.911922 0.000000
vn 0.206363 -0.847385 0.489238
vn -0.193343 -0.849684 0.490565
vn -0.385179 0.799204 0.461421
vn -0.385179 0.891397 0.238849
vn 0.410365 -0.236023 -0.880849
vn 0.206363 -0.253248 -0.945135
vn 0.410365 0.000000 -0.911922
vn -0.193343 0.693765 -0.693765
vn -0.193343 0.490565 -0.849684
vn -0.193343 -0.253935 -0.947700
vn 0.206363 -0.489238 -0.847385
vn -0.193343 -0.490565 -0.849684
vn 0.410365 -0.644826 -0.644826
vn 0.206363 -0.691887 -0.691887
vn 0.410365 -0.455961 -0.789747
vn 0.410365 0.789747 -0.455961
vn -0.193343 -0.947700 0.253935
vn -0.385179 -0.461421 0.799204
vn -0.385179 -0.652548 0.652548
vn -0.193343 -0.849684 -0.490565
vn -0.193343 -0.693765 -0.693765
vn 0.410365 -0.789747 0.455961
vn -0.385179 -0.799204 0.461421
vn -0.385179 -0.891397 0.238849
vn -0.385179 -0.652548 -0.652548
vn -0.385179 -0.461421 -0.799204
vn -0.385179 -0.238849 -0.891397
vn 1.000000 0.000000 0.000000
vn -0.385179 0.799204 -0.461421
vn -0.385179 0.652548 -0.652548
vn -0.385179 0.461421 -0.799204
vn -0.385179 -0.799204 -0.461421
vn -0.385179 0.238849 0.891397
vn -0.385179 0.461421 0.799204
vn -0.385179 -0.922842 0.000000
vn -0.385179 0.652548 0.652548
vn -0.385179 0.238849 -0.891397
vn -0.385179 -0.891397 -0.238849
vn -0.385179 0.000000 -0.922842
vn -1.000000 0.000000 0.000000
vn 0.264093 0.682003 -0.682003
vn 0.264093 0.482249 -0.835279
vn 0.264092 0.931633 0.249630
vn 0.264093 0.964497 0.000000
vn 0.264093 0.835279 0.482249
vn 0.264093 -0.682003 -0.682003
vn 0.264093 -0.482249 -0.835279
vn 0.264092 -0.249630 -0.931633
vn 0.264092 0.249630 0.931633
vn 0.264093 0.482249 0.835279
vn 0.264092 0.249630 -0.931633
vn 0.264092 -0.249630 0.931633
vn 0.264093 -0.482249 0.835279
vn 0.264093 0.000000 0.964497
vn 0.264093 0.000000 -0.964497
vn 0.264092 -0.931633 -0.249630
vn 0.264093 -0.964497 0.000000
vn 0.264092 -0.931633 0.249630
vn 0.264093 -0.835279 0.482249
vn 0.264093 -0.682003 0.682003
vn 0.264092 0.931633 -0.249630
vn 0.264093 0.835279 -0.482249
vn 0.264093 -0.835279 -0.482249
vn 0.264093 0.682003 0.682003
vn 1.000000 0.000000 -0.000000
usemtl colormap
f 1/1/1 2/1/2 3/1/3
f 2/1/2 1/1/1 4/1/4
f 5/2/5 6/3/6 7/3/7
f 6/3/6 5/2/5 8/2/8
f 9/1/9 10/1/10 11/1/11
f 10/1/10 9/1/9 12/1/12
f 13/1/13 14/1/14 15/1/15
f 14/1/14 13/1/13 11/1/11
f 4/1/4 16/1/16 2/1/2
f 16/1/16 4/1/4 17/1/17
f 18/1/18 19/1/19 20/1/20
f 19/1/19 18/1/18 21/1/21
f 22/4/22 23/1/23 24/1/24
f 23/1/23 22/4/22 25/4/25
f 26/5/26 27/6/27 28/7/28
f 27/6/27 26/5/26 29/8/29
f 19/1/19 30/1/30 20/1/20
f 30/1/30 19/1/19 31/1/31
f 32/9/32 33/8/33 34/8/34
f 33/8/33 32/9/32 35/9/35
f 36/5/36 37/4/37 38/4/38
f 37/4/37 36/5/36 39/5/39
f 40/9/40 41/3/41 42/3/42
f 41/3/41 40/9/40 43/9/43
f 44/1/44 1/1/1 3/1/3
f 1/1/1 44/1/44 45/1/45
f 46/7/46 38/4/38 47/10/47
f 38/4/38 46/7/46 36/5/36
f 48/11/48 34/8/34 49/6/49
f 34/8/34 48/11/48 32/9/32
f 10/1/10 50/1/50 51/1/51
f 50/1/50 10/1/10 52/1/52
f 53/12/53 32/9/32 48/11/48
f 32/9/32 53/12/53 7/3/7
f 42/3/42 8/2/8 5/2/5
f 8/2/8 42/3/42 41/3/41
f 25/4/25 28/7/28 54/10/54
f 28/7/28 25/4/25 26/5/26
f 41/3/41 55/13/55 8/2/8
f 55/13/55 41/3/41 56/14/56
f 57/12/57 5/2/5 58/15/58
f 5/2/5 57/12/57 42/3/42
f 30/1/30 59/1/59 20/1/20
f 59/1/59 30/1/30 60/1/60
f 6/3/6 61/16/61 35/9/35
f 61/16/61 6/3/6 62/14/62
f 38/4/38 4/1/4 1/1/1
f 4/1/4 38/4/38 37/4/37
f 47/10/47 1/1/1 45/1/45
f 1/1/1 47/10/47 38/4/38
f 23/1/23 63/1/63 64/1/64
f 63/1/63 23/1/23 65/1/65
f 25/4/25 65/1/65 23/1/23
f 65/1/65 25/4/25 54/10/54
f 66/8/66 26/5/26 67/5/67
f 26/5/26 66/8/66 29/8/29
f 3/1/3 31/1/31 19/1/19
f 31/1/31 3/1/3 2/1/2
f 68/1/68 69/1/69 70/1/70
f 69/1/69 68/1/68 64/1/64
f 49/6/49 36/5/36 46/7/46
f 36/5/36 49/6/49 34/8/34
f 69/1/69 71/1/71 72/1/72
f 71/1/71 69/1/69 73/1/73
f 40/9/40 57/12/57 74/11/74
f 57/12/57 40/9/40 42/3/42
f 60/1/60 13/1/13 59/1/59
f 13/1/13 60/1/60 75/1/75
f 67/5/67 25/4/25 22/4/22
f 25/4/25 67/5/67 26/5/26
f 2/1/2 76/1/76 31/1/31
f 76/1/76 2/1/2 16/1/16
f 31/1/31 77/1/77 30/1/30
f 77/1/77 31/1/31 76/1/76
f 78/1/78 72/1/72 52/1/52
f 72/1/72 78/1/78 79/1/79
f 24/1/24 64/1/64 68/1/68
f 64/1/64 24/1/24 23/1/23
f 70/1/70 72/1/72 79/1/79
f 72/1/72 70/1/70 69/1/69
f 20/1/20 80/1/80 18/1/18
f 80/1/80 20/1/20 59/1/59
f 81/1/81 75/1/75 60/1/60
f 75/1/75 81/1/81 82/1/82
f 83/1/83 70/1/70 79/1/79
f 70/1/70 83/1/83 84/1/84
f 7/3/7 35/9/35 32/9/32
f 35/9/35 7/3/7 6/3/6
f 84/1/84 68/1/68 70/1/70
f 68/1/68 84/1/84 85/1/85
f 52/1/52 71/1/71 50/1/50
f 71/1/71 52/1/52 72/1/72
f 27/6/27 40/9/40 74/11/74
f 40/9/40 27/6/27 29/8/29
f 75/1/75 11/1/11 13/1/13
f 11/1/11 75/1/75 9/1/9
f 54/10/86 63/1/86 65/1/86
f 63/1/86 54/10/86 28/7/86
f 63/1/86 28/7/86 73/1/86
f 73/1/86 28/7/86 27/6/86
f 73/1/86 27/6/86 71/1/86
f 71/1/86 27/6/86 86/1/86
f 86/1/86 27/6/86 87/17/86
f 88/1/86 71/1/86 86/1/86
f 87/17/86 27/6/86 74/11/86
f 87/17/86 74/11/86 89/18/86
f 89/18/86 74/11/86 90/19/86
f 71/1/86 88/1/86 50/1/86
f 50/1/86 88/1/86 91/1/86
f 50/1/86 91/1/86 92/1/86
f 90/19/86 74/11/86 57/12/86
f 90/19/86 57/12/86 93/20/86
f 93/20/86 57/12/86 94/21/86
f 94/21/86 57/12/86 58/15/86
f 94/21/86 58/15/86 95/22/86
f 50/1/86 92/1/86 51/1/86
f 51/1/86 92/1/86 96/1/86
f 51/1/86 96/1/86 97/1/86
f 95/22/86 58/15/86 53/12/86
f 95/22/86 53/12/86 98/21/86
f 98/21/86 53/12/86 99/20/86
f 51/1/86 97/1/86 14/1/86
f 14/1/86 97/1/86 100/1/86
f 14/1/86 100/1/86 101/1/86
f 14/1/86 101/1/86 15/1/86
f 15/1/86 101/1/86 102/1/86
f 99/20/86 53/12/86 48/11/86
f 99/20/86 48/11/86 103/19/86
f 103/19/86 48/11/86 104/18/86
f 15/1/86 102/1/86 80/1/86
f 80/1/86 102/1/86 105/1/86
f 80/1/86 105/1/86 106/1/86
f 104/18/86 48/11/86 49/6/86
f 80/1/86 106/1/86 18/1/86
f 104/18/86 49/6/86 107/17/86
f 18/1/86 106/1/86 108/1/86
f 107/17/86 49/6/86 109/1/86
f 18/1/86 108/1/86 109/1/86
f 18/1/86 109/1/86 49/6/86
f 18/1/86 49/6/86 46/7/86
f 18/1/86 46/7/86 21/1/86
f 21/1/86 46/7/86 47/10/86
f 21/1/86 47/10/86 44/1/86
f 44/1/86 47/10/86 45/1/86
f 43/9/43 56/14/56 41/3/41
f 56/14/56 43/9/43 110/16/87
f 29/8/29 43/9/43 40/9/40
f 43/9/43 29/8/29 66/8/66
f 111/23/88 67/5/67 112/24/89
f 67/5/67 111/23/88 66/8/66
f 59/1/59 15/1/15 80/1/80
f 15/1/15 59/1/59 13/1/13
f 113/1/90 79/1/79 78/1/78
f 79/1/79 113/1/90 83/1/83
f 8/2/8 62/14/62 6/3/6
f 62/14/62 8/2/8 55/13/55
f 11/1/11 51/1/51 14/1/14
f 51/1/51 11/1/11 10/1/10
f 12/1/12 52/1/52 10/1/10
f 52/1/52 12/1/12 78/1/78
f 37/4/37 17/1/17 4/1/4
f 17/1/17 37/4/37 114/25/91
f 37/4/37 115/24/92 114/25/91
f 115/24/92 37/4/37 39/5/39
f 82/1/82 9/1/9 75/1/75
f 9/1/9 82/1/82 116/1/93
f 35/9/35 117/23/94 33/8/33
f 117/23/94 35/9/35 61/16/61
f 34/8/34 39/5/39 36/5/36
f 39/5/39 34/8/34 33/8/33
f 112/24/89 22/4/22 118/25/95
f 22/4/22 112/24/89 67/5/67
f 39/5/39 117/23/94 115/24/92
f 117/23/94 39/5/39 33/8/33
f 119/1/96 78/1/78 12/1/12
f 78/1/78 119/1/96 113/1/90
f 58/15/58 7/3/7 53/12/53
f 7/3/7 58/15/58 5/2/5
f 66/8/66 110/16/87 43/9/43
f 110/16/87 66/8/66 111/23/88
f 85/1/85 24/1/24 68/1/68
f 24/1/24 85/1/85 120/1/97
f 64/1/64 73/1/73 69/1/69
f 73/1/73 64/1/64 63/1/63
f 21/1/21 3/1/3 19/1/19
f 3/1/3 21/1/21 44/1/44
f 77/1/77 60/1/60 30/1/30
f 60/1/60 77/1/77 81/1/81
f 116/1/93 12/1/12 9/1/9
f 12/1/12 116/1/93 119/1/96
f 85/1/98 118/25/98 120/1/98
f 118/25/98 85/1/98 84/1/98
f 118/25/98 84/1/98 112/24/98
f 112/24/98 84/1/98 83/1/98
f 112/24/98 83/1/98 111/23/98
f 111/23/98 83/1/98 113/1/98
f 111/23/98 113/1/98 110/16/98
f 110/16/98 113/1/98 119/1/98
f 110/16/98 119/1/98 56/14/98
f 56/14/98 119/1/98 116/1/98
f 56/14/98 116/1/98 55/13/98
f 55/13/98 116/1/98 82/1/98
f 55/13/98 82/1/98 62/14/98
f 62/14/98 82/1/98 81/1/98
f 62/14/98 81/1/98 61/16/98
f 61/16/98 81/1/98 77/1/98
f 61/16/98 77/1/98 117/23/98
f 117/23/98 77/1/98 76/1/98
f 117/23/98 76/1/98 115/24/98
f 115/24/98 76/1/98 16/1/98
f 115/24/98 16/1/98 114/25/98
f 114/25/98 16/1/98 17/1/98
f 118/25/95 24/1/24 120/1/97
f 24/1/24 118/25/95 22/4/22
f 121/26/99 122/26/100 123/26/99
f 122/26/100 121/26/99 124/26/100
f 125/26/101 126/26/102 127/26/101
f 126/26/102 125/26/101 128/26/102
f 129/26/103 125/26/101 127/26/101
f 125/26/101 129/26/103 130/26/103
f 131/27/104 132/28/105 133/29/105
f 132/28/105 131/27/104 134/30/104
f 135/31/86 136/26/86 137/26/86
f 136/26/86 135/31/86 138/29/86
f 136/26/86 138/29/86 139/26/86
f 139/26/86 138/29/86 140/27/86
f 139/26/86 140/27/86 141/26/86
f 141/26/86 140/27/86 142/32/86
f 141/26/86 142/32/86 130/26/86
f 130/26/86 142/32/86 143/33/86
f 130/26/86 143/33/86 125/26/86
f 125/26/86 143/33/86 144/34/86
f 125/26/86 144/34/86 128/26/86
f 128/26/86 144/34/86 145/33/86
f 128/26/86 145/33/86 146/26/86
f 146/26/86 145/33/86 147/32/86
f 146/26/86 147/32/86 148/26/86
f 148/26/86 147/32/86 131/27/86
f 148/26/86 131/27/86 121/26/86
f 121/26/86 131/27/86 133/29/86
f 121/26/86 133/29/86 124/26/86
f 124/26/86 133/29/86 149/31/86
f 124/26/86 149/31/86 150/26/86
f 150/26/86 149/31/86 151/26/86
f 133/29/105 152/35/106 149/31/106
f 152/35/106 133/29/105 132/28/105
f 153/26/107 139/26/108 154/26/108
f 139/26/108 153/26/107 136/26/107
f 124/26/100 155/26/109 122/26/100
f 155/26/109 124/26/100 150/26/109
f 156/35/110 138/29/111 135/31/110
f 138/29/111 156/35/110 157/28/111
f 158/26/112 136/26/107 153/26/107
f 136/26/107 158/26/112 137/26/112
f 150/26/109 159/26/113 155/26/109
f 159/26/113 150/26/109 151/26/113
f 145/33/114 160/36/115 161/37/114
f 160/36/115 145/33/114 144/34/115
f 143/33/116 162/38/117 163/37/116
f 162/38/117 143/33/116 142/32/117
f 144/34/115 163/37/116 160/36/115
f 163/37/116 144/34/115 143/33/116
f 142/32/117 164/30/118 162/38/117
f 164/30/118 142/32/117 140/27/118
f 165/26/119 148/26/120 166/26/120
f 148/26/120 165/26/119 146/26/119
f 157/28/111 140/27/118 138/29/111
f 140/27/118 157/28/111 164/30/118
f 147/32/121 161/37/114 167/38/121
f 161/37/114 147/32/121 145/33/114
f 148/26/120 123/26/99 166/26/120
f 123/26/99 148/26/120 121/26/99
f 158/26/112 135/31/110 137/26/112
f 135/31/110 158/26/112 156/35/110
f 128/26/102 165/26/119 126/26/102
f 165/26/119 128/26/102 146/26/119
f 154/26/108 141/26/122 168/26/122
f 141/26/122 154/26/108 139/26/108
f 141/26/122 129/26/103 168/26/122
f 129/26/103 141/26/122 130/26/103
f 149/31/106 159/26/113 151/26/113
f 159/26/113 149/31/106 152/35/106
f 131/27/104 167/38/121 134/30/104
f 167/38/121 131/27/104 147/32/121
f 169/39/123 170/40/123 171/41/123
f 171/41/123 170/40/123 172/42/123
f 170/40/123 173/43/123 172/42/123
f 172/42/123 173/43/123 174/44/123
f 173/43/123 175/45/123 174/44/123
f 175/45/123 176/39/123 174/44/123
f 176/39/123 177/46/123 174/44/123
f 176/39/123 175/45/123 178/47/123
f 177/46/123 179/48/123 174/44/123
f 178/47/123 175/45/123 180/49/123
f 174/44/123 179/48/123 181/50/123
f 175/45/123 182/51/123 180/49/123
f 179/48/123 183/52/123 181/50/123
f 183/52/123 184/53/123 181/50/123
f 181/50/123 184/53/123 185/54/123
f 180/49/123 182/51/123 186/55/123
f 186/55/123 182/51/123 187/56/123
f 182/51/123 188/57/123 187/56/123
f 184/53/123 189/58/123 185/54/123
f 185/54/123 189/58/123 190/26/123
f 189/58/123 191/59/123 190/26/123
f 191/59/123 192/58/123 190/26/123
f 190/26/123 192/58/123 193/54/123
f 187/56/123 188/57/123 194/60/123
f 194/60/123 188/57/123 195/61/123
f 188/57/123 196/62/123 195/61/123
f 192/58/123 197/53/123 193/54/123
f 197/53/123 198/52/123 193/54/123
f 193/54/123 198/52/123 199/50/123
f 195/61/123 196/62/123 200/60/123
f 196/62/123 201/57/123 200/60/123
f 200/60/123 201/57/123 202/56/123
f 202/56/123 201/57/123 203/55/123
f 201/57/123 204/51/123 203/55/123
f 198/52/123 205/48/123 199/50/123
f 205/48/123 206/46/123 199/50/123
f 199/50/123 206/46/123 207/44/123
f 203/55/123 204/51/123 208/49/123
f 208/49/123 204/51/123 209/47/123
f 204/51/123 210/45/123 209/47/123
f 206/46/123 211/39/123 207/44/123
f 211/39/123 209/47/123 210/45/123
f 211/39/123 210/45/123 207/44/123
f 207/44/123 210/45/123 212/42/123
f 210/45/123 213/43/123 212/42/123
f 212/42/123 213/43/123 214/41/123
f 213/43/123 215/40/123 214/41/123
f 216/39/123 214/41/123 215/40/123
