# Generated by GTAClone/tools/split_car_wheels.py from tractor-shovel.obj group wheel-front-left
# Kenney Car Kit (CC0 1.0); the split is a derivative work, also CC0.
mtllib colormap.mtl
v 0.123669 0.098310 -0.000000
v 0.033909 0.071220 -0.019083
v 0.123669 0.094960 -0.025445
v 0.033909 0.073732 -0.000000
v 0.033909 0.036866 0.063854
v 0.123669 0.025444 0.094960
v 0.033909 0.019083 0.071220
v 0.123669 0.049155 0.085139
v 0.033909 -0.073733 -0.000000
v 0.123669 -0.094960 0.025445
v 0.123669 -0.098310 -0.000000
v 0.033909 -0.071220 0.019083
v 0.123669 0.049155 -0.085139
v 0.033909 0.052137 -0.052137
v 0.033909 0.036866 -0.063854
v 0.123669 0.069516 -0.069516
v 0.033909 -0.052137 0.052137
v 0.123669 -0.049155 0.085139
v 0.123669 -0.069516 0.069516
v 0.033909 -0.036866 0.063854
v 0.033909 0.052137 0.052137
v 0.123669 0.085139 0.049155
v 0.123669 0.069516 0.069516
v 0.033909 0.063854 0.036866
v 0.033909 -0.071220 -0.019083
v 0.123669 -0.094960 -0.025445
v 0.123669 0.000000 0.098310
v 0.033909 0.000000 0.073733
v 0.033909 -0.019083 0.071220
v 0.123669 -0.025445 0.094960
v 0.033909 -0.052137 -0.052137
v 0.123669 -0.085139 -0.049155
v 0.123669 -0.069516 -0.069516
v 0.033909 -0.063854 -0.036866
v 0.123669 0.085139 -0.049155
v 0.033909 0.063854 -0.036866
v 0.123669 0.094960 0.025445
v 0.033909 0.071220 0.019083
v 0.123669 0.000000 -0.098310
v 0.033909 -0.019083 -0.071220
v 0.123669 -0.025445 -0.094960
v 0.033909 0.000000 -0.073733
v 0.123669 -0.049155 -0.085139
v 0.033909 -0.036866 -0.063854
v 0.123669 0.025444 -0.094960
v 0.033909 0.019083 -0.071220
v 0.033909 -0.063854 0.036866
v 0.123669 -0.085139 0.049155
v 0.123669 0.000000 -0.147996
v 0.123669 0.038304 -0.142954
v 0.123669 -0.038304 -0.142954
v 0.123669 -0.073998 -0.128169
v 0.123669 0.073998 -0.128169
v 0.123669 -0.104649 -0.104649
v 0.123669 0.104649 -0.104649
v 0.123669 0.000000 -0.098310
v 0.123669 -0.025445 -0.094960
v 0.123669 0.025444 -0.094960
v 0.123669 -0.049155 -0.085139
v 0.123669 0.049155 -0.085139
v 0.123669 -0.128169 -0.073998
v 0.123669 0.128169 -0.073998
v 0.123669 -0.069516 -0.069516
v 0.123669 -0.085139 -0.049155
v 0.123669 -0.142954 -0.038304
v 0.123669 0.069516 -0.069516
v 0.123669 0.085139 -0.049155
v 0.123669 0.142954 -0.038304
v 0.123669 -0.094960 -0.025445
v 0.123669 -0.147997 -0.000000
v 0.123669 -0.098310 -0.000000
v 0.123669 -0.094960 0.025445
v 0.123669 -0.142954 0.038304
v 0.123669 0.094960 -0.025445
v 0.123669 0.098310 -0.000000
v 0.123669 0.147996 -0.000000
v 0.123669 -0.085139 0.049155
v 0.123669 -0.069516 0.069516
v 0.123669 -0.128169 0.073998
v 0.123669 0.094960 0.025445
v 0.123669 0.142954 0.038304
v 0.123669 0.085139 0.049155
v 0.123669 0.069516 0.069516
v 0.123669 0.128169 0.073998
v 0.123669 -0.049155 0.085139
v 0.123669 -0.025445 0.094960
v 0.123669 -0.104649 0.104649
v 0.123669 0.049155 0.085139
v 0.123669 0.025444 0.094960
v 0.123669 0.104649 0.104649
v 0.123669 0.000000 0.098310
v 0.123669 -0.073998 0.128169
v 0.123669 0.073998 0.128169
v 0.123669 -0.038304 0.142954
v 0.123669 0.038304 0.142954
v 0.123669 0.000000 0.147996
v -0.023669 -0.260105 -0.069695
v 0.033909 -0.233203 -0.134640
v 0.033909 -0.260105 -0.069695
v -0.023669 -0.233203 -0.134640
v 0.033909 0.069695 0.260105
v -0.023669 0.000000 0.269280
v 0.033909 0.000000 0.269280
v -0.023669 0.069695 0.260105
v -0.123669 -0.058892 -0.219788
v -0.123669 0.058892 -0.219788
v -0.123669 0.000000 -0.227542
v -0.123669 -0.113771 -0.197057
v -0.123669 0.113771 -0.197057
v -0.123669 -0.160896 -0.160896
v -0.123669 0.160896 -0.160896
v -0.123669 -0.197057 -0.113771
v -0.123669 0.197057 -0.113771
v -0.123669 -0.219788 -0.058892
v -0.123669 0.219788 -0.058892
v -0.123669 -0.227542 -0.000000
v -0.123669 0.227542 -0.000000
v -0.123669 -0.219788 0.058892
v -0.123669 0.219788 0.058892
v -0.123669 -0.197057 0.113771
v -0.123669 0.197057 0.113771
v -0.123669 -0.160896 0.160896
v -0.123669 0.160896 0.160896
v -0.123669 -0.113771 0.197057
v -0.123669 0.113771 0.197057
v -0.123669 -0.058892 0.219788
v -0.123669 0.058892 0.219788
v -0.123669 0.000000 0.227542
v 0.033909 -0.269280 -0.000000
v 0.123669 -0.221089 -0.059241
v 0.123669 -0.228888 -0.000000
v -0.023669 0.260105 -0.069695
v -0.023669 0.269280 -0.000000
v -0.023669 -0.134640 0.233203
v -0.023669 -0.190410 0.190410
v -0.023669 -0.190410 -0.190410
v -0.023669 0.233203 0.134640
v -0.023669 0.190410 0.190410
v -0.023669 -0.069695 0.260105
v -0.023669 0.069695 -0.260105
v -0.023669 0.134640 -0.233203
v 0.033909 0.069695 -0.260105
v 0.123669 0.114444 -0.198223
v 0.123669 0.059241 -0.221089
v 0.033909 0.134640 -0.233203
v -0.023669 -0.260105 0.069695
v -0.023669 -0.233203 0.134640
v -0.023669 -0.134640 -0.233203
v 0.033909 -0.190410 -0.190410
v 0.033909 -0.134640 -0.233203
v 0.123669 -0.114444 0.198223
v 0.033909 -0.069695 0.260105
v 0.033909 -0.134640 0.233203
v 0.123669 -0.059241 0.221089
v -0.023669 0.190410 -0.190410
v -0.023669 0.233203 -0.134640
v -0.023669 -0.269280 -0.000000
v -0.023669 0.000000 -0.269280
v -0.023669 -0.069695 -0.260105
v 0.123669 0.221089 -0.059241
v 0.033909 0.269280 -0.000000
v 0.123669 0.228888 -0.000000
v 0.033909 0.260105 -0.069695
v 0.123669 0.161848 -0.161848
v 0.033909 0.190410 -0.190410
v 0.033909 -0.069695 -0.260105
v 0.123669 -0.114444 -0.198223
v 0.123669 -0.059241 -0.221089
v -0.023669 0.260105 0.069695
v -0.023669 0.134640 0.233203
v 0.033909 0.233203 -0.134640
v 0.033909 0.000000 -0.269280
v 0.123669 0.000000 -0.228888
v 0.033909 0.190410 0.190410
v 0.033909 0.134640 0.233203
v 0.123669 0.000000 0.228888
v 0.033909 -0.260105 0.069695
v 0.033909 -0.190410 0.190410
v 0.123669 -0.198223 0.114444
v 0.123669 -0.161848 0.161848
v 0.033909 -0.233203 0.134640
v 0.123669 -0.221089 0.059241
v 0.123669 0.198223 0.114444
v 0.123669 0.161848 0.161848
v 0.033909 0.233203 0.134640
v 0.123669 0.114444 0.198223
v 0.123669 0.059241 0.221089
v 0.123669 0.198223 -0.114444
v 0.123669 -0.161848 -0.161848
v 0.123669 0.221089 0.059241
v 0.033909 0.260105 0.069695
v 0.123669 -0.198223 -0.114444
v 0.123669 0.000000 -0.147996
v 0.123669 0.038304 -0.142954
v 0.123669 -0.038304 -0.142954
v 0.123669 0.073998 -0.128169
v 0.123669 0.104649 -0.104649
v 0.123669 -0.073998 -0.128169
v 0.123669 -0.104649 -0.104649
v 0.123669 0.128169 -0.073998
v 0.123669 0.142954 -0.038304
v 0.123669 0.147996 -0.000000
v 0.123669 -0.128169 -0.073998
v 0.123669 -0.142954 -0.038304
v 0.123669 0.142954 0.038304
v 0.123669 0.128169 0.073998
v 0.123669 -0.147997 -0.000000
v 0.123669 -0.142954 0.038304
v 0.123669 -0.128169 0.073998
v 0.123669 0.104649 0.104649
v 0.123669 0.073998 0.128169
v 0.123669 -0.104649 0.104649
v 0.123669 -0.073998 0.128169
v 0.123669 0.038304 0.142954
v 0.123669 -0.038304 0.142954
v 0.123669 0.000000 0.147996
vt 0.593750 0.598017
vt 0.593750 0.577897
vt 0.593750 0.595529
vt 0.593750 0.579763
vt 0.593750 0.552381
vt 0.593750 0.543898
vt 0.593750 0.539174
vt 0.593750 0.561508
vt 0.593750 0.525000
vt 0.593750 0.563723
vt 0.593750 0.576631
vt 0.593750 0.588234
vt 0.593750 0.572426
vt 0.593750 0.625000
vt 0.593750 0.650882
vt 0.593750 0.599118
vt 0.593750 0.575000
vt 0.593750 0.675000
vt 0.593750 0.554289
vt 0.593750 0.695711
vt 0.593750 0.607807
vt 0.593750 0.642193
vt 0.593750 0.591786
vt 0.593750 0.658214
vt 0.593750 0.538397
vt 0.593750 0.711603
vt 0.593750 0.578029
vt 0.593750 0.567472
vt 0.593750 0.528407
vt 0.593750 0.671971
vt 0.593750 0.682528
vt 0.593750 0.721592
vt 0.593750 0.560836
vt 0.593750 0.558573
vt 0.593750 0.689164
vt 0.593750 0.691427
vt 0.593750 0.725000
vt 0.343750 0.275000
vt 0.343750 0.326764
vt 0.343750 0.318740
vt 0.343750 0.359500
vt 0.343750 0.394501
vt 0.343750 0.421358
vt 0.343750 0.438242
vt 0.343750 0.444000
vt 0.343750 0.468185
vt 0.343750 0.475000
vt 0.343750 0.448205
vt 0.343750 0.416421
vt 0.343750 0.375000
vt 0.343750 0.360000
vt 0.343750 0.318999
vt 0.343750 0.439207
vt 0.343750 0.445000
vt 0.343750 0.395208
vt 0.343750 0.422224
vt 0.343750 0.303449
vt 0.343750 0.329960
vt 0.343750 0.352725
vt 0.343750 0.370194
vt 0.343750 0.381175
vt 0.343750 0.384920
vn 0.264093 -0.964497 0.000000
vn 0.264092 -0.931633 0.249630
vn 0.264093 -0.482249 -0.835279
vn 0.264092 -0.249630 -0.931633
vn 0.264093 0.964497 0.000000
vn 0.264092 0.931633 -0.249630
vn 0.264093 -0.482249 0.835279
vn 0.264093 -0.682003 0.682003
vn 0.264093 0.682003 -0.682003
vn 0.264093 0.482249 -0.835279
vn 0.264093 -0.682003 -0.682003
vn 0.264093 -0.835279 -0.482249
vn 0.264092 0.931633 0.249630
vn 0.264093 0.000000 -0.964497
vn 0.264092 0.249630 -0.931633
vn 0.264093 0.682003 0.682003
vn 0.264093 0.835279 0.482249
vn 0.264093 -0.835279 0.482249
vn 0.264092 -0.931633 -0.249630
vn 0.264093 0.000000 0.964497
vn 0.264092 0.249630 0.931633
vn 0.264093 0.482249 0.835279
vn 0.264092 -0.249630 0.931633
vn 1.000000 0.000000 0.000000
vn 0.264093 0.835279 -0.482249
vn 1.000000 0.000000 -0.000000
vn -0.193343 -0.947700 -0.253935
vn 0.206363 -0.847385 -0.489238
vn 0.206363 -0.945135 -0.253248
vn -0.193343 -0.849684 -0.490565
vn 0.206363 0.253248 0.945135
vn -0.193343 0.000000 0.981131
vn 0.206363 0.000000 0.978476
vn -0.193343 0.253935 0.947700
vn -1.000000 0.000000 0.000000
vn 0.206363 -0.978476 0.000000
vn 0.410365 -0.880849 -0.236023
vn 0.410365 -0.911922 0.000000
vn -0.193343 0.947700 -0.253935
vn -0.385179 0.922842 0.000000
vn -0.193343 0.981131 0.000000
vn -0.385179 0.891397 -0.238849
vn -0.193343 -0.490565 0.849684
vn -0.385179 -0.652548 0.652548
vn -0.193343 -0.693765 0.693765
vn -0.385179 -0.461421 0.799204
vn -0.385179 -0.799204 -0.461421
vn -0.193343 -0.693765 -0.693765
vn -0.385179 -0.652548 -0.652548
vn -0.193343 0.849684 0.490565
vn -0.385179 0.652548 0.652548
vn -0.193343 0.693765 0.693765
vn -0.385179 0.799204 0.461421
vn -0.193343 -0.253935 0.947700
vn -0.385179 -0.238849 0.891397
vn -0.385179 0.461421 -0.799204
vn -0.193343 0.253935 -0.947700
vn -0.385179 0.238849 -0.891397
vn -0.193343 0.490565 -0.849684
vn 0.206363 0.253248 -0.945135
vn 0.410365 0.455961 -0.789747
vn 0.410365 0.236023 -0.880849
vn 0.206363 0.489238 -0.847385
vn -0.385179 -0.799204 0.461421
vn -0.193343 -0.947700 0.253935
vn -0.193343 -0.849684 0.490565
vn -0.385179 -0.891397 0.238849
vn -0.193343 -0.490565 -0.849684
vn 0.206363 -0.691887 -0.691887
vn 0.206363 -0.489238 -0.847385
vn 0.410365 -0.455961 0.789747
vn 0.206363 -0.253248 0.945135
vn 0.206363 -0.489238 0.847385
vn 0.410365 -0.236023 0.880849
vn -0.193343 0.693765 -0.693765
vn -0.385179 0.799204 -0.461421
vn -0.193343 0.849684 -0.490565
vn -0.385179 0.652548 -0.652548
vn -0.385179 -0.922842 0.000000
vn -0.193343 -0.981131 0.000000
vn -0.385179 -0.891397 -0.238849
vn -0.385179 -0.238849 -0.891397
vn -0.193343 0.000000 -0.981131
vn -0.193343 -0.253935 -0.947700
vn -0.385179 0.000000 -0.922842
vn -0.385179 -0.461421 -0.799204
vn 0.410365 0.880849 -0.236023
vn 0.206363 0.978476 0.000000
vn 0.410365 0.911922 0.000000
vn 0.206363 0.945135 -0.253248
vn -0.385179 0.000000 0.922842
vn -0.385179 0.238849 0.891397
vn 0.410365 0.644826 -0.644826
vn 0.206363 0.691887 -0.691887
vn 0.206363 -0.253248 -0.945135
vn 0.410365 -0.455961 -0.789747
vn 0.410365 -0.236023 -0.880849
vn -0.385179 0.891397 0.238849
vn -0.193343 0.947700 0.253935
vn -0.193343 0.490565 0.849684
vn -0.385179 0.461421 0.799204
vn 0.206363 0.847385 -0.489238
vn 0.206363 0.000000 -0.978476
vn 0.410365 0.000000 -0.911922
vn 0.206363 0.691887 0.691887
vn 0.206363 0.489238 0.847385
vn 0.410365 0.000000 0.911922
vn 0.206363 -0.945135 0.253248
vn 0.206363 -0.691887 0.691887
vn 0.410365 -0.789747 0.455961
vn 0.410365 -0.644826 0.644826
vn 0.206363 -0.847385 0.489238
vn 0.410365 -0.880849 0.236023
vn 0.410365 0.789747 0.455961
vn 0.410365 0.644826 0.644826
vn 0.206363 0.847385 0.489238
vn 0.410365 0.455961 0.789747
vn 0.410365 0.236023 0.880849
vn 0.410365 0.789747 -0.455961
vn 0.410365 -0.644826 -0.644826
vn 0.410365 0.880849 0.236023
vn 0.206363 0.945135 0.253248
vn 0.410365 -0.789747 -0.455961
usemtl colormap
f 1/1/1 2/2/2 3/3/2
f 2/2/2 1/1/1 4/4/1
f 5/5/3 6/6/4 7/7/4
f 6/6/4 5/5/3 8/8/3
f 9/9/5 10/9/6 11/9/5
f 10/9/6 9/9/5 12/9/6
f 13/8/7 14/10/8 15/5/7
f 14/10/8 13/8/7 16/11/8
f 17/9/9 18/9/10 19/9/9
f 18/9/10 17/9/9 20/9/10
f 21/10/11 22/12/12 23/11/11
f 22/12/12 21/10/11 24/13/12
f 25/9/13 11/9/5 26/9/13
f 11/9/5 25/9/13 9/9/5
f 7/7/4 27/9/14 28/9/14
f 27/9/14 7/7/4 6/6/4
f 21/10/11 8/8/3 5/5/3
f 8/8/3 21/10/11 23/11/11
f 29/9/15 27/9/14 30/9/15
f 27/9/14 29/9/15 28/9/14
f 31/9/16 32/9/17 33/9/16
f 32/9/17 31/9/16 34/9/17
f 2/2/2 35/12/18 3/3/2
f 35/12/18 2/2/2 36/13/18
f 24/13/12 37/3/19 22/12/12
f 37/3/19 24/13/12 38/2/19
f 38/2/19 1/1/1 37/3/19
f 1/1/1 38/2/19 4/4/1
f 39/9/20 40/9/21 41/9/21
f 40/9/21 39/9/20 42/9/20
f 36/13/18 16/11/8 35/12/18
f 16/11/8 36/13/18 14/10/8
f 43/9/22 31/9/16 33/9/16
f 31/9/16 43/9/22 44/9/22
f 32/9/17 25/9/13 26/9/13
f 25/9/13 32/9/17 34/9/17
f 45/6/23 15/5/7 46/7/23
f 15/5/7 45/6/23 13/8/7
f 41/9/21 44/9/22 43/9/22
f 44/9/22 41/9/21 40/9/21
f 20/9/10 30/9/15 18/9/10
f 30/9/15 20/9/10 29/9/15
f 39/9/20 46/7/23 42/9/20
f 46/7/23 39/9/20 45/6/23
f 46/7/24 40/9/24 42/9/24
f 40/9/24 46/7/24 15/5/24
f 40/9/24 15/5/24 44/9/24
f 44/9/24 15/5/24 14/10/24
f 44/9/24 14/10/24 31/9/24
f 31/9/24 14/10/24 36/13/24
f 31/9/24 36/13/24 34/9/24
f 34/9/24 36/13/24 2/2/24
f 34/9/24 2/2/24 25/9/24
f 25/9/24 2/2/24 4/4/24
f 25/9/24 4/4/24 9/9/24
f 9/9/24 4/4/24 38/2/24
f 9/9/24 38/2/24 12/9/24
f 12/9/24 38/2/24 24/13/24
f 12/9/24 24/13/24 47/9/24
f 47/9/24 24/13/24 21/10/24
f 47/9/24 21/10/24 17/9/24
f 17/9/24 21/10/24 5/5/24
f 17/9/24 5/5/24 20/9/24
f 20/9/24 5/5/24 7/7/24
f 20/9/24 7/7/24 29/9/24
f 29/9/24 7/7/24 28/9/24
f 10/9/6 47/9/25 48/9/25
f 47/9/25 10/9/6 12/9/6
f 47/9/25 19/9/9 48/9/25
f 19/9/9 47/9/25 17/9/9
f 49/14/26 50/15/26 51/16/26
f 51/16/26 50/15/26 52/17/26
f 50/15/26 53/18/26 52/17/26
f 52/17/26 53/18/26 54/19/26
f 53/18/26 55/20/26 54/19/26
f 55/20/26 56/14/26 54/19/26
f 56/14/26 57/21/26 54/19/26
f 56/14/26 55/20/26 58/22/26
f 57/21/26 59/23/26 54/19/26
f 58/22/26 55/20/26 60/24/26
f 54/19/26 59/23/26 61/25/26
f 55/20/26 62/26/26 60/24/26
f 59/23/26 63/27/26 61/25/26
f 63/27/26 64/28/26 61/25/26
f 61/25/26 64/28/26 65/29/26
f 60/24/26 62/26/26 66/30/26
f 66/30/26 62/26/26 67/31/26
f 62/26/26 68/32/26 67/31/26
f 64/28/26 69/33/26 65/29/26
f 65/29/26 69/33/26 70/9/26
f 69/33/26 71/34/26 70/9/26
f 71/34/26 72/33/26 70/9/26
f 70/9/26 72/33/26 73/29/26
f 67/31/26 68/32/26 74/35/26
f 74/35/26 68/32/26 75/36/26
f 68/32/26 76/37/26 75/36/26
f 72/33/26 77/28/26 73/29/26
f 77/28/26 78/27/26 73/29/26
f 73/29/26 78/27/26 79/25/26
f 75/36/26 76/37/26 80/35/26
f 76/37/26 81/32/26 80/35/26
f 80/35/26 81/32/26 82/31/26
f 82/31/26 81/32/26 83/30/26
f 81/32/26 84/26/26 83/30/26
f 78/27/26 85/23/26 79/25/26
f 85/23/26 86/21/26 79/25/26
f 79/25/26 86/21/26 87/19/26
f 83/30/26 84/26/26 88/24/26
f 88/24/26 84/26/26 89/22/26
f 84/26/26 90/20/26 89/22/26
f 86/21/26 91/14/26 87/19/26
f 91/14/26 89/22/26 90/20/26
f 91/14/26 90/20/26 87/19/26
f 87/19/26 90/20/26 92/17/26
f 90/20/26 93/18/26 92/17/26
f 92/17/26 93/18/26 94/16/26
f 93/18/26 95/15/26 94/16/26
f 96/14/26 94/16/26 95/15/26
f 97/38/27 98/38/28 99/38/29
f 98/38/28 97/38/27 100/38/30
f 101/39/31 102/38/32 103/38/33
f 102/38/32 101/39/31 104/39/34
f 105/38/35 106/40/35 107/38/35
f 106/40/35 105/38/35 108/38/35
f 106/40/35 108/38/35 109/41/35
f 109/41/35 108/38/35 110/38/35
f 109/41/35 110/38/35 111/42/35
f 111/42/35 110/38/35 112/38/35
f 111/42/35 112/38/35 113/43/35
f 113/43/35 112/38/35 114/38/35
f 113/43/35 114/38/35 115/44/35
f 115/44/35 114/38/35 116/38/35
f 115/44/35 116/38/35 117/45/35
f 117/45/35 116/38/35 118/38/35
f 117/45/35 118/38/35 119/44/35
f 119/44/35 118/38/35 120/38/35
f 119/44/35 120/38/35 121/43/35
f 121/43/35 120/38/35 122/38/35
f 121/43/35 122/38/35 123/42/35
f 123/42/35 122/38/35 124/38/35
f 123/42/35 124/38/35 125/41/35
f 125/41/35 124/38/35 126/38/35
f 125/41/35 126/38/35 127/40/35
f 127/40/35 126/38/35 128/38/35
f 129/38/36 130/38/37 131/38/38
f 130/38/37 129/38/36 99/38/29
f 132/46/39 117/45/40 133/47/41
f 117/45/40 132/46/39 115/44/42
f 134/38/43 122/38/44 135/38/45
f 122/38/44 134/38/43 124/38/46
f 112/38/47 136/38/48 100/38/30
f 136/38/48 112/38/47 110/38/49
f 137/48/50 123/42/51 138/49/52
f 123/42/51 137/48/50 121/43/53
f 139/38/54 124/38/46 134/38/43
f 124/38/46 139/38/54 126/38/55
f 109/41/56 140/39/57 106/40/58
f 140/39/57 109/41/56 141/50/59
f 142/39/60 143/51/61 144/52/62
f 143/51/61 142/39/60 145/50/63
f 120/38/64 146/38/65 147/38/66
f 146/38/65 120/38/64 118/38/67
f 148/38/68 149/38/69 136/38/48
f 149/38/69 148/38/68 150/38/70
f 151/38/71 152/38/72 153/38/73
f 152/38/72 151/38/71 154/38/74
f 155/49/75 113/43/76 156/48/77
f 113/43/76 155/49/75 111/42/78
f 116/38/79 97/38/27 157/38/80
f 97/38/27 116/38/79 114/38/81
f 118/38/67 157/38/80 146/38/65
f 157/38/80 118/38/67 116/38/79
f 105/38/82 158/38/83 159/38/84
f 158/38/83 105/38/82 107/38/85
f 111/42/78 141/50/59 109/41/56
f 141/50/59 111/42/78 155/49/75
f 108/38/86 159/38/84 148/38/68
f 159/38/84 108/38/86 105/38/82
f 160/53/87 161/47/88 162/54/89
f 161/47/88 160/53/87 163/46/90
f 106/40/58 158/38/83 107/38/85
f 158/38/83 106/40/58 140/39/57
f 104/39/34 128/38/91 102/38/32
f 128/38/91 104/39/34 127/40/92
f 145/50/63 164/55/93 143/51/61
f 164/55/93 145/50/63 165/49/94
f 110/38/49 148/38/68 136/38/48
f 148/38/68 110/38/49 108/38/86
f 166/38/95 167/38/96 150/38/70
f 167/38/96 166/38/95 168/38/97
f 133/47/41 119/44/98 169/46/99
f 119/44/98 133/47/41 117/45/40
f 169/46/99 121/43/53 137/48/50
f 121/43/53 169/46/99 119/44/98
f 170/50/100 123/42/51 125/41/101
f 123/42/51 170/50/100 138/49/52
f 156/48/77 115/44/42 132/46/39
f 115/44/42 156/48/77 113/43/76
f 171/48/102 132/46/39 163/46/90
f 132/46/39 171/48/102 156/48/77
f 172/38/103 168/38/97 166/38/95
f 168/38/97 172/38/103 173/38/104
f 174/49/105 170/50/100 175/50/106
f 170/50/100 174/49/105 138/49/52
f 154/38/74 103/38/33 152/38/72
f 103/38/33 154/38/74 176/38/107
f 146/38/65 129/38/36 177/38/108
f 129/38/36 146/38/65 157/38/80
f 114/38/81 100/38/30 97/38/27
f 100/38/30 114/38/81 112/38/47
f 178/38/109 179/38/110 180/38/111
f 179/38/110 178/38/109 181/38/112
f 158/38/83 166/38/95 159/38/84
f 166/38/95 158/38/83 172/38/103
f 177/38/108 131/38/38 182/38/113
f 131/38/38 177/38/108 129/38/36
f 102/38/32 126/38/55 139/38/54
f 126/38/55 102/38/32 128/38/91
f 175/50/106 104/39/34 101/39/31
f 104/39/34 175/50/106 170/50/100
f 183/56/114 174/49/105 184/55/115
f 174/49/105 183/56/114 185/48/116
f 104/39/34 125/41/101 127/40/92
f 125/41/101 104/39/34 170/50/100
f 165/49/94 156/48/77 171/48/102
f 156/48/77 165/49/94 155/49/75
f 100/38/30 149/38/69 98/38/28
f 149/38/69 100/38/30 136/38/48
f 103/38/33 139/38/54 152/38/72
f 139/38/54 103/38/33 102/38/32
f 186/51/117 101/39/31 187/52/118
f 101/39/31 186/51/117 175/50/106
f 159/38/84 150/38/70 148/38/68
f 150/38/70 159/38/84 166/38/95
f 181/38/112 182/38/113 179/38/110
f 182/38/113 181/38/112 177/38/108
f 188/56/119 163/46/90 160/53/87
f 163/46/90 188/56/119 171/48/102
f 150/38/70 189/38/120 149/38/69
f 189/38/120 150/38/70 167/38/96
f 190/53/121 185/48/116 183/56/114
f 185/48/116 190/53/121 191/46/122
f 184/55/115 175/50/106 186/51/117
f 175/50/106 184/55/115 174/49/105
f 147/38/66 177/38/108 181/38/112
f 177/38/108 147/38/66 146/38/65
f 187/52/118 103/38/33 176/38/107
f 103/38/33 187/52/118 101/39/31
f 152/38/72 134/38/43 153/38/73
f 134/38/43 152/38/72 139/38/54
f 162/54/89 191/46/122 190/53/121
f 191/46/122 162/54/89 161/47/88
f 185/48/116 138/49/52 174/49/105
f 138/49/52 185/48/116 137/48/50
f 142/39/60 173/38/104 172/38/103
f 173/38/104 142/39/60 144/52/62
f 98/38/28 189/38/120 192/38/123
f 189/38/120 98/38/28 149/38/69
f 180/38/111 153/38/73 178/38/109
f 153/38/73 180/38/111 151/38/71
f 135/38/45 181/38/112 178/38/109
f 181/38/112 135/38/45 147/38/66
f 163/46/90 133/47/41 161/47/88
f 133/47/41 163/46/90 132/46/39
f 157/38/80 99/38/29 129/38/36
f 99/38/29 157/38/80 97/38/27
f 144/52/24 168/38/24 173/38/24
f 168/38/24 144/52/24 143/51/24
f 168/38/24 143/51/24 167/38/24
f 167/38/24 143/51/24 164/55/24
f 167/38/24 164/55/24 189/38/24
f 189/38/24 164/55/24 193/38/24
f 193/38/24 164/55/24 194/57/24
f 195/38/24 189/38/24 193/38/24
f 194/57/24 164/55/24 188/56/24
f 194/57/24 188/56/24 196/58/24
f 196/58/24 188/56/24 197/59/24
f 189/38/24 195/38/24 192/38/24
f 192/38/24 195/38/24 198/38/24
f 192/38/24 198/38/24 199/38/24
f 197/59/24 188/56/24 160/53/24
f 197/59/24 160/53/24 200/60/24
f 200/60/24 160/53/24 201/61/24
f 201/61/24 160/53/24 162/54/24
f 201/61/24 162/54/24 202/62/24
f 192/38/24 199/38/24 130/38/24
f 130/38/24 199/38/24 203/38/24
f 130/38/24 203/38/24 204/38/24
f 202/62/24 162/54/24 190/53/24
f 202/62/24 190/53/24 205/61/24
f 205/61/24 190/53/24 206/60/24
f 130/38/24 204/38/24 131/38/24
f 131/38/24 204/38/24 207/38/24
f 131/38/24 207/38/24 208/38/24
f 131/38/24 208/38/24 182/38/24
f 182/38/24 208/38/24 209/38/24
f 206/60/24 190/53/24 183/56/24
f 206/60/24 183/56/24 210/59/24
f 210/59/24 183/56/24 211/58/24
f 182/38/24 209/38/24 179/38/24
f 179/38/24 209/38/24 212/38/24
f 179/38/24 212/38/24 213/38/24
f 211/58/24 183/56/24 184/55/24
f 179/38/24 213/38/24 180/38/24
f 211/58/24 184/55/24 214/57/24
f 180/38/24 213/38/24 215/38/24
f 214/57/24 184/55/24 216/38/24
f 180/38/24 215/38/24 216/38/24
f 180/38/24 216/38/24 184/55/24
f 180/38/24 184/55/24 186/51/24
f 180/38/24 186/51/24 151/38/24
f 151/38/24 186/51/24 187/52/24
f 151/38/24 187/52/24 154/38/24
f 154/38/24 187/52/24 176/38/24
f 99/38/29 192/38/123 130/38/37
f 192/38/123 99/38/29 98/38/28
f 191/46/122 137/48/50 185/48/116
f 137/48/50 191/46/122 169/46/99
f 122/38/44 147/38/66 135/38/45
f 147/38/66 122/38/44 120/38/64
f 155/49/75 145/50/63 141/50/59
f 145/50/63 155/49/75 165/49/94
f 164/55/93 171/48/102 188/56/119
f 171/48/102 164/55/93 165/49/94
f 161/47/88 169/46/99 191/46/122
f 169/46/99 161/47/88 133/47/41
f 153/38/73 135/38/45 178/38/109
f 135/38/45 153/38/73 134/38/43
f 140/39/57 172/38/103 158/38/83
f 172/38/103 140/39/57 142/39/60
f 141/50/59 142/39/60 140/39/57
f 142/39/60 141/50/59 145/50/63
