# Generated by GTAClone/tools/split_car_wheels.py from truck.obj
# Kenney Car Kit (CC0 1.0); the split is a derivative work, also CC0.
mtllib colormap.mtl
v 0.516667 0.400000 -1.383333
v 0.500000 0.500000 -1.450000
v 0.550000 0.500000 -1.400000
v -0.516667 0.400000 -1.383333
v -0.550000 0.500000 -1.400000
v -0.500000 0.500000 -1.450000
v -0.650000 0.400939 -1.136711
v -0.516667 0.400000 -1.136835
v -0.650000 0.400000 -1.136835
v -0.516980 0.400939 -1.136711
v -0.650000 0.200000 -1.060000
v -0.650000 0.400000 -1.350000
v -0.650000 0.200000 -1.350000
v -0.650000 0.495000 -1.097750
v -0.650000 0.300000 -1.060000
v -0.650000 0.575772 -1.035772
v -0.650000 0.377646 -1.049778
v -0.650000 0.450000 -1.019808
v -0.650000 0.637750 -0.955000
v -0.650000 0.512132 -0.972132
v -0.650000 0.559808 -0.910000
v -0.650000 0.676711 -0.860939
v -0.650000 0.589778 -0.837646
v -0.650000 0.690000 -0.760000
v -0.650000 0.600000 -0.760000
v -0.650000 0.589778 -0.682354
v -0.650000 0.676711 -0.659061
v -0.650000 0.559808 -0.610000
v -0.650000 0.637750 -0.565000
v -0.650000 0.512132 -0.547868
v -0.650000 0.575772 -0.484228
v -0.650000 0.450000 -0.500192
v -0.650000 0.377646 -0.470222
v -0.650000 0.495000 -0.422250
v -0.650000 0.300000 -0.460000
v -0.650000 0.200000 -0.460000
v -0.650000 0.300000 -0.370000
v -0.650000 0.400939 -0.383289
v -0.650000 0.200000 0.560000
v -0.650000 0.300000 0.470000
v -0.650000 0.400939 0.483289
v -0.650000 0.495000 0.522250
v -0.650000 0.300000 0.560000
v -0.650000 0.575772 0.584228
v -0.650000 0.377646 0.570222
v -0.650000 0.450000 0.600192
v -0.650000 0.637750 0.665000
v -0.650000 0.512132 0.647868
v -0.650000 0.559808 0.710000
v -0.650000 0.676711 0.759061
v -0.650000 0.589778 0.782354
v -0.650000 0.690000 0.860000
v -0.650000 0.600000 0.860000
v -0.650000 0.589778 0.937646
v -0.650000 0.676711 0.960939
v -0.650000 0.559808 1.010000
v -0.650000 0.637750 1.055000
v -0.650000 0.512132 1.072132
v -0.650000 0.575772 1.135772
v -0.650000 0.450000 1.119808
v -0.650000 0.377646 1.149778
v -0.650000 0.495000 1.197750
v -0.650000 0.300000 1.160000
v -0.650000 0.200000 1.160000
v -0.650000 0.200000 1.300000
v -0.650000 0.400000 1.236835
v -0.650000 0.400939 1.236711
v -0.650000 0.400000 1.300000
v -0.550000 0.400000 -1.450000
v 0.550000 0.200000 -1.450000
v -0.550000 0.200000 -1.450000
v 0.550000 0.400000 -1.450000
v 0.650000 0.400000 1.236835
v 0.650000 0.495000 1.197750
v 0.650000 0.400939 1.236711
v 0.650000 0.200000 1.300000
v 0.650000 0.400000 1.300000
v 0.650000 0.200000 1.160000
v 0.650000 0.300000 1.160000
v 0.650000 0.377646 1.149778
v 0.650000 0.575772 1.135772
v 0.650000 0.450000 1.119808
v 0.650000 0.512132 1.072132
v 0.650000 0.637750 1.055000
v 0.650000 0.559808 1.010000
v 0.650000 0.676711 0.960939
v 0.650000 0.589778 0.937646
v 0.650000 0.600000 0.860000
v 0.650000 0.690000 0.860000
v 0.650000 0.589778 0.782354
v 0.650000 0.676711 0.759061
v 0.650000 0.559808 0.710000
v 0.650000 0.637750 0.665000
v 0.650000 0.512132 0.647868
v 0.650000 0.450000 0.600192
v 0.650000 0.575772 0.584228
v 0.650000 0.377646 0.570222
v 0.650000 0.300000 0.560000
v 0.650000 0.495000 0.522250
v 0.650000 0.200000 0.560000
v 0.650000 0.400939 0.483289
v 0.650000 0.300000 0.470000
v 0.650000 0.300000 -0.370000
v 0.650000 0.200000 -0.460000
v 0.650000 0.495000 -0.422250
v 0.650000 0.400939 -0.383289
v 0.650000 0.300000 -0.460000
v 0.650000 0.377646 -0.470222
v 0.650000 0.575772 -0.484228
v 0.650000 0.450000 -0.500192
v 0.650000 0.512132 -0.547868
v 0.650000 0.637750 -0.565000
v 0.650000 0.559808 -0.610000
v 0.650000 0.676711 -0.659061
v 0.650000 0.589778 -0.682354
v 0.650000 0.600000 -0.760000
v 0.650000 0.690000 -0.760000
v 0.650000 0.589778 -0.837646
v 0.650000 0.676711 -0.860939
v 0.650000 0.559808 -0.910000
v 0.650000 0.637750 -0.955000
v 0.650000 0.512132 -0.972132
v 0.650000 0.450000 -1.019808
v 0.650000 0.575772 -1.035772
v 0.650000 0.377646 -1.049778
v 0.650000 0.300000 -1.060000
v 0.650000 0.495000 -1.097750
v 0.650000 0.200000 -1.060000
v 0.650000 0.400939 -1.136711
v 0.650000 0.400000 -1.136835
v 0.650000 0.200000 -1.350000
v 0.650000 0.400000 -1.350000
v 0.550000 0.500000 1.300000
v 0.548333 0.495000 1.197750
v 0.550000 0.500000 1.193913
v 0.516980 0.400939 1.236711
v 0.516667 0.400000 1.236835
v 0.516667 0.400000 1.316667
v 0.550000 0.500000 1.350000
v -0.550000 0.575772 1.135772
v -0.550000 0.637750 1.055000
v -0.550000 0.637750 -0.565000
v -0.550000 0.676711 -0.659061
v 0.550000 0.637750 0.665000
v 0.550000 0.676711 0.759061
v 0.550000 0.676711 -0.659061
v 0.550000 0.637750 -0.565000
v 0.550000 0.575772 -1.035772
v 0.550000 0.637750 -0.955000
v 0.516980 0.400939 0.483289
v 0.548333 0.495000 0.522250
v 0.550000 0.500000 -0.426087
v 0.548333 0.495000 -0.422250
v 0.550000 0.575772 -0.484228
v -0.550000 0.575772 -0.484228
v 0.550000 0.575772 0.584228
v 0.550000 0.690000 0.860000
v 0.550000 0.676711 0.960939
v 0.550000 0.637750 1.055000
v 0.550000 0.575772 1.135772
v -0.550000 0.690000 -0.760000
v 0.550000 0.690000 -0.760000
v -0.516980 0.400939 0.483289
v -0.548333 0.495000 0.522250
v 0.550000 0.676711 -0.860939
v -0.548333 0.495000 -0.422250
v -0.516980 0.400939 -0.383289
v -0.550000 0.500000 0.526087
v -0.550000 0.500000 -0.426087
v -0.483333 0.300000 -0.370000
v -0.483333 0.300000 0.470000
v 0.550000 0.500000 0.526087
v 0.516980 0.400939 -0.383289
v 0.483333 0.300000 -0.370000
v 0.483333 0.300000 0.470000
v -0.516980 0.400939 1.236711
v -0.548333 0.495000 1.197750
v -0.550000 0.637750 0.665000
v -0.550000 0.575772 0.584228
v -0.550000 0.676711 -0.860939
v -0.548333 0.495000 -1.097750
v -0.550000 0.500000 -1.093913
v -0.550000 0.575772 -1.035772
v -0.550000 0.690000 0.860000
v -0.550000 0.676711 0.759061
v -0.550000 0.676711 0.960939
v -0.550000 0.500000 1.193913
v 0.516980 0.400939 -1.136711
v 0.516667 0.400000 -1.136835
v -0.550000 0.637750 -0.955000
v 0.548333 0.495000 -1.097750
v 0.550000 0.500000 -1.093913
v 0.550000 0.400000 1.400000
v -0.550000 0.200000 1.400000
v 0.550000 0.200000 1.400000
v -0.550000 0.400000 1.400000
v -0.516667 0.400000 1.236835
v -0.550000 0.500000 1.300000
v -0.516667 0.400000 1.316667
v -0.550000 0.500000 1.350000
v -0.620711 0.400000 -1.420711
v 0.620711 0.400000 -1.420711
v -0.450000 0.800000 -0.250000
v 0.450000 0.600000 -0.250000
v -0.450000 0.600000 -0.250000
v 0.450000 0.800000 -0.250000
v -0.450000 0.600000 -1.350000
v 0.450000 0.600000 -0.760000
v 0.450000 0.600000 -1.350000
v -0.450000 0.600000 -0.760000
v 0.620711 0.400000 1.370711
v 0.620711 0.200000 1.370711
v -0.620711 0.400000 1.370711
v -0.620711 0.200000 1.370711
v 0.412500 0.500000 1.350000
v -0.412500 0.500000 1.350000
v 0.620711 0.200000 -1.420711
v -0.620711 0.200000 -1.420711
v 0.400000 0.200000 1.160000
v 0.400000 0.200000 0.560000
v -0.400000 0.200000 1.160000
v 0.400000 0.200000 -0.460000
v 0.400000 0.200000 -1.060000
v -0.400000 0.200000 -1.060000
v -0.400000 0.200000 0.560000
v -0.400000 0.200000 -0.460000
v 0.550000 0.500000 -1.250000
v -0.550000 0.500000 -1.250000
v 0.274313 0.500000 1.350000
v -0.274313 0.600000 1.350000
v -0.274313 0.500000 1.350000
v 0.274313 0.600000 1.350000
v 0.125000 0.150000 1.400000
v 0.175000 0.200000 1.450000
v 0.125000 0.150000 1.450000
v 0.175000 0.200000 1.400000
v -0.125000 0.150000 1.400000
v -0.125000 0.150000 1.450000
v -0.175000 0.200000 1.400000
v -0.175000 0.200000 1.450000
v 0.175000 0.275000 1.450000
v 0.125000 0.325000 1.400000
v 0.125000 0.325000 1.450000
v 0.175000 0.275000 1.400000
v -0.175000 0.275000 1.400000
v -0.125000 0.325000 1.400000
v -0.125000 0.325000 1.450000
v -0.175000 0.275000 1.450000
v -0.125000 0.150000 -1.450000
v -0.175000 0.200000 -1.500000
v -0.125000 0.150000 -1.500000
v -0.175000 0.200000 -1.450000
v 0.125000 0.150000 -1.450000
v 0.125000 0.150000 -1.500000
v 0.175000 0.200000 -1.450000
v 0.175000 0.200000 -1.500000
v -0.175000 0.275000 -1.500000
v -0.125000 0.325000 -1.450000
v -0.125000 0.325000 -1.500000
v -0.175000 0.275000 -1.450000
v 0.175000 0.275000 -1.450000
v 0.125000 0.325000 -1.450000
v 0.125000 0.325000 -1.500000
v 0.175000 0.275000 -1.500000
v 0.400000 0.450000 -0.500192
v 0.400000 0.512132 -0.547868
v 0.400000 0.559808 -0.610000
v 0.400000 0.589778 -0.682354
v 0.400000 0.377646 -1.049778
v 0.400000 0.450000 -1.019808
v 0.400000 0.559808 1.010000
v 0.400000 0.589778 0.937646
v 0.400000 0.450000 1.119808
v 0.400000 0.512132 1.072132
v -0.400000 0.300000 -0.460000
v 0.400000 0.589778 -0.837646
v 0.400000 0.600000 -0.760000
v 0.400000 0.300000 0.560000
v 0.400000 0.300000 -1.060000
v 0.400000 0.559808 0.710000
v 0.400000 0.512132 0.647868
v 0.400000 0.559808 -0.910000
v 0.400000 0.512132 -0.972132
v 0.400000 0.600000 0.860000
v 0.400000 0.589778 0.782354
v 0.400000 0.377646 0.570222
v 0.400000 0.377646 -0.470222
v 0.400000 0.300000 -0.460000
v 0.400000 0.450000 0.600192
v 0.400000 0.300000 1.160000
v 0.400000 0.377646 1.149778
v -0.400000 0.300000 1.160000
v -0.400000 0.377646 1.149778
v -0.400000 0.300000 0.560000
v -0.400000 0.589778 0.782354
v -0.400000 0.600000 0.860000
v -0.400000 0.559808 0.710000
v -0.400000 0.450000 1.119808
v -0.400000 0.512132 1.072132
v -0.400000 0.377646 0.570222
v -0.400000 0.512132 0.647868
v -0.400000 0.450000 0.600192
v -0.400000 0.559808 1.010000
v -0.400000 0.589778 0.937646
v -0.400000 0.377646 -0.470222
v -0.400000 0.300000 -1.060000
v -0.400000 0.589778 -0.837646
v -0.400000 0.600000 -0.760000
v -0.400000 0.559808 -0.910000
v -0.400000 0.512132 -0.547868
v -0.400000 0.450000 -0.500192
v -0.400000 0.377646 -1.049778
v -0.400000 0.512132 -0.972132
v -0.400000 0.450000 -1.019808
v -0.400000 0.559808 -0.610000
v -0.400000 0.589778 -0.682354
v 0.750000 0.800000 0.622902
v 0.550000 0.700000 0.622902
v 0.750000 0.700000 0.622902
v 0.550000 0.800000 0.622902
v 0.550000 0.800000 0.522902
v 0.750000 0.800000 0.522902
v -0.450000 1.300000 -0.050000
v 0.450000 1.300000 0.350000
v 0.450000 1.300000 -0.050000
v -0.450000 1.300000 0.350000
v 0.750000 0.700000 0.522902
v 0.550000 0.700000 0.522902
v -0.550000 0.800000 -0.250000
v -0.429721 0.892848 -0.212861
v 0.550000 0.800000 -0.250000
v -0.366860 1.207152 -0.087139
v 0.429721 0.892848 -0.212861
v 0.366860 1.207152 -0.087139
v 0.448788 0.800000 0.750000
v 0.550000 0.800000 0.750000
v 0.364405 1.221913 0.412469
v -0.364405 1.221913 0.412469
v -0.550000 0.800000 0.750000
v -0.448788 0.800000 0.750000
v -0.750000 0.700000 0.622902
v -0.550000 0.700000 0.522902
v -0.550000 0.700000 0.622902
v -0.750000 0.700000 0.522902
v 0.550000 0.708333 1.300000
v 0.550000 0.700000 1.350000
v 0.412500 0.700000 1.350000
v -0.412500 0.700000 1.350000
v -0.550000 0.700000 1.350000
v -0.550000 0.708333 1.300000
v -0.750000 0.800000 0.522902
v -0.550000 0.800000 0.622902
v -0.550000 0.800000 0.522902
v -0.750000 0.800000 0.622902
v 0.469612 1.201942 0.301349
v 0.469612 1.201942 0.059771
v 0.550000 0.800000 0.059771
v -0.550000 0.800000 0.059771
v -0.469612 1.201942 0.059771
v -0.469612 1.201942 0.301349
v 0.450000 0.800000 -1.350000
v -0.450000 0.800000 -1.350000
v 0.274313 0.500000 1.350000
v 0.274313 0.600000 1.350000
v -0.274313 0.600000 1.350000
v -0.274313 0.500000 1.350000
v -0.550000 0.600000 -1.400000
v -0.550000 0.600000 -1.350000
v -0.550000 0.700000 -1.350000
v -0.550000 0.800000 -1.400000
v -0.550000 0.700000 -1.400000
v -0.500000 0.800000 -1.450000
v -0.500000 0.700000 -1.450000
v -0.500000 0.600000 -1.450000
v 0.500000 0.800000 -1.450000
v 0.550000 0.800000 -1.400000
v 0.550000 0.600000 -1.350000
v 0.550000 0.700000 -1.350000
v 0.550000 0.700000 -1.400000
v 0.550000 0.600000 -1.400000
v -0.275000 0.700000 -1.450000
v 0.275000 0.700000 -1.450000
v 0.500000 0.700000 -1.450000
v 0.275000 0.600000 -1.450000
v -0.275000 0.600000 -1.450000
v 0.500000 0.600000 -1.450000
v -0.469612 1.201942 0.059771
v -0.550000 0.800000 0.059771
v -0.469612 1.201942 0.301349
v -0.550000 0.800000 0.622902
v 0.364405 1.221913 0.412469
v -0.364405 1.221913 0.412469
v 0.469612 1.201942 0.301349
v 0.550000 0.800000 0.059771
v 0.469612 1.201942 0.059771
v 0.550000 0.800000 0.622902
v -0.366860 1.207152 -0.087139
v 0.429721 0.892848 -0.212861
v -0.429721 0.892848 -0.212861
v 0.366860 1.207152 -0.087139
v 0.550000 0.700000 1.350000
v 0.412500 0.500000 1.350000
v 0.550000 0.500000 1.350000
v 0.412500 0.700000 1.350000
v 0.550000 0.500000 1.300000
v 0.550000 0.708333 1.300000
v -0.550000 0.500000 1.350000
v -0.550000 0.708333 1.300000
v -0.550000 0.500000 1.300000
v -0.550000 0.700000 1.350000
v -0.412500 0.700000 1.350000
v -0.412500 0.500000 1.350000
v -0.500000 0.700000 -1.450000
v -0.275000 0.600000 -1.450000
v -0.500000 0.600000 -1.450000
v -0.275000 0.700000 -1.450000
v 0.500000 0.600000 -1.450000
v 0.500000 0.700000 -1.450000
v 0.275000 0.700000 -1.450000
v 0.275000 0.600000 -1.450000
vt 0.468750 0.318478
vt 0.468750 0.335870
vt 0.468750 0.318642
vt 0.468750 0.283696
vt 0.468750 0.335000
vt 0.468750 0.301087
vt 0.468750 0.349047
vt 0.468750 0.314591
vt 0.468750 0.327174
vt 0.468750 0.359826
vt 0.468750 0.337979
vt 0.468750 0.346271
vt 0.468750 0.366602
vt 0.468750 0.351483
vt 0.468750 0.368913
vt 0.468750 0.353261
vt 0.468750 0.388043
vt 0.468750 0.275000
vt 0.468750 0.332143
vt 0.468750 0.417857
vt 0.468750 0.475000
vt 0.343750 0.327174
vt 0.343750 0.337979
vt 0.343750 0.346271
vt 0.343750 0.351483
vt 0.343750 0.314591
vt 0.343750 0.301087
vt 0.343750 0.283696
vt 0.343750 0.353261
vt 0.468750 0.638043
vt 0.468750 0.620652
vt 0.468750 0.725000
vt 0.468750 0.654191
vt 0.468750 0.708852
vt 0.468750 0.711420
vt 0.468750 0.622101
vt 0.468750 0.707946
vt 0.468750 0.603261
vt 0.468750 0.585870
vt 0.468750 0.609826
vt 0.468750 0.599047
vt 0.468750 0.616602
vt 0.468750 0.618913
vt 0.843750 0.388043
vt 0.843750 0.370652
vt 0.843750 0.332143
vt 0.843750 0.275000
vt 0.843750 0.417857
vt 0.843750 0.475000
vt 0.093750 0.025000
vt 0.093750 0.215533
vt 0.093750 0.225000
vt 0.093750 0.218003
vt 0.093750 0.069013
vt 0.218750 0.217000
vt 0.218750 0.025000
vt 0.218750 0.225000
vt 0.343750 0.225000
vt 0.343750 0.025000
vn 0.677132 -0.510830 -0.529664
vn 0.273166 -0.501670 -0.820797
vn 0.864004 -0.348556 -0.363326
vn -0.677132 -0.510830 -0.529664
vn -0.864004 -0.348556 -0.363326
vn -0.273166 -0.501670 -0.820797
vn 0.000000 0.258819 -0.965926
vn 0.000000 0.130526 -0.991445
vn 0.000000 0.233891 -0.972263
vn -1.000000 0.000000 0.000000
vn -0.195090 0.000000 -0.980785
vn 0.195090 0.000000 -0.980785
vn 1.000000 0.000000 0.000000
vn 0.948683 -0.316228 0.000000
vn 0.000000 0.866025 0.500000
vn 0.000000 0.707107 0.707107
vn 0.000000 0.965926 0.258819
vn 0.000000 0.866025 -0.500000
vn 0.000000 0.965926 -0.258819
vn 0.000000 0.707107 -0.707107
vn 0.000000 0.500000 -0.866025
vn 0.000000 0.479903 -0.877321
vn 0.000000 0.500000 0.866025
vn 0.000000 0.608761 0.793353
vn 0.000000 0.479903 0.877321
vn 0.000000 1.000000 0.000000
vn 0.000000 0.258819 0.965926
vn 0.000000 0.233891 0.972263
vn -0.948683 -0.316228 0.000000
vn 0.000000 0.608761 -0.793353
vn 0.000000 0.130526 0.991445
vn 0.195090 0.000000 0.980785
vn -0.195090 0.000000 0.980785
vn 0.000000 0.751840 0.659346
vn 0.000000 0.813241 0.581927
vn 0.000000 0.000000 -1.000000
vn 0.707107 0.000000 0.707107
vn 0.923879 0.000000 0.382683
vn -0.707107 0.000000 0.707107
vn -0.923879 0.000000 0.382683
vn 0.000000 -0.316228 0.948683
vn 0.707107 0.000000 -0.707107
vn -0.923879 0.000000 -0.382683
vn -0.707107 0.000000 -0.707107
vn 0.923879 0.000000 -0.382683
vn 0.000000 -1.000000 0.000000
vn 0.000000 -0.000000 1.000000
vn 0.382683 -0.923879 -0.000000
vn 0.923879 -0.382683 -0.000000
vn -0.382683 -0.923879 0.000000
vn -0.923879 -0.382683 0.000000
vn 0.923879 0.382683 -0.000000
vn 0.382683 0.923879 -0.000000
vn -0.000000 0.000000 -1.000000
vn -0.382683 0.923879 0.000000
vn -0.923879 0.382683 0.000000
vn -0.382683 -0.923879 0.000000
vn -0.923879 -0.382683 0.000000
vn 0.382683 -0.923879 0.000000
vn 0.923879 -0.382683 0.000000
vn -0.923879 0.382683 0.000000
vn -0.382683 0.923879 0.000000
vn 0.000000 0.000000 1.000000
vn 0.382683 0.923879 0.000000
vn 0.923879 0.382683 0.000000
vn 0.000000 -0.500000 -0.866025
vn 0.000000 -0.707107 -0.707107
vn 0.000000 -0.866025 -0.500000
vn 0.000000 -0.965926 -0.258819
vn 0.000000 -0.500000 0.866025
vn 0.000000 -0.258819 0.965926
vn 0.000000 -0.065403 -0.997859
vn 0.000000 -0.965926 0.258819
vn 0.000000 -0.991445 0.130526
vn 0.000000 -0.065403 0.997859
vn 0.000000 -0.866025 0.500000
vn 0.000000 -0.707107 0.707107
vn 0.000000 -0.258819 -0.965926
vn 0.000000 -0.991445 -0.130526
vn 0.707107 0.707107 0.000000
vn 0.000000 0.891291 0.453431
vn 0.000000 0.371391 -0.928477
vn 0.000000 0.624695 0.780869
vn 0.000000 0.986394 0.164399
vn -0.707107 0.707107 0.000000
vn 0.980581 0.196116 0.000000
vn -0.980581 0.196116 0.000000
vn -0.382683 0.000000 -0.923879
vn 0.382683 0.000000 -0.923879
vn 0.000000 0.000000 1.000000
vn 0.741498 0.000000 0.670956
vn -0.741498 0.000000 0.670956
usemtl colormap
f 1/1/1 2/2/2 3/2/3
f 4/1/4 5/2/5 6/2/6
f 7/3/7 8/1/8 9/1/8
f 8/1/8 7/3/7 10/3/9
f 11/4/10 12/1/10 13/4/10
f 12/1/10 11/4/10 9/1/10
f 9/1/10 11/4/10 7/3/10
f 7/3/10 11/4/10 14/5/10
f 14/5/10 11/4/10 15/6/10
f 14/5/10 15/6/10 16/7/10
f 16/7/10 15/6/10 17/8/10
f 16/7/10 17/8/10 18/9/10
f 16/7/10 18/9/10 19/10/10
f 19/10/10 18/9/10 20/11/10
f 19/10/10 20/11/10 21/12/10
f 19/10/10 21/12/10 22/13/10
f 22/13/10 21/12/10 23/14/10
f 22/13/10 23/14/10 24/15/10
f 24/15/10 23/14/10 25/16/10
f 24/15/10 25/16/10 26/14/10
f 24/15/10 26/14/10 27/13/10
f 27/13/10 26/14/10 28/12/10
f 27/13/10 28/12/10 29/10/10
f 29/10/10 28/12/10 30/11/10
f 29/10/10 30/11/10 31/7/10
f 31/7/10 30/11/10 32/9/10
f 31/7/10 32/9/10 33/8/10
f 31/7/10 33/8/10 34/5/10
f 34/5/10 33/8/10 35/6/10
f 34/5/10 35/6/10 36/4/10
f 34/5/10 36/4/10 37/6/10
f 34/5/10 37/6/10 38/3/10
f 37/6/10 36/4/10 39/4/10
f 37/6/10 39/4/10 40/6/10
f 40/6/10 39/4/10 41/3/10
f 41/3/10 39/4/10 42/5/10
f 42/5/10 39/4/10 43/6/10
f 42/5/10 43/6/10 44/7/10
f 44/7/10 43/6/10 45/8/10
f 44/7/10 45/8/10 46/9/10
f 44/7/10 46/9/10 47/10/10
f 47/10/10 46/9/10 48/11/10
f 47/10/10 48/11/10 49/12/10
f 47/10/10 49/12/10 50/13/10
f 50/13/10 49/12/10 51/14/10
f 50/13/10 51/14/10 52/15/10
f 52/15/10 51/14/10 53/16/10
f 52/15/10 53/16/10 54/14/10
f 52/15/10 54/14/10 55/13/10
f 55/13/10 54/14/10 56/12/10
f 55/13/10 56/12/10 57/10/10
f 57/10/10 56/12/10 58/11/10
f 57/10/10 58/11/10 59/7/10
f 59/7/10 58/11/10 60/9/10
f 59/7/10 60/9/10 61/8/10
f 59/7/10 61/8/10 62/5/10
f 62/5/10 61/8/10 63/6/10
f 62/5/10 63/6/10 64/4/10
f 62/5/10 64/4/10 65/4/10
f 62/5/10 65/4/10 66/1/10
f 62/5/10 66/1/10 67/3/10
f 66/1/10 65/4/10 68/1/10
f 69/1/11 70/4/12 71/4/11
f 70/4/12 69/1/11 72/1/12
f 73/1/13 74/5/13 75/3/13
f 76/4/13 74/5/13 73/1/13
f 76/4/13 73/1/13 77/1/13
f 78/4/13 74/5/13 76/4/13
f 79/6/13 74/5/13 78/4/13
f 80/8/13 74/5/13 79/6/13
f 80/8/13 81/7/13 74/5/13
f 82/9/13 81/7/13 80/8/13
f 83/11/13 81/7/13 82/9/13
f 83/11/13 84/10/13 81/7/13
f 85/12/13 84/10/13 83/11/13
f 85/12/13 86/13/13 84/10/13
f 87/14/13 86/13/13 85/12/13
f 88/16/13 86/13/13 87/14/13
f 88/16/13 89/15/13 86/13/13
f 90/14/13 89/15/13 88/16/13
f 90/14/13 91/13/13 89/15/13
f 92/12/13 91/13/13 90/14/13
f 92/12/13 93/10/13 91/13/13
f 94/11/13 93/10/13 92/12/13
f 95/9/13 93/10/13 94/11/13
f 95/9/13 96/7/13 93/10/13
f 97/8/13 96/7/13 95/9/13
f 98/6/13 96/7/13 97/8/13
f 96/7/13 98/6/13 99/5/13
f 100/4/13 99/5/13 98/6/13
f 100/4/13 101/3/13 99/5/13
f 100/4/13 102/6/13 101/3/13
f 100/4/13 103/6/13 102/6/13
f 104/4/13 103/6/13 100/4/13
f 104/4/13 105/5/13 103/6/13
f 103/6/13 105/5/13 106/3/13
f 107/6/13 105/5/13 104/4/13
f 108/8/13 105/5/13 107/6/13
f 108/8/13 109/7/13 105/5/13
f 110/9/13 109/7/13 108/8/13
f 111/11/13 109/7/13 110/9/13
f 111/11/13 112/10/13 109/7/13
f 113/12/13 112/10/13 111/11/13
f 113/12/13 114/13/13 112/10/13
f 115/14/13 114/13/13 113/12/13
f 116/16/13 114/13/13 115/14/13
f 116/16/13 117/15/13 114/13/13
f 118/14/13 117/15/13 116/16/13
f 118/14/13 119/13/13 117/15/13
f 120/12/13 119/13/13 118/14/13
f 120/12/13 121/10/13 119/13/13
f 122/11/13 121/10/13 120/12/13
f 123/9/13 121/10/13 122/11/13
f 123/9/13 124/7/13 121/10/13
f 125/8/13 124/7/13 123/9/13
f 126/6/13 124/7/13 125/8/13
f 124/7/13 126/6/13 127/5/13
f 128/4/13 127/5/13 126/6/13
f 128/4/13 129/3/13 127/5/13
f 128/4/13 130/1/13 129/3/13
f 131/4/13 130/1/13 128/4/13
f 130/1/13 131/4/13 132/1/13
f 133/2/14 134/5/14 135/2/14
f 134/5/14 133/2/14 136/3/14
f 136/3/14 133/2/14 137/1/14
f 137/1/14 133/2/14 138/1/14
f 138/1/14 133/2/14 139/2/14
f 57/10/15 140/7/16 141/10/15
f 140/7/16 57/10/15 59/7/16
f 27/13/17 142/10/15 143/13/17
f 142/10/15 27/13/17 29/10/15
f 144/10/18 91/13/19 93/10/18
f 91/13/19 144/10/18 145/13/19
f 146/13/17 112/10/15 114/13/17
f 112/10/15 146/13/17 147/10/15
f 148/7/20 121/10/18 124/7/20
f 121/10/18 148/7/20 149/10/18
f 150/3/9 99/5/21 101/3/7
f 99/5/21 150/3/9 151/5/22
f 105/5/23 152/2/24 153/5/25
f 152/2/24 105/5/23 109/7/16
f 152/2/24 109/7/16 154/7/16
f 29/10/15 155/7/16 142/10/15
f 155/7/16 29/10/15 31/7/16
f 156/7/20 93/10/18 96/7/20
f 93/10/18 156/7/20 144/10/18
f 147/10/15 109/7/16 112/10/15
f 109/7/16 147/10/15 154/7/16
f 145/13/19 89/15/26 91/13/19
f 89/15/26 145/13/19 157/15/26
f 157/15/26 86/13/17 89/15/26
f 86/13/17 157/15/26 158/13/17
f 159/10/15 81/7/16 84/10/15
f 81/7/16 159/10/15 160/7/16
f 24/15/26 143/13/17 161/15/26
f 143/13/17 24/15/26 27/13/17
f 162/15/26 114/13/17 117/15/26
f 114/13/17 162/15/26 146/13/17
f 42/5/21 163/3/9 41/3/7
f 163/3/9 42/5/21 164/5/22
f 149/10/18 119/13/19 121/10/18
f 119/13/19 149/10/18 165/13/19
f 166/5/25 38/3/27 167/3/28
f 38/3/27 166/5/25 34/5/23
f 166/5/29 168/2/29 169/2/29
f 168/2/29 166/5/29 167/3/29
f 168/2/29 167/3/29 170/6/29
f 168/2/29 170/6/29 164/5/29
f 164/5/29 170/6/29 163/3/29
f 163/3/29 170/6/29 171/6/29
f 74/5/23 136/3/28 75/3/27
f 136/3/28 74/5/23 134/5/25
f 172/2/14 153/5/14 152/2/14
f 153/5/14 172/2/14 173/3/14
f 173/3/14 172/2/14 174/6/14
f 174/6/14 172/2/14 151/5/14
f 174/6/14 151/5/14 150/3/14
f 174/6/14 150/3/14 175/6/14
f 176/3/28 62/5/23 67/3/27
f 62/5/23 176/3/28 177/5/25
f 44/7/20 178/10/18 179/7/20
f 178/10/18 44/7/20 47/10/18
f 22/13/19 161/15/26 180/13/19
f 161/15/26 22/13/19 24/15/26
f 14/5/21 10/3/9 7/3/7
f 10/3/9 14/5/21 181/5/22
f 41/3/7 171/6/8 40/6/8
f 171/6/8 41/3/7 163/3/9
f 106/3/27 153/5/25 173/3/28
f 153/5/25 106/3/27 105/5/23
f 16/7/20 181/5/22 14/5/21
f 181/5/22 16/7/20 182/2/30
f 182/2/30 16/7/20 183/7/20
f 103/6/31 173/3/28 174/6/31
f 173/3/28 103/6/31 106/3/27
f 50/13/19 184/15/26 185/13/19
f 184/15/26 50/13/19 52/15/26
f 74/5/23 135/2/24 134/5/25
f 135/2/24 74/5/23 81/7/16
f 135/2/24 81/7/16 160/7/16
f 172/2/30 99/5/21 151/5/22
f 99/5/21 172/2/30 96/7/20
f 96/7/20 172/2/30 156/7/20
f 150/3/9 102/6/8 175/6/8
f 102/6/8 150/3/9 101/3/7
f 55/13/17 141/10/15 186/13/17
f 141/10/15 55/13/17 57/10/15
f 169/2/24 34/5/23 166/5/25
f 34/5/23 169/2/24 31/7/16
f 31/7/16 169/2/24 155/7/16
f 187/2/24 62/5/23 177/5/25
f 62/5/23 187/2/24 59/7/16
f 59/7/16 187/2/24 140/7/16
f 165/13/19 117/15/26 119/13/19
f 117/15/26 165/13/19 162/15/26
f 52/15/26 186/13/17 184/15/26
f 186/13/17 52/15/26 55/13/17
f 188/3/9 130/1/8 189/1/8
f 130/1/8 188/3/9 129/3/7
f 37/6/26 171/6/26 170/6/26
f 171/6/26 37/6/26 40/6/26
f 19/10/18 180/13/19 190/10/18
f 180/13/19 19/10/18 22/13/19
f 188/3/9 127/5/21 129/3/7
f 127/5/21 188/3/9 191/5/22
f 167/3/28 37/6/31 170/6/31
f 37/6/31 167/3/28 38/3/27
f 42/5/21 168/2/30 164/5/22
f 168/2/30 42/5/21 44/7/20
f 168/2/30 44/7/20 179/7/20
f 47/10/18 185/13/19 178/10/18
f 185/13/19 47/10/18 50/13/19
f 191/5/22 124/7/20 127/5/21
f 124/7/20 191/5/22 192/2/30
f 124/7/20 192/2/30 148/7/20
f 174/6/26 102/6/26 103/6/26
f 102/6/26 174/6/26 175/6/26
f 193/1/32 194/4/33 195/4/32
f 194/4/33 193/1/32 196/1/33
f 158/13/17 84/10/15 86/13/17
f 84/10/15 158/13/17 159/10/15
f 176/3/28 66/1/34 197/1/35
f 66/1/34 176/3/28 67/3/27
f 16/7/20 190/10/18 183/7/20
f 190/10/18 16/7/20 19/10/18
f 177/5/29 198/2/29 187/2/29
f 198/2/29 177/5/29 176/3/29
f 198/2/29 176/3/29 197/1/29
f 198/2/29 197/1/29 199/1/29
f 198/2/29 199/1/29 200/2/29
f 75/3/27 137/1/35 73/1/34
f 137/1/35 75/3/27 136/3/28
f 9/1/26 201/1/26 12/1/26
f 9/1/26 69/1/26 201/1/26
f 8/1/26 69/1/26 9/1/26
f 4/1/26 69/1/26 8/1/26
f 1/1/26 69/1/26 4/1/26
f 69/1/26 1/1/26 72/1/26
f 189/1/26 72/1/26 1/1/26
f 189/1/26 202/1/26 72/1/26
f 130/1/26 202/1/26 189/1/26
f 202/1/26 130/1/26 132/1/26
f 203/17/36 204/16/36 205/16/36
f 204/16/36 203/17/36 206/17/36
f 207/16/26 208/16/26 209/16/26
f 208/16/26 207/16/26 204/16/26
f 204/16/26 207/16/26 205/16/26
f 205/16/26 207/16/26 210/16/26
f 211/1/37 195/4/32 212/4/37
f 195/4/32 211/1/37 193/1/32
f 211/1/37 76/4/38 77/1/38
f 76/4/38 211/1/37 212/4/37
f 66/1/34 199/1/26 197/1/35
f 199/1/26 66/1/34 196/1/26
f 196/1/26 138/1/26 199/1/26
f 196/1/26 66/1/34 213/1/26
f 213/1/26 66/1/34 68/1/26
f 193/1/26 138/1/26 196/1/26
f 193/1/26 137/1/35 138/1/26
f 211/1/26 137/1/35 193/1/26
f 77/1/26 137/1/35 211/1/26
f 137/1/35 77/1/26 73/1/34
f 214/4/39 68/1/40 65/4/40
f 68/1/40 214/4/39 213/1/39
f 196/1/33 214/4/39 194/4/33
f 214/4/39 196/1/33 213/1/39
f 139/2/41 199/1/41 138/1/41
f 199/1/41 139/2/41 200/2/41
f 200/2/41 139/2/41 215/2/41
f 200/2/41 215/2/41 216/2/41
f 72/1/12 217/4/42 70/4/12
f 217/4/42 72/1/12 202/1/42
f 13/4/43 201/1/44 218/4/44
f 201/1/44 13/4/43 12/1/43
f 201/1/44 71/4/11 218/4/44
f 71/4/11 201/1/44 69/1/11
f 132/1/45 217/4/42 202/1/42
f 217/4/42 132/1/45 131/4/45
f 76/4/46 219/4/46 78/4/46
f 219/4/46 76/4/46 212/4/46
f 219/4/46 212/4/46 195/4/46
f 219/4/46 195/4/46 194/4/46
f 219/4/46 194/4/46 220/4/46
f 220/4/46 194/4/46 221/4/46
f 221/4/46 194/4/46 64/4/46
f 64/4/46 194/4/46 214/4/46
f 64/4/46 214/4/46 65/4/46
f 220/4/46 221/4/46 222/4/46
f 222/4/46 100/4/46 220/4/46
f 100/4/46 222/4/46 104/4/46
f 222/4/46 221/4/46 223/4/46
f 224/4/46 223/4/46 221/4/46
f 224/4/46 221/4/46 225/4/46
f 224/4/46 225/4/46 226/4/46
f 39/4/46 226/4/46 225/4/46
f 226/4/46 39/4/46 36/4/46
f 71/4/46 223/4/46 224/4/46
f 71/4/46 224/4/46 11/4/46
f 71/4/46 11/4/46 218/4/46
f 218/4/46 11/4/46 13/4/46
f 70/4/46 223/4/46 71/4/46
f 217/4/46 223/4/46 70/4/46
f 217/4/46 128/4/46 223/4/46
f 128/4/46 217/4/46 131/4/46
f 227/2/14 1/1/1 3/2/3
f 1/1/1 227/2/14 189/1/14
f 189/1/14 227/2/14 188/3/14
f 188/3/14 227/2/14 191/5/14
f 191/5/14 227/2/14 192/2/14
f 6/2/6 1/1/1 4/1/4
f 1/1/1 6/2/6 2/2/2
f 4/1/4 228/2/29 5/2/5
f 228/2/29 4/1/4 8/1/29
f 228/2/29 8/1/29 10/3/29
f 228/2/29 10/3/29 181/5/29
f 228/2/29 181/5/29 182/2/29
f 229/18/47 230/18/47 231/18/47
f 230/18/47 229/18/47 232/18/47
f 233/18/48 234/19/49 235/18/48
f 234/19/49 233/18/48 236/19/49
f 237/18/50 235/18/48 238/18/50
f 235/18/48 237/18/50 233/18/48
f 239/19/51 238/18/50 240/19/51
f 238/18/50 239/19/51 237/18/50
f 241/20/52 242/21/53 243/21/53
f 242/21/53 241/20/52 244/20/52
f 236/19/49 241/20/52 234/19/49
f 241/20/52 236/19/49 244/20/52
f 239/19/54 233/18/54 237/18/54
f 233/18/54 239/19/54 236/19/54
f 236/19/54 239/19/54 245/20/54
f 236/19/54 245/20/54 244/20/54
f 244/20/54 245/20/54 246/21/54
f 244/20/54 246/21/54 242/21/54
f 243/21/53 246/21/55 247/21/55
f 246/21/55 243/21/53 242/21/53
f 245/20/56 240/19/51 248/20/56
f 240/19/51 245/20/56 239/19/51
f 247/21/55 245/20/56 248/20/56
f 245/20/56 247/21/55 246/21/55
f 249/18/57 250/19/58 251/18/57
f 250/19/58 249/18/57 252/19/58
f 253/18/59 251/18/57 254/18/59
f 251/18/57 253/18/59 249/18/57
f 255/19/60 254/18/59 256/19/60
f 254/18/59 255/19/60 253/18/59
f 257/20/61 258/21/62 259/21/62
f 258/21/62 257/20/61 260/20/61
f 252/19/58 257/20/61 250/19/58
f 257/20/61 252/19/58 260/20/61
f 255/19/63 249/18/63 253/18/63
f 249/18/63 255/19/63 252/19/63
f 252/19/63 255/19/63 261/20/63
f 252/19/63 261/20/63 260/20/63
f 260/20/63 261/20/63 262/21/63
f 260/20/63 262/21/63 258/21/63
f 259/21/62 262/21/64 263/21/64
f 262/21/64 259/21/62 258/21/62
f 261/20/65 256/19/60 264/20/65
f 256/19/60 261/20/65 255/19/60
f 263/21/64 261/20/65 264/20/65
f 261/20/65 263/21/64 262/21/64
f 265/22/66 111/23/67 110/22/66
f 111/23/67 265/22/66 266/23/67
f 267/24/68 115/25/69 113/24/68
f 115/25/69 267/24/68 268/25/69
f 123/22/70 269/26/71 125/26/71
f 269/26/71 123/22/70 270/22/70
f 271/24/68 87/25/69 85/24/68
f 87/25/69 271/24/68 272/25/69
f 273/22/66 83/23/67 82/22/66
f 83/23/67 273/22/66 274/23/67
f 35/27/72 226/28/36 36/28/36
f 226/28/36 35/27/72 275/27/72
f 208/29/46 118/25/73 116/29/46
f 118/25/73 208/29/46 276/25/73
f 276/25/73 208/29/46 277/29/74
f 98/27/75 220/28/63 100/28/63
f 220/28/63 98/27/75 278/27/75
f 126/27/75 223/28/63 128/28/63
f 223/28/63 126/27/75 279/27/75
f 274/23/67 85/24/68 83/23/67
f 85/24/68 274/23/67 271/24/68
f 280/24/76 94/23/77 92/24/76
f 94/23/77 280/24/76 281/23/77
f 282/24/76 122/23/77 120/24/76
f 122/23/77 282/24/76 283/23/77
f 272/25/69 88/29/46 87/25/69
f 88/29/46 272/25/69 284/29/46
f 285/25/73 92/24/76 90/25/73
f 92/24/76 285/25/73 280/24/76
f 122/23/77 270/22/70 123/22/70
f 270/22/70 122/23/77 283/23/77
f 266/23/67 113/24/68 111/23/67
f 113/24/68 266/23/67 267/24/68
f 97/26/71 278/27/75 98/27/75
f 278/27/75 97/26/71 286/26/71
f 287/26/78 110/22/66 108/26/78
f 110/22/66 287/26/78 265/22/66
f 288/27/72 108/26/78 107/27/72
f 108/26/78 288/27/72 287/26/78
f 125/26/71 279/27/75 126/27/75
f 279/27/75 125/26/71 269/26/71
f 276/25/73 120/24/76 118/25/73
f 120/24/76 276/25/73 282/24/76
f 95/22/70 286/26/71 97/26/71
f 286/26/71 95/22/70 289/22/70
f 290/27/72 80/26/78 79/27/72
f 80/26/78 290/27/72 291/26/78
f 94/23/77 289/22/70 95/22/70
f 289/22/70 94/23/77 281/23/77
f 291/26/78 82/22/66 80/26/78
f 82/22/66 291/26/78 273/22/66
f 268/25/69 116/29/46 115/25/69
f 116/29/46 268/25/69 208/29/46
f 208/29/46 268/25/69 277/29/79
f 63/27/72 221/28/36 64/28/36
f 221/28/36 63/27/72 292/27/72
f 284/29/46 90/25/73 88/29/46
f 90/25/73 284/29/46 285/25/73
f 61/26/78 292/27/72 63/27/72
f 292/27/72 61/26/78 293/26/78
f 294/27/75 39/28/63 225/28/63
f 39/28/63 294/27/75 43/27/75
f 53/29/46 295/25/73 296/29/46
f 295/25/73 53/29/46 51/25/73
f 51/25/73 297/24/76 295/25/73
f 297/24/76 51/25/73 49/24/76
f 58/23/67 298/22/66 60/22/66
f 298/22/66 58/23/67 299/23/67
f 300/26/71 43/27/75 294/27/75
f 43/27/75 300/26/71 45/26/71
f 301/23/77 46/22/70 302/22/70
f 46/22/70 301/23/77 48/23/77
f 302/22/70 45/26/71 300/26/71
f 45/26/71 302/22/70 46/22/70
f 49/24/76 301/23/77 297/24/76
f 301/23/77 49/24/76 48/23/77
f 58/23/67 303/24/68 299/23/67
f 303/24/68 58/23/67 56/24/68
f 54/25/69 296/29/46 304/25/69
f 296/29/46 54/25/69 53/29/46
f 60/22/66 293/26/78 61/26/78
f 293/26/78 60/22/66 298/22/66
f 56/24/68 304/25/69 303/24/68
f 304/25/69 56/24/68 54/25/69
f 221/28/10 294/27/10 225/28/10
f 294/27/10 221/28/10 300/26/10
f 300/26/10 221/28/10 302/22/10
f 302/22/10 221/28/10 301/23/10
f 301/23/10 221/28/10 297/24/10
f 297/24/10 221/28/10 295/25/10
f 295/25/10 221/28/10 296/29/10
f 296/29/10 221/28/10 304/25/10
f 304/25/10 221/28/10 303/24/10
f 303/24/10 221/28/10 299/23/10
f 299/23/10 221/28/10 298/22/10
f 298/22/10 221/28/10 293/26/10
f 293/26/10 221/28/10 292/27/10
f 286/26/13 220/28/13 278/27/13
f 220/28/13 286/26/13 219/28/13
f 219/28/13 286/26/13 289/22/13
f 219/28/13 289/22/13 281/23/13
f 219/28/13 281/23/13 280/24/13
f 219/28/13 280/24/13 285/25/13
f 219/28/13 285/25/13 284/29/13
f 219/28/13 284/29/13 272/25/13
f 219/28/13 272/25/13 271/24/13
f 219/28/13 271/24/13 274/23/13
f 219/28/13 274/23/13 273/22/13
f 219/28/13 273/22/13 291/26/13
f 219/28/13 291/26/13 290/27/13
f 290/27/72 78/28/36 219/28/36
f 78/28/36 290/27/72 79/27/72
f 288/27/72 104/28/36 222/28/36
f 104/28/36 288/27/72 107/27/72
f 33/26/78 275/27/72 35/27/72
f 275/27/72 33/26/78 305/26/78
f 306/27/75 11/28/63 224/28/63
f 11/28/63 306/27/75 15/27/75
f 210/29/46 307/25/73 308/29/74
f 307/25/73 210/29/46 23/25/73
f 23/25/73 210/29/46 25/29/46
f 23/25/73 309/24/76 307/25/73
f 309/24/76 23/25/73 21/24/76
f 32/22/66 310/23/67 311/22/66
f 310/23/67 32/22/66 30/23/67
f 312/26/71 15/27/75 306/27/75
f 15/27/75 312/26/71 17/26/71
f 313/23/77 18/22/70 314/22/70
f 18/22/70 313/23/77 20/23/77
f 314/22/70 17/26/71 312/26/71
f 17/26/71 314/22/70 18/22/70
f 30/23/67 315/24/68 310/23/67
f 315/24/68 30/23/67 28/24/68
f 26/25/69 308/29/79 316/25/69
f 308/29/79 26/25/69 210/29/46
f 210/29/46 26/25/69 25/29/46
f 21/24/76 313/23/77 309/24/76
f 313/23/77 21/24/76 20/23/77
f 32/22/66 305/26/78 33/26/78
f 305/26/78 32/22/66 311/22/66
f 28/24/68 316/25/69 315/24/68
f 316/25/69 28/24/68 26/25/69
f 226/28/10 306/27/10 224/28/10
f 306/27/10 226/28/10 312/26/10
f 312/26/10 226/28/10 314/22/10
f 314/22/10 226/28/10 313/23/10
f 313/23/10 226/28/10 309/24/10
f 309/24/10 226/28/10 307/25/10
f 307/25/10 226/28/10 308/29/10
f 308/29/10 226/28/10 316/25/10
f 316/25/10 226/28/10 315/24/10
f 315/24/10 226/28/10 310/23/10
f 310/23/10 226/28/10 311/22/10
f 311/22/10 226/28/10 305/26/10
f 305/26/10 226/28/10 275/27/10
f 269/26/13 223/28/13 279/27/13
f 223/28/13 269/26/13 222/28/13
f 222/28/13 269/26/13 270/22/13
f 222/28/13 270/22/13 283/23/13
f 222/28/13 283/23/13 282/24/13
f 222/28/13 282/24/13 276/25/13
f 222/28/13 276/25/13 277/29/13
f 222/28/13 277/29/13 268/25/13
f 222/28/13 268/25/13 267/24/13
f 222/28/13 267/24/13 266/23/13
f 222/28/13 266/23/13 265/22/13
f 222/28/13 265/22/13 287/26/13
f 222/28/13 287/26/13 288/27/13
f 317/30/63 318/31/63 319/31/63
f 318/31/63 317/30/63 320/30/63
f 321/30/26 317/30/80 322/30/80
f 317/30/80 321/30/26 320/30/26
f 323/32/26 324/32/81 325/32/26
f 324/32/81 323/32/26 326/32/81
f 318/31/46 327/31/46 319/31/46
f 327/31/46 318/31/46 328/31/46
f 323/32/82 203/30/82 329/30/82
f 203/30/82 323/32/82 330/33/82
f 203/30/82 330/33/82 206/30/82
f 206/30/82 330/33/82 331/30/82
f 330/33/82 323/32/82 332/34/82
f 333/33/82 331/30/82 330/33/82
f 332/34/82 323/32/82 334/34/82
f 331/30/82 333/33/82 325/32/82
f 325/32/82 333/33/82 334/34/82
f 325/32/82 334/34/82 323/32/82
f 324/32/81 335/30/83 336/30/83
f 335/30/83 324/32/81 337/35/83
f 337/35/83 324/32/81 338/35/83
f 326/32/81 338/35/83 324/32/81
f 339/30/83 338/35/83 326/32/81
f 338/35/83 339/30/83 340/30/83
f 341/31/46 342/31/46 343/31/46
f 342/31/46 341/31/46 344/31/46
f 335/30/84 345/36/84 336/30/84
f 345/36/84 335/30/84 346/31/84
f 346/31/84 335/30/84 347/31/84
f 347/31/84 335/30/84 340/30/84
f 347/31/84 340/30/84 348/31/84
f 348/31/84 340/30/84 349/31/84
f 349/31/84 340/30/84 339/30/84
f 349/31/84 339/30/84 350/36/84
f 351/30/85 352/30/26 353/30/26
f 352/30/26 351/30/85 354/30/85
f 320/30/86 324/32/86 336/30/86
f 355/37/86 324/32/86 320/30/86
f 356/37/86 324/32/86 355/37/86
f 324/32/86 356/37/86 325/32/86
f 357/30/86 325/32/86 356/37/86
f 325/32/86 357/30/86 331/30/86
f 352/30/63 341/31/63 343/31/63
f 341/31/63 352/30/63 354/30/63
f 341/31/10 351/30/85 344/31/10
f 351/30/85 341/31/10 354/30/85
f 317/30/80 327/31/13 322/30/80
f 327/31/13 317/30/80 319/31/13
f 358/30/87 323/32/87 329/30/87
f 323/32/87 358/30/87 359/37/87
f 323/32/87 359/37/87 326/32/87
f 326/32/87 359/37/87 360/37/87
f 326/32/87 360/37/87 352/30/87
f 326/32/87 352/30/87 339/30/87
f 208/38/10 361/30/10 209/38/10
f 361/30/10 208/38/10 206/30/10
f 206/30/10 208/38/10 204/38/10
f 361/30/63 207/38/63 209/38/63
f 207/38/63 361/30/63 362/30/63
f 203/30/13 207/38/13 362/30/13
f 207/38/13 203/30/13 210/38/13
f 210/38/13 203/30/13 205/38/13
f 347/31/63 363/39/63 215/39/63
f 363/39/63 347/31/63 364/38/63
f 364/38/63 347/31/63 365/38/63
f 348/31/63 365/38/63 347/31/63
f 216/39/63 365/38/63 348/31/63
f 365/38/63 216/39/63 366/39/63
f 228/39/10 367/38/43 5/39/43
f 367/38/43 228/39/10 368/38/10
f 368/38/10 228/39/10 369/31/10
f 190/40/10 369/31/10 228/39/10
f 190/40/10 228/39/10 183/41/10
f 183/41/10 228/39/10 182/39/10
f 180/42/10 369/31/10 190/40/10
f 329/30/10 369/31/10 180/42/10
f 329/30/10 180/42/10 161/43/10
f 329/30/10 161/43/10 143/42/10
f 329/30/10 143/42/10 142/40/10
f 329/30/10 142/40/10 155/41/10
f 329/30/10 155/41/10 169/39/10
f 329/30/10 169/39/10 168/39/10
f 370/30/43 369/31/10 329/30/10
f 369/31/10 370/30/43 371/31/43
f 329/30/10 168/39/10 358/30/10
f 358/30/10 168/39/10 342/31/10
f 353/30/10 358/30/10 342/31/10
f 342/31/10 168/39/10 343/31/10
f 343/31/10 168/39/10 179/41/10
f 343/31/10 179/41/10 178/40/10
f 343/31/10 178/40/10 352/30/10
f 352/30/10 178/40/10 339/30/10
f 339/30/10 178/40/10 185/42/10
f 339/30/10 185/42/10 184/43/10
f 339/30/10 184/43/10 350/36/10
f 350/36/10 184/43/10 186/42/10
f 350/36/10 186/42/10 141/40/10
f 350/36/10 141/40/10 140/41/10
f 350/36/10 140/41/10 187/39/10
f 350/36/10 187/39/10 198/39/10
f 371/31/43 372/30/88 373/31/88
f 372/30/88 371/31/43 370/30/43
f 5/39/43 374/38/88 6/39/88
f 374/38/88 5/39/43 367/38/43
f 329/30/26 372/30/26 370/30/26
f 203/30/26 372/30/26 329/30/26
f 362/30/26 372/30/26 203/30/26
f 361/30/26 372/30/26 362/30/26
f 372/30/26 361/30/26 375/30/26
f 206/30/26 375/30/26 361/30/26
f 331/30/26 375/30/26 206/30/26
f 375/30/26 331/30/26 376/30/26
f 336/30/13 318/31/13 320/30/13
f 318/31/13 336/30/13 144/40/13
f 144/40/13 336/30/13 145/42/13
f 156/41/13 318/31/13 144/40/13
f 145/42/13 336/30/13 157/43/13
f 172/39/13 318/31/13 156/41/13
f 157/43/13 336/30/13 345/36/13
f 157/43/13 345/36/13 158/42/13
f 158/42/13 345/36/13 159/40/13
f 159/40/13 345/36/13 160/41/13
f 160/41/13 345/36/13 135/39/13
f 135/39/13 345/36/13 133/39/13
f 172/39/13 328/31/13 318/31/13
f 172/39/13 357/30/13 328/31/13
f 328/31/13 357/30/13 321/30/13
f 172/39/13 331/30/13 357/30/13
f 152/39/13 331/30/13 172/39/13
f 154/41/13 331/30/13 152/39/13
f 147/40/13 331/30/13 154/41/13
f 146/42/13 331/30/13 147/40/13
f 162/43/13 331/30/13 146/42/13
f 165/42/13 331/30/13 162/43/13
f 377/38/13 331/30/13 165/42/13
f 377/38/13 165/42/13 149/40/13
f 378/31/13 331/30/13 377/38/13
f 379/31/45 331/30/13 378/31/13
f 331/30/13 379/31/45 376/30/45
f 377/38/13 149/40/13 227/39/13
f 227/39/13 149/40/13 148/41/13
f 227/39/13 148/41/13 192/39/13
f 3/39/45 377/38/13 227/39/13
f 377/38/13 3/39/45 380/38/45
f 372/30/88 381/31/36 373/31/88
f 381/31/36 372/30/88 382/31/36
f 382/31/36 372/30/88 383/31/89
f 383/31/89 372/30/88 375/30/89
f 384/38/36 381/31/36 382/31/36
f 381/31/36 384/38/36 385/38/36
f 386/38/89 385/38/36 384/38/36
f 386/38/89 374/38/88 385/38/36
f 2/39/89 374/38/88 386/38/89
f 374/38/88 2/39/89 6/39/88
f 380/38/45 2/39/89 386/38/89
f 2/39/89 380/38/45 3/39/45
f 376/30/45 383/31/89 375/30/89
f 383/31/89 376/30/45 379/31/45
f 321/44/36 327/45/36 328/45/36
f 327/45/36 321/44/36 322/44/36
f 351/44/36 342/45/36 344/45/36
f 342/45/36 351/44/36 353/44/36
f 234/46/90 238/47/90 235/47/90
f 238/47/90 234/46/90 240/46/90
f 240/46/90 234/46/90 241/48/90
f 240/46/90 241/48/90 248/48/90
f 248/48/90 241/48/90 243/49/90
f 248/48/90 243/49/90 247/49/90
f 250/46/36 254/47/36 251/47/36
f 254/47/36 250/46/36 256/46/36
f 256/46/36 250/46/36 257/48/36
f 256/46/36 257/48/36 264/48/36
f 264/48/36 257/48/36 259/49/36
f 264/48/36 259/49/36 263/49/36
f 353/50/87 387/51/87 388/50/87
f 387/51/87 353/50/87 389/51/87
f 389/51/87 353/50/87 390/50/87
f 391/52/83 340/50/83 335/50/83
f 340/50/83 391/52/83 392/52/83
f 393/51/86 394/50/86 395/51/86
f 394/50/86 393/51/86 321/50/86
f 321/50/86 393/51/86 396/50/86
f 397/53/82 398/54/82 399/54/82
f 398/54/82 397/53/82 400/53/82
f 401/55/91 402/56/63 403/56/37
f 402/56/63 401/55/91 404/55/63
f 401/55/91 405/56/13 406/57/13
f 405/56/13 401/55/91 403/56/37
f 407/56/39 408/57/10 409/56/10
f 408/57/10 407/56/39 410/55/92
f 411/55/63 407/56/39 412/56/63
f 407/56/39 411/55/63 410/55/92
f 413/58/88 414/59/36 415/59/88
f 414/59/36 413/58/88 416/58/36
f 378/58/13 380/59/45 379/58/45
f 380/59/45 378/58/13 377/59/13
f 367/59/43 413/58/88 415/59/88
f 413/58/88 367/59/43 371/58/43
f 368/59/10 371/58/43 367/59/43
f 371/58/43 368/59/10 369/58/10
f 379/58/45 417/59/89 418/58/89
f 417/59/89 379/58/45 380/59/45
f 419/58/36 417/59/89 420/59/36
f 417/59/89 419/58/36 418/58/89
