# Generated by GTAClone/tools/split_car_wheels.py from truck-flat.obj
# Kenney Car Kit (CC0 1.0); the split is a derivative work, also CC0.
mtllib colormap.mtl
v -0.650000 0.400939 -1.009268
v -0.516667 0.400000 -1.009392
v -0.650000 0.400000 -1.009392
v -0.516980 0.400939 -1.009268
v -0.650000 0.200000 -0.932557
v -0.650000 0.400000 -1.222557
v -0.650000 0.200000 -1.222557
v -0.650000 0.495000 -0.970307
v -0.650000 0.300000 -0.932557
v -0.650000 0.575772 -0.908329
v -0.650000 0.377646 -0.922335
v -0.650000 0.450000 -0.892365
v -0.650000 0.637750 -0.827557
v -0.650000 0.512132 -0.844689
v -0.650000 0.559808 -0.782557
v -0.650000 0.676711 -0.733497
v -0.650000 0.589778 -0.710203
v -0.650000 0.690000 -0.632557
v -0.650000 0.600000 -0.632557
v -0.650000 0.589778 -0.554911
v -0.650000 0.676711 -0.531618
v -0.650000 0.559808 -0.482557
v -0.650000 0.637750 -0.437557
v -0.650000 0.512132 -0.420425
v -0.650000 0.575772 -0.356785
v -0.650000 0.450000 -0.372750
v -0.650000 0.377646 -0.342779
v -0.650000 0.495000 -0.294807
v -0.650000 0.300000 -0.332557
v -0.650000 0.200000 -0.332557
v -0.650000 0.300000 -0.242557
v -0.650000 0.400939 -0.255846
v -0.650000 0.200000 0.482557
v -0.650000 0.300000 0.392557
v -0.650000 0.400939 0.405846
v -0.650000 0.495000 0.444807
v -0.650000 0.300000 0.482557
v -0.650000 0.575772 0.506785
v -0.650000 0.377646 0.492779
v -0.650000 0.450000 0.522749
v -0.650000 0.637750 0.587557
v -0.650000 0.512132 0.570425
v -0.650000 0.559808 0.632557
v -0.650000 0.676711 0.681618
v -0.650000 0.589778 0.704911
v -0.650000 0.690000 0.782557
v -0.650000 0.600000 0.782557
v -0.650000 0.589778 0.860203
v -0.650000 0.676711 0.883497
v -0.650000 0.559808 0.932557
v -0.650000 0.637750 0.977557
v -0.650000 0.512132 0.994689
v -0.650000 0.575772 1.058329
v -0.650000 0.450000 1.042365
v -0.650000 0.377646 1.072335
v -0.650000 0.495000 1.120307
v -0.650000 0.300000 1.082557
v -0.650000 0.200000 1.082557
v -0.650000 0.200000 1.222557
v -0.650000 0.400000 1.159392
v -0.650000 0.400939 1.159268
v -0.650000 0.400000 1.222557
v 0.650000 0.400000 1.159392
v 0.650000 0.495000 1.120307
v 0.650000 0.400939 1.159268
v 0.650000 0.200000 1.222557
v 0.650000 0.400000 1.222557
v 0.650000 0.200000 1.082557
v 0.650000 0.300000 1.082557
v 0.650000 0.377646 1.072335
v 0.650000 0.575772 1.058329
v 0.650000 0.450000 1.042365
v 0.650000 0.512132 0.994689
v 0.650000 0.637750 0.977557
v 0.650000 0.559808 0.932557
v 0.650000 0.676711 0.883497
v 0.650000 0.589778 0.860203
v 0.650000 0.600000 0.782557
v 0.650000 0.690000 0.782557
v 0.650000 0.589778 0.704911
v 0.650000 0.676711 0.681618
v 0.650000 0.559808 0.632557
v 0.650000 0.637750 0.587557
v 0.650000 0.512132 0.570425
v 0.650000 0.450000 0.522749
v 0.650000 0.575772 0.506785
v 0.650000 0.377646 0.492779
v 0.650000 0.300000 0.482557
v 0.650000 0.495000 0.444807
v 0.650000 0.200000 0.482557
v 0.650000 0.400939 0.405846
v 0.650000 0.300000 0.392557
v 0.650000 0.300000 -0.242557
v 0.650000 0.200000 -0.332557
v 0.650000 0.495000 -0.294807
v 0.650000 0.400939 -0.255846
v 0.650000 0.300000 -0.332557
v 0.650000 0.377646 -0.342779
v 0.650000 0.575772 -0.356785
v 0.650000 0.450000 -0.372750
v 0.650000 0.512132 -0.420425
v 0.650000 0.637750 -0.437557
v 0.650000 0.559808 -0.482557
v 0.650000 0.676711 -0.531618
v 0.650000 0.589778 -0.554911
v 0.650000 0.600000 -0.632557
v 0.650000 0.690000 -0.632557
v 0.650000 0.589778 -0.710203
v 0.650000 0.676711 -0.733497
v 0.650000 0.559808 -0.782557
v 0.650000 0.637750 -0.827557
v 0.650000 0.512132 -0.844689
v 0.650000 0.450000 -0.892365
v 0.650000 0.575772 -0.908329
v 0.650000 0.377646 -0.922335
v 0.650000 0.300000 -0.932557
v 0.650000 0.495000 -0.970307
v 0.650000 0.200000 -0.932557
v 0.650000 0.400939 -1.009268
v 0.650000 0.400000 -1.009392
v 0.650000 0.200000 -1.222557
v 0.650000 0.400000 -1.222557
v 0.550000 0.500000 1.172557
v 0.548333 0.495000 1.120307
v 0.550000 0.500000 1.116470
v 0.516980 0.400939 1.159268
v 0.516667 0.400000 1.159392
v 0.516667 0.400000 1.239224
v 0.550000 0.500000 1.272557
v 0.550000 0.500000 -1.122557
v 0.516667 0.400000 -1.255890
v 0.550000 0.500000 -1.322557
v 0.516667 0.400000 -1.009392
v 0.516980 0.400939 -1.009268
v 0.548333 0.495000 -0.970307
v 0.550000 0.500000 -0.966471
v -0.550000 0.575772 1.058329
v -0.550000 0.637750 0.977557
v -0.550000 0.637750 -0.437557
v -0.550000 0.676711 -0.531618
v 0.550000 0.637750 0.587557
v 0.550000 0.676711 0.681618
v 0.550000 0.676711 -0.531618
v 0.550000 0.637750 -0.437557
v 0.550000 0.575772 -0.908329
v 0.550000 0.637750 -0.827557
v 0.516980 0.400939 0.405846
v 0.548333 0.495000 0.444807
v 0.550000 0.500000 -0.298644
v 0.548333 0.495000 -0.294807
v 0.550000 0.575772 -0.356785
v -0.550000 0.575772 -0.356785
v 0.550000 0.575772 0.506785
v 0.550000 0.690000 0.782557
v 0.550000 0.676711 0.883497
v 0.550000 0.637750 0.977557
v 0.550000 0.575772 1.058329
v -0.550000 0.690000 -0.632557
v 0.550000 0.690000 -0.632557
v -0.516980 0.400939 0.405846
v -0.548333 0.495000 0.444807
v 0.550000 0.676711 -0.733497
v -0.516667 0.400000 -1.255890
v -0.550000 0.500000 -1.122557
v -0.550000 0.500000 -1.322557
v -0.548333 0.495000 -0.970307
v -0.550000 0.500000 -0.966471
v -0.548333 0.495000 -0.294807
v -0.516980 0.400939 -0.255846
v -0.550000 0.500000 0.448644
v -0.550000 0.500000 -0.298644
v -0.483333 0.300000 -0.242557
v -0.483333 0.300000 0.392557
v 0.550000 0.500000 0.448644
v 0.516980 0.400939 -0.255846
v 0.483333 0.300000 -0.242557
v 0.483333 0.300000 0.392557
v -0.516980 0.400939 1.159268
v -0.548333 0.495000 1.120307
v -0.550000 0.637750 0.587557
v -0.550000 0.575772 0.506785
v -0.550000 0.676711 -0.733497
v -0.550000 0.575772 -0.908329
v -0.550000 0.690000 0.782557
v -0.550000 0.676711 0.681618
v -0.550000 0.676711 0.883497
v -0.550000 0.500000 1.116470
v -0.550000 0.637750 -0.827557
v -0.516667 0.400000 1.239224
v -0.550000 0.500000 1.272557
v 0.309375 0.500000 1.272557
v 0.206250 0.500000 1.272557
v -0.206250 0.500000 1.272557
v -0.309375 0.500000 1.272557
v -0.516667 0.400000 1.159392
v -0.550000 0.500000 1.172557
v 0.550000 0.400000 1.322557
v -0.550000 0.200000 1.322557
v 0.550000 0.200000 1.322557
v -0.550000 0.400000 1.322557
v 0.620711 0.400000 1.293268
v 0.620711 0.200000 1.293268
v -0.620711 0.200000 1.293268
v -0.620711 0.400000 1.293268
v -0.620711 0.400000 -1.293268
v -0.620711 0.200000 -1.293268
v 0.620711 0.200000 -1.293268
v 0.620711 0.400000 -1.293268
v -0.550000 0.200000 -1.322557
v -0.550000 0.400000 -1.322557
v 0.550000 0.400000 -1.322557
v 0.350000 0.200000 -0.332557
v 0.350000 0.200000 0.482557
v 0.350000 0.200000 -0.932557
v -0.350000 0.200000 -0.932557
v -0.350000 0.200000 -0.332557
v 0.550000 0.200000 -1.322557
v -0.350000 0.200000 1.082557
v -0.350000 0.200000 0.482557
v 0.350000 0.200000 1.082557
v -0.450000 0.610000 -1.222557
v 0.450000 0.610000 -0.632557
v 0.450000 0.610000 -1.222557
v 0.450000 0.610000 0.077443
v -0.450000 0.610000 0.077443
v -0.450000 0.610000 -0.632557
v 0.450000 0.600000 0.077443
v -0.450000 0.600000 0.077443
v 0.206250 0.600000 1.272557
v -0.206250 0.500000 1.272557
v 0.206250 0.500000 1.272557
v -0.206250 0.600000 1.272557
v 0.125000 0.150000 1.322557
v 0.175000 0.200000 1.372557
v 0.125000 0.150000 1.372557
v 0.175000 0.200000 1.322557
v -0.125000 0.150000 1.322557
v -0.125000 0.150000 1.372557
v -0.175000 0.200000 1.322557
v -0.175000 0.200000 1.372557
v 0.175000 0.275000 1.372557
v 0.125000 0.325000 1.322557
v 0.125000 0.325000 1.372557
v 0.175000 0.275000 1.322557
v -0.175000 0.275000 1.322557
v -0.125000 0.325000 1.322557
v -0.125000 0.325000 1.372557
v -0.175000 0.275000 1.372557
v -0.125000 0.150000 -1.322557
v -0.175000 0.200000 -1.372557
v -0.125000 0.150000 -1.372557
v -0.175000 0.200000 -1.322557
v 0.125000 0.150000 -1.322557
v 0.125000 0.150000 -1.372557
v 0.175000 0.200000 -1.322557
v 0.175000 0.200000 -1.372557
v -0.175000 0.275000 -1.372557
v -0.125000 0.325000 -1.322557
v -0.125000 0.325000 -1.372557
v -0.175000 0.275000 -1.322557
v 0.175000 0.275000 -1.322557
v 0.125000 0.325000 -1.322557
v 0.125000 0.325000 -1.372557
v 0.175000 0.275000 -1.372557
v -0.450000 0.800000 0.077443
v 0.450000 0.610000 0.077443
v -0.450000 0.610000 0.077443
v 0.450000 0.800000 0.077443
v 0.350000 0.450000 -0.372750
v 0.350000 0.512132 -0.420425
v 0.350000 0.559808 -0.482557
v 0.350000 0.589778 -0.554911
v 0.350000 0.377646 -0.922335
v 0.350000 0.450000 -0.892365
v 0.350000 0.559808 0.932557
v 0.350000 0.589778 0.860203
v 0.350000 0.450000 1.042365
v 0.350000 0.512132 0.994689
v -0.350000 0.300000 -0.332557
v 0.450000 0.600000 -0.632557
v 0.350000 0.589778 -0.710203
v 0.350000 0.600000 -0.632557
v 0.350000 0.300000 0.482557
v 0.350000 0.300000 -0.932557
v 0.350000 0.559808 0.632557
v 0.350000 0.512132 0.570425
v 0.350000 0.559808 -0.782557
v 0.350000 0.512132 -0.844689
v 0.350000 0.600000 0.782557
v 0.350000 0.589778 0.704911
v 0.350000 0.377646 0.492779
v 0.350000 0.377646 -0.342779
v 0.350000 0.300000 -0.332557
v 0.350000 0.450000 0.522749
v 0.350000 0.300000 1.082557
v 0.350000 0.377646 1.072335
v -0.350000 0.300000 1.082557
v -0.350000 0.377646 1.072335
v -0.350000 0.300000 0.482557
v -0.350000 0.589778 0.704911
v -0.350000 0.600000 0.782557
v -0.350000 0.559808 0.632557
v -0.350000 0.450000 1.042365
v -0.350000 0.512132 0.994689
v -0.350000 0.377646 0.492779
v -0.350000 0.512132 0.570425
v -0.350000 0.450000 0.522749
v -0.350000 0.559808 0.932557
v -0.350000 0.589778 0.860203
v -0.350000 0.377646 -0.342779
v -0.350000 0.300000 -0.932557
v -0.450000 0.600000 -0.632557
v -0.350000 0.589778 -0.710203
v -0.350000 0.600000 -0.632557
v -0.350000 0.559808 -0.782557
v -0.350000 0.512132 -0.420425
v -0.350000 0.450000 -0.372750
v -0.350000 0.377646 -0.922335
v -0.350000 0.512132 -0.844689
v -0.350000 0.450000 -0.892365
v -0.350000 0.559808 -0.482557
v -0.350000 0.589778 -0.554911
v 0.450000 1.300000 0.572557
v 0.448788 0.800000 0.972557
v 0.550000 0.800000 0.972557
v 0.364405 1.221913 0.635027
v -0.364405 1.221913 0.635027
v -0.450000 1.300000 0.572557
v -0.550000 0.800000 0.972557
v -0.448788 0.800000 0.972557
v 0.450000 0.800000 -1.222557
v -0.450000 0.800000 -1.222557
v 0.309375 0.600000 1.272557
v 0.206250 0.600000 1.272557
v 0.275000 0.600000 -1.322557
v -0.275000 0.700000 -1.322557
v 0.275000 0.700000 -1.322557
v -0.275000 0.600000 -1.322557
v 0.550000 0.600000 -1.322557
v -0.550000 0.600000 -1.322557
v -0.600000 0.700000 0.077443
v -0.600000 0.800000 -1.322557
v -0.600000 0.700000 -1.322557
v -0.600000 0.800000 0.077443
v -0.550000 0.800000 -1.372557
v 0.551736 0.700000 -1.372557
v -0.550000 0.700000 -1.372557
v 0.551736 0.800000 -1.372557
v -0.550000 0.700000 -1.222557
v -0.550000 0.700000 0.127443
v -0.550000 0.700000 -1.322557
v 0.550000 0.700000 -1.322557
v 0.550000 0.700000 0.127443
v 0.550000 0.700000 -1.222557
v 0.600000 0.700000 -1.324293
v 0.600000 0.700000 0.077443
v 0.550000 0.666667 1.172557
v 0.550000 0.600000 1.272557
v -0.206250 0.600000 1.272557
v -0.309375 0.600000 1.272557
v -0.550000 0.600000 1.272557
v -0.550000 0.666667 1.172557
v -0.750000 0.700000 0.972557
v -0.750000 0.800000 0.872557
v -0.750000 0.700000 0.872557
v -0.750000 0.800000 0.972557
v -0.550000 0.800000 0.872557
v -0.550000 0.700000 0.972557
v -0.550000 0.700000 0.872557
v 0.750000 0.800000 0.972557
v 0.750000 0.700000 0.872557
v 0.750000 0.800000 0.872557
v 0.750000 0.700000 0.972557
v 0.550000 0.700000 0.972557
v 0.550000 0.700000 0.872557
v 0.550000 0.800000 0.872557
v 0.600000 0.800000 0.077443
v 0.600000 0.800000 -1.324293
v 0.550000 0.800000 0.127443
v 0.550000 0.800000 0.077443
v 0.450000 0.800000 0.077443
v -0.450000 0.800000 0.077443
v -0.550000 0.800000 0.077443
v -0.550000 0.800000 0.127443
v -0.469612 1.201942 0.282328
v -0.550000 0.800000 0.282328
v -0.450000 1.300000 0.072557
v -0.469612 1.201942 0.523906
v -0.550000 0.800000 0.845459
v 0.450000 1.300000 0.072557
v 0.550000 0.800000 0.845459
v 0.469612 1.201942 0.523906
v 0.469612 1.201942 0.282328
v 0.550000 0.800000 0.282328
v -0.550000 0.600000 -1.222557
v 0.550000 0.600000 -1.222557
v 0.550000 0.600000 1.272557
v 0.309375 0.500000 1.272557
v 0.550000 0.500000 1.272557
v 0.309375 0.600000 1.272557
v -0.309375 0.600000 1.272557
v -0.550000 0.500000 1.272557
v -0.309375 0.500000 1.272557
v -0.550000 0.600000 1.272557
v -0.550000 0.666667 1.172557
v -0.550000 0.500000 1.172557
v 0.550000 0.500000 1.172557
v 0.550000 0.666667 1.172557
v -0.550000 0.700000 -1.322557
v -0.275000 0.600000 -1.322557
v -0.550000 0.600000 -1.322557
v -0.275000 0.700000 -1.322557
v 0.275000 0.700000 -1.322557
v 0.550000 0.600000 -1.322557
v 0.275000 0.600000 -1.322557
v 0.550000 0.700000 -1.322557
v 0.550000 0.700000 -1.222557
v 0.550000 0.600000 -1.222557
v -0.550000 0.600000 -1.222557
v -0.550000 0.700000 -1.222557
v 0.364405 1.221913 0.635027
v -0.364405 1.221913 0.635027
v 0.550000 0.800000 0.282328
v 0.469612 1.201942 0.282328
v -0.469612 1.201942 0.282328
v -0.550000 0.800000 0.282328
vt 0.468750 0.318642
vt 0.468750 0.318478
vt 0.468750 0.283696
vt 0.468750 0.335000
vt 0.468750 0.301087
vt 0.468750 0.349047
vt 0.468750 0.314591
vt 0.468750 0.327174
vt 0.468750 0.359826
vt 0.468750 0.337979
vt 0.468750 0.346271
vt 0.468750 0.366602
vt 0.468750 0.351483
vt 0.468750 0.368913
vt 0.468750 0.353261
vt 0.468750 0.335870
vt 0.468750 0.355000
vt 0.468750 0.475000
vt 0.468750 0.275000
vt 0.468750 0.332143
vt 0.468750 0.417857
vt 0.468750 0.425000
vt 0.468750 0.325000
vt 0.343750 0.327174
vt 0.343750 0.337979
vt 0.343750 0.346271
vt 0.343750 0.351483
vt 0.343750 0.314591
vt 0.343750 0.301087
vt 0.343750 0.283696
vt 0.343750 0.353261
vt 0.843750 0.475000
vt 0.843750 0.388043
vt 0.843750 0.461420
vt 0.843750 0.355000
vt 0.843750 0.353261
vt 0.843750 0.335870
vt 0.843750 0.370652
vt 0.843750 0.364855
vt 0.843750 0.457946
vt 0.843750 0.359826
vt 0.843750 0.349047
vt 0.843750 0.366602
vt 0.843750 0.368913
vt 0.843750 0.332143
vt 0.843750 0.275000
vt 0.843750 0.417857
vt 0.218750 0.145000
vt 0.218750 0.025000
vt 0.218750 0.225000
vt 0.343750 0.225000
vt 0.343750 0.025000
vt 0.093750 0.225000
vt 0.093750 0.025000
vt 0.093750 0.215533
vn 0.000000 0.258819 -0.965926
vn 0.000000 0.813241 -0.581927
vn 0.000000 0.751840 -0.659346
vn 0.000000 0.233891 -0.972263
vn -1.000000 0.000000 0.000000
vn 1.000000 0.000000 0.000000
vn 0.948683 -0.316228 0.000000
vn 0.000000 0.866025 0.500000
vn 0.000000 0.707107 0.707107
vn 0.000000 0.965926 0.258819
vn 0.000000 0.866025 -0.500000
vn 0.000000 0.965926 -0.258819
vn 0.000000 0.707107 -0.707107
vn 0.000000 0.500000 -0.866025
vn 0.000000 0.479903 -0.877321
vn 0.000000 0.500000 0.866025
vn 0.000000 0.608761 0.793353
vn 0.000000 0.479903 0.877321
vn 0.000000 1.000000 0.000000
vn -0.948683 -0.316228 0.000000
vn 0.000000 0.258819 0.965926
vn 0.000000 0.233891 0.972263
vn 0.000000 0.130526 -0.991445
vn 0.000000 0.608761 -0.793353
vn 0.000000 0.130526 0.991445
vn 0.000000 -0.316228 0.948683
vn 0.000000 0.751840 0.659346
vn 0.000000 0.813241 0.581927
vn 0.000000 -0.554700 -0.832050
vn 0.195090 0.000000 0.980785
vn -0.195090 0.000000 0.980785
vn 0.707107 0.000000 0.707107
vn 0.923879 0.000000 0.382683
vn -0.707107 0.000000 0.707107
vn -0.923879 0.000000 0.382683
vn -0.923879 0.000000 -0.382683
vn -0.707107 0.000000 -0.707107
vn 0.923879 0.000000 -0.382683
vn 0.707107 0.000000 -0.707107
vn -0.195090 0.000000 -0.980785
vn 0.000000 -1.000000 0.000000
vn 0.195090 0.000000 -0.980785
vn 0.000000 0.000000 -1.000000
vn 0.000000 0.000000 1.000000
vn 0.382683 -0.923879 0.000000
vn 0.923879 -0.382683 0.000000
vn -0.382683 -0.923879 -0.000000
vn -0.923879 -0.382683 -0.000000
vn 0.923879 0.382683 0.000000
vn 0.382683 0.923879 0.000000
vn 0.000000 0.000000 -1.000000
vn -0.382683 0.923879 -0.000000
vn -0.923879 0.382683 -0.000000
vn -0.382683 -0.923879 0.000000
vn -0.923879 -0.382683 0.000000
vn 0.382683 -0.923879 0.000000
vn 0.923879 -0.382683 0.000000
vn -0.923879 0.382683 0.000000
vn -0.382683 0.923879 0.000000
vn 0.382683 0.923879 0.000000
vn 0.923879 0.382683 0.000000
vn 0.000000 -0.500000 -0.866025
vn 0.000000 -0.707107 -0.707107
vn 0.000000 -0.866025 -0.500000
vn 0.000000 -0.965926 -0.258819
vn 0.000000 -0.500000 0.866025
vn 0.000000 -0.258819 0.965926
vn 0.000000 -0.065403 -0.997859
vn 0.000000 -0.965926 0.258819
vn 0.000000 -0.991445 0.130526
vn 0.000000 -0.065403 0.997859
vn 0.000000 -0.866025 0.500000
vn 0.000000 -0.707107 0.707107
vn 0.000000 -0.258819 -0.965926
vn 0.000000 -0.991445 -0.130526
vn 0.000000 0.891291 0.453431
vn 0.000000 0.624695 0.780869
vn -0.382683 0.000000 -0.923879
vn 0.382683 0.000000 -0.923879
vn 0.000000 0.832050 0.554700
vn -0.707107 0.707107 0.000000
vn 0.707107 0.707107 0.000000
vn -0.980581 0.196116 0.000000
vn 0.980581 0.196116 0.000000
vn 0.000000 -0.009771 -0.999952
vn -0.000000 0.000000 1.000000
vn 0.808601 0.000000 0.588358
vn -0.808601 0.000000 0.588358
usemtl colormap
f 1/1/1 2/2/2 3/2/3
f 2/2/2 1/1/1 4/1/4
f 5/3/5 6/2/5 7/3/5
f 6/2/5 5/3/5 3/2/5
f 3/2/5 5/3/5 1/1/5
f 1/1/5 5/3/5 8/4/5
f 8/4/5 5/3/5 9/5/5
f 8/4/5 9/5/5 10/6/5
f 10/6/5 9/5/5 11/7/5
f 10/6/5 11/7/5 12/8/5
f 10/6/5 12/8/5 13/9/5
f 13/9/5 12/8/5 14/10/5
f 13/9/5 14/10/5 15/11/5
f 13/9/5 15/11/5 16/12/5
f 16/12/5 15/11/5 17/13/5
f 16/12/5 17/13/5 18/14/5
f 18/14/5 17/13/5 19/15/5
f 18/14/5 19/15/5 20/13/5
f 18/14/5 20/13/5 21/12/5
f 21/12/5 20/13/5 22/11/5
f 21/12/5 22/11/5 23/9/5
f 23/9/5 22/11/5 24/10/5
f 23/9/5 24/10/5 25/6/5
f 25/6/5 24/10/5 26/8/5
f 25/6/5 26/8/5 27/7/5
f 25/6/5 27/7/5 28/4/5
f 28/4/5 27/7/5 29/5/5
f 28/4/5 29/5/5 30/3/5
f 28/4/5 30/3/5 31/5/5
f 28/4/5 31/5/5 32/1/5
f 31/5/5 30/3/5 33/3/5
f 31/5/5 33/3/5 34/5/5
f 34/5/5 33/3/5 35/1/5
f 35/1/5 33/3/5 36/4/5
f 36/4/5 33/3/5 37/5/5
f 36/4/5 37/5/5 38/6/5
f 38/6/5 37/5/5 39/7/5
f 38/6/5 39/7/5 40/8/5
f 38/6/5 40/8/5 41/9/5
f 41/9/5 40/8/5 42/10/5
f 41/9/5 42/10/5 43/11/5
f 41/9/5 43/11/5 44/12/5
f 44/12/5 43/11/5 45/13/5
f 44/12/5 45/13/5 46/14/5
f 46/14/5 45/13/5 47/15/5
f 46/14/5 47/15/5 48/13/5
f 46/14/5 48/13/5 49/12/5
f 49/12/5 48/13/5 50/11/5
f 49/12/5 50/11/5 51/9/5
f 51/9/5 50/11/5 52/10/5
f 51/9/5 52/10/5 53/6/5
f 53/6/5 52/10/5 54/8/5
f 53/6/5 54/8/5 55/7/5
f 53/6/5 55/7/5 56/4/5
f 56/4/5 55/7/5 57/5/5
f 56/4/5 57/5/5 58/3/5
f 56/4/5 58/3/5 59/3/5
f 56/4/5 59/3/5 60/2/5
f 56/4/5 60/2/5 61/1/5
f 60/2/5 59/3/5 62/2/5
f 63/2/6 64/4/6 65/1/6
f 66/3/6 64/4/6 63/2/6
f 66/3/6 63/2/6 67/2/6
f 68/3/6 64/4/6 66/3/6
f 69/5/6 64/4/6 68/3/6
f 70/7/6 64/4/6 69/5/6
f 70/7/6 71/6/6 64/4/6
f 72/8/6 71/6/6 70/7/6
f 73/10/6 71/6/6 72/8/6
f 73/10/6 74/9/6 71/6/6
f 75/11/6 74/9/6 73/10/6
f 75/11/6 76/12/6 74/9/6
f 77/13/6 76/12/6 75/11/6
f 78/15/6 76/12/6 77/13/6
f 78/15/6 79/14/6 76/12/6
f 80/13/6 79/14/6 78/15/6
f 80/13/6 81/12/6 79/14/6
f 82/11/6 81/12/6 80/13/6
f 82/11/6 83/9/6 81/12/6
f 84/10/6 83/9/6 82/11/6
f 85/8/6 83/9/6 84/10/6
f 85/8/6 86/6/6 83/9/6
f 87/7/6 86/6/6 85/8/6
f 88/5/6 86/6/6 87/7/6
f 86/6/6 88/5/6 89/4/6
f 90/3/6 89/4/6 88/5/6
f 90/3/6 91/1/6 89/4/6
f 90/3/6 92/5/6 91/1/6
f 90/3/6 93/5/6 92/5/6
f 94/3/6 93/5/6 90/3/6
f 94/3/6 95/4/6 93/5/6
f 93/5/6 95/4/6 96/1/6
f 97/5/6 95/4/6 94/3/6
f 98/7/6 95/4/6 97/5/6
f 98/7/6 99/6/6 95/4/6
f 100/8/6 99/6/6 98/7/6
f 101/10/6 99/6/6 100/8/6
f 101/10/6 102/9/6 99/6/6
f 103/11/6 102/9/6 101/10/6
f 103/11/6 104/12/6 102/9/6
f 105/13/6 104/12/6 103/11/6
f 106/15/6 104/12/6 105/13/6
f 106/15/6 107/14/6 104/12/6
f 108/13/6 107/14/6 106/15/6
f 108/13/6 109/12/6 107/14/6
f 110/11/6 109/12/6 108/13/6
f 110/11/6 111/9/6 109/12/6
f 112/10/6 111/9/6 110/11/6
f 113/8/6 111/9/6 112/10/6
f 113/8/6 114/6/6 111/9/6
f 115/7/6 114/6/6 113/8/6
f 116/5/6 114/6/6 115/7/6
f 114/6/6 116/5/6 117/4/6
f 118/3/6 117/4/6 116/5/6
f 118/3/6 119/1/6 117/4/6
f 118/3/6 120/2/6 119/1/6
f 121/3/6 120/2/6 118/3/6
f 120/2/6 121/3/6 122/2/6
f 123/16/7 124/4/7 125/16/7
f 124/4/7 123/16/7 126/1/7
f 126/1/7 123/16/7 127/2/7
f 127/2/7 123/16/7 128/2/7
f 128/2/7 123/16/7 129/16/7
f 130/16/7 131/2/7 132/16/7
f 131/2/7 130/16/7 133/2/7
f 133/2/7 130/16/7 134/1/7
f 134/1/7 130/16/7 135/4/7
f 135/4/7 130/16/7 136/16/7
f 51/9/8 137/6/9 138/9/8
f 137/6/9 51/9/8 53/6/9
f 21/12/10 139/9/8 140/12/10
f 139/9/8 21/12/10 23/9/8
f 141/9/11 81/12/12 83/9/11
f 81/12/12 141/9/11 142/12/12
f 143/12/10 102/9/8 104/12/10
f 102/9/8 143/12/10 144/9/8
f 145/6/13 111/9/11 114/6/13
f 111/9/11 145/6/13 146/9/11
f 147/1/4 89/4/14 91/1/1
f 89/4/14 147/1/4 148/4/15
f 95/4/16 149/16/17 150/4/18
f 149/16/17 95/4/16 99/6/9
f 149/16/17 99/6/9 151/6/9
f 23/9/8 152/6/9 139/9/8
f 152/6/9 23/9/8 25/6/9
f 153/6/13 83/9/11 86/6/13
f 83/9/11 153/6/13 141/9/11
f 144/9/8 99/6/9 102/9/8
f 99/6/9 144/9/8 151/6/9
f 142/12/12 79/14/19 81/12/12
f 79/14/19 142/12/12 154/14/19
f 154/14/19 76/12/10 79/14/19
f 76/12/10 154/14/19 155/12/10
f 156/9/8 71/6/9 74/9/8
f 71/6/9 156/9/8 157/6/9
f 18/14/19 140/12/10 158/14/19
f 140/12/10 18/14/19 21/12/10
f 159/14/19 104/12/10 107/14/19
f 104/12/10 159/14/19 143/12/10
f 36/4/14 160/1/4 35/1/1
f 160/1/4 36/4/14 161/4/15
f 146/9/11 109/12/12 111/9/11
f 109/12/12 146/9/11 162/12/12
f 163/2/20 164/16/20 165/16/20
f 164/16/20 163/2/20 2/2/20
f 164/16/20 2/2/20 4/1/20
f 164/16/20 4/1/20 166/4/20
f 164/16/20 166/4/20 167/16/20
f 168/4/18 32/1/21 169/1/22
f 32/1/21 168/4/18 28/4/16
f 168/4/20 170/16/20 171/16/20
f 170/16/20 168/4/20 169/1/20
f 170/16/20 169/1/20 172/5/20
f 170/16/20 172/5/20 161/4/20
f 161/4/20 172/5/20 160/1/20
f 160/1/20 172/5/20 173/5/20
f 64/4/16 126/1/22 65/1/21
f 126/1/22 64/4/16 124/4/18
f 174/16/7 150/4/7 149/16/7
f 150/4/7 174/16/7 175/1/7
f 175/1/7 174/16/7 176/5/7
f 176/5/7 174/16/7 148/4/7
f 176/5/7 148/4/7 147/1/7
f 176/5/7 147/1/7 177/5/7
f 178/1/22 56/4/16 61/1/21
f 56/4/16 178/1/22 179/4/18
f 38/6/13 180/9/11 181/6/13
f 180/9/11 38/6/13 41/9/11
f 16/12/12 158/14/19 182/12/12
f 158/14/19 16/12/12 18/14/19
f 8/4/14 4/1/4 1/1/1
f 4/1/4 8/4/14 166/4/15
f 35/1/1 173/5/23 34/5/23
f 173/5/23 35/1/1 160/1/4
f 96/1/21 150/4/18 175/1/22
f 150/4/18 96/1/21 95/4/16
f 10/6/13 166/4/15 8/4/14
f 166/4/15 10/6/13 167/16/24
f 167/16/24 10/6/13 183/6/13
f 93/5/25 175/1/22 176/5/25
f 175/1/22 93/5/25 96/1/21
f 44/12/12 184/14/19 185/12/12
f 184/14/19 44/12/12 46/14/19
f 64/4/16 125/16/17 124/4/18
f 125/16/17 64/4/16 71/6/9
f 125/16/17 71/6/9 157/6/9
f 174/16/24 89/4/14 148/4/15
f 89/4/14 174/16/24 86/6/13
f 86/6/13 174/16/24 153/6/13
f 147/1/4 92/5/23 177/5/23
f 92/5/23 147/1/4 91/1/1
f 49/12/10 138/9/8 186/12/10
f 138/9/8 49/12/10 51/9/8
f 171/16/17 28/4/16 168/4/18
f 28/4/16 171/16/17 25/6/9
f 25/6/9 171/16/17 152/6/9
f 187/16/17 56/4/16 179/4/18
f 56/4/16 187/16/17 53/6/9
f 53/6/9 187/16/17 137/6/9
f 162/12/12 107/14/19 109/12/12
f 107/14/19 162/12/12 159/14/19
f 46/14/19 186/12/10 184/14/19
f 186/12/10 46/14/19 49/12/10
f 134/1/4 120/2/3 133/2/2
f 120/2/3 134/1/4 119/1/1
f 31/5/19 173/5/19 172/5/19
f 173/5/19 31/5/19 34/5/19
f 13/9/11 182/12/12 188/9/11
f 182/12/12 13/9/11 16/12/12
f 134/1/4 117/4/14 119/1/1
f 117/4/14 134/1/4 135/4/15
f 169/1/22 31/5/25 172/5/25
f 31/5/25 169/1/22 32/1/21
f 36/4/14 170/16/24 161/4/15
f 170/16/24 36/4/14 38/6/13
f 170/16/24 38/6/13 181/6/13
f 41/9/11 185/12/12 180/9/11
f 185/12/12 41/9/11 44/12/12
f 135/4/15 114/6/13 117/4/14
f 114/6/13 135/4/15 136/16/24
f 114/6/13 136/16/24 145/6/13
f 176/5/19 92/5/19 93/5/19
f 92/5/19 176/5/19 177/5/19
f 155/12/10 74/9/8 76/12/10
f 74/9/8 155/12/10 156/9/8
f 129/16/26 189/2/26 128/2/26
f 189/2/26 129/16/26 190/16/26
f 190/16/26 129/16/26 191/16/26
f 190/16/26 191/16/26 192/16/26
f 190/16/26 192/16/26 193/16/26
f 190/16/26 193/16/26 194/16/26
f 178/1/22 60/2/27 195/2/28
f 60/2/27 178/1/22 61/1/21
f 10/6/13 188/9/11 183/6/13
f 188/9/11 10/6/13 13/9/11
f 179/4/20 196/16/20 187/16/20
f 196/16/20 179/4/20 178/1/20
f 196/16/20 178/1/20 195/2/20
f 196/16/20 195/2/20 189/2/20
f 196/16/20 189/2/20 190/16/20
f 65/1/21 127/2/28 63/2/27
f 127/2/28 65/1/21 126/1/22
f 165/16/29 131/2/29 163/2/29
f 131/2/29 165/16/29 132/16/29
f 197/2/30 198/3/31 199/3/30
f 198/3/31 197/2/30 200/2/31
f 201/2/32 66/3/33 67/2/33
f 66/3/33 201/2/32 202/3/32
f 203/3/34 62/2/35 59/3/35
f 62/2/35 203/3/34 204/2/34
f 201/2/32 199/3/30 202/3/32
f 199/3/30 201/2/32 197/2/30
f 7/3/36 205/2/37 206/3/37
f 205/2/37 7/3/36 6/2/36
f 122/2/38 207/3/39 208/2/39
f 207/3/39 122/2/38 121/3/38
f 205/2/37 209/3/40 206/3/37
f 209/3/40 205/2/37 210/2/40
f 3/2/3 205/2/19 6/2/19
f 3/2/3 210/2/19 205/2/19
f 2/2/2 210/2/19 3/2/3
f 163/2/19 210/2/19 2/2/2
f 131/2/19 210/2/19 163/2/19
f 210/2/19 131/2/19 211/2/19
f 133/2/2 211/2/19 131/2/19
f 133/2/2 208/2/19 211/2/19
f 120/2/3 208/2/19 133/2/2
f 208/2/19 120/2/3 122/2/19
f 90/3/41 212/3/41 94/3/41
f 212/3/41 90/3/41 213/3/41
f 212/3/41 213/3/41 214/3/41
f 215/3/41 214/3/41 213/3/41
f 215/3/41 213/3/41 216/3/41
f 209/3/41 214/3/41 215/3/41
f 209/3/41 215/3/41 5/3/41
f 209/3/41 5/3/41 206/3/41
f 206/3/41 5/3/41 7/3/41
f 217/3/41 214/3/41 209/3/41
f 207/3/41 214/3/41 217/3/41
f 207/3/41 118/3/41 214/3/41
f 118/3/41 207/3/41 121/3/41
f 213/3/41 218/3/41 216/3/41
f 219/3/41 216/3/41 218/3/41
f 216/3/41 219/3/41 30/3/41
f 30/3/41 219/3/41 33/3/41
f 213/3/41 198/3/41 218/3/41
f 218/3/41 198/3/41 58/3/41
f 220/3/41 198/3/41 213/3/41
f 58/3/41 198/3/41 203/3/41
f 58/3/41 203/3/41 59/3/41
f 220/3/41 199/3/41 198/3/41
f 220/3/41 202/3/41 199/3/41
f 220/3/41 66/3/41 202/3/41
f 66/3/41 220/3/41 68/3/41
f 210/2/40 217/3/42 209/3/40
f 217/3/42 210/2/40 211/2/42
f 211/2/42 207/3/39 217/3/42
f 207/3/39 211/2/42 208/2/39
f 200/2/31 203/3/34 198/3/31
f 203/3/34 200/2/31 204/2/34
f 60/2/27 189/2/19 195/2/28
f 189/2/19 60/2/27 200/2/19
f 200/2/19 128/2/19 189/2/19
f 200/2/19 60/2/27 204/2/19
f 204/2/19 60/2/27 62/2/19
f 197/2/19 128/2/19 200/2/19
f 197/2/19 127/2/28 128/2/19
f 201/2/19 127/2/28 197/2/19
f 67/2/19 127/2/28 201/2/19
f 127/2/28 67/2/19 63/2/27
f 221/17/19 222/17/19 223/17/19
f 222/17/19 221/17/19 224/17/19
f 224/17/19 221/17/19 225/17/19
f 225/17/19 221/17/19 226/17/19
f 225/17/43 227/15/43 228/15/43
f 227/15/43 225/17/43 224/17/43
f 229/18/44 230/19/44 231/19/44
f 230/19/44 229/18/44 232/18/44
f 233/19/45 234/20/46 235/19/45
f 234/20/46 233/19/45 236/20/46
f 237/19/47 235/19/45 238/19/47
f 235/19/45 237/19/47 233/19/45
f 239/20/48 238/19/47 240/20/48
f 238/19/47 239/20/48 237/19/47
f 241/21/49 242/18/50 243/18/50
f 242/18/50 241/21/49 244/21/49
f 236/20/46 241/21/49 234/20/46
f 241/21/49 236/20/46 244/21/49
f 239/20/51 233/19/51 237/19/51
f 233/19/51 239/20/51 236/20/51
f 236/20/51 239/20/51 245/21/51
f 236/20/51 245/21/51 244/21/51
f 244/21/51 245/21/51 246/18/51
f 244/21/51 246/18/51 242/18/51
f 243/18/50 246/18/52 247/18/52
f 246/18/52 243/18/50 242/18/50
f 245/21/53 240/20/48 248/21/53
f 240/20/48 245/21/53 239/20/48
f 247/18/52 245/21/53 248/21/53
f 245/21/53 247/18/52 246/18/52
f 249/19/54 250/20/55 251/19/54
f 250/20/55 249/19/54 252/20/55
f 253/19/56 251/19/54 254/19/56
f 251/19/54 253/19/56 249/19/54
f 255/20/57 254/19/56 256/20/57
f 254/19/56 255/20/57 253/19/56
f 257/21/58 258/18/59 259/18/59
f 258/18/59 257/21/58 260/21/58
f 252/20/55 257/21/58 250/20/55
f 257/21/58 252/20/55 260/21/58
f 255/20/44 249/19/44 253/19/44
f 249/19/44 255/20/44 252/20/44
f 252/20/44 255/20/44 261/21/44
f 252/20/44 261/21/44 260/21/44
f 260/21/44 261/21/44 262/18/44
f 260/21/44 262/18/44 258/18/44
f 259/18/59 262/18/60 263/18/60
f 262/18/60 259/18/59 258/18/59
f 261/21/61 256/20/57 264/21/61
f 256/20/57 261/21/61 255/20/57
f 263/18/60 261/21/61 264/21/61
f 261/21/61 263/18/60 262/18/60
f 265/22/43 266/23/43 267/23/43
f 266/23/43 265/22/43 268/22/43
f 269/24/62 101/25/63 100/24/62
f 101/25/63 269/24/62 270/25/63
f 271/26/64 105/27/65 103/26/64
f 105/27/65 271/26/64 272/27/65
f 113/24/66 273/28/67 115/28/67
f 273/28/67 113/24/66 274/24/66
f 275/26/64 77/27/65 75/26/64
f 77/27/65 275/26/64 276/27/65
f 277/24/62 73/25/63 72/24/62
f 73/25/63 277/24/62 278/25/63
f 29/29/68 216/30/43 30/30/43
f 216/30/43 29/29/68 279/29/68
f 280/31/41 108/27/69 106/31/41
f 108/27/69 280/31/41 281/27/69
f 281/27/69 280/31/41 282/31/70
f 88/29/71 213/30/44 90/30/44
f 213/30/44 88/29/71 283/29/71
f 116/29/71 214/30/44 118/30/44
f 214/30/44 116/29/71 284/29/71
f 278/25/63 75/26/64 73/25/63
f 75/26/64 278/25/63 275/26/64
f 285/26/72 84/25/73 82/26/72
f 84/25/73 285/26/72 286/25/73
f 287/26/72 112/25/73 110/26/72
f 112/25/73 287/26/72 288/25/73
f 276/27/65 78/31/41 77/27/65
f 78/31/41 276/27/65 289/31/41
f 290/27/69 82/26/72 80/27/69
f 82/26/72 290/27/69 285/26/72
f 112/25/73 274/24/66 113/24/66
f 274/24/66 112/25/73 288/25/73
f 270/25/63 103/26/64 101/25/63
f 103/26/64 270/25/63 271/26/64
f 87/28/67 283/29/71 88/29/71
f 283/29/71 87/28/67 291/28/67
f 292/28/74 100/24/62 98/28/74
f 100/24/62 292/28/74 269/24/62
f 293/29/68 98/28/74 97/29/68
f 98/28/74 293/29/68 292/28/74
f 115/28/67 284/29/71 116/29/71
f 284/29/71 115/28/67 273/28/67
f 281/27/69 110/26/72 108/27/69
f 110/26/72 281/27/69 287/26/72
f 85/24/66 291/28/67 87/28/67
f 291/28/67 85/24/66 294/24/66
f 295/29/68 70/28/74 69/29/68
f 70/28/74 295/29/68 296/28/74
f 84/25/73 294/24/66 85/24/66
f 294/24/66 84/25/73 286/25/73
f 296/28/74 72/24/62 70/28/74
f 72/24/62 296/28/74 277/24/62
f 272/27/65 106/31/41 105/27/65
f 106/31/41 272/27/65 280/31/41
f 280/31/41 272/27/65 282/31/75
f 57/29/68 218/30/43 58/30/43
f 218/30/43 57/29/68 297/29/68
f 289/31/41 80/27/69 78/31/41
f 80/27/69 289/31/41 290/27/69
f 55/28/74 297/29/68 57/29/68
f 297/29/68 55/28/74 298/28/74
f 299/29/71 33/30/44 219/30/44
f 33/30/44 299/29/71 37/29/71
f 47/31/41 300/27/69 301/31/41
f 300/27/69 47/31/41 45/27/69
f 45/27/69 302/26/72 300/27/69
f 302/26/72 45/27/69 43/26/72
f 52/25/63 303/24/62 54/24/62
f 303/24/62 52/25/63 304/25/63
f 305/28/67 37/29/71 299/29/71
f 37/29/71 305/28/67 39/28/67
f 306/25/73 40/24/66 307/24/66
f 40/24/66 306/25/73 42/25/73
f 307/24/66 39/28/67 305/28/67
f 39/28/67 307/24/66 40/24/66
f 43/26/72 306/25/73 302/26/72
f 306/25/73 43/26/72 42/25/73
f 52/25/63 308/26/64 304/25/63
f 308/26/64 52/25/63 50/26/64
f 48/27/65 301/31/41 309/27/65
f 301/31/41 48/27/65 47/31/41
f 54/24/62 298/28/74 55/28/74
f 298/28/74 54/24/62 303/24/62
f 50/26/64 309/27/65 308/26/64
f 309/27/65 50/26/64 48/27/65
f 218/30/5 299/29/5 219/30/5
f 299/29/5 218/30/5 305/28/5
f 305/28/5 218/30/5 307/24/5
f 307/24/5 218/30/5 306/25/5
f 306/25/5 218/30/5 302/26/5
f 302/26/5 218/30/5 300/27/5
f 300/27/5 218/30/5 301/31/5
f 301/31/5 218/30/5 309/27/5
f 309/27/5 218/30/5 308/26/5
f 308/26/5 218/30/5 304/25/5
f 304/25/5 218/30/5 303/24/5
f 303/24/5 218/30/5 298/28/5
f 298/28/5 218/30/5 297/29/5
f 291/28/6 213/30/6 283/29/6
f 213/30/6 291/28/6 220/30/6
f 220/30/6 291/28/6 294/24/6
f 220/30/6 294/24/6 286/25/6
f 220/30/6 286/25/6 285/26/6
f 220/30/6 285/26/6 290/27/6
f 220/30/6 290/27/6 289/31/6
f 220/30/6 289/31/6 276/27/6
f 220/30/6 276/27/6 275/26/6
f 220/30/6 275/26/6 278/25/6
f 220/30/6 278/25/6 277/24/6
f 220/30/6 277/24/6 296/28/6
f 220/30/6 296/28/6 295/29/6
f 295/29/68 68/30/43 220/30/43
f 68/30/43 295/29/68 69/29/68
f 293/29/68 94/30/43 212/30/43
f 94/30/43 293/29/68 97/29/68
f 27/28/74 279/29/68 29/29/68
f 279/29/68 27/28/74 310/28/74
f 311/29/71 5/30/44 215/30/44
f 5/30/44 311/29/71 9/29/71
f 312/31/41 313/27/69 314/31/70
f 313/27/69 312/31/41 17/27/69
f 17/27/69 312/31/41 19/31/41
f 17/27/69 315/26/72 313/27/69
f 315/26/72 17/27/69 15/26/72
f 26/24/62 316/25/63 317/24/62
f 316/25/63 26/24/62 24/25/63
f 318/28/67 9/29/71 311/29/71
f 9/29/71 318/28/67 11/28/67
f 319/25/73 12/24/66 320/24/66
f 12/24/66 319/25/73 14/25/73
f 320/24/66 11/28/67 318/28/67
f 11/28/67 320/24/66 12/24/66
f 24/25/63 321/26/64 316/25/63
f 321/26/64 24/25/63 22/26/64
f 20/27/65 314/31/75 322/27/65
f 314/31/75 20/27/65 312/31/41
f 312/31/41 20/27/65 19/31/41
f 15/26/72 319/25/73 315/26/72
f 319/25/73 15/26/72 14/25/73
f 26/24/62 310/28/74 27/28/74
f 310/28/74 26/24/62 317/24/62
f 22/26/64 322/27/65 321/26/64
f 322/27/65 22/26/64 20/27/65
f 216/30/5 311/29/5 215/30/5
f 311/29/5 216/30/5 318/28/5
f 318/28/5 216/30/5 320/24/5
f 320/24/5 216/30/5 319/25/5
f 319/25/5 216/30/5 315/26/5
f 315/26/5 216/30/5 313/27/5
f 313/27/5 216/30/5 314/31/5
f 314/31/5 216/30/5 322/27/5
f 322/27/5 216/30/5 321/26/5
f 321/26/5 216/30/5 316/25/5
f 316/25/5 216/30/5 317/24/5
f 317/24/5 216/30/5 310/28/5
f 310/28/5 216/30/5 279/29/5
f 273/28/6 214/30/6 284/29/6
f 214/30/6 273/28/6 212/30/6
f 212/30/6 273/28/6 274/24/6
f 212/30/6 274/24/6 288/25/6
f 212/30/6 288/25/6 287/26/6
f 212/30/6 287/26/6 281/27/6
f 212/30/6 281/27/6 282/31/6
f 212/30/6 282/31/6 272/27/6
f 212/30/6 272/27/6 271/26/6
f 212/30/6 271/26/6 270/25/6
f 212/30/6 270/25/6 269/24/6
f 212/30/6 269/24/6 292/28/6
f 212/30/6 292/28/6 293/29/6
f 323/32/76 324/33/77 325/33/77
f 324/33/77 323/32/76 326/34/77
f 326/34/77 323/32/76 327/34/77
f 328/32/76 327/34/77 323/32/76
f 329/33/77 327/34/77 328/32/76
f 327/34/77 329/33/77 330/33/77
f 331/33/44 221/35/44 223/35/44
f 221/35/44 331/33/44 332/33/44
f 333/36/44 192/37/44 191/37/44
f 192/37/44 333/36/44 334/36/44
f 335/36/43 336/38/43 337/38/43
f 336/38/43 335/36/43 338/36/43
f 339/36/43 338/36/43 335/36/43
f 339/36/43 340/36/43 338/36/43
f 132/37/43 340/36/43 339/36/43
f 340/36/43 132/37/43 165/37/43
f 341/38/35 342/33/36 343/38/36
f 342/33/36 341/38/35 344/33/35
f 345/33/78 346/38/79 347/38/78
f 346/38/79 345/33/78 348/33/79
f 341/38/41 349/38/41 350/38/41
f 349/38/41 341/38/41 351/38/41
f 351/38/41 341/38/41 347/38/41
f 347/38/41 341/38/41 343/38/41
f 347/38/41 336/38/41 351/38/41
f 347/38/41 337/38/41 336/38/41
f 347/38/41 352/38/41 337/38/41
f 346/38/41 352/38/41 347/38/41
f 346/38/41 353/38/41 352/38/41
f 352/38/41 353/38/41 354/38/41
f 355/38/41 353/38/41 346/38/41
f 353/38/41 355/38/41 356/38/41
f 324/33/80 357/39/80 325/33/80
f 357/39/80 324/33/80 358/36/80
f 358/36/80 324/33/80 333/36/80
f 333/36/80 324/33/80 330/33/80
f 333/36/80 330/33/80 334/36/80
f 334/36/80 330/33/80 359/36/80
f 359/36/80 330/33/80 360/36/80
f 360/36/80 330/33/80 361/36/80
f 361/36/80 330/33/80 329/33/80
f 361/36/80 329/33/80 362/39/80
f 359/36/44 194/37/44 193/37/44
f 194/37/44 359/36/44 360/36/44
f 363/38/5 364/33/81 365/38/5
f 364/33/81 363/38/5 366/33/81
f 364/33/81 329/33/19 367/33/19
f 329/33/19 364/33/81 366/33/81
f 329/33/44 363/38/44 368/38/44
f 363/38/44 329/33/44 366/33/44
f 363/38/41 369/38/41 368/38/41
f 369/38/41 363/38/41 365/38/41
f 370/33/82 371/38/6 372/33/82
f 371/38/6 370/33/82 373/38/6
f 374/38/41 371/38/41 373/38/41
f 371/38/41 374/38/41 375/38/41
f 376/33/19 370/33/82 372/33/82
f 370/33/82 376/33/19 325/33/19
f 370/33/44 374/38/44 373/38/44
f 374/38/44 370/33/44 325/33/44
f 348/33/19 377/33/19 378/33/19
f 377/33/19 348/33/19 379/33/19
f 379/33/19 348/33/19 380/33/19
f 348/33/19 331/33/19 380/33/19
f 381/33/19 380/33/19 331/33/19
f 331/33/19 348/33/19 345/33/19
f 331/33/19 345/33/19 332/33/19
f 332/33/19 345/33/19 382/33/19
f 382/33/19 345/33/19 383/33/19
f 383/33/19 345/33/19 342/33/19
f 383/33/19 342/33/19 384/33/19
f 384/33/19 342/33/19 344/33/19
f 382/33/6 221/35/6 332/33/6
f 221/35/6 382/33/6 226/35/6
f 226/35/6 382/33/6 225/35/6
f 385/40/83 384/33/83 386/33/83
f 385/40/83 383/33/83 384/33/83
f 385/40/83 387/32/83 383/33/83
f 387/32/83 385/40/83 328/32/83
f 328/32/83 385/40/83 388/40/83
f 328/32/83 388/40/83 389/33/83
f 328/32/83 389/33/83 329/33/83
f 329/33/83 389/33/83 367/33/83
f 222/35/5 331/33/5 223/35/5
f 331/33/5 222/35/5 381/33/5
f 381/33/5 222/35/5 224/35/5
f 387/32/19 323/32/76 390/32/19
f 323/32/76 387/32/19 328/32/76
f 391/33/84 325/33/84 376/33/84
f 391/33/84 323/32/84 325/33/84
f 392/40/84 323/32/84 391/33/84
f 393/40/84 323/32/84 392/40/84
f 393/40/84 390/32/84 323/32/84
f 390/32/84 393/40/84 380/33/84
f 380/33/84 393/40/84 379/33/84
f 394/33/84 379/33/84 393/40/84
f 387/32/85 382/33/85 383/33/85
f 382/33/85 387/32/85 381/33/85
f 381/33/85 387/32/85 380/33/85
f 380/33/85 387/32/85 390/32/85
f 164/37/5 340/36/5 165/37/5
f 340/36/5 164/37/5 395/36/5
f 395/36/5 164/37/5 349/38/5
f 349/38/5 164/37/5 188/41/5
f 188/41/5 164/37/5 183/42/5
f 183/42/5 164/37/5 167/37/5
f 349/38/5 188/41/5 182/43/5
f 349/38/5 182/43/5 158/44/5
f 349/38/5 158/44/5 350/38/5
f 350/38/5 158/44/5 140/43/5
f 350/38/5 140/43/5 139/41/5
f 350/38/5 139/41/5 152/42/5
f 350/38/5 152/42/5 171/37/5
f 350/38/5 171/37/5 170/37/5
f 350/38/5 170/37/5 384/33/5
f 384/33/5 170/37/5 386/33/5
f 386/33/5 170/37/5 181/42/5
f 386/33/5 181/42/5 180/41/5
f 386/33/5 180/41/5 389/33/5
f 389/33/5 180/41/5 185/43/5
f 389/33/5 185/43/5 184/44/5
f 389/33/5 184/44/5 369/38/5
f 367/33/5 389/33/5 369/38/5
f 369/38/5 184/44/5 186/43/5
f 369/38/5 186/43/5 368/38/5
f 368/38/5 186/43/5 138/41/5
f 368/38/5 138/41/5 329/33/5
f 329/33/5 138/41/5 362/39/5
f 362/39/5 138/41/5 137/42/5
f 362/39/5 137/42/5 187/37/5
f 362/39/5 187/37/5 196/37/5
f 394/33/6 353/38/6 379/33/6
f 174/37/6 353/38/6 394/33/6
f 174/37/6 394/33/6 153/42/6
f 153/42/6 394/33/6 141/41/6
f 149/37/6 353/38/6 174/37/6
f 141/41/6 394/33/6 391/33/6
f 151/42/6 353/38/6 149/37/6
f 141/41/6 391/33/6 142/43/6
f 144/41/6 353/38/6 151/42/6
f 143/43/6 353/38/6 144/41/6
f 159/44/6 353/38/6 143/43/6
f 159/44/6 354/38/6 353/38/6
f 162/43/6 354/38/6 159/44/6
f 354/38/6 162/43/6 396/36/6
f 142/43/6 391/33/6 154/44/6
f 396/36/6 162/43/6 146/41/6
f 154/44/6 391/33/6 375/38/6
f 375/38/6 391/33/6 376/33/6
f 154/44/6 375/38/6 155/43/6
f 155/43/6 375/38/6 374/38/6
f 155/43/6 374/38/6 156/41/6
f 374/38/6 357/39/6 156/41/6
f 357/39/6 374/38/6 325/33/6
f 156/41/6 357/39/6 157/42/6
f 157/42/6 357/39/6 125/37/6
f 125/37/6 357/39/6 123/37/6
f 396/36/6 146/41/6 130/37/6
f 130/37/6 146/41/6 145/42/6
f 130/37/6 145/42/6 136/37/6
f 132/37/6 396/36/6 130/37/6
f 396/36/6 132/37/6 339/36/6
f 350/38/34 344/33/35 341/38/35
f 344/33/35 350/38/34 384/33/34
f 377/33/33 355/38/38 378/33/38
f 355/38/38 377/33/33 356/38/33
f 379/33/32 356/38/33 377/33/33
f 356/38/33 379/33/32 353/38/32
f 378/33/38 346/38/79 348/33/79
f 346/38/79 378/33/38 355/38/38
f 342/33/36 347/38/78 343/38/36
f 347/38/78 342/33/36 345/33/78
f 364/33/43 369/38/43 365/38/43
f 369/38/43 364/33/43 367/33/43
f 376/33/43 371/38/43 375/38/43
f 371/38/43 376/33/43 372/33/43
f 381/33/19 379/33/19 380/33/19
f 379/33/19 381/33/19 394/33/19
f 394/33/19 381/33/19 376/33/19
f 376/33/19 391/33/19 394/33/19
f 376/33/19 381/33/19 325/33/19
f 325/33/19 381/33/19 324/33/19
f 324/33/19 381/33/19 382/33/19
f 324/33/19 382/33/19 330/33/19
f 330/33/19 382/33/19 329/33/19
f 329/33/19 382/33/19 383/33/19
f 329/33/19 383/33/19 384/33/19
f 329/33/19 384/33/19 386/33/19
f 329/33/19 386/33/19 389/33/19
f 329/33/19 389/33/19 367/33/19
f 234/45/86 238/46/86 235/46/86
f 238/46/86 234/45/86 240/45/86
f 240/45/86 234/45/86 241/47/86
f 240/45/86 241/47/86 248/47/86
f 248/47/86 241/47/86 243/32/86
f 248/47/86 243/32/86 247/32/86
f 250/45/43 254/46/43 251/46/43
f 254/46/43 250/45/43 256/45/43
f 256/45/43 250/45/43 257/47/43
f 256/45/43 257/47/43 264/47/43
f 264/47/43 257/47/43 259/32/43
f 264/47/43 259/32/43 263/32/43
f 397/48/87 398/49/44 399/49/32
f 398/49/44 397/48/87 400/48/44
f 401/48/44 402/49/34 403/49/44
f 402/49/34 401/48/44 404/48/88
f 402/49/34 405/50/5 406/49/5
f 405/50/5 402/49/34 404/48/88
f 397/48/87 407/49/6 408/50/6
f 407/49/6 397/48/87 399/49/32
f 409/51/37 410/52/43 411/52/37
f 410/52/43 409/51/37 412/51/43
f 413/51/43 414/52/39 415/52/43
f 414/52/39 413/51/43 416/51/39
f 417/51/6 414/52/39 416/51/39
f 414/52/39 417/51/6 418/52/6
f 419/52/5 409/51/37 411/52/37
f 409/51/37 419/52/5 420/51/5
f 421/53/77 330/54/77 324/54/77
f 330/54/77 421/53/77 422/53/77
f 392/55/84 423/54/84 424/55/84
f 423/54/84 392/55/84 391/54/84
f 389/54/83 425/55/83 426/54/83
f 425/55/83 389/54/83 388/55/83
