# Generated by GTAClone/tools/split_car_wheels.py from truck.obj group wheel-front-left
# Kenney Car Kit (CC0 1.0); the split is a derivative work, also CC0.
mtllib colormap.mtl
v 0.175000 0.000000 0.255000
v 0.175000 -0.065999 0.246311
v 0.175000 0.065999 0.246311
v 0.175000 0.127500 0.220837
v 0.175000 -0.127500 0.220837
v 0.175000 0.000000 0.181368
v 0.175000 0.180312 0.180312
v 0.175000 -0.180312 0.180312
v 0.175000 0.046942 0.175188
v 0.175000 -0.046941 0.175188
v 0.175000 0.090684 0.157069
v 0.175000 0.128247 0.128247
v 0.175000 -0.090684 0.157069
v 0.175000 -0.128247 0.128247
v 0.175000 0.220837 0.127500
v 0.175000 -0.220836 0.127500
v 0.175000 0.157070 0.090684
v 0.175000 0.246311 0.065999
v 0.175000 0.175188 0.046941
v 0.175000 0.255000 0.000000
v 0.175000 0.181368 0.000000
v 0.175000 0.175188 -0.046941
v 0.175000 0.246311 -0.065999
v 0.175000 -0.157070 0.090684
v 0.175000 -0.246311 0.065999
v 0.175000 -0.175188 0.046941
v 0.175000 -0.181368 0.000000
v 0.175000 -0.255000 0.000000
v 0.175000 0.157070 -0.090684
v 0.175000 0.220837 -0.127500
v 0.175000 0.128247 -0.128247
v 0.175000 0.090684 -0.157069
v 0.175000 0.046942 -0.175188
v 0.175000 -0.175188 -0.046941
v 0.175000 -0.246311 -0.065999
v 0.175000 -0.157070 -0.090684
v 0.175000 -0.220836 -0.127500
v 0.175000 -0.128247 -0.128247
v 0.175000 -0.090684 -0.157069
v 0.175000 -0.046941 -0.175188
v 0.175000 0.180312 -0.180312
v 0.175000 -0.180312 -0.180312
v 0.175000 0.000000 -0.181368
v 0.175000 0.127500 -0.220836
v 0.175000 -0.127500 -0.220836
v 0.175000 0.065999 -0.246311
v 0.175000 -0.065999 -0.246311
v 0.175000 0.000000 -0.255000
v -0.075000 0.150000 0.259808
v -0.175000 0.127500 0.220837
v -0.075000 0.077646 0.289778
v -0.175000 0.065999 0.246311
v -0.075000 -0.259808 -0.150000
v -0.075000 -0.289778 -0.077646
v -0.175000 -0.220836 -0.127500
v -0.175000 -0.246311 -0.065999
v -0.175000 0.000000 0.255000
v -0.175000 -0.065999 0.246311
v -0.175000 -0.127500 0.220837
v -0.175000 -0.180312 0.180312
v -0.175000 0.180312 0.180312
v -0.175000 -0.220836 0.127500
v -0.175000 0.220837 0.127500
v -0.175000 -0.246311 0.065999
v -0.175000 0.246311 0.065999
v -0.175000 -0.255000 0.000000
v -0.175000 0.255000 0.000000
v -0.175000 0.246311 -0.065999
v -0.175000 0.220837 -0.127500
v -0.175000 -0.180312 -0.180312
v -0.175000 0.180312 -0.180312
v -0.175000 -0.127500 -0.220836
v -0.175000 0.127500 -0.220836
v -0.175000 0.065999 -0.246311
v -0.175000 -0.065999 -0.246311
v -0.175000 0.000000 -0.255000
v -0.075000 0.077646 -0.289778
v -0.075000 0.000000 -0.300000
v -0.075000 -0.212132 -0.212132
v -0.075000 -0.077646 -0.289778
v -0.075000 -0.150000 -0.259808
v -0.075000 0.289778 -0.077646
v -0.075000 0.300000 0.000000
v -0.075000 0.212132 -0.212132
v -0.075000 0.259808 -0.150000
v -0.075000 -0.300000 0.000000
v -0.075000 0.150000 -0.259808
v -0.075000 -0.150000 0.259808
v -0.075000 -0.212132 0.212132
v -0.075000 0.000000 0.300000
v -0.075000 -0.077646 0.289778
v -0.075000 -0.289778 0.077646
v -0.075000 -0.259808 0.150000
v -0.075000 0.212132 0.212132
v -0.075000 0.289778 0.077646
v -0.075000 0.259808 0.150000
v 0.075000 0.300000 0.000000
v 0.075000 0.289778 0.077646
v 0.075000 -0.077646 -0.289778
v 0.075000 -0.150000 -0.259808
v 0.075000 -0.289778 0.077646
v 0.075000 -0.259808 0.150000
v 0.075000 0.259808 0.150000
v 0.075000 -0.300000 0.000000
v 0.075000 -0.289778 -0.077646
v 0.075000 0.000000 -0.300000
v 0.075000 0.150000 -0.259808
v 0.075000 0.077646 -0.289778
v 0.075000 -0.212132 -0.212132
v 0.075000 -0.259808 -0.150000
v 0.075000 0.212132 0.212132
v 0.075000 0.077646 0.289778
v 0.075000 0.000000 0.300000
v 0.075000 0.212132 -0.212132
v 0.075000 0.289778 -0.077646
v 0.075000 0.150000 0.259808
v 0.075000 0.259808 -0.150000
v 0.075000 -0.212132 0.212132
v 0.075000 -0.077646 0.289778
v 0.075000 -0.150000 0.259808
v 0.175000 0.000000 -0.181368
v 0.175000 0.046942 -0.175188
v 0.175000 -0.046941 -0.175188
v 0.175000 -0.090684 -0.157069
v 0.175000 0.090684 -0.157069
v 0.175000 -0.128247 -0.128247
v 0.175000 0.128247 -0.128247
v 0.175000 0.000000 -0.120478
v 0.175000 -0.031182 -0.116373
v 0.175000 0.031182 -0.116373
v 0.175000 -0.060239 -0.104337
v 0.175000 0.060239 -0.104337
v 0.175000 -0.157070 -0.090684
v 0.175000 0.157070 -0.090684
v 0.175000 -0.085191 -0.085191
v 0.175000 -0.104337 -0.060239
v 0.175000 -0.175188 -0.046941
v 0.175000 0.085191 -0.085191
v 0.175000 0.104337 -0.060239
v 0.175000 0.175188 -0.046941
v 0.175000 -0.116373 -0.031182
v 0.175000 -0.181368 0.000000
v 0.175000 -0.120478 0.000000
v 0.175000 -0.116373 0.031182
v 0.175000 -0.175188 0.046941
v 0.175000 0.116373 -0.031182
v 0.175000 0.120478 0.000000
v 0.175000 0.181368 0.000000
v 0.175000 -0.104337 0.060239
v 0.175000 -0.085191 0.085191
v 0.175000 -0.157070 0.090684
v 0.175000 0.116373 0.031182
v 0.175000 0.175188 0.046941
v 0.175000 0.104337 0.060239
v 0.175000 0.085191 0.085191
v 0.175000 0.157070 0.090684
v 0.175000 -0.060239 0.104337
v 0.175000 -0.031182 0.116373
v 0.175000 -0.128247 0.128247
v 0.175000 0.060239 0.104337
v 0.175000 0.031182 0.116373
v 0.175000 0.128247 0.128247
v 0.175000 0.000000 0.120478
v 0.175000 -0.090684 0.157069
v 0.175000 0.090684 0.157069
v 0.175000 -0.046941 0.175188
v 0.175000 0.046942 0.175188
v 0.175000 0.000000 0.181368
v 0.175000 0.060239 0.104337
v 0.175000 0.031182 0.116373
v 0.125000 0.045179 0.078253
v 0.125000 0.023387 0.087280
v 0.125000 0.000000 -0.090359
v 0.125000 -0.023386 -0.087279
v 0.175000 0.000000 -0.120478
v 0.175000 -0.031182 -0.116373
v 0.125000 -0.045179 0.078253
v 0.175000 -0.060239 0.104337
v 0.125000 -0.063893 0.063893
v 0.175000 -0.085191 0.085191
v 0.175000 0.085191 0.085191
v 0.125000 0.063893 0.063893
v 0.125000 -0.045179 -0.078253
v 0.125000 -0.063893 -0.063893
v 0.175000 -0.060239 -0.104337
v 0.175000 -0.085191 -0.085191
v 0.175000 0.104337 -0.060239
v 0.175000 0.116373 -0.031182
v 0.125000 0.078253 -0.045179
v 0.125000 0.087280 -0.023386
v 0.175000 0.085191 -0.085191
v 0.125000 0.063893 -0.063893
v 0.175000 0.120478 0.000000
v 0.125000 0.090359 0.000000
v 0.125000 0.000000 0.090359
v 0.125000 -0.023386 0.087280
v 0.125000 0.078253 0.045179
v 0.125000 -0.078253 0.045179
v 0.125000 0.087280 0.023386
v 0.125000 -0.087280 0.023386
v 0.125000 -0.090358 0.000000
v 0.125000 -0.087280 -0.023386
v 0.125000 -0.078253 -0.045179
v 0.125000 0.045179 -0.078253
v 0.125000 0.023387 -0.087279
v 0.175000 -0.031182 0.116373
v 0.175000 0.060239 -0.104337
v 0.175000 0.116373 0.031182
v 0.175000 0.104337 0.060239
v 0.175000 -0.104337 -0.060239
v 0.175000 -0.116373 -0.031182
v 0.175000 -0.120478 0.000000
v 0.175000 0.031182 -0.116373
v 0.175000 -0.104337 0.060239
v 0.175000 0.000000 0.120478
v 0.175000 -0.116373 0.031182
vt 0.343750 0.275000
vt 0.343750 0.318999
vt 0.343750 0.360000
vt 0.343750 0.395208
vt 0.343750 0.306294
vt 0.343750 0.335456
vt 0.343750 0.360498
vt 0.343750 0.422224
vt 0.343750 0.379713
vt 0.343750 0.439207
vt 0.343750 0.391792
vt 0.343750 0.445000
vt 0.343750 0.395912
vt 0.343750 0.375000
vt 0.343750 0.326764
vt 0.343750 0.468185
vt 0.343750 0.475000
vt 0.343750 0.416421
vt 0.343750 0.448205
vt 0.718750 0.375000
vt 0.718750 0.400882
vt 0.718750 0.349118
vt 0.718750 0.325000
vt 0.718750 0.425000
vt 0.718750 0.304289
vt 0.718750 0.445711
vt 0.718750 0.357807
vt 0.718750 0.392193
vt 0.718750 0.341786
vt 0.718750 0.408214
vt 0.718750 0.288397
vt 0.718750 0.461603
vt 0.718750 0.328029
vt 0.718750 0.317472
vt 0.718750 0.278407
vt 0.718750 0.421971
vt 0.718750 0.432528
vt 0.718750 0.471593
vt 0.718750 0.310836
vt 0.718750 0.275000
vt 0.718750 0.308573
vt 0.718750 0.439164
vt 0.718750 0.441427
vt 0.718750 0.475000
vt 0.718750 0.335000
vt 0.718750 0.325353
vt 0.718750 0.330000
vt 0.718750 0.322765
vt 0.718750 0.315000
vt 0.718750 0.307235
vt 0.718750 0.304647
vt 0.718750 0.300000
vt 0.718750 0.295000
vt 0.718750 0.293787
vt 0.718750 0.286716
vt 0.718750 0.343284
vt 0.718750 0.336213
vt 0.718750 0.349641
vt 0.718750 0.353637
vt 0.718750 0.340981
vt 0.718750 0.343978
vt 0.718750 0.355000
vt 0.718750 0.345000
vt 0.718750 0.289019
vt 0.718750 0.286022
vt 0.718750 0.285000
vt 0.718750 0.280359
vt 0.718750 0.276363
vn 1.000000 0.000000 0.000000
vn -0.206363 0.489238 0.847385
vn -0.410365 0.455961 0.789747
vn -0.206363 0.253248 0.945135
vn -0.410365 0.236023 0.880849
vn -0.206363 -0.847385 -0.489238
vn -0.206363 -0.945135 -0.253248
vn -0.410365 -0.789747 -0.455961
vn -0.410365 -0.880849 -0.236023
vn -1.000000 0.000000 0.000000
vn -0.410365 0.236023 -0.880849
vn -0.206363 0.253248 -0.945135
vn -0.410365 0.000000 -0.911922
vn -0.206363 0.000000 -0.978476
vn -0.206363 -0.691887 -0.691887
vn -0.410365 -0.644826 -0.644826
vn -0.410365 -0.236023 -0.880849
vn -0.206363 -0.253248 -0.945135
vn -0.410365 -0.455961 -0.789747
vn -0.206363 -0.489238 -0.847385
vn -0.206363 0.945135 -0.253248
vn -0.410365 0.880849 -0.236023
vn -0.206363 0.978476 0.000000
vn -0.410365 0.911922 0.000000
vn -0.206363 0.691887 -0.691887
vn -0.410365 0.644826 -0.644826
vn -0.206363 0.847385 -0.489238
vn -0.410365 0.789747 -0.455961
vn -0.206363 -0.978476 0.000000
vn -0.410365 -0.911922 0.000000
vn -0.206363 0.489238 -0.847385
vn -0.410365 0.455961 -0.789747
vn -0.410365 -0.455961 0.789747
vn -0.410365 -0.644826 0.644826
vn -0.206363 -0.489238 0.847385
vn -0.206363 -0.691887 0.691887
vn -0.410365 0.000000 0.911922
vn -0.410365 -0.236023 0.880849
vn -0.206363 0.000000 0.978476
vn -0.206363 -0.253248 0.945135
vn -0.206363 -0.945135 0.253248
vn -0.410365 -0.880849 0.236023
vn -0.206363 -0.847385 0.489238
vn -0.410365 -0.789747 0.455961
vn -0.206363 0.691887 0.691887
vn -0.410365 0.644826 0.644826
vn -0.206363 0.945135 0.253248
vn -0.410365 0.880849 0.236023
vn -0.206363 0.847385 0.489238
vn -0.410365 0.789747 0.455961
vn 0.206363 0.978476 0.000000
vn 0.206363 0.945135 0.253248
vn 0.410365 -0.236023 -0.880849
vn 0.410365 -0.455961 -0.789747
vn 0.206363 -0.253248 -0.945135
vn 0.206363 -0.489238 -0.847385
vn 0.206363 -0.945135 0.253248
vn 0.206363 -0.847385 0.489238
vn 0.206363 0.847385 0.489238
vn 0.410365 -0.911922 0.000000
vn 0.410365 -0.880849 0.236023
vn 0.206363 -0.978476 0.000000
vn 0.410365 -0.880849 -0.236023
vn 0.206363 -0.945135 -0.253248
vn 0.410365 0.000000 -0.911922
vn 0.206363 0.000000 -0.978476
vn 0.206363 0.489238 -0.847385
vn 0.206363 0.253248 -0.945135
vn 0.410365 -0.789747 0.455961
vn 0.410365 -0.644826 -0.644826
vn 0.206363 -0.691887 -0.691887
vn 0.410365 -0.789747 -0.455961
vn 0.206363 -0.847385 -0.489238
vn 0.206363 0.691887 0.691887
vn 0.410365 0.236023 0.880849
vn 0.206363 0.253248 0.945135
vn 0.410365 0.000000 0.911922
vn 0.206363 0.000000 0.978476
vn 0.410365 0.455961 -0.789747
vn 0.410365 0.236023 -0.880849
vn 0.206363 0.691887 -0.691887
vn 0.410365 0.880849 -0.236023
vn 0.206363 0.945135 -0.253248
vn 0.410365 0.911922 0.000000
vn 0.206363 0.489238 0.847385
vn 0.410365 0.455961 0.789747
vn 0.410365 0.880849 0.236023
vn 0.206363 0.847385 -0.489238
vn 0.206363 -0.691887 0.691887
vn 0.410365 0.644826 0.644826
vn 0.206363 -0.253248 0.945135
vn 0.206363 -0.489238 0.847385
vn 0.410365 -0.236023 0.880849
vn 0.410365 0.789747 -0.455961
vn 0.410365 -0.455961 0.789747
vn 0.410365 0.789747 0.455961
vn 0.410365 -0.644826 0.644826
vn 0.410365 0.644826 -0.644826
vn 1.000000 0.000000 -0.000000
vn 0.516000 -0.428294 -0.741827
vn 0.516000 -0.221701 -0.827401
vn 0.516000 0.000000 0.856588
vn 0.516000 0.221701 0.827401
vn 0.516000 0.428294 -0.741827
vn 0.516000 0.605699 -0.605699
vn 0.516000 -0.605699 -0.605699
vn 0.516000 0.428294 0.741827
vn 0.516000 0.605699 0.605699
vn 0.516000 -0.741827 0.428294
vn 0.516000 -0.827401 0.221701
vn 0.516000 -0.605699 0.605699
vn 0.516000 -0.856588 0.000000
vn 0.516000 0.221701 -0.827401
vn 0.516000 -0.428294 0.741827
vn 0.516000 -0.827401 -0.221701
vn 0.516000 -0.741827 -0.428294
vn 0.516000 0.741827 0.428294
vn 0.516000 0.827401 0.221701
vn 0.516000 0.856588 0.000000
vn 0.516000 -0.221701 0.827401
vn 0.516000 0.741827 -0.428294
vn 0.516000 0.000000 -0.856588
vn 0.516000 0.827401 -0.221701
usemtl colormap
f 1/1/1 2/1/1 3/2/1
f 3/2/1 2/1/1 4/3/1
f 2/1/1 5/1/1 4/3/1
f 5/1/1 6/1/1 4/3/1
f 4/3/1 6/1/1 7/4/1
f 5/1/1 8/1/1 6/1/1
f 6/1/1 9/5/1 7/4/1
f 6/1/1 8/1/1 10/1/1
f 9/5/1 11/6/1 7/4/1
f 11/6/1 12/7/1 7/4/1
f 10/1/1 8/1/1 13/1/1
f 13/1/1 8/1/1 14/1/1
f 7/4/1 12/7/1 15/8/1
f 8/1/1 16/1/1 14/1/1
f 12/7/1 17/9/1 15/8/1
f 15/8/1 17/9/1 18/10/1
f 17/9/1 19/11/1 18/10/1
f 18/10/1 19/11/1 20/12/1
f 19/11/1 21/13/1 20/12/1
f 21/13/1 22/11/1 20/12/1
f 20/12/1 22/11/1 23/10/1
f 14/1/1 16/1/1 24/1/1
f 16/1/1 25/1/1 24/1/1
f 24/1/1 25/1/1 26/1/1
f 26/1/1 25/1/1 27/1/1
f 25/1/1 28/1/1 27/1/1
f 22/11/1 29/9/1 23/10/1
f 23/10/1 29/9/1 30/8/1
f 29/9/1 31/7/1 30/8/1
f 31/7/1 32/6/1 30/8/1
f 32/6/1 33/5/1 30/8/1
f 27/1/1 28/1/1 34/1/1
f 28/1/1 35/1/1 34/1/1
f 34/1/1 35/1/1 36/1/1
f 35/1/1 37/1/1 36/1/1
f 36/1/1 37/1/1 38/1/1
f 38/1/1 37/1/1 39/1/1
f 39/1/1 37/1/1 40/1/1
f 30/8/1 33/5/1 41/4/1
f 37/1/1 42/1/1 40/1/1
f 33/5/1 43/1/1 41/4/1
f 40/1/1 42/1/1 43/1/1
f 44/3/1 41/4/1 43/1/1
f 43/1/1 42/1/1 44/3/1
f 42/1/1 45/1/1 44/3/1
f 44/3/1 45/1/1 46/2/1
f 45/1/1 47/1/1 46/2/1
f 48/1/1 46/2/1 47/1/1
f 49/14/2 50/3/3 51/15/4
f 52/2/5 51/15/4 50/3/3
f 53/1/6 54/1/7 55/1/8
f 56/1/9 55/1/8 54/1/7
f 57/1/10 52/2/10 58/1/10
f 58/1/10 52/2/10 59/1/10
f 52/2/10 50/3/10 59/1/10
f 59/1/10 50/3/10 60/1/10
f 50/3/10 61/4/10 60/1/10
f 60/1/10 61/4/10 62/1/10
f 61/4/10 63/8/10 62/1/10
f 62/1/10 63/8/10 64/1/10
f 63/8/10 65/10/10 64/1/10
f 64/1/10 65/10/10 66/1/10
f 65/10/10 67/12/10 66/1/10
f 66/1/10 67/12/10 56/1/10
f 67/12/10 68/10/10 56/1/10
f 56/1/10 68/10/10 55/1/10
f 68/10/10 69/8/10 55/1/10
f 55/1/10 69/8/10 70/1/10
f 69/8/10 71/4/10 70/1/10
f 70/1/10 71/4/10 72/1/10
f 71/4/10 73/3/10 72/1/10
f 73/3/10 74/2/10 72/1/10
f 72/1/10 74/2/10 75/1/10
f 76/1/10 75/1/10 74/2/10
f 74/2/11 77/15/12 76/1/13
f 78/1/14 76/1/13 77/15/12
f 79/1/15 53/1/6 70/1/16
f 55/1/8 70/1/16 53/1/6
f 75/1/17 80/1/18 72/1/19
f 81/1/20 72/1/19 80/1/18
f 82/16/21 68/10/22 83/17/23
f 67/12/24 83/17/23 68/10/22
f 84/18/25 71/4/26 85/19/27
f 69/8/28 85/19/27 71/4/26
f 54/1/7 86/1/29 56/1/9
f 66/1/30 56/1/9 86/1/29
f 76/1/13 78/1/14 75/1/17
f 80/1/18 75/1/17 78/1/14
f 72/1/19 81/1/20 70/1/16
f 79/1/15 70/1/16 81/1/20
f 84/18/25 87/14/31 71/4/26
f 73/3/32 71/4/26 87/14/31
f 59/1/33 60/1/34 88/1/35
f 89/1/36 88/1/35 60/1/34
f 57/1/37 58/1/38 90/1/39
f 91/1/40 90/1/39 58/1/38
f 86/1/29 92/1/41 66/1/30
f 64/1/42 66/1/30 92/1/41
f 93/1/43 89/1/36 62/1/44
f 60/1/34 62/1/44 89/1/36
f 94/18/45 61/4/46 49/14/2
f 50/3/3 49/14/2 61/4/46
f 58/1/38 59/1/33 91/1/40
f 88/1/35 91/1/40 59/1/33
f 51/15/4 52/2/5 90/1/39
f 57/1/37 90/1/39 52/2/5
f 87/14/31 77/15/12 73/3/32
f 74/2/11 73/3/32 77/15/12
f 95/16/47 65/10/48 96/19/49
f 63/8/50 96/19/49 65/10/48
f 83/17/23 67/12/24 95/16/47
f 65/10/48 95/16/47 67/12/24
f 92/1/41 93/1/43 64/1/42
f 62/1/44 64/1/42 93/1/43
f 96/19/49 63/8/50 94/18/45
f 61/4/46 94/18/45 63/8/50
f 97/17/51 83/17/23 98/16/52
f 95/16/47 98/16/52 83/17/23
f 47/1/53 45/1/54 99/1/55
f 100/1/56 99/1/55 45/1/54
f 101/1/57 102/1/58 92/1/41
f 93/1/43 92/1/41 102/1/58
f 98/16/52 95/16/47 103/19/59
f 96/19/49 103/19/59 95/16/47
f 28/1/60 25/1/61 104/1/62
f 101/1/57 104/1/62 25/1/61
f 35/1/63 28/1/60 105/1/64
f 104/1/62 105/1/64 28/1/60
f 48/1/65 47/1/53 106/1/66
f 99/1/55 106/1/66 47/1/53
f 78/1/14 106/1/66 80/1/18
f 99/1/55 80/1/18 106/1/66
f 87/14/31 107/14/67 77/15/12
f 108/15/68 77/15/12 107/14/67
f 25/1/61 16/1/69 101/1/57
f 102/1/58 101/1/57 16/1/69
f 85/19/27 69/8/28 82/16/21
f 68/10/22 82/16/21 69/8/28
f 45/1/54 42/1/70 100/1/56
f 109/1/71 100/1/56 42/1/70
f 37/1/72 35/1/63 110/1/73
f 105/1/64 110/1/73 35/1/63
f 77/15/12 108/15/68 78/1/14
f 106/1/66 78/1/14 108/15/68
f 103/19/59 96/19/49 111/18/74
f 94/18/45 111/18/74 96/19/49
f 3/2/75 112/15/76 1/1/77
f 113/1/78 1/1/77 112/15/76
f 107/14/67 44/3/79 108/15/68
f 46/2/80 108/15/68 44/3/79
f 112/15/76 51/15/4 113/1/78
f 90/1/39 113/1/78 51/15/4
f 84/18/25 114/18/81 87/14/31
f 107/14/67 87/14/31 114/18/81
f 23/10/82 115/16/83 20/12/84
f 97/17/51 20/12/84 115/16/83
f 116/14/85 112/15/76 4/3/86
f 3/2/75 4/3/86 112/15/76
f 20/12/84 97/17/51 18/10/87
f 98/16/52 18/10/87 97/17/51
f 117/19/88 85/19/27 115/16/83
f 82/16/21 115/16/83 85/19/27
f 102/1/58 118/1/89 93/1/43
f 89/1/36 93/1/43 118/1/89
f 111/18/74 116/14/85 7/4/90
f 4/3/86 7/4/90 116/14/85
f 105/1/64 104/1/62 54/1/7
f 86/1/29 54/1/7 104/1/62
f 119/1/91 91/1/40 120/1/92
f 88/1/35 120/1/92 91/1/40
f 110/1/73 105/1/64 53/1/6
f 54/1/7 53/1/6 105/1/64
f 109/1/71 110/1/73 79/1/15
f 53/1/6 79/1/15 110/1/73
f 1/1/77 113/1/78 2/1/93
f 119/1/91 2/1/93 113/1/78
f 80/1/18 99/1/55 81/1/20
f 100/1/56 81/1/20 99/1/55
f 115/16/83 82/16/21 97/17/51
f 83/17/23 97/17/51 82/16/21
f 104/1/62 101/1/57 86/1/29
f 92/1/41 86/1/29 101/1/57
f 111/18/74 94/18/45 116/14/85
f 49/14/2 116/14/85 94/18/45
f 81/1/20 100/1/56 79/1/15
f 109/1/71 79/1/15 100/1/56
f 30/8/94 117/19/88 23/10/82
f 115/16/83 23/10/82 117/19/88
f 116/14/85 49/14/2 112/15/76
f 51/15/4 112/15/76 49/14/2
f 2/1/93 119/1/91 5/1/95
f 120/1/92 5/1/95 119/1/91
f 15/8/96 103/19/59 7/4/90
f 111/18/74 7/4/90 103/19/59
f 18/10/87 98/16/52 15/8/96
f 103/19/59 15/8/96 98/16/52
f 16/1/69 8/1/97 102/1/58
f 118/1/89 102/1/58 8/1/97
f 42/1/70 37/1/72 109/1/71
f 110/1/73 109/1/71 37/1/72
f 41/4/98 114/18/81 30/8/94
f 117/19/88 30/8/94 114/18/81
f 113/1/78 90/1/39 119/1/91
f 91/1/40 119/1/91 90/1/39
f 120/1/92 88/1/35 118/1/89
f 89/1/36 118/1/89 88/1/35
f 114/18/81 41/4/98 107/14/67
f 44/3/79 107/14/67 41/4/98
f 5/1/95 120/1/92 8/1/97
f 118/1/89 8/1/97 120/1/92
f 108/15/68 46/2/80 106/1/66
f 48/1/65 106/1/66 46/2/80
f 114/18/81 84/18/25 117/19/88
f 85/19/27 117/19/88 84/18/25
f 121/20/99 122/21/99 123/22/99
f 123/22/99 122/21/99 124/23/99
f 122/21/99 125/24/99 124/23/99
f 124/23/99 125/24/99 126/25/99
f 125/24/99 127/26/99 126/25/99
f 127/26/99 128/20/99 126/25/99
f 128/20/99 129/27/99 126/25/99
f 128/20/99 127/26/99 130/28/99
f 129/27/99 131/29/99 126/25/99
f 130/28/99 127/26/99 132/30/99
f 126/25/99 131/29/99 133/31/99
f 127/26/99 134/32/99 132/30/99
f 131/29/99 135/33/99 133/31/99
f 135/33/99 136/34/99 133/31/99
f 133/31/99 136/34/99 137/35/99
f 132/30/99 134/32/99 138/36/99
f 138/36/99 134/32/99 139/37/99
f 134/32/99 140/38/99 139/37/99
f 136/34/99 141/39/99 137/35/99
f 137/35/99 141/39/99 142/40/99
f 141/39/99 143/41/99 142/40/99
f 143/41/99 144/39/99 142/40/99
f 142/40/99 144/39/99 145/35/99
f 139/37/99 140/38/99 146/42/99
f 146/42/99 140/38/99 147/43/99
f 140/38/99 148/44/99 147/43/99
f 144/39/99 149/34/99 145/35/99
f 149/34/99 150/33/99 145/35/99
f 145/35/99 150/33/99 151/31/99
f 147/43/99 148/44/99 152/42/99
f 148/44/99 153/38/99 152/42/99
f 152/42/99 153/38/99 154/37/99
f 154/37/99 153/38/99 155/36/99
f 153/38/99 156/32/99 155/36/99
f 150/33/99 157/29/99 151/31/99
f 157/29/99 158/27/99 151/31/99
f 151/31/99 158/27/99 159/25/99
f 155/36/99 156/32/99 160/30/99
f 160/30/99 156/32/99 161/28/99
f 156/32/99 162/26/99 161/28/99
f 158/27/99 163/20/99 159/25/99
f 163/20/99 161/28/99 162/26/99
f 163/20/99 162/26/99 159/25/99
f 159/25/99 162/26/99 164/23/99
f 162/26/99 165/24/99 164/23/99
f 164/23/99 165/24/99 166/22/99
f 165/24/99 167/21/99 166/22/99
f 168/20/99 166/22/99 167/21/99
f 169/45/100 170/46/101 171/47/100
f 172/48/101 171/47/100 170/46/101
f 173/49/102 174/50/103 175/49/102
f 176/51/103 175/49/102 174/50/103
f 177/52/104 178/53/104 179/54/105
f 180/55/105 179/54/105 178/53/104
f 181/56/106 169/45/100 182/57/106
f 171/47/100 182/57/106 169/45/100
f 183/52/107 184/54/108 185/53/107
f 186/55/108 185/53/107 184/54/108
f 187/58/109 188/59/110 189/60/109
f 190/61/110 189/60/109 188/59/110
f 191/56/111 187/58/109 192/57/111
f 189/60/109 192/57/111 187/58/109
f 188/59/110 193/62/112 190/61/110
f 194/63/112 190/61/110 193/62/112
f 195/49/1 196/50/1 172/48/1
f 172/48/1 196/50/1 171/47/1
f 196/50/1 177/52/1 171/47/1
f 171/47/1 177/52/1 182/57/1
f 177/52/1 179/54/1 182/57/1
f 182/57/1 179/54/1 197/60/1
f 179/54/1 198/64/1 197/60/1
f 197/60/1 198/64/1 199/61/1
f 198/64/1 200/65/1 199/61/1
f 199/61/1 200/65/1 194/63/1
f 200/65/1 201/66/1 194/63/1
f 194/63/1 201/66/1 190/61/1
f 201/66/1 202/65/1 190/61/1
f 190/61/1 202/65/1 189/60/1
f 202/65/1 203/64/1 189/60/1
f 189/60/1 203/64/1 192/57/1
f 203/64/1 184/54/1 192/57/1
f 192/57/1 184/54/1 204/47/1
f 184/54/1 183/52/1 204/47/1
f 204/47/1 183/52/1 205/48/1
f 183/52/1 174/50/1 205/48/1
f 173/49/1 205/48/1 174/50/1
f 196/50/113 206/51/113 177/52/104
f 178/53/104 177/52/104 206/51/113
f 191/56/111 192/57/111 207/45/114
f 204/47/114 207/45/114 192/57/111
f 208/59/115 209/58/116 199/61/115
f 197/60/116 199/61/115 209/58/116
f 210/67/117 203/64/117 211/68/118
f 202/65/118 211/68/118 203/64/117
f 209/58/116 181/56/106 197/60/116
f 182/57/106 197/60/116 181/56/106
f 174/50/103 183/52/107 176/51/103
f 185/53/107 176/51/103 183/52/107
f 212/40/119 211/68/118 201/66/119
f 202/65/118 201/66/119 211/68/118
f 213/46/120 205/48/120 175/49/102
f 173/49/102 175/49/102 205/48/120
f 180/55/105 214/67/121 179/54/105
f 198/64/121 179/54/105 214/67/121
f 170/46/101 215/49/122 172/48/101
f 195/49/122 172/48/101 215/49/122
f 207/45/114 204/47/114 213/46/120
f 205/48/120 213/46/120 204/47/114
f 212/40/119 201/66/119 216/68/123
f 200/65/123 216/68/123 201/66/119
f 195/49/122 215/49/122 196/50/113
f 206/51/113 196/50/113 215/49/122
f 210/67/117 186/55/108 203/64/117
f 184/54/108 203/64/117 186/55/108
f 214/67/121 216/68/123 198/64/121
f 200/65/123 198/64/121 216/68/123
f 193/62/112 208/59/115 194/63/112
f 199/61/115 194/63/112 208/59/115
