# Generated by GTAClone/tools/split_car_wheels.py from van.obj
# Kenney Car Kit (CC0 1.0); the split is a derivative work, also CC0.
mtllib colormap.mtl
v -0.650000 0.400939 -1.136711
v -0.516667 0.400000 -1.136835
v -0.650000 0.400000 -1.136835
v -0.516980 0.400939 -1.136711
v -0.650000 0.200000 -1.060000
v -0.650000 0.400000 -1.250000
v -0.650000 0.200000 -1.250000
v -0.650000 0.495000 -1.097750
v -0.650000 0.300000 -1.060000
v -0.650000 0.575772 -1.035772
v -0.650000 0.377646 -1.049778
v -0.650000 0.450000 -1.019808
v -0.650000 0.637750 -0.955000
v -0.650000 0.512132 -0.972132
v -0.650000 0.559808 -0.910000
v -0.650000 0.676711 -0.860939
v -0.650000 0.589778 -0.837646
v -0.650000 0.690000 -0.760000
v -0.650000 0.600000 -0.760000
v -0.650000 0.589778 -0.682354
v -0.650000 0.676711 -0.659061
v -0.650000 0.559808 -0.610000
v -0.650000 0.637750 -0.565000
v -0.650000 0.512132 -0.547868
v -0.650000 0.575772 -0.484228
v -0.650000 0.450000 -0.500192
v -0.650000 0.377646 -0.470222
v -0.650000 0.495000 -0.422250
v -0.650000 0.300000 -0.460000
v -0.650000 0.200000 -0.460000
v -0.650000 0.300000 -0.370000
v -0.650000 0.400939 -0.383289
v -0.650000 0.200000 0.460000
v -0.650000 0.300000 0.370000
v -0.650000 0.400939 0.383289
v -0.650000 0.495000 0.422250
v -0.650000 0.300000 0.460000
v -0.650000 0.575772 0.484228
v -0.650000 0.377646 0.470222
v -0.650000 0.450000 0.500192
v -0.650000 0.637750 0.565000
v -0.650000 0.512132 0.547868
v -0.650000 0.559808 0.610000
v -0.650000 0.676711 0.659061
v -0.650000 0.589778 0.682354
v -0.650000 0.690000 0.760000
v -0.650000 0.600000 0.760000
v -0.650000 0.589778 0.837646
v -0.650000 0.676711 0.860939
v -0.650000 0.559808 0.910000
v -0.650000 0.637750 0.955000
v -0.650000 0.512132 0.972132
v -0.650000 0.575772 1.035772
v -0.650000 0.450000 1.019808
v -0.650000 0.377646 1.049778
v -0.650000 0.495000 1.097750
v -0.650000 0.300000 1.060000
v -0.650000 0.200000 1.060000
v -0.650000 0.200000 1.200000
v -0.650000 0.400000 1.136835
v -0.650000 0.400939 1.136711
v -0.650000 0.400000 1.200000
v -0.550000 0.400000 -1.350000
v 0.550000 0.200000 -1.350000
v -0.550000 0.200000 -1.350000
v 0.550000 0.400000 -1.350000
v 0.650000 0.400000 1.136835
v 0.650000 0.495000 1.097750
v 0.650000 0.400939 1.136711
v 0.650000 0.200000 1.200000
v 0.650000 0.400000 1.200000
v 0.650000 0.200000 1.060000
v 0.650000 0.300000 1.060000
v 0.650000 0.377646 1.049778
v 0.650000 0.575772 1.035772
v 0.650000 0.450000 1.019808
v 0.650000 0.512132 0.972132
v 0.650000 0.637750 0.955000
v 0.650000 0.559808 0.910000
v 0.650000 0.676711 0.860939
v 0.650000 0.589778 0.837646
v 0.650000 0.600000 0.760000
v 0.650000 0.690000 0.760000
v 0.650000 0.589778 0.682354
v 0.650000 0.676711 0.659061
v 0.650000 0.559808 0.610000
v 0.650000 0.637750 0.565000
v 0.650000 0.512132 0.547868
v 0.650000 0.450000 0.500192
v 0.650000 0.575772 0.484228
v 0.650000 0.377646 0.470222
v 0.650000 0.300000 0.460000
v 0.650000 0.495000 0.422250
v 0.650000 0.200000 0.460000
v 0.650000 0.400939 0.383289
v 0.650000 0.300000 0.370000
v 0.650000 0.300000 -0.370000
v 0.650000 0.200000 -0.460000
v 0.650000 0.495000 -0.422250
v 0.650000 0.400939 -0.383289
v 0.650000 0.300000 -0.460000
v 0.650000 0.377646 -0.470222
v 0.650000 0.575772 -0.484228
v 0.650000 0.450000 -0.500192
v 0.650000 0.512132 -0.547868
v 0.650000 0.637750 -0.565000
v 0.650000 0.559808 -0.610000
v 0.650000 0.676711 -0.659061
v 0.650000 0.589778 -0.682354
v 0.650000 0.600000 -0.760000
v 0.650000 0.690000 -0.760000
v 0.650000 0.589778 -0.837646
v 0.650000 0.676711 -0.860939
v 0.650000 0.559808 -0.910000
v 0.650000 0.637750 -0.955000
v 0.650000 0.512132 -0.972132
v 0.650000 0.450000 -1.019808
v 0.650000 0.575772 -1.035772
v 0.650000 0.377646 -1.049778
v 0.650000 0.300000 -1.060000
v 0.650000 0.495000 -1.097750
v 0.650000 0.200000 -1.060000
v 0.650000 0.400939 -1.136711
v 0.650000 0.400000 -1.136835
v 0.650000 0.200000 -1.250000
v 0.650000 0.400000 -1.250000
v 0.550000 0.500000 1.250000
v 0.548333 0.495000 1.097750
v 0.550000 0.500000 1.093913
v 0.516980 0.400939 1.136711
v 0.516667 0.400000 1.136835
v 0.516667 0.400000 1.216667
v 0.550000 0.500000 -1.150000
v 0.516667 0.400000 -1.283333
v 0.550000 0.500000 -1.350000
v 0.516667 0.400000 -1.136835
v 0.516980 0.400939 -1.136711
v 0.548333 0.495000 -1.097750
v 0.550000 0.500000 -1.093913
v -0.550000 0.575772 1.035772
v -0.550000 0.637750 0.955000
v -0.550000 0.637750 -0.565000
v -0.550000 0.676711 -0.659061
v 0.550000 0.637750 0.565000
v 0.550000 0.676711 0.659061
v 0.550000 0.676711 -0.659061
v 0.550000 0.637750 -0.565000
v 0.550000 0.575772 -1.035772
v 0.550000 0.637750 -0.955000
v 0.516980 0.400939 0.383289
v 0.548333 0.495000 0.422250
v 0.550000 0.500000 -0.426087
v 0.548333 0.495000 -0.422250
v 0.550000 0.575772 -0.484228
v -0.550000 0.575772 -0.484228
v 0.550000 0.575772 0.484228
v 0.550000 0.690000 0.760000
v 0.550000 0.676711 0.860939
v 0.550000 0.637750 0.955000
v 0.550000 0.575772 1.035772
v -0.550000 0.690000 -0.760000
v 0.550000 0.690000 -0.760000
v -0.516980 0.400939 0.383289
v -0.548333 0.495000 0.422250
v 0.550000 0.676711 -0.860939
v -0.516667 0.400000 -1.283333
v -0.550000 0.500000 -1.250000
v -0.550000 0.500000 -1.350000
v -0.548333 0.495000 -1.097750
v -0.550000 0.500000 -1.093913
v -0.548333 0.495000 -0.422250
v -0.516980 0.400939 -0.383289
v -0.550000 0.500000 0.426087
v -0.550000 0.500000 -0.426087
v -0.483333 0.300000 -0.370000
v -0.483333 0.300000 0.370000
v 0.550000 0.500000 0.426087
v 0.516980 0.400939 -0.383289
v 0.483333 0.300000 -0.370000
v 0.483333 0.300000 0.370000
v -0.516980 0.400939 1.136711
v -0.548333 0.495000 1.097750
v -0.550000 0.637750 0.565000
v -0.550000 0.575772 0.484228
v -0.550000 0.676711 -0.860939
v -0.550000 0.575772 -1.035772
v -0.550000 0.690000 0.760000
v -0.550000 0.676711 0.659061
v -0.550000 0.676711 0.860939
v -0.550000 0.500000 1.093913
v -0.550000 0.637750 -0.955000
v 0.550000 0.400000 1.300000
v -0.550000 0.200000 1.300000
v 0.550000 0.200000 1.300000
v -0.550000 0.400000 1.300000
v 0.400000 0.200000 1.060000
v 0.620711 0.200000 1.270711
v 0.400000 0.200000 0.460000
v -0.400000 0.200000 1.060000
v -0.620711 0.200000 1.270711
v 0.400000 0.200000 -0.460000
v 0.400000 0.200000 -1.060000
v -0.400000 0.200000 -1.060000
v -0.400000 0.200000 0.460000
v -0.400000 0.200000 -0.460000
v -0.620711 0.200000 -1.320711
v 0.620711 0.200000 -1.320711
v -0.516667 0.400000 1.136835
v -0.550000 0.500000 1.250000
v -0.516667 0.400000 1.216667
v -0.620711 0.400000 -1.320711
v 0.620711 0.400000 -1.320711
v 0.620711 0.400000 1.270711
v -0.620711 0.400000 1.270711
v 0.213125 0.400000 1.216667
v 0.213125 0.500000 1.250000
v -0.213125 0.500000 1.250000
v -0.213125 0.400000 1.216667
v -0.213125 0.400000 1.250000
v 0.213125 0.400000 1.250000
v 0.125000 0.150000 1.300000
v 0.175000 0.200000 1.350000
v 0.125000 0.150000 1.350000
v 0.175000 0.200000 1.300000
v -0.125000 0.150000 1.300000
v -0.125000 0.150000 1.350000
v -0.175000 0.200000 1.300000
v -0.175000 0.200000 1.350000
v 0.175000 0.275000 1.350000
v 0.125000 0.325000 1.300000
v 0.125000 0.325000 1.350000
v 0.175000 0.275000 1.300000
v -0.175000 0.275000 1.300000
v -0.125000 0.325000 1.300000
v -0.125000 0.325000 1.350000
v -0.175000 0.275000 1.350000
v -0.125000 0.150000 -1.350000
v -0.175000 0.200000 -1.400000
v -0.125000 0.150000 -1.400000
v -0.175000 0.200000 -1.350000
v 0.125000 0.150000 -1.350000
v 0.125000 0.150000 -1.400000
v 0.175000 0.200000 -1.350000
v 0.175000 0.200000 -1.400000
v -0.175000 0.275000 -1.400000
v -0.125000 0.325000 -1.350000
v -0.125000 0.325000 -1.400000
v -0.175000 0.275000 -1.350000
v 0.175000 0.275000 -1.350000
v 0.125000 0.325000 -1.350000
v 0.125000 0.325000 -1.400000
v 0.175000 0.275000 -1.400000
v -0.213125 0.500000 1.250000
v -0.213125 0.400000 1.216667
v -0.213125 0.400000 1.250000
v 0.213125 0.400000 1.250000
v 0.213125 0.400000 1.216667
v 0.213125 0.500000 1.250000
v 0.213125 0.600000 1.250000
v -0.213125 0.600000 1.250000
v 0.400000 0.450000 -0.500192
v 0.400000 0.512132 -0.547868
v 0.400000 0.559808 -0.610000
v 0.400000 0.589778 -0.682354
v 0.400000 0.377646 -1.049778
v 0.400000 0.450000 -1.019808
v 0.400000 0.559808 0.910000
v 0.400000 0.589778 0.837646
v 0.400000 0.450000 1.019808
v 0.400000 0.512132 0.972132
v -0.400000 0.300000 -0.460000
v 0.400000 0.600000 -0.760000
v 0.400000 0.589778 -0.837646
v 0.400000 0.300000 0.460000
v 0.400000 0.300000 -1.060000
v 0.400000 0.559808 0.610000
v 0.400000 0.512132 0.547868
v 0.400000 0.559808 -0.910000
v 0.400000 0.512132 -0.972132
v 0.400000 0.600000 0.760000
v 0.400000 0.589778 0.682354
v 0.400000 0.377646 0.470222
v 0.400000 0.377646 -0.470222
v 0.400000 0.300000 -0.460000
v 0.400000 0.450000 0.500192
v 0.400000 0.300000 1.060000
v 0.400000 0.377646 1.049778
v -0.400000 0.300000 1.060000
v -0.400000 0.377646 1.049778
v -0.400000 0.300000 0.460000
v -0.400000 0.589778 0.682354
v -0.400000 0.600000 0.760000
v -0.400000 0.559808 0.610000
v -0.400000 0.450000 1.019808
v -0.400000 0.512132 0.972132
v -0.400000 0.377646 0.470222
v -0.400000 0.512132 0.547868
v -0.400000 0.450000 0.500192
v -0.400000 0.559808 0.910000
v -0.400000 0.589778 0.837646
v -0.400000 0.300000 -1.060000
v -0.400000 0.377646 -1.049778
v -0.400000 0.450000 -1.019808
v -0.400000 0.512132 -0.972132
v -0.400000 0.559808 -0.910000
v -0.400000 0.589778 -0.837646
v -0.400000 0.600000 -0.760000
v -0.400000 0.589778 -0.682354
v -0.400000 0.559808 -0.610000
v -0.400000 0.512132 -0.547868
v -0.400000 0.450000 -0.500192
v -0.400000 0.377646 -0.470222
v 0.450000 1.300000 0.650000
v 0.448290 0.800000 0.850000
v 0.550000 0.800000 0.850000
v 0.366860 1.207152 0.687139
v -0.366860 1.207152 0.687139
v -0.450000 1.300000 0.650000
v -0.550000 0.800000 0.850000
v -0.448290 0.800000 0.850000
v -0.750000 0.700000 0.622902
v -0.550000 0.700000 0.522902
v -0.550000 0.700000 0.622902
v -0.750000 0.700000 0.522902
v -0.550000 0.800000 0.196921
v -0.450000 1.300000 -1.150000
v -0.550000 0.800000 -1.350000
v -0.469612 1.201942 0.196921
v -0.469612 1.201942 0.581806
v -0.550000 0.800000 0.742583
v -0.550000 0.800000 0.622902
v -0.750000 0.900000 0.622902
v -0.530000 0.900000 0.622902
v -0.750000 0.900000 0.522902
v 0.750000 0.900000 0.622902
v 0.750000 0.700000 0.522902
v 0.750000 0.900000 0.522902
v 0.750000 0.700000 0.622902
v 0.550000 0.700000 0.622902
v 0.550000 0.800000 0.622902
v 0.530000 0.900000 0.622902
v 0.550000 0.700000 0.522902
v 0.530000 0.900000 0.522902
v -0.530000 0.900000 0.522902
v 0.550000 0.800000 0.742583
v 0.469612 1.201942 0.581806
v 0.469612 1.201942 0.196921
v 0.450000 1.300000 -1.150000
v 0.550000 0.800000 0.196921
v 0.550000 0.800000 -1.350000
v -0.275000 0.700000 -1.350000
v -0.550000 0.700000 -1.350000
v 0.275000 0.700000 -1.350000
v 0.550000 0.700000 -1.350000
v 0.275000 0.600000 -1.350000
v -0.275000 0.600000 -1.350000
v 0.550000 0.600000 -1.350000
v -0.550000 0.600000 -1.350000
v -0.550000 0.600000 1.150000
v -0.550000 0.600000 1.250000
v -0.550000 0.725000 1.150000
v -0.550000 0.800000 0.522902
v -0.213125 0.600000 1.250000
v -0.343750 0.600000 1.250000
v 0.343750 0.648461 1.250000
v -0.343750 0.648461 1.250000
v 0.213125 0.600000 1.250000
v 0.343750 0.600000 1.250000
v 0.550000 0.600000 1.250000
v 0.550000 0.800000 0.522902
v 0.550000 0.725000 1.150000
v 0.550000 0.600000 1.150000
v 0.550000 0.712500 1.200000
v 0.343750 0.712500 1.200000
v -0.343750 0.712500 1.200000
v -0.550000 0.712500 1.200000
v 0.299730 1.300000 -0.999730
v 0.299730 1.300000 0.499730
v -0.299730 1.300000 -0.999730
v -0.299730 1.300000 0.499730
v -0.429721 0.892848 -1.312861
v 0.429721 0.892848 -1.312861
v -0.366860 1.207152 -1.187139
v 0.366860 1.207152 -1.187139
v -0.299730 1.300000 0.499730
v -0.299730 1.350000 -0.962243
v -0.299730 1.300000 -0.999730
v -0.299730 1.350000 0.462243
v 0.299730 1.350000 0.462243
v 0.299730 1.350000 -0.962243
v 0.299730 1.300000 0.499730
v 0.299730 1.300000 -0.999730
v -0.530000 0.900000 0.622902
v -0.550000 0.800000 0.622902
v -0.469612 1.201942 0.581806
v -0.530000 0.900000 0.522902
v 0.429721 0.892848 -1.312861
v -0.429721 0.892848 -1.312861
v 0.469612 1.201942 0.581806
v 0.530000 0.900000 0.522902
v 0.530000 0.900000 0.622902
v 0.550000 0.800000 0.622902
v -0.550000 0.600000 1.250000
v -0.550000 0.725000 1.150000
v -0.550000 0.600000 1.150000
v -0.550000 0.712500 1.200000
v -0.550000 0.648461 1.250000
v 0.550000 0.648461 1.250000
v 0.343750 0.600000 1.250000
v 0.550000 0.600000 1.250000
v 0.343750 0.648461 1.250000
v -0.343750 0.648461 1.250000
v -0.343750 0.600000 1.250000
v 0.550000 0.712500 1.200000
v 0.550000 0.600000 1.150000
v 0.550000 0.725000 1.150000
v 0.343750 0.712500 1.200000
v -0.343750 0.712500 1.200000
v 0.275000 0.700000 -1.350000
v 0.550000 0.600000 -1.350000
v 0.275000 0.600000 -1.350000
v 0.550000 0.700000 -1.350000
v -0.550000 0.700000 -1.350000
v -0.275000 0.600000 -1.350000
v -0.550000 0.600000 -1.350000
v -0.275000 0.700000 -1.350000
vt 0.468750 0.311534
vt 0.468750 0.311364
vt 0.468750 0.275000
vt 0.468750 0.328636
vt 0.468750 0.293182
vt 0.468750 0.343322
vt 0.468750 0.307299
vt 0.468750 0.320454
vt 0.468750 0.354591
vt 0.468750 0.331751
vt 0.468750 0.340420
vt 0.468750 0.361675
vt 0.468750 0.345869
vt 0.468750 0.364091
vt 0.468750 0.347727
vt 0.468750 0.329545
vt 0.468750 0.332143
vt 0.468750 0.417857
vt 0.468750 0.475000
vt 0.468750 0.435000
vt 0.468750 0.395000
vt 0.343750 0.320454
vt 0.343750 0.331751
vt 0.343750 0.340420
vt 0.343750 0.345869
vt 0.343750 0.307299
vt 0.343750 0.293182
vt 0.343750 0.275000
vt 0.343750 0.347727
vt 0.968750 0.725000
vt 0.968750 0.634091
vt 0.968750 0.708119
vt 0.968750 0.615909
vt 0.968750 0.707171
vt 0.968750 0.652273
vt 0.968750 0.597727
vt 0.968750 0.579545
vt 0.968750 0.620455
vt 0.968750 0.593322
vt 0.968750 0.604591
vt 0.968750 0.611675
vt 0.968750 0.614091
vt 0.968750 0.606538
vt 0.968750 0.618182
vt 0.968750 0.650972
vt 0.968750 0.525000
vt 0.843750 0.402273
vt 0.843750 0.365909
vt 0.843750 0.384091
vt 0.843750 0.332143
vt 0.843750 0.275000
vt 0.843750 0.417857
vt 0.843750 0.475000
vt 0.093750 0.025000
vt 0.093750 0.074122
vt 0.093750 0.222441
vt 0.093750 0.225000
vt 0.093750 0.070608
vt 0.218750 0.025000
vt 0.218750 0.225000
vt 0.218750 0.205000
vt 0.218750 0.102538
vt 0.343750 0.225000
vt 0.343750 0.025000
vn 0.000000 0.258819 -0.965926
vn 0.000000 0.813241 -0.581927
vn 0.000000 0.751840 -0.659346
vn 0.000000 0.233891 -0.972263
vn -1.000000 0.000000 0.000000
vn -0.195090 0.000000 -0.980785
vn 0.195090 0.000000 -0.980785
vn 1.000000 0.000000 0.000000
vn 0.948683 -0.316228 0.000000
vn 0.000000 0.866025 0.500000
vn 0.000000 0.707107 0.707107
vn 0.000000 0.965926 0.258819
vn 0.000000 0.866025 -0.500000
vn 0.000000 0.965926 -0.258819
vn 0.000000 0.707107 -0.707107
vn 0.000000 0.500000 -0.866025
vn 0.000000 0.479903 -0.877321
vn 0.000000 0.500000 0.866025
vn 0.000000 0.608761 0.793353
vn 0.000000 0.479903 0.877321
vn 0.000000 1.000000 0.000000
vn -0.948683 -0.316228 0.000000
vn 0.000000 0.258819 0.965926
vn 0.000000 0.233891 0.972263
vn 0.000000 0.130526 -0.991445
vn 0.000000 0.608761 -0.793353
vn 0.000000 0.130526 0.991445
vn 0.195090 0.000000 0.980785
vn -0.195090 0.000000 0.980785
vn 0.000000 -1.000000 0.000000
vn 0.000000 0.751840 0.659346
vn 0.000000 0.813241 0.581927
vn 0.000000 -0.554700 -0.832050
vn 0.707107 0.000000 0.707107
vn 0.923879 0.000000 0.382683
vn -0.707107 0.000000 0.707107
vn -0.923879 0.000000 0.382683
vn -0.707107 0.000000 -0.707107
vn -0.923879 0.000000 -0.382683
vn 0.923879 0.000000 -0.382683
vn 0.707107 0.000000 -0.707107
vn 0.000000 -0.316228 0.948683
vn 0.382683 -0.923879 0.000000
vn 0.923879 -0.382683 0.000000
vn -0.382683 -0.923879 -0.000000
vn -0.923879 -0.382683 -0.000000
vn 0.923879 0.382683 0.000000
vn 0.382683 0.923879 0.000000
vn 0.000000 0.000000 -1.000000
vn -0.382683 0.923879 -0.000000
vn -0.923879 0.382683 -0.000000
vn -0.382683 -0.923879 0.000000
vn -0.923879 -0.382683 0.000000
vn 0.382683 -0.923879 0.000000
vn 0.923879 -0.382683 0.000000
vn -0.923879 0.382683 0.000000
vn -0.382683 0.923879 0.000000
vn 0.000000 0.000000 1.000000
vn 0.382683 0.923879 0.000000
vn 0.923879 0.382683 0.000000
vn -0.101883 0.000000 0.994796
vn 0.101883 0.000000 0.994796
vn 0.000000 -0.500000 -0.866025
vn 0.000000 -0.707107 -0.707107
vn 0.000000 -0.866025 -0.500000
vn 0.000000 -0.965926 -0.258819
vn 0.000000 -0.500000 0.866025
vn 0.000000 -0.258819 0.965926
vn 0.000000 -0.065403 -0.997859
vn 0.000000 0.000000 -1.000000
vn 0.000000 -0.965926 0.258819
vn 0.000000 -0.065403 0.997859
vn 0.000000 -0.866025 0.500000
vn 0.000000 -0.707107 0.707107
vn 0.000000 -0.258819 -0.965926
vn 0.000000 0.371391 0.928477
vn -0.980581 0.196116 0.000000
vn 0.980581 0.196116 0.000000
vn 0.000000 0.325419 0.945570
vn 0.000000 0.970143 0.242536
vn 0.000000 0.895067 0.445932
vn 0.000000 0.371391 -0.928477
vn 0.000000 0.894389 -0.447291
vn 0.000000 0.894389 0.447291
vn 0.000000 0.599862 0.800104
vn 0.000000 0.599862 -0.800104
vn -0.000000 0.000000 1.000000
vn -0.844671 0.329422 0.421916
vn -0.640671 0.249862 0.726024
vn 0.640671 0.249862 0.726024
vn 0.844671 0.329422 0.421916
vn 0.000000 0.615412 0.788205
usemtl colormap
f 1/1/1 2/2/2 3/2/3
f 2/2/2 1/1/1 4/1/4
f 5/3/5 6/2/5 7/3/5
f 6/2/5 5/3/5 3/2/5
f 3/2/5 5/3/5 1/1/5
f 1/1/5 5/3/5 8/4/5
f 8/4/5 5/3/5 9/5/5
f 8/4/5 9/5/5 10/6/5
f 10/6/5 9/5/5 11/7/5
f 10/6/5 11/7/5 12/8/5
f 10/6/5 12/8/5 13/9/5
f 13/9/5 12/8/5 14/10/5
f 13/9/5 14/10/5 15/11/5
f 13/9/5 15/11/5 16/12/5
f 16/12/5 15/11/5 17/13/5
f 16/12/5 17/13/5 18/14/5
f 18/14/5 17/13/5 19/15/5
f 18/14/5 19/15/5 20/13/5
f 18/14/5 20/13/5 21/12/5
f 21/12/5 20/13/5 22/11/5
f 21/12/5 22/11/5 23/9/5
f 23/9/5 22/11/5 24/10/5
f 23/9/5 24/10/5 25/6/5
f 25/6/5 24/10/5 26/8/5
f 25/6/5 26/8/5 27/7/5
f 25/6/5 27/7/5 28/4/5
f 28/4/5 27/7/5 29/5/5
f 28/4/5 29/5/5 30/3/5
f 28/4/5 30/3/5 31/5/5
f 28/4/5 31/5/5 32/1/5
f 31/5/5 30/3/5 33/3/5
f 31/5/5 33/3/5 34/5/5
f 34/5/5 33/3/5 35/1/5
f 35/1/5 33/3/5 36/4/5
f 36/4/5 33/3/5 37/5/5
f 36/4/5 37/5/5 38/6/5
f 38/6/5 37/5/5 39/7/5
f 38/6/5 39/7/5 40/8/5
f 38/6/5 40/8/5 41/9/5
f 41/9/5 40/8/5 42/10/5
f 41/9/5 42/10/5 43/11/5
f 41/9/5 43/11/5 44/12/5
f 44/12/5 43/11/5 45/13/5
f 44/12/5 45/13/5 46/14/5
f 46/14/5 45/13/5 47/15/5
f 46/14/5 47/15/5 48/13/5
f 46/14/5 48/13/5 49/12/5
f 49/12/5 48/13/5 50/11/5
f 49/12/5 50/11/5 51/9/5
f 51/9/5 50/11/5 52/10/5
f 51/9/5 52/10/5 53/6/5
f 53/6/5 52/10/5 54/8/5
f 53/6/5 54/8/5 55/7/5
f 53/6/5 55/7/5 56/4/5
f 56/4/5 55/7/5 57/5/5
f 56/4/5 57/5/5 58/3/5
f 56/4/5 58/3/5 59/3/5
f 56/4/5 59/3/5 60/2/5
f 56/4/5 60/2/5 61/1/5
f 60/2/5 59/3/5 62/2/5
f 63/2/6 64/3/7 65/3/6
f 64/3/7 63/2/6 66/2/7
f 67/2/8 68/4/8 69/1/8
f 70/3/8 68/4/8 67/2/8
f 70/3/8 67/2/8 71/2/8
f 72/3/8 68/4/8 70/3/8
f 73/5/8 68/4/8 72/3/8
f 74/7/8 68/4/8 73/5/8
f 74/7/8 75/6/8 68/4/8
f 76/8/8 75/6/8 74/7/8
f 77/10/8 75/6/8 76/8/8
f 77/10/8 78/9/8 75/6/8
f 79/11/8 78/9/8 77/10/8
f 79/11/8 80/12/8 78/9/8
f 81/13/8 80/12/8 79/11/8
f 82/15/8 80/12/8 81/13/8
f 82/15/8 83/14/8 80/12/8
f 84/13/8 83/14/8 82/15/8
f 84/13/8 85/12/8 83/14/8
f 86/11/8 85/12/8 84/13/8
f 86/11/8 87/9/8 85/12/8
f 88/10/8 87/9/8 86/11/8
f 89/8/8 87/9/8 88/10/8
f 89/8/8 90/6/8 87/9/8
f 91/7/8 90/6/8 89/8/8
f 92/5/8 90/6/8 91/7/8
f 90/6/8 92/5/8 93/4/8
f 94/3/8 93/4/8 92/5/8
f 94/3/8 95/1/8 93/4/8
f 94/3/8 96/5/8 95/1/8
f 94/3/8 97/5/8 96/5/8
f 98/3/8 97/5/8 94/3/8
f 98/3/8 99/4/8 97/5/8
f 97/5/8 99/4/8 100/1/8
f 101/5/8 99/4/8 98/3/8
f 102/7/8 99/4/8 101/5/8
f 102/7/8 103/6/8 99/4/8
f 104/8/8 103/6/8 102/7/8
f 105/10/8 103/6/8 104/8/8
f 105/10/8 106/9/8 103/6/8
f 107/11/8 106/9/8 105/10/8
f 107/11/8 108/12/8 106/9/8
f 109/13/8 108/12/8 107/11/8
f 110/15/8 108/12/8 109/13/8
f 110/15/8 111/14/8 108/12/8
f 112/13/8 111/14/8 110/15/8
f 112/13/8 113/12/8 111/14/8
f 114/11/8 113/12/8 112/13/8
f 114/11/8 115/9/8 113/12/8
f 116/10/8 115/9/8 114/11/8
f 117/8/8 115/9/8 116/10/8
f 117/8/8 118/6/8 115/9/8
f 119/7/8 118/6/8 117/8/8
f 120/5/8 118/6/8 119/7/8
f 118/6/8 120/5/8 121/4/8
f 122/3/8 121/4/8 120/5/8
f 122/3/8 123/1/8 121/4/8
f 122/3/8 124/2/8 123/1/8
f 125/3/8 124/2/8 122/3/8
f 124/2/8 125/3/8 126/2/8
f 127/16/9 128/4/9 129/16/9
f 128/4/9 127/16/9 130/1/9
f 130/1/9 127/16/9 131/2/9
f 131/2/9 127/16/9 132/2/9
f 133/16/9 134/2/9 135/16/9
f 134/2/9 133/16/9 136/2/9
f 136/2/9 133/16/9 137/1/9
f 137/1/9 133/16/9 138/4/9
f 138/4/9 133/16/9 139/16/9
f 51/9/10 140/6/11 141/9/10
f 140/6/11 51/9/10 53/6/11
f 21/12/12 142/9/10 143/12/12
f 142/9/10 21/12/12 23/9/10
f 144/9/13 85/12/14 87/9/13
f 85/12/14 144/9/13 145/12/14
f 146/12/12 106/9/10 108/12/12
f 106/9/10 146/12/12 147/9/10
f 148/6/15 115/9/13 118/6/15
f 115/9/13 148/6/15 149/9/13
f 150/1/4 93/4/16 95/1/1
f 93/4/16 150/1/4 151/4/17
f 99/4/18 152/16/19 153/4/20
f 152/16/19 99/4/18 103/6/11
f 152/16/19 103/6/11 154/6/11
f 23/9/10 155/6/11 142/9/10
f 155/6/11 23/9/10 25/6/11
f 156/6/15 87/9/13 90/6/15
f 87/9/13 156/6/15 144/9/13
f 147/9/10 103/6/11 106/9/10
f 103/6/11 147/9/10 154/6/11
f 145/12/14 83/14/21 85/12/14
f 83/14/21 145/12/14 157/14/21
f 157/14/21 80/12/12 83/14/21
f 80/12/12 157/14/21 158/12/12
f 159/9/10 75/6/11 78/9/10
f 75/6/11 159/9/10 160/6/11
f 18/14/21 143/12/12 161/14/21
f 143/12/12 18/14/21 21/12/12
f 162/14/21 108/12/12 111/14/21
f 108/12/12 162/14/21 146/12/12
f 36/4/16 163/1/4 35/1/1
f 163/1/4 36/4/16 164/4/17
f 149/9/13 113/12/14 115/9/13
f 113/12/14 149/9/13 165/12/14
f 166/2/22 167/16/22 168/16/22
f 167/16/22 166/2/22 2/2/22
f 167/16/22 2/2/22 4/1/22
f 167/16/22 4/1/22 169/4/22
f 167/16/22 169/4/22 170/16/22
f 171/4/20 32/1/23 172/1/24
f 32/1/23 171/4/20 28/4/18
f 171/4/22 173/16/22 174/16/22
f 173/16/22 171/4/22 172/1/22
f 173/16/22 172/1/22 175/5/22
f 173/16/22 175/5/22 164/4/22
f 164/4/22 175/5/22 163/1/22
f 163/1/22 175/5/22 176/5/22
f 68/4/18 130/1/24 69/1/23
f 130/1/24 68/4/18 128/4/20
f 177/16/9 153/4/9 152/16/9
f 153/4/9 177/16/9 178/1/9
f 178/1/9 177/16/9 179/5/9
f 179/5/9 177/16/9 151/4/9
f 179/5/9 151/4/9 150/1/9
f 179/5/9 150/1/9 180/5/9
f 181/1/24 56/4/18 61/1/23
f 56/4/18 181/1/24 182/4/20
f 38/6/15 183/9/13 184/6/15
f 183/9/13 38/6/15 41/9/13
f 16/12/14 161/14/21 185/12/14
f 161/14/21 16/12/14 18/14/21
f 8/4/16 4/1/4 1/1/1
f 4/1/4 8/4/16 169/4/17
f 35/1/1 176/5/25 34/5/25
f 176/5/25 35/1/1 163/1/4
f 100/1/23 153/4/20 178/1/24
f 153/4/20 100/1/23 99/4/18
f 10/6/15 169/4/17 8/4/16
f 169/4/17 10/6/15 170/16/26
f 170/16/26 10/6/15 186/6/15
f 97/5/27 178/1/24 179/5/27
f 178/1/24 97/5/27 100/1/23
f 44/12/14 187/14/21 188/12/14
f 187/14/21 44/12/14 46/14/21
f 68/4/18 129/16/19 128/4/20
f 129/16/19 68/4/18 75/6/11
f 129/16/19 75/6/11 160/6/11
f 177/16/26 93/4/16 151/4/17
f 93/4/16 177/16/26 90/6/15
f 90/6/15 177/16/26 156/6/15
f 150/1/4 96/5/25 180/5/25
f 96/5/25 150/1/4 95/1/1
f 49/12/12 141/9/10 189/12/12
f 141/9/10 49/12/12 51/9/10
f 174/16/19 28/4/18 171/4/20
f 28/4/18 174/16/19 25/6/11
f 25/6/11 174/16/19 155/6/11
f 190/16/19 56/4/18 182/4/20
f 56/4/18 190/16/19 53/6/11
f 53/6/11 190/16/19 140/6/11
f 165/12/14 111/14/21 113/12/14
f 111/14/21 165/12/14 162/14/21
f 46/14/21 189/12/12 187/14/21
f 189/12/12 46/14/21 49/12/12
f 137/1/4 124/2/3 136/2/2
f 124/2/3 137/1/4 123/1/1
f 31/5/21 176/5/21 175/5/21
f 176/5/21 31/5/21 34/5/21
f 13/9/13 185/12/14 191/9/13
f 185/12/14 13/9/13 16/12/14
f 137/1/4 121/4/16 123/1/1
f 121/4/16 137/1/4 138/4/17
f 172/1/24 31/5/27 175/5/27
f 31/5/27 172/1/24 32/1/23
f 36/4/16 173/16/26 164/4/17
f 173/16/26 36/4/16 38/6/15
f 173/16/26 38/6/15 184/6/15
f 41/9/13 188/12/14 183/9/13
f 188/12/14 41/9/13 44/12/14
f 138/4/17 118/6/15 121/4/16
f 118/6/15 138/4/17 139/16/26
f 118/6/15 139/16/26 148/6/15
f 179/5/21 96/5/21 97/5/21
f 96/5/21 179/5/21 180/5/21
f 192/2/28 193/3/29 194/3/28
f 193/3/29 192/2/28 195/2/29
f 158/12/12 78/9/10 80/12/12
f 78/9/10 158/12/12 159/9/10
f 70/3/30 196/3/30 72/3/30
f 196/3/30 70/3/30 197/3/30
f 196/3/30 197/3/30 194/3/30
f 196/3/30 194/3/30 193/3/30
f 196/3/30 193/3/30 198/3/30
f 198/3/30 193/3/30 199/3/30
f 199/3/30 193/3/30 58/3/30
f 58/3/30 193/3/30 200/3/30
f 58/3/30 200/3/30 59/3/30
f 198/3/30 199/3/30 201/3/30
f 201/3/30 94/3/30 198/3/30
f 94/3/30 201/3/30 98/3/30
f 201/3/30 199/3/30 202/3/30
f 203/3/30 202/3/30 199/3/30
f 203/3/30 199/3/30 204/3/30
f 203/3/30 204/3/30 205/3/30
f 33/3/30 205/3/30 204/3/30
f 205/3/30 33/3/30 30/3/30
f 65/3/30 202/3/30 203/3/30
f 65/3/30 203/3/30 5/3/30
f 65/3/30 5/3/30 206/3/30
f 206/3/30 5/3/30 7/3/30
f 64/3/30 202/3/30 65/3/30
f 207/3/30 202/3/30 64/3/30
f 207/3/30 122/3/30 202/3/30
f 122/3/30 207/3/30 125/3/30
f 181/1/24 60/2/31 208/2/32
f 60/2/31 181/1/24 61/1/23
f 10/6/15 191/9/13 186/6/15
f 191/9/13 10/6/15 13/9/13
f 182/4/22 209/16/22 190/16/22
f 209/16/22 182/4/22 181/1/22
f 209/16/22 181/1/22 208/2/22
f 209/16/22 208/2/22 210/2/22
f 69/1/23 131/2/32 67/2/31
f 131/2/32 69/1/23 130/1/24
f 3/2/3 211/2/21 6/2/21
f 3/2/3 63/2/21 211/2/21
f 2/2/2 63/2/21 3/2/3
f 166/2/21 63/2/21 2/2/2
f 134/2/21 63/2/21 166/2/21
f 63/2/21 134/2/21 66/2/21
f 136/2/2 66/2/21 134/2/21
f 136/2/2 212/2/21 66/2/21
f 124/2/3 212/2/21 136/2/2
f 212/2/21 124/2/3 126/2/21
f 168/16/33 134/2/33 166/2/33
f 134/2/33 168/16/33 135/16/33
f 213/2/34 194/3/28 197/3/34
f 194/3/28 213/2/34 192/2/28
f 213/2/34 70/3/35 71/2/35
f 70/3/35 213/2/34 197/3/34
f 200/3/36 62/2/37 59/3/37
f 62/2/37 200/3/36 214/2/36
f 195/2/29 200/3/36 193/3/29
f 200/3/36 195/2/29 214/2/36
f 211/2/38 65/3/6 206/3/38
f 65/3/6 211/2/38 63/2/6
f 7/3/39 211/2/38 206/3/38
f 211/2/38 7/3/39 6/2/39
f 126/2/40 207/3/41 212/2/41
f 207/3/41 126/2/40 125/3/40
f 66/2/7 207/3/41 64/3/7
f 207/3/41 66/2/7 212/2/41
f 127/16/42 215/2/42 132/2/42
f 215/2/42 127/16/42 216/16/42
f 217/16/42 210/2/42 218/2/42
f 210/2/42 217/16/42 209/16/42
f 60/2/31 210/2/21 208/2/32
f 210/2/21 60/2/31 195/2/21
f 195/2/21 60/2/31 214/2/21
f 214/2/21 60/2/31 62/2/21
f 195/2/21 219/2/21 210/2/21
f 210/2/21 219/2/21 218/2/21
f 195/2/21 220/2/21 219/2/21
f 220/2/21 218/2/21 219/2/21
f 218/2/21 220/2/21 215/2/21
f 220/2/21 132/2/21 215/2/21
f 192/2/21 220/2/21 195/2/21
f 192/2/21 132/2/21 220/2/21
f 192/2/21 131/2/32 132/2/21
f 213/2/21 131/2/32 192/2/21
f 71/2/21 131/2/32 213/2/21
f 131/2/32 71/2/21 67/2/31
f 221/3/43 222/17/44 223/3/43
f 222/17/44 221/3/43 224/17/44
f 225/3/45 223/3/43 226/3/45
f 223/3/43 225/3/45 221/3/43
f 227/17/46 226/3/45 228/17/46
f 226/3/45 227/17/46 225/3/45
f 229/18/47 230/19/48 231/19/48
f 230/19/48 229/18/47 232/18/47
f 224/17/44 229/18/47 222/17/44
f 229/18/47 224/17/44 232/18/47
f 227/17/49 221/3/49 225/3/49
f 221/3/49 227/17/49 224/17/49
f 224/17/49 227/17/49 233/18/49
f 224/17/49 233/18/49 232/18/49
f 232/18/49 233/18/49 234/19/49
f 232/18/49 234/19/49 230/19/49
f 231/19/48 234/19/50 235/19/50
f 234/19/50 231/19/48 230/19/48
f 233/18/51 228/17/46 236/18/51
f 228/17/46 233/18/51 227/17/46
f 235/19/50 233/18/51 236/18/51
f 233/18/51 235/19/50 234/19/50
f 237/3/52 238/17/53 239/3/52
f 238/17/53 237/3/52 240/17/53
f 241/3/54 239/3/52 242/3/54
f 239/3/52 241/3/54 237/3/52
f 243/17/55 242/3/54 244/17/55
f 242/3/54 243/17/55 241/3/54
f 245/18/56 246/19/57 247/19/57
f 246/19/57 245/18/56 248/18/56
f 240/17/53 245/18/56 238/17/53
f 245/18/56 240/17/53 248/18/56
f 243/17/58 237/3/58 241/3/58
f 237/3/58 243/17/58 240/17/58
f 240/17/58 243/17/58 249/18/58
f 240/17/58 249/18/58 248/18/58
f 248/18/58 249/18/58 250/19/58
f 248/18/58 250/19/58 246/19/58
f 247/19/57 250/19/59 251/19/59
f 250/19/59 247/19/57 246/19/57
f 249/18/60 244/17/55 252/18/60
f 244/17/55 249/18/60 243/17/55
f 251/19/59 249/18/60 252/18/60
f 249/18/60 251/19/59 250/19/59
f 253/20/61 254/21/5 255/21/36
f 256/21/34 257/21/8 258/20/62
f 258/20/62 255/21/36 256/21/34
f 255/21/36 258/20/62 253/20/61
f 253/20/61 258/20/62 259/19/58
f 253/20/61 259/19/58 260/19/58
f 261/22/63 105/23/64 104/22/63
f 105/23/64 261/22/63 262/23/64
f 263/24/65 109/25/66 107/24/65
f 109/25/66 263/24/65 264/25/66
f 117/22/67 265/26/68 119/26/68
f 265/26/68 117/22/67 266/22/67
f 267/24/65 81/25/66 79/24/65
f 81/25/66 267/24/65 268/25/66
f 269/22/63 77/23/64 76/22/63
f 77/23/64 269/22/63 270/23/64
f 29/27/69 205/28/70 30/28/70
f 205/28/70 29/27/69 271/27/69
f 272/29/30 112/25/71 110/29/30
f 112/25/71 272/29/30 273/25/71
f 92/27/72 198/28/58 94/28/58
f 198/28/58 92/27/72 274/27/72
f 120/27/72 202/28/58 122/28/58
f 202/28/58 120/27/72 275/27/72
f 270/23/64 79/24/65 77/23/64
f 79/24/65 270/23/64 267/24/65
f 276/24/73 88/23/74 86/24/73
f 88/23/74 276/24/73 277/23/74
f 278/24/73 116/23/74 114/24/73
f 116/23/74 278/24/73 279/23/74
f 268/25/66 82/29/30 81/25/66
f 82/29/30 268/25/66 280/29/30
f 281/25/71 86/24/73 84/25/71
f 86/24/73 281/25/71 276/24/73
f 116/23/74 266/22/67 117/22/67
f 266/22/67 116/23/74 279/23/74
f 262/23/64 107/24/65 105/23/64
f 107/24/65 262/23/64 263/24/65
f 91/26/68 274/27/72 92/27/72
f 274/27/72 91/26/68 282/26/68
f 283/26/75 104/22/63 102/26/75
f 104/22/63 283/26/75 261/22/63
f 284/27/69 102/26/75 101/27/69
f 102/26/75 284/27/69 283/26/75
f 119/26/68 275/27/72 120/27/72
f 275/27/72 119/26/68 265/26/68
f 273/25/71 114/24/73 112/25/71
f 114/24/73 273/25/71 278/24/73
f 89/22/67 282/26/68 91/26/68
f 282/26/68 89/22/67 285/22/67
f 286/27/69 74/26/75 73/27/69
f 74/26/75 286/27/69 287/26/75
f 88/23/74 285/22/67 89/22/67
f 285/22/67 88/23/74 277/23/74
f 287/26/75 76/22/63 74/26/75
f 76/22/63 287/26/75 269/22/63
f 264/25/66 110/29/30 109/25/66
f 110/29/30 264/25/66 272/29/30
f 57/27/69 199/28/70 58/28/70
f 199/28/70 57/27/69 288/27/69
f 280/29/30 84/25/71 82/29/30
f 84/25/71 280/29/30 281/25/71
f 55/26/75 288/27/69 57/27/69
f 288/27/69 55/26/75 289/26/75
f 290/27/72 33/28/58 204/28/58
f 33/28/58 290/27/72 37/27/72
f 47/29/30 291/25/71 292/29/30
f 291/25/71 47/29/30 45/25/71
f 45/25/71 293/24/73 291/25/71
f 293/24/73 45/25/71 43/24/73
f 52/23/64 294/22/63 54/22/63
f 294/22/63 52/23/64 295/23/64
f 296/26/68 37/27/72 290/27/72
f 37/27/72 296/26/68 39/26/68
f 297/23/74 40/22/67 298/22/67
f 40/22/67 297/23/74 42/23/74
f 298/22/67 39/26/68 296/26/68
f 39/26/68 298/22/67 40/22/67
f 43/24/73 297/23/74 293/24/73
f 297/23/74 43/24/73 42/23/74
f 52/23/64 299/24/65 295/23/64
f 299/24/65 52/23/64 50/24/65
f 48/25/66 292/29/30 300/25/66
f 292/29/30 48/25/66 47/29/30
f 54/22/63 289/26/75 55/26/75
f 289/26/75 54/22/63 294/22/63
f 50/24/65 300/25/66 299/24/65
f 300/25/66 50/24/65 48/25/66
f 199/28/5 290/27/5 204/28/5
f 290/27/5 199/28/5 296/26/5
f 296/26/5 199/28/5 298/22/5
f 298/22/5 199/28/5 297/23/5
f 297/23/5 199/28/5 293/24/5
f 293/24/5 199/28/5 291/25/5
f 291/25/5 199/28/5 292/29/5
f 292/29/5 199/28/5 300/25/5
f 300/25/5 199/28/5 299/24/5
f 299/24/5 199/28/5 295/23/5
f 295/23/5 199/28/5 294/22/5
f 294/22/5 199/28/5 289/26/5
f 289/26/5 199/28/5 288/27/5
f 282/26/8 198/28/8 274/27/8
f 198/28/8 282/26/8 196/28/8
f 196/28/8 282/26/8 285/22/8
f 196/28/8 285/22/8 277/23/8
f 196/28/8 277/23/8 276/24/8
f 196/28/8 276/24/8 281/25/8
f 196/28/8 281/25/8 280/29/8
f 196/28/8 280/29/8 268/25/8
f 196/28/8 268/25/8 267/24/8
f 196/28/8 267/24/8 270/23/8
f 196/28/8 270/23/8 269/22/8
f 196/28/8 269/22/8 287/26/8
f 196/28/8 287/26/8 286/27/8
f 286/27/69 72/28/70 196/28/70
f 72/28/70 286/27/69 73/27/69
f 265/26/8 202/28/8 275/27/8
f 202/28/8 265/26/8 201/28/8
f 201/28/8 265/26/8 266/22/8
f 201/28/8 266/22/8 279/23/8
f 201/28/8 279/23/8 278/24/8
f 201/28/8 278/24/8 273/25/8
f 201/28/8 273/25/8 272/29/8
f 201/28/8 272/29/8 264/25/8
f 201/28/8 264/25/8 263/24/8
f 201/28/8 263/24/8 262/23/8
f 201/28/8 262/23/8 261/22/8
f 201/28/8 261/22/8 283/26/8
f 201/28/8 283/26/8 284/27/8
f 205/28/5 301/27/5 203/28/5
f 301/27/5 205/28/5 302/26/5
f 302/26/5 205/28/5 303/22/5
f 303/22/5 205/28/5 304/23/5
f 304/23/5 205/28/5 305/24/5
f 305/24/5 205/28/5 306/25/5
f 306/25/5 205/28/5 307/29/5
f 307/29/5 205/28/5 308/25/5
f 308/25/5 205/28/5 309/24/5
f 309/24/5 205/28/5 310/23/5
f 310/23/5 205/28/5 311/22/5
f 311/22/5 205/28/5 312/26/5
f 312/26/5 205/28/5 271/27/5
f 284/27/69 98/28/70 201/28/70
f 98/28/70 284/27/69 101/27/69
f 27/26/75 271/27/69 29/27/69
f 271/27/69 27/26/75 312/26/75
f 301/27/72 5/28/58 203/28/58
f 5/28/58 301/27/72 9/27/72
f 19/29/30 306/25/71 307/29/30
f 306/25/71 19/29/30 17/25/71
f 17/25/71 305/24/73 306/25/71
f 305/24/73 17/25/71 15/24/73
f 26/22/63 310/23/64 311/22/63
f 310/23/64 26/22/63 24/23/64
f 302/26/68 9/27/72 301/27/72
f 9/27/72 302/26/68 11/26/68
f 304/23/74 12/22/67 303/22/67
f 12/22/67 304/23/74 14/23/74
f 303/22/67 11/26/68 302/26/68
f 11/26/68 303/22/67 12/22/67
f 24/23/64 309/24/65 310/23/64
f 309/24/65 24/23/64 22/24/65
f 20/25/66 307/29/30 308/25/66
f 307/29/30 20/25/66 19/29/30
f 15/24/73 304/23/74 305/24/73
f 304/23/74 15/24/73 14/23/74
f 26/22/63 312/26/75 27/26/75
f 312/26/75 26/22/63 311/22/63
f 22/24/65 308/25/66 309/24/65
f 308/25/66 22/24/65 20/25/66
f 313/30/76 314/31/76 315/31/76
f 314/31/76 313/30/76 316/32/76
f 316/32/76 313/30/76 317/32/76
f 318/30/76 317/32/76 313/30/76
f 319/31/76 317/32/76 318/30/76
f 317/32/76 319/31/76 320/31/76
f 321/33/30 322/33/30 323/33/30
f 322/33/30 321/33/30 324/33/30
f 325/31/77 326/30/77 327/31/77
f 326/30/77 325/31/77 328/34/77
f 326/30/77 328/34/77 318/30/77
f 318/30/77 328/34/77 329/34/77
f 318/30/77 329/34/77 330/31/77
f 318/30/77 330/31/77 319/31/77
f 331/31/58 321/33/58 323/33/58
f 321/33/58 331/31/58 332/35/58
f 332/35/58 331/31/58 333/35/58
f 321/33/5 334/35/5 324/33/5
f 334/35/5 321/33/5 332/35/5
f 335/35/8 336/33/8 337/35/8
f 336/33/8 335/35/8 338/33/8
f 335/35/58 339/33/58 338/33/58
f 339/33/58 335/35/58 340/31/58
f 340/31/58 335/35/58 341/35/58
f 339/33/30 336/33/30 338/33/30
f 336/33/30 339/33/30 342/33/30
f 343/35/21 335/35/21 337/35/21
f 335/35/21 343/35/21 341/35/21
f 334/35/21 333/35/21 344/35/21
f 333/35/21 334/35/21 332/35/21
f 345/31/78 313/30/78 315/31/78
f 346/34/78 313/30/78 345/31/78
f 347/34/78 313/30/78 346/34/78
f 313/30/78 347/34/78 348/30/78
f 349/31/78 348/30/78 347/34/78
f 348/30/78 349/31/78 350/31/78
f 327/31/70 351/33/70 352/33/70
f 351/33/70 327/31/70 353/33/70
f 353/33/70 327/31/70 354/33/70
f 354/33/70 327/31/70 350/31/70
f 355/36/70 351/33/70 353/33/70
f 351/33/70 355/36/70 356/36/70
f 357/36/70 356/36/70 355/36/70
f 357/36/70 358/36/70 356/36/70
f 135/37/70 358/36/70 357/36/70
f 358/36/70 135/37/70 168/37/70
f 359/36/5 209/37/5 360/36/5
f 209/37/5 359/36/5 190/37/5
f 361/38/5 190/37/5 359/36/5
f 361/38/5 140/39/5 190/37/5
f 361/38/5 141/40/5 140/39/5
f 361/38/5 189/41/5 141/40/5
f 319/31/5 189/41/5 361/38/5
f 319/31/5 187/42/5 189/41/5
f 330/31/5 187/42/5 319/31/5
f 330/31/5 188/41/5 187/42/5
f 331/31/5 188/41/5 330/31/5
f 323/33/5 188/41/5 331/31/5
f 323/33/5 183/40/5 188/41/5
f 322/33/5 183/40/5 323/33/5
f 183/40/5 322/33/5 184/39/5
f 362/31/5 184/39/5 322/33/5
f 362/31/5 173/37/5 184/39/5
f 325/31/5 173/37/5 362/31/5
f 325/31/5 174/37/5 173/37/5
f 325/31/5 155/39/5 174/37/5
f 325/31/5 142/40/5 155/39/5
f 325/31/5 143/41/5 142/40/5
f 325/31/5 161/42/5 143/41/5
f 327/31/5 161/42/5 325/31/5
f 327/31/5 185/41/5 161/42/5
f 327/31/5 191/40/5 185/41/5
f 327/31/5 167/37/5 191/40/5
f 191/40/5 167/37/5 186/39/5
f 186/39/5 167/37/5 170/37/5
f 352/33/5 167/37/5 327/31/5
f 358/36/5 167/37/5 352/33/5
f 167/37/5 358/36/5 168/37/5
f 363/36/58 209/37/58 217/37/58
f 209/37/58 363/36/58 360/36/58
f 360/36/58 363/36/58 364/36/58
f 363/36/58 365/43/79 364/36/58
f 364/36/58 365/43/79 366/43/79
f 367/36/58 365/43/79 363/36/58
f 367/36/58 368/36/58 365/43/79
f 367/36/58 369/36/58 368/36/58
f 216/37/58 369/36/58 367/36/58
f 369/36/58 216/37/58 127/37/58
f 345/31/8 339/33/8 340/31/8
f 339/33/8 345/31/8 145/41/8
f 145/41/8 345/31/8 157/42/8
f 144/40/8 339/33/8 145/41/8
f 157/42/8 345/31/8 315/31/8
f 144/40/8 342/33/8 339/33/8
f 157/42/8 315/31/8 158/41/8
f 156/39/8 342/33/8 144/40/8
f 156/39/8 370/31/8 342/33/8
f 177/37/8 370/31/8 156/39/8
f 177/37/8 349/31/8 370/31/8
f 158/41/8 315/31/8 371/38/8
f 152/37/8 349/31/8 177/37/8
f 158/41/8 371/38/8 159/40/8
f 159/40/8 371/38/8 160/39/8
f 160/39/8 371/38/8 129/37/8
f 129/37/8 371/38/8 372/36/8
f 129/37/8 372/36/8 127/37/8
f 127/37/8 372/36/8 369/36/8
f 154/39/8 349/31/8 152/37/8
f 147/40/8 349/31/8 154/39/8
f 146/41/8 349/31/8 147/40/8
f 162/42/8 349/31/8 146/41/8
f 354/33/8 349/31/8 162/42/8
f 349/31/8 354/33/8 350/31/8
f 354/33/8 162/42/8 165/41/8
f 354/33/8 165/41/8 357/36/8
f 357/36/8 165/41/8 135/37/8
f 135/37/8 165/41/8 149/40/8
f 135/37/8 149/40/8 133/37/8
f 133/37/8 149/40/8 148/39/8
f 133/37/8 148/39/8 139/37/8
f 314/31/80 371/38/80 315/31/80
f 371/38/80 314/31/80 373/44/80
f 373/44/80 314/31/80 374/44/81
f 374/44/81 314/31/80 320/31/80
f 374/44/81 320/31/80 375/44/81
f 375/44/81 320/31/80 376/44/80
f 376/44/80 320/31/80 319/31/80
f 376/44/80 319/31/80 361/38/80
f 374/44/81 366/43/79 365/43/79
f 366/43/79 374/44/81 375/44/81
f 348/30/21 377/30/21 313/30/21
f 377/30/21 348/30/21 326/30/21
f 378/30/21 313/30/21 377/30/21
f 377/30/21 326/30/21 379/30/21
f 313/30/21 378/30/21 318/30/21
f 379/30/21 326/30/21 380/30/21
f 318/30/21 378/30/21 380/30/21
f 318/30/21 380/30/21 326/30/21
f 327/31/82 381/45/82 350/31/82
f 381/45/82 327/31/82 326/30/82
f 382/45/82 350/31/82 381/45/82
f 381/45/82 326/30/82 383/32/82
f 350/31/82 382/45/82 348/30/82
f 383/32/82 326/30/82 384/32/82
f 348/30/82 382/45/82 384/32/82
f 348/30/82 384/32/82 326/30/82
f 385/46/5 386/30/5 387/46/5
f 386/30/5 385/46/5 388/30/5
f 386/30/83 389/30/84 390/30/83
f 389/30/84 386/30/83 388/30/84
f 389/30/84 385/46/85 391/46/85
f 385/46/85 389/30/84 388/30/84
f 386/30/83 392/46/86 387/46/86
f 392/46/86 386/30/83 390/30/83
f 390/30/8 391/46/8 392/46/8
f 391/46/8 390/30/8 389/30/8
f 334/47/70 322/48/70 324/48/70
f 322/48/70 334/47/70 362/49/70
f 362/49/70 334/47/70 344/47/70
f 370/49/70 336/48/70 342/48/70
f 336/48/70 370/49/70 337/47/70
f 337/47/70 370/49/70 343/47/70
f 222/50/87 226/51/87 223/51/87
f 226/51/87 222/50/87 228/50/87
f 228/50/87 222/50/87 229/52/87
f 228/50/87 229/52/87 236/52/87
f 236/52/87 229/52/87 231/53/87
f 236/52/87 231/53/87 235/53/87
f 238/50/70 242/51/70 239/51/70
f 242/51/70 238/50/70 244/50/70
f 244/50/70 238/50/70 245/52/70
f 244/50/70 245/52/70 252/52/70
f 252/52/70 245/52/70 247/53/70
f 252/52/70 247/53/70 251/53/70
f 330/54/77 393/55/77 394/54/77
f 395/56/77 393/55/77 330/54/77
f 395/56/77 396/55/77 393/55/77
f 328/56/77 396/55/77 395/56/77
f 328/56/77 362/54/77 396/55/77
f 362/54/77 328/56/77 325/54/77
f 316/57/76 320/54/76 314/54/76
f 320/54/76 316/57/76 317/57/76
f 383/57/82 397/58/82 398/58/82
f 397/58/82 383/57/82 384/57/82
f 399/56/78 349/54/78 347/56/78
f 349/54/78 399/56/78 400/55/78
f 370/54/78 349/54/78 400/55/78
f 400/55/78 399/56/78 401/55/78
f 401/55/78 399/56/78 345/54/78
f 401/55/78 345/54/78 402/54/78
f 403/59/36 404/60/5 405/59/5
f 404/60/5 403/59/36 406/61/88
f 406/61/88 403/59/36 407/62/89
f 408/62/90 409/59/58 410/59/34
f 409/59/58 408/62/90 411/62/79
f 412/62/79 403/59/36 413/59/58
f 403/59/36 412/62/79 407/62/89
f 414/61/91 415/59/8 416/60/8
f 415/59/8 414/61/91 410/59/34
f 410/59/34 414/61/91 408/62/90
f 414/61/91 411/62/79 408/62/90
f 411/62/79 414/61/91 417/61/92
f 418/61/92 407/62/89 412/62/79
f 407/62/89 418/61/92 406/61/88
f 419/63/70 420/64/70 421/64/70
f 420/64/70 419/63/70 422/63/70
f 423/63/70 424/64/70 425/64/70
f 424/64/70 423/63/70 426/63/70
